<?xml version="1.0" standalone="no"?>
<!DOCTYPE svg PUBLIC "-//W3C//DTD SVG 1.1//EN" "http://www.w3.org/Graphics/SVG/1.1/DTD/svg11.dtd" >
<svg xmlns="http://www.w3.org/2000/svg">
<metadata>Generated by IcoMoon</metadata>
<defs>
<font id="icomoon" horiz-adv-x="1024">
<font-face units-per-em="1024" ascent="960" descent="-64" />
<missing-glyph horiz-adv-x="1024" />
<glyph unicode="&#x20;" horiz-adv-x="512" d="" />
<glyph unicode="&#xe900;" glyph-name="twitter" d="M1022.037 765.056c-37.76-16.597-78.080-27.904-120.533-33.067 43.264 26.069 76.544 67.157 92.288 116.181-40.576-23.68-85.547-40.917-133.419-50.517-38.229 40.917-92.715 66.517-153.216 66.517-115.925 0-209.92-93.995-209.92-209.792 0-16.64 1.92-32.64 5.419-47.957-174.507 8.235-329.173 92.032-432.683 218.709-18.219-30.805-28.416-66.603-28.416-105.6 0-72.96 37.12-137.088 93.355-174.763-34.432 1.109-66.816 10.581-95.061 26.283v-2.603c0-101.76 72.235-186.624 168.363-205.952-17.621-4.736-36.224-7.296-55.296-7.296-13.397 0-26.24 1.28-39.083 3.669 26.923-83.328 104.32-144.085 196.437-145.792-71.68-56.277-162.517-89.813-260.352-89.813-16.64 0-33.237 0.981-49.92 2.859 93.397-59.477 203.435-94.251 322.432-94.251 386.304 0 597.291 319.829 597.291 596.736 0 8.917 0 17.92-0.64 26.88 41.003 29.397 76.8 66.56 104.96 108.715l-2.005 0.853z" />
<glyph unicode="&#xe901;" glyph-name="linkedin" horiz-adv-x="878" d="M199.429 593.714v-566.286h-188.571v566.286h188.571zM211.429 768.571c0.571-54.286-40.571-97.714-106.286-97.714v0h-1.143c-63.429 0-104 43.429-104 97.714 0 55.429 42.286 97.714 106.286 97.714 64.571 0 104.571-42.286 105.143-97.714zM877.714 352v-324.571h-188v302.857c0 76-27.429 128-95.429 128-52 0-82.857-34.857-96.571-68.571-4.571-12.571-6.286-29.143-6.286-46.286v-316h-188c2.286 513.143 0 566.286 0 566.286h188v-82.286h-1.143c24.571 38.857 69.143 95.429 170.857 95.429 124 0 216.571-81.143 216.571-254.857z" />
<glyph unicode="&#xe902;" glyph-name="googleplus" d="M325.76 494.549v-111.744h184.96c-7.381-48-55.893-140.587-184.789-140.587-111.104 0-201.856 92.16-201.856 205.781 0 113.579 90.539 205.739 201.728 205.739 63.36 0 105.771-27.008 129.92-50.261l88.448 85.077c-56.747 53.12-130.389 85.12-218.24 85.12-180.352 0.085-325.931-145.835-325.931-325.675s145.664-325.76 325.76-325.76c188.16 0 312.832 132.181 312.832 318.336 0 21.376-2.304 37.76-5.12 53.973h-307.712zM1024 494.549h-93.141v93.141h-93.141v-93.141h-93.099v-93.056h93.184v-93.184h93.397v93.184h92.8z" />
<glyph unicode="&#xe903;" glyph-name="facebook, facebook-f" horiz-adv-x="602" d="M548 944v-150.857h-89.714c-70.286 0-83.429-33.714-83.429-82.286v-108h167.429l-22.286-169.143h-145.143v-433.714h-174.857v433.714h-145.714v169.143h145.714v124.571c0 144.571 88.571 223.429 217.714 223.429 61.714 0 114.857-4.571 130.286-6.857z" />
<glyph unicode="&#xe904;" glyph-name="play1" horiz-adv-x="809" d="M790.857 421.143l-758.857-421.714c-17.714-9.714-32-1.143-32 18.857v841.143c0 20 14.286 28.571 32 18.857l758.857-421.714c17.714-9.714 17.714-25.714 0-35.429z" />
<glyph unicode="&#xe905;" glyph-name="pinterest-p" horiz-adv-x="731" d="M0 609.714c0 210.857 193.143 341.143 388.571 341.143 179.429 0 342.857-123.429 342.857-312.571 0-177.714-90.857-374.857-293.143-374.857-48 0-108.571 24-132 68.571-43.429-172-40-197.714-136-329.143l-8-2.857-5.143 5.714c-3.429 36-8.571 71.429-8.571 107.429 0 116.571 53.714 285.143 80 398.286-14.286 29.143-18.286 64.571-18.286 96.571 0 57.714 40 130.857 105.143 130.857 48 0 73.714-36.571 73.714-81.714 0-74.286-50.286-144-50.286-216 0-49.143 40.571-83.429 88-83.429 131.429 0 172 189.714 172 290.857 0 135.429-96 209.143-225.714 209.143-150.857 0-267.429-108.571-267.429-261.714 0-73.714 45.143-111.429 45.143-129.143 0-14.857-10.857-67.429-29.714-67.429-2.857 0-6.857 1.143-9.714 1.714-81.714 24.571-111.429 133.714-111.429 208.571z" />
<glyph unicode="&#xe906;" glyph-name="instagram" d="M512 960c-139.093 0-156.459-0.64-211.072-3.072-54.528-2.56-91.648-11.136-124.288-23.808-33.664-13.056-62.251-30.592-90.709-59.051s-46.037-57.003-59.051-90.709c-12.672-32.64-21.291-69.76-23.808-124.288-2.56-54.613-3.072-71.979-3.072-211.072s0.64-156.459 3.072-211.072c2.56-54.485 11.136-91.648 23.808-124.288 13.056-33.621 30.592-62.251 59.051-90.709 28.459-28.416 57.003-46.037 90.709-59.051 32.683-12.629 69.803-21.291 124.288-23.808 54.613-2.56 71.979-3.072 211.072-3.072s156.459 0.64 211.072 3.072c54.485 2.56 91.648 11.179 124.288 23.808 33.621 13.056 62.251 30.635 90.709 59.051 28.416 28.459 46.037 56.96 59.051 90.709 12.629 32.64 21.291 69.803 23.808 124.288 2.56 54.613 3.072 71.979 3.072 211.072s-0.64 156.459-3.072 211.072c-2.56 54.485-11.179 91.691-23.808 124.288-13.056 33.664-30.635 62.251-59.051 90.709-28.459 28.459-56.96 46.037-90.709 59.051-32.64 12.672-69.803 21.291-124.288 23.808-54.613 2.56-71.979 3.072-211.072 3.072zM512 867.84c136.661 0 152.96-0.683 206.933-3.029 49.92-2.347 77.013-10.624 95.019-17.707 23.979-9.259 40.96-20.352 58.965-38.229 17.877-17.92 28.971-34.944 38.229-58.923 6.997-18.005 15.36-45.099 17.621-95.019 2.432-54.016 2.987-70.229 2.987-206.933s-0.64-152.96-3.157-206.933c-2.603-49.92-10.923-77.013-17.963-95.019-9.557-23.979-20.437-40.96-38.357-58.965-17.877-17.877-35.157-28.971-58.88-38.229-17.92-6.997-45.44-15.36-95.36-17.621-54.357-2.432-70.357-2.987-207.317-2.987-137.003 0-153.003 0.64-207.317 3.157-49.963 2.603-77.483 10.923-95.403 17.963-24.277 9.557-40.96 20.437-58.837 38.357-17.963 17.877-29.44 35.157-38.4 58.88-7.040 17.92-15.317 45.44-17.92 95.36-1.92 53.76-2.603 70.357-2.603 206.677 0 136.363 0.683 153.003 2.603 207.403 2.603 49.92 10.88 77.397 17.92 95.317 8.96 24.32 20.437 40.96 38.4 58.923 17.877 17.877 34.56 29.397 58.837 38.315 17.92 7.083 44.843 15.403 94.763 17.963 54.4 1.92 70.4 2.56 207.317 2.56l1.92-1.28zM512 710.912c-145.28 0-262.912-117.76-262.912-262.912 0-145.28 117.76-262.912 262.912-262.912 145.28 0 262.912 117.76 262.912 262.912 0 145.28-117.76 262.912-262.912 262.912zM512 277.333c-94.293 0-170.667 76.373-170.667 170.667s76.373 170.667 170.667 170.667 170.667-76.373 170.667-170.667-76.373-170.667-170.667-170.667zM846.763 721.28c0-33.92-27.563-61.44-61.44-61.44-33.92 0-61.44 27.563-61.44 61.44s27.563 61.397 61.44 61.397c33.835 0.043 61.44-27.52 61.44-61.397z" />
<glyph unicode="&#xe907;" glyph-name="phone" horiz-adv-x="805" d="M804.571 242.286c0-20.571-9.143-60.571-17.714-79.429-12-28-44-46.286-69.714-60.571-33.714-18.286-68-29.143-106.286-29.143-53.143 0-101.143 21.714-149.714 39.429-34.857 12.571-68.571 28-100 47.429-97.143 60-214.286 177.143-274.286 274.286-19.429 31.429-34.857 65.143-47.429 100-17.714 48.571-39.429 96.571-39.429 149.714 0 38.286 10.857 72.571 29.143 106.286 14.286 25.714 32.571 57.714 60.571 69.714 18.857 8.571 58.857 17.714 79.429 17.714 4 0 8 0 12-1.714 12-4 24.571-32 30.286-43.429 18.286-32.571 36-65.714 54.857-97.714 9.143-14.857 26.286-33.143 26.286-50.857 0-34.857-103.429-85.714-103.429-116.571 0-15.429 14.286-35.429 22.286-49.143 57.714-104 129.714-176 233.714-233.714 13.714-8 33.714-22.286 49.143-22.286 30.857 0 81.714 103.429 116.571 103.429 17.714 0 36-17.143 50.857-26.286 32-18.857 65.143-36.571 97.714-54.857 11.429-5.714 39.429-18.286 43.429-30.286 1.714-4 1.714-8 1.714-12z" />
<glyph unicode="&#xe908;" glyph-name="search" horiz-adv-x="951" d="M658.286 475.428c0 141.143-114.857 256-256 256s-256-114.857-256-256 114.857-256 256-256 256 114.857 256 256zM950.857 0c0-40-33.143-73.143-73.143-73.143-19.429 0-38.286 8-51.429 21.714l-196 195.429c-66.857-46.286-146.857-70.857-228-70.857-222.286 0-402.286 180-402.286 402.286s180 402.286 402.286 402.286 402.286-180 402.286-402.286c0-81.143-24.571-161.143-70.857-228l196-196c13.143-13.143 21.143-32 21.143-51.429z" />
<glyph unicode="&#xe909;" glyph-name="chevron-left" d="M443.733 426.667l226.133 226.133c17.067 17.067 17.067 42.667 0 59.733s-42.667 17.067-59.733 0l-256-256c-17.067-17.067-17.067-42.667 0-59.733l256-256c8.533-8.533 21.333-12.8 29.867-12.8s21.333 4.267 29.867 12.8c17.067 17.067 17.067 42.667 0 59.733l-226.133 226.133z" />
<glyph unicode="&#xe90a;" glyph-name="tag" horiz-adv-x="866" d="M256 694.857c0 40.571-32.571 73.143-73.143 73.143s-73.143-32.571-73.143-73.143 32.571-73.143 73.143-73.143 73.143 32.571 73.143 73.143zM865.714 365.714c0-19.429-8-38.286-21.143-51.429l-280.571-281.143c-13.714-13.143-32.571-21.143-52-21.143s-38.286 8-51.429 21.143l-408.571 409.143c-29.143 28.571-52 84-52 124.571v237.714c0 40 33.143 73.143 73.143 73.143h237.714c40.571 0 96-22.857 125.143-52l408.571-408c13.143-13.714 21.143-32.571 21.143-52z" />
<glyph unicode="&#xe90b;" glyph-name="chevron-right" d="M669.867 456.534l-256 256c-17.067 17.067-42.667 17.067-59.733 0s-17.067-42.667 0-59.733l226.133-226.133-226.133-226.133c-17.067-17.067-17.067-42.667 0-59.733 8.533-8.533 17.067-12.8 29.867-12.8s21.333 4.267 29.867 12.8l256 256c17.067 17.067 17.067 42.667 0 59.733z" />
<glyph unicode="&#xe90c;" glyph-name="cancel" d="M726 272.667l-154 154 154 154-60 60-154-154-154 154-60-60 154-154-154-154 60-60 154 154 154-154zM512 852.667c236 0 426-190 426-426s-190-426-426-426-426 190-426 426 190 426 426 426z" />
<glyph unicode="&#xe90d;" glyph-name="picture" d="M947.2-51.2h-870.4c-42.347 0-76.8 34.451-76.8 76.8v870.4c0 42.347 34.453 76.8 76.8 76.8h870.4c42.349 0 76.8-34.453 76.8-76.8v-870.4c0-42.349-34.451-76.8-76.8-76.8zM76.8 921.6c-14.115 0-25.6-11.485-25.6-25.6v-870.4c0-14.115 11.485-25.6 25.6-25.6h870.4c14.115 0 25.6 11.485 25.6 25.6v870.4c0 14.115-11.485 25.6-25.6 25.6h-870.4zM665.6 512c-56.464 0-102.4 45.936-102.4 102.4s45.936 102.4 102.4 102.4 102.4-45.936 102.4-102.4-45.936-102.4-102.4-102.4zM665.6 665.6c-28.232 0-51.2-22.968-51.2-51.2s22.968-51.2 51.2-51.2 51.2 22.968 51.2 51.2-22.968 51.2-51.2 51.2zM896 870.4h-768c-14.138 0-25.6-11.462-25.6-25.6v-614.4c0-14.139 11.462-25.6 25.6-25.6h768c14.139 0 25.6 11.461 25.6 25.6v614.4c0 14.138-11.461 25.6-25.6 25.6zM153.6 374.267l164.318 184.858c4.203 4.728 9.694 7.371 15.462 7.44 5.725 0.090 11.322-2.438 15.638-7.062l283.27-303.502h-478.69v118.267zM870.4 256h-168.075l-315.875 338.437c-14.269 15.288-33.312 23.605-53.691 23.325-20.354-0.246-39.214-8.992-53.107-24.621l-126.051-141.808v367.867h716.8v-563.2z" />
<glyph unicode="&#xe90e;" glyph-name="play" d="M512 960c-282.77 0-512-229.23-512-512s229.23-512 512-512 512 229.23 512 512-229.23 512-512 512zM512 32c-229.75 0-416 186.25-416 416s186.25 416 416 416 416-186.25 416-416-186.25-416-416-416zM384 672l384-224-384-224z" />
<glyph unicode="&#xe90f;" glyph-name="envelop" d="M1024 545.143v-453.714c0-50.286-41.143-91.429-91.429-91.429h-841.143c-50.286 0-91.429 41.143-91.429 91.429v453.714c17.143-18.857 36.571-35.429 57.714-49.714 94.857-64.571 190.857-129.143 284-197.143 48-35.429 107.429-78.857 169.714-78.857h1.143c62.286 0 121.714 43.429 169.714 78.857 93.143 67.429 189.143 132.571 284.571 197.143 20.571 14.286 40 30.857 57.143 49.714zM1024 713.143c0-64-47.429-121.714-97.714-156.571-89.143-61.714-178.857-123.429-267.429-185.714-37.143-25.714-100-78.286-146.286-78.286h-1.143c-46.286 0-109.143 52.571-146.286 78.286-88.571 62.286-178.286 124-266.857 185.714-40.571 27.429-98.286 92-98.286 144 0 56 30.286 104 91.429 104h841.143c49.714 0 91.429-41.143 91.429-91.429z" />
<glyph unicode="&#xe910;" glyph-name="edit-square" d="M810.691 448.017c-0.003 0-0.006 0-0.009 0-23.558 0-42.656-19.098-42.656-42.656 0-0.003 0-0.007 0-0.010v0.001-341.347c-0.026-23.553-19.112-42.639-42.663-42.665h-597.359c-23.554 0.023-42.642 19.111-42.665 42.663v597.358c0.023 23.554 19.111 42.642 42.663 42.665h341.35c23.566 0 42.669 19.104 42.669 42.669s-19.104 42.669-42.669 42.669h-341.347c-70.659-0.089-127.915-57.345-128.004-127.996v-597.365c0.089-70.659 57.345-127.916 127.996-128.004h597.365c70.659 0.089 127.916 57.345 128.004 127.996v341.356c0 0.010 0 0.021 0 0.032 0 23.546-19.088 42.633-42.633 42.633-0.014 0-0.028 0-0.042 0h0.002zM400.053 486.885c-2.879-2.889-4.944-6.592-5.819-10.734l-0.025-0.141-30.165-150.881c-0.264-1.26-0.416-2.707-0.416-4.19 0-11.774 9.545-21.319 21.319-21.319 0.017 0 0.035 0 0.052 0h-0.003c0.017 0 0.037 0 0.057 0 1.46 0 2.883 0.154 4.256 0.446l-0.133-0.024 150.833 30.165c4.306 0.875 8.031 2.948 10.922 5.851l337.59 337.59-150.833 150.825zM992.799 928.797c-19.31 19.28-45.971 31.203-75.417 31.203s-56.106-11.923-75.418-31.204l-59.049-59.047 150.833-150.833 59.050 59.056c19.299 19.3 31.235 45.962 31.235 75.413s-11.936 56.112-31.235 75.413v0z" />
<glyph unicode="&#xe911;" glyph-name="map-marker" horiz-adv-x="585" d="M438.857 585.143c0 80.571-65.714 146.286-146.286 146.286s-146.286-65.714-146.286-146.286 65.714-146.286 146.286-146.286 146.286 65.714 146.286 146.286zM585.143 585.143c0-34.857-4-70.857-18.857-102.286l-208-442.286c-12-25.143-38.286-40.571-65.714-40.571s-53.714 15.429-65.143 40.571l-208.571 442.286c-14.857 31.429-18.857 67.429-18.857 102.286 0 161.714 130.857 292.571 292.571 292.571s292.571-130.857 292.571-292.571z" />
<glyph unicode="&#xe912;" glyph-name="shopping-cart" horiz-adv-x="1165" d="M377.739 277.33h616.679c0.017 0 0.038 0 0.058 0 15.494 0 28.569 10.356 32.681 24.524l0.060 0.24 136.541 477.872c0.841 2.82 1.325 6.060 1.325 9.413 0 18.826-15.262 34.088-34.088 34.088-0.016 0-0.032 0-0.048 0h-832.009l-24.401 109.795c-3.507 15.41-17.090 26.738-33.32 26.738-0.004 0-0.008 0-0.013 0h-207.073c-18.851 0-34.133-15.282-34.133-34.133s15.282-34.133 34.133-34.133v0h179.679l123.261-554.662c-36.625-16.123-61.733-52.098-61.733-93.937 0-56.519 45.818-102.337 102.337-102.337 0.022 0 0.044 0 0.066 0h616.676c18.851 0 34.133 15.282 34.133 34.133s-15.282 34.133-34.133 34.133v0h-616.679c-18.851 0-34.133 15.282-34.133 34.133s15.282 34.133 34.133 34.133v0zM343.606 38.399c0-0.001 0-0.003 0-0.005 0-56.556 45.848-102.404 102.404-102.404s102.404 45.848 102.404 102.404c0 56.554-45.845 102.401-102.399 102.404v0c-56.531-0.060-102.343-45.869-102.408-102.393v-0.006zM823.753 38.399c0-56.553 45.846-102.399 102.399-102.399s102.399 45.846 102.399 102.399c0 56.553-45.846 102.399-102.399 102.399v0c-56.528-0.064-102.335-45.871-102.399-102.393v-0.006z" />
<glyph unicode="&#xe913;" d="M0 840.855h1023.154v-786.030h-1023.154v786.030z" />
<glyph unicode="&#xe914;" d="M49.648 785.827h923.858v-675.973h-923.858v675.973z" />
<glyph unicode="&#xe915;" d="M335.346 472.343h-172.306v172.316h172.306zM193.199 502.502h111.988v111.998h-111.988z" />
<glyph unicode="&#xe916;" d="M266.108 529.692l-42.544 21.121c-5.004 2.524-8.376 7.623-8.376 13.51 0 2.443 0.581 4.751 1.612 6.792l-0.040-0.086v0.001c2.524 5.004 7.623 8.377 13.51 8.377 2.442 0 4.749-0.581 6.79-1.611l-0.086 0.040 24.854-12.331c1.954-0.991 4.261-1.572 6.704-1.572 3.708 0 7.103 1.338 9.729 3.557l-0.022-0.018 99.795 83.916c2.604 2.201 5.999 3.539 9.707 3.539 4.622 0 8.758-2.079 11.525-5.353l0.018-0.022 0.003-0.004c2.201-2.604 3.539-6 3.539-9.708 0-4.622-2.079-8.759-5.354-11.526l-0.022-0.018-114.93-96.638c-2.604-2.201-5.999-3.539-9.707-3.539-2.444 0-4.752 0.581-6.793 1.613l0.086-0.040z" />
<glyph unicode="&#xe917;" d="M335.346 217.148h-172.306v172.296h172.306zM193.199 247.307h111.988v111.978h-111.988z" />
<glyph unicode="&#xe918;" d="M458.185 639.573h402.123v-40.212h-402.123v40.212z" />
<glyph unicode="&#xe919;" d="M458.185 532.668h201.061v-40.212h-201.061v40.212z" />
<glyph unicode="&#xe91a;" d="M458.185 376.765h402.123v-40.212h-402.123v40.212z" />
<glyph unicode="&#xe91b;" d="M458.185 269.941h201.061v-40.212h-201.061v40.212z" />
<glyph unicode="&#xe91c;" d="M538.924 946.494c-7.706 5.201-17.203 8.303-27.424 8.303s-19.717-3.102-27.6-8.415l0.176 0.112-484.076-322.718 511.5-341 511.5 341.002z" />
<glyph unicode="&#xe91d;" d="M119.052 923.332h784.94v-798.868h-784.94v798.868z" />
<glyph unicode="&#xe91e;" d="M603.119 343.856l-14.194-9.464 434.076-392.617v682.001l-419.882-279.92z" />
<glyph unicode="&#xe91f;" d="M0 623.776v-682.001h0.002l434.074 392.617-434.076 289.384z" />
<glyph unicode="&#xe920;" d="M573.812 348.059c-16.364 14.998-38.265 24.188-62.312 24.188s-45.947-9.19-62.381-24.25l-449.118-406.22h1022.999l-434.076 392.615z" />
<glyph unicode="&#xe921;" d="M628.128 597.637l-8.763-5.84 267.912-242.32v420.928l-259.149-172.768z" />
<glyph unicode="&#xe922;" d="M255.883 770.405v-420.928l267.912 242.32-267.912 178.608z" />
<glyph unicode="&#xe923;" d="M610.038 600.233c-10.1 9.256-23.617 14.929-38.459 14.929s-28.359-5.672-38.501-14.967l-277.195-250.718h631.393l-267.911 242.321z" />
<glyph unicode="&#xe926;" d="M150.012 124.226c-0.001 0-0.002 0-0.004 0-12.301 0-22.872 7.401-27.505 17.994l-0.075 0.193-120 280c-1.533 3.485-2.425 7.547-2.425 11.818 0 12.3 7.401 22.871 17.992 27.504l0.193 0.075 110.293 47.259c3.486 1.536 7.551 2.43 11.824 2.43 12.293 0 22.858-7.399 27.484-17.987l0.075-0.193 120-280c1.534-3.485 2.426-7.548 2.426-11.82 0-12.296-7.396-22.865-17.983-27.499l-0.193-0.075-110.291-47.261c-3.482-1.54-7.543-2.437-11.813-2.437v0z" />
<glyph unicode="&#xe927;" d="M266.45 171.498h393.688c0.024 0 0.052 0 0.080 0 38.563 0 73.723 14.573 100.272 38.513l-0.133-0.118 238.957 214.563c15.187 13.672 24.694 33.398 24.694 55.345 0 41.072-33.296 74.368-74.368 74.368-18.752 0-35.883-6.94-48.964-18.392l0.086 0.074-202.365-176.384c-5.241-4.585-12.147-7.383-19.706-7.387h-214.345l37.709 135.76-12.053 13.752c-45.406 51.6-111.588 83.987-185.334 83.987-60.718 0-116.307-21.954-159.264-58.358l0.359 0.296-26.603-22.437z" />
<glyph unicode="&#xe928;" d="M721.314 427.050c0-0.001 0-0.003 0-0.004 0-41.403-33.564-74.966-74.966-74.966-0.001 0-0.001 0-0.002 0h-220.792c-0.203-0.004-0.441-0.007-0.68-0.007-7.475 0-14.397 2.363-20.062 6.383l0.108-0.072c-9.595 7.165-12.512 18.28-7.979 27.853l47.144 99.781c4.512 9.541 15.563 15.821 27.864 15.832l174.333 0.157c0.023 0 0.050 0 0.077 0 41.397 0 74.955-33.559 74.955-74.955 0-0.001 0-0.002 0-0.002v0z" />
<glyph unicode="&#xe929;" d="M425.554 322.079c0-16.569 13.431-30 30-30v0h190.792c74.508 0.084 134.886 60.462 134.968 134.963v0.008c0 1.541-0.061 3.061-0.115 4.581l-82.803-72.165c-5.241-4.585-12.147-7.383-19.706-7.387h-223.137c-16.569 0-30-13.431-30-30v0z" />
<glyph unicode="&#xe92a;" d="M554.654 571.486c4.756-3.21 10.618-5.125 16.926-5.125s12.17 1.914 17.035 5.194l-0.109-0.069 298.771 199.181-631.394-0.001z" />
<glyph unicode="&#xe92b;" d="M903.856-64h-782.96c-0.001 0-0.002 0-0.003 0-33.63 0-60.893 27.263-60.893 60.893 0 0.001 0 0.002 0 0.004v0 84.699l904.752 164.416v-249.115c0-0.001 0-0.002 0-0.003 0-33.63-27.263-60.893-60.893-60.893-0.001 0-0.002 0-0.004 0v0z" />
<glyph unicode="&#xe92c;" d="M738.2-3.104h-617.2c-0.002 0-0.004 0-0.006 0-33.685 0-60.992 27.305-60.994 60.989v0 756.333c0.003 33.684 27.31 60.989 60.994 60.989 0.002 0 0.004 0 0.006 0h782.752c0.002 0 0.004 0 0.006 0 33.685 0 60.992-27.305 60.994-60.989v0-590.781c0-16.176-36.877-31.688-48.315-43.125l-135.104-135.115c-11.437-11.437-26.947-48.301-43.133-48.301z" />
<glyph unicode="&#xe92d;" d="M737.917-3.104c16.845 0.002 32.095 6.828 43.136 17.864l165.832 165.834c11.038 11.036 17.866 26.283 17.867 43.125v0 24.707c-0.004-27.597-22.377-49.968-49.975-49.968-0.002 0-0.004 0-0.007 0h-101.613c-27.597-0.004-49.968-22.377-49.968-49.974 0-0.002 0-0.003 0-0.005v0-101.616c-0.005-27.598-22.378-49.968-49.977-49.968-0.002 0-0.003 0-0.005 0v0z" />
<glyph unicode="&#xe92e;" d="M964.741 814.323v-156.645h-904.731v156.645c0.004 33.627 27.259 60.886 60.884 60.896h782.961c33.626-0.010 60.882-27.269 60.885-60.896v0z" />
<glyph unicode="&#xe930;" d="M255.208 875.208v38.501c-0.008 8.746-7.096 15.835-15.842 15.843h-6.99c-8.749-0.007-15.84-7.095-15.853-15.841v-98.481c0.012-8.751 7.103-15.841 15.852-15.853h0.001c8.405 0 15.219-6.814 15.219-15.219s-6.814-15.219-15.219-15.219v0c-25.555 0.026-46.265 20.735-46.291 46.288v98.482c0.029 25.554 20.737 46.261 46.288 46.291h6.992c25.552-0.033 46.257-20.738 46.291-46.287v-38.504z" />
<glyph unicode="&#xe931;" d="M808.219 875.208v38.501c-0.008 8.746-7.096 15.835-15.842 15.843h-6.99c-8.746-0.008-15.835-7.096-15.843-15.842v-98.481c0.007-8.749 7.095-15.84 15.841-15.853h0.001c8.405 0 15.219-6.814 15.219-15.219s-6.814-15.219-15.219-15.219v0c-25.554 0.029-46.261 20.737-46.291 46.288v98.483c0.033 25.552 20.738 46.257 46.287 46.291h6.992c25.554-0.029 46.261-20.737 46.291-46.288v-38.504z" />
<glyph unicode="&#xe936;" d="M356.428 170.378h311.144c29.407 0.834 52.928 24.872 52.928 54.403 0 10.016-2.706 19.4-7.426 27.461l0.139-0.257-155.572 278.139c-8.956 16.326-26.028 27.209-45.641 27.209s-36.685-10.883-45.506-26.94l-0.135-0.269-155.572-278.139c-4.581-7.804-7.287-17.188-7.287-27.204 0-29.532 23.521-53.569 52.851-54.402l0.077-0.002z" />
<glyph unicode="&#xe937;" d="M541.764 249.758c0 0 0 0 0 0 0-16.438-13.326-29.764-29.764-29.764s-29.764 13.326-29.764 29.764c0 16.438 13.326 29.764 29.764 29.764v0c16.437-0.001 29.762-13.326 29.764-29.763v0z" />
<glyph unicode="&#xe938;" d="M512 477.955c0.019 0 0.043 0 0.066 0 16.402 0 29.698-13.296 29.698-29.698 0-0.023 0-0.046 0-0.069v0.004-99.217c0-0.008 0-0.018 0-0.028 0-16.438-13.326-29.764-29.764-29.764s-29.764 13.326-29.764 29.764c0 0.010 0 0.020 0 0.030v-0.002 99.217c0 0.019 0 0.043 0 0.066 0 16.402 13.296 29.698 29.698 29.698 0.023 0 0.046 0 0.069 0h-0.004z" />
<glyph unicode="&#xe93a;" d="M129.97-26.337h764.018c72.209 2.048 129.965 61.074 129.965 133.589 0 24.594-6.644 47.637-18.234 67.431l0.341-0.631-382.009 682.974c-21.992 40.088-63.912 66.811-112.073 66.811s-90.081-26.723-111.74-66.15l-0.333-0.661-382.009-682.974c-11.249-19.163-17.893-42.205-17.893-66.8 0-72.515 57.756-131.54 129.777-133.584l0.189-0.004z" />
<glyph unicode="&#xe93b;" d="M585.064 168.581c0-40.364-32.721-73.085-73.085-73.085s-73.085 32.721-73.085 73.085c0 40.364 32.721 73.085 73.085 73.085v0c40.362-0.003 73.081-32.722 73.085-73.084v0z" />
<glyph unicode="&#xe93c;" d="M511.979 728.922c0.048 0 0.105 0 0.161 0 40.275 0 72.924-32.649 72.924-72.924 0-0.057 0-0.113 0-0.17v0.009-243.628c0-40.364-32.721-73.085-73.085-73.085s-73.085 32.721-73.085 73.085v0 243.628c0 0.048 0 0.105 0 0.161 0 40.275 32.649 72.924 72.924 72.924 0.057 0 0.113 0 0.17 0h-0.009z" />
<glyph unicode="&#xe93e;" d="M350.656 526.719v162.811c0 89.246 72.348 161.593 161.593 161.593s161.593-72.348 161.593-161.593v0-162.811h108.89v162.811c-0.044 149.351-121.127 270.406-270.483 270.406s-270.439-121.056-270.483-270.402v-162.815z" />
<glyph unicode="&#xe93f;" d="M132.376 509.843v-526.254c0-26.637 21.593-48.23 48.23-48.23h663.287c26.637 0 48.23 21.593 48.23 48.23v0 526.254c0 26.637-21.593 48.23-48.23 48.23h-663.287c-26.637 0-48.23-21.593-48.23-48.23v0z" />
<glyph unicode="&#xe940;" d="M477.407 226.595l-14.518-83.827h98.72l-14.518 83.827c25.792 13.084 43.16 39.408 43.16 69.788 0 43.080-34.923 78.003-78.003 78.003s-78.003-34.923-78.003-78.003c0-30.38 17.368-56.704 42.717-69.584l0.444-0.205z" />
<glyph unicode="&#xe941;" glyph-name="login" d="M931.070 959.36c-1.062 0.086-1.96 0.64-3.070 0.64h-458.664c-70.657-0.089-127.911-57.344-128-127.992v-42.672c0-23.563 19.101-42.664 42.664-42.664s42.664 19.101 42.664 42.664v42.664c0.041 23.549 19.122 42.628 42.669 42.664h198.785l-13.016-4.352c-33.876-11.953-57.724-43.674-57.766-80.971v-640.005h-128c-23.55 0.036-42.631 19.115-42.672 42.66v85.34c0 23.563-19.101 42.664-42.664 42.664s-42.664-19.101-42.664-42.664v-85.336c0.089-70.656 57.344-127.911 127.991-128h128.009v-42.664c0.045-47.109 38.22-85.286 85.323-85.336h0.005c9.71 0 19.058 1.546 27.813 4.405l-0.633-0.179 256.344 85.462c33.899 11.933 57.77 43.661 57.812 80.971v768.005c0 49.75-42.882 88.75-92.93 84.696zM456.828 563.5l-170.664 170.664c-7.72 7.728-18.39 12.509-30.176 12.509-23.556 0-42.652-19.096-42.652-42.652 0-0.007 0-0.014 0-0.022v0.001-128h-170.672c-23.565 0-42.668-19.103-42.668-42.668s19.103-42.668 42.668-42.668v0h170.672v-128c0-0.006 0-0.013 0-0.021 0-23.556 19.096-42.652 42.652-42.652 11.786 0 22.456 4.781 30.175 12.508v0l170.664 170.672c7.732 7.714 12.516 18.38 12.516 30.164s-4.784 22.45-12.515 30.163l-0.001 0.001z" />
<glyph unicode="&#xe942;" d="M1024 448c0-282.839-229.161-512-512-512s-512 229.161-512 512c0 282.632 229.161 512 512 512s512-229.368 512-512z" />
<glyph unicode="&#xe943;" d="M525.832 790.71c-112.516 0-184.361-47.484-240.516-131.716-2.633-3.891-4.203-8.689-4.203-13.854 0-8.043 3.808-15.196 9.719-19.755l0.058-0.043 71.639-54.297c4.126-3.117 9.341-4.992 14.994-4.992 7.853 0 14.861 3.619 19.447 9.281l0.037 0.047c36.955 46.865 62.142 73.91 118.297 73.91 42.116 0 94.348-27.045 94.348-68.129 0-30.968-25.6-46.865-67.097-70.194-48.929-26.839-113.135-60.697-113.135-145.548v-8.258c0.041-13.666 11.108-24.733 24.77-24.774h115.617c13.666 0.041 24.733 11.108 24.774 24.77v2.688c0 58.839 171.768 61.11 171.768 220.284 0 119.742-124.284 210.581-240.516 210.581z" />
<glyph unicode="&#xe944;" d="M606.968 183.742c0-52.449-42.519-94.968-94.968-94.968s-94.968 42.519-94.968 94.968c0 52.449 42.519 94.968 94.968 94.968s94.968-42.519 94.968-94.968z" />
<glyph unicode="&#xe945;" d="M1024 448c0-282.771-229.229-512-512-512s-512 229.229-512 512 229.229 512 512 512 512-229.229 512-512z" />
<glyph unicode="&#xe946;" d="M940.803 727.197l-452.803-468.803 0.803-50.395h20.803l490.395 395.197c-15.51 47.277-35.579 88.321-60.405 125.949l1.208-1.949z" />
<glyph unicode="&#xe947;" d="M1014.395 749.605l-90.395 89.592c-5.806 5.571-13.703 9.001-22.401 9.001s-16.596-3.43-22.413-9.012l0.011 0.011-386.395-399.197-167.197 164.803c-5.806 5.571-13.703 9.001-22.401 9.001s-16.596-3.43-22.413-9.012l0.011 0.011-80-79.197c-5.565-5.66-9-13.429-9-22s3.435-16.34 9.004-22.004l-0.004 0.004 267.197-264.803c5.826-5.594 13.752-9.039 22.483-9.039 1.379 0 2.737 0.086 4.071 0.253l-0.159-0.016c1.177-0.151 2.538-0.237 3.919-0.237 8.733 0 16.661 3.445 22.5 9.050l-0.011-0.011 493.592 488c5.571 5.806 9.001 13.703 9.001 22.401s-3.43 16.596-9.012 22.413l0.011-0.011z" />
<glyph unicode="&#xe948;" glyph-name="pencil" d="M965.536 718.656l-10.048-10.048-183.232 183.328 10.016 10.016c0 0 43.872 58.016 106.272 58.016 27.488 0 58.624-11.296 91.168-43.84 107.328-107.328-14.176-197.472-14.176-197.472zM895.328 648.416l-623.968-624.192-271.36-88.224 88.192 271.52v0.096h0.064l623.872 624.16 8.064-8.096zM88.32 24.352l135.584 39.008-92.608 98.624-42.976-137.632z" />
<glyph unicode="&#xe949;" glyph-name="logout" d="M92.93-63.36c1.062-0.086 1.96-0.64 3.070-0.64h458.664c70.657 0.089 127.911 57.344 128 127.992v42.672c0 23.563-19.101 42.664-42.664 42.664s-42.664-19.101-42.664-42.664v-42.664c-0.041-23.549-19.122-42.628-42.669-42.664h-198.785l13.016 4.352c33.876 11.953 57.724 43.674 57.766 80.971v640.005h128c23.55-0.036 42.631-19.115 42.672-42.66v-85.34c0-23.563 19.101-42.664 42.664-42.664s42.664 19.101 42.664 42.664v85.336c-0.089 70.656-57.344 127.911-127.991 128h-128.009v42.664c-0.045 47.109-38.22 85.286-85.323 85.336h-0.005c-9.71 0-19.058-1.546-27.813-4.405l0.633 0.179-256.344-85.462c-33.899-11.933-57.77-43.661-57.812-80.971v-768.005c0-49.75 42.882-88.75 92.93-84.696zM567.172 332.5l170.664-170.664c7.72-7.728 18.39-12.509 30.176-12.509 23.556 0 42.652 19.096 42.652 42.652 0 0.007 0 0.014 0 0.022v-0.001 128h170.672c23.565 0 42.668 19.103 42.668 42.668s-19.103 42.668-42.668 42.668v0h-170.672v128c0 0.006 0 0.013 0 0.021 0 23.556-19.096 42.652-42.652 42.652-11.786 0-22.456-4.781-30.175-12.508v0l-170.664-170.672c-7.732-7.714-12.516-18.38-12.516-30.164s4.784-22.45 12.515-30.163l0.001-0.001z" />
<glyph unicode="&#xe94a;" horiz-adv-x="1193" d="M1193.010 960l-755.574-1024.001 47.224 213.749 708.35 810.252z" />
<glyph unicode="&#xe94b;" horiz-adv-x="1193" d="M884.815-4.35l308.195 964.35-1193.010-594.019 347.96-146.642 136.7-69.591 400.155-154.099z" />
<glyph unicode="&#xe94c;" horiz-adv-x="1193" d="M1193.010 960l-708.35-810.252-47.224-213.749-89.476 283.34 845.049 740.661z" />
</font>
</defs>
</svg>
