<!-- Generated by IcoMoon.io -->
<svg version="1.1" xmlns="http://www.w3.org/2000/svg" width="32" height="32" viewBox="0 0 32 32">
<title>checklist-signup</title>
<path fill="#80c6bb" d="M22.665 26.697h-14.913c-0.791 0-1.434-0.643-1.434-1.434v-21.527c0-0.791 0.643-1.434 1.434-1.434h14.913c0.791 0 1.434 0.643 1.434 1.434v21.527c0 0.791-0.643 1.434-1.434 1.434z"></path>
<path fill="#fff" d="M7.681 21.711v-17.832h15.056v21.104h-11.789z"></path>
<path fill="#ebebeb" d="M10.947 24.982l-3.266-3.271h3.266z"></path>
<path fill="#a3bac2" d="M14.683 0.801c-0.291 0.291-0.291 0.76 0 1.051s0.76 0.291 1.051 0 0.291-0.76 0-1.051-0.76-0.291-1.051 0zM15.505 1.623c-0.163 0.163-0.429 0.163-0.592 0s-0.163-0.429 0-0.592 0.429-0.163 0.592 0 0.163 0.429 0 0.592z"></path>
<path fill="#84979d" d="M18.802 1.812h-0.219c-0.74 0-1.444-0.357-1.848-0.98-0.322-0.5-0.888-0.832-1.526-0.832s-1.204 0.332-1.526 0.832c-0.403 0.623-1.107 0.98-1.848 0.98h-0.219c-0.204 0-0.367 0.163-0.367 0.367v2.21c0 0.204 0.163 0.367 0.367 0.367h7.181c0.204 0 0.367-0.163 0.367-0.367v-2.21c0.005-0.199-0.163-0.367-0.362-0.367zM15.209 2.072c-0.413 0-0.745-0.332-0.745-0.745s0.337-0.745 0.745-0.745 0.745 0.332 0.745 0.745-0.332 0.745-0.745 0.745z"></path>
<path fill="#a3bac2" d="M11.248 2.506h7.916v1.587h-7.916z"></path>
<path fill="#dcdde0" d="M20.889 8.304h-8.278c-0.143 0-0.255-0.117-0.255-0.255 0-0.143 0.117-0.255 0.255-0.255h8.278c0.143 0 0.255 0.117 0.255 0.255 0 0.143-0.112 0.255-0.255 0.255z"></path>
<path fill="#dcdde0" d="M20.889 9.707h-8.278c-0.143 0-0.255-0.117-0.255-0.255 0-0.143 0.117-0.255 0.255-0.255h8.278c0.143 0 0.255 0.117 0.255 0.255 0 0.143-0.112 0.255-0.255 0.255z"></path>
<path fill="#dcdde0" d="M20.889 12.019h-8.278c-0.143 0-0.255-0.117-0.255-0.255 0-0.143 0.117-0.255 0.255-0.255h8.278c0.143 0 0.255 0.117 0.255 0.255 0 0.143-0.112 0.255-0.255 0.255z"></path>
<path fill="#dcdde0" d="M20.889 13.423h-8.278c-0.143 0-0.255-0.117-0.255-0.255 0-0.143 0.117-0.255 0.255-0.255h8.278c0.143 0 0.255 0.117 0.255 0.255 0 0.143-0.112 0.255-0.255 0.255z"></path>
<path fill="#dcdde0" d="M20.889 15.735h-8.278c-0.143 0-0.255-0.117-0.255-0.255 0-0.143 0.117-0.255 0.255-0.255h8.278c0.143 0 0.255 0.117 0.255 0.255 0 0.143-0.112 0.255-0.255 0.255z"></path>
<path fill="#dcdde0" d="M20.889 17.138h-8.278c-0.143 0-0.255-0.117-0.255-0.255 0-0.143 0.117-0.255 0.255-0.255h8.278c0.143 0 0.255 0.117 0.255 0.255s-0.112 0.255-0.255 0.255z"></path>
<path fill="#dcdde0" d="M20.889 19.45h-8.278c-0.143 0-0.255-0.117-0.255-0.255 0-0.143 0.117-0.255 0.255-0.255h8.278c0.143 0 0.255 0.117 0.255 0.255s-0.112 0.255-0.255 0.255z"></path>
<path fill="#dcdde0" d="M20.889 20.854h-8.278c-0.143 0-0.255-0.117-0.255-0.255 0-0.143 0.117-0.255 0.255-0.255h8.278c0.143 0 0.255 0.117 0.255 0.255s-0.112 0.255-0.255 0.255z"></path>
<path fill="#dcdde0" d="M11.085 9.87h-2.2v-2.2h2.2zM9.227 9.523h1.511v-1.511h-1.511z"></path>
<path fill="#d7316d" d="M11.805 7.278l-1.893 1.383-0.699-0.561-0.301 0.158 1.072 1.118 2.031-2.138z"></path>
<path fill="#dcdde0" d="M11.085 13.555h-2.2v-2.2h2.2zM9.227 13.208h1.511v-1.511h-1.511z"></path>
<path fill="#d7316d" d="M11.805 10.963l-1.893 1.383-0.699-0.561-0.301 0.158 1.072 1.118 2.031-2.138z"></path>
<path fill="#dcdde0" d="M11.085 17.24h-2.2v-2.2h2.2zM9.227 16.893h1.511v-1.511h-1.511z"></path>
<path fill="#d7316d" d="M11.805 14.648l-1.893 1.383-0.699-0.561-0.301 0.158 1.072 1.118 2.031-2.144z"></path>
<path fill="#dcdde0" d="M11.085 20.925h-2.2v-2.2h2.2zM9.227 20.578h1.511v-1.511h-1.511z"></path>
<path fill="#000" opacity="0.05" d="M24.37 21.742c-0.031-0.031-0.066-0.066-0.097-0.097-0.005-0.005-0.005-0.005-0.010-0.010-0.031-0.031-0.066-0.061-0.097-0.092-0.005-0.005-0.010-0.010-0.010-0.010-0.036-0.031-0.066-0.061-0.102-0.092 0 0-0.005-0.005-0.005-0.005-0.026-0.026-0.051-0.046-0.082-0.071l0.587 0.189c0.010 0.066 0.020 0.133 0.031 0.199 0.005 0.036-0.005 0.194 0.020 0.214-0.082-0.077-0.158-0.153-0.235-0.225zM23.288 18.914l-0.214-0.087c0.015 0 0.026 0 0.036 0.005 0.066 0.005 0.122 0.026 0.179 0.082z"></path>
<path fill="#ffb07b" d="M22.951 17.404c-0.143-0.245-0.311-0.459-0.439-0.72-0.097-0.189-0.225-0.383-0.424-0.464-0.107-0.046-0.225-0.051-0.342-0.056-0.868-0.046-1.735-0.097-2.603-0.143-0.087 0.322-0.046 0.296 0.209 0.51 0.347 0.291 0.776 0.464 1.21 0.577 0.225 0.056 0.449 0.097 0.674 0.138 0.209 0.036 0.301 0.031 0.403 0.219 0.301 0.546 0.602 1.307 0.745 2.021 0.362-0.424 0.628-0.919 0.924-1.393-0.077-0.245-0.245-0.505-0.357-0.689z"></path>
<path fill="#ffb07b" d="M24.692 17.756c-0.143-0.245-0.311-0.459-0.439-0.72-0.097-0.189-0.225-0.383-0.424-0.464-0.107-0.046-0.225-0.051-0.342-0.056-0.868-0.046-1.735-0.097-2.603-0.143-0.087 0.322-0.046 0.296 0.209 0.51 0.347 0.291 0.776 0.464 1.21 0.577 0.225 0.056 0.449 0.097 0.674 0.138 0.209 0.036 0.301 0.031 0.403 0.219 0.301 0.546 0.602 1.307 0.745 2.021 0.362-0.424 0.628-0.919 0.924-1.393-0.082-0.24-0.25-0.5-0.357-0.689z"></path>
<path fill="#ffb07b" d="M25.896 18.215c-0.143-0.245-0.311-0.459-0.439-0.72-0.097-0.189-0.225-0.383-0.424-0.464-0.107-0.046-0.225-0.051-0.342-0.056-0.868-0.046-1.735-0.097-2.603-0.143-0.087 0.322-0.046 0.296 0.209 0.51 0.347 0.291 0.776 0.464 1.21 0.577 0.225 0.056 0.449 0.097 0.674 0.138 0.209 0.036 0.301 0.031 0.403 0.219 0.301 0.546 0.602 1.307 0.745 2.021 0.362-0.424 0.628-0.919 0.924-1.393-0.077-0.245-0.25-0.505-0.357-0.689z"></path>
<path fill="#ffb07b" d="M26.335 18.935c-0.235-0.551-4.175-0.929-4.124-0.413-0.031-0.27-0.255-0.602-0.388-0.832-0.143-0.245-0.311-0.459-0.439-0.72-0.097-0.189-0.225-0.383-0.424-0.464-0.107-0.046-0.225-0.051-0.342-0.056-0.868-0.046-1.735-0.097-2.603-0.143-0.087 0.322-0.046 0.296 0.209 0.51 0.347 0.291 0.776 0.464 1.21 0.577 0.225 0.056 0.449 0.097 0.674 0.138 0.209 0.036 0.301 0.031 0.403 0.219 0.434 0.791 0.863 2.011 0.832 2.919 0 0.036-0.031 0.189-0.010 0.214-0.526-0.704-1.107-1.455-1.955-1.705-0.204-0.061-0.424-0.092-0.628-0.031-0.204 0.056-0.424 0.265-0.464 0.47 0.48 0.168 0.842 0.567 1.128 0.99 0.281 0.424 0.505 0.883 0.811 1.291 1.016 1.352 2.827 1.899 3.909 3.2 1.169-0.327 2.195-0.602 3.231-1.235-0.73-1.557-0.357-3.353-1.031-4.93z"></path>
<path fill="#ffb07b" d="M23.339 17.143c0.005 0.061 0.020 0.117 0.051 0.163-0.015-0.051-0.036-0.107-0.051-0.163z"></path>
<path fill="#df6387" d="M15.286 16.296l0.158-0.296c0.031-0.061 0.087-0.097 0.117-0.082l1.296 0.424-0.5 0.939-1.072-0.842c-0.036-0.015-0.036-0.082 0-0.143z"></path>
<path fill="#d7316d" d="M22.747 20.706l0.505-0.949c0.102-0.194 0.066-0.419-0.087-0.51l-5.517-3.22-1.118 2.093 5.742 2.797c0.163 0.077 0.367-0.015 0.475-0.209z"></path>
<path fill="#c82e66" d="M15.673 16.735l0.352-0.653c0.071-0.133 0.158-0.23 0.189-0.219l1.434 0.163-1.118 2.093-0.934-1.102c-0.031-0.020 0.005-0.143 0.077-0.281z"></path>
<path fill="#853b26" d="M16.577 18.031l-0.046 0.087-0.153-0.184z"></path>
<path fill="#a32653" d="M17.189 15.974l0.459 0.056-1.118 2.087-0.296-0.352z"></path>
<path fill="#ffb07b" d="M21.134 20.624c-0.48-0.623-1.016-1.225-1.761-1.449-0.204-0.061-0.424-0.092-0.628-0.031-0.204 0.056-0.424 0.265-0.464 0.47 0.48 0.168 0.842 0.567 1.128 0.99 0.071 0.112 0.143 0.225 0.209 0.337l1.434 0.204z"></path>
<path fill="#ffb07b" d="M18.225 16.817c0.347 0.291 0.776 0.464 1.21 0.577 0.225 0.056 0.449 0.097 0.674 0.138 0.077 0.010 0.138 0.020 0.189 0.036l0.158-1.123c-0.817-0.046-1.628-0.087-2.445-0.133-0.082 0.316-0.046 0.291 0.214 0.505z"></path>
<path fill="#ffb07b" d="M21.849 17.95c-0.097-0.209-0.148-0.439-0.117-0.669 0.031-0.225 0.153-0.449 0.352-0.561 0.199-0.117 0.47-0.112 0.643 0.041 0.082 0.066 0.138 0.163 0.209 0.24s0.179 0.138 0.281 0.117c0.107-0.020 0.179-0.122 0.281-0.158 0.158-0.056 0.322 0.051 0.444 0.163s0.25 0.245 0.419 0.255c0.138 0.005 0.26-0.077 0.393-0.102 0.301-0.061 0.587 0.158 0.791 0.388 0.536 0.592 0.878 1.332 1.092 2.098s0.296 1.562 0.367 2.358c0.031 0.352 0 0.684-0.066 1.031-0.643-0.638-0.837-1.597-1.352-2.348-0.383-0.561-0.934-0.99-1.475-1.404-0.306-0.235-0.623-0.475-1-0.561-0.199-0.046-0.408-0.046-0.607-0.077-0.204-0.026-0.413-0.087-0.556-0.23-0.153-0.148-0.209-0.408-0.097-0.582z"></path>
<path fill="#ffc8a3" d="M18.848 19.399c-0.179 0.010-0.352 0.112-0.449 0.26 0.265 0.117 0.495 0.301 0.689 0.521 0.097-0.163 0.199-0.322 0.291-0.49-0.102-0.184-0.316-0.306-0.531-0.291z"></path>
<path fill="#ffc8a3" d="M18.47 16.597c0.117 0.071 0.26 0.092 0.393 0.061 0.117-0.026 0.174-0.163 0.179-0.296-0.265-0.015-0.536-0.031-0.801-0.046 0.041 0.117 0.128 0.219 0.23 0.281z"></path>
<path fill="#f0a574" d="M21.823 17.689s-0.071-0.092-0.179-0.225c-0.051-0.066-0.112-0.148-0.174-0.24-0.031-0.046-0.061-0.092-0.087-0.143-0.031-0.051-0.056-0.102-0.082-0.148-0.026-0.051-0.056-0.097-0.087-0.143s-0.061-0.087-0.097-0.122-0.071-0.066-0.112-0.092c-0.036-0.026-0.077-0.046-0.117-0.061-0.077-0.026-0.148-0.041-0.199-0.051s-0.077-0.015-0.077-0.015 0.031-0.005 0.082-0.005 0.122-0.005 0.214 0.015c0.046 0.010 0.092 0.026 0.138 0.051s0.092 0.056 0.133 0.097 0.082 0.082 0.117 0.128 0.066 0.097 0.097 0.148 0.051 0.102 0.077 0.153 0.051 0.097 0.077 0.143c0.051 0.092 0.102 0.179 0.148 0.255 0.087 0.148 0.128 0.255 0.128 0.255z"></path>
<path fill="#f0a574" d="M22.017 16.24c0.036 0.015 0.077 0.036 0.112 0.061s0.071 0.056 0.102 0.092c0.066 0.071 0.128 0.163 0.179 0.26 0.026 0.046 0.051 0.102 0.082 0.148 0.031 0.051 0.061 0.097 0.092 0.143 0.061 0.092 0.122 0.168 0.179 0.235s0.102 0.122 0.133 0.158c0.036 0.036 0.051 0.061 0.051 0.061-0.143-0.245-0.311-0.459-0.439-0.72-0.097-0.189-0.225-0.383-0.424-0.464-0.107-0.046-0.225-0.051-0.342-0.056 0 0 0.031 0.010 0.077 0.020 0.056 0.015 0.122 0.031 0.199 0.061z"></path>
<path fill="#fff" d="M23.224 24.979l4.533-1.82 0.46 1.146-4.533 1.82z"></path>
<path fill="#dbdbdb" d="M28.473 25.098c0.219 0.065 0.343 0.296 0.278 0.514s-0.296 0.343-0.514 0.278c-0.219-0.065-0.343-0.296-0.278-0.514s0.296-0.343 0.514-0.278z"></path>
<path fill="#dbdbdb" d="M29.098 26.328c0.174 0.147 0.196 0.408 0.049 0.583s-0.408 0.196-0.583 0.049c-0.174-0.147-0.196-0.408-0.049-0.583s0.408-0.196 0.583-0.049z"></path>
<path fill="#dbdbdb" d="M29.708 27.886c-0.051 0.219-0.276 0.357-0.5 0.306-0.219-0.051-0.357-0.276-0.306-0.5s0.276-0.357 0.5-0.306c0.225 0.056 0.362 0.281 0.306 0.5z"></path>
<path fill="#ffb07b" d="M8.299 19.522c-0.209 0.010-0.408 0.107-0.582 0.23-0.041 0.031-0.082 0.061-0.122 0.092-0.015 0.010-0.026 0.020-0.041 0.036-0.026 0.020-0.051 0.046-0.077 0.066-0.015 0.015-0.031 0.026-0.041 0.041-0.020 0.020-0.046 0.046-0.066 0.066-0.015 0.015-0.026 0.031-0.041 0.046-0.020 0.020-0.041 0.046-0.061 0.071-0.015 0.015-0.026 0.031-0.041 0.051-0.020 0.026-0.036 0.051-0.056 0.077-0.010 0.015-0.026 0.031-0.036 0.051-0.020 0.026-0.036 0.056-0.056 0.082-0.010 0.015-0.020 0.031-0.031 0.046-0.020 0.036-0.046 0.071-0.066 0.107-0.005 0.010-0.010 0.015-0.015 0.026-0.026 0.046-0.051 0.092-0.077 0.138-0.010 0.015-0.015 0.031-0.020 0.046-0.015 0.031-0.031 0.061-0.046 0.097-0.010 0.020-0.015 0.036-0.026 0.056-0.015 0.031-0.026 0.056-0.041 0.087-0.010 0.020-0.020 0.041-0.026 0.061-0.010 0.031-0.026 0.056-0.036 0.087-0.010 0.020-0.015 0.041-0.026 0.061-0.010 0.031-0.020 0.056-0.036 0.087-0.010 0.020-0.015 0.041-0.026 0.061-0.010 0.031-0.020 0.061-0.031 0.087-0.005 0.020-0.015 0.041-0.020 0.061-0.010 0.031-0.026 0.066-0.036 0.097-0.005 0.015-0.010 0.036-0.020 0.051-0.036 0.102-0.071 0.204-0.102 0.306 0.010-0.031-0.066-0.163-0.082-0.199-0.316-0.852-0.296-2.149-0.133-3.032 0.026-0.133 0.066-0.189 0.143-0.24 0.010-0.005 0.020-0.015 0.031-0.020 0 0 0.005 0 0.005-0.005 0.010-0.005 0.020-0.010 0.031-0.020v-1.582c-0.628 0.25-1.261 0.495-1.888 0.745-0.107 0.041-0.219 0.087-0.306 0.163-0.097 0.082-0.158 0.194-0.199 0.316-0.342 0.138-0.689 0.27-1.031 0.408-0.107 0.041-0.219 0.087-0.306 0.163-0.138 0.117-0.199 0.291-0.24 0.47-0.153 0.061-0.306 0.117-0.454 0.179-0.107 0.041-0.219 0.087-0.306 0.163-0.163 0.138-0.225 0.362-0.255 0.572-0.010 0.066-0.020 0.133-0.036 0.194-0.316 0.725-0.408 1.536-0.367 2.327 0.041 0.796 0.209 1.577 0.398 2.353 0.046 0.194 0.107 0.373 0.184 0.546 0.051 0.403 0.071 0.811 0.020 1.225 1.184 0.27 2.246 0.214 3.455 0.153 0.618-1.577 2.159-2.669 2.7-4.272 0.122-0.357 0.184-0.73 0.265-1.097 0.010-0.056 0.026-0.107 0.036-0.163 0.005-0.010 0.005-0.020 0.010-0.036 0.015-0.061 0.031-0.128 0.051-0.189 0.133-0.49 0.357-0.98 0.755-1.291-0.097-0.184-0.373-0.306-0.582-0.301z"></path>
<path fill="#ffc8a3" d="M8.288 19.797c0.174-0.046 0.367-0.005 0.51 0.107-0.214 0.194-0.373 0.444-0.49 0.715-0.143-0.122-0.291-0.24-0.429-0.373 0.036-0.214 0.199-0.393 0.408-0.449z"></path>
<path fill="#f0a574" d="M4.92 19.113s0.041-0.107 0.097-0.27c0.031-0.082 0.061-0.179 0.087-0.281 0.015-0.051 0.031-0.107 0.041-0.163s0.020-0.117 0.031-0.168c0.010-0.056 0.020-0.107 0.036-0.158s0.031-0.102 0.056-0.148c0.020-0.046 0.046-0.087 0.077-0.122s0.061-0.066 0.092-0.092c0.066-0.051 0.128-0.087 0.174-0.112s0.071-0.041 0.071-0.041-0.031 0.005-0.077 0.020-0.117 0.036-0.199 0.082c-0.041 0.026-0.082 0.051-0.117 0.092-0.036 0.036-0.071 0.082-0.097 0.133s-0.051 0.102-0.071 0.158-0.031 0.112-0.041 0.174-0.015 0.112-0.026 0.168-0.020 0.107-0.031 0.158c-0.020 0.102-0.041 0.204-0.056 0.286-0.036 0.168-0.046 0.286-0.046 0.286z"></path>
<path fill="#f0a574" d="M4.282 17.802c-0.031 0.026-0.061 0.056-0.087 0.092s-0.051 0.077-0.071 0.122c-0.041 0.087-0.066 0.194-0.087 0.301-0.010 0.051-0.020 0.112-0.031 0.168s-0.026 0.112-0.041 0.163c-0.031 0.102-0.066 0.199-0.097 0.281s-0.056 0.148-0.077 0.194-0.031 0.071-0.031 0.071c0.056-0.281 0.148-0.536 0.194-0.822 0.031-0.209 0.092-0.434 0.255-0.572 0.087-0.077 0.199-0.117 0.306-0.163 0 0-0.026 0.015-0.066 0.046-0.046 0.026-0.107 0.061-0.168 0.117z"></path>
<path fill="#fff" d="M5.822 27.704l-4.875-0.298 0.075-1.233 4.875 0.298z"></path>
<path fill="#dbdbdb" d="M1.279 28.179c0.222 0.052 0.361 0.274 0.309 0.496s-0.274 0.361-0.496 0.309c-0.222-0.052-0.361-0.274-0.309-0.496s0.274-0.361 0.496-0.309z"></path>
<path fill="#dbdbdb" d="M1.192 29.416c0.222 0.052 0.361 0.274 0.309 0.496s-0.274 0.361-0.496 0.309c-0.222-0.052-0.361-0.274-0.309-0.496s0.274-0.361 0.496-0.309z"></path>
<path fill="#dbdbdb" d="M1.098 30.656c0.222 0.052 0.361 0.274 0.309 0.496s-0.274 0.361-0.496 0.309c-0.222-0.052-0.361-0.274-0.309-0.496s0.274-0.361 0.496-0.309z"></path>
<path fill="#4c5863" d="M6.221 32l0.271-4.486-6.196-0.378-0.296 4.864z"></path>
<path fill="#4c5863" d="M32.020 32l-3.277-8.156-5.762 2.312 2.348 5.844z"></path>
</svg>
