<!-- Generated by IcoMoon.io -->
<svg version="1.1" xmlns="http://www.w3.org/2000/svg" width="32" height="32" viewBox="0 0 32 32">
<title>colored-email</title>
<path fill="#e897ac" d="M16.841 0.422c-0.241-0.163-0.538-0.259-0.857-0.259s-0.616 0.097-0.863 0.263l0.005-0.004-15.127 10.085 15.984 10.656 15.984-10.656z"></path>
<path fill="#e4f0f3" d="M3.72 1.146h24.529v24.965h-24.529v-24.965z"></path>
<path fill="#efb7c5" d="M18.847 19.255l-0.444 0.296 13.565 12.269v-21.313l-13.121 8.748z"></path>
<path fill="#efb7c5" d="M0 10.507v21.313h0l13.565-12.269-13.565-9.043z"></path>
<path fill="#e897ac" d="M17.932 19.123c-0.511-0.469-1.196-0.756-1.947-0.756s-1.436 0.287-1.949 0.758l-14.035 12.694h31.969l-13.565-12.269z"></path>
</svg>
