<!-- Generated by IcoMoon.io -->
<svg version="1.1" xmlns="http://www.w3.org/2000/svg" width="48" height="32" viewBox="0 0 48 32">
<title>credit-card</title>
<path fill="#e4f0f3" d="M4 0h40c2.217 0 4 1.783 4 4v24c0 2.217-1.783 4-4 4h-40c-2.217 0-4-1.783-4-4v-24c0-2.217 1.783-4 4-4z"></path>
<path fill="#efb7c5" d="M0 6h48v6h-48z"></path>
<path fill="#efb7c5" d="M13 20c-0.7 0-1.4 0.183-2 0.55-1.233-0.717-2.767-0.733-4.017-0.017s-2.017 2.033-2 3.467c0 1.433 0.767 2.75 2.017 3.467s2.767 0.7 4.017-0.017c1.083 0.617 2.383 0.717 3.533 0.233 1.15-0.467 2.017-1.45 2.333-2.65s0.067-2.483-0.683-3.467-1.95-1.567-3.2-1.567zM9 26c-0.567 0-1.117-0.25-1.5-0.683s-0.55-1-0.483-1.567 0.383-1.083 0.867-1.4 1.067-0.433 1.617-0.283c-0.317 0.6-0.483 1.267-0.5 1.933 0.017 0.683 0.183 1.333 0.5 1.933-0.167 0.050-0.333 0.067-0.5 0.067zM13 26c-0.817 0-1.533-0.483-1.85-1.233s-0.133-1.6 0.433-2.183c0.567-0.567 1.433-0.75 2.183-0.433s1.233 1.033 1.233 1.85c0 1.1-0.9 2-2 2z"></path>
<path fill="#efb7c5" d="M17 24c0 0.75-0.217 1.483-0.617 2.117-0.533-0.433-1.067-0.867-1.567-1.317 0.117-0.25 0.167-0.517 0.167-0.8 0-1.1-0.9-2-2-2-0.3 0-0.6 0.067-0.883 0.217-0.633-0.65-1.217-1.3-1.783-1.967 0.233 0.083 0.45 0.183 0.667 0.3 1.233-0.733 2.767-0.733 4-0.017 1.267 0.717 2.017 2.033 2.017 3.467z"></path>
<path fill="#efb7c5" d="M13 20c-0.7 0-1.4 0.2-2 0.55-0.217-0.117-0.433-0.217-0.667-0.3 0.567 0.667 1.15 1.317 1.783 1.967 0.267-0.133 0.567-0.217 0.883-0.217 1.1 0 2 0.9 2 2 0 0.283-0.067 0.55-0.167 0.8 0.5 0.45 1.017 0.883 1.567 1.317 0.4-0.633 0.617-1.367 0.617-2.117 0-1.067-0.417-2.083-1.167-2.833s-1.783-1.167-2.85-1.167z"></path>
<path fill="#efb7c5" d="M14.833 24.8c-0.383 0.867-1.317 1.35-2.233 1.15-0.933-0.183-1.6-1-1.6-1.95 0-0.767 0.433-1.467 1.117-1.783-0.633-0.65-1.217-1.3-1.783-1.967l-0.017-0.017c-0.433-0.167-0.883-0.25-1.333-0.233-1.25 0-2.433 0.567-3.183 1.55-0.767 0.983-1.017 2.283-0.7 3.483s1.183 2.183 2.35 2.667c1.15 0.467 2.467 0.383 3.533-0.25 1.867 1.1 4.25 0.5 5.383-1.333-0.517-0.433-1.033-0.867-1.533-1.317zM9.5 25.933c-0.167 0.033-0.333 0.067-0.5 0.067-1.1 0-2-0.9-2-2s0.9-2 2-2c0.167 0 0.333 0.017 0.5 0.067-0.317 0.6-0.5 1.267-0.5 1.933 0.017 0.683 0.183 1.35 0.5 1.933z"></path>
</svg>
