<!-- Generated by IcoMoon.io -->
<svg version="1.1" xmlns="http://www.w3.org/2000/svg" width="32" height="32" viewBox="0 0 32 32">
<title>edit-square</title>
<path d="M25.334 15.999c-0 0-0 0-0 0-0.736 0-1.333 0.597-1.333 1.333 0 0 0 0 0 0v-0 10.667c-0.001 0.736-0.597 1.332-1.333 1.333h-18.667c-0.736-0.001-1.333-0.597-1.333-1.333v-18.667c0.001-0.736 0.597-1.333 1.333-1.333h10.667c0.736 0 1.333-0.597 1.333-1.333s-0.597-1.333-1.333-1.333h-10.667c-2.208 0.003-3.997 1.792-4 4v18.668c0.003 2.208 1.792 3.997 4 4h18.668c2.208-0.003 3.997-1.792 4-4v-10.667c0-0 0-0.001 0-0.001 0-0.736-0.596-1.332-1.332-1.332-0 0-0.001 0-0.001 0h0z"></path>
<path d="M12.502 14.785c-0.090 0.090-0.155 0.206-0.182 0.335l-0.001 0.004-0.943 4.715c-0.008 0.039-0.013 0.085-0.013 0.131 0 0.368 0.298 0.666 0.666 0.666 0.001 0 0.001 0 0.002 0h-0c0.001 0 0.001 0 0.002 0 0.046 0 0.090-0.005 0.133-0.014l-0.004 0.001 4.714-0.943c0.135-0.027 0.251-0.092 0.341-0.183l10.55-10.55-4.714-4.713z"></path>
<path d="M31.025 0.975c-0.603-0.603-1.437-0.975-2.357-0.975s-1.753 0.373-2.357 0.975l-1.845 1.845 4.714 4.714 1.845-1.845c0.603-0.603 0.976-1.436 0.976-2.357s-0.373-1.754-0.976-2.357v0z"></path>
</svg>
