<!-- Generated by IcoMoon.io -->
<svg version="1.1" xmlns="http://www.w3.org/2000/svg" width="32" height="32" viewBox="0 0 32 32">
<title>information-gathering</title>
<path fill="#e897ac" d="M21.881 20.5l-2.406-2.406c-0.419 0.5-0.863 0.944-1.375 1.375l2.406 2.406z"></path>
<path fill="#e4f0f3" d="M2.337 8.725c-1.288 4.813 1.575 9.775 6.387 11.063s9.775-1.575 11.063-6.387-1.575-9.775-6.387-11.063-9.775 1.575-11.063 6.387z"></path>
<path fill="#e897ac" d="M23.606 20.7c-0.144-0.006-0.438 0.031-0.694-0.225l-0.125-0.125c-0.244-0.244-0.637-0.244-0.887 0l-1.556 1.556c-0.244 0.244-0.244 0.637 0 0.887 0.050 0.069 0.356 0.256 0.35 0.694-0.006 0.344 0.050 0.712 0.181 1.069 0.294 0.775 0.269 0.619 6.238 6.594 1.056 1.056 2.75 1.156 3.887 0.194 1.3-1.1 1.3-3.050 0.137-4.219l-5.594-5.594c-0.506-0.519-1.206-0.819-1.938-0.831z"></path>
<path fill="#efb7c5" d="M22.788 20.35c-0.244-0.244-0.637-0.244-0.887 0l-1.556 1.556c-0.244 0.244-0.244 0.637 0 0.887 0.050 0.069 0.356 0.256 0.35 0.694-0.006 0.231 0.025 0.419 0.031 0.462l3.219-3.219c-0.438-0.063-0.731 0.044-1.031-0.25z"></path>
<path fill="#f94a46" d="M30.712 31.55c-0.038 0.025-0.075 0.050-0.113 0.069 0.038-0.019 0.075-0.044 0.113-0.069z"></path>
<path fill="#f94a46" d="M30.938 31.394c0.075-0.063 0.056-0.050 0.087-0.069-0.031 0.025-0.063 0.044-0.087 0.069z"></path>
<path fill="#f94a46" d="M30.869 31.444c-0.038 0.025-0.075 0.050-0.113 0.075 0.044-0.025 0.081-0.050 0.113-0.075z"></path>
<path fill="#f94a46" d="M31.212 31.144c0.025-0.025 0.050-0.056 0.075-0.081-0.025 0.025-0.050 0.056-0.075 0.081z"></path>
<path fill="#f94a46" d="M31.325 31.019c0.081-0.094 0.15-0.188 0.219-0.288-0.069 0.106-0.144 0.2-0.219 0.288z"></path>
<path fill="#f94a46" d="M31.55 30.725c0.031-0.044 0.056-0.087 0.081-0.137-0.025 0.044-0.056 0.094-0.081 0.137z"></path>
<path fill="#f94a46" d="M31.15 31.206c-0.019 0.019-0.038 0.038-0.063 0.056 0.025-0.019 0.044-0.038 0.063-0.056z"></path>
<path fill="#efb7c5" d="M13.925 0.375c-5.894-1.575-11.969 1.931-13.55 7.825-1.581 5.887 1.931 11.969 7.819 13.544 5.888 1.581 11.969-1.931 13.544-7.819 1.581-5.894-1.925-11.969-7.813-13.55zM16.744 18.081c0.006-0.063 0.006-0.131 0.006-0.194 0-2.175-1.225-4.063-3.019-5.019 0.806-0.731 1.313-1.775 1.313-2.944 0-2.194-1.787-3.981-3.981-3.981s-3.981 1.788-3.981 3.981c0 1.169 0.506 2.219 1.313 2.944-1.794 0.956-3.019 2.85-3.019 5.019 0 0.063 0.006 0.131 0.006 0.194-2.044-1.656-3.35-4.188-3.35-7.025 0-4.987 4.044-9.031 9.031-9.031s9.031 4.044 9.031 9.037c0 2.831-1.306 5.363-3.35 7.019z"></path>
</svg>
