<!-- Generated by IcoMoon.io -->
<svg version="1.1" xmlns="http://www.w3.org/2000/svg" width="32" height="32" viewBox="0 0 32 32">
<title>question-circle</title>
<path fill="#78b842" d="M32 16c0 8.839-7.161 16-16 16s-16-7.161-16-16c0-8.832 7.161-16 16-16s16 7.168 16 16z"></path>
<path fill="#fff" d="M16.432 5.29c-3.516 0-5.761 1.484-7.516 4.116-0.082 0.122-0.131 0.272-0.131 0.433 0 0.251 0.119 0.475 0.304 0.617l0.002 0.001 2.239 1.697c0.129 0.097 0.292 0.156 0.469 0.156 0.245 0 0.464-0.113 0.608-0.29l0.001-0.001c1.155-1.465 1.942-2.31 3.697-2.31 1.316 0 2.948 0.845 2.948 2.129 0 0.968-0.8 1.465-2.097 2.194-1.529 0.839-3.535 1.897-3.535 4.548v0.258c0.001 0.427 0.347 0.773 0.774 0.774h3.613c0.427-0.001 0.773-0.347 0.774-0.774v-0.084c0-1.839 5.368-1.91 5.368-6.884 0-3.742-3.884-6.581-7.516-6.581z"></path>
<path fill="#fff" d="M18.968 24.258c0 1.639-1.329 2.968-2.968 2.968s-2.968-1.329-2.968-2.968c0-1.639 1.329-2.968 2.968-2.968s2.968 1.329 2.968 2.968z"></path>
</svg>
