<!-- Generated by IcoMoon.io -->
<svg version="1.1" xmlns="http://www.w3.org/2000/svg" width="32" height="32" viewBox="0 0 32 32">
<title>user</title>
<path fill="#e4f0f3" d="M32 16c0 8.833-7.167 16-16 16s-16-7.167-16-16 7.167-16 16-16 16 7.167 16 16z"></path>
<path fill="#e897ac" d="M20.692 19.175c2.867-2.592 3.092-7.017 0.492-9.883s-7.017-3.092-9.883-0.492-3.092 7.017-0.492 9.883c0.158 0.175 0.325 0.342 0.492 0.492-3.258 1.742-5.3 5.133-5.3 8.825 0 0.167 0.017 0.333 0.025 0.5 5.833 4.675 14.117 4.675 19.95 0 0.008-0.167 0.025-0.325 0.025-0.5 0-3.692-2.042-7.083-5.308-8.825v0z"></path>
</svg>
