<?xml version="1.0" encoding="UTF-8"?> <svg xmlns="http://www.w3.org/2000/svg" xmlns:xlink="http://www.w3.org/1999/xlink" viewBox="0 0 583 493.9"><defs><style>.cls-1{mask:url(#mask);filter:url(#luminosity-noclip-2);}.cls-18,.cls-2{mix-blend-mode:multiply;}.cls-2{fill:url(#linear-gradient);}.cls-3{fill:none;}.cls-4{isolation:isolate;}.cls-5{mask:url(#mask-2);}.cls-6{fill:#f6f9fc;}.cls-7{fill:#dde1e5;}.cls-8{fill:#d2dbe1;}.cls-9{fill:#f6fbff;}.cls-10{fill:#c2cfde;}.cls-11{fill:#848ea2;}.cls-12{fill:#4b4b4b;}.cls-13{fill:#6c6c6c;}.cls-14{fill:#3a3a3a;}.cls-15{fill:#d0658c;}.cls-16{fill:#c43f6f;}.cls-17{fill:#e9a3d8;}.cls-18{fill:#e6e6e5;}.cls-19,.cls-47,.cls-52{fill:#fff;}.cls-19{opacity:0.2;}.cls-20{fill:#dc96d4;}.cls-21{fill:#503c25;}.cls-22{fill:#e4be00;}.cls-23{fill:#7775ac;}.cls-24{fill:#5b5489;}.cls-25{fill:#76699a;}.cls-26{fill:#f6c547;}.cls-27{fill:#f0ab00;}.cls-28{fill:#224949;}.cls-29{fill:#448c1f;}.cls-30{fill:#58b129;}.cls-31{opacity:0.5;}.cls-32{fill:#3a7c19;}.cls-33{fill:#28620d;}.cls-34{fill:#c3cbd7;}.cls-35{fill:#9ea8b3;}.cls-36{fill:#ebf1f8;}.cls-37{fill:#6a8a94;}.cls-38{fill:#375861;}.cls-39{fill:#4a6c78;}.cls-40{fill:#81a5ac;}.cls-41{fill:#d4a634;}.cls-42{fill:#dfb53f;}.cls-43{fill:#73ef31;}.cls-44{fill:#f2c3b4;}.cls-44,.cls-45,.cls-47,.cls-49,.cls-50,.cls-51{fill-rule:evenodd;}.cls-45{fill:#19191f;}.cls-46{fill:#322447;}.cls-48,.cls-51{fill:#362847;}.cls-49{fill:#3d3458;}.cls-50{fill:#fdfdfd;}.cls-53{fill:#eabaad;}.cls-54{fill:#373737;}.cls-55{fill:#c3930e;}.cls-56{fill:#55324c;}.cls-57{fill:#624058;}.cls-58{fill:#472542;}.cls-59{fill:#599800;}.cls-60{fill:#84c944;}.cls-61{fill:#6fb21d;}.cls-62{fill:#c3c1d1;}.cls-63{fill:#66a700;}.cls-64{fill:#dcdad2;}.cls-65{fill:#eceae2;}.cls-66{fill:#ceccbe;}.cls-67{clip-path:url(#clip-path);}.cls-68{filter:url(#luminosity-noclip);}</style><filter id="luminosity-noclip" x="39.82" y="-8439.28" width="406.72" height="32766" color-interpolation-filters="sRGB"><feFlood flood-color="#fff" result="bg"></feFlood><feBlend in="SourceGraphic" in2="bg"></feBlend></filter><mask id="mask" x="39.82" y="-8439.28" width="406.72" height="32766" maskUnits="userSpaceOnUse"><g class="cls-68"></g></mask><linearGradient id="linear-gradient" x1="243.18" y1="424.14" x2="243.18" y2="1.51" gradientUnits="userSpaceOnUse"><stop offset="0" stop-color="#fff"></stop><stop offset="1" stop-color="gray"></stop></linearGradient><filter id="luminosity-noclip-2" x="39.82" y="43.8" width="406.72" height="371.99" color-interpolation-filters="sRGB"><feFlood flood-color="#fff" result="bg"></feFlood><feBlend in="SourceGraphic" in2="bg"></feBlend></filter><mask id="mask-2" x="39.82" y="43.8" width="406.72" height="371.99" maskUnits="userSpaceOnUse"><g class="cls-1"><path class="cls-2" d="M425.36,359.21A132.76,132.76,0,0,1,402,396.86a130.31,130.31,0,0,1-10.25,10.37,127.72,127.72,0,0,1-10.48,8.55H170c-40.47-23.51-68.42-60.89-86-102.14q-1.12-2.62-2.3-5.3C67,274.89,48.43,241.89,41.33,206,28.64,141.76,98.79,122,137,85.65c14-13.33,21.71-33.11,41.9-39.38,22.69-7,46.89,1.48,61.87,18.5,34.13,38.77,90,80.26,124.27,91.68C433.13,179.09,473.74,241.8,425.36,359.21Z"></path></g></mask><clipPath id="clip-path"><path class="cls-3" d="M398.87,258.74a10.32,10.32,0,1,0-16.34.67Z"></path></clipPath></defs><g class="cls-4"><g id="Amy"><g class="cls-5"><path class="cls-6" d="M425.36,359.21A132.76,132.76,0,0,1,402,396.86a130.31,130.31,0,0,1-10.25,10.37c-3.34,3-2.19,2.86-10.48,2.86H170c-40.47-23.51-68.42-55.2-86-96.45q-1.12-2.62-2.3-5.3C67,274.89,48.43,241.89,41.33,206,28.64,141.76,98.79,122,137,85.65c14-13.33,21.71-33.11,41.9-39.38,22.69-7,46.89,1.48,61.87,18.5,34.13,38.77,90,80.26,124.27,91.68C433.13,179.09,473.74,241.8,425.36,359.21Z"></path></g><ellipse class="cls-7" cx="252.16" cy="404.75" rx="226.9" ry="16.04"></ellipse><polyline class="cls-8" points="393.71 195.97 393.71 201.49 318.53 201.49 318.53 68.38 393.71 68.38 393.71 73.91"></polyline><polyline class="cls-9" points="393.71 195.97 323.48 195.97 323.48 73.91 393.71 73.91"></polyline><path class="cls-8" d="M323.48,132.86V137h69.4c0-.69,0-1.38,0-2.08h0c0-.7,0-1.39,0-2.08Z"></path><path class="cls-8" d="M323.48,164.42v1.35h66.75c.27-.45.54-.9.8-1.35Z"></path><path class="cls-8" d="M323.48,104.18v1.35h67.59c-.26-.46-.53-.91-.8-1.35Z"></path><rect class="cls-8" x="389.54" y="68.38" width="4.17" height="133.11"></rect><rect class="cls-8" x="356.4" y="73.91" width="1.35" height="122.06"></rect><polyline class="cls-8" points="389.54 73.91 389.54 68.38 464.72 68.38 464.72 201.49 389.54 201.49 389.54 195.97"></polyline><polyline class="cls-9" points="389.54 73.91 459.77 73.91 459.77 195.97 389.54 195.97"></polyline><path class="cls-8" d="M459.77,137v-4.16h-69.4c0,.69,0,1.38,0,2.08h0c0,.7,0,1.39,0,2.08Z"></path><path class="cls-8" d="M459.77,105.46v-1.35H393c-.27.45-.54.9-.8,1.35Z"></path><path class="cls-8" d="M459.77,165.7v-1.35H392.18c.26.46.53.91.8,1.35Z"></path><rect class="cls-8" x="389.54" y="68.38" width="4.17" height="133.11"></rect><rect class="cls-8" x="425.5" y="73.91" width="1.35" height="122.06"></rect><rect class="cls-10" x="241.28" y="328.07" width="3.8" height="54.32" transform="translate(486.36 710.45) rotate(-180)"></rect><rect class="cls-11" x="237.47" y="328.07" width="3.8" height="54.32" transform="translate(478.75 710.45) rotate(-180)"></rect><path class="cls-12" d="M217.92,402.5c0,2.37.81,4.3,1.8,4.3s1.8-1.93,1.8-4.3-.8-4.29-1.8-4.29S217.92,400.13,217.92,402.5Z"></path><rect class="cls-12" x="219.72" y="398.21" width="5.13" height="8.59" transform="translate(444.57 805.01) rotate(-180)"></rect><path class="cls-13" d="M223.05,402.5c0,2.37.81,4.3,1.8,4.3s1.8-1.93,1.8-4.3-.81-4.29-1.8-4.29S223.05,400.13,223.05,402.5Z"></path><path class="cls-12" d="M241.28,386.53v6.66l-46.74,6.54a.65.65,0,0,1-.74-.65v-5.89Z"></path><polygon class="cls-14" points="193.8 393.19 193.8 394.64 241.28 387.37 241.28 386.54 193.8 393.19"></polygon><polygon class="cls-14" points="241.28 386.54 217.54 399.84 217.54 393.19 228.97 389.98 226.1 389.43 241.28 386.54"></polygon><rect class="cls-12" x="217.54" y="393.19" width="5.63" height="6.65"></rect><polygon class="cls-13" points="241.28 393.19 223.17 399.84 223.17 393.19 241.28 386.54 241.28 393.19"></polygon><polygon class="cls-14" points="241.28 386.54 232.87 386.54 232.87 388.42 241.28 386.54"></polygon><path class="cls-13" d="M264.63,402.5c0,2.37-.81,4.3-1.8,4.3s-1.8-1.93-1.8-4.3.81-4.29,1.8-4.29S264.63,400.13,264.63,402.5Z"></path><rect class="cls-13" x="257.7" y="398.21" width="5.13" height="8.59"></rect><path class="cls-12" d="M259.5,402.5c0,2.37-.8,4.3-1.8,4.3s-1.8-1.93-1.8-4.3.81-4.29,1.8-4.29S259.5,400.13,259.5,402.5Z"></path><path class="cls-12" d="M241.28,386.53v6.66L288,399.73a.66.66,0,0,0,.75-.65v-5.89Z"></path><polygon class="cls-14" points="288.75 393.19 288.75 394.64 241.28 387.37 241.28 386.54 288.75 393.19"></polygon><polygon class="cls-14" points="241.28 386.54 265.02 399.84 265.02 393.19 253.59 389.98 256.46 389.43 241.28 386.54"></polygon><rect class="cls-13" x="259.38" y="393.19" width="5.63" height="6.65"></rect><polygon class="cls-12" points="241.28 393.19 259.38 399.84 259.38 393.19 241.28 386.54 241.28 393.19"></polygon><path class="cls-12" d="M288.76,402.5a4.3,4.3,0,1,0-4.3,4.3A4.3,4.3,0,0,0,288.76,402.5Z"></path><polygon class="cls-14" points="241.28 386.54 249.68 386.54 249.68 388.42 241.28 386.54"></polygon><path class="cls-14" d="M232.87,378.24h16.81a0,0,0,0,1,0,0v7.15a1.15,1.15,0,0,1-1.15,1.15H234a1.15,1.15,0,0,1-1.15-1.15v-7.15A0,0,0,0,1,232.87,378.24Z" transform="translate(482.55 764.77) rotate(-180)"></path><path class="cls-12" d="M193.8,402.5a4.3,4.3,0,1,1,4.29,4.3A4.29,4.29,0,0,1,193.8,402.5Z"></path><path class="cls-15" d="M230.84,202.84a9.74,9.74,0,0,0-9.53-8H158l18.09,111.94H249.9Z"></path><path class="cls-15" d="M302,306.81H212.87v19.45H302a9.73,9.73,0,1,0,0-19.45Z"></path><path class="cls-16" d="M238.56,326.26H178.35a9.73,9.73,0,0,1-9.57-8L148.25,206.35a9.73,9.73,0,0,1,19.14-3.51l19.06,104h52.11a9.73,9.73,0,1,1,0,19.45Z"></path><path class="cls-12" d="M241.28,326.26v8.88H192.86a5,5,0,0,1-5-5v-3.89Z"></path><path class="cls-13" d="M243.6,326.26h51.08a0,0,0,0,1,0,0v8.89a0,0,0,0,1,0,0H241.28a0,0,0,0,1,0,0v-6.56A2.33,2.33,0,0,1,243.6,326.26Z" transform="translate(535.96 661.4) rotate(-180)"></path><path class="cls-12" d="M241.22,378.24h6a2.46,2.46,0,0,1,2.47,2.47v5.82H238.75v-5.82A2.47,2.47,0,0,1,241.22,378.24Z"></path><g id="Amy-2" data-name="Amy"><path class="cls-17" d="M159.85,258.6H141.31l3,13.63a.19.19,0,0,0,0,.08c0,.72,2.84,1.3,6.33,1.3s6.33-.58,6.33-1.3c0,0,0-.06,0-.08Z"></path><path class="cls-18" d="M159.82,258.86c-3.88,12.58-7.22,14.06-13.17,14.46a24.68,24.68,0,0,0,3.93.29c3.5,0,6.33-.58,6.33-1.3,0,0,0-.06,0-.08Z"></path><polygon class="cls-19" points="141.73 258.85 144.25 267.38 145.58 260.28 141.73 258.85"></polygon><path class="cls-20" d="M159.87,258.6c0,1-4.16,1.9-9.29,1.9s-9.29-.85-9.29-1.9,4.16-1.9,9.29-1.9S159.87,257.55,159.87,258.6Z"></path><path class="cls-17" d="M159,258.83c0,.82-3.76,1.48-8.41,1.48s-8.41-.66-8.41-1.48,3.77-1.48,8.41-1.48S159,258,159,258.83Z"></path><path class="cls-20" d="M154.6,259.29c0,.36-1.67.65-3.72.65s-3.73-.29-3.73-.65,1.67-.66,3.73-.66S154.6,258.93,154.6,259.29Z"></path><polygon class="cls-21" points="151.16 259.52 150.6 259.52 150.01 254.91 151.16 254.91 151.16 259.52"></polygon><path class="cls-22" d="M153.08,253.87c0,2.53-1.12,3.32-2.5,3.32s-2.5-.79-2.5-3.32,2.32-2.34,2.5-6.51A10.46,10.46,0,0,1,153.08,253.87Z"></path><path class="cls-23" d="M147.44,251.4H128.9l2.95,20.8c0,.07,0,.13,0,.15,0,.72,2.8,1.26,6.3,1.26s6.33-.58,6.33-1.3c0,0,0-.07,0-.09Z"></path><path class="cls-18" d="M147,254.51c-2.31,12.38-6.81,18.41-12.76,18.81a24.59,24.59,0,0,0,3.93.29c3.49,0,6.33-.58,6.33-1.3v-.09Z"></path><path class="cls-24" d="M147.46,251.4c0,1-4.16,1.9-9.29,1.9s-9.29-.85-9.29-1.9,4.16-1.91,9.29-1.91S147.46,250.35,147.46,251.4Z"></path><path class="cls-25" d="M146.58,251.63c0,.81-3.77,1.48-8.41,1.48s-8.41-.67-8.41-1.48,3.76-1.48,8.41-1.48S146.58,250.81,146.58,251.63Z"></path><path class="cls-24" d="M142.19,252.09c0,.36-1.67.65-3.72.65s-3.73-.29-3.73-.65,1.67-.66,3.73-.66S142.19,251.73,142.19,252.09Z"></path><polygon class="cls-21" points="138.75 252.32 138.19 252.32 137.59 247.71 138.75 247.71 138.75 252.32"></polygon><path class="cls-22" d="M140.67,246.66c0,2.54-1.12,3.32-2.5,3.32s-2.5-.78-2.5-3.32,2.31-2.33,2.5-6.51A10.51,10.51,0,0,1,140.67,246.66Z"></path><path class="cls-26" d="M399.2,385.07s-15.82-3.16-21.25,8.37l-1.75-2.38S381,376.71,399.48,384Z"></path><path class="cls-26" d="M398.14,383.62s-10.52,12.24-3.14,22.62l-2.94.36s-10.13-11.24,5.29-23.74Z"></path><path class="cls-27" d="M402.06,380.48s-10.51,12.24-3.14,22.62l-2.93.37s-10.14-11.24,5.29-23.75Z"></path><path class="cls-26" d="M398.74,382.26s-15.15,5.57-13.77,18.23l-2.74-1.11s-3.37-14.76,16.19-18.17Z"></path><path class="cls-26" d="M398.08,383.59s-11.75-11.06-22.46-4.15l-.22-2.95s11.68-9.62,23.48,6.35Z"></path><path class="cls-26" d="M397.33,381.77s-7.05-14.51-19.51-11.87l.83-2.84s14.34-4.83,19.7,14.29Z"></path><path class="cls-26" d="M399.79,382.42s8.62-13.64,20.71-9.63l-.51-2.91s-13.72-6.4-21.16,12Z"></path><path class="cls-26" d="M402.46,381.7s14.66-6.73,22.61,3.22l1.16-2.72s-8-12.84-24.29-1.47Z"></path><path class="cls-26" d="M398.4,383.53s13,9.63,8,21.38l2.94-.29s7.43-13.18-10.37-22Z"></path><path class="cls-27" d="M398.05,383.11s6.9,14.59-3,22.65l2.73,1.13s12.76-8.15,1.2-24.3Z"></path><path class="cls-26" d="M397,382.08s3.52,15.75-7.87,21.44l2.41,1.7s14.23-5.14,6.51-23.44Z"></path><path class="cls-27" d="M397.2,382.23s11.28,11.53,4.6,22.37l2.95.17s9.38-11.86-6.81-23.35Z"></path><path class="cls-26" d="M400.34,382.61s15.41,4.77,14.69,17.49l2.67-1.25s2.61-14.91-17.1-17.3Z"></path><path class="cls-26" d="M400.54,381s15.77-3.41,21.38,8l1.72-2.41s-5.05-14.26-23.4-6.67Z"></path><path class="cls-26" d="M398.72,382.16s0-16.14,12.37-19.2l-2-2.19s-15,1.91-11.48,21.45Z"></path><path class="cls-27" d="M399.16,379.27s-3-15.86,8.59-21.17l-2.36-1.78S391,361,398.1,379.53Z"></path><path class="cls-27" d="M399,381.87s5.36-15.22,18-14l-1.15-2.73s-14.8-3.17-17.94,16.44Z"></path><path class="cls-27" d="M398.62,383.33s-13.94,8.13-10.36,20.36l-2.89-.62s-5.91-13.93,12.76-20.72Z"></path><path class="cls-27" d="M396.6,382.57s-.75-16.12-13.24-18.61l1.88-2.28s15.09,1.22,12.46,20.9Z"></path><path class="cls-27" d="M396.33,379.64s-12.65-10-22.73-2.25l-.48-2.91s10.83-10.57,23.94,4.34Z"></path><path class="cls-27" d="M400.6,381.84s12.3-10.45,22.64-3l.39-2.93s-11.19-10.2-23.79,5.15Z"></path><path class="cls-27" d="M397.28,383.45s-14.56-6.95-22.65,2.89l-1.12-2.73s8.19-12.73,24.31-1.12Z"></path><path class="cls-27" d="M398.24,383s16-2.17,20.69,9.67l1.89-2.26s-3.91-14.62-22.8-8.49Z"></path><path class="cls-27" d="M397.51,377.66l.82-3.11,0,4.11,3-4.82s-2.49,6.08-2.37,6,2.33-1.83,2.33-1.83l-1.1,2.7,4.74-3.11-4.53,3.17,5.94,1.05c-.12,0-7.49.81-7.49.81l4,1.88-4.39-.89,1.86,3.06L397.37,383l-1,2.44.2-1.75-3.61-.75,3.14-.9-2.88-2,3.68.39L393,376.91l3.34,2.07-2-5Z"></path><path class="cls-27" d="M397.71,382.9s15.13,5.62,13.69,18.28l2.75-1.1s3.43-14.74-16.11-18.23Z"></path><polygon class="cls-28" points="113.01 272.27 96.63 272.27 92.26 251.58 118.25 251.58 113.01 272.27"></polygon><path class="cls-29" d="M124.16,210.36a4.79,4.79,0,0,0-4.78,4.78v10.69a.57.57,0,0,1-.56.56h-9.65V236h9.65A10.15,10.15,0,0,0,129,225.83V215.14A4.79,4.79,0,0,0,124.16,210.36Z"></path><path class="cls-29" d="M86.35,217.6a4.8,4.8,0,0,1,4.79,4.79v10.69a.56.56,0,0,0,.56.56h9.64v9.57H91.7a10.14,10.14,0,0,1-10.14-10.13V222.39A4.8,4.8,0,0,1,86.35,217.6Z"></path><path class="cls-30" d="M112.54,251.58V213.64a7.29,7.29,0,0,0-14.57,0v37.94Z"></path><g class="cls-31"><path class="cls-32" d="M101.34,213.74a.38.38,0,0,1-.39-.39V212a.39.39,0,0,1,.39-.4.4.4,0,0,1,.4.4v1.33A.39.39,0,0,1,101.34,213.74Z"></path><path class="cls-32" d="M104.09,218a.39.39,0,0,1-.39-.4v-2.52a.4.4,0,1,1,.79,0v2.52A.39.39,0,0,1,104.09,218Z"></path><path class="cls-32" d="M101.84,227.55a.4.4,0,0,1-.4-.4v-4a.4.4,0,0,1,.4-.4.39.39,0,0,1,.39.4v4A.39.39,0,0,1,101.84,227.55Z"></path><path class="cls-32" d="M101.84,238.43a.4.4,0,0,1-.4-.4V236a.4.4,0,0,1,.4-.4.39.39,0,0,1,.39.4V238A.39.39,0,0,1,101.84,238.43Z"></path><path class="cls-32" d="M106,236.36a.39.39,0,0,1-.4-.4v-4a.39.39,0,1,1,.78,0v4A.39.39,0,0,1,106,236.36Z"></path><path class="cls-32" d="M107.41,251a.39.39,0,0,1-.4-.39v-2a.4.4,0,0,1,.8,0v2A.39.39,0,0,1,107.41,251Z"></path><path class="cls-32" d="M109.17,248.12a.39.39,0,0,1-.39-.4v-1.06a.39.39,0,0,1,.39-.4.4.4,0,0,1,.4.4v1.06A.41.41,0,0,1,109.17,248.12Z"></path><path class="cls-32" d="M110.86,236.57a.39.39,0,0,1-.4-.4V234a.4.4,0,0,1,.8,0v2.22A.39.39,0,0,1,110.86,236.57Z"></path><path class="cls-32" d="M109.17,222a.4.4,0,0,1-.39-.41v-1.72a.39.39,0,0,1,.39-.4.41.41,0,0,1,.4.4v1.72A.42.42,0,0,1,109.17,222Z"></path><path class="cls-32" d="M110.86,216.73a.39.39,0,0,1-.4-.39v-1.26a.4.4,0,1,1,.8,0v1.26A.39.39,0,0,1,110.86,216.73Z"></path><path class="cls-32" d="M107.41,226.58a.4.4,0,0,1-.4-.4v-1.42a.4.4,0,0,1,.8,0v1.42A.4.4,0,0,1,107.41,226.58Z"></path><path class="cls-32" d="M102.41,244.8a.4.4,0,0,1-.4-.39v-2.75a.4.4,0,0,1,.8,0v2.75A.4.4,0,0,1,102.41,244.8Z"></path><path class="cls-32" d="M106.39,240.91a.41.41,0,0,1-.4-.4V239.1a.4.4,0,0,1,.4-.4.39.39,0,0,1,.4.4v1.41A.4.4,0,0,1,106.39,240.91Z"></path><path class="cls-32" d="M102.94,250a.41.41,0,0,1-.4-.4v-1.43a.42.42,0,0,1,.4-.41.41.41,0,0,1,.4.41v1.43A.4.4,0,0,1,102.94,250Z"></path><path class="cls-32" d="M109.17,230.81a.39.39,0,0,1-.39-.4v-2.12a.39.39,0,0,1,.39-.4.4.4,0,0,1,.4.4v2.12A.41.41,0,0,1,109.17,230.81Z"></path><path class="cls-32" d="M101.34,230.81a.39.39,0,0,1-.39-.4v-1.76a.39.39,0,0,1,.39-.4.4.4,0,0,1,.4.4v1.76A.4.4,0,0,1,101.34,230.81Z"></path><path class="cls-32" d="M101.34,218.79a.39.39,0,0,1-.39-.4v-2.32a.38.38,0,0,1,.39-.39.39.39,0,0,1,.4.39v2.32A.4.4,0,0,1,101.34,218.79Z"></path><path class="cls-32" d="M99.58,222.57a.4.4,0,0,1-.4-.4v-2.32a.4.4,0,0,1,.4-.4.39.39,0,0,1,.4.4v2.32A.39.39,0,0,1,99.58,222.57Z"></path><path class="cls-32" d="M105.26,212.42a.4.4,0,0,1-.4-.4v-1.66a.39.39,0,0,1,.4-.39.4.4,0,0,1,.4.39V212A.41.41,0,0,1,105.26,212.42Z"></path><path class="cls-32" d="M104.45,222.6a.41.41,0,0,1-.4-.41v-.62a.4.4,0,0,1,.79,0v.62A.41.41,0,0,1,104.45,222.6Z"></path><path class="cls-32" d="M107.41,214.19a.4.4,0,0,1-.4-.4V212a.4.4,0,0,1,.8,0v1.77A.4.4,0,0,1,107.41,214.19Z"></path><path class="cls-32" d="M102.94,210.12a.41.41,0,0,1-.4-.4v-1a.41.41,0,0,1,.4-.4.4.4,0,0,1,.4.4v1A.4.4,0,0,1,102.94,210.12Z"></path><path class="cls-32" d="M108.35,210.76a.4.4,0,0,1-.41-.4v-1.61a.4.4,0,0,1,.41-.4.4.4,0,0,1,.39.4v1.61A.4.4,0,0,1,108.35,210.76Z"></path><path class="cls-32" d="M104.09,229.75a.4.4,0,0,1-.39-.41v-2.72a.4.4,0,1,1,.79,0v2.72A.4.4,0,0,1,104.09,229.75Z"></path><path class="cls-32" d="M110.86,226.79a.4.4,0,0,1-.4-.4v-1.23a.4.4,0,1,1,.8,0v1.23A.4.4,0,0,1,110.86,226.79Z"></path><path class="cls-32" d="M99.58,235.07a.4.4,0,0,1-.4-.4v-.89a.4.4,0,0,1,.4-.39.39.39,0,0,1,.4.39v.89A.39.39,0,0,1,99.58,235.07Z"></path><path class="cls-32" d="M109.17,242.06a.39.39,0,0,1-.39-.4V239.8a.39.39,0,0,1,.39-.4.41.41,0,0,1,.4.4v1.86A.41.41,0,0,1,109.17,242.06Z"></path><path class="cls-32" d="M106,246.39a.39.39,0,0,1-.4-.4v-2.3a.39.39,0,1,1,.78,0V246A.39.39,0,0,1,106,246.39Z"></path><path class="cls-32" d="M100.2,248.12a.39.39,0,0,1-.39-.4V246a.38.38,0,0,1,.39-.39.39.39,0,0,1,.4.39v1.73A.4.4,0,0,1,100.2,248.12Z"></path></g><g class="cls-31"><path class="cls-33" d="M114.14,229.33a.4.4,0,0,1-.4-.39V228a.4.4,0,1,1,.79,0v.91A.4.4,0,0,1,114.14,229.33Z"></path><path class="cls-33" d="M118.73,230a.39.39,0,0,1-.39-.4v-2.2a.4.4,0,1,1,.79,0v2.2A.39.39,0,0,1,118.73,230Z"></path><path class="cls-33" d="M122.27,224.56a.4.4,0,0,1-.39-.4V221a.4.4,0,1,1,.79,0v3.16A.4.4,0,0,1,122.27,224.56Z"></path><path class="cls-33" d="M124.31,216.39a.4.4,0,0,1-.4-.4v-1.47a.4.4,0,0,1,.8,0V216A.4.4,0,0,1,124.31,216.39Z"></path><path class="cls-33" d="M126.61,218.29a.4.4,0,0,1-.4-.4v-1.53a.39.39,0,0,1,.4-.4.4.4,0,0,1,.4.4v1.53A.41.41,0,0,1,126.61,218.29Z"></path><path class="cls-33" d="M125.63,222.87a.4.4,0,0,1-.39-.39V221a.4.4,0,1,1,.79,0v1.48A.4.4,0,0,1,125.63,222.87Z"></path><path class="cls-33" d="M125.63,226.86a.4.4,0,0,1-.39-.4V225a.4.4,0,0,1,.79,0v1.42A.4.4,0,0,1,125.63,226.86Z"></path><path class="cls-33" d="M123.25,230a.4.4,0,0,1-.4-.4V228a.4.4,0,1,1,.8,0v1.6A.4.4,0,0,1,123.25,230Z"></path><path class="cls-33" d="M120.68,233.67a.41.41,0,0,1-.4-.4v-2.21a.41.41,0,0,1,.4-.4.39.39,0,0,1,.39.4v2.21A.39.39,0,0,1,120.68,233.67Z"></path><path class="cls-33" d="M117,234.63a.39.39,0,0,1-.39-.4v-1a.39.39,0,1,1,.78,0v1A.39.39,0,0,1,117,234.63Z"></path><path class="cls-33" d="M114.67,234.63a.4.4,0,0,1-.4-.4v-2a.4.4,0,0,1,.4-.4.39.39,0,0,1,.39.4v2A.39.39,0,0,1,114.67,234.63Z"></path><path class="cls-33" d="M121.39,219.87a.39.39,0,0,1-.4-.4v-3.11a.39.39,0,0,1,.4-.4.39.39,0,0,1,.4.4v3.11A.4.4,0,0,1,121.39,219.87Z"></path><path class="cls-33" d="M125.32,230a.41.41,0,0,1-.4-.4v-1.1a.41.41,0,0,1,.4-.4.4.4,0,0,1,.4.4v1.1A.4.4,0,0,1,125.32,230Z"></path><path class="cls-33" d="M121.39,227.83a.39.39,0,0,1-.4-.4v-1.65a.4.4,0,0,1,.4-.41.41.41,0,0,1,.4.41v1.65A.4.4,0,0,1,121.39,227.83Z"></path><path class="cls-33" d="M123.78,219.87a.4.4,0,0,1-.4-.4v-1.08a.4.4,0,0,1,.8,0v1.08A.4.4,0,0,1,123.78,219.87Z"></path><path class="cls-33" d="M122.27,214a.4.4,0,0,1-.39-.39v-.93a.4.4,0,1,1,.79,0v.93A.4.4,0,0,1,122.27,214Z"></path><path class="cls-33" d="M125.63,213.55a.4.4,0,0,1-.39-.4v-.77a.4.4,0,1,1,.79,0v.77A.4.4,0,0,1,125.63,213.55Z"></path></g><g class="cls-31"><path class="cls-33" d="M96.22,236.44a.39.39,0,0,1-.39-.39v-.91a.39.39,0,0,1,.39-.4.4.4,0,0,1,.4.4v.91A.4.4,0,0,1,96.22,236.44Z"></path><path class="cls-33" d="M91.62,237.13a.39.39,0,0,1-.4-.4v-2.19a.4.4,0,0,1,.8,0v2.19A.39.39,0,0,1,91.62,237.13Z"></path><path class="cls-33" d="M88.08,231.66a.39.39,0,0,1-.4-.4V228.1a.4.4,0,0,1,.8,0v3.16A.39.39,0,0,1,88.08,231.66Z"></path><path class="cls-33" d="M86.05,223.5a.4.4,0,0,1-.4-.4v-1.47a.4.4,0,0,1,.8,0v1.47A.4.4,0,0,1,86.05,223.5Z"></path><path class="cls-33" d="M83.75,225.39a.39.39,0,0,1-.4-.39v-1.54a.41.41,0,0,1,.4-.4.4.4,0,0,1,.39.4V225A.38.38,0,0,1,83.75,225.39Z"></path><path class="cls-33" d="M84.72,230a.4.4,0,0,1-.4-.39V228.1a.4.4,0,0,1,.8,0v1.49A.4.4,0,0,1,84.72,230Z"></path><path class="cls-33" d="M84.72,234a.4.4,0,0,1-.4-.39v-1.42a.4.4,0,0,1,.8,0v1.42A.4.4,0,0,1,84.72,234Z"></path><path class="cls-33" d="M87.11,237.13a.39.39,0,0,1-.4-.4v-1.59a.4.4,0,0,1,.4-.4.39.39,0,0,1,.39.4v1.59A.39.39,0,0,1,87.11,237.13Z"></path><path class="cls-33" d="M89.67,240.78a.41.41,0,0,1-.4-.4v-2.22a.41.41,0,0,1,.4-.4.39.39,0,0,1,.4.4v2.22A.39.39,0,0,1,89.67,240.78Z"></path><path class="cls-33" d="M93.39,241.73a.4.4,0,0,1-.4-.4v-1a.4.4,0,0,1,.8,0v1A.4.4,0,0,1,93.39,241.73Z"></path><path class="cls-33" d="M95.69,241.73a.4.4,0,0,1-.4-.4v-2a.4.4,0,0,1,.8,0v2A.4.4,0,0,1,95.69,241.73Z"></path><path class="cls-33" d="M89,227a.39.39,0,0,1-.4-.39v-3.12a.4.4,0,0,1,.4-.4.41.41,0,0,1,.4.4v3.12A.41.41,0,0,1,89,227Z"></path><path class="cls-33" d="M85,237.13a.39.39,0,0,1-.39-.4v-1.09a.39.39,0,0,1,.39-.4.4.4,0,0,1,.4.4v1.09A.39.39,0,0,1,85,237.13Z"></path><path class="cls-33" d="M89,234.93a.39.39,0,0,1-.4-.39v-1.66a.39.39,0,0,1,.4-.4.41.41,0,0,1,.4.4v1.66A.41.41,0,0,1,89,234.93Z"></path><path class="cls-33" d="M86.58,227a.4.4,0,0,1-.4-.39V225.5a.4.4,0,0,1,.8,0v1.08A.4.4,0,0,1,86.58,227Z"></path><path class="cls-33" d="M88.08,221.12a.4.4,0,0,1-.4-.4v-.92a.4.4,0,1,1,.8,0v.92A.4.4,0,0,1,88.08,221.12Z"></path><path class="cls-33" d="M84.72,220.65a.39.39,0,0,1-.4-.4v-.77a.4.4,0,0,1,.8,0v.77A.39.39,0,0,1,84.72,220.65Z"></path></g><rect class="cls-34" x="374.08" y="285.63" width="6.46" height="114.89" transform="translate(754.62 686.16) rotate(-180)"></rect><rect class="cls-35" x="370.85" y="285.63" width="45.87" height="24.42" transform="translate(787.57 595.68) rotate(-180)"></rect><rect class="cls-36" x="137.94" y="272.27" width="302.8" height="13.36" rx="4.54"></rect><path class="cls-8" d="M83.48,272.27h59a4.54,4.54,0,0,0-4.54,4.54v4.28a4.54,4.54,0,0,0,4.54,4.54h-59a4.54,4.54,0,0,1-4.54-4.54v-4.28A4.54,4.54,0,0,1,83.48,272.27Z"></path><rect class="cls-35" x="90.15" y="285.63" width="6.46" height="114.89" transform="translate(186.76 686.16) rotate(-180)"></rect><rect class="cls-34" x="96.61" y="285.63" width="6.46" height="114.89" transform="translate(199.68 686.16) rotate(-180)"></rect><rect class="cls-35" x="136.02" y="285.63" width="6.46" height="122.68" transform="translate(278.5 693.94) rotate(-180)"></rect><rect class="cls-34" x="142.48" y="285.63" width="6.46" height="122.68" transform="translate(291.42 693.94) rotate(-180)"></rect><rect class="cls-35" x="91.46" y="285.63" width="49.71" height="34.86" transform="translate(232.63 606.12) rotate(-180)"></rect><rect class="cls-35" x="367.62" y="285.63" width="6.46" height="114.89" transform="translate(741.7 686.16) rotate(-180)"></rect><rect class="cls-35" x="413.49" y="285.63" width="6.46" height="122.68" transform="translate(833.44 693.94) rotate(-180)"></rect><rect class="cls-34" x="419.95" y="285.63" width="6.46" height="122.68" transform="translate(846.36 693.94) rotate(-180)"></rect><rect class="cls-8" x="148.94" y="285.63" width="264.55" height="34.59"></rect><path class="cls-37" d="M354.52,269.25v1.68a1.34,1.34,0,0,1-1.34,1.34H293a1.34,1.34,0,0,1-1.34-1.34v-1.68Z"></path><path class="cls-38" d="M295.24,220.78a3.62,3.62,0,0,1,3.49-3.09h5.72c-1.71,0-1.63,1.38-1.84,3.09l-6.88,48.47h-6.64Z"></path><path class="cls-39" d="M301.33,217.69H358a2.67,2.67,0,0,1,2.7,3.09l-6.15,48.47H291.69l6.15-48.47A3.62,3.62,0,0,1,301.33,217.69Z"></path><path class="cls-39" d="M291.69,269.25v1.68a1.34,1.34,0,0,0,1.34,1.34H255.32a1.34,1.34,0,0,1-1.34-1.34v-1.68Z"></path><rect class="cls-38" x="283.23" y="270.19" width="4.01" height="1.15" transform="translate(570.48 541.52) rotate(-180)"></rect><rect class="cls-38" x="276.94" y="270.19" width="4.01" height="1.15" transform="translate(557.9 541.52) rotate(-180)"></rect><path class="cls-37" d="M322.83,237.69l8.08,10.78a8.17,8.17,0,0,1-5.45,2.2,6.21,6.21,0,0,1-6.29-7.2A8.39,8.39,0,0,1,322.83,237.69Z"></path><path class="cls-40" d="M327.29,236.27a6.21,6.21,0,0,1,6.29,7.2,8.25,8.25,0,0,1-2.67,5l-8.08-10.78A8,8,0,0,1,327.29,236.27Z"></path><path class="cls-41" d="M170.59,191.68a50,50,0,0,1-1.88,5.13c-2.49,5.86-4.74,11.92-4.68,18.26,0,4.14,1.07,8.23.89,12.37a21.35,21.35,0,0,1-5.86,13.72c7.91,1.49,16.16-.92,23.1-5s12.78-9.75,18.56-15.36a12.73,12.73,0,0,1,.49,5.94c5.7-3.15,10.09-8.34,13.11-14.12a70.76,70.76,0,0,0,6.1-18.5,95.72,95.72,0,0,0,2.28-18.54,135.76,135.76,0,0,0-1.17-16.72c-.92-8.29,0-20.71-9.05-24.53-4.89-2.07-9.55-3.32-14.55-1.66-3,1-9.84,3.16-16,11.83-6.26,7.6-6.16,17.21-7.36,27-.62,5.16-.91,10.41-2.47,15.37Z"></path><path class="cls-16" d="M207.87,135.79c2.54-.17,5.39,1.28,5.9,3.78.44,2.15-1,4.33-2.86,5.47-2.82,1.69-8.57,3.12-9.94-1S204.12,136,207.87,135.79Z"></path><path class="cls-42" d="M202.63,199.58c2.81,2.95,10.47,6.77,14.7,6.26,1-.13.9-9.83,1.73-9.87s-3.82-4.36-4.39-5.15c-.66.33-6.86.67-8.81.79a6.93,6.93,0,0,0,1-.24,3.84,3.84,0,0,0,1.45-.74,4,4,0,0,0,.87-1.47,4.15,4.15,0,0,0,.48-2.25.81.81,0,0,1-.95,0,1.9,1.9,0,0,1-.61-.81,6.74,6.74,0,0,1-.55-1.56c-.57-2.65,0-5.19.58-7.7.66-2.87-.79-5.95.29-8.8,1,1.88.32,4.27,2.58,5.32a3.43,3.43,0,0,1,.31-3.24,6.72,6.72,0,0,1,2.68-2.17,15.66,15.66,0,0,1,6.21-1.68,50.58,50.58,0,0,1,5.89.27c4.6,7.76,10.61,14.64,18.69,18.4,0,0,4.19,3.83,5.86,1.83s6.95-3.27,9.21-17.83-12-26.32-12-26.32c-4.3-3.33-8.57-5.59-14-6.4-6.95-1-13.18.11-19.85,1.68-.59.13-1.18.27-1.76.43l-.25.07a35.67,35.67,0,0,0-11.67,6,30.55,30.55,0,0,0-9.75,13.76S182.34,178.24,202.63,199.58Z"></path><path class="cls-42" d="M214.68,190.71c-.09,0-.08,0,0,.11S214.76,190.75,214.68,190.71Z"></path><path class="cls-43" d="M234,157.05a0,0,0,0,0,0-.08,0,0,0,0,0,0,.08Z"></path><path class="cls-44" d="M225.88,340.89c1.59,10.23,2.58,46.84,3.22,63.3l-.45,10.91L240.72,417c-8-3.18-1-49.65.39-76.15Z"></path><path class="cls-45" d="M228.63,410.85c0,3.16.16,10.14.16,14.74h3c0-1.09-.08-4,.4-4.93.29-.58.82-.41,1.31-.22a33.91,33.91,0,0,0,4.48,3.67c1.74,1,5.22,1.28,7.83,1.4a29.13,29.13,0,0,0,6.76-.22c1-.34,0-1-1.73-2.66s-7.43-4.19-9.07-6.16-2.36-3.34-2.78-3.44c-.64-.15-1.38,5.78-7,1.34a7.41,7.41,0,0,1-2.26-2.95c-.48-1.11-.75-2.33-.89-2.62S228.69,407.69,228.63,410.85Z"></path><path class="cls-44" d="M206.17,340.89c1.59,10.23,2.58,46.84,3.22,63.3l-.45,10.91L221,417c-8-3.18-1-49.65.39-76.15Z"></path><path class="cls-45" d="M208.92,410.85c0,3.16.16,10.14.16,14.74h3c0-1.09-.08-4,.4-4.93.29-.58.82-.41,1.31-.22a33.91,33.91,0,0,0,4.48,3.67c1.74,1,5.22,1.28,7.83,1.4a29.13,29.13,0,0,0,6.76-.22c1.05-.34,0-1-1.73-2.66s-7.43-4.19-9.07-6.16-2.36-3.34-2.78-3.44c-.64-.15-1.38,5.78-7,1.34a7.41,7.41,0,0,1-2.26-2.95c-.48-1.11-.75-2.33-.89-2.62S209,407.69,208.92,410.85Z"></path><polygon class="cls-46" points="225.35 348.89 258.44 347.96 241.46 279.69 223.04 279.69 207.41 279.69 190.43 347.96 223.5 348.89 225.35 348.89"></polygon><path class="cls-44" d="M217.33,216.26c1.11-.13,2.82-.39,3.48-1.71s.28-3.69.09-5.49-.2-3,.3-3.49,1.47-.21,3.52-.08,5.15.13,6.95,0,2.3-.32,2.47.3a22.67,22.67,0,0,1,0,3.83,14.42,14.42,0,0,0,.54,5.15c.53,1.26,1.52,1.65,3,1.77s3.53,0,4,.82S241,220,239.11,222a23.34,23.34,0,0,1-7.93,5.47c-3.23,1.27-6.94,1.61-9.59.2s-4.26-4.56-5.14-6.73-1-3.34-.89-3.93S216.23,216.39,217.33,216.26Z"></path><path class="cls-44" d="M257.57,175.57c.56,19.61-13.2,35.52-29.47,35.52-14.21,0-26.07-12.12-28.86-28.24a2.66,2.66,0,0,1-1.58.74,4.33,4.33,0,0,1-4-2.19,15,15,0,0,1-2.24-8c.14-2.51,1.45-4,2.85-4,2.66-.07,4.21,2.73,4.76,4.87.07.27,1.43,5.39,3.12,1.82.73-1.56,1-5.15,2-8.29a8.34,8.34,0,0,1,5.16-5.52c2.25-.91,4.87-1.26,6.76-2.73s3-4.05,6.77-4.43,10,1.45,15.59,3.2C238.41,158.3,257.18,161.62,257.57,175.57Z"></path><path class="cls-47" d="M240,219.16h0a14.48,14.48,0,0,1-24.33,0H213l-.59,68.45h27l4.2-44.56Z"></path><path class="cls-48" d="M220.75,214.53s-2.41,9.25-3,25.32.7,51.4.7,51.4l-20-5.92,7.77-13.73-3.44-27.76-1.53-15.78s-4.54-6.91.07-9.2C205.07,217,211.14,215.11,220.75,214.53Z"></path><path class="cls-48" d="M234.66,214.86s1.73,9.4,1.14,25.47-4.48,51.22-4.48,51.22l20.4-4.44L245,272.85l14.19-47.23S255.83,217.71,234.66,214.86Z"></path><path class="cls-49" d="M220.75,214.53l-11.39,6.79-.29,15.31,6.21,1.55L209,240.33c-.19,10.11-2.85,22.37,8.81,28.35Z"></path><path class="cls-49" d="M234.66,214.75l10.59,6.54-1,15.7-6.34,1.29,6.08,2.41c-.72,10.1,2,21.14-10.21,26.62Z"></path><path class="cls-44" d="M254.53,287.63c-1,1.21-2.22,3.46-4.14,5.88a30.15,30.15,0,0,1-7.08,6.57c-2.54,1.57-5,2.13-7,1.48s-3.62-2.48-3.75-3.59,1.21-1.49,2.61-2.22a17.25,17.25,0,0,0,3.9-2.85c1.05-1,1.71-2.08,1.56-2.58s-1.09-.47-2.06.21-2,2-2.68,2.33-1.09-.41-.81-1.56a7.35,7.35,0,0,1,2.55-3.73,11.76,11.76,0,0,1,4.53-1.79,12.52,12.52,0,0,0,3.94-1.33c1.14-.72,2.1-1.87,3.88-1.67a12.34,12.34,0,0,1,5.34,2.62C256.23,286.26,255.51,286.43,254.53,287.63Z"></path><polygon class="cls-50" points="250.5 279.15 246.83 283.15 254.02 289.17 257.69 285.17 250.5 279.15"></polygon><path class="cls-51" d="M252.46,219.9s7.27,2.26,12.34,14.81c0,0,14.37,26.78-8.15,52.93l-9.82-7.39s9.53-17,8.9-26.48a14.75,14.75,0,0,0-8.9-12.6Z"></path><path class="cls-52" d="M241.38,193.88s-.95,2.34-8.37,2.52a27.59,27.59,0,0,1-12.09-2.16s3.27,8.5,12.68,8C240.77,202,241.38,193.88,241.38,193.88Z"></path><path class="cls-53" d="M234.22,182.13s2.47,3,2.31,4.46-3.42,2.22-3.42,2.22,4-.15,4.85-1.51C238.66,186.23,234.22,182.13,234.22,182.13Z"></path><path class="cls-53" d="M240.93,173c-.62,1-.68,5.69,0,5s3-2.28,4.33-2.39a6.56,6.56,0,0,1,3.1.91l1.61-1.7s1.84-2.2,1.62-2.58C250.66,170.64,242.3,170.85,240.93,173Z"></path><path class="cls-54" d="M242,177.79a3.1,3.1,0,1,0,3.47-2.33A3,3,0,0,0,242,177.79Z"></path><path class="cls-55" d="M251.69,172.38a14.21,14.21,0,0,0-6.2-.77,26.88,26.88,0,0,0-4.56,1.62.91.91,0,0,1-.08-1.43C241.59,170.93,249.4,168.41,251.69,172.38Z"></path><path class="cls-54" d="M240.63,178.36s1.72-2.75,4.51-3.13,4,2.35,4,2.35a6,6,0,0,0-4.56-.88A9.72,9.72,0,0,0,240.63,178.36Z"></path><path class="cls-52" d="M245.67,177.12a.65.65,0,0,0,.58.71.65.65,0,0,0,.77-.51.69.69,0,0,0-1.35-.2Z"></path><path class="cls-53" d="M223.19,171.43c5.52-.1,5.11.14,5.28,1s-1,5.72-1,5.72-2-2.21-4.15-2.36a8.6,8.6,0,0,0-5.36,1.71s-3-4.41-3-5.81C214.91,171.24,223.19,171.43,223.19,171.43Z"></path><path class="cls-55" d="M214.7,171.79s4.83-2.23,9.11-1.68c3.71.48,4.41.68,4.57,1.32s.51,1.81-.65,1.26S218.45,170.9,214.7,171.79Z"></path><path class="cls-54" d="M227.73,178.38a6.62,6.62,0,0,0-5.08-2.68,7,7,0,0,0-5.56,2.47,8.81,8.81,0,0,1,5.62-1.19A13.73,13.73,0,0,1,227.73,178.38Z"></path><path class="cls-54" d="M226.1,178.92a3.12,3.12,0,1,1-3.24-2.68A3,3,0,0,1,226.1,178.92Z"></path><path class="cls-52" d="M223.65,177.79a.66.66,0,0,0,.72.59.63.63,0,1,0-.06-1.25A.67.67,0,0,0,223.65,177.79Z"></path><path class="cls-53" d="M217.92,194.49a3.73,3.73,0,0,1-.22-1.81,2.24,2.24,0,0,1,1.21-1.69,2.85,2.85,0,0,1,2-.19,3.71,3.71,0,0,1,1.63.82c-.62.08-1.18.09-1.7.13a4.11,4.11,0,0,0-1.35.33,2,2,0,0,0-.86.88c-.11.22-.21.46-.31.72A2.92,2.92,0,0,1,217.92,194.49Z"></path><path class="cls-44" d="M156.24,278.37c-1.11,1.26-3.29,3-5.53,5.49A33.3,33.3,0,0,0,145,292.5c-1.22,2.93-1.36,5.57-.31,7.5s3.29,3.16,4.5,3.05,1.38-1.56,1.9-3.14a18.09,18.09,0,0,1,2.35-4.59c.93-1.3,1.91-2.2,2.47-2.16s.7,1,.15,2.16-1.81,2.45-2,3.23.63,1,1.81.49a8.3,8.3,0,0,0,3.53-3.41,12.4,12.4,0,0,0,1.09-5,12.73,12.73,0,0,1,.72-4.31c.56-1.31,4.4-6,3.87-7.77s-5.46-.65-6.54-1.43S157.35,277.11,156.24,278.37Z"></path><polygon class="cls-50" points="165.27 280.17 163.9 283.7 154.43 279.21 156.61 276.2 165.27 280.17"></polygon><path class="cls-51" d="M154.43,276.8l13.32,6s12.15-31.92,36.34-45.07l3-21s-16.15,3.66-32,22.91S154.43,276.8,154.43,276.8Z"></path><path class="cls-53" d="M197.34,179a3.51,3.51,0,0,1-1.74.05,2.16,2.16,0,0,1-1.5-1.3,2.78,2.78,0,0,1,0-1.89,3.53,3.53,0,0,1,.92-1.47c0,.59,0,1.12,0,1.62a3.9,3.9,0,0,0,.19,1.31,1.89,1.89,0,0,0,.76.9,5.58,5.58,0,0,0,.65.36A3.25,3.25,0,0,1,197.34,179Z"></path><path class="cls-56" d="M127.8,427.62c-1.16-.71-2.47.15-2.93,1.94s.11,3.8,1.26,4.51,2.47-.16,2.93-1.94a6,6,0,0,0,.13-.72l-2,.29a.37.37,0,0,1-.25-.06.77.77,0,0,1-.31-.49,1.05,1.05,0,0,1,.25-1l.33-.29a.94.94,0,0,0,.29-.51l.43-1.63Z"></path><path class="cls-57" d="M127,434.32h2.8c.89,0,1.74-.83,2.09-2.19a6,6,0,0,0,.13-.72h-2.79a6,6,0,0,1-.13.72C128.71,433.49,127.86,434.32,127,434.32Z"></path><path class="cls-56" d="M129.62,431.35a.82.82,0,0,0,.58-.66l.36-1.38h2.79l-.36,1.38a.82.82,0,0,1-.57.66l-.44.06h-2.79Z"></path><path class="cls-58" d="M128,427.71l-.43,1.64a.94.94,0,0,1-.29.51l-.33.29a1.05,1.05,0,0,0-.25,1,.77.77,0,0,0,.31.49.37.37,0,0,0,.25.06l2-.29.43-.06a.82.82,0,0,0,.58-.66l.36-1.38Z"></path><path class="cls-56" d="M91,427.62c-1.15-.71-2.46.15-2.93,1.94s.11,3.8,1.26,4.51,2.47-.16,2.93-1.94a6,6,0,0,0,.13-.72l-2,.29a.37.37,0,0,1-.25-.06.81.81,0,0,1-.31-.49,1.08,1.08,0,0,1,.25-1l.33-.29a.94.94,0,0,0,.29-.51l.43-1.63Z"></path><path class="cls-57" d="M90.2,434.32H93c.89,0,1.74-.83,2.09-2.19a4.54,4.54,0,0,0,.13-.72H92.42a6,6,0,0,1-.13.72C91.94,433.49,91.09,434.32,90.2,434.32Z"></path><path class="cls-56" d="M92.86,431.35a.81.81,0,0,0,.57-.66l.36-1.38h2.79l-.36,1.38a.81.81,0,0,1-.57.66l-.44.06H92.42Z"></path><path class="cls-58" d="M91.18,427.71l-.43,1.64a.94.94,0,0,1-.29.51l-.33.29a1.08,1.08,0,0,0-.25,1,.81.81,0,0,0,.31.49.37.37,0,0,0,.25.06l2-.29.44-.06a.81.81,0,0,0,.57-.66l.36-1.38Z"></path><path class="cls-56" d="M72.32,416.36c-1.16-.71-2.47.16-2.93,1.94s.1,3.8,1.26,4.51,2.46-.16,2.92-1.94a3.64,3.64,0,0,0,.13-.72l-2,.29a.39.39,0,0,1-.25-.06.76.76,0,0,1-.3-.49,1.06,1.06,0,0,1,.24-1l.34-.29a1,1,0,0,0,.29-.51l.42-1.63Z"></path><path class="cls-57" d="M71.48,423.06h2.79c.9,0,1.74-.83,2.1-2.19a6,6,0,0,0,.13-.72H73.7a3.64,3.64,0,0,1-.13.72C73.22,422.23,72.38,423.06,71.48,423.06Z"></path><path class="cls-56" d="M74.14,420.09a.82.82,0,0,0,.58-.66l.35-1.38h2.79l-.35,1.38a.82.82,0,0,1-.58.66l-.43.06H73.7Z"></path><path class="cls-58" d="M72.46,416.45,72,418.09a1,1,0,0,1-.29.51l-.34.29a1.06,1.06,0,0,0-.24,1,.76.76,0,0,0,.3.49.39.39,0,0,0,.25.06l2-.29.44-.06a.82.82,0,0,0,.58-.66l.35-1.38Z"></path><polygon class="cls-59" points="135.04 332.34 137.92 332.34 137.55 333.55 134.66 333.56 135.04 332.34"></polygon><path class="cls-59" d="M131.47,333.56h-3.79l.31-1a1.09,1.09,0,0,1,.09-.23h3.77Z"></path><path class="cls-59" d="M78.73,416l23.37-76c1.3-4.2,5-7.62,8.22-7.62h13.94l-.38,1.24H111.47c-3.24,0-6.92,3.41-8.22,7.62l-23.37,76c-.73,2.38-.28,3.16.84,4.3l-.07,0-1.4-.86C78.2,419.63,78,418.22,78.73,416Z"></path><path class="cls-59" d="M141.65,332.56a1.66,1.66,0,0,0,.06-.21h3.76l-.37,1.2h-3.75Z"></path><path class="cls-60" d="M135.51,330.81a16.9,16.9,0,0,0,1.92-.33,2.2,2.2,0,0,1,.5-.06H138a1,1,0,0,1,.21,1l-.29.94H135Z"></path><path class="cls-60" d="M130.09,330.82a2.88,2.88,0,0,1,1.37-.4,1.76,1.76,0,0,1,.46.06l.47.11-.54,1.75h-3.77A5,5,0,0,1,130.09,330.82Z"></path><path class="cls-60" d="M139.39,328.57h0l-1.88-1.16a7.11,7.11,0,0,0-.82-.44l.06-.19h.1a3.77,3.77,0,0,1,2,.54l6.86,4.22-.25.8h-3.76C142,331,141,329.53,139.39,328.57Z"></path><path class="cls-60" d="M68.16,407.65l22.52-73.24c1.29-4.21,5-7.62,8.22-7.62h32c-2.85.89-5.82,2.84-6.37,4.61l-.28.93H110.32c-3.24,0-6.92,3.42-8.22,7.62L78.73,416c-.69,2.26-.53,3.67.52,4.65l1.4.86-11-6.74C67.86,413.61,67.17,410.86,68.16,407.65Z"></path><path class="cls-61" d="M159,345c1.61,0,2.4,1.69,1.76,3.78L138.27,422c-.64,2.08-2.47,3.77-4.08,3.77H96.24c-1.6,0-2.39-1.69-1.75-3.77L117,348.78c.64-2.09,2.47-3.78,4.07-3.78h4.13c.82,0,1.21.86.89,1.92l-.68,2.21c-.33,1.06.07,1.93.89,1.93h23.78a2.61,2.61,0,0,0,2.07-1.93l.68-2.21a2.57,2.57,0,0,1,2.07-1.92Z"></path><path class="cls-58" d="M140.09,332.56l-.79,2.56v0h0v0h0v0h0v0h0v0h0v0h0v0h.1l-1.88-1.16c-.1-.06-.13-.19-.08-.36l.79-2.56a1,1,0,0,0-.21-1,1.64,1.64,0,0,1,1.05.39C139.61,331.29,140.33,331.77,140.09,332.56Z"></path><path class="cls-58" d="M158.89,296.7h0l-1.06-.65h0C158.51,296.05,158.54,296.48,158.89,296.7Z"></path><path class="cls-58" d="M155.36,296.7h0l-1.06-.65h0C155,296.05,155,296.48,155.36,296.7Z"></path><path class="cls-58" d="M151.82,296.7h0l-1.06-.65h0C151.44,296.05,151.47,296.48,151.82,296.7Z"></path><path class="cls-58" d="M148.29,296.7h0l-1.06-.65h0C147.91,296.05,147.94,296.48,148.29,296.7Z"></path><polygon class="cls-57" points="162.14 292.6 162.14 292.6 162.14 292.6 162.14 292.6"></polygon><path class="cls-57" d="M141.4,295.58h0v0l.86-3.88c0,.13.1.33.38.57a3,3,0,0,0,1.54.69h17.75c.25,0,.32-.13.22-.32a1.28,1.28,0,0,1,0,.89l-.84,2.74a.78.78,0,0,1-.62.58h-1.33a.87.87,0,0,1-.48-.12c-.35-.22-.38-.65-1-.65h0c-.87,0-1.11.77-2,.77a.87.87,0,0,1-.48-.12c-.35-.22-.38-.65-1.05-.65h0c-.87,0-1.11.77-2,.77a.93.93,0,0,1-.49-.12c-.35-.22-.38-.65-1-.65h0c-.88,0-1.12.77-2,.77a.93.93,0,0,1-.49-.12c-.35-.22-.38-.65-1-.65h0c-.87,0-1.11.77-2,.77h-1.92a3,3,0,0,1-1.54-.69C141.51,295.91,141.38,295.71,141.4,295.58Z"></path><path class="cls-58" d="M161.93,292.93H144.18a3,3,0,0,1-1.54-.69c-.28-.24-.41-.44-.38-.57s.1-.12.25-.12H160a3.89,3.89,0,0,1,1.84.69,1.47,1.47,0,0,1,.33.36h0C162.25,292.8,162.18,292.93,161.93,292.93Z"></path><path class="cls-56" d="M130.39,345.48c.35,0,.6-.05.65-.19l.73-2.39h10.44l-.46,1.49c-.08.26.51.67,1.31.92s1.52.23,1.6,0l2.41-7.83,5.08,3.13a.21.21,0,0,1,.09.24l-1.74,5.66a.58.58,0,0,1-.13.23l0,0a.19.19,0,0,1-.07.06l0,0h0l-.12,0H130.2l0,0-.05-.05h0v0a.14.14,0,0,1,0-.07v-.1s0-.06,0-.1l1.11-3.59h0Z"></path><polygon class="cls-58" points="133.68 336.72 144.12 336.72 142.21 342.9 131.78 342.9 133.68 336.72"></polygon><polygon class="cls-58" points="131.18 342.9 131.31 342.49 131.18 342.9 131.18 342.9"></polygon><path class="cls-58" d="M129.68,339.36l1.9,1.14a.53.53,0,0,1,.11.09.53.53,0,0,0-.11-.09l-5.9-3.55a.12.12,0,0,1,.07-.23h4.75Z"></path><path class="cls-58" d="M123,336h0a.25.25,0,0,0,.12.23l7.17,4.41a.22.22,0,0,1,.09.24l-2.16,7c-.16.53,0,1,.45,1H128c-.41,0-.61-.43-.4-1.14l2.09-6.79-6.61-4.06a.26.26,0,0,1-.12-.22h0Z"></path><path class="cls-57" d="M128.18,347.84l2.16-7a.22.22,0,0,0-.09-.24l-7.17-4.41A.25.25,0,0,1,123,336a.24.24,0,0,1,.25-.22h7.59l-.3,1h-4.75a.12.12,0,0,0-.07.23l5.9,3.55a.53.53,0,0,1,.11.09l0,.06a.42.42,0,0,1,0,.33l-.46,1.51-.13.41-1.11,3.59s0,.07,0,.1v.1a.14.14,0,0,0,0,.07v0h0l.05.05,0,0h19.89l.12,0h0l0,0a.19.19,0,0,0,.07-.06l0,0a.58.58,0,0,0,.13-.23l1.74-5.66a.21.21,0,0,0-.09-.24l-5.08-3.13.22-.69,6.2,3.73a.42.42,0,0,1,.18.48l-2.1,6.86a1.29,1.29,0,0,1-1,1h-21.9C128.22,348.8,128,348.37,128.18,347.84Z"></path><polygon class="cls-57" points="133.99 335.73 144.43 335.73 144.12 336.72 133.68 336.72 133.99 335.73"></polygon><path class="cls-62" d="M145.24,296.82a1.52,1.52,0,0,0,.86-.29L134,335.73l-.31,1-1.91,6.18-.73,2.39c0,.14-.3.21-.65.19l.79-2.58.13-.41.46-1.51a.42.42,0,0,0,0-.33l0-.06a.53.53,0,0,0-.11-.09l-1.9-1.14.82-2.64.3-1,12.06-39a1.77,1.77,0,0,0,.46.09Z"></path><path class="cls-58" d="M136.69,327a7.11,7.11,0,0,1,.82.44l1.88,1.16h0a7.78,7.78,0,0,0-2.87-1Z"></path><path class="cls-58" d="M123.75,334l.79-2.56c.73-2.38,5.84-5.08,9.18-5.09l-.47,1.51c-3,.8-6.25,2.87-6.83,4.74l-.79,2.56v0h0v0h0v0h0v0h0v0h0v0h0v0h.1l-1.88-1.16A.31.31,0,0,1,123.75,334Z"></path><path class="cls-57" d="M136.52,327.53a7.78,7.78,0,0,1,2.87,1c1.64,1,2.7,2.56,2.26,4l-.78,2.56a.52.52,0,0,1-.42.38h-1a.2.2,0,0,1-.11,0h-.09v0h0v0h0v0h0v0h0v0h0v0h0v0l.79-2.56c.24-.79-.48-1.27-1-1.74a1.64,1.64,0,0,0-1.05-.39h-.07a2.2,2.2,0,0,0-.5.06,16.9,16.9,0,0,1-1.92.33Z"></path><path class="cls-57" d="M125.61,335.25h0v0h0v0h0v0h0v0h0v0l.79-2.56c.58-1.87,3.84-3.94,6.83-4.74l-.86,2.77-.47-.11a1.76,1.76,0,0,0-.46-.06,2.88,2.88,0,0,0-1.37.4c-.85.47-1.86.95-2.1,1.74l-.79,2.56a.51.51,0,0,1-.41.38h-1a.17.17,0,0,1-.1,0h-.1v0h0Z"></path><path class="cls-62" d="M147.07,337.46l-2.41,7.83c-.08.25-.8.26-1.6,0s-1.39-.66-1.31-.92l.46-1.49,1.91-6.18.31-1,12.07-39.08c.42-.23.73-.6,1.33-.6l1.06.65h0a.87.87,0,0,0,.48.12h.26l-12.34,39.95Z"></path><path class="cls-59" d="M148.39,333.19l1,.63.16.1a3.85,3.85,0,0,0-1.29-.36Z"></path><path class="cls-60" d="M144.43,335.73H134l.67-2.17h2.89l-.13.41c0,.17,0,.3.08.36l1.88,1.16h0a.2.2,0,0,0,.11,0h1a.52.52,0,0,0,.42-.38l.48-1.57h3.75l-.67,2.18Z"></path><path class="cls-60" d="M153.67,341a.42.42,0,0,0-.18-.48l-6.2-3.73h0l1-3.21a3.85,3.85,0,0,1,1.29.36l-.16-.1,12.81,7.88a3.74,3.74,0,0,0-2-.54h-6.6Z"></path><path class="cls-63" d="M95.06,429.64H133c3.25,0,6.93-3.42,8.22-7.62l22.52-73.24c1.29-4.21-.29-7.62-3.53-7.62h-6.6l-2.05,6.68a1.29,1.29,0,0,1-1,1H128c-.41,0-.61-.43-.4-1.14l2-6.5h-7.33c-3.25,0-6.93,3.41-8.22,7.62L91.53,422C90.24,426.22,91.82,429.64,95.06,429.64ZM94.49,422,117,348.78c.64-2.08,2.46-3.78,4.07-3.78h4.13c.82,0,1.21.86.89,1.93l-.68,2.2c-.33,1.06.07,1.93.89,1.93h23.78a2.61,2.61,0,0,0,2.07-1.93l.68-2.2a2.57,2.57,0,0,1,2.07-1.93H159c1.61,0,2.4,1.7,1.76,3.78L138.27,422c-.64,2.08-2.47,3.77-4.08,3.77H96.24C94.64,425.79,93.85,424.1,94.49,422Z"></path><path class="cls-60" d="M79.88,417.21l23.37-76c1.3-4.21,5-7.62,8.22-7.62h12.41l-.13.39a.31.31,0,0,0,.08.36l1.88,1.15a.17.17,0,0,0,.1,0h1a.51.51,0,0,0,.41-.38l.48-1.56h3.79l-.67,2.17h-7.59a.24.24,0,0,0-.25.22h0v.64h0a.26.26,0,0,0,.12.22l6.61,4.06-.09.29h-7.33c-3.25,0-6.93,3.41-8.22,7.62L91.53,422c-1,3.21-.3,6,1.52,7.08l-12.33-7.59C79.6,420.37,79.15,419.59,79.88,417.21Z"></path><path class="cls-44" d="M160.44,290.62a12.4,12.4,0,0,1-1.09,5,8.3,8.3,0,0,1-3.53,3.41c-1.18.53-2,.29-1.81-.49s1.45-2.09,2-3.23a2.15,2.15,0,0,0,0-2.31c-.51-.82-2.52-3.06-3.45-1.76,0,0-.12-1.33,2.51-2.93S160.44,290.62,160.44,290.62Z"></path><polygon class="cls-64" points="410.58 259.27 420.09 258.21 418.19 261.02 410.58 259.27"></polygon><polygon class="cls-65" points="420.55 259.8 403.91 258.41 368.79 259.8 368.79 272.34 420.55 272.34 420.55 259.8"></polygon><path class="cls-64" d="M404.06,258.42h-.15l-35.12,1.39v12.54h31.08C399.94,266,401.5,263,404.06,258.42Z"></path><path class="cls-66" d="M399.87,272.34a40.6,40.6,0,0,1,4.19-13.92h-.15l-18,.72C393.6,261.18,398.93,267,399.87,272.34Z"></path><polygon class="cls-65" points="413.2 263.41 424.94 264.7 420.28 265.6 413.2 263.41"></polygon><polygon class="cls-64" points="410.37 265.44 398.63 264.14 401.83 262.63 410.37 265.44"></polygon><polygon class="cls-64" points="369.02 269.35 377.63 265.79 366.69 267.08 369.02 269.35"></polygon><polygon class="cls-64" points="369.31 262.2 378.62 260.22 365.86 261.06 369.31 262.2"></polygon><polygon class="cls-65" points="412.6 267.86 424.44 268.04 419.94 269.37 412.6 267.86"></polygon><path class="cls-8" d="M398.87,258.74a10.32,10.32,0,1,0-16.34.67Z"></path><g class="cls-67"><polygon class="cls-35" points="393.57 258.91 393.49 258.82 394.7 257.66 392.79 257 393.68 255.8 393.77 255.87 392.99 256.94 394.92 257.61 393.57 258.91"></polygon><polygon class="cls-35" points="395.54 258.81 393.26 257.78 394.06 256.65 391.85 255.81 391.89 255.69 394.25 256.59 393.44 257.73 395.59 258.7 395.54 258.81"></polygon><polygon class="cls-35" points="388.35 259.13 386.9 257.94 388.77 257.11 387.9 256.12 387.99 256.04 388.97 257.15 387.13 257.97 388.42 259.03 388.35 259.13"></polygon><polygon class="cls-35" points="386.38 259.19 386.32 259.09 388.38 257.94 387.48 256.87 389.77 255.79 389.82 255.9 387.67 256.91 388.57 257.98 386.38 259.19"></polygon><polygon class="cls-35" points="388.48 255.95 388.12 255.61 388.17 255.55 388.47 255.84 388.84 255.43 389.24 255.81 389.61 255.39 390.02 255.78 390.39 255.36 390.79 255.74 391.16 255.33 391.56 255.71 391.93 255.3 392.34 255.68 392.71 255.26 393.11 255.65 393.45 255.26 393.51 255.32 393.11 255.76 392.71 255.38 392.34 255.79 391.94 255.41 391.57 255.83 391.17 255.44 390.8 255.86 390.39 255.48 390.02 255.89 389.62 255.51 389.25 255.92 388.85 255.54 388.48 255.95"></polygon><polygon class="cls-35" points="389.65 255.86 389.26 255.52 388.9 255.89 388.51 255.55 388.05 255.91 388 255.84 388.51 255.44 388.9 255.78 389.26 255.41 389.64 255.75 390 255.38 390.39 255.72 390.75 255.35 391.19 255.69 391.55 255.31 391.95 255.65 392.32 255.28 392.73 255.62 393.08 255.25 393.62 255.61 393.58 255.68 393.09 255.36 392.73 255.73 392.32 255.39 391.96 255.76 391.55 255.42 391.2 255.79 390.76 255.46 390.4 255.83 390.01 255.49 389.65 255.86"></polygon><polygon class="cls-35" points="389.82 252.66 389.42 252.27 389.47 252.21 389.82 252.54 390.13 252.16 390.52 252.51 390.87 252.13 391.25 252.48 391.61 252.1 392.02 252.48 391.96 252.54 391.61 252.21 391.26 252.59 390.87 252.24 390.52 252.63 390.14 252.28 389.82 252.66"></polygon><polygon class="cls-35" points="389.49 252.66 389.43 252.61 389.82 252.17 390.19 252.49 390.53 252.15 390.9 252.46 391.24 252.12 391.61 252.43 391.93 252.11 391.98 252.17 391.61 252.54 391.24 252.22 390.9 252.57 390.53 252.25 390.19 252.6 389.82 252.28 389.49 252.66"></polygon><path class="cls-35" d="M391.39,253.86l1.31.31-.12.12h.18l.1-.11a.06.06,0,0,0,0-.06s0,0,0,0l-1.31-.32.73-.79a.06.06,0,0,0,0-.08s-.06,0-.09,0l-.8.87s0,0,0,.06A.08.08,0,0,0,391.39,253.86Z"></path><path class="cls-35" d="M391.1,253l1.23.43-.63.87h.15l.63-.85a.13.13,0,0,0,0-.06s0,0,0,0l-1.31-.45a.07.07,0,0,0-.08,0A.06.06,0,0,0,391.1,253Z"></path><path class="cls-35" d="M388.81,254.45H389l-.12-.11,1.27-.42,0,0s0-.05,0-.06l-.87-.8a.06.06,0,0,0-.08,0,.07.07,0,0,0,0,.09l.79.73-1.27.42a.07.07,0,0,0,0,.05,0,0,0,0,0,0,0Z"></path><path class="cls-35" d="M389.71,254.41h.15l-.7-.82,1.2-.53s0,0,0-.08a.07.07,0,0,0-.08,0l-1.27.57s0,0,0,0,0,0,0,.05Z"></path><path class="cls-35" d="M389.58,251.88l0,0s0,0,0-.05l.86-.58-.56-.66a0,0,0,0,1,0,0l0,0,.58-.47-.51-.61a0,0,0,0,1,0-.05l.48-.59-.45-.55s0,0,0-.05l.43-.47-.44-.5a0,0,0,0,1,0-.06l.41-.49-.39-.46s0,0,0-.06,0,0,.06,0l.42.49a0,0,0,0,1,0,0l-.41.49.44.5a.06.06,0,0,1,0,.06l-.43.46.45.55a0,0,0,0,1,0,.05l-.49.59.52.62s0,0,0,0v0l-.59.48.56.66s0,0,0,0l0,0-.9.6Z"></path><path class="cls-35" d="M390.51,251.84h0l-.73-.66s0,0,0,0a0,0,0,0,1,0,0l.69-.53-.52-.57a0,0,0,0,1,0,0l.55-.58-.5-.59a0,0,0,0,1,0,0l.47-.51-.46-.52s0,0,0-.05l.4-.46-.39-.48a0,0,0,0,1,0,0l.4-.59a0,0,0,0,1,.05,0s0,0,0,0l-.37.57.39.47a0,0,0,0,1,0,.06l-.4.45.47.53a0,0,0,0,1,0,0l-.48.51.5.59a0,0,0,0,1,0,0L390,250l.51.56s0,0,0,0l0,0-.68.54.7.62a.06.06,0,0,1,0,.06Z"></path><path class="cls-35" d="M391.75,251.79h0l-.94-.52s0,0,0,0a0,0,0,0,1,0,0l.5-.71-.63-.42a0,0,0,0,1,0,0s0,0,0,0l.47-.65-.53-.55a0,0,0,0,1,0-.05l.41-.58-.47-.43a0,0,0,0,1,0-.06l.4-.54-.45-.45a0,0,0,0,1,0,0l.37-.52s0,0,.06,0,0,0,0,0l-.35.5.44.45a0,0,0,0,1,0,0l-.4.54.47.43a0,0,0,0,1,0,.05l-.4.59.53.54a0,0,0,0,1,0,.05l-.46.66.63.42,0,0v0l-.5.71.9.5s0,0,0,.06Z"></path><path class="cls-35" d="M390.83,251.83h0a0,0,0,0,1,0-.06l.65-.68-.73-.48v0l.48-.61-.59-.53a0,0,0,0,1,0-.06l.45-.62-.52-.47a0,0,0,0,1,0,0l.42-.56-.44-.42s0,0,0-.06l.35-.51-.42-.53a0,0,0,0,1,0,0s0,0,.05,0l.44.56s0,0,0,0l-.35.51.44.42a0,0,0,0,1,0,.06l-.42.56.51.46a0,0,0,0,1,0,.05l-.44.63.59.53s0,0,0,.06l-.47.6.73.48,0,0a0,0,0,0,1,0,0l-.68.72Z"></path><path class="cls-35" d="M394,255.3l-6.42.26,0-1.08,6.41-.26Zm-6.3.14,6.17-.26,0-.84-6.18.26Z"></path><line class="cls-35" x1="387.99" y1="254.53" x2="388.02" y2="255.48"></line><rect class="cls-35" x="387.94" y="254.53" width="0.12" height="0.96" transform="matrix(1, -0.04, 0.04, 1, -10.22, 16.28)"></rect><line class="cls-35" x1="388.33" y1="254.51" x2="388.37" y2="255.47"></line><rect class="cls-35" x="388.29" y="254.51" width="0.12" height="0.96" transform="translate(-10.22 16.3) rotate(-2.37)"></rect><line class="cls-35" x1="388.68" y1="254.5" x2="388.72" y2="255.45"></line><rect class="cls-35" x="388.64" y="254.5" width="0.12" height="0.96" transform="translate(-10.22 16.31) rotate(-2.37)"></rect><line class="cls-35" x1="389.03" y1="254.48" x2="389.07" y2="255.44"></line><rect class="cls-35" x="388.99" y="254.48" width="0.12" height="0.96" transform="matrix(1, -0.04, 0.04, 1, -10.22, 16.32)"></rect><line class="cls-35" x1="389.38" y1="254.47" x2="389.42" y2="255.43"></line><rect class="cls-35" x="389.34" y="254.47" width="0.12" height="0.96" transform="translate(-10.22 16.34) rotate(-2.37)"></rect><line class="cls-35" x1="389.73" y1="254.46" x2="389.77" y2="255.41"></line><rect class="cls-35" x="389.69" y="254.46" width="0.12" height="0.96" transform="translate(-10.22 16.35) rotate(-2.37)"></rect><line class="cls-35" x1="390.08" y1="254.44" x2="390.12" y2="255.4"></line><rect class="cls-35" x="390.04" y="254.44" width="0.12" height="0.96" transform="translate(-10.22 16.37) rotate(-2.37)"></rect><line class="cls-35" x1="390.43" y1="254.43" x2="390.47" y2="255.38"></line><rect class="cls-35" x="390.39" y="254.43" width="0.12" height="0.96" transform="translate(-10.22 16.38) rotate(-2.37)"></rect><line class="cls-35" x1="390.78" y1="254.41" x2="390.82" y2="255.37"></line><rect class="cls-35" x="390.74" y="254.41" width="0.12" height="0.96" transform="translate(-10.22 16.4) rotate(-2.37)"></rect><line class="cls-35" x1="391.13" y1="254.4" x2="391.17" y2="255.35"></line><rect class="cls-35" x="391.09" y="254.4" width="0.12" height="0.96" transform="translate(-10.22 16.41) rotate(-2.37)"></rect><line class="cls-35" x1="391.48" y1="254.38" x2="391.52" y2="255.34"></line><rect class="cls-35" x="391.44" y="254.38" width="0.12" height="0.96" transform="translate(-10.22 16.43) rotate(-2.37)"></rect><line class="cls-35" x1="391.83" y1="254.37" x2="391.87" y2="255.32"></line><rect class="cls-35" x="391.79" y="254.37" width="0.12" height="0.96" transform="translate(-10.21 16.44) rotate(-2.37)"></rect><line class="cls-35" x1="392.17" y1="254.35" x2="392.21" y2="255.31"></line><rect class="cls-35" x="392.13" y="254.35" width="0.12" height="0.96" transform="translate(-10.21 16.45) rotate(-2.37)"></rect><line class="cls-35" x1="392.52" y1="254.34" x2="392.56" y2="255.3"></line><rect class="cls-35" x="392.48" y="254.34" width="0.12" height="0.96" transform="translate(-10.21 16.47) rotate(-2.37)"></rect><line class="cls-35" x1="392.87" y1="254.33" x2="392.91" y2="255.28"></line><rect class="cls-35" x="392.83" y="254.33" width="0.12" height="0.96" transform="translate(-10.21 16.48) rotate(-2.37)"></rect><line class="cls-35" x1="393.22" y1="254.31" x2="393.26" y2="255.27"></line><rect class="cls-35" x="393.18" y="254.31" width="0.12" height="0.96" transform="translate(-10.21 16.5) rotate(-2.37)"></rect><line class="cls-35" x1="393.57" y1="254.3" x2="393.61" y2="255.25"></line><rect class="cls-35" x="393.53" y="254.3" width="0.12" height="0.96" transform="translate(-10.21 16.51) rotate(-2.37)"></rect><rect class="cls-35" x="389.7" y="245.79" width="1.45" height="0.32" transform="translate(-9.85 16.37) rotate(-2.37)"></rect><rect class="cls-35" x="389.91" y="245.66" width="1.03" height="0.32" transform="translate(-9.84 16.37) rotate(-2.37)"></rect><polygon class="cls-35" points="390.18 245.91 390.33 243.56 390.67 245.89 390.18 245.91"></polygon><path class="cls-35" d="M391.12,252.92h0l-.81,0h0a8.66,8.66,0,0,1-.46,1.48H390a8,8,0,0,0,.44-1.4l.6,0a9.06,9.06,0,0,0,.55,1.37h.14A8.46,8.46,0,0,1,391.12,252.92Z"></path><path class="cls-35" d="M390.44,246.26v0c0,.68.09,3.43.08,4.33,0,1.4-.13,1.38-.13,1.4H391s-.11,0-.24-1.37C390.64,249.7,390.49,246.94,390.44,246.26Z"></path><path class="cls-35" d="M393.78,255.74l-5.88.24.25-.56,5.33-.22Zm-5.69.11,5.49-.23-.16-.3-5.19.22Z"></path><path class="cls-35" d="M388.67,254.47c.17-.41.34-.85.49-1.29l.16-.42c.55-1.52.85-2.36.68-6.58l.87,0c.18,4.23.56,5,1.23,6.51.06.12.12.26.18.4.2.43.4.85.6,1.25H393c-.21-.41-.42-.84-.62-1.29-.06-.14-.12-.28-.18-.4-.67-1.47-1-2.27-1.22-6.52V246l-1.12,0v.06c.17,4.25-.13,5.08-.68,6.59q-.07.19-.15.42c-.16.46-.33.91-.51,1.34Z"></path><path class="cls-35" d="M395.68,258.77a33.14,33.14,0,0,1-2.16-3.51h-.13a36.84,36.84,0,0,0,2.13,3.48l-2,.09v-.1a2.48,2.48,0,0,0-2.8-2.37,2.17,2.17,0,0,0-2.22,2.58v.1l-2,.08c.21-.37,1-1.79,1.83-3.65h-.13a37.43,37.43,0,0,1-1.86,3.67l-.06.1,2.4-.1v-.06a.92.92,0,0,1,0-.16,2.09,2.09,0,0,1,2.11-2.45,2.38,2.38,0,0,1,2.67,2.26V259l2.39-.09Z"></path><path class="cls-35" d="M393.72,258.89a2.69,2.69,0,0,0-3.11-2.8c-1.84.08-2.52,1.31-2.44,3l.36,0c0-.05,0-.1,0-.15a2.13,2.13,0,0,1,2.15-2.52,2.4,2.4,0,0,1,2.7,2.32v.15Z"></path><polygon class="cls-35" points="391.91 252.12 389.44 252.22 389.56 251.84 391.76 251.75 391.91 252.12"></polygon><path class="cls-35" d="M392.37,253l-3.31.13.19-.5,2.87-.12Zm-3.13,0,2.93-.12-.12-.25-2.71.12Z"></path></g><path class="cls-52" d="M392.26,244.14a5.48,5.48,0,0,1,3,.68,7.56,7.56,0,0,1,2.42,2,8.12,8.12,0,0,1,1.43,2.75,7.82,7.82,0,0,1,.3,1.5,8.56,8.56,0,0,1,0,1.52c-.28-.44-.48-.88-.7-1.31s-.44-.84-.69-1.24a18.85,18.85,0,0,0-1.52-2.25A16.21,16.21,0,0,0,392.26,244.14Z"></path><path class="cls-26" d="M438.52,405.33s-18.37-3.67-24.67,9.71l-2-2.76s5.59-16.65,27-8.18Z"></path><path class="cls-26" d="M437.28,403.65s-12.21,14.2-3.64,26.26l-3.41.42s-11.77-13.05,6.14-27.57Z"></path><path class="cls-27" d="M441.84,400s-12.21,14.21-3.65,26.27l-3.4.42s-11.77-13.05,6.14-27.57Z"></path><path class="cls-26" d="M438,402.07s-17.59,6.46-16,21.16l-3.18-1.29s-3.92-17.13,18.79-21.09Z"></path><path class="cls-26" d="M437.22,403.61s-13.65-12.83-26.07-4.82l-.27-3.42s13.56-11.17,27.27,7.37Z"></path><path class="cls-26" d="M436.35,401.5s-8.19-16.85-22.66-13.78l1-3.29s16.65-5.62,22.86,16.59Z"></path><path class="cls-26" d="M439.21,402.26s10-15.84,24-11.19l-.6-3.38s-15.93-7.42-24.56,13.95Z"></path><path class="cls-26" d="M442.3,401.42s17-7.82,26.25,3.73l1.34-3.15s-9.29-14.91-28.19-1.7Z"></path><path class="cls-26" d="M437.59,403.54s15,11.19,9.32,24.83l3.41-.34s8.62-15.31-12-25.55Z"></path><path class="cls-27" d="M437.18,403.06s8,16.94-3.45,26.29l3.18,1.31s14.8-9.46,1.39-28.21Z"></path><path class="cls-26" d="M435.9,401.87s4.09,18.28-9.14,24.89l2.81,2s16.52-6,7.55-27.22Z"></path><path class="cls-27" d="M436.19,402s13.11,13.39,5.34,26l3.42.2s10.91-13.78-7.9-27.12Z"></path><path class="cls-26" d="M439.84,402.48s17.89,5.54,17.05,20.3l3.11-1.46s3-17.3-19.86-20.08Z"></path><path class="cls-26" d="M440.07,400.59s18.31-4,24.83,9.31l2-2.79s-5.86-16.56-27.16-7.74Z"></path><path class="cls-26" d="M438,402s0-18.74,14.37-22.29L450,377.12s-17.43,2.21-13.33,24.9Z"></path><path class="cls-27" d="M438.47,398.6s-3.47-18.41,10-24.57L445.71,372s-16.72,5.41-8.47,26.94Z"></path><path class="cls-27" d="M438.25,401.62s6.22-17.68,20.94-16.27l-1.33-3.17S440.68,378.5,437,401.27Z"></path><path class="cls-27" d="M437.84,403.31s-16.18,9.44-12,23.63l-3.36-.71s-6.85-16.18,14.82-24.05Z"></path><path class="cls-27" d="M435.5,402.43s-.87-18.72-15.38-21.61l2.19-2.64s17.51,1.41,14.46,24.26Z"></path><path class="cls-27" d="M435.18,399s-14.68-11.64-26.39-2.61l-.55-3.39s12.57-12.27,27.79,5.05Z"></path><path class="cls-27" d="M440.14,401.58s14.28-12.13,26.29-3.49l.44-3.41s-13-11.84-27.61,6Z"></path><path class="cls-27" d="M436.3,403.45s-16.91-8.06-26.31,3.36l-1.29-3.18s9.5-14.77,28.21-1.3Z"></path><path class="cls-27" d="M437.4,402.9s18.56-2.51,24,11.23l2.2-2.63s-4.54-17-26.47-9.85Z"></path><path class="cls-27" d="M436.56,396.73l.95-3.61-.05,4.77,3.5-5.6s-2.88,7.06-2.75,6.94l2.71-2.11-1.28,3.13,5.5-3.61-5.25,3.67s7,1.27,6.9,1.23-8.7.94-8.7.94l4.63,2.17-5.09-1,2.16,3.54-3.4-4.19-1.2,2.83.24-2-4.2-.88,3.65-1-3.34-2.29,4.27.45-4.47-4.17,3.88,2.42-2.32-5.76Z"></path><path class="cls-27" d="M436.79,402.8s17.56,6.54,15.89,21.23l3.19-1.28s4-17.11-18.71-21.16Z"></path></g></g></g></svg> 