<?xml version="1.0" encoding="UTF-8"?> <svg xmlns="http://www.w3.org/2000/svg" id="Amy" viewBox="0 0 112.5 138.7"><defs><style>.cls-1{fill:#d4a634;}.cls-2{fill:#c43f6f;}.cls-3{fill:#dfb53f;}.cls-4{fill:#73ef31;}.cls-5{fill:#f2c3b4;}.cls-10,.cls-11,.cls-12,.cls-5{fill-rule:evenodd;}.cls-11,.cls-6{fill:#fff;}.cls-7{fill:#eabaad;}.cls-8{fill:#373737;}.cls-9{fill:#c3930e;}.cls-10{fill:#362847;}.cls-12{fill:#3d3458;}</style></defs><path class="cls-1" d="M-13,76a55.89,55.89,0,0,1-2.21,6c-2.93,6.9-5.58,14-5.51,21.48.05,4.87,1.26,9.69,1.05,14.55a25.17,25.17,0,0,1-6.89,16.14c9.3,1.75,19-1.08,27.17-5.88s15-11.47,21.83-18.07a14.81,14.81,0,0,1,.58,7c6.7-3.7,11.86-9.82,15.42-16.6s5.61-14.26,7.18-21.76a113.79,113.79,0,0,0,2.68-21.81,161.85,161.85,0,0,0-1.38-19.67C45.85,27.63,46.9,13,36.28,8.53,30.54,6.1,25.05,4.63,19.17,6.58,15.63,7.76,7.59,10.29.31,20.49c-7.37,8.94-7.26,20.24-8.66,31.74-.74,6.07-1.07,12.24-2.91,18.07Z"></path><path class="cls-2" d="M30.86,10.25c3-.2,6.34,1.5,6.94,4.44.52,2.53-1.15,5.1-3.36,6.43-3.31,2-10.09,3.68-11.69-1.13S26.45,10.53,30.86,10.25Z"></path><path class="cls-3" d="M24.7,85.28C28,88.76,37,93.25,42,92.64c1.17-.14,1.06-11.55,2-11.6S39.53,75.9,38.87,75c-.78.39-8.08.79-10.37.93a7.69,7.69,0,0,0,1.17-.29,4.27,4.27,0,0,0,1.71-.87,5,5,0,0,0,1-1.72A5,5,0,0,0,33,70.38a1,1,0,0,1-1.12,0,2.22,2.22,0,0,1-.72-1,8.57,8.57,0,0,1-.65-1.84c-.67-3.11,0-6.1.69-9.05.77-3.38-.93-7,.34-10.35,1.16,2.22.37,5,3,6.25a4,4,0,0,1,.37-3.8,7.89,7.89,0,0,1,3.15-2.56,18.47,18.47,0,0,1,7.31-2,57.24,57.24,0,0,1,6.92.32c5.42,9.12,12.49,17.22,22,21.63,0,0,4.93,4.51,6.9,2.16s8.16-3.85,10.82-21-14.15-31-14.15-31c-5.06-3.91-10.08-6.58-16.51-7.53-8.18-1.2-15.5.13-23.35,2-.69.15-1.38.31-2.07.5l-.3.09A41.93,41.93,0,0,0,21.9,20.4,36,36,0,0,0,10.43,36.59S.83,60.18,24.7,85.28Z"></path><path class="cls-3" d="M38.87,74.85c-.1,0-.09,0,0,.13C39,74.94,39,74.89,38.87,74.85Z"></path><path class="cls-4" d="M61.57,35.26a0,0,0,1,0,0-.09,0,0,0,0,0,0,.09Z"></path><path class="cls-5" d="M42,104.91c1.3-.16,3.32-.46,4.1-2s.32-4.34.1-6.46-.23-3.54.35-4.1,1.73-.25,4.14-.1a77.19,77.19,0,0,0,8.18,0c2.12-.12,2.71-.36,2.9.36a26.63,26.63,0,0,1-.06,4.51,17,17,0,0,0,.64,6.06c.63,1.48,1.79,1.93,3.56,2.08s4.15,0,4.7,1-.73,3-3,5.39a27.58,27.58,0,0,1-9.33,6.44c-3.8,1.49-8.16,1.88-11.28.22s-5-5.36-6-7.91-1.23-3.93-1-4.62S40.69,105.06,42,104.91Z"></path><path class="cls-5" d="M89.33,57C90,80.1,73.8,98.82,54.65,98.82,37.94,98.82,24,84.57,20.71,65.6a3.19,3.19,0,0,1-1.86.88c-1.24.14-3.15-.29-4.72-2.58a17.54,17.54,0,0,1-2.64-9.39c.16-3,1.71-4.71,3.36-4.75,3.13-.08,4.94,3.21,5.59,5.73.08.31,1.69,6.34,3.67,2.14.86-1.83,1.12-6.06,2.35-9.75a9.81,9.81,0,0,1,6.07-6.49c2.65-1.07,5.73-1.49,8-3.22s3.58-4.76,7.95-5.21,11.75,1.7,18.35,3.77C66.79,36.73,88.86,40.64,89.33,57Z"></path><path class="cls-6" d="M70.28,78.58s-1.12,2.75-9.85,3S46.22,79,46.22,79s3.84,10,14.91,9.47C69.57,88.07,70.28,78.58,70.28,78.58Z"></path><path class="cls-7" d="M61.86,64.76s2.9,3.56,2.71,5.24-4,2.62-4,2.62,4.68-.19,5.71-1.78C67.08,69.57,61.86,64.76,61.86,64.76Z"></path><path class="cls-7" d="M69.75,54c-.72,1.16-.8,6.7,0,5.89s3.49-2.68,5.09-2.81a7.65,7.65,0,0,1,3.64,1.08l1.9-2s2.17-2.59,1.91-3C81.19,51.24,71.36,51.49,69.75,54Z"></path><path class="cls-8" d="M71,59.65a3.65,3.65,0,1,0,4.08-2.74A3.48,3.48,0,0,0,71,59.65Z"></path><path class="cls-9" d="M82.41,53.29s-4-1.49-7.29-.91a32.66,32.66,0,0,0-5.37,1.9,1.06,1.06,0,0,1-.09-1.68C70.53,51.58,79.71,48.62,82.41,53.29Z"></path><path class="cls-8" d="M69.4,60.32s2-3.23,5.3-3.68,4.72,2.77,4.72,2.77a7.07,7.07,0,0,0-5.37-1A11.36,11.36,0,0,0,69.4,60.32Z"></path><path class="cls-6" d="M75.33,58.86a.8.8,0,1,0,.9-.6A.76.76,0,0,0,75.33,58.86Z"></path><path class="cls-7" d="M48.88,52.17c6.49-.12,6,.17,6.21,1.14S53.9,60,53.9,60s-2.42-2.6-4.89-2.77a10.14,10.14,0,0,0-6.31,2s-3.51-5.18-3.55-6.83C39.14,52,48.88,52.17,48.88,52.17Z"></path><path class="cls-9" d="M38.9,52.6s5.67-2.62,10.71-2c4.37.56,5.19.8,5.37,1.55s.61,2.13-.75,1.48S43.31,51.55,38.9,52.6Z"></path><path class="cls-8" d="M54.22,60.35a7.8,7.8,0,0,0-6-3.16A8.23,8.23,0,0,0,41.7,60.1a10.41,10.41,0,0,1,6.62-1.4A15.89,15.89,0,0,1,54.22,60.35Z"></path><path class="cls-8" d="M52.31,61a3.68,3.68,0,1,1-3.82-3.15A3.5,3.5,0,0,1,52.31,61Z"></path><path class="cls-6" d="M49.43,59.65a.81.81,0,1,0,.77-.77A.78.78,0,0,0,49.43,59.65Z"></path><path class="cls-7" d="M42.69,79.3a4.32,4.32,0,0,1-.27-2.14,2.64,2.64,0,0,1,1.43-2A3.33,3.33,0,0,1,46.17,75a4.41,4.41,0,0,1,1.91,1c-.73.1-1.39.11-2,.17a4.58,4.58,0,0,0-1.58.38,2.31,2.31,0,0,0-1,1,7.3,7.3,0,0,0-.37.84A3.69,3.69,0,0,1,42.69,79.3Z"></path><path class="cls-7" d="M18.48,61.09a4.15,4.15,0,0,1-2.05.06,2.55,2.55,0,0,1-1.76-1.54,3.25,3.25,0,0,1,0-2.22,4.25,4.25,0,0,1,1.09-1.73c0,.7,0,1.33,0,1.91A4.4,4.4,0,0,0,16,59.11a2.26,2.26,0,0,0,.89,1.06,7.83,7.83,0,0,0,.77.42A3.53,3.53,0,0,1,18.48,61.09Z"></path><path class="cls-10" d="M137.81,147.71q.81,6.87,1.63,13.73c-90.35,8.49-72.3-52.88-59.8-50.4C95.62,114.21,73.21,151.09,137.81,147.71Z"></path><path class="cls-11" d="M68,107.44h0a15.09,15.09,0,0,1-25.75,0H39.42v71.89H68Z"></path><path class="cls-10" d="M41.82,203H58.08c9.58,0,16.8-23.6,18.42-32.71l8.71-49.23c1.61-9.11-7.84-16.7-17.43-16.8l-4,0c6.61,33.27,4.14,35.69,0,70.91l-21.89.5c4-35.08,3.3-42,2.93-71.61l-6-.06c-9.58-.1-20.06,10.5-19.54,19.73l4.11,72.62C24,205.54,32.23,203,41.82,203Z"></path><path class="cls-12" d="M44.81,104l-12.36,9.8,1.8,18.44,7.47,1-7,3.49c1.19,12.19-1.2,15.45,13.25,21Z"></path><path class="cls-12" d="M63.64,104.18l13.28,6.34,1,19L70.71,132l7.44,2c.57,12.25,2.59,15.15-10.86,23.48Z"></path><path class="cls-10" d="M86.68,146.35l2,13.66C-1.39,171.17,15,109.29,27.51,111.4,43.58,114.1,22.2,151.62,86.68,146.35Z"></path></svg> 