<?xml version="1.0" encoding="UTF-8"?> <!-- Generator: Adobe Illustrator 24.1.0, SVG Export Plug-In . SVG Version: 6.00 Build 0) --> <svg xmlns="http://www.w3.org/2000/svg" xmlns:xlink="http://www.w3.org/1999/xlink" version="1.1" id="Layer_1" x="0px" y="0px" viewBox="0 0 512 511.5" style="enable-background:new 0 0 512 511.5;" xml:space="preserve"> <style type="text/css"> .st0{fill:#D6839A;} .st1{fill:#E99AAE;} .st2{fill:#ECAA9C;} .st3{fill:#FFE572;} .st4{fill:#F9B95A;} </style> <g> <g> <path class="st0" d="M25.4,361c-0.7,0-1.5,0-2.2-0.1c-10.2-1.1-18.5-8.2-21.8-18.6c-3.9-12.5,0.5-26.2,11.5-35.9 c21.5-18.7,58.3-15.1,82.7-12.7c4.2,0.4,7.3,4.2,6.9,8.4c-0.4,4.2-4.2,7.3-8.4,6.9c-21.8-2.1-54.7-5.4-71.2,9 c-6.5,5.7-9.1,13-7,19.8c1.4,4.5,4.7,7.5,8.9,8c2.1,0.2,4.6-0.8,6.3-2.6c0.7-0.7,2.2-2.5,1.9-4.6c-0.5-4.2,2.4-8,6.6-8.5 c4.2-0.5,8,2.4,8.5,6.6c0.8,6.1-1.5,12.4-6.2,17.2C37.6,358.4,31.5,361,25.4,361L25.4,361z M25.4,361"></path> </g> <path class="st1" d="M469.8,269.5c-9.7-45.8-40.2-84-81-104.3v-60.7c0-5.1-4.5-9.1-9.6-8.5c-29.3,3.9-53.2,25.3-60.6,53.4h-96 c-83.7,0-153.6,68.5-153.3,152.3c0.1,48.7,23.2,92,59,119.7c0.5,21.9,2.9,44,5.3,60.9c2.3,16.8,16.7,29.3,33.7,29.3 c17,0,31.3-12.5,33.7-29.3c1.2-8.8,2.5-19.1,3.5-30.1c5.5,0.6,11.1,0.9,16.8,0.9h100.3c3.9,0,7.8-0.2,11.6-0.4 c0.9,10.5,2.1,20.3,3.3,28.9c2.3,16.9,16.6,29.9,33.6,30c17.1,0.1,31.5-12.4,33.9-29.3c2.2-15.9,4.5-36.4,5.1-57 c22.9-16.2,41.1-38.5,52.2-64.6c1.1-2.6,3.7-4.3,6.5-4.3h29.6c8.2,0,14.9-6.7,14.9-14.9v-57.1c0-8.2-6.7-14.9-14.9-14.9H469.8z M469.8,269.5"></path> <path class="st0" d="M411.1,260.4c-4.2,0-7.6-3.4-7.6-7.6v-17.3c0-4.2,3.4-7.6,7.6-7.6c4.2,0,7.6,3.4,7.6,7.6v17.3 C418.8,256.9,415.3,260.4,411.1,260.4L411.1,260.4z M411.1,260.4"></path> <path class="st2" d="M332.9,452.6"></path> <path class="st2" d="M124.7,367.9"></path> <path class="st3" d="M297.2,136.4c0,22.7-12,42.7-30.1,53.7h-51.6c-1.1,0-2.1,0-3.2,0.1c-3.4,0.1-6.7,0.3-10,0.7 c-18.7-10.9-31.3-31.2-31.3-54.5c0-34.8,28.2-63.1,63.1-63.1C269,73.3,297.2,101.5,297.2,136.4L297.2,136.4z M297.2,136.4"></path> <path class="st4" d="M258.8,78.3c12.3,11.5,20,27.9,20,46c0,34.8-28.2,63.1-63.1,63.1c-8.7,0-17.1-1.8-24.6-5 c3.4,3.2,7.2,6.1,11.3,8.5c8.9-1,9.4-0.7,64.8-0.7C309.7,163.9,309.7,103.8,258.8,78.3L258.8,78.3z M258.8,78.3"></path> <path class="st0" d="M183.7,202.1c-3.4,0-6.4-2.2-7.4-5.6c-1.1-4.1,1.3-8.3,5.3-9.4c6.5-1.8,13.2-3.1,19.9-3.8 c3.6-0.4,7.1-0.6,10.6-0.7c1.1,0,2.3-0.1,3.4-0.1h80.8c4.2,0,7.6,3.4,7.6,7.6c0,4.2-3.4,7.6-7.6,7.6h-80.8c-1,0-1.9,0-2.9,0 c0,0-0.1,0-0.1,0c-3.1,0.1-6.2,0.3-9.4,0.6c-5.9,0.6-11.7,1.8-17.5,3.4C185,202,184.4,202.1,183.7,202.1L183.7,202.1z M183.7,202.1 "></path> <path class="st3" d="M157.9,63.1c0,34.8-28.2,63.1-63.1,63.1S31.8,97.9,31.8,63.1S60,0,94.9,0S157.9,28.2,157.9,63.1L157.9,63.1z M157.9,63.1"></path> <path class="st4" d="M119.5,5c12.3,11.5,20,27.9,20,46c0,34.8-28.2,63.1-63.1,63.1c-8.7,0-17.1-1.8-24.6-5 c11.3,10.6,26.4,17.1,43.1,17.1c34.8,0,63.1-28.2,63.1-63.1C157.9,37,142.1,14.6,119.5,5L119.5,5z M119.5,5"></path> </g> </svg> 