<?xml version="1.0" encoding="UTF-8"?> <!-- Generator: Adobe Illustrator 24.1.0, SVG Export Plug-In . SVG Version: 6.00 Build 0) --> <svg xmlns="http://www.w3.org/2000/svg" xmlns:xlink="http://www.w3.org/1999/xlink" version="1.1" id="Layer_1" x="0px" y="0px" viewBox="0 0 344.7 250.3" style="enable-background:new 0 0 344.7 250.3;" xml:space="preserve"> <style type="text/css"> .st0{fill:#CFD8DC;} .st1{fill:#AFBEC5;} .st2{fill-rule:evenodd;clip-rule:evenodd;fill:#90A4AE;} .st3{fill-rule:evenodd;clip-rule:evenodd;fill:#626261;} </style> <g> <g> <path class="st0" d="M201.6,55.2l-19.7,19.7c-0.9,0.9-1.1,2.4-0.3,3.5l10,14c-3,5.3-5.3,10.9-6.9,16.6l-17,2.8 c-1.3,0.2-2.3,1.3-2.3,2.7l0,27.9c0,1.3,1,2.5,2.3,2.7l16.9,2.8c1.6,5.7,3.9,11.3,6.9,16.6l-10,14c-0.8,1.1-0.6,2.5,0.3,3.5 l19.7,19.7c0.9,0.9,2.4,1.1,3.5,0.3l14-10c5.3,3,10.9,5.3,16.6,6.9l2.8,17c0.2,1.3,1.3,2.3,2.7,2.3l27.9,0c1.3,0,2.5-1,2.7-2.3 l2.8-16.9c5.7-1.6,11.3-3.9,16.6-6.9l14,10c1.1,0.8,2.5,0.6,3.5-0.3l19.7-19.7c0.9-0.9,1.1-2.4,0.3-3.5l-10-14 c3-5.3,5.3-10.9,6.9-16.6l17-2.8c1.3-0.2,2.3-1.3,2.3-2.7l0-27.9c0-1.3-1-2.5-2.3-2.7l-16.9-2.8c-1.6-5.7-3.9-11.3-6.9-16.6l10-14 c0.8-1.1,0.6-2.5-0.3-3.5l-19.7-19.7c-0.9-0.9-2.4-1.1-3.5-0.3l-14,10c-5.3-3-10.9-5.3-16.6-6.9l-2.8-17c-0.2-1.3-1.3-2.3-2.7-2.3 h-27.9c-1.3,0-2.5,1-2.7,2.3l-2.8,17c-5.7,1.6-11.3,3.9-16.6,6.9l-14-10C204,54.1,202.5,54.2,201.6,55.2L201.6,55.2z M280,103.5 c13.7,13.7,13.7,36,0,49.7c-13.7,13.7-36,13.7-49.7,0c-13.7-13.7-13.7-36,0-49.7C244,89.8,266.2,89.8,280,103.5L280,103.5z M280,103.5"></path> <path class="st1" d="M210.7,171.9c0.2,0.2,0.3,0.3,0.5,0.5c24.3,24.3,63.7,24.3,88,0c24.3-24.3,24.3-63.7,0-88 c-0.2-0.2-0.3-0.3-0.5-0.5c-24.3-23.8-63.4-23.7-87.5,0.5C187,108.5,186.8,147.6,210.7,171.9z M276.1,107.3 c11.6,11.6,11.6,30.5,0,42.1c-11.6,11.6-30.5,11.6-42.1,0c-11.6-11.6-11.6-30.5,0-42.1C245.7,95.7,264.5,95.7,276.1,107.3z"></path> <path class="st0" d="M230.2,153.2c13.7,13.7,36,13.7,49.7,0c13.7-13.7,13.7-36,0-49.7s-36-13.7-49.7,0 C216.5,117.2,216.5,139.5,230.2,153.2L230.2,153.2z M272.3,111.2c9.5,9.5,9.5,24.9,0,34.4s-24.9,9.5-34.4,0 c-9.5-9.5-9.5-24.9,0-34.4C247.4,101.7,262.8,101.7,272.3,111.2L272.3,111.2z M272.3,111.2"></path> </g> <g> <path class="st0" d="M36.1,16.4L16.4,36.1c-0.9,0.9-1.1,2.4-0.3,3.5l10,14c-3,5.3-5.3,10.9-6.9,16.6L2.3,73C1,73.2,0,74.4,0,75.7 l0,27.9c0,1.3,1,2.5,2.3,2.7l16.9,2.8c1.6,5.7,3.9,11.3,6.9,16.6l-10,14c-0.8,1.1-0.6,2.5,0.3,3.5l19.7,19.7 c0.9,0.9,2.4,1.1,3.5,0.3l14-10c5.3,3,10.9,5.3,16.6,6.9l2.8,17c0.2,1.3,1.3,2.3,2.7,2.3l27.9,0c1.3,0,2.5-1,2.7-2.3L109,160 c5.7-1.6,11.3-3.9,16.6-6.9l14,10c1.1,0.8,2.5,0.6,3.5-0.3l19.7-19.7c0.9-0.9,1.1-2.4,0.3-3.5l-10-14c3-5.3,5.3-10.9,6.9-16.6 l17-2.8c1.3-0.2,2.3-1.3,2.3-2.7l0-27.9c0-1.3-1-2.5-2.3-2.7L160,70.2c-1.6-5.7-3.9-11.3-6.9-16.6l10-14c0.8-1.1,0.6-2.5-0.3-3.5 l-19.7-19.7c-0.9-0.9-2.4-1.1-3.5-0.3l-14,10c-5.3-3-10.9-5.3-16.6-6.9l-2.8-17C106,1,104.9,0,103.5,0H75.7c-1.3,0-2.5,1-2.7,2.3 l-2.8,17c-5.7,1.6-11.3,3.9-16.6,6.9l-14-10C38.5,15.3,37,15.5,36.1,16.4L36.1,16.4z M114.5,64.7c13.7,13.7,13.7,36,0,49.7 c-13.7,13.7-36,13.7-49.7,0c-13.7-13.7-13.7-36,0-49.7C78.5,51,100.7,51,114.5,64.7L114.5,64.7z M114.5,64.7"></path> <path class="st1" d="M45.2,133.1c0.2,0.2,0.3,0.3,0.5,0.5c24.3,24.3,63.7,24.3,88,0s24.3-63.7,0-88c-0.2-0.2-0.3-0.3-0.5-0.5 c-24.3-23.8-63.4-23.7-87.5,0.5C21.5,69.8,21.3,108.8,45.2,133.1z M110.6,68.6c11.6,11.6,11.6,30.5,0,42.1s-30.5,11.6-42.1,0 C57,99,57,80.2,68.6,68.6S99,57,110.6,68.6z"></path> <path class="st0" d="M64.7,114.5c13.7,13.7,36,13.7,49.7,0c13.7-13.7,13.7-36,0-49.7c-13.7-13.7-36-13.7-49.7,0 C51,78.5,51,100.7,64.7,114.5L64.7,114.5z M106.8,72.4c9.5,9.5,9.5,24.9,0,34.4s-24.9,9.5-34.4,0c-9.5-9.5-9.5-24.9,0-34.4 C81.9,62.9,97.3,62.9,106.8,72.4L106.8,72.4z M106.8,72.4"></path> </g> <g> <circle class="st2" cx="255.1" cy="127.6" r="25.9"></circle> <path class="st3" d="M272.9,178.9v-48.2c0-10.4-8-19-17.8-19c-9.8,0-17.8,8.5-17.8,19v118.4l16.6,1.2l18.9-1.2V178.9z M272.9,178.9"></path> </g> <g> <circle class="st2" cx="89.6" cy="89.9" r="25.9"></circle> <path class="st3" d="M107.4,141.1V92.9c0-10.4-8-19-17.8-19c-9.8,0-17.8,8.5-17.8,19v140.6l17.5,7.7l18.1-7.7V141.1z M107.4,141.1 "></path> </g> </g> </svg> 