<?xml version="1.0" encoding="UTF-8"?> <!-- Generator: Adobe Illustrator 24.1.0, SVG Export Plug-In . SVG Version: 6.00 Build 0) --> <svg xmlns="http://www.w3.org/2000/svg" xmlns:xlink="http://www.w3.org/1999/xlink" version="1.1" id="Capa_1" x="0px" y="0px" viewBox="-797.4 -70.5 674.7 657.7" style="enable-background:new -797.4 -70.5 674.7 657.7;" xml:space="preserve"> <style type="text/css"> .st0{fill:#FFFFFF;} .st1{fill:#90A4AE;} .st2{fill:#AFBEC5;} .st3{fill:#FEC92A;} .st4{fill:#757575;} .st5{fill:#BDBCBC;} .st6{fill:#CFD8DC;} .st7{fill:#C63763;} .st8{fill:#788F9B;} .st9{fill:#CDD5D8;} .st10{fill:#99A1A4;} .st11{fill:#EAEFF2;} .st12{fill:#E0E5E7;} .st13{fill:#554F58;} .st14{fill:#556F7B;} .st15{fill:#455A64;} </style> <path class="st0" d="M-378.9,416.8c-0.1-0.4-0.1-0.7-0.2-1.1c0-0.3-0.1-0.5-0.2-0.8c-1.8-18-12.9-34.2-29.1-42.3 c-1-0.5-1.9-1-2.9-1.4c-0.1-0.1-0.3-0.1-0.4-0.2c-4.3-1.8-9-3.1-14-3.6c-1.4-0.2-2.8-0.3-4.1-0.4c2.9-6.7,4-14.1,2.8-21.7 c-0.1-0.4-0.1-0.9-0.2-1.3c-0.1-0.5-0.2-1.1-0.3-1.6c-1.7-11.3-7.3-22-15.7-29.8c-0.2-0.2-0.3-0.3-0.5-0.5c-0.3-0.3-0.7-0.7-1-1 c-15.6-14.3-38.9-18.7-59.8-4.6c-9.8,6.6-16,16-19,26.2c-5.9-14-16.6-25.7-30.4-32.6c-10.5-5.1-21.6-7.3-33.3-6.5 c-11.2,0.9-21.5,4.5-30.8,10.7c-0.8,0.5-1.6,0.9-2.3,1.3c-9.1,6.2-16,14.1-21,23.9c-1.8,3.6-3.2,7.3-4.2,11.1 c-6.7,0.4-13.2,1.8-19.8,4c-18.3,6.4-33.7,20-42.3,37.4c-6,12.4-8.6,25.4-7.6,39.1c1.5,19.5,10.7,37.5,25.2,50.5 c5,4.5,10.7,8.7,17,11.4c14.1,5.9,24,8.9,39.5,7.7c8.4-0.6,18-3.1,26.3-7c0.8,0.8,1.6,1.5,2.4,2.2c3.6,3.7,8.2,6.7,13,8.7 c12.6,5.2,17.6,6.4,31.3,6.2c3.5-0.1,7.1-0.9,10.6-1.9c7.9-1.4,15.2-4.3,21.9-8.8c4.7-3.2,8.9-7,12.4-11.4c0.2,0.2,0.4,0.4,0.7,0.6 c12.9,11.3,31.4,14.9,47.6,9.2c8.6-3,16.2-8.5,21.8-15.6c9.9,2.4,20.6,2.1,30.6-1.4C-393.9,464.6-374.6,440.4-378.9,416.8z"></path> <g> <g> <path class="st1" d="M-738.5,231.3c6.1,0,11.1-5,11.1-11.1V-56.2c0-7.9-6.4-14.2-14.2-14.2h-44.7v301.7H-738.5z"></path> <rect x="-768.5" y="-70.5" class="st2" width="14.7" height="281.8"></rect> </g> <g> <g> <g> <polygon class="st3" points="-727.1,136.9 -697.8,106.5 -697.8,49.6 -727.1,19.3 -756.5,19.3 -756.5,136.9 "></polygon> </g> </g> <g> <ellipse transform="matrix(0.387 -0.9221 0.9221 0.387 -535.6805 -649.6354)" class="st4" cx="-756.5" cy="78.1" rx="41" ry="41"></ellipse> <path class="st5" d="M-776.7,78.1c0,11.2,9.1,20.2,20.2,20.2c11.2,0,20.2-9.1,20.2-20.2c0-11.2-9.1-20.2-20.2-20.2 C-767.6,57.9-776.7,66.9-776.7,78.1z"></path> <path class="st4" d="M-766.8,78.1c0,5.7,4.7,10.4,10.4,10.4c5.7,0,10.4-4.7,10.4-10.4c0-5.7-4.7-10.4-10.4-10.4 C-762.2,67.7-766.8,72.4-766.8,78.1z"></path> </g> <rect x="-689.1" y="49.1" transform="matrix(-4.486449e-11 -1 1 -4.486449e-11 -746.9239 -590.7465)" class="st6" width="40.5" height="57.9"></rect> </g> <g> <path class="st7" d="M-434.2,64.7c-0.2,0-0.4,0-0.6-0.1c-6.3-0.7-12.7-0.7-19.2,0c-0.8,0.1-1.6,0.3-2.4,0.4c-2,0.3-3.9,0.6-5.9,1 c-1.3,0.3-2.6,0.5-3.8,0.8c-2.5,0.6-5,1.4-7.5,2.2c-1,0.4-2.1,0.8-3.1,1.2c-2.2,0.8-4.3,1.7-6.4,2.7c-0.6,0.3-1.3,0.6-1.9,0.9 c-2.7,1.4-5.3,2.9-7.9,4.5c-0.6,0.4-1.1,0.7-1.6,1.1c-0.7,0.5-1.4,0.9-2.1,1.4l0.1,0.1c-10.6,7.5-19.6,17.2-26.2,28.7 c-4.4,7.7-1.7,17.6,6,22c7.7,4.4,17.5,1.7,22-6c4.1-7.2,9.7-13.3,16.3-18c1.5-1.1,3.1-2.1,4.7-3.1c0.7-0.4,1.4-0.8,2.2-1.2 c2.2-1.2,4.4-2.2,6.7-3.1c0.1-0.1,0.3-0.1,0.4-0.2c2.6-1,5.4-1.8,8.1-2.3c0.3-0.1,0.5-0.1,0.8-0.1c2.2-0.4,4.5-0.7,6.8-0.9 c1.4-0.1,2.7-0.1,4.1-0.1c1.6,0,3.2,0,4.8,0.1c1.4,0.1,2.8,0.3,4.2,0.5c1.5,0.2,3,0.4,4.5,0.8c1.5,0.3,2.9,0.8,4.4,1.3 c1.3,0.4,2.7,0.8,4,1.3c1.5,0.6,2.9,1.3,4.4,2c1.2,0.6,2.4,1.2,3.6,1.9c2,1.2,3.9,2.4,5.7,3.8c0.2,0.2,0.4,0.3,0.6,0.5 c2.2,1.7,4.3,3.6,6.3,5.7c0.1,0.1,0.2,0.2,0.3,0.4c1.7,1.8,3.2,3.7,4.6,5.7c0.5,0.7,0.9,1.4,1.4,2.1c1,1.5,2,3.2,2.8,4.8 c3.8,7.2,6.1,15.1,6.7,23.3c0.6,8.9,8.2,15.6,17.1,15c8.9-0.6,15.6-8.2,15.1-17.1c-0.8-13.2-4.7-25.9-10.9-37.3l0.2,0 c-0.4-0.7-0.9-1.4-1.3-2.1c-0.3-0.6-0.7-1.1-1-1.7c-1.6-2.6-3.2-5.1-5.1-7.5c-0.4-0.6-0.9-1.1-1.3-1.6c-1.4-1.8-2.9-3.6-4.5-5.3 c-0.7-0.8-1.5-1.6-2.3-2.4c-1.8-1.8-3.7-3.6-5.7-5.3c-1-0.8-2-1.6-3.1-2.5c-1.6-1.2-3.2-2.4-4.8-3.5c-0.7-0.5-1.3-1-2-1.4 c-5.6-3.5-11.4-6.3-17.3-8.5c-0.2-0.1-0.4-0.2-0.6-0.2c-1.5-0.5-3-1-4.5-1.5c-0.7-0.2-1.4-0.4-2-0.6c-1.1-0.3-2.2-0.5-3.4-0.8 c-1.1-0.3-2.2-0.5-3.4-0.8c-0.7-0.1-1.4-0.2-2.1-0.3C-431.1,65.2-432.6,64.9-434.2,64.7z"></path> <circle class="st8" cx="-417" cy="86" r="18"></circle> </g> <g> <path class="st9" d="M-199,57.9h-232c-7.4,0-13.4,6-13.4,13.4v442.3c0,7.4,6,13.4,13.4,13.4h294.8c7.4,0,13.4-6,13.4-13.4V134.1 L-199,57.9z"></path> <path class="st10" d="M-178.2,134.1h55.4L-199,57.9v55.4C-199,124.8-189.7,134.1-178.2,134.1z"></path> <path class="st11" d="M-259.3,118.2h-232c-7.4,0-13.4,6-13.4,13.4v442.3c0,7.4,6,13.4,13.4,13.4h294.8c7.4,0,13.4-6,13.4-13.4 V194.4L-259.3,118.2z"></path> <path class="st12" d="M-242.2,194.4h59.1l-76.2-76.2v59.1C-259.3,186.7-251.7,194.4-242.2,194.4z"></path> <g> <path class="st9" d="M-454.1,298h120.1c2.1,0,3.8-3,3.8-6.7s-1.7-6.7-3.8-6.7h-120.1c-2.1,0-3.8,3-3.8,6.7S-456.1,298-454.1,298z "></path> <path class="st9" d="M-454.1,347.7h120.1c2.1,0,3.8-3,3.8-6.7s-1.7-6.7-3.8-6.7h-120.1c-2.1,0-3.8,3-3.8,6.7 S-456.1,347.7-454.1,347.7z"></path> <path class="st9" d="M-236.7,384.1h-214.4c-3.7,0-6.7,3-6.7,6.7s3,6.7,6.7,6.7h214.4c3.7,0,6.7-3,6.7-6.7S-233,384.1-236.7,384.1 z"></path> <path class="st9" d="M-451.1,248.2h214.4c3.7,0,6.7-3,6.7-6.7s-3-6.7-6.7-6.7h-214.4c-3.7,0-6.7,3-6.7,6.7 S-454.8,248.2-451.1,248.2z"></path> <path class="st9" d="M-236.7,433.9h-214.4c-3.7,0-6.7,3-6.7,6.7s3,6.7,6.7,6.7h214.4c3.7,0,6.7-3,6.7-6.7S-233,433.9-236.7,433.9 z"></path> <path class="st9" d="M-333.9,483.7h-120.1c-2.1,0-3.8,3-3.8,6.7c0,3.7,1.7,6.7,3.8,6.7h120.1c2.1,0,3.8-3,3.8-6.7 C-330.2,486.7-331.8,483.7-333.9,483.7z"></path> <path class="st9" d="M-333.9,533.4h-120.1c-2.1,0-3.8,3-3.8,6.7c0,3.7,1.7,6.7,3.8,6.7h120.1c2.1,0,3.8-3,3.8-6.7 C-330.2,536.4-331.8,533.4-333.9,533.4z"></path> </g> </g> <g> <path class="st7" d="M-487.9,218.7c-0.2-0.1-0.3-0.2-0.5-0.3c-5.3-3.4-10.3-7.5-14.9-12.1c-0.6-0.6-1.1-1.2-1.6-1.8 c-1.4-1.5-2.7-2.9-3.9-4.5c-0.8-1-1.7-2-2.4-3.1c-1.6-2.1-3-4.2-4.4-6.4c-0.6-0.9-1.1-1.9-1.7-2.9c-1.1-2-2.2-4-3.2-6.1 c-0.3-0.6-0.6-1.2-0.9-1.9c-1.2-2.8-2.3-5.6-3.2-8.5c-0.2-0.6-0.4-1.2-0.6-1.9c-0.2-0.8-0.5-1.6-0.8-2.4l0.2,0 c-3.4-12.5-4.3-25.7-2.2-38.8c1.5-8.8,9.8-14.7,18.5-13.2c8.8,1.5,14.7,9.8,13.2,18.5c-1.4,8.2-0.8,16.4,1.2,24.2 c0.5,1.8,1,3.6,1.7,5.3c0.3,0.8,0.6,1.6,0.9,2.3c1,2.3,2,4.5,3.2,6.6c0.1,0.1,0.1,0.3,0.2,0.4c1.4,2.4,3,4.7,4.8,6.9 c0.2,0.2,0.4,0.4,0.5,0.6c1.5,1.8,3,3.4,4.7,5c1,0.9,2,1.8,3.1,2.7c1.2,1,2.5,2.1,3.8,3c1.2,0.8,2.4,1.5,3.6,2.2 c1.3,0.8,2.6,1.6,4,2.2c1.4,0.7,2.8,1.2,4.2,1.8c1.3,0.5,2.6,1,3.9,1.5c1.5,0.5,3.1,0.8,4.7,1.2c1.3,0.3,2.6,0.6,4,0.8 c2.3,0.3,4.5,0.6,6.8,0.7c0.3,0,0.5,0,0.8,0c2.8,0.1,5.6-0.1,8.4-0.4c0.2,0,0.3-0.1,0.5-0.1c2.4-0.3,4.8-0.8,7.2-1.5 c0.8-0.2,1.6-0.5,2.4-0.7c1.8-0.6,3.5-1.2,5.2-1.9c7.4-3.2,14.3-7.8,19.9-13.9c6-6.5,16.2-6.9,22.7-0.9c6.5,6,6.9,16.2,0.9,22.7 c-9,9.7-20,17.1-32,22l0.1,0.1c-0.8,0.3-1.6,0.6-2.3,0.9c-0.6,0.2-1.2,0.5-1.8,0.7c-2.9,1-5.7,1.9-8.7,2.6c-0.7,0.2-1.4,0.3-2,0.4 c-2.3,0.5-4.5,0.9-6.8,1.2c-1.1,0.2-2.2,0.3-3.3,0.4c-2.6,0.3-5.2,0.4-7.8,0.5c-1.3,0-2.6,0-3.9,0c-2-0.1-4-0.2-6-0.4 c-0.8-0.1-1.6,0-2.4-0.1c-6.5-0.8-12.8-2.3-18.7-4.4c-0.2-0.1-0.4-0.1-0.6-0.2c-1.5-0.5-3-1.1-4.4-1.7c-0.7-0.3-1.3-0.5-2-0.8 c-1.1-0.5-2.1-1-3.1-1.5c-1-0.5-2.1-1-3.1-1.5c-0.6-0.3-1.2-0.7-1.9-1.1C-485.2,220.3-486.5,219.5-487.9,218.7z"></path> <circle class="st8" cx="-461.1" cy="213.1" r="18"></circle> </g> <g> <path class="st3" d="M-621.2,51.5l120.6,48.9c12.5,4.7,18.9,18.8,14.1,31.3l-3.2,8.5c-4.7,12.5-18.8,18.9-31.3,14.1l-120.6-48.9 c-12.5-4.7-18.9-18.8-14.1-31.3l3.2-8.5C-647.8,53.1-633.7,46.8-621.2,51.5z"></path> <path class="st13" d="M-575.5,93l40.4,18.5c2.9,1.1,4.4,4.4,3.3,7.3l-0.8,2c-1.1,2.9-4.4,4.4-7.3,3.3l-40.4-18.5 c-2.9-1.1-4.4-4.4-3.3-7.3l0.8-2C-581.7,93.4-578.4,91.9-575.5,93z"></path> <circle class="st8" cx="-512.2" cy="126.8" r="28.8"></circle> <circle class="st14" cx="-512.2" cy="126.8" r="21.1"></circle> <circle class="st15" cx="-512.2" cy="126.8" r="7.5"></circle> <circle class="st8" cx="-628.4" cy="80.2" r="31.2"></circle> <circle class="st14" cx="-628.4" cy="80.2" r="22.9"></circle> <circle class="st15" cx="-628.4" cy="80.2" r="8.1"></circle> </g> </g> </svg> 