<?xml version="1.0" encoding="UTF-8"?> <svg xmlns="http://www.w3.org/2000/svg" viewBox="0 0 112.5 138.7"><path d="m149.44 172.13q-.84 7.62-1.69 15.23c-1.55-.22-3.11-.44-7.74-1a51.86 51.86 0 0 1 -21.2-6.47c-8.88-5.08-19-14.35-23.45-21.44s-3.36-11.97-3.36-14.73-1-3.35-1.92-7.4-1.69-11.52-2.84-16.86-2.66-8.54-1.84-9.83 4-.69 9.23 6.44 12.6 20.79 17.59 30.4 7.64 15.17 13.45 18.77 14.78 5.25 23.77 6.89z" fill="#41414c" fill-rule="evenodd"></path><path d="m45.23 101.68h16.15v97.07h-16.15z" fill="#eeeaf5"></path><g fill-rule="evenodd"><path d="m65.93 105.13a5.24 5.24 0 0 1 -3.79-1.72c-1-1.32-1.16-3.71-1.26-5.51s-.1-3-.59-3.51-1.48-.21-3.54-.08a65.23 65.23 0 0 1 -7 0c-1.81-.1-2.31-.31-2.47.3s0 2.06-.19 3.65a11.93 11.93 0 0 1 -1.51 4.56 4.9 4.9 0 0 1 -3.3 2.38c-1.52.34-3.55.2-3.77 1s1.36 2.6 3.54 4.6 5 4.22 8 4.55 6.46-1.21 9.13-2.63a29.31 29.31 0 0 0 6-3.92 7.44 7.44 0 0 0 2.23-3c.13-.54-.41-.54-1.48-.67z" fill="#f2c3b4"></path><path d="m87.74 52.18c3.91-.58-2.12-7.13 1.85-11.92 4.66-5.63-4-9.6-6.23-15.26-3.06-7.7-10.7-9-19.9-7.7-7.61 1.11-10 .53-16.82 1.46s-9.44 2.06-12.7 4.93a52.36 52.36 0 0 1 -6.52 5.25c-1.69 1-5.37 1.15-6.16 6.56-.42 2.87-3.77.83-7.55 10.73-4.34 11.38 4.63 19.38 8.55 28.37 1.61 3.68 4.35 3.6 5.78 4.77 2.06 1.7 2.72 4 4.27 7.3 1.64 3.48 6.4 1.31 5.58-1.6s-3.42-7.17-4.26-11.87.08-9.84 1.51-14.63 3.37-9.23 9.45-11.86 16.29-3.44 24.59-1.27 14.66 7.33 18.56 6.74z" fill="#3a3232"></path><path d="m46.76 101.68h-1.53l.09 92.37h-35.76c0-27-11-80.36 20-87.57 6.28-1.46 9.91-.84 17-5.84.06.34.11.69.17 1zm53.88 61.6c1 .19 2.17.19 2.19-3.85a62.26 62.26 0 0 0 -3.65-19c-2.55-6.92-6.53-12.67-10-15.54l-.61-.48v-14.52a28.18 28.18 0 0 0 -3.19-1.26c-4.62-1.53-13.11-1.64-24-6.95l.1 92.37h33.85c-1.83-9.55-3.9-17.48-5.48-24.47-.39-2.71-1.08-6.69-1.33-10.45a39.42 39.42 0 0 1 .63-11c.52-1.72 1 1.45 2 3.49 1.66 3.08 5.85 10.95 9.49 11.66z" fill="#41414c"></path><path d="m59.17 128.6-3.03-9.42 4.68-4.68-6.77-6.78-6.78 6.78 4.62 4.62-3.24 9.48-.7 56.82 5.69 5.79 6.1-5.79z" fill="#84c944"></path><path d="m61.38 101.68-7.33 6q5.46 5.94 10.94 11.87-1.8-8.91-3.61-17.87z" fill="#fdfdfd"></path><path d="m46.31 100.83 7.74 6.89-10.95 11.87z" fill="#fdfdfd"></path><path d="m21.6 53.77c-1.47 0-2.84 1.6-3 4.23a15.61 15.61 0 0 0 2.4 8.36 4.51 4.51 0 0 0 4.21 2.29 2.87 2.87 0 0 0 1.65-.77c2.88 16.88 15.3 29.56 30.14 29.56 17 0 30.86-16.65 30.86-37.19a134.45 134.45 0 0 0 -.58-16.41c-1.22.61-3.4-5.14-4.75-4.93-4.57.7-9.12-.56-15-2.4s-9.3-2.72-13.19-2.32-9.07 1.66-11 3.2a22.55 22.55 0 0 1 -5.77 3.68c-2.35 1-5.84 5.22-6.94 8.51s0 9.57-.79 11.2c-1.76 3.74-3.19-1.63-3.26-1.9-.58-2.25-2.19-5.18-4.98-5.11z" fill="#f2c3b4"></path><path d="m46.59 100.64-11.42 4.8v32.17l7 2.46-7 3.63c0 16.65-2.57 20.68 10.64 30.35z" fill="#575761"></path><path d="m61.38 101.68 11.41 4.19v32.77l-7 2.47 7 3.63c0 16.64 1.8 20.81-11.41 30.48z" fill="#575761"></path><path d="m95.61 172.17q1.8 7.44 3.62 14.88c-1.54.33-3.07.66-7.6 1.74-13.34 3.16-35.73-3-47.9-10.08-9.16-5.33-17.83-14.63-21.86-25.71s-7.61-27.65-6.58-34.85 9.45-9.45 13.61-8.44 8.26 8.88 11.19 16.17c10.62 26.32 12.91 48.19 55.52 46.29z" fill="#41414c"></path></g><path d="m49.23 52.51c6.68-.12 6.19.17 6.39 1.16s-1.23 6.92-1.23 6.92-2.48-2.67-5-2.85a10.4 10.4 0 0 0 -6.49 2.06s-3.6-5.33-3.65-7c-.03-.53 9.98-.29 9.98-.29z" fill="#eabaad"></path><path d="m39 53s5.79-4 11-3.3c4.49.57 5.18 1.32 5.37 2.09s.82 3-.58 2.29-11.28-2.22-15.79-1.08z" fill="#2c2323"></path><path d="m54.39 60.59a7.14 7.14 0 0 0 -5.39-3.17 7.57 7.57 0 0 0 -6.16 2.38 9.61 9.61 0 0 1 6.16-1 14.73 14.73 0 0 1 5.39 1.79z" fill="#373737"></path><path d="m52.61 61.09a3.39 3.39 0 1 1 -3.38-3.09 3.23 3.23 0 0 1 3.38 3.09z" fill="#373737"></path><path d="m74 78.35s-1.15 2.83-10.13 3.05-14.61-2.61-14.61-2.61 4 10.27 15.33 9.73c8.64-.41 9.41-10.17 9.41-10.17z" fill="#fff"></path><path d="m65.2 63.66s4.27 5.23 4 7.7-5.92 3.86-5.92 3.86 6.88-.28 8.39-2.62c1.21-1.86-6.47-8.94-6.47-8.94z" fill="#eabaad"></path><path d="m67.68 54.71c-.75 1.18-.82 6.88 0 6s3.58-2.75 5.23-2.89a7.93 7.93 0 0 1 3.75 1.18l2-2.07s2.23-2.66 2-3.11c-1.22-1.98-11.33-1.73-12.98.89z" fill="#eabaad"></path><path d="m69 60.35a3.39 3.39 0 1 0 3.37-3.08 3.24 3.24 0 0 0 -3.37 3.08z" fill="#373737"></path><path d="m80.69 53.94s-4.12-1.53-7.5-.93a32.36 32.36 0 0 0 -5.51 2s-.93-2.55 0-3.59 10.24-2.28 13.01 2.52z" fill="#2c2323"></path><path d="m67.58 61.19s1.42-3.25 4.42-4.11 4.66 1.92 4.66 1.92a6.57 6.57 0 0 0 -5.07-.22 10.79 10.79 0 0 0 -4.01 2.41z" fill="#373737"></path><path d="m73.64 59.23a.74.74 0 1 0 .74-.68.71.71 0 0 0 -.74.68z" fill="#fff"></path><path d="m49.94 60.17a.74.74 0 1 0 .74-.68.71.71 0 0 0 -.74.68z" fill="#fff"></path><path d="m45.59 79.09a4.4 4.4 0 0 1 -.27-2.19 2.75 2.75 0 0 1 1.46-2.05 3.53 3.53 0 0 1 2.39-.22 4.49 4.49 0 0 1 2 1c-.74.1-1.42.11-2.05.17a4.88 4.88 0 0 0 -1.63.39 2.5 2.5 0 0 0 -1 1.07 7.11 7.11 0 0 0 -.37.87 4.06 4.06 0 0 1 -.53.96z" fill="#eabaad"></path><path d="m25.39 64.9a4.44 4.44 0 0 1 -2.21.07 2.74 2.74 0 0 1 -1.89-1.66 3.44 3.44 0 0 1 0-2.39 4.57 4.57 0 0 1 1.17-1.87v2.07a4.76 4.76 0 0 0 .23 1.65 2.42 2.42 0 0 0 1 1.14 7 7 0 0 0 .83.46 3.81 3.81 0 0 1 .87.53z" fill="#eabaad"></path><path d="m93.94 37.83a9.25 9.25 0 0 0 -2.94-6.21l-.22-.36a1.81 1.81 0 0 1 -.2-1.7 5.1 5.1 0 0 0 -.27-3.87 7.3 7.3 0 0 0 -4.13-4 1.83 1.83 0 0 1 -1.18-1.69 4.5 4.5 0 0 0 -1.66-3.62c-1.49-1.32-3.76-1.45-5.34-1.38a1.92 1.92 0 0 1 -2-1.22 6.15 6.15 0 0 0 -3.56-3.26 7.07 7.07 0 0 0 -6.45.39 1.94 1.94 0 0 1 -2.15-.19 16.36 16.36 0 0 0 -3.54-1.93c-3.09-1.33-6.18.36-7.76 1.49a1.9 1.9 0 0 1 -2 .15 14.16 14.16 0 0 0 -4.54-1.13c-3.4-.43-5.94 2-7.24 3.65a1.93 1.93 0 0 1 -2.28.56 6.7 6.7 0 0 0 -5.46.36c-5.62 2.54-4.36 8.74-4.36 8.74-2.15-.1-5.31 0-6.95 3.42a16 16 0 0 0 -1.42 3.78 1.94 1.94 0 0 1 -1.49 1.54 7.1 7.1 0 0 0 -5.14 3.93 6.09 6.09 0 0 0 -.55 4.83 1.88 1.88 0 0 1 -.65 2.15c-1.26.93-2.93 2.52-3.21 4.55a4.46 4.46 0 0 0 1.11 3.81 1.85 1.85 0 0 1 .24 2.08 7.33 7.33 0 0 0 -.51 5.68 5.15 5.15 0 0 0 2.29 3.09 1.91 1.91 0 0 1 1.06 1.83 9.22 9.22 0 0 0 1.84 6.63 8.48 8.48 0 0 0 4.72 2.89 1.94 1.94 0 0 1 1.51 1.34 9.12 9.12 0 0 0 2.87 4.59 7.83 7.83 0 0 0 4 1.7 2 2 0 0 1 1.62 1.23c.47 1.24.17 3 3.38 4.09h.09a1.21 1.21 0 0 0 1.26-2.06l-.4-.31a7.31 7.31 0 0 1 -2.78-4.28s0-.08 0-.12a10.33 10.33 0 0 0 -2.16-5.41c-2-2.27-2.16-2-2.16-2s-3.68-2.73-4.92-5.62a10 10 0 0 1 -.9-4.15 1.81 1.81 0 0 0 -.51-1.28c-1.42-1.52-4.91-5.75-2.8-8.76a95.41 95.41 0 0 0 5.55-9.8c.11.2.21.38.31.53a6.71 6.71 0 0 0 -.24 1.11 4.52 4.52 0 0 0 -1.21 1.13 1.93 1.93 0 0 0 .86 2.91l.38.15a2 2 0 0 1 1 .91c.07.15.15.29.22.42a1.06 1.06 0 0 1 -.29 1.39 1.06 1.06 0 0 0 .9 1.87c2.3-.53 5.21 0 5.83 5.68.1.94 3.33-.39 5.06-3.22a6.23 6.23 0 0 0 .53-4.12 1.92 1.92 0 0 1 1.79-2.24c1.06-.06.46-.4 2.18-1.34a5.91 5.91 0 0 0 2.51-2.27 2 2 0 0 1 2.65-.79 11 11 0 0 0 3.79 1.33c2.58.39 4.66-1.21 5.85-2.45a1.88 1.88 0 0 1 2.41-.23 10.47 10.47 0 0 0 4 1.57c2.16.38 4.36-1.1 5.78-2.36a1.9 1.9 0 0 1 2.57.09 7.81 7.81 0 0 0 3.63 1.8 8.79 8.79 0 0 0 7.35-1.37l.12-.1.25-.23a2 2 0 0 1 2.57 0l.16.12a2.06 2.06 0 0 1 .67 2.4 8.9 8.9 0 0 0 -.73 3.44c0 1.91 1.46 3.43 2.53 4.29a1.89 1.89 0 0 1 .63 2.06c-.21.65-.48 1.56-.8 2.79-.45 1.71.33 4.32 1.08 6.27a1.92 1.92 0 0 0 3.31.47 11.08 11.08 0 0 0 1.29-2.32 7.59 7.59 0 0 0 -.12-5.31 1.93 1.93 0 0 1 .41-2 8 8 0 0 0 1.91-3.9 9.17 9.17 0 0 0 -.79-5.35 1.9 1.9 0 0 1 .22-2 8.43 8.43 0 0 0 1.72-5.28z" fill="#3a3232"></path></svg> 