<?xml version="1.0" encoding="UTF-8"?> <svg xmlns="http://www.w3.org/2000/svg" id="Dean" viewBox="0 0 112.5 138.7"><defs><style>.cls-1{fill:#2c2323;}.cls-1,.cls-2,.cls-3,.cls-5,.cls-6,.cls-7{fill-rule:evenodd;}.cls-2{fill:#f2c3b4;}.cls-3{fill:#5e6872;}.cls-4{fill:#eeeaf5;}.cls-5{fill:#5f98ca;}.cls-6{fill:#fdfdfd;}.cls-7{fill:#778087;}.cls-8{fill:#eabaad;}.cls-9{fill:#0f0a0a;}.cls-10{fill:#373737;}.cls-11{fill:#fff;}</style></defs><path class="cls-1" d="M27.48,61.51c.76-1.58,1-6.43,2.09-9.6A8.52,8.52,0,0,1,35,46.34c2.34-.92,5.08-1.28,7-2.76s3.18-4.09,7-4.48,10.41,1.46,16.26,3.24,11,3.48,15.54,2.81a14.66,14.66,0,0,0,10.76-8.23,23.56,23.56,0,0,0,1.72-15.34c-1.16-4.92-4.08-8.83-5.33-9.33s-.84,2.43-3.11,3.8-7.24,1.19-12.81-1.3S60.35,7.45,53,6.37,37.2,7.94,32.84,10.55s-4.27,7.08-5.62,8A41.4,41.4,0,0,0,22.14,22c-2,1.73-2.33,3.36-3.75,8.3s-1.18,12.41-.79,19.16c.58,10.16,6.09,8.67,8.9,16.13s5,15.24,9,18.27,5.64,2.2,6,.52-8.4-1.63-10.19-5.25-3.36-8.56-5.14-10.74-3.75-1.6-5.15-1.78a3.89,3.89,0,0,1-2.91-2.44,12.85,12.85,0,0,1-1.33-4.51,6.11,6.11,0,0,1,.78-4.06A2.17,2.17,0,0,1,20.62,55c1.18.78,2.33,2.71,3.56,4.53S26.71,63.08,27.48,61.51Z"></path><path class="cls-2" d="M19.27,53.52c-1.46,0-2.83,1.55-3,4.08a14.67,14.67,0,0,0,2.33,8.07,4.57,4.57,0,0,0,4.19,2.21,2.92,2.92,0,0,0,1.65-.75c2.9,16.28,15.27,28.52,30.08,28.52,17,0,30.74-16.06,30.74-35.87a127.21,127.21,0,0,0-.58-15.84,13,13,0,0,1-3.86,1.21c-4.55.67-9.69-1-15.54-2.81S52.92,38.72,49.05,39.1s-5.08,3-7,4.48-4.71,1.84-7,2.76a8.52,8.52,0,0,0-5.38,5.57c-1.09,3.17-1.33,6.8-2.09,8.37-1.76,3.61-3.18-1.56-3.25-1.83C23.65,56.28,22,53.46,19.27,53.52Z"></path><path class="cls-3" d="M149,171.62l-1.68,15.23c-1.56-.22-3.11-.44-7.74-1a51.82,51.82,0,0,1-21.2-6.47c-8.89-5.08-19-14.36-23.46-21.45s-3.41-12-3.38-14.74-1-3.36-1.93-7.4S87.94,124.29,86.8,119s-2.66-8.54-1.84-9.83,4-.69,9.23,6.44,12.6,20.79,17.59,30.4,7.63,15.17,13.45,18.77S140,170,149,171.62Z"></path><rect class="cls-4" x="44.82" y="101.17" width="16.15" height="97.07"></rect><path class="cls-2" d="M65.52,104.62a5.24,5.24,0,0,1-3.79-1.72c-1-1.32-1.16-3.71-1.26-5.51s-.1-3-.6-3.51-1.48-.21-3.53-.08-5.17.13-7,0-2.31-.31-2.48.3,0,2.06-.19,3.64a11.65,11.65,0,0,1-1.51,4.56,4.86,4.86,0,0,1-3.29,2.39c-1.52.34-3.55.2-3.77,1s1.36,2.6,3.53,4.6,5,4.22,8,4.55,6.46-1.21,9.12-2.63a29.14,29.14,0,0,0,6-3.92,7.44,7.44,0,0,0,2.23-3C67.12,104.75,66.63,104.75,65.52,104.62Z"></path><path class="cls-3" d="M46.34,101.17H44.82l.09,92.36H9.14c0-27-11-80.35,20-87.56,6.29-1.46,9.92-.84,17-5.84.06.34.12.69.17,1Zm53.89,61.6c1,.19,2.17.19,2.19-3.85a62.56,62.56,0,0,0-3.65-19c-2.55-6.92-6.53-12.67-10-15.54q-.3-.25-.6-.48V109.38A29.75,29.75,0,0,0,85,108.12c-4.62-1.53-13.12-1.64-24-7l.09,92.36H94.91c-1.82-9.54-3.9-17.47-5.47-24.47-.39-2.7-1.09-6.68-1.33-10.45a38.57,38.57,0,0,1,.63-11c.52-1.73,1,1.45,2,3.49C92.39,154.19,96.61,162.06,100.23,162.77Z"></path><polygon class="cls-5" points="58.76 128.09 55.73 118.67 60.41 113.99 53.63 107.21 46.86 113.99 51.48 118.61 48.24 128.09 47.53 184.91 53.23 190.7 59.32 184.91 58.76 128.09"></polygon><path class="cls-6" d="M61,101.17l-7.33,6,10.95,11.87Q62.77,110.13,61,101.17Z"></path><path class="cls-6" d="M45.9,100.32l7.73,6.89q-5.46,5.94-10.94,11.87Z"></path><path class="cls-7" d="M46.17,100.13l-11.41,4.79v32.17l7,2.47-7,3.63c0,16.64-2.58,20.68,10.63,30.35Z"></path><path class="cls-7" d="M61,101.17l11.42,4.19v32.77l-7,2.47,7,3.63c0,16.64,1.79,20.81-11.42,30.48Z"></path><path class="cls-3" d="M95.19,171.66l3.63,14.88c-1.54.33-3.08.66-7.61,1.74-13.33,3.16-35.72-3-47.89-10.08-9.16-5.33-17.84-14.63-21.86-25.75s-7.61-27.65-6.59-34.85,9.46-9.45,13.62-8.44,8.26,8.88,11.19,16.17C50.29,151.69,52.6,173.56,95.19,171.66Z"></path><path class="cls-8" d="M46,50.09c6.84-.13,6.34.17,6.54,1.19s-1.25,7.09-1.25,7.09-2.55-2.74-5.15-2.93a10.68,10.68,0,0,0-6.65,2.12s-3.7-5.47-3.74-7.2C35.73,49.85,46,50.09,46,50.09Z"></path><path class="cls-9" d="M35.48,50.53s5.93-4.05,11.24-3.37c4.6.58,5.31,1.35,5.51,2.13s.83,3-.6,2.35S40.12,49.43,35.48,50.53Z"></path><path class="cls-10" d="M51.29,58.37a7.36,7.36,0,0,0-5.5-3.25,7.75,7.75,0,0,0-6.3,2.44,9.8,9.8,0,0,1,6.3-1A15.22,15.22,0,0,1,51.29,58.37Z"></path><path class="cls-10" d="M49.45,58.88A3.47,3.47,0,1,1,46,55.73,3.31,3.31,0,0,1,49.45,58.88Z"></path><path class="cls-11" d="M71.34,76.57S70.16,79.47,61,79.7,46,77,46,77,50,87.56,61.7,87C70.59,86.58,71.34,76.57,71.34,76.57Z"></path><path class="cls-8" d="M62.37,61.51s4.37,5.36,4.09,7.9-6.07,4-6.07,4,7.06-.29,8.61-2.69C70.23,68.77,62.37,61.51,62.37,61.51Z"></path><path class="cls-8" d="M64.91,52.34c-.77,1.22-.85,7,0,6.21s3.66-2.82,5.36-3a8.07,8.07,0,0,1,3.84,1.14l2-2.12s2.29-2.73,2-3.19C77,49.4,66.6,49.66,64.91,52.34Z"></path><path class="cls-10" d="M66.25,58.12A3.47,3.47,0,1,0,69.7,55,3.31,3.31,0,0,0,66.25,58.12Z"></path><path class="cls-9" d="M78.24,51.55S74,50,70.56,50.6a33.2,33.2,0,0,0-5.65,2s-1-2.6,0-3.67S75.4,46.63,78.24,51.55Z"></path><path class="cls-10" d="M64.8,59s1.45-3.33,4.48-4.22,4.83,1.95,4.83,1.95a6.73,6.73,0,0,0-5.2-.22A11,11,0,0,0,64.8,59Z"></path><path class="cls-11" d="M71,57a.76.76,0,1,0,.76-.7A.73.73,0,0,0,71,57Z"></path><path class="cls-11" d="M46.72,57.94a.76.76,0,1,0,.76-.7A.73.73,0,0,0,46.72,57.94Z"></path><path class="cls-8" d="M42.27,77.34A4.54,4.54,0,0,1,42,75.09a2.82,2.82,0,0,1,1.5-2.1,3.58,3.58,0,0,1,2.45-.23,4.51,4.51,0,0,1,2,1c-.76.1-1.45.11-2.1.17a4.82,4.82,0,0,0-1.67.4,2.41,2.41,0,0,0-1.06,1.1,6.78,6.78,0,0,0-.39.89A4.24,4.24,0,0,1,42.27,77.34Z"></path><path class="cls-8" d="M75.05,77.55a3.59,3.59,0,0,0,.78-1.6A2.21,2.21,0,0,0,75.24,74a2.86,2.86,0,0,0-1.76-.78,3.58,3.58,0,0,0-1.75.24c.54.27,1,.45,1.52.66a3.79,3.79,0,0,1,1.14.72,1.86,1.86,0,0,1,.51,1.08,5.79,5.79,0,0,1,.07.76A3.25,3.25,0,0,0,75.05,77.55Z"></path><path class="cls-8" d="M22.82,63.24a4.68,4.68,0,0,1-2.27.07,2.83,2.83,0,0,1-1.94-1.7,3.58,3.58,0,0,1,0-2.46,4.67,4.67,0,0,1,1.2-1.91c0,.77,0,1.47,0,2.12a5.09,5.09,0,0,0,.24,1.7,2.46,2.46,0,0,0,1,1.16,8.32,8.32,0,0,0,.85.47A4.29,4.29,0,0,1,22.82,63.24Z"></path></svg> 