<?xml version="1.0" encoding="UTF-8"?> <!-- Generator: Adobe Illustrator 24.1.0, SVG Export Plug-In . SVG Version: 6.00 Build 0) --> <svg xmlns="http://www.w3.org/2000/svg" xmlns:xlink="http://www.w3.org/1999/xlink" version="1.1" id="Layer_1" x="0px" y="0px" viewBox="0 0 629.3 224.2" style="enable-background:new 0 0 629.3 224.2;" xml:space="preserve"> <style type="text/css"> .st0{fill:#5B6770;} .st1{fill:#C63663;} .st2{fill:#E8AFC1;} .st3{fill:#6CC24A;} .st4{fill:#DA7C9A;} .st5{fill:#D15E82;} .st6{fill:#E090A9;} </style> <g> <g> <g> <path class="st0" d="M325.6,96.1c0,5.1-1.3,9.7-3.9,13.6c-2.6,4-6.3,7.1-11.2,9.3c-4.9,2.2-10.6,3.3-17.2,3.3 c-5.5,0-10.1-0.4-13.8-1.2c-3.7-0.8-7.6-2.1-11.6-4V97.2c4.2,2.2,8.7,3.9,13.3,5.1c4.6,1.2,8.8,1.8,12.6,1.8 c3.3,0,5.7-0.6,7.3-1.7c1.5-1.1,2.3-2.6,2.3-4.4c0-1.1-0.3-2.1-0.9-3c-0.6-0.8-1.6-1.7-3-2.6c-1.4-0.9-5-2.6-11-5.3 c-5.4-2.4-9.4-4.8-12.1-7.1c-2.7-2.3-4.7-4.9-6-7.9c-1.3-3-1.9-6.5-1.9-10.6c0-7.6,2.8-13.5,8.3-17.8c5.5-4.3,13.1-6.4,22.8-6.4 c8.5,0,17.2,2,26.1,5.9l-6.8,17.2c-7.7-3.5-14.4-5.3-20-5.3c-2.9,0-5,0.5-6.3,1.5c-1.3,1-2,2.3-2,3.8c0,1.6,0.8,3.1,2.5,4.3 c1.7,1.3,6.2,3.6,13.6,7c7.1,3.2,12,6.6,14.8,10.3C324.2,85.9,325.6,90.5,325.6,96.1z"></path> <path class="st0" d="M368.4,104.8c3,0,6.5-0.7,10.7-2.2v16.1c-3,1.3-5.8,2.2-8.5,2.7c-2.7,0.5-5.8,0.8-9.5,0.8 c-7.4,0-12.8-1.8-16-5.4c-3.3-3.6-4.9-9.2-4.9-16.7V73.7h-7.7v-9l9.8-6.9l5.7-13.4h14.4v12.8h15.7v16.5h-15.7v24.9 C362.4,102.7,364.4,104.8,368.4,104.8z"></path> <path class="st0" d="M421,122.2c-10.6,0-18.9-2.8-24.8-8.5c-5.9-5.7-8.8-13.7-8.8-24.2c0-10.8,2.7-19.1,8.2-24.9 c5.5-5.8,13.2-8.7,23.4-8.7c9.6,0,17.1,2.5,22.3,7.5c5.2,5,7.9,12.3,7.9,21.7v9.8h-39.4c0.2,3.6,1.5,6.4,3.9,8.4 c2.5,2,5.8,3,10.1,3c3.9,0,7.4-0.4,10.7-1.1c3.3-0.7,6.8-2,10.6-3.8v15.9c-3.5,1.8-7,3-10.7,3.7 C430.6,121.9,426.2,122.2,421,122.2z M419.8,71.1c-2.6,0-4.8,0.8-6.5,2.5c-1.7,1.6-2.8,4.2-3.1,7.7h19c-0.1-3.1-1-5.5-2.6-7.4 C424.8,72,422.6,71.1,419.8,71.1z"></path> <path class="st0" d="M492.5,122.2c-10.6,0-18.9-2.8-24.8-8.5c-5.9-5.7-8.8-13.7-8.8-24.2c0-10.8,2.7-19.1,8.2-24.9 c5.5-5.8,13.2-8.7,23.4-8.7c9.6,0,17.1,2.5,22.3,7.5c5.2,5,7.9,12.3,7.9,21.7v9.8h-39.4c0.2,3.6,1.5,6.4,3.9,8.4 c2.5,2,5.8,3,10.1,3c3.9,0,7.4-0.4,10.7-1.1c3.3-0.7,6.8-2,10.6-3.8v15.9c-3.5,1.8-7,3-10.7,3.7 C502,121.9,497.6,122.2,492.5,122.2z M491.2,71.1c-2.6,0-4.8,0.8-6.5,2.5c-1.7,1.6-2.8,4.2-3.1,7.7h19c-0.1-3.1-1-5.5-2.6-7.4 C496.2,72,494,71.1,491.2,71.1z"></path> <path class="st0" d="M555.1,121.1H533V33.3h22.1V121.1z"></path> <path class="st0" d="M601.3,122.2c-10.6,0-18.9-2.8-24.8-8.5c-5.9-5.7-8.8-13.7-8.8-24.2c0-10.8,2.7-19.1,8.2-24.9 c5.5-5.8,13.2-8.7,23.4-8.7c9.6,0,17.1,2.5,22.3,7.5c5.2,5,7.9,12.3,7.9,21.7v9.8h-39.4c0.2,3.6,1.5,6.4,3.9,8.4 c2.5,2,5.8,3,10.1,3c3.9,0,7.4-0.4,10.7-1.1c3.3-0.7,6.8-2,10.6-3.8v15.9c-3.5,1.8-7,3-10.7,3.7 C610.8,121.9,606.4,122.2,601.3,122.2z M600,71.1c-2.6,0-4.8,0.8-6.5,2.5c-1.7,1.6-2.8,4.2-3.1,7.7h19c-0.1-3.1-1-5.5-2.6-7.4 C605,72,602.8,71.1,600,71.1z"></path> <path class="st0" d="M290.1,194.2v30h-22.3v-82.5h27c22.4,0,33.6,8.1,33.6,24.4c0,9.6-4.7,16.9-14,22.2l24,35.9h-25.3l-17.5-30 H290.1z M290.1,177.5h4.2c7.8,0,11.7-3.4,11.7-10.3c0-5.7-3.8-8.5-11.5-8.5h-4.4V177.5z"></path> <path class="st0" d="M405.8,191c0,10.5-2.8,18.6-8.4,24.5c-5.6,5.8-13.5,8.8-23.6,8.8c-9.7,0-17.4-3-23.2-9 c-5.7-6-8.6-14.1-8.6-24.3c0-10.4,2.8-18.5,8.4-24.3c5.6-5.8,13.5-8.7,23.7-8.7c6.3,0,11.8,1.3,16.6,4c4.8,2.7,8.5,6.5,11.1,11.5 C404.5,178.5,405.8,184.3,405.8,191z M364.3,191c0,5.5,0.7,9.7,2.2,12.6c1.5,2.9,3.9,4.3,7.4,4.3c3.4,0,5.8-1.4,7.3-4.3 c1.4-2.9,2.1-7.1,2.1-12.6c0-5.5-0.7-9.6-2.1-12.4c-1.4-2.8-3.9-4.2-7.3-4.2c-3.4,0-5.8,1.4-7.3,4.1 C365.1,181.4,364.3,185.5,364.3,191z"></path> <path class="st0" d="M467.7,203.5c0,6.8-2.3,12-7,15.5c-4.7,3.5-11.4,5.2-20.1,5.2c-4.7,0-8.9-0.3-12.4-0.8 c-3.5-0.5-7.1-1.4-10.7-2.8V203c3.4,1.5,7.2,2.7,11.3,3.7c4.1,1,7.7,1.5,10.9,1.5c4.8,0,7.2-1.1,7.2-3.3c0-1.1-0.7-2.1-2-3 c-1.3-0.9-5.2-2.6-11.7-5.2c-5.9-2.4-10-5.1-12.3-8.2c-2.3-3.1-3.5-6.9-3.5-11.6c0-5.9,2.3-10.6,6.9-13.9c4.6-3.3,11.1-5,19.5-5 c4.2,0,8.2,0.5,11.9,1.4c3.7,0.9,7.6,2.3,11.5,4l-6,14.2c-2.9-1.3-6-2.4-9.3-3.4c-3.3-0.9-5.9-1.4-8-1.4c-3.6,0-5.4,0.9-5.4,2.7 c0,1.1,0.6,2,1.9,2.8c1.3,0.8,4.9,2.3,10.9,4.7c4.5,1.8,7.8,3.6,10,5.4c2.2,1.8,3.8,3.8,4.9,6.2 C467.2,197.1,467.7,200.1,467.7,203.5z"></path> <path class="st0" d="M510.8,224.2c-10.6,0-18.9-2.8-24.8-8.5c-5.9-5.7-8.8-13.7-8.8-24.2c0-10.8,2.7-19.1,8.2-24.9 c5.5-5.8,13.2-8.7,23.4-8.7c9.6,0,17.1,2.5,22.3,7.5c5.2,5,7.9,12.3,7.9,21.7v9.8h-39.4c0.2,3.6,1.5,6.4,3.9,8.4 c2.5,2,5.8,3,10.1,3c3.9,0,7.4-0.4,10.7-1.1c3.3-0.7,6.8-2,10.6-3.8v15.9c-3.5,1.8-7,3-10.7,3.7 C520.3,223.9,515.9,224.2,510.8,224.2z M509.5,173.1c-2.6,0-4.8,0.8-6.5,2.5c-1.7,1.6-2.8,4.2-3.1,7.7h19c-0.1-3.1-1-5.5-2.6-7.4 C514.6,174,512.3,173.1,509.5,173.1z"></path> </g> </g> <g> <path class="st1" d="M136.8,212.2c4.8-3.5,9.3-7.5,13.8-11.7c20.2-19.5,33-45.4,36.1-73.1c3.1-27.7-3.7-55.9-19.2-79.3 C153,26.2,131.6,9.2,107,0H17.6C7.9,0,0,7.9,0,17.6v50.2c3.8-7.1,7.9-13.9,12.7-20.7c0.7-0.9,1.7-1.4,2.8-1.4 c0.8,0,1.6,0.3,2.3,0.9c1,0.9,1.3,2.4,0.9,3.8c-11.3,34.3,4.2,72.9,36.8,91.8c4.2,2.4,8.8,4.6,13.5,6.3c5,1,10,1.5,14.8,1.6 c0.5,0,1,0,1.5,0c37.1,0,69.6-25,77.4-59.9c0.3-1.6,1.8-2.6,3.3-2.6c0.1,0,0.1,0,0.2,0c1.7,0.1,3,1.5,3.1,3.1 c3.2,44.1-7.2,78.5-31,102.4c-17.1,17.1-37.2,25.7-54.8,30c5.3,0.9,10.8,1.4,16.4,1.4C113.1,224.2,126.1,220.1,136.8,212.2z M62.3,69.7c-8.5,15.6-3.3,35.3,5.1,47.1c0.9,1.2,0.8,2.8,0,4c-0.7,0.9-1.7,1.4-2.7,1.4c-0.4,0-0.7-0.1-1.1-0.2 c-2.6-0.9-6-2.1-9.3-3.9c-13.7-7.5-23.7-19.9-28.1-34.8c-4.4-15-2.7-30.8,4.8-44.5C41.6,19.2,61.7,8.1,82.5,8.1 c9.5,0,19,2.3,27.9,7.1c17.7,9.6,29,27.5,30.3,47.8c0.1,1.5-0.8,2.8-2.1,3.4c-0.4,0.2-0.8,0.2-1.2,0.2c-1,0-2-0.4-2.6-1.3 c-3.3-4.1-9.2-9.7-14.3-12.5c-6.6-3.6-13.7-5.3-20.6-5.3C84.6,47.7,70,55.6,62.3,69.7z M112.1,133.4c-0.2,0-0.4,0-0.6,0 c-0.9,0-1.8-0.4-2.5-1.1c-0.8-0.8-1.1-2-0.8-3.1c0.5-2.2,0.8-4.3,0.9-6.4C109.5,107.3,97,94.3,81.5,94c-0.2,0-0.4,0-0.5,0 c-1.6,0-3.2,0.1-4.8,0.4c-0.2,0-0.4,0-0.6,0c-0.9,0-1.8-0.4-2.5-1.1c-0.8-0.8-1.1-2-0.8-3.1c4-15.6,17.8-26.4,33.8-26.4 c0.3,0,0.6,0,0.9,0c9.4,0.2,18.1,4,24.6,10.8c6.5,6.8,9.9,15.6,9.7,25C140.9,116.4,128.6,130.6,112.1,133.4z"></path> <g> <path class="st2" d="M63.8,217.8C26.5,203.7,0,167.6,0,125.4V93.6c0,0-0.2-2.9,1.2-11.7C4,111,21.1,138.6,48.4,154.3 c0,0,14.3,9.2,36.9,9.8c26.1,0.7,52-12.2,69.2-29.6C154.5,134.5,146.5,201.9,63.8,217.8z"></path> </g> <path class="st3" d="M168.2,224.2l42.1,0c7.5,0,13.6-6.1,13.6-13.6v-48.6C216.1,187.8,199.8,209.4,168.2,224.2z"></path> <path class="st4" d="M99.7,37.1c8.4,0,16.7,2,24.2,5.8c-4.4-7.7-10.7-14-18.6-18.2c-7-3.8-14.9-5.8-22.8-5.8 c-17.6,0-33.8,9.6-42.2,25c-6.1,11.2-7.5,24.2-3.9,36.5c2.3,7.9,6.6,15.1,12.5,20.8c-3.1-13-1.6-25.9,4.1-36.4 C62.3,47.6,80.2,37.1,99.7,37.1z"></path> <path class="st5" d="M106.1,73.9v0.5c-7.5,0-14.5,3.5-19.1,9.4c17.8,2.8,31.3,17.5,32.7,35.4c6.7-4.4,10.9-11.8,11-19.9 c0.1-6.5-2.3-12.7-6.8-17.4c-4.5-4.7-10.6-7.4-17.1-7.5c-0.3,0-0.5,0-0.7,0L106.1,73.9L106.1,73.9z"></path> <path class="st6" d="M135.6,0c0,0,54.4,30,62.6,97.1s-29.7,113-61.2,127.2c0,0,45.4-2.4,75-59.4S216,10.4,135.6,0z"></path> </g> </g> </svg> 