<?xml version="1.0" encoding="UTF-8"?> <svg xmlns="http://www.w3.org/2000/svg" id="Hollie" viewBox="0 0 112.5 138.7"><defs><style>.cls-1{fill:#55595c;}.cls-1,.cls-10,.cls-4,.cls-5{fill-rule:evenodd;}.cls-2{fill:#4a2000;}.cls-3,.cls-4{fill:#f2c3b4;}.cls-5,.cls-6{fill:#fff;}.cls-7{fill:#eabaad;}.cls-8{fill:#373737;}.cls-9{fill:#311000;}.cls-10{fill:#6e7173;}</style></defs><path class="cls-1" d="M137.81,146.71q.81,6.87,1.63,13.73c-90.35,8.49-72.3-52.88-59.8-50.4C95.62,113.21,73.21,150.09,137.81,146.71Z"></path><path class="cls-2" d="M27,104.42c4.12-1.79,10.21,0,14.84,0s8.15.86,10.49,0,11.44-1.2,16.89,0,12.51,2.68,17.93,3.33a7.38,7.38,0,0,0,.81.07c4.36.17,9.09-.07,10.45-4.33.89-2.81-1-8.07-.89-12.09.1-3.64,2.69-6.53,2.93-10.17A25.18,25.18,0,0,0,98,68.64c-2-4-2.76-8-3.66-12.43-1-4.76.73-9.64.74-14.5A20.78,20.78,0,0,0,89,27c-1.93-1.9-4.22-3.38-6.16-5.28-1.54-1.51-2.84-3.26-4.31-4.85-11.75-12.71-32-10.77-44.4,0-.07.06-2.68-.26-3-.22-2.85.42-5.72,2.77-7.53,4.94C18.75,27.44,19.12,36,16.23,42.75c-1.8,4.23-4.81,7.91-6.09,12.34-1.88,6.51.24,13.7-.44,20.36a45.21,45.21,0,0,0,.1,9.73c.19,1.73,2.58,8.25.57,11.9C7.09,103,15.8,109.28,27,104.42Z"></path><path class="cls-3" d="M40,38.38S28.31,52.49,25.67,68C24.05,77.46,38.12,98.8,55,99.42c11.21.4,22.72-4.82,26.93-20.91,4.13-15.76,1.48-42.4,1.48-42.4S81.19,25.63,69.22,25.24,40,38.38,40,38.38Z"></path><path class="cls-4" d="M42.92,103.68c1.2-.15,3.07-.44,3.79-1.92s.3-4.14.09-6.15-.21-3.37.32-3.9,1.61-.24,3.83-.1a73.87,73.87,0,0,0,7.57,0c2-.12,2.5-.35,2.68.33a23.71,23.71,0,0,1-.06,4.07,13,13,0,0,0,.58,5.08A4.33,4.33,0,0,0,65,103.8c1.65.37,3.85.22,4.35,1.14s-.67,2.9-2.77,5.13A25.38,25.38,0,0,1,58,116.19c-3.51,1.43-7.54,1.8-10.43.22s-4.63-5.11-5.59-7.53-1.15-3.74-1-4.4S41.72,103.82,42.92,103.68Z"></path><path class="cls-5" d="M68,106.44h0a15.09,15.09,0,0,1-25.75,0H39.42v71.89H68Z"></path><path class="cls-1" d="M41.82,202H58.08c9.58,0,16.8-23.6,18.42-32.71l8.71-49.23c1.61-9.11-7.84-16.7-17.43-16.8l-4,0c6.61,33.27,4.14,35.69,0,70.91l-21.89.5c4-35.08,3.3-42,2.93-71.61l-6-.06c-9.58-.1-20.06,10.5-19.54,19.73l4.11,72.62C24,204.54,32.23,202,41.82,202Z"></path><path class="cls-6" d="M69.27,78.82s-1.12,2.82-9.85,3S45.2,79.25,45.2,79.25,49.05,89.54,60.12,89C68.55,88.58,69.27,78.82,69.27,78.82Z"></path><path class="cls-7" d="M61.08,63.88s3.41,4.3,3.19,6.34-4.73,3.18-4.73,3.18,5.5-.23,6.72-2.16C67.22,69.71,61.08,63.88,61.08,63.88Z"></path><path class="cls-7" d="M68.74,53.55c-.73,1.19-.8,6.89,0,6.06s3.48-2.75,5.09-2.89a7.43,7.43,0,0,1,3.64,1.11l1.9-2.07s2.17-2.66,1.91-3.12C80.18,50.68,70.35,50.93,68.74,53.55Z"></path><path class="cls-8" d="M70,59.33a3.57,3.57,0,0,0,3.1,3.93,3.5,3.5,0,0,0,4.09-2.82,3.57,3.57,0,0,0-3.11-3.93A3.5,3.5,0,0,0,70,59.33Z"></path><path class="cls-9" d="M81.39,52.78s-4-1.52-7.29-.92a31.06,31.06,0,0,0-5.36,2,1.12,1.12,0,0,1-.1-1.73C69.52,51,78.7,48,81.39,52.78Z"></path><path class="cls-8" d="M68.38,60s2-3.34,5.31-3.8,4.72,2.85,4.72,2.85A6.93,6.93,0,0,0,73,58,11.3,11.3,0,0,0,68.38,60Z"></path><path class="cls-6" d="M74.31,58.52a.8.8,0,0,0,.69.87.77.77,0,0,0,.9-.62.79.79,0,0,0-.69-.87A.77.77,0,0,0,74.31,58.52Z"></path><path class="cls-7" d="M47.87,51.64c6.49-.12,6,.17,6.21,1.16s-1.19,6.93-1.19,6.93S50.47,57.05,48,56.87a10,10,0,0,0-6.31,2.06s-3.51-5.33-3.55-7C38.13,51.4,47.87,51.64,47.87,51.64Z"></path><path class="cls-9" d="M37.89,52.08s5.67-2.7,10.71-2c4.36.57,5.18.82,5.37,1.59s.6,2.2-.75,1.53S42.3,51,37.89,52.08Z"></path><path class="cls-8" d="M53.21,60.05a7.76,7.76,0,0,0-6-3.24,8.13,8.13,0,0,0-6.54,3,10.22,10.22,0,0,1,6.62-1.45A15.7,15.7,0,0,1,53.21,60.05Z"></path><path class="cls-8" d="M51.3,60.7a3.67,3.67,0,1,1-3.82-3.24A3.56,3.56,0,0,1,51.3,60.7Z"></path><path class="cls-6" d="M48.42,59.34a.78.78,0,0,0,.84.71.76.76,0,1,0-.84-.71Z"></path><path class="cls-7" d="M41.68,79.56a4.57,4.57,0,0,1-.27-2.2,2.75,2.75,0,0,1,1.42-2,3.34,3.34,0,0,1,2.32-.22,4.4,4.4,0,0,1,1.92,1c-.73.1-1.39.12-2,.17a4.46,4.46,0,0,0-1.59.4,2.28,2.28,0,0,0-1,1.07,7.66,7.66,0,0,0-.37.86A3.86,3.86,0,0,1,41.68,79.56Z"></path><path class="cls-10" d="M44.81,103l-12.36,9.8,1.8,18.44,7.47,1-7,3.49c1.19,12.19-1.2,15.45,13.25,21Z"></path><path class="cls-10" d="M63.64,103.18l13.28,6.34,1,19L70.71,131l7.44,2c.57,12.25,2.59,15.15-10.86,23.48Z"></path><path class="cls-1" d="M86.68,145.35l2,13.66C-1.39,170.17,15,108.29,27.51,110.4,43.58,113.1,22.2,150.62,86.68,145.35Z"></path><path class="cls-2" d="M41.89,40.71a19.77,19.77,0,0,1-3.74,8.77c-2.76,3.3-5.39,5.64-5.49,10.4-.11,5.25,2.94,10.35,2,15.52s-5.41,9.11-5.36,14.26c0,1.61.5,3.21.3,4.81s-1.47,3.27-3,3c-2.11-.35-2.28-3.36-2.21-5.56a18.67,18.67,0,0,0-4.6-13.28c-3.13-3.77-3.33-9.55-1.51-14.1,2.53-6.32,3.07-6.5,4.51-13.93s4-21,9.93-24.88,16.6-8,26.34-7.06,19.48,1.49,25.44,11.7,6,16.77,6.85,24c.54,4.26,0,8.88-2.62,12.39-1.64-.84-2.21-2.94-2.36-4.82-.3-3.61-.49-6.22-3.59-8.14-3.34-2.07-6.77-3.39-8.87-7-.89-1.53-1.42-3.29-2.5-4.69-2-2.53-5.3-3.4-8.42-3.73-6.32-.65-12.75.3-19-.74a4,4,0,0,1-2.22-.89,1.64,1.64,0,0,1-.19-2.23A13.35,13.35,0,0,1,41.89,40.71Z"></path><path class="cls-2" d="M61.85,101.43A4.83,4.83,0,0,0,66.12,104c3.3.23,10.8,2.18,12.91,2.43s3.64-3.26,3.64-3.26l-8.45-2.36-4.84-.53Z"></path><path class="cls-2" d="M46.85,101.41s-.31,2.35-4.79,2.18-5.82.7-9.14,0-.24-2.43-.24-2.43h6Z"></path></svg> 