<?xml version="1.0" encoding="UTF-8"?> <svg xmlns="http://www.w3.org/2000/svg" xmlns:xlink="http://www.w3.org/1999/xlink" viewBox="0 0 583 493.9"><defs><style>.cls-1{mask:url(#mask);filter:url(#luminosity-noclip-2);}.cls-2{mix-blend-mode:multiply;fill:url(#linear-gradient);}.cls-3{isolation:isolate;}.cls-4{mask:url(#mask-2);}.cls-5{fill:#f6f9fc;}.cls-6{fill:#dde1e5;}.cls-7{fill:#d2dbe1;}.cls-8{fill:#f6fbff;}.cls-9{fill:#c2cfde;}.cls-10{fill:#848ea2;}.cls-11{fill:#4b4b4b;}.cls-12{fill:#6c6c6c;}.cls-13{fill:#3a3a3a;}.cls-14{fill:#d0658c;}.cls-15{fill:#c43f6f;}.cls-16{fill:#fbc600;}.cls-17{fill:#8d6c00;}.cls-18,.cls-48{opacity:0.3;}.cls-18{mix-blend-mode:soft-light;}.cls-19,.cls-26{fill:#fff;}.cls-20{fill:#4a6c78;}.cls-21,.cls-25{fill:#f2c3b4;}.cls-21,.cls-22,.cls-23,.cls-26,.cls-27,.cls-31{fill-rule:evenodd;}.cls-22{fill:#fdfdfd;}.cls-23{fill:#55595c;}.cls-24{fill:#4a2000;}.cls-27{fill:#19191f;}.cls-28{fill:#eabaad;}.cls-29{fill:#373737;}.cls-30{fill:#311000;}.cls-31{fill:#6e7173;}.cls-32{fill:#c3cbd7;}.cls-33{fill:#9ea8b3;}.cls-34{fill:#ebf1f8;}.cls-35{fill:#abd8f7;}.cls-36{fill:#05181b;opacity:0.2;}.cls-37{fill:#375861;}.cls-38{fill:#6a8a94;}.cls-39{fill:#81a5ac;}.cls-40{fill:#ac561b;}.cls-41{fill:#a0d0fd;}.cls-42{fill:#79bdfb;}.cls-43{fill:#fac047;}.cls-44{fill:#fbd384;}.cls-45{fill:#3c3835;}.cls-46{fill:#e18c11;}.cls-47{fill:#e39b32;}.cls-49{fill:#308947;}.cls-50{fill:#41ac62;}.cls-51{fill:#5aca69;}.cls-52{fill:#599800;}.cls-53{fill:#6fb21d;}.cls-54{fill:#84c944;}.cls-55{filter:url(#luminosity-noclip);}</style><filter id="luminosity-noclip" x="39.69" y="-8439.28" width="406.72" height="32766" color-interpolation-filters="sRGB"><feFlood flood-color="#fff" result="bg"></feFlood><feBlend in="SourceGraphic" in2="bg"></feBlend></filter><mask id="mask" x="39.69" y="-8439.28" width="406.72" height="32766" maskUnits="userSpaceOnUse"><g class="cls-55"></g></mask><linearGradient id="linear-gradient" x1="243.06" y1="423.56" x2="243.06" y2="0.94" gradientUnits="userSpaceOnUse"><stop offset="0" stop-color="#fff"></stop><stop offset="1" stop-color="gray"></stop></linearGradient><filter id="luminosity-noclip-2" x="39.69" y="43.22" width="406.72" height="371.99" color-interpolation-filters="sRGB"><feFlood flood-color="#fff" result="bg"></feFlood><feBlend in="SourceGraphic" in2="bg"></feBlend></filter><mask id="mask-2" x="39.69" y="43.22" width="406.72" height="371.99" maskUnits="userSpaceOnUse"><g class="cls-1"><path class="cls-2" d="M425.24,358.64a131.24,131.24,0,0,1-33.59,48,127.84,127.84,0,0,1-10.48,8.56H169.88c-40.47-23.51-68.42-60.89-86-102.14q-1.12-2.64-2.3-5.3c-14.75-33.45-33.29-66.46-40.39-102.39-12.69-64.19,57.46-84,95.71-120.31C151,71.75,158.63,52,178.81,45.7c22.69-7,46.89,1.48,61.87,18.5,34.14,38.76,90,80.26,124.28,91.68C433,178.51,473.62,241.23,425.24,358.64Z"></path></g></mask></defs><g class="cls-3"><g id="Hollie"><g class="cls-4"><path class="cls-5" d="M425.24,358.64a131.24,131.24,0,0,1-33.59,48c-3.34,3-2.19,2.87-10.48,2.87H169.88c-40.47-23.52-68.42-55.2-86-96.45q-1.12-2.64-2.3-5.3c-14.75-33.45-33.29-66.46-40.39-102.39-12.69-64.19,57.46-84,95.71-120.31C151,71.75,158.63,52,178.81,45.7c22.69-7,46.89,1.48,61.87,18.5,34.14,38.76,90,80.26,124.28,91.68C433,178.51,473.62,241.23,425.24,358.64Z"></path></g><ellipse class="cls-6" cx="252.04" cy="404.17" rx="226.9" ry="16.04"></ellipse><polyline class="cls-7" points="393.58 195.4 393.58 200.92 318.4 200.92 318.4 67.81 393.58 67.81 393.58 73.33"></polyline><polyline class="cls-8" points="393.58 195.4 323.35 195.4 323.35 73.33 393.58 73.33"></polyline><path class="cls-7" d="M323.35,132.28v4.17h69.41c0-.69,0-1.39,0-2.08h0c0-.7,0-1.4,0-2.09Z"></path><path class="cls-7" d="M323.35,163.84v1.35h66.76c.27-.44.54-.89.8-1.35Z"></path><path class="cls-7" d="M323.35,103.6V105h67.59c-.25-.45-.52-.9-.79-1.35Z"></path><rect class="cls-7" x="389.42" y="67.81" width="4.17" height="133.11"></rect><rect class="cls-7" x="356.27" y="73.33" width="1.35" height="122.06"></rect><polyline class="cls-7" points="389.42 73.33 389.42 67.81 464.6 67.81 464.6 200.92 389.42 200.92 389.42 195.4"></polyline><polyline class="cls-8" points="389.42 73.33 459.65 73.33 459.65 195.4 389.42 195.4"></polyline><path class="cls-7" d="M459.65,136.45v-4.17h-69.4c0,.69,0,1.39,0,2.09h0c0,.69,0,1.39,0,2.08Z"></path><path class="cls-7" d="M459.65,104.89v-1.35H392.9c-.28.44-.54.89-.8,1.35Z"></path><path class="cls-7" d="M459.65,165.13v-1.35H392.06c.26.45.52.9.79,1.35Z"></path><rect class="cls-7" x="389.42" y="67.81" width="4.17" height="133.11"></rect><rect class="cls-7" x="425.38" y="73.33" width="1.35" height="122.06"></rect><rect class="cls-9" x="241.15" y="327.5" width="3.8" height="54.32" transform="translate(486.11 709.31) rotate(-180)"></rect><rect class="cls-10" x="237.35" y="327.5" width="3.8" height="54.32" transform="translate(478.5 709.31) rotate(-180)"></rect><path class="cls-11" d="M217.8,401.93c0,2.37.81,4.29,1.8,4.29s1.8-1.92,1.8-4.29-.81-4.3-1.8-4.3S217.8,399.56,217.8,401.93Z"></path><rect class="cls-11" x="219.6" y="397.63" width="5.13" height="8.59" transform="translate(444.33 803.86) rotate(-180)"></rect><path class="cls-12" d="M222.93,401.93c0,2.37.8,4.29,1.8,4.29s1.8-1.92,1.8-4.29-.81-4.3-1.8-4.3S222.93,399.56,222.93,401.93Z"></path><path class="cls-11" d="M241.15,386v6.65l-46.73,6.55a.66.66,0,0,1-.75-.65v-5.9Z"></path><polygon class="cls-13" points="193.68 392.61 193.68 394.06 241.15 386.8 241.15 385.96 193.68 392.61"></polygon><polygon class="cls-13" points="241.15 385.96 217.41 399.26 217.41 392.61 228.84 389.41 225.97 388.86 241.15 385.96"></polygon><rect class="cls-11" x="217.41" y="392.61" width="5.63" height="6.65"></rect><polygon class="cls-12" points="241.15 392.61 223.05 399.26 223.05 392.61 241.15 385.96 241.15 392.61"></polygon><polygon class="cls-13" points="241.15 385.96 232.75 385.96 232.75 387.84 241.15 385.96"></polygon><path class="cls-12" d="M264.51,401.93c0,2.37-.81,4.29-1.8,4.29s-1.8-1.92-1.8-4.29.8-4.3,1.8-4.3S264.51,399.56,264.51,401.93Z"></path><rect class="cls-12" x="257.58" y="397.63" width="5.13" height="8.59"></rect><path class="cls-11" d="M259.38,401.93c0,2.37-.8,4.29-1.8,4.29s-1.8-1.92-1.8-4.29.81-4.3,1.8-4.3S259.38,399.56,259.38,401.93Z"></path><path class="cls-11" d="M241.15,386v6.65l46.74,6.55a.65.65,0,0,0,.74-.65v-5.9Z"></path><polygon class="cls-13" points="288.63 392.61 288.63 394.06 241.15 386.8 241.15 385.96 288.63 392.61"></polygon><polygon class="cls-13" points="241.15 385.96 264.89 399.26 264.89 392.61 253.47 389.41 256.33 388.86 241.15 385.96"></polygon><rect class="cls-12" x="259.26" y="392.61" width="5.63" height="6.65"></rect><polygon class="cls-11" points="241.15 392.61 259.26 399.26 259.26 392.61 241.15 385.96 241.15 392.61"></polygon><path class="cls-11" d="M288.63,401.93a4.3,4.3,0,1,0-4.29,4.29A4.3,4.3,0,0,0,288.63,401.93Z"></path><polygon class="cls-13" points="241.15 385.96 249.56 385.96 249.56 387.84 241.15 385.96"></polygon><path class="cls-13" d="M232.75,377.66h16.81a0,0,0,0,1,0,0v7.15a1.15,1.15,0,0,1-1.15,1.15H233.9a1.15,1.15,0,0,1-1.15-1.15v-7.15a0,0,0,0,1,0,0Z" transform="translate(482.31 763.62) rotate(-180)"></path><path class="cls-11" d="M193.67,401.93a4.3,4.3,0,1,1,4.3,4.29A4.31,4.31,0,0,1,193.67,401.93Z"></path><path class="cls-14" d="M230.71,202.27a9.72,9.72,0,0,0-9.52-8H157.92L176,306.23h73.78Z"></path><path class="cls-14" d="M301.89,306.23H212.75v19.45h89.14a9.73,9.73,0,0,0,0-19.45Z"></path><path class="cls-15" d="M238.44,325.68H178.22a9.71,9.71,0,0,1-9.56-8L148.13,205.77a9.72,9.72,0,1,1,19.13-3.5l19.07,104h52.11a9.73,9.73,0,0,1,0,19.45Z"></path><path class="cls-11" d="M241.15,325.68v8.89H192.74a5,5,0,0,1-5-5v-3.9Z"></path><path class="cls-12" d="M243.48,325.68h51.08a0,0,0,0,1,0,0v8.89a0,0,0,0,1,0,0H241.15a0,0,0,0,1,0,0V328A2.33,2.33,0,0,1,243.48,325.68Z" transform="translate(535.71 660.25) rotate(-180)"></path><path class="cls-11" d="M241.1,377.66h6a2.48,2.48,0,0,1,2.47,2.47V386H238.63v-5.83A2.47,2.47,0,0,1,241.1,377.66Z"></path><g id="Hollie-2" data-name="Hollie"><path class="cls-16" d="M419,382.38l.45,1.29c-1.5.83-1.52,1.68-1.52,1.68l-3.24,9.42,2.89-8.39c1.8,1.21,6.27,2.55,11.5,2.55s9.55-1.31,11.42-2.49l-.38-1.09s-.18-3.22-11.16-3.22c-4.62,0-7.3.57-8.86,1.23l-.86-2.45s-.25-4.35-15.06-4.35-14.9,4.35-14.9,4.35l-.61,1.76c2.74,1.53,8.39,3.07,14.92,3.07C410.48,385.74,416.43,384,419,382.38Zm10.08.78c5,0,9,.89,9,2s-4,2-9,2-9-.89-9-2S424.05,383.16,429,383.16Zm-37.68-2.52c0-1.48,5.45-2.69,12.19-2.69s12.18,1.21,12.18,2.69-5.45,2.68-12.18,2.68S391.35,382.12,391.35,380.64Z"></path><path class="cls-16" d="M403.73,398h.38a53.27,53.27,0,0,0,13.59-1.43l-.32-.12A50.83,50.83,0,0,1,403.73,398Z"></path><path class="cls-17" d="M415.72,380.64c0-1.48-5.45-2.69-12.18-2.69s-12.19,1.21-12.19,2.69,5.45,2.68,12.19,2.68S415.72,382.12,415.72,380.64Z"></path><path class="cls-17" d="M429,387.14c5,0,9-.89,9-2s-4-2-9-2-9,.89-9,2S424.05,387.14,429,387.14Z"></path><path class="cls-16" d="M440.45,386.44c-1.87,1.18-6.27,2.49-11.42,2.49s-9.7-1.34-11.5-2.55l-2.89,8.39,3.24-9.42s0-.85,1.52-1.68l-.45-1.29c-2.52,1.59-8.47,3.36-15.41,3.36-6.53,0-12.18-1.54-14.92-3.07l-3.77,11s2.68,4.34,18.88,4.4a50.83,50.83,0,0,0,13.65-1.55l.32.12c2.1.75,5.57,1.43,11.2,1.43,12.25,0,14.46-3.26,14.46-3.26Zm-30,8.29a1.94,1.94,0,0,1-2-2l-7.56,0a2,2,0,0,1-3.94.05,2,2,0,0,1,1-1.71,2,2,0,1,1,2.94-1.75l7.56-.05a1.93,1.93,0,0,1,1.95-1.93,2,2,0,0,1,2,1.93,2,2,0,0,1-1,1.72,1.95,1.95,0,0,1-1,3.65Zm15.43-2.05a1.24,1.24,0,0,1,1.76-1.76,6.52,6.52,0,0,1,.72,2.48A6.71,6.71,0,0,1,425.92,392.68Zm6.61,1.48c-.74.75-3.8,1.11-3.8,1.11s.37-3,1.11-3.8a1.9,1.9,0,0,1,2.69,2.69Z"></path><path class="cls-18" d="M440.45,386.44c-1.87,1.18-6.27,2.49-11.42,2.49s-9.7-1.34-11.5-2.55l.35-1s0-.85,1.52-1.68l-.45-1.29c-2.52,1.59-8.47,3.36-15.41,3.36-6.53,0-12.18-1.54-14.92-3.07l-3.77,11s2.68,4.34,18.88,4.4a50.83,50.83,0,0,0,13.65-1.55l.32.12c2.1.75,5.57,1.43,11.2,1.43,12.25,0,14.46-3.26,14.46-3.26Zm-30,8.29a1.94,1.94,0,0,1-2-2l-7.56,0a2,2,0,0,1-3.94.05,2,2,0,0,1,1-1.71,2,2,0,1,1,2.94-1.75l7.56-.05a1.93,1.93,0,0,1,1.95-1.93,2,2,0,0,1,2,1.93,2,2,0,0,1-1,1.72,1.95,1.95,0,0,1-1,3.65Zm15.43-2.05a1.24,1.24,0,0,1,1.76-1.76,6.52,6.52,0,0,1,.72,2.48A6.71,6.71,0,0,1,425.92,392.68Zm6.61,1.48c-.74.75-3.8,1.11-3.8,1.11s.37-3,1.11-3.8a1.9,1.9,0,0,1,2.69,2.69Z"></path><path class="cls-19" d="M429.84,391.47c-.74.75-1.11,3.8-1.11,3.8s3.06-.36,3.8-1.11a1.9,1.9,0,0,0-2.69-2.69Z"></path><path class="cls-19" d="M425.92,390.92a1.26,1.26,0,0,0,0,1.76,6.71,6.71,0,0,0,2.48.72,6.52,6.52,0,0,0-.72-2.48A1.26,1.26,0,0,0,425.92,390.92Z"></path><path class="cls-19" d="M411.45,391.08a2,2,0,0,0,1-1.72,2,2,0,0,0-2-1.93,1.93,1.93,0,0,0-1.95,1.93l-7.56.05a2,2,0,1,0-2.94,1.75,2,2,0,0,0-1,1.71,2,2,0,0,0,3.94-.05l7.56,0a2,2,0,1,0,2.94-1.7Z"></path><path class="cls-20" d="M312.31,270.72a2.43,2.43,0,0,1-2.26,2.57H236a2.43,2.43,0,0,1-2.25-2.57v-2.57a2.43,2.43,0,0,1,2.25-2.57h74.07a2.43,2.43,0,0,1,2.26,2.57Z"></path><path class="cls-21" d="M282.81,256c1.51,0,4-.41,7-.41a29.09,29.09,0,0,1,9.24,1.39c2.69,1,4.54,2.5,5.21,4.42s.13,4.23-.67,5-1.87,0-3.25-.64a16.43,16.43,0,0,0-4.48-1.23c-1.43-.16-2.62,0-2.93.37s.25,1.11,1.35,1.44,2.73.27,3.38.62.3,1.06-.77,1.54a7.24,7.24,0,0,1-4.4.33,11.1,11.1,0,0,1-4-2.35,11.59,11.59,0,0,0-3.32-2.18c-1.21-.42-2.67-.46-3.53-1.93a11.51,11.51,0,0,1-1-5.6C280.75,255.53,281.3,256,282.81,256Z"></path><polygon class="cls-22" points="276.15 255.96 281.38 255.33 282.41 264.34 277.18 264.97 276.15 255.96"></polygon><path class="cls-23" d="M279.27,254.32,280.65,266c-76.81,7.23-61.46-45-50.84-42.84C243.4,225.84,224.35,257.19,279.27,254.32Z"></path><path class="cls-24" d="M185.07,218.36c3.51-1.52,8.69,0,12.62,0s6.93.73,8.92,0,9.73-1,14.36,0,10.64,2.28,15.25,2.83l.68.06c3.71.15,7.73-.06,8.88-3.68.76-2.39-.85-6.86-.75-10.28.09-3.09,2.29-5.55,2.49-8.64a21.49,21.49,0,0,0-2.07-10.71,43.11,43.11,0,0,1-3.12-10.56c-.83-4,.62-8.2.64-12.33a17.68,17.68,0,0,0-5.17-12.49c-1.64-1.62-3.59-2.88-5.23-4.49-1.31-1.28-2.42-2.77-3.67-4.12-10-10.81-27.17-9.16-37.74,0-.07.06-2.28-.22-2.56-.18-2.41.36-4.86,2.36-6.4,4.19-4.15,4.95-3.84,12.2-6.29,18-1.54,3.6-4.09,6.72-5.18,10.49-1.6,5.54.2,11.65-.38,17.31a38.12,38.12,0,0,0,.09,8.27c.16,1.48,2.19,7,.48,10.12C168.14,217.17,175.53,222.49,185.07,218.36Z"></path><path class="cls-25" d="M196.08,162.22s-9.91,12-12.15,25.15c-1.38,8.07,10.58,26.22,24.93,26.74,9.53.34,19.32-4.1,22.9-17.78,3.51-13.39,1.26-36,1.26-36A12.32,12.32,0,0,0,221,151.05C210.78,150.72,196.08,162.22,196.08,162.22Z"></path><path class="cls-21" d="M198.59,217.73c1-.12,2.61-.37,3.22-1.63s.26-3.52.08-5.23-.18-2.86.28-3.32,1.36-.2,3.25-.08a60.38,60.38,0,0,0,6.44,0c1.66-.1,2.12-.3,2.28.29a20.44,20.44,0,0,1,0,3.45,11.19,11.19,0,0,0,.48,4.33,3.7,3.7,0,0,0,2.82,2.26c1.39.32,3.26.19,3.69,1s-.57,2.47-2.35,4.36a21.52,21.52,0,0,1-7.33,5.21c-3,1.21-6.42,1.53-8.87.18s-3.94-4.34-4.76-6.4-1-3.18-.81-3.74S197.57,217.85,198.59,217.73Z"></path><path class="cls-26" d="M219.89,220.08h0a12.83,12.83,0,0,1-21.9,0h-2.37v61.11h24.27Z"></path><path class="cls-21" d="M196.85,277.86c-.12,6.36-.25,12.71,1.16,18.3s4.35,10.4,11.61,13.14,18.85,3.39,29.2,3.78,19.47.5,25.67.65,9.47.31,16.74,8.69c12.1,14,26.41,34.92,34.94,51.68l11.58-4.54c-12.37-3.16-25.77-51.67-42.27-74.71-9.68-13.51-16.39-15.32-30.66-16.2S218.69,277.82,196.85,277.86Z"></path><path class="cls-21" d="M266.52,320.88c1.71,9.79,2.76,38.79,3.43,56.54l-.46,11.37,12.23,2c-10.19-4.17,3.65-63.31,0-87.54-3.29-21.91-24.8-3.38-43.86,2.64l.07,7.86c8.48,5,26.7-3.65,28.57,7.1"></path><path class="cls-23" d="M204.18,274.31h46.11v18.84h0V316h-49c-12.23,0-19.35-10.3-19.35-22.89h0C181.94,280.56,192,274.31,204.18,274.31Z"></path><path class="cls-27" d="M269.48,384.37c-.06,3.29.15,10.57.15,15.36h3.07c0-1.13-.09-4.14.4-5.14.3-.61.84-.43,1.32-.22,1.42,1.17,2.78,2.78,4.55,3.82s5.29,1.33,7.93,1.46,5.78.13,6.85-.23,0-1.08-1.76-2.77-7.53-4.37-9.18-6.42-2.4-3.49-2.82-3.59c-.65-.16-1.4,6-7.13,1.4a7.78,7.78,0,0,1-2.29-3.08c-.49-1.16-.76-2.43-.9-2.73S269.53,381.07,269.48,384.37Z"></path><path class="cls-27" d="M314,370.28c1.55,2.88,5.27,9.07,7.6,13.22l2.65-1.57c-.55-1-2.08-3.55-2.15-4.67,0-.67.52-.79,1-.87a34.45,34.45,0,0,0,5.79,1c2,0,5.41-2,7.75-3.22s5.08-2.87,5.82-3.72-.48-.95-2.86-1.49-8,.62-10.44-.3-3.77-1.79-4.19-1.66c-.21.07.88,5.79-6.3,4.75a7.46,7.46,0,0,1-3.48-1.5c-1-.75-1.83-1.7-2.1-1.89S312.46,367.4,314,370.28Z"></path><path class="cls-23" d="M197.66,301.33h13.82c8.15,0,14.29-20.07,15.66-27.81l7.41-41.86c1.37-7.74-6.67-14.19-14.82-14.28l-3.39,0c5.61,28.29,3.52,30.34,0,60.29l-18.61.42c3.42-29.83,2.81-35.74,2.49-60.88l-5.07,0c-8.15-.09-17.05,8.93-16.61,16.77L182,295.63C182.48,303.47,189.51,301.33,197.66,301.33Z"></path><path class="cls-19" d="M221,196.59s-1,2.41-8.38,2.59A26.9,26.9,0,0,1,200.54,197s3.26,8.74,12.68,8.28C220.39,204.9,221,196.59,221,196.59Z"></path><path class="cls-28" d="M214,183.89s2.9,3.66,2.72,5.4-4,2.7-4,2.7,4.68-.19,5.71-1.83C219.25,188.85,214,183.89,214,183.89Z"></path><path class="cls-28" d="M220.55,175.11c-.62,1-.69,5.86,0,5.16s3-2.34,4.32-2.46a6.34,6.34,0,0,1,3.1.94l1.61-1.76s1.85-2.26,1.63-2.65C230.27,172.67,221.91,172.89,220.55,175.11Z"></path><path class="cls-29" d="M221.63,180a3,3,0,0,0,2.64,3.34,3,3,0,0,0,3.47-2.4,3,3,0,0,0-2.64-3.34A3,3,0,0,0,221.63,180Z"></path><path class="cls-30" d="M231.3,174.46a13.77,13.77,0,0,0-6.2-.79,26.5,26.5,0,0,0-4.55,1.66,1,1,0,0,1-.09-1.47C221.21,173,229,170.37,231.3,174.46Z"></path><path class="cls-29" d="M220.24,180.62s1.73-2.83,4.52-3.23,4,2.43,4,2.43a5.86,5.86,0,0,0-4.56-.91A9.64,9.64,0,0,0,220.24,180.62Z"></path><path class="cls-19" d="M225.28,179.34a.67.67,0,0,0,.59.74.66.66,0,0,0,.76-.53.68.68,0,0,0-1.35-.21Z"></path><path class="cls-28" d="M202.8,173.49c5.52-.11,5.12.14,5.28,1s-1,5.89-1,5.89-2.06-2.28-4.16-2.43a8.45,8.45,0,0,0-5.36,1.75s-3-4.54-3-6C194.52,173.29,202.8,173.49,202.8,173.49Z"></path><path class="cls-30" d="M194.32,173.86s4.82-2.29,9.1-1.73c3.71.49,4.41.7,4.57,1.36s.51,1.86-.64,1.29S198.06,172.94,194.32,173.86Z"></path><path class="cls-29" d="M207.34,180.64a6.6,6.6,0,0,0-5.08-2.76,6.93,6.93,0,0,0-5.56,2.55,8.64,8.64,0,0,1,5.62-1.23A13.43,13.43,0,0,1,207.34,180.64Z"></path><path class="cls-29" d="M205.72,181.2a3.12,3.12,0,1,1-3.25-2.76A3,3,0,0,1,205.72,181.2Z"></path><path class="cls-19" d="M203.27,180a.65.65,0,0,0,.71.61.68.68,0,0,0,.66-.68.69.69,0,0,0-1.37.07Z"></path><path class="cls-28" d="M197.54,197.23a3.86,3.86,0,0,1-.23-1.87,2.33,2.33,0,0,1,1.21-1.74,2.75,2.75,0,0,1,2-.19,3.62,3.62,0,0,1,1.63.83c-.62.09-1.18.1-1.7.15a3.72,3.72,0,0,0-1.35.33,1.94,1.94,0,0,0-.85.91,7.46,7.46,0,0,0-.32.74A3.54,3.54,0,0,1,197.54,197.23Z"></path><path class="cls-31" d="M200.2,217.16l-10.5,8.33,1.52,15.68,6.36.83-6,3c1,10.36-1,13.13,11.26,17.82Z"></path><path class="cls-31" d="M216.21,217.3l11.29,5.4.86,16.16L222.22,241l6.32,1.72c.49,10.42,2.21,12.88-9.23,20Z"></path><path class="cls-21" d="M239.38,254.72c1.51,0,4-.52,7-.61a29.06,29.06,0,0,1,9.27,1.11c2.72.9,4.62,2.37,5.33,4.27s.25,4.22-.53,5-1.87,0-3.26-.54a16.14,16.14,0,0,0-4.51-1.09c-1.44-.12-2.63,0-2.93.45s.29,1.1,1.4,1.4,2.73.19,3.39.51.33,1.06-.72,1.58a7.29,7.29,0,0,1-4.39.45,11,11,0,0,1-4.08-2.23,9.83,9.83,0,0,0-3.37-1.7c-1.22-.39-2.69-.76-3.59-2.2a11.63,11.63,0,0,1-1.17-5.58C237.31,254.32,237.87,254.75,239.38,254.72Z"></path><polygon class="cls-22" points="233.4 254.87 238.61 254.08 239.89 263.06 234.69 263.85 233.4 254.87"></polygon><path class="cls-23" d="M235.8,253.15q.84,5.82,1.7,11.62c-76.57,9.49-62.68-43.12-52-41.32C199.15,225.74,181,257.64,235.8,253.15Z"></path><path class="cls-24" d="M197.72,164.2a16.77,16.77,0,0,1-3.18,7.45c-2.35,2.81-4.58,4.8-4.67,8.85-.09,4.46,2.5,8.79,1.73,13.19s-4.59,7.75-4.55,12.12a31.4,31.4,0,0,1,.25,4.09c-.17,1.36-1.25,2.78-2.56,2.57-1.8-.3-1.94-2.86-1.88-4.73A15.92,15.92,0,0,0,179,196.45c-2.66-3.2-2.83-8.11-1.28-12,2.14-5.36,2.6-5.52,3.83-11.84s3.38-17.84,8.44-21.15,14.11-6.79,22.39-6,16.57,1.26,21.63,9.94,5.06,14.26,5.83,20.37c.45,3.62,0,7.55-2.23,10.53-1.4-.71-1.88-2.5-2-4.1-.26-3.06-.42-5.29-3.06-6.92-2.83-1.76-5.74-2.88-7.53-6a34.53,34.53,0,0,0-2.13-4c-1.66-2.15-4.5-2.89-7.16-3.17-5.37-.56-10.83.25-16.16-.63a3.4,3.4,0,0,1-1.9-.76,1.38,1.38,0,0,1-.15-1.89A11.35,11.35,0,0,1,197.72,164.2Z"></path><rect class="cls-32" x="373.96" y="285.06" width="6.46" height="114.89" transform="translate(754.38 685.01) rotate(-180)"></rect><rect class="cls-33" x="370.73" y="285.06" width="45.87" height="24.42" transform="translate(787.32 594.54) rotate(-180)"></rect><rect class="cls-34" x="137.81" y="271.7" width="302.8" height="13.36" rx="4.54"></rect><path class="cls-7" d="M83.35,271.7h59a4.55,4.55,0,0,0-4.55,4.54v4.28a4.55,4.55,0,0,0,4.55,4.54h-59a4.55,4.55,0,0,1-4.54-4.54v-4.28A4.54,4.54,0,0,1,83.35,271.7Z"></path><rect class="cls-33" x="90.03" y="285.06" width="6.46" height="114.89" transform="translate(186.51 685.01) rotate(-180)"></rect><rect class="cls-32" x="96.49" y="285.06" width="6.46" height="114.89" transform="translate(199.43 685.01) rotate(-180)"></rect><rect class="cls-33" x="135.89" y="285.06" width="6.46" height="122.68" transform="translate(278.25 692.79) rotate(-180)"></rect><rect class="cls-32" x="142.36" y="285.06" width="6.46" height="122.68" transform="translate(291.17 692.79) rotate(-180)"></rect><rect class="cls-33" x="91.34" y="285.06" width="49.71" height="34.86" transform="translate(232.38 604.97) rotate(-180)"></rect><rect class="cls-33" x="367.5" y="285.06" width="6.46" height="114.89" transform="translate(741.46 685.01) rotate(-180)"></rect><rect class="cls-33" x="413.37" y="285.06" width="6.46" height="122.68" transform="translate(833.19 692.79) rotate(-180)"></rect><rect class="cls-32" x="419.83" y="285.06" width="6.46" height="122.68" transform="translate(846.11 692.79) rotate(-180)"></rect><rect class="cls-7" x="148.82" y="285.06" width="264.55" height="34.59"></rect><rect class="cls-35" x="295.84" y="184.01" width="100.23" height="68.06" rx="2.06"></rect><rect class="cls-20" x="295.84" y="184.01" width="100.23" height="68.06" rx="2.06"></rect><path class="cls-36" d="M394,184h-96.1a2.07,2.07,0,0,0-2.07,2.07V250a2.07,2.07,0,0,0,2.07,2.06h3.53a2,2,0,0,1-2-1.95V189.68a2,2,0,0,1,2-2h92.65a2,2,0,0,1,2,2v-3.6A2.07,2.07,0,0,0,394,184Z"></path><rect class="cls-37" x="333.9" y="209.79" width="24.11" height="60.12" rx="1.79"></rect><path class="cls-36" d="M333.9,256v13.12a1.79,1.79,0,0,0,1.79,1.78h20.54a1.79,1.79,0,0,0,1.79-1.78V256Z"></path><rect class="cls-37" x="321.83" y="265.58" width="48.26" height="6.19" rx="2.06"></rect><path class="cls-38" d="M342,232.59l9.11,12.15a9.2,9.2,0,0,1-6.14,2.47,7,7,0,0,1-7.08-8.11A9.43,9.43,0,0,1,342,232.59Z"></path><path class="cls-39" d="M347,231a7,7,0,0,1,7.08,8.11,9.3,9.3,0,0,1-3,5.64L342,232.59A9,9,0,0,1,347,231Z"></path><path class="cls-7" d="M428.46,257.65a6.62,6.62,0,0,1,0,1.52c5.87-1.78,4.87,3.35-.14,4.8a7.51,7.51,0,0,1-2,.31,9.22,9.22,0,0,1-2.4,1.94,11.21,11.21,0,0,0,4.23-.44C436.6,263.35,437.14,255.32,428.46,257.65Z"></path><rect class="cls-33" x="412.83" y="266.87" width="10.69" height="3.14"></rect><path class="cls-7" d="M406.26,255.83c0,5.34,3.37,13.33,11,13.25,10.93-.12,12.09-9.19,12.32-13.25A136,136,0,0,0,406.26,255.83Z"></path><path class="cls-32" d="M418.37,269c-7.65.08-11-7.85-11-13.2l-1.07.08c0,5.34,3.37,13.33,11,13.25a16.17,16.17,0,0,0,2.4-.2C419.27,268.92,418.83,269,418.37,269Z"></path><path class="cls-32" d="M429.62,255.87c0-.65-5.23-1.18-11.68-1.18s-11.68.53-11.68,1.18,5.23,1.18,11.68,1.18S429.62,256.52,429.62,255.87Z"></path><path class="cls-40" d="M428.87,255.69c0-.37-4.89-.68-10.93-.68s-10.92.31-10.92.68,4.89.68,10.92.68S428.87,256.07,428.87,255.69Z"></path><path class="cls-7" d="M435,268.64c-10.32,1.29-24.2,1.29-33.4-.16a.54.54,0,0,0-.26.5c0,.67,9.2,2.79,11.09,2.79h11.41c1.79,0,11.33-2.14,11.33-2.78A.45.45,0,0,0,435,268.64Z"></path><path class="cls-32" d="M419.57,270.34a127.52,127.52,0,0,1-18.08-1.21c1.05.79,9.2,2.64,11,2.64h11.41a59.56,59.56,0,0,0,10-2.15A134.61,134.61,0,0,1,419.57,270.34Z"></path><path class="cls-41" d="M119.1,260h3.17v-8.5H119.1c-.2,0-.37-.25-.37-.54s.17-.55.37-.55h29V261h-29c-.2,0-.37-.24-.37-.54S118.9,260,119.1,260Z"></path><rect class="cls-42" x="148.1" y="250.36" width="25.55" height="10.67" transform="translate(321.75 511.4) rotate(180)"></rect><path class="cls-42" d="M171.29,255.7c0,2.94,1.06,5.33,2.36,5.33s2.36-2.39,2.36-5.33-1.06-5.34-2.36-5.34S171.29,252.75,171.29,255.7Z"></path><path class="cls-41" d="M145.83,255.7c0,2.94,1,5.33,2.35,5.33s2.36-2.39,2.36-5.33-1-5.34-2.36-5.34S145.83,252.75,145.83,255.7Z"></path><path class="cls-19" d="M145.14,255.7c0,2.34.84,4.25,1.88,4.25s1.88-1.91,1.88-4.25-.84-4.25-1.88-4.25S145.14,253.35,145.14,255.7Z"></path><path class="cls-19" d="M120,260h27v-8.5H120c.5,0,.9,1.9.9,4.25S120.5,260,120,260Z"></path><path class="cls-43" d="M165.61,270.62h-3.17v-8.51h3.17c.2,0,.37-.24.37-.54s-.17-.54-.37-.54h-32V271.7h32c.2,0,.37-.24.37-.54S165.81,270.62,165.61,270.62Z"></path><rect class="cls-44" x="111.06" y="261.03" width="22.56" height="10.67"></rect><path class="cls-44" d="M113.42,266.36c0,2.95-1.06,5.34-2.36,5.34s-2.36-2.39-2.36-5.34,1.06-5.33,2.36-5.33S113.42,263.42,113.42,266.36Z"></path><path class="cls-43" d="M135.9,266.36c0,2.95-1.06,5.34-2.36,5.34s-2.36-2.39-2.36-5.34,1-5.33,2.36-5.33S135.9,263.42,135.9,266.36Z"></path><path class="cls-19" d="M163.81,266.36c0-2.34.4-4.25.9-4.25h-30c-1,0-1.88,1.91-1.88,4.25s.85,4.26,1.88,4.26h30C164.21,270.62,163.81,268.71,163.81,266.36Z"></path><path class="cls-45" d="M476.56,387.5c1.12,4.27,4.8,13.36,8,15.44s11,3.65,14.82,3.28,6.07,1.14,2,2-11.08,1.06-16.11-1c-4-1.63-9-5.68-10.49-11.85Z"></path><path class="cls-46" d="M457,403.3s-14-2.32-9.28,4.92h15.45Z"></path><path class="cls-46" d="M423.19,348.33c-2.76-1.94-4.6-1.2-5.52,3.13s-2.85,6.16-2,7.27,4.14,1.38,6.35-3S423.19,348.33,423.19,348.33Z"></path><path class="cls-45" d="M471.61,400.7c-2.95,1.84-4.88,1.84-3.68,4.05.43.8.91,1.62,1.25,2.38.61,1.35.78,2.52-.52,3.05-2,.83-5.43-.65-8.65,0s-5.24,2.16-8.93,2-5.43-3-3.68-5c1.57-1.79,10.13-.95,11.92-.75l.32,0s-7.55-2.85-6.44-9.67,2.21-7.91.46-9.85a66.16,66.16,0,0,0-10.21-8.56c-2.95-1.75-17.86-14.08-18.69-16v0c-.21.24-3.41,4-6.25,2.74s-1.75-3.65,0-5.6a11.9,11.9,0,0,0,1.84-3.13v0a25.77,25.77,0,0,0,1-2.85,21.89,21.89,0,0,1,1-6.25h0c.08-.2.16-.38.25-.56a17.89,17.89,0,0,1,2.82-3.31c1-1,2-2,2.93-2.92a20.17,20.17,0,0,0,1.8-2.08c1.75-2.45,5.44-9.55,1.84-12.39s-8.93-8-8.84-11.6a15.84,15.84,0,0,1,.24-2.35c.42-2.48,1.39-4.36,2.53-4.93,1.62-.81,3.22.37,6.07,2.12s6.35,2.21,9.85,2.58,5.16,1.93,7.27,2.58,4,4.78,5.15,7.73,2.86,7.73,1.66,10.67a9,9,0,0,1-3.95,4.3,42.27,42.27,0,0,0-2.13,6.38,10.35,10.35,0,0,0,2.21,8.38c2.86,3.77,8.56,7.45,12.89,14.17s11.51,17.21,11.88,23.29S474.55,398.86,471.61,400.7Z"></path><path d="M442.42,317.22c.88-.86,1.18-2,.67-2.5s-1.64-.25-2.52.61-1.18,2-.67,2.51S441.54,318.08,442.42,317.22Z"></path><path class="cls-47" d="M445.53,315.27c-.41.3-1.16.05-2.22-1.13s.16-1.6,1.39-1.21A1.64,1.64,0,0,1,445.53,315.27Z"></path><path class="cls-47" d="M424.76,362.41v0c-.21.24-3.41,4-6.25,2.74s-1.75-3.65,0-5.6a11.9,11.9,0,0,0,1.84-3.13v0c1.66-3.76,4.5-2.47,5.33-.54S426.78,359,424.76,362.41Z"></path><path class="cls-47" d="M438.75,322.92a68.55,68.55,0,0,0-.37,7.74c-.08,3.17-4.73,8.86-10,9.87a20.17,20.17,0,0,0,1.8-2.08c1.75-2.45,5.44-9.55,1.84-12.39s-8.93-8-8.84-11.6a15.84,15.84,0,0,1,.24-2.35l1.24.68a51.74,51.74,0,0,0,9.57,5.9C436.17,319.43,439.12,319.89,438.75,322.92Z"></path><path class="cls-47" d="M468.66,410.18c-2,.83-5.43-.65-8.65,0s-5.24,2.16-8.93,2-5.43-3-3.68-5c1.57-1.79,10.13-.95,11.92-.75l.32,0s6.4-.33,9.54.63C469.79,408.48,470,409.65,468.66,410.18Z"></path><path class="cls-47" d="M430.8,352.45c-.56-1.17,2.25-2,3.64-1.63s3.6,1,3.08,2.51-2.64,2.2-3.27,1.86-1-1.57-1.72-1.84S431.26,353.38,430.8,352.45Z"></path><path d="M427.93,312.52c2.24-1.29,1.52-3.86,0-5.46h0l-.21-.05a2.48,2.48,0,0,0-1.76.17c-1.14.57-2.1,2.45-2.53,4.92C423.93,314.43,425.68,313.81,427.93,312.52Z"></path><path class="cls-45" d="M450.62,337.83s-3.86,1.11-7.18,2.21-8-.73-8.37-2.88,4.42-6,7.84-8.9a10.15,10.15,0,0,0,3.89-9.11Z"></path><g class="cls-48"><path d="M441.27,340.65a9.37,9.37,0,0,1-4.62-1.23,3.5,3.5,0,0,1-1.85-2.21c-.36-2.09,3.48-5.37,6.87-8.25l1.06-.91a9.89,9.89,0,0,0,3.8-8.89.28.28,0,0,1,.26-.29.27.27,0,0,1,.29.27,10.38,10.38,0,0,1-4,9.33l-1.06.91c-3.12,2.65-7,5.95-6.69,7.73a3,3,0,0,0,1.59,1.84,8.39,8.39,0,0,0,6.43.83c3.28-1.09,7.15-2.2,7.19-2.21a.28.28,0,0,1,.34.19.27.27,0,0,1-.19.34s-3.9,1.12-7.17,2.21A7.16,7.16,0,0,1,441.27,340.65Z"></path></g><g class="cls-48"><path d="M433.48,356.54a.27.27,0,0,1-.22-.11,9.74,9.74,0,0,0-5.7-3.48c-3.84-.7-4.77-.14-5.83,1.23a.27.27,0,0,1-.39,0,.27.27,0,0,1,0-.38c1.25-1.6,2.41-2.15,6.37-1.44a10.22,10.22,0,0,1,6,3.7.29.29,0,0,1-.07.39A.24.24,0,0,1,433.48,356.54Z"></path></g><g class="cls-48"><path d="M433,364.26a5.21,5.21,0,0,1-3.56-1.25,41.31,41.31,0,0,0-3-3.09.28.28,0,0,1,.37-.41,40,40,0,0,1,3,3.13,4.85,4.85,0,0,0,3.71,1,1.12,1.12,0,0,0,.87-.41.27.27,0,0,1,.37-.13.26.26,0,0,1,.13.36,1.56,1.56,0,0,1-1.29.73A4.31,4.31,0,0,1,433,364.26Z"></path></g><g class="cls-48"><path d="M454.93,389.75h-.05a.28.28,0,0,1-.22-.33,8.61,8.61,0,0,1,1.89-3.79.28.28,0,0,1,.39.39,8.27,8.27,0,0,0-1.74,3.52A.28.28,0,0,1,454.93,389.75Z"></path></g><g class="cls-48"><path d="M475.57,396.71a.3.3,0,0,1-.15,0,.27.27,0,0,1-.08-.38c1.27-1.9,1.27-5.87,1.27-5.91a.28.28,0,0,1,.28-.28h0a.29.29,0,0,1,.28.28c0,.17,0,4.17-1.37,6.22A.27.27,0,0,1,475.57,396.71Z"></path></g><g class="cls-48"><path d="M451.08,382.5a.23.23,0,0,1-.17-.07,20.4,20.4,0,0,0-8.16-4.5.28.28,0,1,1,.17-.53,20.93,20.93,0,0,1,8.34,4.61.27.27,0,0,1,0,.39A.28.28,0,0,1,451.08,382.5Z"></path></g><path d="M434.19,322.18a9.12,9.12,0,0,1-3.86-.95c-.35-.19-.73-.37-1.13-.55a11.94,11.94,0,0,1-3.81-2.53A5,5,0,0,1,423.9,313a.28.28,0,0,1,.36-.15.28.28,0,0,1,.16.36c-.42,1-.31,2.86,1.37,4.58a11.34,11.34,0,0,0,3.65,2.42c.4.19.79.36,1.16.57,1.43.78,4,1.1,4.53.71a.28.28,0,1,1,.33.44A2.28,2.28,0,0,1,434.19,322.18Z"></path><path class="cls-24" d="M214.69,215.82a4.09,4.09,0,0,0,3.63,2.19c2.81.2,9.18,1.86,11,2.07s3.08-2.78,3.08-2.78l-7.18-2-4.11-.45Z"></path><path class="cls-24" d="M201.94,215.8s-.27,2-4.08,1.86-5,.59-7.77,0-.2-2.06-.2-2.06H195Z"></path><path class="cls-49" d="M175.51,351.09h-.76V333.7a8.48,8.48,0,1,0-17,0v17.39H157V333.7a9.24,9.24,0,1,1,18.48,0Z"></path><polygon class="cls-50" points="144.38 412.72 196.12 412.72 193.38 347.15 141.64 347.15 144.38 412.72"></polygon><polygon class="cls-51" points="184.16 412.72 132.43 412.72 135.16 347.15 186.9 347.15 184.16 412.72"></polygon><polygon class="cls-49" points="184.16 412.72 190.14 407.2 196.12 412.72 184.16 412.72"></polygon><polygon class="cls-49" points="189.89 407.2 189.89 347.15 186.65 347.15 183.91 412.72 189.89 407.2"></polygon><circle class="cls-49" cx="151.17" cy="351.09" r="1.89"></circle><path class="cls-49" d="M170.05,351.09a1.89,1.89,0,1,1-1.89-1.89A1.89,1.89,0,0,1,170.05,351.09Z"></path><path class="cls-49" d="M169.26,351.09h-.76V333.7a8.48,8.48,0,1,0-16.95,0v17.39h-.77V333.7a9.24,9.24,0,1,1,18.48,0Z"></path><path class="cls-52" d="M141.51,363.31h-.76V349.36a6.72,6.72,0,1,0-13.44,0v13.95h-.76V349.36a7.48,7.48,0,1,1,15,0Z"></path><polygon class="cls-53" points="116.48 412.72 157.96 412.72 155.76 360.14 114.28 360.14 116.48 412.72"></polygon><polygon class="cls-54" points="148.37 412.72 106.89 412.72 109.09 360.14 150.57 360.14 148.37 412.72"></polygon><polygon class="cls-52" points="148.37 412.72 153.16 408.3 157.96 412.72 148.37 412.72"></polygon><polygon class="cls-52" points="152.97 408.3 152.97 360.14 150.37 360.14 148.17 412.72 152.97 408.3"></polygon><path class="cls-52" d="M123.43,363.31a1.52,1.52,0,1,1-1.51-1.52A1.52,1.52,0,0,1,123.43,363.31Z"></path><path class="cls-52" d="M137.06,363.31a1.52,1.52,0,1,1-1.52-1.52A1.52,1.52,0,0,1,137.06,363.31Z"></path><path class="cls-52" d="M136.5,363.31h-.76V349.36a6.72,6.72,0,1,0-13.44,0v13.95h-.76V349.36a7.48,7.48,0,1,1,15,0Z"></path><path class="cls-45" d="M105.83,326.42c2.06,1,2,6.05,1.49,8.66s-4.75,9.68-7.17,12.75-2.6,6.14-2,12.66,4.75,16.57,3.16,22.62a28.5,28.5,0,0,1-8.56,13.4s-1.4,7.16-1.12,9,2.52,1.95,2.61,3.9S93.54,413,88,412.61s-4.28-2.05-3.63-5.77a12.76,12.76,0,0,0-1.12-7.17s-3.16,1.49-14.52,1.49-24.94,5.4-27.36,7.63c0,0,7.17-.09,7.63,2.14s-2.42,2.35-9.21,1.73-13.5,2.37-13.5-1.17c0,0,.84-2.7-2.42-4.93s-2.7-10.05,1.59-15.45S31.56,385,38.91,382,64,374.91,67.67,372.4s7.54-5.95,9.31-7.16,1.86-5.78,1.58-7.64c0,0-3.35-3.25-2.51-6.42s3.16-7.82,3.16-9,3.35-4.56,6.89-6,6.89-1.76,9.49-3.72S103,325,105.83,326.42Z"></path><path class="cls-47" d="M107.46,329.71c-2,2.13-6.71,6.94-9.38,9.6-3.49,3.49-4.26,4.75-3.28,5.94s.84,3.07.42,7.05c-.37,3.55-.44,9.59,3.79,12.84a40.75,40.75,0,0,1-.81-4.65c-.65-6.52-.47-9.59,2-12.66s6.7-10.14,7.17-12.75A18.53,18.53,0,0,0,107.46,329.71Z"></path><path class="cls-45" d="M22.39,397c-2.37,10-6,13.39-11.49,14.5s-10.8-.93-10.89,0,4.84,2.33,9.3,2.33,11.92-1.3,14.71-9.4Z"></path><path d="M93.05,338.58c-.81-.81-1.08-1.86-.6-2.34s1.53-.22,2.34.6,1.08,1.85.6,2.34S93.86,339.39,93.05,338.58Z"></path><path class="cls-47" d="M90.45,336.19c.22.32.83.32,1.9-.28s.28-1.21-.72-1.23A1.26,1.26,0,0,0,90.45,336.19Z"></path><path d="M105.83,326.42c-1.29-.64-3,.17-4.77,1.42-.86,1.24.21,2.68,1.28,3.52a4.46,4.46,0,0,0,4.65.18,1.65,1.65,0,0,0,.53-1.42C107.34,328.43,106.85,326.93,105.83,326.42Z"></path><g class="cls-48"><path d="M87,360.13a16.1,16.1,0,0,1-7.8-1.95.27.27,0,0,1-.08-.38.28.28,0,0,1,.39-.08c2.22,1.48,7.42,2.32,9.75,1.57,3.54-1.13,5.2-2.91,4.92-5.28-.2-1.78-1.7-2.84-3.44-4.06a26.42,26.42,0,0,1-2.57-2c-2.71-2.5-4.35-4.22-4.21-7.13a.28.28,0,1,1,.56,0c-.13,2.73,1.44,4.32,4,6.7A23,23,0,0,0,91,349.49c1.85,1.3,3.44,2.42,3.68,4.45.31,2.68-1.48,4.66-5.31,5.88A8.2,8.2,0,0,1,87,360.13Z"></path></g><g class="cls-48"><path d="M85.1,372H85c-4-1.5-5.88-7.54-6-7.79a.28.28,0,0,1,.53-.17c0,.06,1.89,6,5.63,7.43a.29.29,0,0,1,.16.36A.28.28,0,0,1,85.1,372Z"></path></g><g class="cls-48"><path d="M84.05,380.36a.27.27,0,0,1-.19-.08c-5.53-5.17-6.57-14.46-6.58-14.55a.3.3,0,0,1,.25-.31.29.29,0,0,1,.31.25c0,.09,1,9.17,6.4,14.21a.28.28,0,0,1,0,.39A.29.29,0,0,1,84.05,380.36Z"></path></g><g class="cls-48"><path d="M83.07,399.14a.28.28,0,0,1-.25-.16c-.06-.13-1.58-3.22-.35-5.83,1.13-2.38,0-6.11-.06-6.14a.27.27,0,0,1,.18-.35.27.27,0,0,1,.35.18c0,.16,1.26,4,0,6.55-1.12,2.36.33,5.31.34,5.34a.28.28,0,0,1-.12.38A.28.28,0,0,1,83.07,399.14Z"></path></g><g class="cls-48"><path d="M93.06,395.86l-.09,0a.28.28,0,0,1-.18-.35c0-.05,1.5-4.44,1.34-6.52a.27.27,0,0,1,.26-.3.27.27,0,0,1,.3.25c.17,2.2-1.31,6.56-1.37,6.75A.29.29,0,0,1,93.06,395.86Z"></path></g><g class="cls-48"><path d="M41.12,408.49a.28.28,0,0,1-.22-.11A.28.28,0,0,1,41,408c.06,0,5.42-4.11,5.76-9.64s-3.94-6.61-4-6.62a.28.28,0,1,1,.14-.54c.05,0,4.75,1.31,4.39,7.2s-5.74,9.87-6,10.05A.34.34,0,0,1,41.12,408.49Z"></path></g><path class="cls-47" d="M27.18,413c2.06.88,7.29-.81,12.57-.34,6.79.62,9.68.51,9.21-1.73s-7.63-2.14-7.63-2.14c-6.7.45-14.16,4.2-14.16,4.2Z"></path><path class="cls-47" d="M91.68,405.54a16.74,16.74,0,0,1,.2-3.4c-3.9-.74-6.3-.08-7.64.67a11.21,11.21,0,0,1,.09,4c-.65,3.72-2,5.4,3.63,5.77s6.42-1.21,6.33-3.17S92,407.4,91.68,405.54Z"></path><path d="M98.78,343.22a.28.28,0,0,1-.27-.2.29.29,0,0,1,.2-.35c3.7-1,8.56-9.93,8.22-12.08a.27.27,0,0,1,.23-.32.28.28,0,0,1,.32.23c.38,2.38-4.49,11.61-8.63,12.71Z"></path><path class="cls-47" d="M93.87,383c1.35-.56,4.71,1.16,4.48,3.92s-1.37,3.57-2.24,3.37c-.72-.17-.64-2.46-1.7-3.58C93.16,385.38,91.44,384,93.87,383Z"></path><g class="cls-48"><path d="M23,404.79a.27.27,0,0,1-.26-.18,14.22,14.22,0,0,1-.85-5.33.28.28,0,1,1,.55.05,13.92,13.92,0,0,0,.83,5.09.29.29,0,0,1-.17.36Z"></path></g></g></g></g></svg> 