<?xml version="1.0" encoding="UTF-8"?> <svg xmlns="http://www.w3.org/2000/svg" xmlns:xlink="http://www.w3.org/1999/xlink" id="Megan" viewBox="0 0 583 493.9"><defs><style>.cls-1{mask:url(#mask);filter:url(#luminosity-noclip-2);}.cls-2{mix-blend-mode:multiply;fill:url(#linear-gradient);}.cls-3{fill:none;}.cls-4{mask:url(#mask-2);}.cls-5{fill:#f6f9fc;}.cls-6{fill:#dde1e5;}.cls-7{fill:#d2dbe1;}.cls-8{fill:#f6fbff;}.cls-9{fill:#c2cfde;}.cls-10{fill:#848ea2;}.cls-11{fill:#4b4b4b;}.cls-12{fill:#6c6c6c;}.cls-13{fill:#3a3a3a;}.cls-14{fill:#d0658c;}.cls-15{fill:#c43f6f;}.cls-16{fill:#80c75b;}.cls-17{fill:#6abd35;}.cls-18{fill:#52b200;}.cls-19{fill:#375861;}.cls-20,.cls-23{fill:#f2c3b4;}.cls-20,.cls-21,.cls-24,.cls-25,.cls-26,.cls-31,.cls-33{fill-rule:evenodd;}.cls-21{fill:#fdfdfd;}.cls-22{fill:#d4a634;}.cls-24{fill:#183463;}.cls-25,.cls-27{fill:#fff;}.cls-26{fill:#19191f;}.cls-28{fill:#eabaad;}.cls-29{fill:#373737;}.cls-30{fill:#b68607;}.cls-31{fill:#9c7036;}.cls-32{fill:#ebf1f8;}.cls-33{fill:#274b73;}.cls-34{fill:#c3cbd7;}.cls-35{fill:#9ea8b3;}.cls-36{fill:#abd8f7;}.cls-37{fill:#4a6c78;}.cls-38{fill:#05181b;opacity:0.2;}.cls-39{fill:#6a8a94;}.cls-40{fill:#81a5ac;}.cls-41{fill:#dedbe1;}.cls-42{fill:#a181b9;}.cls-43{fill:#81cff4;}.cls-44{fill:#37aef4;}.cls-45{fill:#f9f9fa;}.cls-46{fill:#2d92d1;}.cls-47{fill:#fce000;}.cls-48{clip-path:url(#clip-path);}.cls-49{fill:#f7966b;}.cls-50{fill:#3ba7c7;}.cls-51{fill:#df7348;}.cls-52{fill:#2f8fa4;}.cls-53{filter:url(#luminosity-noclip);}</style><filter id="luminosity-noclip" x="40.22" y="-8439.28" width="406.72" height="32766" color-interpolation-filters="sRGB"><feFlood flood-color="#fff" result="bg"></feFlood><feBlend in="SourceGraphic" in2="bg"></feBlend></filter><mask id="mask" x="40.22" y="-8439.28" width="406.72" height="32766" maskUnits="userSpaceOnUse"><g class="cls-53"></g></mask><linearGradient id="linear-gradient" x1="243.58" y1="423.79" x2="243.58" y2="1.16" gradientUnits="userSpaceOnUse"><stop offset="0" stop-color="#fff"></stop><stop offset="1" stop-color="gray"></stop></linearGradient><filter id="luminosity-noclip-2" x="40.22" y="43.44" width="406.72" height="371.99" color-interpolation-filters="sRGB"><feFlood flood-color="#fff" result="bg"></feFlood><feBlend in="SourceGraphic" in2="bg"></feBlend></filter><mask id="mask-2" x="40.22" y="43.44" width="406.72" height="371.99" maskUnits="userSpaceOnUse"><g class="cls-1"><path class="cls-2" d="M425.76,358.86a131.25,131.25,0,0,1-44.07,56.57H170.4c-40.47-23.51-68.41-60.89-86-102.14-.75-1.76-1.52-3.52-2.31-5.3C67.37,274.54,48.83,241.54,41.74,205.6c-12.69-64.19,57.46-84,95.71-120.3,14-13.33,21.71-33.11,41.89-39.38,22.69-7,46.89,1.48,61.87,18.5,34.13,38.77,90,80.26,124.28,91.68C433.53,178.74,474.14,241.45,425.76,358.86Z"></path></g></mask><clipPath id="clip-path"><polygon class="cls-3" points="416.34 274.26 409.96 273.97 416.9 266.29 423.27 266.57 416.34 274.26"></polygon></clipPath></defs><g class="cls-4"><path class="cls-5" d="M425.76,358.86a131.81,131.81,0,0,1-33.58,48c-3.35,3-2.2,2.86-10.49,2.86H170.4c-40.47-23.51-68.41-55.2-86-96.45-.75-1.76-1.52-3.52-2.31-5.3C67.37,274.54,48.83,241.54,41.74,205.6c-12.69-64.19,57.46-84,95.71-120.3,14-13.33,21.71-33.11,41.89-39.38,22.69-7,46.89,1.48,61.87,18.5,34.13,38.77,90,80.26,124.28,91.68C433.53,178.74,474.14,241.45,425.76,358.86Z"></path></g><ellipse class="cls-6" cx="252.56" cy="404.4" rx="226.9" ry="16.04"></ellipse><polyline class="cls-7" points="394.11 195.62 394.11 201.14 318.93 201.14 318.93 68.03 394.11 68.03 394.11 73.56"></polyline><polyline class="cls-8" points="394.11 195.62 323.88 195.62 323.88 73.56 394.11 73.56"></polyline><path class="cls-7" d="M323.88,132.51v4.16h69.4c0-.69,0-1.38,0-2.08h0c0-.7,0-1.39,0-2.08Z"></path><path class="cls-7" d="M323.88,164.07v1.35h66.75c.28-.45.54-.9.8-1.35Z"></path><path class="cls-7" d="M323.88,103.82v1.35h67.59c-.26-.45-.52-.9-.79-1.35Z"></path><rect class="cls-7" x="389.95" y="68.03" width="4.17" height="133.11"></rect><rect class="cls-7" x="356.8" y="73.56" width="1.35" height="122.06"></rect><polyline class="cls-7" points="389.94 73.56 389.94 68.03 465.13 68.03 465.13 201.14 389.94 201.14 389.94 195.62"></polyline><polyline class="cls-8" points="389.94 73.56 460.18 73.56 460.18 195.62 389.94 195.62"></polyline><path class="cls-7" d="M460.18,136.67v-4.16H390.77c0,.69,0,1.38,0,2.08h0c0,.7,0,1.39,0,2.08Z"></path><path class="cls-7" d="M460.18,105.11v-1.35H393.42c-.27.45-.54.9-.8,1.35Z"></path><path class="cls-7" d="M460.18,165.35V164H392.59c.25.46.52.9.79,1.35Z"></path><rect class="cls-7" x="389.95" y="68.03" width="4.17" height="133.11"></rect><rect class="cls-7" x="425.91" y="73.56" width="1.35" height="122.06"></rect><rect class="cls-9" x="241.68" y="327.72" width="3.8" height="54.32" transform="translate(487.16 709.75) rotate(-180)"></rect><rect class="cls-10" x="237.88" y="327.72" width="3.8" height="54.32" transform="translate(479.56 709.75) rotate(-180)"></rect><path class="cls-11" d="M218.33,402.15c0,2.37.8,4.3,1.8,4.3s1.8-1.93,1.8-4.3-.81-4.29-1.8-4.29S218.33,399.78,218.33,402.15Z"></path><rect class="cls-11" x="220.13" y="397.86" width="5.13" height="8.59" transform="translate(445.38 804.3) rotate(-180)"></rect><path class="cls-12" d="M223.45,402.15c0,2.37.81,4.3,1.8,4.3s1.8-1.93,1.8-4.3-.8-4.29-1.8-4.29S223.45,399.78,223.45,402.15Z"></path><path class="cls-11" d="M241.68,386.18v6.65L195,399.38a.65.65,0,0,1-.75-.65v-5.9Z"></path><polygon class="cls-13" points="194.2 392.83 194.2 394.29 241.68 387.02 241.68 386.18 194.2 392.83"></polygon><polygon class="cls-13" points="241.68 386.18 217.94 399.49 217.94 392.83 229.37 389.63 226.5 389.08 241.68 386.18"></polygon><rect class="cls-11" x="217.94" y="392.83" width="5.63" height="6.65"></rect><polygon class="cls-12" points="241.68 392.83 223.57 399.49 223.57 392.83 241.68 386.18 241.68 392.83"></polygon><polygon class="cls-13" points="241.68 386.18 233.27 386.18 233.27 388.06 241.68 386.18"></polygon><path class="cls-12" d="M265,402.15c0,2.37-.8,4.3-1.8,4.3s-1.8-1.93-1.8-4.3.81-4.29,1.8-4.29S265,399.78,265,402.15Z"></path><rect class="cls-12" x="258.11" y="397.86" width="5.13" height="8.59"></rect><path class="cls-11" d="M259.91,402.15c0,2.37-.81,4.3-1.8,4.3s-1.8-1.93-1.8-4.3.8-4.29,1.8-4.29S259.91,399.78,259.91,402.15Z"></path><path class="cls-11" d="M241.68,386.18v6.65l46.73,6.55a.65.65,0,0,0,.75-.65v-5.9Z"></path><polygon class="cls-13" points="289.16 392.83 289.16 394.29 241.68 387.02 241.68 386.18 289.16 392.83"></polygon><polygon class="cls-13" points="241.68 386.18 265.42 399.49 265.42 392.83 253.99 389.63 256.86 389.08 241.68 386.18"></polygon><rect class="cls-12" x="259.78" y="392.83" width="5.63" height="6.65"></rect><polygon class="cls-11" points="241.68 392.83 259.79 399.49 259.79 392.83 241.68 386.18 241.68 392.83"></polygon><path class="cls-11" d="M289.16,402.15a4.3,4.3,0,1,0-4.3,4.3A4.29,4.29,0,0,0,289.16,402.15Z"></path><polygon class="cls-13" points="241.68 386.18 250.09 386.18 250.09 388.06 241.68 386.18"></polygon><path class="cls-13" d="M233.27,377.88h16.81a0,0,0,0,1,0,0V385a1.15,1.15,0,0,1-1.15,1.15H234.43a1.15,1.15,0,0,1-1.15-1.15v-7.15A0,0,0,0,1,233.27,377.88Z" transform="translate(483.36 764.07) rotate(-180)"></path><path class="cls-11" d="M194.2,402.15a4.3,4.3,0,1,1,4.3,4.3A4.29,4.29,0,0,1,194.2,402.15Z"></path><path class="cls-14" d="M231.24,202.49a9.73,9.73,0,0,0-9.52-8H158.45l18.08,111.93H250.3Z"></path><path class="cls-14" d="M302.42,306.45H213.27v19.46h89.15a9.73,9.73,0,0,0,0-19.46Z"></path><path class="cls-15" d="M239,325.91H178.75a9.73,9.73,0,0,1-9.57-8L148.66,206a9.72,9.72,0,0,1,19.13-3.51l19.06,104H239a9.73,9.73,0,0,1,0,19.46Z"></path><path class="cls-11" d="M241.68,325.91v8.88H193.27a5,5,0,0,1-5-5v-3.89Z"></path><path class="cls-12" d="M244,325.91h51.08a0,0,0,0,1,0,0v8.89a0,0,0,0,1,0,0H241.68a0,0,0,0,1,0,0v-6.56A2.33,2.33,0,0,1,244,325.91Z" transform="translate(536.77 660.7) rotate(-180)"></path><path class="cls-11" d="M241.62,377.88h6a2.48,2.48,0,0,1,2.48,2.48v5.82H239.15v-5.82A2.48,2.48,0,0,1,241.62,377.88Z"></path><g id="Megan-2" data-name="Megan"><path class="cls-16" d="M457.15,306.17s22-20,9.51-30.53,21-13.52,18-32.54-19.53-13-6-34.55-9.51-14.52-5-26.53,4.51-37.55-4-30-5.51,34-12,33.54-18.52,6.51-9,25.54-25.53,12.51-14,37.54,8,19,6,25S440.63,289.15,457.15,306.17Z"></path><path class="cls-17" d="M460.16,343.72s-4-43.55,2-43.55,4.5,1,7-17.52,9.51-37,15-30,10-25.53,17.52-17.52-13.52,27-7.51,33,3,13.51-9.51,27,13,15,3.5,27S460.16,343.72,460.16,343.72Z"></path><path class="cls-18" d="M469.84,166.67c-2.89,18.08-5,36.26-6.85,54.47s-3.29,36.45-4.34,54.72c-.14,2.28-.3,4.56-.41,6.85l-.32,6.85c-.2,4.57-.48,9.14-.61,13.71-.28,9.15-.63,18.29-.69,27.44-.05,4.57-.17,9.14-.15,13.72l0,13.72c0,4.58.1,9.15.2,13.72l.3,13.72-1,.1a65.48,65.48,0,0,1-.45-8.13l.06-4.05.21-4c.05-1.35.22-2.69.33-4s.21-2.69.39-4l.52-4c.17-1.33.33-2.67.58-4l.67-4c.23-1.33.43-2.66.73-4l1.64-7.91c1.29-5.23,2.5-10.48,4-15.64l1.1-3.88.55-1.94.62-1.93,2.46-7.68c.78-2.58,1.74-5.09,2.64-7.63l2.73-7.59,6-15,6.42-14.8L481,276.33l-5.77,15.06L472.55,299c-.86,2.54-1.8,5.06-2.56,7.64l-2.4,7.69-.6,1.92-.54,1.94-1.07,3.89c-1.5,5.16-2.67,10.4-3.92,15.62l-1.58,7.9c-.29,1.31-.48,2.64-.7,4l-.64,4c-.24,1.33-.39,2.66-.56,4l-.51,4c-.17,1.33-.25,2.67-.38,4s-.27,2.67-.31,4l-.2,4-.06,4a63.6,63.6,0,0,0,.46,8l-1,.1c-.48-18.3-.85-36.62-.44-54.93.08-9.16.45-18.31.75-27.46.14-4.57.43-9.14.64-13.72l.34-6.86c.11-2.28.28-4.56.42-6.85,1.08-18.28,2.73-36.52,4.68-54.73S466.75,184.71,469.84,166.67Z"></path><path class="cls-17" d="M452.87,352.54s.08-25.92-3.46-25.61-2.61.83-5.06-10-7.56-21.38-10.44-16.95-7.25-14.55-11.26-9.42,9.39,15.25,6.16,19.11-1.06,8.13,7,15.46-6.89,9.54-.65,16.14S452.87,352.54,452.87,352.54Z"></path><path class="cls-18" d="M457.23,377.07a55.84,55.84,0,0,0-1-9.48c-.28-1.56-.59-3.12-.92-4.67s-.69-3.1-1.13-4.63-.81-3.07-1.27-4.59l-1.38-4.56c-1-3-2-6-3.21-9s-2.31-5.92-3.51-8.86-2.61-5.8-3.84-8.74l-4.11-8.62c-1.42-2.85-2.88-5.68-4.27-8.55,1.61,2.75,3.17,5.53,4.75,8.3l4.39,8.51c2.76,5.76,5.37,11.59,7.62,17.57A146.38,146.38,0,0,1,455,358.09c.38,1.55.65,3.13,1,4.69s.55,3.15.77,4.73l.27,2.38.18,2.39A33.3,33.3,0,0,1,457.23,377.07Z"></path><path class="cls-17" d="M453.15,303.17s8.16-54.07,1.33-51.73c-11.68,4,3.84-12-4.67-30s-8.2,2.88-14.35-3c-30.37-29-15.14-.89-10.68,6,7.34,11.34-14,.16,3,22.69S401.58,245.6,453.15,303.17Z"></path><path class="cls-16" d="M453.23,319.86s.33-33.13-7.34-37.47c-8.7-4.91-5.35,0-17.52-8-8-5.25-8.85,8.68.5,12s-10,8.93,4,16.27S453.23,319.86,453.23,319.86Z"></path><path class="cls-18" d="M425.45,216.06a23.08,23.08,0,0,1,7.87,7.54,51.71,51.71,0,0,1,5,9.78,163.63,163.63,0,0,1,6.28,21.09l1.31,5.35.64,2.67.58,2.69,1.15,5.39,1,5.4c.36,1.8.67,3.61,1,5.43l.89,5.43c.5,3.63,1.08,7.26,1.48,10.91.93,7.28,1.57,14.59,2.17,21.9s1,14.64,1.29,22c.18,3.67.26,7.33.4,11s.19,7.33.24,11c.13,7.33.17,14.66.22,22h-1c.36-9,.31-18-.09-27.07-.19-4.51-.47-9-.78-13.53s-.69-9-1.23-13.48A114.48,114.48,0,0,0,448,305.18a61.63,61.63,0,0,0-6-12.09,51.31,51.31,0,0,0-8.87-10.19,51.55,51.55,0,0,1,9,10.07,61.37,61.37,0,0,1,6.22,12c3.32,8.46,5,17.44,6.21,26.4.57,4.49,1,9,1.35,13.51s.67,9,.89,13.55c.42,9,.5,18.1.16,27.15l-1,0c-.12-14.66-.35-29.31-.93-43.95-.26-7.33-.72-14.64-1.22-21.94s-1.2-14.6-2.11-21.87a353.71,353.71,0,0,0-7.67-43.23c-1.75-7.12-3.38-14.27-6-21.11a51.79,51.79,0,0,0-4.86-9.81A23.08,23.08,0,0,0,425.45,216.06Z"></path><path class="cls-15" d="M436.43,374.59c0,12.84,3.76,24.16,9.5,30.92h24.65c5.74-6.76,9.5-18.08,9.5-30.92a62.34,62.34,0,0,0-.73-9.62H437.16A63.61,63.61,0,0,0,436.43,374.59Z"></path><ellipse class="cls-19" cx="294.42" cy="269.42" rx="11.49" ry="5.76"></ellipse><path class="cls-20" d="M283.34,259.5c1.51,0,4-.4,7-.4a28.91,28.91,0,0,1,9.25,1.39c2.69,1,4.54,2.5,5.2,4.42s.13,4.23-.66,5-1.88,0-3.25-.63a15.74,15.74,0,0,0-4.48-1.23c-1.44-.16-2.63,0-2.94.37s.26,1.11,1.36,1.43,2.73.28,3.37.62.3,1.07-.76,1.55a7.25,7.25,0,0,1-4.4.32,10.74,10.74,0,0,1-4-2.35,11.76,11.76,0,0,0-3.32-2.17c-1.21-.43-2.67-.46-3.54-1.93a11.65,11.65,0,0,1-1-5.61C281.28,259,281.82,259.49,283.34,259.5Z"></path><polygon class="cls-21" points="276.68 259.48 281.9 258.84 282.94 267.86 277.71 268.49 276.68 259.48"></polygon><path class="cls-22" d="M190.51,144.57S179.05,148,174.18,158.8c-9.72,21.52,6.7,88.54,6.7,88.54l56.84-2.46S250.3,174,240,154.59c-6.37-12.07-14.19-20-28.66-20.59A23.46,23.46,0,0,0,190.51,144.57Z"></path><path class="cls-23" d="M197.23,156.49s-10.53,17.94-12.77,31.1c-1.38,8.07,10.58,26.22,24.93,26.74,9.53.34,19.32-4.1,22.9-17.78,3.5-13.39.9-32.55.9-32.55s-6.28-12-16.46-12.33S197.23,156.49,197.23,156.49Z"></path><path class="cls-24" d="M279.79,257.83q.69,5.84,1.39,11.67c-76.81,7.22-62.35-50.14-51.73-48C243,224.16,224.87,260.71,279.79,257.83Z"></path><path class="cls-20" d="M199.12,218c1-.12,2.61-.37,3.22-1.63s.26-3.51.08-5.22-.18-2.87.27-3.33,1.37-.2,3.26-.07a62.84,62.84,0,0,0,6.43,0c1.67-.1,2.13-.29,2.28.29a19.41,19.41,0,0,1,0,3.45,11.16,11.16,0,0,0,.49,4.33,3.68,3.68,0,0,0,2.81,2.26c1.4.32,3.27.19,3.7,1s-.57,2.47-2.35,4.36a21.62,21.62,0,0,1-7.33,5.21c-3,1.21-6.42,1.53-8.87.19s-3.94-4.34-4.76-6.4-1-3.18-.82-3.74S198.1,218.08,199.12,218Z"></path><path class="cls-25" d="M220.41,220.3h0a12.83,12.83,0,0,1-21.89,0h-2.38v61.12h24.27Z"></path><path class="cls-20" d="M197.37,278.09c-.12,6.35-.24,12.7,1.17,18.29s4.34,10.4,11.6,13.14,18.85,3.39,29.21,3.78,19.47.51,25.67.65,9.47.31,16.74,8.7c12.1,14,26.41,34.91,34.94,51.68l11.58-4.55c-12.38-3.15-25.78-51.67-42.28-74.71-9.67-13.5-16.38-15.31-30.66-16.2S219.22,278,197.37,278.09Z"></path><path class="cls-20" d="M267.05,321.1c1.71,9.79,2.76,38.79,3.42,56.55L270,389l12.23,2c-10.2-4.17,3.65-63.31,0-87.54-3.28-21.9-24.8-3.38-43.85,2.65l.07,7.86c8.47,5,26.7-3.65,28.57,7.09"></path><path class="cls-24" d="M204.71,274.53h46.11v18.84h0v22.89h-49c-12.23,0-19.36-10.3-19.36-22.89h0C182.46,280.78,192.48,274.53,204.71,274.53Z"></path><path class="cls-26" d="M270,384.59c-.05,3.29.16,10.57.16,15.37h3.07c0-1.14-.09-4.15.4-5.15.29-.6.83-.42,1.32-.22,1.41,1.17,2.78,2.79,4.54,3.82s5.29,1.34,7.93,1.46,5.79.13,6.85-.23,0-1.07-1.76-2.77-7.52-4.37-9.18-6.42-2.39-3.48-2.82-3.59c-.64-.15-1.39,6-7.12,1.4a7.62,7.62,0,0,1-2.29-3.08c-.49-1.16-.76-2.42-.9-2.73S270.06,381.3,270,384.59Z"></path><path class="cls-26" d="M314.53,370.5c1.56,2.88,5.28,9.08,7.61,13.23l2.65-1.58c-.55-1-2.09-3.54-2.15-4.66,0-.68.52-.8,1-.88,1.79.29,3.76,1,5.79,1s5.4-2,7.75-3.21,5.07-2.87,5.82-3.73-.49-.95-2.87-1.49-8,.63-10.44-.3-3.76-1.79-4.19-1.66c-.21.07.89,5.8-6.29,4.75a7.45,7.45,0,0,1-3.48-1.49c-1-.75-1.83-1.71-2.1-1.9S313,367.62,314.53,370.5Z"></path><path class="cls-24" d="M198.19,301.55H212c8.15,0,14.29-20.06,15.66-27.81l7.4-41.86c1.38-7.74-6.66-14.19-14.81-14.28l-3.39,0c5.61,28.28,3.51,30.33,0,60.28l-18.61.42c3.42-29.82,2.8-35.74,2.49-60.88l-5.07,0c-8.15-.09-17.05,8.93-16.61,16.77l3.49,61.74C183,303.7,190,301.55,198.19,301.55Z"></path><path class="cls-27" d="M221.52,196.82s-1,2.4-8.37,2.59a27,27,0,0,1-12.09-2.22s3.27,8.74,12.68,8.28C220.91,205.12,221.52,196.82,221.52,196.82Z"></path><path class="cls-28" d="M214.56,184.11s2.9,3.67,2.71,5.4-4,2.7-4,2.7,4.68-.19,5.71-1.83C219.78,189.07,214.56,184.11,214.56,184.11Z"></path><path class="cls-28" d="M221.07,175.34c-.62,1-.68,5.85,0,5.15s3-2.34,4.33-2.46a6.34,6.34,0,0,1,3.1.94l1.61-1.75s1.84-2.27,1.62-2.66C230.8,172.9,222.44,173.11,221.07,175.34Z"></path><path class="cls-29" d="M222.16,180.25a3,3,0,0,0,2.64,3.34,3,3,0,0,0,3.47-2.4,3,3,0,0,0-2.64-3.33A3,3,0,0,0,222.16,180.25Z"></path><path class="cls-30" d="M231.83,174.68a13.83,13.83,0,0,0-6.2-.78,25.85,25.85,0,0,0-4.56,1.66,1,1,0,0,1-.08-1.48C221.73,173.2,229.54,170.6,231.83,174.68Z"></path><path class="cls-29" d="M220.77,180.84s1.72-2.83,4.51-3.22,4,2.42,4,2.42a5.91,5.91,0,0,0-4.56-.91A9.64,9.64,0,0,0,220.77,180.84Z"></path><path class="cls-27" d="M225.81,179.56a.67.67,0,0,0,.58.74.64.64,0,1,0,.19-1.26A.65.65,0,0,0,225.81,179.56Z"></path><path class="cls-28" d="M203.33,173.71c5.52-.1,5.11.15,5.28,1s-1,5.89-1,5.89-2.05-2.28-4.15-2.43a8.45,8.45,0,0,0-5.36,1.75s-3-4.53-3-6C195.05,173.51,203.33,173.71,203.33,173.71Z"></path><path class="cls-30" d="M194.84,174.08s4.83-2.29,9.11-1.73c3.71.49,4.41.7,4.57,1.36s.51,1.86-.65,1.29S198.59,173.16,194.84,174.08Z"></path><path class="cls-29" d="M207.87,180.86a6.6,6.6,0,0,0-5.08-2.76,6.91,6.91,0,0,0-5.56,2.55,8.61,8.61,0,0,1,5.62-1.23A13.43,13.43,0,0,1,207.87,180.86Z"></path><path class="cls-29" d="M206.24,181.42a3.12,3.12,0,1,1-3.24-2.76A3,3,0,0,1,206.24,181.42Z"></path><path class="cls-27" d="M203.79,180.26a.69.69,0,0,0,1.37-.07.65.65,0,0,0-.71-.61A.68.68,0,0,0,203.79,180.26Z"></path><path class="cls-28" d="M192.57,193.56a4.21,4.21,0,0,1,1.92.53,2.44,2.44,0,0,1,1.25,1.82,2.75,2.75,0,0,1-.56,1.92,3.68,3.68,0,0,1-1.43,1.19c.15-.61.35-1.14.5-1.65a3.75,3.75,0,0,0,.18-1.39,2.11,2.11,0,0,0-.57-1.16,6.68,6.68,0,0,0-.6-.58C193.05,194,192.75,193.87,192.57,193.56Z"></path><path class="cls-28" d="M228.75,193.82a4.3,4.3,0,0,0-1.91.53,2.44,2.44,0,0,0-1.25,1.82,2.74,2.74,0,0,0,.55,1.92,3.71,3.71,0,0,0,1.44,1.19c-.15-.61-.35-1.14-.5-1.65a3.53,3.53,0,0,1-.18-1.39,2.09,2.09,0,0,1,.56-1.16,6.85,6.85,0,0,1,.61-.58A3.64,3.64,0,0,0,228.75,193.82Z"></path><polygon class="cls-31" points="265.07 248.12 247.16 248.12 249.06 268.17 263.18 268.17 265.07 248.12"></polygon><rect class="cls-32" x="244.66" y="244.97" width="22.92" height="3.16"></rect><rect class="cls-32" x="249.3" y="241.81" width="13.64" height="3.16"></rect><rect class="cls-32" x="252.92" y="240.24" width="6.4" height="1.58"></rect><path class="cls-20" d="M238,256.41a13.71,13.71,0,0,0,4.25-1c.9-.53,1-1.36,1.95-2a5.62,5.62,0,0,1,3.32-.83c.67.19.31,1,.57,1.51s1.14.91,2.49.88a11.34,11.34,0,0,0,4.16-1c1-.51,1.26-1.12,1.68-1.08s1,.73,1.4,2.46a11.22,11.22,0,0,1-.3,6.46,7,7,0,0,1-5,3.6,13.19,13.19,0,0,1-6.14,0c-1.6-.44-2.43-1.23-3.46-1.45s-2.27.12-3.06-.49-1.14-2.17-1.37-3.51S238.15,257.52,238,256.41Z"></path><polygon class="cls-21" points="233.93 256.23 239.14 255.44 240.42 264.42 235.21 265.21 233.93 256.23"></polygon><path class="cls-33" d="M200.73,217.38l-10.51,8.34,1.53,15.67,6.35.83-6,3c1,10.35-1,13.13,11.26,17.81Z"></path><path class="cls-33" d="M216.73,217.53,228,222.92l.87,16.16-6.14,2.1,6.32,1.72c.49,10.41,2.2,12.87-9.24,20Z"></path><path class="cls-24" d="M236.32,254.52,238,266.14c-76.58,9.48-62.73-45.33-52.05-43.53C199.64,224.9,181.5,259,236.32,254.52Z"></path><path class="cls-22" d="M181.07,187.93s22.56-25.48,22.31-31.25c0,0,13.35,12.73,36.58,17,0,0,0-2.24-4.5-14.54s-23.33-18.31-33.62-15.55-19.32,10.54-21.33,15.55S176.85,178.09,181.07,187.93Z"></path><rect class="cls-34" x="374.48" y="285.28" width="6.46" height="114.89" transform="translate(755.43 685.45) rotate(-180)"></rect><rect class="cls-35" x="371.25" y="285.28" width="45.87" height="24.42" transform="translate(788.38 594.98) rotate(-180)"></rect><rect class="cls-32" x="138.34" y="271.92" width="302.8" height="13.36" rx="4.54"></rect><path class="cls-7" d="M83.88,271.92h59a4.54,4.54,0,0,0-4.54,4.54v4.28a4.54,4.54,0,0,0,4.54,4.54h-59a4.54,4.54,0,0,1-4.54-4.54v-4.28A4.54,4.54,0,0,1,83.88,271.92Z"></path><rect class="cls-35" x="90.55" y="285.28" width="6.46" height="114.89" transform="translate(187.56 685.45) rotate(-180)"></rect><rect class="cls-34" x="97.01" y="285.28" width="6.46" height="114.89" transform="translate(200.49 685.45) rotate(-180)"></rect><rect class="cls-35" x="136.42" y="285.28" width="6.46" height="122.68" transform="translate(279.3 693.24) rotate(-180)"></rect><rect class="cls-34" x="142.88" y="285.28" width="6.46" height="122.68" transform="translate(292.22 693.24) rotate(-180)"></rect><rect class="cls-35" x="91.86" y="285.28" width="49.71" height="34.86" transform="translate(233.43 605.42) rotate(-180)"></rect><rect class="cls-35" x="368.02" y="285.28" width="6.46" height="114.89" transform="translate(742.51 685.45) rotate(-180)"></rect><rect class="cls-35" x="413.89" y="285.28" width="6.46" height="122.68" transform="translate(834.25 693.24) rotate(-180)"></rect><rect class="cls-34" x="420.35" y="285.28" width="6.46" height="122.68" transform="translate(847.17 693.24) rotate(-180)"></rect><rect class="cls-7" x="149.34" y="285.28" width="264.55" height="34.59"></rect><rect class="cls-36" x="296.37" y="184.24" width="100.23" height="68.06" rx="2.06"></rect><rect class="cls-37" x="296.37" y="184.24" width="100.23" height="68.06" rx="2.06"></rect><path class="cls-38" d="M394.54,184.24H298.43a2.06,2.06,0,0,0-2.06,2.06v63.93a2.06,2.06,0,0,0,2.06,2.06H302a2,2,0,0,1-2-1.95V189.9a2,2,0,0,1,2-2h92.64a2,2,0,0,1,2,2v-3.6A2.06,2.06,0,0,0,394.54,184.24Z"></path><rect class="cls-19" x="334.43" y="210.02" width="24.11" height="60.12" rx="1.79"></rect><path class="cls-38" d="M334.43,256.25v13.12a1.78,1.78,0,0,0,1.79,1.78h20.54a1.78,1.78,0,0,0,1.78-1.78V256.25Z"></path><rect class="cls-19" x="322.36" y="265.8" width="48.26" height="6.19" rx="2.06"></rect><path class="cls-39" d="M342.49,232.81l9.1,12.15a9.18,9.18,0,0,1-6.13,2.47,7,7,0,0,1-7.08-8.11A9.43,9.43,0,0,1,342.49,232.81Z"></path><path class="cls-40" d="M347.51,231.21a7,7,0,0,1,7.08,8.11,9.25,9.25,0,0,1-3,5.64l-9.1-12.15A9,9,0,0,1,347.51,231.21Z"></path><circle class="cls-41" cx="87.68" cy="345.7" r="25.84" transform="translate(-140.77 71.83) rotate(-25.6)"></circle><path class="cls-42" d="M109.6,358.63A92.2,92.2,0,0,1,85,349.12c-4.86-2.68-9.91-5.52-14-9.3.9-1.6,1.89-3.18,2.92-4.72l.15-.22a22.2,22.2,0,0,0,6.35,2c4.78.88,9.35-.55,14.13-.32,6.22.3,12.89,1.2,18.18,4.68a1.14,1.14,0,0,0,.47.18q-.12-.76-.3-1.53c-6-3.64-13.78-4.72-20.66-4.66-4.24,0-8.21,1.19-12.46.3a14.21,14.21,0,0,1-4.9-1.8c5.88-7.92,15.42-13.63,25.39-10.63a25,25,0,0,0-3.28-1.54c-8.31-1.13-16.5,2.6-22.08,9.13-.49.57-1,1.16-1.45,1.76a5.28,5.28,0,0,1-1-2.35c-.48-2.51,1.41-5.4,3-7.05a.38.38,0,0,0,.11-.16,25,25,0,0,0-4.22,2.82,7.19,7.19,0,0,0-.24,6.4,5.81,5.81,0,0,0,1.36,1.66,48.92,48.92,0,0,0-3,4.51,26.3,26.3,0,0,1-4.08-5.52v0c-.33.56-.63,1.13-.91,1.7a28.54,28.54,0,0,0,4.21,5.24A37.81,37.81,0,0,0,66,345.88a9,9,0,0,0-4.08-1.49c0,.29,0,.59,0,.88a5.72,5.72,0,0,1,3.81,1.54,25.22,25.22,0,0,0-.87,10.88,25.58,25.58,0,0,0,2.76,4.23,22.31,22.31,0,0,1-.31-13.34c.66.88,1.26,1.84,1.88,2.75,1.83,2.68,3.54,5.45,5.14,8.28,3,5.34,6.79,9.41,12.15,11.9.68,0,1.36,0,2,0a22.48,22.48,0,0,1-11.57-10.1c-1.72-3-3.43-6-5.35-8.88a36,36,0,0,0-3.91-5.25,38.1,38.1,0,0,1,2.59-6.1c4.12,3.62,9.07,6.41,13.83,9A95.79,95.79,0,0,0,109.21,360c.26-.4.51-.79.75-1.2A1.42,1.42,0,0,0,109.6,358.63Z"></path><polygon class="cls-19" points="103.8 407.34 69.73 407.34 60.67 348.43 114.68 348.43 103.8 407.34"></polygon><path class="cls-43" d="M423.68,265.15l-5.93-.27a3.35,3.35,0,0,1-2.31.85c-.8,0-1.08-.47-.64-1l-23.18-1.05a2.66,2.66,0,0,0-1.83.7L383,272c-.37.41-.16.77.48.79l23.18,1.05.06-.07a3.3,3.3,0,0,1,2.34-.89c.82,0,1.09.49.62,1a.46.46,0,0,1-.07.07l5.93.27a1.92,1.92,0,0,0,1.34-.51l7.2-8C424.3,265.43,424.14,265.17,423.68,265.15Z"></path><path class="cls-43" d="M423.68,265.15l-5.93-.27a3.45,3.45,0,0,1-2.23.86l-6.43,7.12c.75.06,1,.51.54,1a.46.46,0,0,1-.07.07l5.93.27a1.92,1.92,0,0,0,1.34-.51l7.2-8C424.3,265.43,424.14,265.17,423.68,265.15Z"></path><path class="cls-44" d="M415.18,266.11l-17.24,7.32,8.67.39a3.56,3.56,0,0,1,2.48-1Z"></path><polygon class="cls-45" points="415.45 265.86 415.37 265.86 415.48 265.73 415.57 265.74 415.45 265.86"></polygon><path class="cls-45" d="M409.47,272.49h-.09l.23-.25h.09Zm.46-.51h-.09l.23-.25h.09Zm.46-.51h-.09l.23-.25h.09Zm.46-.51h-.09l.23-.25h.09Zm.46-.51h-.09l.23-.25h.09Zm.46-.51h-.09l.23-.25H412Zm.46-.51h-.09l.23-.26h.09Zm.46-.51h-.09l.23-.26h.09Zm.46-.51h-.09l.23-.26h.09Zm.46-.51h-.09l.23-.26h.09Zm.46-.51H414l.23-.26h.09Zm.46-.51h-.09l.24-.26h.08Zm.46-.51h-.08l.23-.26h.08Z"></path><polygon class="cls-45" points="409.13 272.87 409.04 272.86 409.15 272.74 409.24 272.74 409.13 272.87"></polygon><path class="cls-45" d="M409.73,273.75l0-.06Z"></path><path class="cls-45" d="M409.64,273h0Z"></path><path class="cls-45" d="M409.86,273.37v0Z"></path><path class="cls-45" d="M409.63,273.88l.08-.1Z"></path><path class="cls-45" d="M409.85,273.46a0,0,0,0,0,0,0A0,0,0,0,1,409.85,273.46Z"></path><path class="cls-45" d="M409.83,273.55s0,0,0,0S409.84,273.54,409.83,273.55Z"></path><path class="cls-45" d="M415.49,274.22h0Z"></path><path class="cls-45" d="M409.79,273.65l0,0Z"></path><path class="cls-45" d="M409.56,273Z"></path><path class="cls-45" d="M409.78,273.14h0Z"></path><path class="cls-45" d="M409.81,273.2h0Z"></path><path class="cls-45" d="M409.85,273.29v0Z"></path><path class="cls-45" d="M409.72,273.08h0Z"></path><path class="cls-44" d="M409.84,273.27a.14.14,0,0,0,0-.06A.14.14,0,0,1,409.84,273.27Z"></path><path class="cls-44" d="M409.86,273.43v0Z"></path><path class="cls-44" d="M409.85,273.51v0Z"></path><path class="cls-44" d="M409.82,273.6s0,0,0-.05S409.82,273.58,409.82,273.6Z"></path><path class="cls-44" d="M409.71,273.08a.18.18,0,0,0-.07-.05A.18.18,0,0,1,409.71,273.08Z"></path><path class="cls-44" d="M409.64,273l-.08,0Z"></path><path class="cls-44" d="M409.09,272.86a1.47,1.47,0,0,1,.47.12,1.47,1.47,0,0,0-.47-.12Z"></path><path class="cls-44" d="M409.77,273.14l0-.06Z"></path><path class="cls-44" d="M409.86,273.35s0,0,0-.06S409.86,273.33,409.86,273.35Z"></path><path class="cls-44" d="M409.77,273.69s0,0,0,0S409.78,273.68,409.77,273.69Z"></path><path class="cls-44" d="M409.71,273.78l0,0Z"></path><path class="cls-44" d="M416.41,274a.75.75,0,0,1-.18.07A.75.75,0,0,0,416.41,274Z"></path><path class="cls-44" d="M409.78,273.14l0,.06Z"></path><path class="cls-46" d="M416.77,265.49h0Z"></path><path class="cls-46" d="M423.68,265.15h0l.16,0Z"></path><path class="cls-46" d="M416.44,265.6h0Z"></path><path class="cls-46" d="M417,265.37l.05,0Z"></path><path class="cls-46" d="M417.65,265l.1-.09Z"></path><path class="cls-46" d="M416.89,265.44l0,0Z"></path><path class="cls-46" d="M415.52,265.74h-.08c-.8,0-1.08-.47-.64-1l-23.18-1.05a2.66,2.66,0,0,0-1.83.7l-.5.55,25.89,1.16Z"></path><path class="cls-46" d="M417.3,265.23l.06,0Z"></path><path class="cls-46" d="M416.29,265.64h0Z"></path><path class="cls-46" d="M417.17,265.3l.06,0Z"></path><path class="cls-46" d="M417.55,265.06l.06-.05Z"></path><path class="cls-46" d="M416.13,265.68h0Z"></path><path class="cls-46" d="M416.59,265.55h0Z"></path><path class="cls-46" d="M417.43,265.15l.06,0Z"></path><path class="cls-46" d="M417.36,265.19l.07,0Z"></path><path class="cls-46" d="M415.52,265.74h0a3.23,3.23,0,0,0,.61-.06A3.23,3.23,0,0,1,415.52,265.74Z"></path><path class="cls-46" d="M417.49,265.1l.06,0Z"></path><path class="cls-46" d="M417.23,265.27l.07,0Z"></path><path class="cls-46" d="M417.08,265.35l.09-.05Z"></path><path class="cls-46" d="M416.89,265.44l-.12.05Z"></path><path class="cls-46" d="M424.13,265.34a.11.11,0,0,1,0,.08A.11.11,0,0,0,424.13,265.34Z"></path><path class="cls-46" d="M417.61,265l0,0Z"></path><path class="cls-46" d="M416.93,265.42a.31.31,0,0,0,.1-.05A.31.31,0,0,1,416.93,265.42Z"></path><path class="cls-46" d="M416.3,265.64l.14,0Z"></path><path class="cls-46" d="M416.14,265.67l.15,0Z"></path><path class="cls-46" d="M416.62,265.55l.12-.05Z"></path><path class="cls-46" d="M416.46,265.6l.13-.05Z"></path><path class="cls-46" d="M424.16,265.42a.11.11,0,0,0,0-.08.44.44,0,0,0-.29-.17l-.16,0-5.93-.27-.1.09,0,0-.06.05-.06,0-.06,0-.07,0-.06,0-.07,0-.06,0-.09.05-.05,0a.31.31,0,0,1-.1.05l0,0-.12.05h0l-.12.05h0l-.13.05h0l-.14,0h0l-.15,0h0a3.23,3.23,0,0,1-.61.06l-.34.37,8.18.37.67-.74A.41.41,0,0,0,424.16,265.42Z"></path><path class="cls-44" d="M393.06,269l.57-.65,9.33-.27c.61,0,1.21.47,1.09.67h0a6.18,6.18,0,0,1-2.26.68Z"></path><path class="cls-44" d="M393.85,268.65l-2.24,1c-.18.08-.31,0-.21-.09l1-.78.43-.86c.1-.11.34-.17.38-.09Z"></path><path class="cls-44" d="M400,269.15l-6.58,3.64a.65.65,0,0,1-.32.09h0c-.2,0-.21-.14,0-.28l5.05-3.45Z"></path><path class="cls-44" d="M400.74,268.33l-.25-3.64c0-.05-.06-.09-.16-.09h0c-.2,0-.47.15-.5.28l-.95,3.45Z"></path><path class="cls-47" d="M394.06,265.78a4.53,4.53,0,0,1-3.14,1.26c-1.06-.05-1.38-.69-.71-1.44a4.53,4.53,0,0,1,3.14-1.26C394.42,264.39,394.73,265,394.06,265.78Z"></path><g class="cls-48"><path class="cls-47" d="M417.4,273.19l-.75,0,4.67-5.38a4.82,4.82,0,0,1,1.71-.94h0c.19,0,.2.68-.13,1Z"></path><path class="cls-47" d="M417.27,272.88l.35.89c0,.08-.15.18-.28.17l-.73-.24-1.19.13c-.13,0-.09-.13.06-.19Z"></path><path class="cls-47" d="M421.49,269l2.39,2.26s0,.09,0,.15h0a.49.49,0,0,1-.47.13l-2.91-1.44Z"></path><path class="cls-47" d="M420.53,269l-6.13,1.76a.51.51,0,0,0-.24.14h0c-.11.11,0,.21.19.17l5.16-1Z"></path></g><polygon class="cls-49" points="127.08 246.39 93.82 246.58 119.19 253.78 151.75 259.05 151.98 258.39 127.08 246.39"></polygon><polygon class="cls-49" points="118.75 257.72 150.17 264.36 150.76 263.17 119.7 256.03 118.75 257.72"></polygon><polygon class="cls-27" points="150.54 258.76 126.09 247.7 126.57 257.78 149.56 263.25 150.54 258.76"></polygon><rect class="cls-49" x="93.55" y="246.39" width="33.53" height="12.72"></rect><polygon class="cls-50" points="123.58 258.42 86.89 258.62 114.88 266.27 153.35 265.53 153.6 264.83 123.58 258.42"></polygon><polygon class="cls-50" points="114.28 271.94 152.75 271.94 152.75 271.05 115.32 270.15 114.28 271.94"></polygon><polygon class="cls-27" points="152.01 265.23 122.48 259.81 123.02 270.52 150.81 271.27 152.01 265.23"></polygon><rect class="cls-50" x="86.59" y="258.42" width="36.98" height="13.52"></rect><polygon class="cls-27" points="122.58 249.65 104.86 250.22 104.84 254.93 122.54 255.05 122.58 249.65"></polygon><ellipse class="cls-27" cx="98.81" cy="252.17" rx="3.6" ry="3.28"></ellipse><ellipse class="cls-51" cx="98.6" cy="252.13" rx="2.72" ry="2.47"></ellipse><polygon class="cls-27" points="116.85 262.65 99.12 263.06 99.07 267.77 116.76 268.05 116.85 262.65"></polygon><path class="cls-27" d="M96.66,265A3.62,3.62,0,1,0,93,268.24,3.44,3.44,0,0,0,96.66,265Z"></path><path class="cls-52" d="M95.57,264.94a2.73,2.73,0,1,0-2.74,2.45A2.6,2.6,0,0,0,95.57,264.94Z"></path></g></svg> 