<?xml version="1.0" encoding="UTF-8"?> <svg xmlns="http://www.w3.org/2000/svg" id="Megan" viewBox="0 0 112.5 138.7"><defs><style>.cls-1{fill:#d4a634;}.cls-2,.cls-4{fill:#f2c3b4;}.cls-3{fill:#183463;}.cls-10,.cls-3,.cls-4,.cls-5{fill-rule:evenodd;}.cls-5,.cls-6{fill:#fff;}.cls-7{fill:#eabaad;}.cls-8{fill:#373737;}.cls-9{fill:#b68607;}.cls-10{fill:#274b73;}</style></defs><path class="cls-1" d="M32.86,17.79s-13.47,4-19.21,16.74c-11.43,25.3,7.88,104.14,7.88,104.14l66.87-2.89s14.8-83.37,2.73-106.21C83.63,15.38,74.43,6,57.41,5.35A27.59,27.59,0,0,0,32.86,17.79Z"></path><path class="cls-2" d="M40.76,31.81s-12.38,21.1-15,36.58c-1.62,9.49,12.45,30.84,29.33,31.45C66.28,100.25,77.79,95,82,78.93c4.13-15.75,1.07-38.29,1.07-38.29s-7.39-14.12-19.36-14.5S40.76,31.81,40.76,31.81Z"></path><path class="cls-3" d="M137.88,151q.83,6.87,1.63,13.72c-90.34,8.5-73.34-59-60.84-56.5C94.65,111.41,73.28,154.39,137.88,151Z"></path><path class="cls-4" d="M43,104.1c1.2-.14,3.07-.44,3.79-1.91s.3-4.14.09-6.15-.21-3.38.32-3.91S48.8,91.89,51,92a71,71,0,0,0,7.57,0c2-.12,2.5-.35,2.68.34a23.6,23.6,0,0,1-.06,4.06,13.06,13.06,0,0,0,.58,5.09,4.34,4.34,0,0,0,3.31,2.66c1.64.37,3.84.22,4.35,1.14s-.68,2.9-2.77,5.13a25.6,25.6,0,0,1-8.62,6.13c-3.52,1.42-7.55,1.79-10.44.21S43,111.73,42,109.3s-1.14-3.74-1-4.39S41.79,104.25,43,104.1Z"></path><path class="cls-5" d="M68,106.87h0a15.09,15.09,0,0,1-25.75,0h-2.8v71.88H68Z"></path><path class="cls-3" d="M41.89,202.43H58.15c9.58,0,16.81-23.6,18.42-32.7l8.71-49.24c1.62-9.11-7.84-16.7-17.43-16.8l-4,0c6.6,33.26,4.13,35.68,0,70.91l-21.9.49c4-35.08,3.31-42,2.93-71.6l-6-.07c-9.58-.1-20.06,10.5-19.53,19.73l4.1,72.62C24,205,32.31,202.43,41.89,202.43Z"></path><path class="cls-6" d="M69.34,79.24s-1.12,2.83-9.85,3.05-14.21-2.61-14.21-2.61S49.12,90,60.19,89.42C68.63,89,69.34,79.24,69.34,79.24Z"></path><path class="cls-7" d="M61.15,64.3s3.41,4.31,3.19,6.35-4.73,3.17-4.73,3.17,5.51-.22,6.72-2.15C67.29,70.13,61.15,64.3,61.15,64.3Z"></path><path class="cls-7" d="M68.81,54c-.73,1.19-.8,6.9,0,6.07s3.49-2.76,5.09-2.9a7.55,7.55,0,0,1,3.64,1.11l1.9-2.07s2.17-2.66,1.91-3.12C80.25,51.1,70.42,51.36,68.81,54Z"></path><path class="cls-8" d="M70.09,59.76a3.56,3.56,0,0,0,3.1,3.92,3.49,3.49,0,0,0,4.09-2.82,3.56,3.56,0,0,0-3.11-3.92A3.48,3.48,0,0,0,70.09,59.76Z"></path><path class="cls-9" d="M81.47,53.21s-4-1.53-7.3-.93a31.06,31.06,0,0,0-5.36,1.95,1.11,1.11,0,0,1-.09-1.73C69.59,51.46,78.77,48.4,81.47,53.21Z"></path><path class="cls-8" d="M68.46,60.45s2-3.33,5.3-3.79,4.72,2.85,4.72,2.85a6.91,6.91,0,0,0-5.37-1.07A11.2,11.2,0,0,0,68.46,60.45Z"></path><path class="cls-6" d="M74.39,59a.78.78,0,0,0,.68.86.77.77,0,0,0,.9-.62.78.78,0,0,0-.68-.86A.77.77,0,0,0,74.39,59Z"></path><path class="cls-7" d="M47.94,52.06c6.49-.12,6,.17,6.21,1.17S53,60.15,53,60.15s-2.42-2.67-4.89-2.86a10,10,0,0,0-6.31,2.07s-3.51-5.34-3.55-7C38.2,51.83,47.94,52.06,47.94,52.06Z"></path><path class="cls-9" d="M38,52.5s5.67-2.7,10.71-2c4.37.58,5.18.83,5.37,1.6s.61,2.19-.75,1.52S42.37,51.42,38,52.5Z"></path><path class="cls-8" d="M53.28,60.48a7.75,7.75,0,0,0-6-3.25,8.15,8.15,0,0,0-6.54,3,10.18,10.18,0,0,1,6.62-1.44A15.7,15.7,0,0,1,53.28,60.48Z"></path><path class="cls-8" d="M51.37,61.13a3.67,3.67,0,1,1-3.82-3.25A3.56,3.56,0,0,1,51.37,61.13Z"></path><path class="cls-6" d="M48.49,59.76a.78.78,0,0,0,.84.72.8.8,0,0,0,.77-.8.81.81,0,0,0-1.61.08Z"></path><path class="cls-7" d="M35.29,75.41a5.23,5.23,0,0,1,2.26.62A2.89,2.89,0,0,1,39,78.17a3.22,3.22,0,0,1-.65,2.26,4.35,4.35,0,0,1-1.69,1.4c.18-.71.42-1.34.59-1.94a4.25,4.25,0,0,0,.21-1.63,2.49,2.49,0,0,0-.66-1.37,7.93,7.93,0,0,0-.72-.68C35.85,76,35.5,75.77,35.29,75.41Z"></path><path class="cls-7" d="M77.85,75.72a5,5,0,0,0-2.26.61,2.94,2.94,0,0,0-1.47,2.15,3.24,3.24,0,0,0,.66,2.26,4.32,4.32,0,0,0,1.68,1.4c-.17-.72-.41-1.34-.58-1.94a4.3,4.3,0,0,1-.22-1.63,2.48,2.48,0,0,1,.67-1.37c.21-.22.45-.46.71-.69A4,4,0,0,0,77.85,75.72Z"></path><path class="cls-10" d="M44.89,103.43l-12.37,9.8,1.8,18.44,7.47,1-7,3.49c1.18,12.18-1.21,15.44,13.24,21Z"></path><path class="cls-10" d="M63.71,103.6,77,110l1,19-7.23,2.46,7.44,2c.57,12.25,2.59,15.15-10.86,23.48Z"></path><path class="cls-3" d="M86.75,147.11l2,13.67C-1.31,171.93,15,107.46,27.53,109.58,43.6,112.28,22.27,152.39,86.75,147.11Z"></path><path class="cls-1" d="M21.75,68.78S48.3,38.82,48,32c0,0,15.71,15,43,20,0,0,0-2.65-5.28-17.11S58.29,13.36,46.19,16.6,23.46,29,21.1,34.9,16.8,57.21,21.75,68.78Z"></path></svg> 