<?xml version="1.0" encoding="UTF-8"?> <!-- Generator: Adobe Illustrator 24.1.0, SVG Export Plug-In . SVG Version: 6.00 Build 0) --> <svg xmlns="http://www.w3.org/2000/svg" xmlns:xlink="http://www.w3.org/1999/xlink" version="1.1" id="Capa_1" x="0px" y="0px" viewBox="37 162.9 337.9 468.3" style="enable-background:new 37 162.9 337.9 468.3;" xml:space="preserve"> <style type="text/css"> .st0{fill:#CDD5D8;} .st1{fill:#99A1A4;} .st2{fill:#EAEFF2;} .st3{fill:#E0E5E7;} </style> <g> <path class="st0" d="M307.4,162.9H102.2c-6.5,0-11.9,5.3-11.9,11.9v391.2c0,6.5,5.3,11.9,11.9,11.9H363c6.5,0,11.9-5.3,11.9-11.9 V230.3L307.4,162.9z"></path> <path class="st1" d="M325.8,230.3h49l-67.4-67.4v49C307.4,222.1,315.6,230.3,325.8,230.3z"></path> <path class="st2" d="M254.1,216.2H48.8c-6.5,0-11.9,5.3-11.9,11.9v391.2c0,6.5,5.3,11.9,11.9,11.9h260.8c6.5,0,11.9-5.3,11.9-11.9 V283.6L254.1,216.2z"></path> <path class="st3" d="M269.2,283.6h52.3l-67.4-67.4v52.3C254.1,276.9,260.8,283.6,269.2,283.6z"></path> <g> <path class="st0" d="M81.8,375.2h106.3c1.8,0,3.3-2.7,3.3-5.9c0-3.3-1.5-5.9-3.3-5.9H81.8c-1.8,0-3.3,2.7-3.3,5.9 C78.5,372.6,79.9,375.2,81.8,375.2z"></path> <path class="st0" d="M81.8,419.3h106.3c1.8,0,3.3-2.7,3.3-5.9c0-3.3-1.5-5.9-3.3-5.9H81.8c-1.8,0-3.3,2.7-3.3,5.9 C78.5,416.6,79.9,419.3,81.8,419.3z"></path> <path class="st0" d="M274.1,451.5H84.4c-3.3,0-5.9,2.7-5.9,5.9s2.7,5.9,5.9,5.9h189.7c3.3,0,5.9-2.7,5.9-5.9 S277.3,451.5,274.1,451.5z"></path> <path class="st0" d="M84.4,331.2h189.7c3.3,0,5.9-2.7,5.9-5.9s-2.7-5.9-5.9-5.9H84.4c-3.3,0-5.9,2.7-5.9,5.9 S81.1,331.2,84.4,331.2z"></path> <path class="st0" d="M274.1,495.5H84.4c-3.3,0-5.9,2.7-5.9,5.9c0,3.3,2.7,5.9,5.9,5.9h189.7c3.3,0,5.9-2.7,5.9-5.9 C280,498.2,277.3,495.5,274.1,495.5z"></path> <path class="st0" d="M188.1,539.5H81.8c-1.8,0-3.3,2.7-3.3,5.9c0,3.3,1.5,5.9,3.3,5.9h106.3c1.8,0,3.3-2.7,3.3-5.9 C191.4,542.2,189.9,539.5,188.1,539.5z"></path> <path class="st0" d="M188.1,583.6H81.8c-1.8,0-3.3,2.7-3.3,5.9c0,3.3,1.5,5.9,3.3,5.9h106.3c1.8,0,3.3-2.7,3.3-5.9 C191.4,586.2,189.9,583.6,188.1,583.6z"></path> </g> </g> </svg> 