<?xml version="1.0" encoding="UTF-8"?> <svg xmlns="http://www.w3.org/2000/svg" xmlns:xlink="http://www.w3.org/1999/xlink" id="Stacie" viewBox="0 0 112.5 138.7"><defs><style>.cls-1{fill:none;clip-rule:evenodd;}.cls-2{fill:#73ef31;}.cls-3{fill:#d0ab00;}.cls-4{fill:#f2c3b4;}.cls-12,.cls-13,.cls-14,.cls-4,.cls-7{fill-rule:evenodd;}.cls-5{clip-path:url(#clip-path);}.cls-6{fill:#c8a050;}.cls-7,.cls-8{fill:#fff;}.cls-9{fill:#eabaad;}.cls-10{fill:#373737;}.cls-11{fill:#af8900;}.cls-12{fill:#19191f;}.cls-13{fill:#502d32;}.cls-14{fill:#58373e;}</style><clipPath id="clip-path"><path class="cls-1" d="M42,104.53c1.3-.15,3.32-.46,4.1-2s.32-4.35.1-6.46-.23-3.55.35-4.11,1.73-.25,4.14-.09,6.06.15,8.18,0,2.71-.37,2.9.36a26.52,26.52,0,0,1-.06,4.5,17,17,0,0,0,.64,6.07c.63,1.47,1.79,1.93,3.56,2.08s4.15,0,4.7,1-.73,3-3,5.38a27.3,27.3,0,0,1-9.33,6.44c-3.8,1.5-8.16,1.89-11.28.23s-5-5.36-6-7.91-1.23-3.93-1-4.62S40.67,104.69,42,104.53Z"></path></clipPath></defs><path class="cls-2" d="M61.55,34.89a.05.05,0,0,0,0-.1.05.05,0,0,0,0,.1Z"></path><path class="cls-3" d="M33.17,12.27C29.42,11,25.79,9.2,21.85,9c-6.4-.37-12.18,3.61-16.61,8.12C0,22.38-10.56,34.87-5.22,42.88c.67,1,1.64,1.85,1.93,3a6.24,6.24,0,0,1-.06,2.47c-.81,5.57.29,12,4.88,15.43a12.33,12.33,0,0,0,10.24,1.94,14.62,14.62,0,0,0,8.47-6.08"></path><path class="cls-3" d="M24.83,18.17A43.59,43.59,0,0,0,13.6,40.32a75.58,75.58,0,0,0-.72,10.85q-.15,8.41-.31,16.82c-.07,4.19-.24,8.66-2.7,12.07C8.21,82.34,5.62,84,4.51,86.56c4.6-2.73,9.36-5.59,12.31-10,3.43-5.11,4-11.6,3.68-17.74s-1.23-12.33-.37-18.41"></path><path class="cls-3" d="M11.17,51c-.19,4.4-.42,11.89-1.64,16.12S5.92,75.4,2.18,77.81c4.62-1.39,8.22-5.1,10.33-9.35s2.9-9,3.3-13.74"></path><path class="cls-3" d="M77.9,20.81c.85-.47,1.71.09,2.38.71,7.29,6.88,12.75,24,.91,25.7-4.38.64-14.34,2.71-18.77,2.39-4.19-.31-8.1-5-12.14-4,1.77-1.74-8.3,3.12-6,2.11-4.09-.5,3.8-5.42.8-2.67-2.64,2.41-4.5,5.94-7.94,7.06a33,33,0,0,1-.8-11.37,17.5,17.5,0,0,1,3-8.72,20.05,20.05,0,0,1,5.38-4.65c4.59-3,9.67-4.85,14.1-8,4.27-3,11.7-5.38,15.87-1"></path><path class="cls-3" d="M79.67,22.5a16.25,16.25,0,0,1,8.43,5.87c7.53,9.47,7.59,23.4-3.16,30.44-1.34.88-4.44,2.3-5.19,3.71,3.89-7.37,3.56-9.86,4-15.26s-2-11.09-4.21-16.07"></path><path class="cls-3" d="M84.56,25.15A6.93,6.93,0,0,0,84,20.68c-1.52-3-4.58-4.89-7.13-7-9-7.31-22.59-10-33.61-6.3a51.09,51.09,0,0,0-10.39,4.75c-7.39,4.48-14.92,9.5-19.34,17.09-6.05,10.4-3.22,22.55,1.66,32.88,2.42,5.13,7.27,10.16,13.22,11,6.62.88,9-5.88,9.62-11.15.56-4.66-1.78-13.38,2.07-16.74,4.43-3.87,9.84-6.31,15.18-9.19a29.24,29.24,0,0,1,7.3-2.47c3.78-.88,7.61-1.33,11.42-2a21.64,21.64,0,0,0,8.44-3A5.27,5.27,0,0,0,84.56,25.15Z"></path><path class="cls-4" d="M42,104.53c1.3-.15,3.32-.46,4.1-2s.32-4.35.1-6.46-.23-3.55.35-4.11,1.73-.25,4.14-.09,6.06.15,8.18,0,2.71-.37,2.9.36a26.52,26.52,0,0,1-.06,4.5,17,17,0,0,0,.64,6.07c.63,1.47,1.79,1.93,3.56,2.08s4.15,0,4.7,1-.73,3-3,5.38a27.3,27.3,0,0,1-9.33,6.44c-3.8,1.5-8.16,1.89-11.28.23s-5-5.36-6-7.91-1.23-3.93-1-4.62S40.67,104.69,42,104.53Z"></path><g class="cls-5"><path class="cls-6" d="M73.42,84.94a0,0,0,0,0,0,0v-.06a.27.27,0,0,1,0-.08s0,0,0,0h0l0,0s0-.12-.12-.29h0a.45.45,0,0,0,.19-.24s0-.07,0-.11v0s0,0,0,0h0v0a.93.93,0,0,0,0-.13v0l0,0h0l0,0-.11-.21,0-.07a.37.37,0,0,0,.13-.15l0,0a.57.57,0,0,0,0-.18h0v0h0s0,0,0,0,0,0,0-.06l0-.07,0,0h0v0s-.06-.11-.17-.28c0,0,0,0,.05,0l0,0a.61.61,0,0,0,0-.12.17.17,0,0,1,0,0v-.12h0s0,0,0,0v0s0,0,0,0a.83.83,0,0,0,0-.12,0,0,0,0,1,0,0s0,0,0,0h0v0L73,81.59l.07-.1,0,0a.33.33,0,0,0,0-.13v-.07a.16.16,0,0,0,0-.07h0s0-.06,0-.12,0,0,0,0a.43.43,0,0,0,0-.07l0,0v0l-.21-.25.07-.1v0l0-.13v-.06s0,0,0,0a.25.25,0,0,1,0-.07h0s0,0,0-.1v0a.44.44,0,0,0-.06-.1l0,0,0,0-.22-.23a.71.71,0,0,0,.08-.18s0,0,0-.07a.55.55,0,0,0,0-.18h0a.32.32,0,0,0-.08-.15s0,0,0-.06l0,0h0l0,0-.24-.22a.55.55,0,0,0,.06-.18s0,0,0-.07a.58.58,0,0,0,0-.18h0s0,0,0,0h0l0,0,0-.06,0,0,0,0h0l0,0-.12-.09-.13-.1a.41.41,0,0,0,0-.19v-.06a.48.48,0,0,0,0-.18h0s0,0,0,0h0s0,0,0,0-.11-.09-.11-.1l0,0h0l0,0-.19-.13-.08,0a.46.46,0,0,0,0-.44h0s0,0,0,0h0l-.15-.12h0a1.9,1.9,0,0,0-.31-.17s0,0,0-.06a.22.22,0,0,0,0-.08s0-.06,0-.09,0,0,0-.08l0-.06,0,0h0l0,0h0l-.08-.06,0,0-.06,0h0l-.33-.14a.78.78,0,0,0,0-.14h0a.48.48,0,0,0,0-.17L70,75.26l0,0h0l0,0h0a.62.62,0,0,0-.16-.1h0L69.41,75v-.13a.47.47,0,0,0-.06-.15h0a.38.38,0,0,0-.09-.09h0l0,0h0a.54.54,0,0,0-.17-.09h0l-.34-.08a.28.28,0,0,0,0-.13h0a.34.34,0,0,0-.07-.15l-.1-.1h0a.38.38,0,0,0-.15-.08l-.07,0h0l-.34-.07a.71.71,0,0,1,0-.12h0a.6.6,0,0,0-.09-.15.48.48,0,0,0-.11-.09h0l-.16-.07-.07,0h0l-.35,0a.45.45,0,0,0-.07-.18l0,0a.41.41,0,0,0-.14-.12h0a.48.48,0,0,0-.16-.06h-.13a1.16,1.16,0,0,0-.33,0h0a.46.46,0,0,0-.08-.19l0,0a.53.53,0,0,0-.15-.11h0a.47.47,0,0,0-.17,0h-.45a.51.51,0,0,0,0-.12h0a.4.4,0,0,0-.11-.12.35.35,0,0,0-.12-.07h0s-.08,0-.17,0h-.11l-.35,0A.56.56,0,0,0,64.4,72l0,0-.15-.1h0a.47.47,0,0,0-.17,0h-.11l-.34.05a.59.59,0,0,0-.1-.17l0,0a.46.46,0,0,0-.15-.09h0a.48.48,0,0,0-.16,0H63l-.34,0a.39.39,0,0,0-.18-.23l-.13,0h0s-.08,0-.17,0H62.1l-.32.07,0-.05a.25.25,0,0,0,0-.07.31.31,0,0,0-.11-.09l0,0a.19.19,0,0,0-.1,0h0a.48.48,0,0,0-.24,0h-.07l-.28.08h0a.44.44,0,0,0-.12-.15l0,0a.51.51,0,0,0-.17-.07h0s-.08,0-.18,0h-.13l-.31.09a.39.39,0,0,0-.11-.15l-.06,0a.33.33,0,0,0-.16-.07h0s-.08,0-.16,0l-.07,0h-.07L59,71a.4.4,0,0,0-.21-.2l-.13,0h-.15s-.07,0-.07,0h-.06l-.29.11h0a.29.29,0,0,0-.13-.14.1.1,0,0,0-.05,0,.48.48,0,0,0-.17-.05h-.15l-.07,0h0l-.32.13a.37.37,0,0,0-.07-.1h0a.37.37,0,0,0-.14-.08.31.31,0,0,0-.13,0h-.14s-.07,0-.08,0l0,0h0l-.29.13a.38.38,0,0,0-.14-.14s0,0,0,0a.48.48,0,0,0-.17,0h0a0,0,0,0,0,0,0h0a.8.8,0,0,0-.18,0l0,0h0l-.29.13a.44.44,0,0,0-.14-.13l0,0a.53.53,0,0,0-.17,0h0a.52.52,0,0,0-.17,0h-.06l-.29.14a.44.44,0,0,0-.14-.13l0,0-.18,0h-.07l-.06,0-.08,0s0,0,0,0h0l-.31.15a.53.53,0,0,0-.14-.12l-.06,0a.47.47,0,0,0-.17,0H53a1,1,0,0,0-.17,0l0,0h0a1.43,1.43,0,0,0-.29.15.44.44,0,0,0-.24-.17H52l-.08,0,0,0h0l0,0a2.15,2.15,0,0,0-.28.15.44.44,0,0,0-.15-.12l-.05,0a.57.57,0,0,0-.18,0H51l-.07,0,0,0h0l-.27.17a.44.44,0,0,0-.15-.12l-.06,0a.32.32,0,0,0-.17,0h0a.47.47,0,0,0-.17,0l0,0h0a1.54,1.54,0,0,0-.27.18.61.61,0,0,0-.16-.12l-.06,0a.55.55,0,0,0-.18,0h0a.43.43,0,0,0-.16,0l-.07,0,0,0h0l-.29.2a.46.46,0,0,0-.16-.11l-.06,0h-.16s-.08,0-.16,0l-.06,0,0,0h0l-.28.2a.31.31,0,0,0-.1-.08h0l-.16,0h-.13a.52.52,0,0,0-.16.06l-.06,0,0,0h0a1.44,1.44,0,0,0-.26.2h0l0,0a.41.41,0,0,0-.23-.09h0a.29.29,0,0,0-.13,0h0a.52.52,0,0,0-.16.06l-.06,0,0,0h0l0,0-.21.19h0a.54.54,0,0,0-.28-.11l-.13,0h0s-.14,0-.22.11a0,0,0,0,0,0,0h0l0,0-.22.22a.51.51,0,0,0-.18-.09h-.06a.37.37,0,0,0-.18,0h0s-.07,0-.15.07l-.06,0,0,0h0l0,0a2.07,2.07,0,0,0-.22.22.67.67,0,0,0-.18-.07H44l-.18,0h0a.38.38,0,0,0-.15.08l-.06,0s0,0,0,0h0l0,0a1.92,1.92,0,0,0-.21.23.64.64,0,0,0-.18-.06s0,0-.06,0a.52.52,0,0,0-.18,0h0s0,0,0,0h0l-.05,0-.1.08,0,0h0v0a2.23,2.23,0,0,0-.21.25.37.37,0,0,0-.18,0h-.07a.47.47,0,0,0-.17,0h0a.36.36,0,0,0-.14.09l0,0s0,0,0,0h0v0a2.08,2.08,0,0,0-.19.27.41.41,0,0,0-.19,0h-.06l-.18.05h0l-.05,0h0l0,0-.09.09s0,0,0,0h0l0,0-.17.28a.63.63,0,0,0-.19,0h-.06a.49.49,0,0,0-.17.06h0a.22.22,0,0,0-.08.07.51.51,0,0,0-.09.1v0h0v0l-.15.29-.1,0h0a.43.43,0,0,0-.22.06l-.08,0h0a.46.46,0,0,0-.16.18v0h0l0,0-.07.16,0,.12a.55.55,0,0,0-.31,0L39,75.3h0a.51.51,0,0,0-.14.2v0h0l0,.08v0c0,.06-.05.14-.08.22a.4.4,0,0,0-.28,0h0a.52.52,0,0,0-.11.1v0a.48.48,0,0,0-.13.21s0,0,0,0v0a1.79,1.79,0,0,0-.09.33.29.29,0,0,0-.18,0l-.07,0a.39.39,0,0,0-.1.08l0,0h0s-.05.06-.08.14,0,.07,0,.08v0h0a1.26,1.26,0,0,0-.07.34h-.13a.44.44,0,0,0-.24.19h0a.53.53,0,0,0-.09.23v0h0l0,.35-.13,0h0a.46.46,0,0,0-.13.08l-.08.12h0s0,.07,0,.16a.32.32,0,0,0,0,.07v0s0,0,0,0V79a.3.3,0,0,0-.13,0h0a.35.35,0,0,0-.12.1.47.47,0,0,0-.07.12h0s0,.07,0,.16,0,.07,0,.08h0v0h0l0,.35a.39.39,0,0,0-.25.17.52.52,0,0,0-.06.13v0s0,.08,0,.17v.08a0,0,0,0,0,0,0h0c0,.11,0,.23,0,.34a.41.41,0,0,0-.23.19.35.35,0,0,0-.05.13h0a.46.46,0,0,0,0,.17s0,.06,0,.07v0h0c0,.12.05.23.08.34a.45.45,0,0,0-.22.21.65.65,0,0,0,0,.13h0s0,.08,0,.17,0,.06,0,.07v0h0a1.93,1.93,0,0,0,.1.33s0,0-.06,0l-.05,0a.56.56,0,0,0-.11.17.43.43,0,0,0,0,.11v0a.37.37,0,0,0,0,.18.39.39,0,0,1,0,.06s0,0,0,0h0l0,.06.06.13s0,.1,0,.14a.57.57,0,0,0-.15.16l0,0a.47.47,0,0,0,0,.17s0,0,0,0v.06h0a.52.52,0,0,0,0,.11s0,.06,0,.07a0,0,0,0,1,0,0h0v0a2.39,2.39,0,0,0,.14.3.1.1,0,0,0-.05,0l0,0a.54.54,0,0,0-.1.2s0,0,0,0V85h0s0,0,0,.1v0a.62.62,0,0,0,0,.1.15.15,0,0,1,0,0l0,0s.06.11.15.28a.44.44,0,0,0-.12.15l0,.06a.47.47,0,0,0,0,.17h0V86s0,0,0,0,0,0,0,.06,0,.06,0,.07l0,0h0a1.36,1.36,0,0,0,.14.26l0,0a.39.39,0,0,0-.15.25.62.62,0,0,0,0,.13h0s0,.08,0,.16,0,.06,0,.06,0,0,0,0h0l.18.29a.43.43,0,0,0-.14.26.65.65,0,0,0,0,.14v0a.39.39,0,0,0,.05.17.15.15,0,0,1,0,.06s0,0,0,0h0l0,0s.07.1.15.22l0,0a.46.46,0,0,0-.11.16.14.14,0,0,1,0,.06.54.54,0,0,0,0,.18h0a0,0,0,0,0,0,0v0h0s0,0,0,0l0,0a.67.67,0,0,0,0,.07l0,0h0l0,0a2.61,2.61,0,0,0,.2.26.34.34,0,0,0-.1.16.14.14,0,0,0,0,.06.54.54,0,0,0,0,.18h0a.43.43,0,0,0,.06.15l0,.07,0,0h0v0l.21.25a.28.28,0,0,0-.09.17.11.11,0,0,0,0,.06.5.5,0,0,0,0,.17h0a.43.43,0,0,0,.06.15.25.25,0,0,0,0,.06l0,0h0l0,0,.18.21,0,0a.5.5,0,0,0-.11.27s0,.07,0,.11a0,0,0,0,1,0,0h0s0,.13.11.21a0,0,0,0,0,0,0h0l0,0,.21.23-.07.1h0a.39.39,0,0,0,0,.17.52.52,0,0,0,0,.11s0,0,0,0h0s0,.07.06.15l.05.06,0,0h0l0,0,.22.23A.38.38,0,0,0,37,93s0,0,0,.06a.55.55,0,0,0,0,.18v0a.32.32,0,0,0,.07.15l0,.06s0,0,0,0h0l0,0s.1.11.22.22a.71.71,0,0,0-.08.18s0,0,0,.06a.88.88,0,0,0,0,.17h0l0,.05h0a.11.11,0,0,1,0,0,1,1,0,0,1,.07.1s0,0,0,0h0l0,0s.1.1.22.22a.36.36,0,0,0-.07.17.15.15,0,0,0,0,.06.55.55,0,0,0,0,.18h0a.55.55,0,0,0,.08.14l0,.06,0,0h0l0,0,.23.21a.4.4,0,0,0-.07.18s0,0,0,.06a.47.47,0,0,0,0,.17h0A.41.41,0,0,0,38,96a.23.23,0,0,0,0,0s0,0,0,0h0l0,0,.23.21a.45.45,0,0,0-.07.28s0,0,0,0,0,0,0,.08h0s0,0,0,0h0a.61.61,0,0,0,.1.14l0,0h0l0,0,.24.2a.64.64,0,0,0-.06.18s0,0,0,.06a.58.58,0,0,0,0,.18v0s0,0,0,0h0l0,0,.08.1,0,0h0a1.69,1.69,0,0,0,.25.2.6.6,0,0,0-.06.19v.06a.35.35,0,0,0,0,.17h0s0,0,0,0h0l0,0c0,.06.08.09.08.1l0,0h0a2.45,2.45,0,0,0,.26.2.43.43,0,0,0-.06.18v.07a.59.59,0,0,0,0,.17h0l0,0h0l0,0c0,.06.08.08.08.09l0,0h0l0,0,.25.19a.37.37,0,0,0-.05.18v.06a.48.48,0,0,0,.05.17h0s0,0,0,0h0l0,0,.09.1,0,0h0l0,0a1.91,1.91,0,0,0,.25.19.37.37,0,0,0,0,.18v.06a.34.34,0,0,0,0,.17h0s0,0,0,0h0l0,0a.34.34,0,0,0,.09.09l0,0h0l.29.19a.45.45,0,0,0,0,.19v.06a.49.49,0,0,0,.06.17h0s0,0,0,0h0s0,0,0,0,.09.08.09.09l0,0h0a2.91,2.91,0,0,0,.29.19.41.41,0,0,0,0,.19v.06a.58.58,0,0,0,.06.17h0s0,0,0,0h0l0,0a.51.51,0,0,0,.1.09s0,0,0,0h0l.3.18a.37.37,0,0,0,0,.29h0s0,0,0,.08,0,0,0,0h0s0,0,0,0h0a.8.8,0,0,0,.13.13l0,0,.29.17,0,.11v0a.44.44,0,0,0,.08.29h0s0,0,0,0h0a.57.57,0,0,0,.14.11l0,0h0l.31.17a.42.42,0,0,0,0,.29h0a.3.3,0,0,0,0,.08s0,0,0,0h0l0,0v0a.75.75,0,0,0,.13.11l0,0,.31.16a.3.3,0,0,0,0,.1s0,0,0,0a.53.53,0,0,0,.1.29h0s0,0,0,0h0a.57.57,0,0,0,.14.11l0,0,.31.14a1.23,1.23,0,0,0,0,.13h0a.38.38,0,0,0,0,.17.41.41,0,0,0,.07.11h0s0,0,0,0h0s0,0,0,0l.1.08h0l.32.14a.41.41,0,0,0,0,.29h0l.05.07,0,0h0s0,0,0,0v0a.48.48,0,0,0,.15.1h0a0,0,0,0,0,0,0h0l.33.13a.45.45,0,0,0,0,.28h0l0,.06,0,0h0l0,0v0a.61.61,0,0,0,.16.09h0L46,108a.44.44,0,0,0,.05.28h0l.06.08,0,0h0s0,0,0,0h0a.48.48,0,0,0,.16.09h.06a1.58,1.58,0,0,0,.31.09.45.45,0,0,0,.06.28h0l.05.06a.1.1,0,0,1,0,0h0l0,0h0a.6.6,0,0,0,.16.08h0l.31.07h0a.57.57,0,0,0,0,.13h0a.46.46,0,0,0,.07.16l0,0,.07.06h0l0,0h0a.54.54,0,0,0,.17.08h.07l.32,0h0a.41.41,0,0,0,0,.19l0,.06a.49.49,0,0,0,.12.13h0l0,0,.05,0,.08,0s0,0,0,0h0l.33,0a.46.46,0,0,0,.12.28l.06,0a.1.1,0,0,0,0,0h0a.51.51,0,0,0,.23.08h0l.35,0a.49.49,0,0,0,.14.27.47.47,0,0,0,.12.07h0s.08,0,.17.06h.46a.51.51,0,0,0,.05.12h0a.4.4,0,0,0,.11.12l.13.07h0a.63.63,0,0,0,.17,0h.13a1.12,1.12,0,0,0,.3,0h0a.45.45,0,0,0,.11.17s0,0,0,0a.51.51,0,0,0,.16.09h0s.08,0,.17,0h.14l.33-.07a.33.33,0,0,0,.11.15l.05,0,.11.06,0,0h0s.08,0,.17,0l.08,0h0l.34-.11a.64.64,0,0,0,.13.15l.07,0a.47.47,0,0,0,.17,0H54l.07,0h0l.33-.14a.44.44,0,0,0,.25.17h.23l.07,0,.07,0,0,0h0l0,0a2.35,2.35,0,0,1,.26-.16h0a.34.34,0,0,0,.17.11l0,0a.46.46,0,0,0,.2,0h0a.51.51,0,0,0,.18-.08s0,0,0,0h0l.29-.21a.43.43,0,0,0,.28.12l.14,0h0a.43.43,0,0,0,.16-.07l.06,0,0,0h0a3,3,0,0,0,.27-.23l.11.07h0l.16,0a.4.4,0,0,0,.15,0h0a.5.5,0,0,0,.16-.08l.06,0,0,0h0a2,2,0,0,0,.21-.23l0,0,.11,0h0a.31.31,0,0,0,.17,0,.37.37,0,0,0,.14,0l0,0,0,0h0l.07,0,0,0,0,0,0,0h0l0,0,.13-.19.06-.07a.45.45,0,0,0,.19.05h.06a.41.41,0,0,0,.18-.05h0s0,0,0,0h0s0,0,0,0a1.47,1.47,0,0,0,.11-.1s0,0,0,0h0l.19-.28.09,0H60a.52.52,0,0,0,.21,0l.06,0h0s0,0,0,0h0a.6.6,0,0,0,.13-.14h0s0,0,0,0h0l.18-.3a.41.41,0,0,0,.19,0h.07a.56.56,0,0,0,.16-.07h0l0,0h0l0,0a.44.44,0,0,0,.08-.1s0,0,0,0h0l.17-.31a.45.45,0,0,0,.28,0h0l.06,0,.06,0h0l0,0h0a.57.57,0,0,0,.11-.14v0s.08-.17.14-.32a.51.51,0,0,0,.3,0h0l.09-.06s0,0,0,0h0s0,0,0,0h0a.49.49,0,0,0,.1-.16v0h0a1.61,1.61,0,0,0,.13-.32h0a.49.49,0,0,0,.29,0h0a.18.18,0,0,0,.07,0l0,0v0l0,0h0a.61.61,0,0,0,.09-.16v0h0a2.62,2.62,0,0,0,.1-.31v0a.46.46,0,0,0,.28,0h0l.07-.06,0,0h0s0,0,0,0h0a.75.75,0,0,0,.09-.15s0,0,0,0v0s0-.11.09-.31a.41.41,0,0,0,.19,0l.06,0a.49.49,0,0,0,.14-.11v0l0,0h0s0,0,0,0,.05-.1.06-.11a0,0,0,0,1,0,0h0v0l.08-.31a.45.45,0,0,0,.29-.07l0,0a.23.23,0,0,0,.07-.07h0s0,0,0,0h0a.6.6,0,0,0,.08-.16s0,0,0,0h0v0l.07-.31a.43.43,0,0,0,.19,0l0,0a.53.53,0,0,0,.14-.11h0s0,0,0,0h0l0,0a1.06,1.06,0,0,1,0-.12v0h0v0s0-.12.06-.31a.39.39,0,0,0,.18,0l.06,0a.47.47,0,0,0,.13-.11h0s0,0,0,0h0l0,0a.48.48,0,0,0,0-.12,0,0,0,0,0,0,0h0v0a2.32,2.32,0,0,0,.05-.32.41.41,0,0,0,.19,0l.06,0a.49.49,0,0,0,.13-.12v0a.38.38,0,0,0,.08-.15s0-.06,0-.07h0v0h0v0a2.63,2.63,0,0,0,0-.31.37.37,0,0,0,.18,0l.06,0a.49.49,0,0,0,.13-.12h0s0-.06.08-.15a.23.23,0,0,0,0-.07,0,0,0,0,0,0,0v0a1.84,1.84,0,0,0,0-.32.49.49,0,0,0,.35-.19s0,0,0,0h0s.07-.11.09-.22h0v0h0v0a1.84,1.84,0,0,0,0-.32.48.48,0,0,0,.18-.06l.06,0a.77.77,0,0,0,.12-.13v0s.05-.07.07-.15a.32.32,0,0,0,0-.08h0v0h0v0s0-.12,0-.32a.64.64,0,0,0,.18-.06l0,0a.37.37,0,0,0,.12-.13v0a.48.48,0,0,0,.06-.16.23.23,0,0,0,0-.07v0h0v0s0-.13,0-.32a.42.42,0,0,0,.26-.12h0l.07-.09v0h0s.06-.13.07-.22v0h0s0-.18,0-.34a.45.45,0,0,0,.18-.07l0,0a.76.76,0,0,0,.11-.14h0s0-.07,0-.15a.26.26,0,0,0,0-.07v0h0v-.35a.36.36,0,0,0,.18-.07l0,0A.69.69,0,0,0,70,97.6h0a.7.7,0,0,0,0-.16s0-.06,0-.07v0h0A3.23,3.23,0,0,1,70,97a.53.53,0,0,0,.17-.08.1.1,0,0,0,0,0,.38.38,0,0,0,.11-.14v0a.7.7,0,0,0,0-.16v-.09h0v0s0-.12,0-.33a.51.51,0,0,0,.17-.07l0,0a.49.49,0,0,0,.1-.15v0s0-.07,0-.16v-.1h0v0s0-.11,0-.33a.27.27,0,0,0,.12,0h0a.28.28,0,0,0,.13-.11s0,0,0,0L71,95h0s0-.13,0-.23a0,0,0,0,0,0,0h0v0a3.08,3.08,0,0,0,0-.32.42.42,0,0,0,.24-.16.35.35,0,0,0,.07-.12v0s0-.07,0-.16v-.1h0v0a1.21,1.21,0,0,0,0-.32.41.41,0,0,0,.25-.15s0,0,0-.07,0,0,0,0h0s0-.13,0-.23v0h0v0a2.43,2.43,0,0,0,0-.31l.11,0h0a.49.49,0,0,0,.13-.12.67.67,0,0,0,.06-.12h0s0-.07,0-.16v-.1h0v0s0-.12,0-.27v0a.47.47,0,0,0,.25-.17.3.3,0,0,0,0-.1l0,0h0a.57.57,0,0,0,0-.23v0h0v0a2.65,2.65,0,0,0-.06-.32.37.37,0,0,0,.17-.1l0,0a.51.51,0,0,0,.09-.16v0a.68.68,0,0,0,0-.17v-.1h0v0a3.08,3.08,0,0,0-.06-.32.54.54,0,0,0,.16-.1l0,0a.8.8,0,0,0,.08-.16v0s0-.08,0-.17a.35.35,0,0,0,0-.07v0h0v0a2.82,2.82,0,0,0-.07-.32l.11,0,0,0a.53.53,0,0,0,.09-.11s0,0,0,0a.43.43,0,0,0,0-.07h0s0-.07,0-.16a.54.54,0,0,0,0-.08h0v0h0v0s0-.12-.08-.31A.42.42,0,0,0,73,88L73,88a.37.37,0,0,0,.07-.16h0s0-.08,0-.16a.54.54,0,0,0,0-.08h0v0h0v0l-.1-.31a.44.44,0,0,0,.15-.12l0,0a.58.58,0,0,0,.06-.17h0s0,0,0,0,0,0,0,0h0a1.23,1.23,0,0,0,0-.18s0,0,0,0h0v0l-.08-.23,0-.08a.64.64,0,0,0,.15-.13l0,0a.37.37,0,0,0,0-.17h0s0-.08,0-.17a.41.41,0,0,1,0-.07h0v0l-.12-.32a.38.38,0,0,0,.19-.23.3.3,0,0,0,0-.13h0v-.07Zm-9,20.94,0,.13s0,0,0,0a.24.24,0,0,1-.06.08l0,0H64.2v-.08s0,0,0-.07l0-.08s0-.05,0-.08l-.05-.06a.48.48,0,0,0-.17-.1,1.47,1.47,0,0,0,.05-.17h0c0-.16,0-.29.19-.3s0,0,0-.17c0,.25,0,.43.13.57h0s0,0,.13.06a1.12,1.12,0,0,1,0,.16Zm-.62.7a.4.4,0,0,1,0,.13s0,0,0,0a.16.16,0,0,1-.08.1h-.08a.22.22,0,0,0,0-.09s0,0,0-.07a.24.24,0,0,0,0-.08l0-.08,0-.06a.36.36,0,0,0-.16-.11,1.07,1.07,0,0,0,.05-.16v0c0-.14,0-.28.2-.29a.9.9,0,0,1,0-.12c0,.23,0,.41.13.53h0s0,0,0,0l0,0a.05.05,0,0,0,0,0c0,.09,0,.14-.05.16Zm-.63.68,0,.09h0v0a.16.16,0,0,1,0,.06.14.14,0,0,1-.08.09h-.07v-.16s0-.05,0-.08a.3.3,0,0,0,0-.08.21.21,0,0,0,0-.06.61.61,0,0,0-.16-.12l.06-.16v0c.05-.14.06-.27.21-.28a1.45,1.45,0,0,1,0-.16c-.06.26-.07.45.1.58h0l0,0,.05,0a.05.05,0,0,0,0,0,.8.8,0,0,0-.05.16Zm-.67.65c0,.08,0,.12-.06.16h0a.12.12,0,0,1,0,0l-.06,0h0a.55.55,0,0,0,0-.09V108s0-.06,0-.09l0-.08,0-.06a.47.47,0,0,0-.15-.13,1.5,1.5,0,0,1,.06-.16h0c.06-.16.09-.27.22-.27s0,0,0-.13c-.07.24-.08.42.08.55h0s0,0,0,0l.08.06,0,0-.06.15Zm-.7.63a1.13,1.13,0,0,1-.07.15h0s0,0-.06,0a.12.12,0,0,1-.12,0h0v0a.52.52,0,0,0,0-.11.4.4,0,0,0-.23-.38.75.75,0,0,0,.07-.15v0a1,1,0,0,1,.06-.13.14.14,0,0,1,.16-.1,1.15,1.15,0,0,1,0-.15c-.08.24-.1.42.05.57h0s0,0,.05,0l0,0,0,0-.07.16Zm-2.36,1.77v0a.47.47,0,0,1-.09.06h0s0,0-.07,0a.22.22,0,0,0,0-.08.64.64,0,0,0,0-.07v-.08s0-.06,0-.08l0-.08a.61.61,0,0,0-.12-.16,1.17,1.17,0,0,0,.1-.15h0l.08-.14a.19.19,0,0,1,.18-.07l0,0h0a.44.44,0,0,0,0,.48h0s0,0,.1.1a1.17,1.17,0,0,1-.09.14v0A.61.61,0,0,0,59.42,110.31Zm-5.3,1.39h0l-.13.06h0a.14.14,0,0,1-.09,0h0a.12.12,0,0,1-.05,0l.07-.06s0,0,0,0l.06-.08,0-.07s0,0,0-.08a.68.68,0,0,0,0-.2l-.06,0h0l.13-.06.1,0,.15-.07a.15.15,0,0,1,.18,0l.24-.14-.2.12a.44.44,0,0,0-.21.55h0l-.06,0C54.16,111.67,54.13,111.68,54.12,111.7Zm3.16-.75a.2.2,0,0,1,0-.07s0,0,0,0a.11.11,0,0,1,0,.08Zm-.87.24v0a.2.2,0,0,1,0-.07l0,0A.22.22,0,0,1,56.41,111.19Zm-.91.17s0,0,0,0h0a.06.06,0,0,1,0-.06s0,0,0,0A.22.22,0,0,1,55.5,111.36Zm-.91.07,0,0h0a.17.17,0,0,1,0-.07l0,0A.17.17,0,0,1,54.59,111.43Zm-1,0h0a.19.19,0,0,1,0-.07l0,0A.13.13,0,0,1,53.64,111.44Zm-.91-.13v0a.07.07,0,0,1,0-.05.08.08,0,0,1,0,.05h0S52.73,111.3,52.73,111.31Zm.43.31-.08,0h0l-.06,0h0a.11.11,0,0,1-.08,0,.07.07,0,0,1-.06,0,.08.08,0,0,1,0,0l.08,0,0,0,.05-.06,0-.08a.19.19,0,0,0,0-.07.46.46,0,0,0,0-.2l.16-.06h0c.15-.06.25-.11.34,0l.1,0c-.2.1-.33.2-.34.4h0s0,0,0,0a.22.22,0,0,0,0,.08v0l-.05,0Zm1.9.06-.12.06,0,0s-.06,0-.09,0h0a.1.1,0,0,1-.06,0l0,0,.06-.07a.35.35,0,0,0,0-.43l-.05,0h0a.93.93,0,0,0,.1,0l.11-.06c.15-.1.23-.17.33-.09l.19-.12c-.22.15-.39.3-.34.53h0s0,0,0,0,0,0,0,0,0,0,0,.06l-.14.09Zm.94-.14-.13.1h0a.2.2,0,0,1-.11,0l-.07,0h0a.22.22,0,0,0,.06-.07s0,0,0,0a.36.36,0,0,0,0-.09,720244373904.66,720244373904.66,0,0,1,0-.16.55.55,0,0,0-.06-.18l.13-.11h0l.13-.1a.15.15,0,0,1,.19,0l0,0h0a.46.46,0,0,0-.15.45h0s0,0,.06.13l-.13.11Zm.79-.1a.29.29,0,0,1-.1,0h0l-.07,0a.25.25,0,0,0,0-.07.2.2,0,0,0,0-.08s0,0,0-.06a.34.34,0,0,0,0-.1.15.15,0,0,0,0-.07.46.46,0,0,0-.08-.19l.13-.11h0l.11-.11a.19.19,0,0,1,.19,0l.07-.08c-.15.18-.22.33-.15.51h0s0,0,0,0a.36.36,0,0,0,0,.09l0,0-.15.13Zm1-.43-.06.06h0l0,0,0,0a.25.25,0,0,1-.09,0h0s0,0-.08,0h0l0,0a.56.56,0,0,0,0-.08.42.42,0,0,0-.09-.44l.11-.12h0c.1-.11.17-.22.3-.17a2.12,2.12,0,0,1,.18-.23.47.47,0,0,0-.15-.06h0a.45.45,0,0,0-.43.14s0,0,0,0v0l-.23.24a.39.39,0,0,0-.14-.08h0a.47.47,0,0,0-.43.1s0,0,0,0v0l-.24.22a.39.39,0,0,0-.14-.08h0a.44.44,0,0,0-.44.06s0,0,0,0v0l-.25.19a.41.41,0,0,0-.13-.1h0a.41.41,0,0,0-.44,0s0,0,0,0v0l-.28.16c0-.06-.09-.11-.11-.11h0a.41.41,0,0,0-.43,0s0,0,0,0v0l-.29.13a.29.29,0,0,0-.1-.12h0a.43.43,0,0,0-.43-.09s0,0,0,0v0a3.33,3.33,0,0,1-.53.17.46.46,0,0,0-.33.51l-.16,0h0l-.1,0a.22.22,0,0,1-.11,0h0a.17.17,0,0,1-.11-.09l.07,0,.06,0,.06,0,.05-.08,0-.07a.58.58,0,0,0,0-.19h0l.14,0h0l.16,0a.16.16,0,0,1,.17.08l.28-.08a.34.34,0,0,0-.09-.14h0a.41.41,0,0,0-.43-.13s0,0,0,0v0c-.4.11-.83.09-.9.43h0s0,0,0,.06v0s0,0,0,.06l-.19,0h-.18s-.06,0-.09,0,0,0,0,0a.16.16,0,0,1,0-.07h0a.4.4,0,0,0,.21-.12l0,0a.44.44,0,0,0,.08-.25l.17,0h0c.14,0,.27-.07.33.06l.29-.06a.64.64,0,0,0-.08-.14h0a.44.44,0,0,0-.41-.17s0,0,0,0h0l-.32,0a.34.34,0,0,0-.06-.15h0a.48.48,0,0,0-.4-.21s0,0,0,0h-.32a.38.38,0,0,0,0-.15h0a.43.43,0,0,0-.38-.25s0,0,0,0v0h-.33a.41.41,0,0,0,0-.16h0a.48.48,0,0,0-.37-.27l0,0v0a3.16,3.16,0,0,1-.32,0,.47.47,0,0,0,0-.17h0a.44.44,0,0,0-.35-.29s0,0,0,0v0l-.32-.06a.41.41,0,0,0,0-.16h0a.45.45,0,0,0-.34-.3s0,0,0,0v0l-.32-.08a.43.43,0,0,0,0-.16h0a.48.48,0,0,0-.32-.33s0,0,0,0v0l-.31-.09a.49.49,0,0,0,0-.17h0a.47.47,0,0,0-.3-.34s0,0,0,0v0l-.31-.1a.48.48,0,0,0,0-.17h0a.49.49,0,0,0-.29-.36s0,0,0,0v0l-.3-.12a.43.43,0,0,0,0-.16h0a.45.45,0,0,0-.28-.37s0,0,0,0h0l-.3-.13a.45.45,0,0,0,0-.16h0a.47.47,0,0,0-.27-.38h0l-.53-.24a.43.43,0,0,0-.56.16h0l-.13-.06,0,0-.15-.07h0s0,0,0-.06a.05.05,0,0,1,0-.05s0,0,0-.06l.09,0h.15l.08,0,.07,0a.35.35,0,0,0,.14-.13l.15.07h0l.14.08a.15.15,0,0,1,.09.17l.27.12a.44.44,0,0,0,0-.16h0a.46.46,0,0,0-.25-.39s0,0,0,0h0l-.29-.16a.78.78,0,0,0,0-.16h0a.46.46,0,0,0-.24-.4s0,0,0,0h0l-.52-.27a.43.43,0,0,0-.57.12h0l-.1,0-.07,0-.14-.09h0s0,0,0,0l0-.06s0,0,0-.06l.09,0h.15l.08,0,.07,0a.64.64,0,0,0,.15-.13l.15.08h0l.14.09a.16.16,0,0,1,.08.17l.26.14a.45.45,0,0,0,0-.16h0a.48.48,0,0,0-.23-.41h0l-.29-.17a.45.45,0,0,0,0-.16h0a.46.46,0,0,0-.22-.41s0,0,0,0h0l-.28-.18a.94.94,0,0,0,0-.16h0a.48.48,0,0,0-.22-.42s0,0,0,0h0l-.28-.19a.29.29,0,0,0,0-.16h0a.46.46,0,0,0-.2-.42s0,0,0,0h0l-.27-.19a.47.47,0,0,0,0-.16h0a.46.46,0,0,0-.19-.43s0,0,0,0h0l-.27-.2a.75.75,0,0,0,0-.16h0a.47.47,0,0,0-.19-.43s0,0,0,0h0l-.26-.21a.88.88,0,0,0,.05-.15h0a.48.48,0,0,0-.18-.44s0,0,0,0h0l-.26-.21a.44.44,0,0,0,.06-.16h0A.5.5,0,0,0,40,97.3h0l-.26-.22a.39.39,0,0,0,.06-.15h0a.45.45,0,0,0-.16-.44s0,0,0,0h0l-.25-.22a.47.47,0,0,0,.06-.15h0a.44.44,0,0,0-.15-.45s0,0,0,0h0L39,95.4a.39.39,0,0,0,.06-.15h0a.46.46,0,0,0-.14-.45h0l-.24-.23a1,1,0,0,0,.07-.15h0a.47.47,0,0,0-.13-.45s0,0,0,0h0l-.24-.23a1,1,0,0,0,.07-.15h0a.49.49,0,0,0-.12-.46s0,0,0,0h0L38,92.85a.55.55,0,0,0,.08-.15h0a.49.49,0,0,0-.11-.46s0,0,0,0h0a2.61,2.61,0,0,1-.23-.24.37.37,0,0,0,.07-.14h0a.47.47,0,0,0-.11-.45s0,0,0,0h0c-.07-.08-.15-.16-.22-.25a.64.64,0,0,0,.08-.14h0a.46.46,0,0,0-.09-.46s0,0,0,0h0l-.22-.25a.39.39,0,0,0,.08-.14h0a.46.46,0,0,0-.08-.46s0,0,0,0h0L37,89.36a.42.42,0,0,0,.09-.14h0a.46.46,0,0,0-.07-.46s0,0,0,0h0c-.08-.09-.14-.18-.2-.26a.42.42,0,0,0,.09-.14h0a.45.45,0,0,0,0-.46s0,0,0,0h0l-.19-.27a.64.64,0,0,0,.1-.13h0a.47.47,0,0,0,0-.46s0,0,0,0h0c-.07-.1-.12-.19-.18-.27a.45.45,0,0,0,.11-.13h0a.47.47,0,0,0,0-.46s0,0,0,0h0l-.16-.29a.41.41,0,0,0,.11-.12h0a.45.45,0,0,0,0-.46s0,0,0,0h0c-.24-.43-.34-.79-.67-.76h-.16a1.16,1.16,0,0,0-.07-.15v0l0-.08h0l0,0s0,0,0,0a.17.17,0,0,1,0-.12l0-.06h0l0,.07.06,0,.07,0,.07,0,.08,0a.44.44,0,0,0,.2,0,.51.51,0,0,0,.07.15v0c.07.14.15.25,0,.35a1.92,1.92,0,0,1,.14.26.68.68,0,0,0,.12-.12h0a.44.44,0,0,0,0-.46s0,0,0,0h0c-.05-.1-.1-.2-.14-.3a.69.69,0,0,0,.13-.11h0a.43.43,0,0,0,.06-.45s0,0,0,0h0l-.12-.31a.45.45,0,0,0,.13-.1h0a.43.43,0,0,0,.11-.44s0,0,0,0h0c0-.1-.07-.21-.1-.31l.13-.09h0a.47.47,0,0,0,.13-.44s0,0,0,0h0c0-.11-.05-.21-.08-.32l.14-.08h0a.48.48,0,0,0,.16-.43s0,0,0,0h0c0-.11,0-.21-.05-.32l.14-.07h0a.45.45,0,0,0,.19-.41s0,0,0,0h0l0-.32a.47.47,0,0,0,.15-.06h0a.43.43,0,0,0,.22-.39s0,0,0,0h0v-.32a.44.44,0,0,0,.15,0h0a.41.41,0,0,0,.25-.37s0,0,0,0h0c0-.11,0-.22,0-.33a.41.41,0,0,0,.16,0h0a.43.43,0,0,0,.28-.35s0,0,0,0h0c.07-.45,0-.26.1-.56a.44.44,0,0,0-.3-.52c0-.09,0-.14,0-.16v0l0-.11v0a.08.08,0,0,0,0,0l.05-.06a.1.1,0,0,1,0,0h.06s0,0,0,.09a.15.15,0,0,1,0,.07l0,.08a.25.25,0,0,0,0,.07l0,.07a.54.54,0,0,0,.16.1,1,1,0,0,1,0,.17v0h0s0,.06,0,.16a.16.16,0,0,1-.14.13s0,0-.06.28l.17,0h0a.44.44,0,0,0,.31-.32s0,0,0,0h0a3.69,3.69,0,0,1,.14-.55.46.46,0,0,0-.12-.45h0s0,0-.13-.07l.06-.16v0a1.13,1.13,0,0,1,.06-.14v0a.2.2,0,0,1,.09-.09h.08s0,0,0,.09v.07s0,0,0,.08l0,.08.05.07a.44.44,0,0,0,.15.12s0,.07,0,.17h0a1,1,0,0,1,0,.16.17.17,0,0,1-.16.11,1.61,1.61,0,0,1-.08.28.49.49,0,0,0,.17,0h0a.44.44,0,0,0,.34-.29s0,0,0,0h0a2.83,2.83,0,0,1,.11-.31.44.44,0,0,0,.16,0h0a.44.44,0,0,0,.36-.28s0,0,0,0v0c.16-.44.42-.69.18-1h0s0,0-.11-.09a.76.76,0,0,0,.08-.15v0l0-.09a.43.43,0,0,1,.07-.1l0,0,0,0h.09a.46.46,0,0,0,0,.09v.15a.32.32,0,0,0,0,.09.13.13,0,0,0,0,.07.43.43,0,0,0,.13.14l-.08.17h0a1.19,1.19,0,0,1-.07.15.17.17,0,0,1-.17.09l-.12.26a.33.33,0,0,0,.17,0h0a.44.44,0,0,0,.38-.24s0,0,0,0h0c.18-.38.46-.69.24-1h0s0,0,0,0,0,0,0,0l0,0,.08-.15,0,0,.07-.11,0,0,.08,0h0a.09.09,0,0,1,.07,0,.22.22,0,0,0,0,.08.17.17,0,0,0,0,.07.11.11,0,0,0,0,.08.29.29,0,0,0,0,.09.25.25,0,0,0,0,.07.45.45,0,0,0,.13.15l0,0-.06.09v0c-.09.15-.13.25-.26.22s0,.05-.14.26a.45.45,0,0,0,.16,0h0a.43.43,0,0,0,.4-.22s0,0,0,0v0l.17-.28a.55.55,0,0,0,.17,0h0a.45.45,0,0,0,.41-.2s0,0,0,0v0l.19-.26a.43.43,0,0,0,.16,0h0a.41.41,0,0,0,.42-.17s0,0,0,0v0l.21-.25a.39.39,0,0,0,.15.06h0a.44.44,0,0,0,.43-.15s0,0,0,0v0a2.61,2.61,0,0,1,.22-.24l.15.07h0a.43.43,0,0,0,.44-.13s0,0,0,0h0l.23-.23a.55.55,0,0,0,.15.08h0a.43.43,0,0,0,.45-.11s0,0,0,0v0c.25-.24.15-.16.42-.4a.43.43,0,0,0,.08-.57s0,0,0,0a.72.72,0,0,0,.12-.11l0,0,.13-.11h0l.09,0h0s0,0,.06,0a.25.25,0,0,0,0,.07l0,.07a.25.25,0,0,1,0,.07s0,.06,0,.1a.2.2,0,0,0,0,.07.45.45,0,0,0,.07.18.72.72,0,0,0-.12.11h0l-.12.11a.17.17,0,0,1-.19,0,1.89,1.89,0,0,1-.22.2.28.28,0,0,0,.15.08h0a.42.42,0,0,0,.45-.08s0,0,0,0v0l.25-.21.14.08h0a.45.45,0,0,0,.46-.06s0,0,0,0v0l.27-.2a.38.38,0,0,0,.13.09h0a.47.47,0,0,0,.46,0s0,0,0,0v0l.27-.2a.71.71,0,0,0,.14.1h0a.5.5,0,0,0,.46,0s0,0,0,0v0l.28-.18a.41.41,0,0,0,.13.1h0a.45.45,0,0,0,.46,0s0,0,0,0v0l.28-.17a.58.58,0,0,0,.12.1h0A.45.45,0,0,0,51,72s0,0,0,0v0l.29-.17a.35.35,0,0,0,.13.11h0a.45.45,0,0,0,.46,0s0,0,0,0v0l.29-.16a.43.43,0,0,0,.12.11h0a.49.49,0,0,0,.47,0s0,0,0,0v0l.3-.15a.43.43,0,0,0,.12.11h0a.45.45,0,0,0,.46,0s0,0,0,0v0l.29-.15a.68.68,0,0,0,.12.12h0a.46.46,0,0,0,.47,0s0,0,0,0v0l.3-.14a.46.46,0,0,0,.12.12h0a.46.46,0,0,0,.47,0s0,0,0,0v0l.31-.14a.45.45,0,0,0,.11.13h0a.47.47,0,0,0,.46,0s0,0,0,0v0L57,71.6a.43.43,0,0,0,.25-.53v0l.11,0,.07,0,.16-.06h0a.14.14,0,0,1,.09,0h0l0,0-.07.06,0,0,0,.06a.3.3,0,0,0,0,.08s0,0,0,.08a.46.46,0,0,0,0,.2l.06,0h0l-.11,0-.12,0h0l-.15.06a.19.19,0,0,1-.19,0l-.27.12a.43.43,0,0,0,.11.12h0a.45.45,0,0,0,.46.07s0,0,0,0v0l.31-.12a.45.45,0,0,0,.11.13h0a.47.47,0,0,0,.46.07s0,0,0,0v0l.31-.12a.71.71,0,0,0,.1.14h0a.45.45,0,0,0,.45.08s0,0,0,0v0l.31-.1a.45.45,0,0,0,.1.13h0a.49.49,0,0,0,.45.1s0,0,0,0v0l.32-.1a.34.34,0,0,0,.09.14h0a.44.44,0,0,0,.45.12s0,0,0,0h0l.32-.08a.42.42,0,0,0,.09.14h0a.45.45,0,0,0,.44.14s0,0,0,0v0l.33-.08a.32.32,0,0,0,.08.14h0a.47.47,0,0,0,.44.15s0,0,0,0v0l.33-.06a.61.61,0,0,0,.07.14h0a.45.45,0,0,0,.42.17s0,0,0,0v0l.33,0a.27.27,0,0,0,.07.14h0a.45.45,0,0,0,.42.19s0,0,0,0v0l.33,0a.44.44,0,0,0,.06.16h0a.47.47,0,0,0,.41.21s0,0,0,0v0h.33a.44.44,0,0,0,.06.16h0A.47.47,0,0,0,66,74s0,0,0,0v0h.33a.49.49,0,0,0,0,.16h0a.45.45,0,0,0,.37.26s0,0,0,0v0l.32,0a.29.29,0,0,0,0,.16h0a.44.44,0,0,0,.35.28s0,0,0,0h0l.32.05a.41.41,0,0,0,0,.16h0a.47.47,0,0,0,.33.31s0,0,0,0h0l.31.08a.92.92,0,0,0,0,.16h0a.45.45,0,0,0,.31.33s0,0,0,0l0,0,.31.1a.43.43,0,0,0,0,.16h0a.44.44,0,0,0,.27.35h0l.3.13a.41.41,0,0,0,0,.16h0a.42.42,0,0,0,.24.38s0,0,0,0h0a4.74,4.74,0,0,1,.5.26.44.44,0,0,0,.59-.12l.15.09h0l.11.07,0,0a.15.15,0,0,1,.06.1,0,0,0,0,1,0,0,.11.11,0,0,1,0,.08l-.08,0-.07,0h-.09l-.07,0-.08,0a.4.4,0,0,0-.16.13L71,78h0l-.22-.14h0l-.14-.08a.17.17,0,0,1-.08-.17l-.25-.14a.41.41,0,0,0,0,.16h0a.4.4,0,0,0,.21.39s0,0,0,0h0a1.78,1.78,0,0,1,.27.17.75.75,0,0,0,0,.16h0a.43.43,0,0,0,.18.41s0,0,0,0h0l.26.2a1,1,0,0,0-.07.15h0a.44.44,0,0,0,.15.43s0,0,0,0h0c.33.28.55.63.88.49h0l0,0,.06,0,0,0,.12.12,0,0h0l0,0,.09.09s0,0,0,0a.14.14,0,0,1,0,.06s0,0,0,0l0,.07-.08,0-.06,0-.08,0h-.16a.36.36,0,0,0-.18.08L72,80.34a.22.22,0,0,0-.07-.07h0a.59.59,0,0,0-.12-.12.17.17,0,0,1,0-.19l-.21-.2a.51.51,0,0,0-.07.15h0a.43.43,0,0,0,.11.44s0,0,0,0h0l.21.23a.71.71,0,0,0-.08.15h0a.42.42,0,0,0,.07.44s0,0,0,0h0c.08.09.14.18.2.26a.45.45,0,0,0-.1.13h0A.44.44,0,0,0,72,82s0,0,0,0h0c.3.39.38.72.75.68h0s0,0,.13,0a1.17,1.17,0,0,0,.09.14v0l.09.13v0a.28.28,0,0,1,0,.09v0s0,0,0,.06l0-.06-.06,0-.07,0-.09,0h-.07a.45.45,0,0,0-.2,0l0,.05h0c0-.06-.07-.13-.13-.21h0a1,1,0,0,0-.09-.14.15.15,0,0,1,0-.09.17.17,0,0,1,0-.1l-.16-.24a.64.64,0,0,0-.1.13h0a.45.45,0,0,0,0,.46s0,0,0,0h0c.06.09.11.19.16.28a.43.43,0,0,0-.11.12h0a.45.45,0,0,0,0,.46s0,0,.07,0h-.06c.17.3.11.19.27.51a.44.44,0,0,0,.53.23s0,0,0,0a.84.84,0,0,0,.08.15v0l0,.08h0l0,0,0,0a.17.17,0,0,1,0,.1v0s0,0-.05.06A.43.43,0,0,0,73,85l-.09-.07h0a.46.46,0,0,0-.33,0l0,.06h0l0-.09-.07-.14h0a.5.5,0,0,0-.07-.15.17.17,0,0,1,0-.19,1.51,1.51,0,0,1-.13-.26.34.34,0,0,0-.12.12h0a.43.43,0,0,0-.05.45l0,0h0c0,.1.1.2.14.3a.6.6,0,0,0-.12.11h0a.45.45,0,0,0-.07.45s0,0,0,0h0l.12.3a.69.69,0,0,0-.13.11s.07-.06.09-.06h0a.48.48,0,0,0-.17.51s0,0,0,0h0c0,.11.07.21.1.31a.41.41,0,0,0-.13.1h0a.45.45,0,0,0-.1.45s0,0,0,0h0c0,.12.06.22.09.32a.67.67,0,0,0-.14.09h0a.47.47,0,0,0-.12.45s0,0,0,0h0l.09.32a.38.38,0,0,0-.15.09h0a.48.48,0,0,0-.14.44s0,0,0,0h0c0,.11,0,.22.07.32a.42.42,0,0,0-.14.09h0a.47.47,0,0,0-.15.44s0,0,0,0h0q0,.18.06.33a.71.71,0,0,0-.15.08h0a.47.47,0,0,0-.16.44s0,0,0,0h0l.06.33a.53.53,0,0,0-.15.08h0a.48.48,0,0,0-.18.44s0,0,0,0h0c0,.11,0,.22,0,.33a.36.36,0,0,0-.15.08h0a.47.47,0,0,0-.19.43s0,0,0,0h0c0,.12,0,.23,0,.34a.35.35,0,0,0-.15.07h0a.46.46,0,0,0-.19.43s0,0,0,0h0l0,.33a.69.69,0,0,0-.15.07h0a.47.47,0,0,0-.2.43s0,0,0,0h0c0,.2,0,.39,0,.58a.44.44,0,0,0,.42.41h0c0,.09,0,.14,0,.17v.12h0v.1a.11.11,0,0,1,0,.08s0,0,0,0l-.06,0a.34.34,0,0,1,0-.08.16.16,0,0,0,0-.07.21.21,0,0,0,0-.06l-.07-.06-.06,0a.41.41,0,0,0-.19,0,1.11,1.11,0,0,0,0-.18h0c0-.17,0-.28.09-.34s0-.15,0-.29a.34.34,0,0,0-.15.06h0a.49.49,0,0,0-.21.42s0,0,0,0h0a3.25,3.25,0,0,0,0,.33.44.44,0,0,0-.16.06h0a.47.47,0,0,0-.21.42s0,0,0,0h0c0,.11,0,.23,0,.33a.34.34,0,0,0-.15.06h0a.48.48,0,0,0-.22.41s0,0,0,0h0c0,.12,0,.23,0,.33a.44.44,0,0,0-.16.06h0a.46.46,0,0,0-.23.4s0,0,0,0h0V98a.44.44,0,0,0-.16.06h0a.47.47,0,0,0-.24.4s0,0,0,0h0c0,.13,0,.23,0,.34a.3.3,0,0,0-.16,0h0a.47.47,0,0,0-.25.39s0,0,0,0h0c0,.12,0,.23,0,.33a.43.43,0,0,0-.16,0h0a.46.46,0,0,0-.26.39s0,0,0,0h0l0,.33a.47.47,0,0,0-.16,0h0a.46.46,0,0,0-.26.39s0,0,0,0h0q0,.18,0,.33l-.16,0h0a.49.49,0,0,0-.27.38s0,0,0,0h0c0,.12,0,.22,0,.33a.41.41,0,0,0-.16,0h0a.45.45,0,0,0-.28.37s0,0,0,0h0a2.88,2.88,0,0,1,0,.33.45.45,0,0,0-.16,0h0a.47.47,0,0,0-.29.36s0,0,0,0h0l-.06.33a.29.29,0,0,0-.16,0h0a.46.46,0,0,0-.31.36s0,0,0,0l0,0c0,.12,0,.23-.07.33a.3.3,0,0,0-.16,0h0a.45.45,0,0,0-.31.34s0,0,0,0h0c0,.12,0,.22-.07.32a.5.5,0,0,0-.17,0h0a.45.45,0,0,0-.32.33s0,0,0,0h0l-.09.32a.33.33,0,0,0-.17,0h0a.46.46,0,0,0-.33.32s0,0,0,0h0l-.09.31a.49.49,0,0,0-.17,0h0a.48.48,0,0,0-.34.31s0,0,0,0h0c0,.11-.07.21-.11.31h-.16a.45.45,0,0,0-.36.29s0,0,0,0l0,0c0,.12-.08.22-.12.31a.43.43,0,0,0-.16,0h0a.46.46,0,0,0-.37.28s0,0,0,0h0c-.05.11-.09.21-.14.3a.41.41,0,0,0-.16,0h0a.46.46,0,0,0-.38.26s0,0,0,0h0l-.15.29a.3.3,0,0,0-.16,0l.1,0h0a.45.45,0,0,0-.5.2s0,0,0,0h0l-.16.28-.16,0h0a.46.46,0,0,0-.41.21s0,0,0,0v0c-.06.1-.12.18-.18.27a.43.43,0,0,0-.16,0h0a.43.43,0,0,0-.41.18s0,0,0,0v0c-.3.4-.57.63-.42.91h0a.27.27,0,0,0,.06.1s0,0,0,0l-.08.1Zm-6,.06,0,0a.12.12,0,0,1,.06-.08Zm-1.42-.23h-.18a.16.16,0,0,1-.09,0l0,0a.09.09,0,0,1,0-.07.42.42,0,0,0,.15,0,.38.38,0,0,0,.23-.36h.19c.15,0,.27,0,.32.1l.12,0c-.23,0-.39.1-.45.29h0s0,0,0,0,0,.06,0,.09v0h-.06C50.49,110.84,50.46,110.83,50.44,110.84Zm-3.18-2-.09,0h-.08s0,0-.06,0a.12.12,0,0,1-.05,0s0,0,0,0h.09l.07,0,.08,0,.07,0,.06,0a.36.36,0,0,0,.11-.16l.16,0h0c.14,0,.28,0,.29.18l.2,0c-.26,0-.45-.05-.6.15h0s0,0-.06.12l-.16,0Zm-.71-.6-.16-.05h0l-.06,0a.21.21,0,0,1,0-.06.13.13,0,0,1,0-.06h.15a.38.38,0,0,0,.34-.27l.16,0h0c.15.05.28.06.28.2l.16,0c-.25,0-.44,0-.56.13h0s0,0,0,0l0,.07s0,0,0,0l-.17,0Zm-.68-.64-.09,0h0l0,0h0l-.06,0s0,0,0-.06a.13.13,0,0,1,0-.06h.15a.39.39,0,0,0,.35-.26l.16.06h0l.14.05a.16.16,0,0,1,.11.15l.15,0c-.25-.06-.43-.06-.56.1h0s0,0,0,.06,0,0,0,0l0,0-.16-.06ZM51,110.79h0a.09.09,0,0,1,0-.06h0A.12.12,0,0,1,51,110.79Zm-.83-.37h0a.21.21,0,0,1,0-.06h0A.13.13,0,0,1,50.12,110.42Zm-.8-.44h0l0,0h0l0,0Zm-.8-.49a.05.05,0,0,1,0,0h.06s0,0-.06,0Zm-.75-.54,0,0s0,0,0,0h0a.12.12,0,0,1-.05,0Zm-.72-.58,0,0s0,0,0,0h0s0,0-.06.05Zm-.69-.62s0,0,0,0l0,0h0a.1.1,0,0,1-.07,0S46.37,107.75,46.36,107.75Zm-.66-.64,0,0h.07l-.07,0Zm-.62-.67h0s0,0,0,0h.06s0,0-.06,0Zm-.61-.69h0s0,0,.05,0h0ZM44,105a.17.17,0,0,1-.1,0h0l0,0h0S44,105,44,105Zm0,.55-.12,0,0,0,0,0s0,0,0-.06,0,0,0,0h.09s0,0,.06,0H44l.08,0,.07,0a.44.44,0,0,0,.13-.14l.16.07h0l.15.07a.17.17,0,0,1,.09.17l.12,0c-.23-.08-.4-.1-.54,0h0s0,0,0,0l-.06.08s0,0,0,0l-.08,0Zm.6.71-.15-.06h0a.16.16,0,0,1-.07-.07l0,0s0,0,0-.07l.09,0h.06l.09,0a.13.13,0,0,0,.08,0l.07,0a.35.35,0,0,0,.13-.14l.16.06h0l.15.07a.17.17,0,0,1,.1.16l.13,0c-.23-.08-.41-.09-.55.06h0a.1.1,0,0,0,0,.05l0,0,0,0-.1,0Zm.63.69-.15-.06h0a.2.2,0,0,1-.09-.09h0s0,0,0-.08h.15l.08,0a.19.19,0,0,0,.08,0l.07,0a.35.35,0,0,0,.12-.15l.06,0,.11,0h0c.17.07.27.09.27.23l.13,0c-.23-.07-.41-.08-.55.08h0s0,0,0,0a.1.1,0,0,0,0,0l0,0-.16-.06ZM48,109.43h-.15a.16.16,0,0,1-.08-.05l0,0h0a.15.15,0,0,1,0-.07h.08l.07,0,.08,0,.07,0,.06-.05a.56.56,0,0,0,.09-.17l.17,0h0c.16,0,.29,0,.31.16l.23,0c-.27,0-.49,0-.62.17h0s0,0,0,0,0,0,0,.06a.05.05,0,0,0,0,0l-.17,0Zm.78.53H48.6a.1.1,0,0,1-.08-.05l0,0a.64.64,0,0,1,0-.07h.09l.06,0,.08,0a.18.18,0,0,0,.07,0s0,0,0-.06a.51.51,0,0,0,.09-.18h-.06l.24,0h0l.16,0a.17.17,0,0,1,.15.12h0A.45.45,0,0,0,49,110h-.2Zm.82.47h-.19s0,0-.06,0-.05,0-.06,0,0,0,0,0h.09l.07,0,.06,0,.07-.06s0,0,0-.06a.29.29,0,0,0,.07-.18H50a.16.16,0,0,1,.15.12s0,0,.1,0h0a.44.44,0,0,0-.4.24h0s0,0,0,.13H49.6Zm-6.28-6.13h0l0,0h.07A.17.17,0,0,1,43.32,104.3Zm-.53-.75h0l0,0h.07A.16.16,0,0,1,42.79,103.55Zm.07.53-.14-.08h0s0,0-.05-.06,0,0,0-.06v-.05l.09,0h.15l.09,0,.07,0a.43.43,0,0,0,.14-.13l.15.08h0l.15.08a.17.17,0,0,1,.08.17l.13.07c-.23-.11-.4-.14-.56,0h0l0,0,0,0,0,0-.13-.07Zm-.58-1.29h0s0,0,0,0h0s0,0,0,0A.16.16,0,0,1,42.28,102.79Zm-.5-.78h0l.08,0h0l-.07,0Zm-.47-.78h0l.08,0h0a.09.09,0,0,1-.07,0Zm-.45-.8h0a.11.11,0,0,1,.07,0h0Zm-.46-.81a.11.11,0,0,1,.07,0h0l-.08,0ZM40,98.8a.08.08,0,0,1,.08,0h0a.13.13,0,0,1-.08,0Zm-.4-.83.08,0h0l-.08,0Zm-.39-.83a.11.11,0,0,1,.08,0h0l-.08,0Zm-.38-.85h.06a.05.05,0,0,1,0,0h-.1Zm-.35-.85h.1a.11.11,0,0,1-.08,0S38.45,95.45,38.45,95.44Zm-.34-.85h.08s0,0,0,0l-.08,0Zm-.32-.87a.11.11,0,0,1,.08,0h0a.12.12,0,0,1-.08,0Zm-.31-.87h.08s0,0,0,0a.21.21,0,0,1-.08,0ZM37.19,92h0s0,0,0,0h-.07Zm-.26-.88,0,0h0l0,0h-.1Zm-.24-.89h.1a.22.22,0,0,1-.08,0Zm-.22-.9h0a.08.08,0,0,1,.07,0h0a.11.11,0,0,1-.08,0Zm-.19-.9h.08l0,0h-.1ZM36,86.59a.11.11,0,0,1,.08,0l0,0s0,0-.07,0Zm-.28.35h0a.16.16,0,0,1,0-.1v0s0,0,0-.06l.06.06.06,0,.08,0,.09,0h.07a.59.59,0,0,0,.19,0l0,0h0l0,.07.08.13h0s0,0,.09.14a.17.17,0,0,1,0,.19l.07.11c-.15-.2-.28-.3-.48-.26h0l-.07,0h0l-.08-.12,0,0A1.26,1.26,0,0,1,35.73,86.94Zm.39.56h.1a.14.14,0,0,1-.09,0Zm-.18-1.83H36a0,0,0,0,1,0,0l-.08,0Zm0-.92h0a.09.09,0,0,1,.06,0h0A.16.16,0,0,1,35.91,84.75Zm-.25.48h0s0,0,0,0l0-.07,0,0h0a.17.17,0,0,1,0-.1v0l.05-.06s0,0,0,.07l.06,0,.06,0a.16.16,0,0,0,.09,0H36a.34.34,0,0,0,.2,0l0,0,.1.2h0s0,0,.08.14a.15.15,0,0,1,0,.19l.07.11c-.13-.2-.26-.32-.47-.29h0l-.06,0h0l-.08-.15Zm.06.93L35.65,86v0a.13.13,0,0,1,0-.09s0,0,0,0,0,0,0-.05l.06.06.05,0,.07,0,.09,0H36a.43.43,0,0,0,.19,0l0,0h0l0,.08a.83.83,0,0,0,.07.13c.09.16.16.24.08.34a.7.7,0,0,0,.08.12c-.15-.21-.28-.33-.49-.29h0a.23.23,0,0,0-.11,0h0l-.07-.12ZM36,88l-.09-.14h0a.15.15,0,0,1,0-.09s0,0,0,0,0,0,0-.06a.22.22,0,0,0,.07.06l.05,0,.09,0,.08,0h.08a.42.42,0,0,0,.19-.06l0-.05h0l.06.07.09.13h0l.1.13a.17.17,0,0,1,0,.19s0,.05.13.17c-.17-.21-.32-.36-.55-.3h0l-.07,0,0,0A.87.87,0,0,0,36,88Zm.17.92a.74.74,0,0,0-.09-.12l0,0a.15.15,0,0,1,0-.09v0s0,0,0-.06l.07.06.06,0,.08,0h.08a.11.11,0,0,0,.08,0,.42.42,0,0,0,.19-.06l0,0s0,0,0,0l.14.2c.1.12.2.21.12.32l.08.1c-.15-.17-.3-.27-.5-.21h0s0,0,0,0l-.05,0,0,0L36.15,89Zm.21.9a.76.76,0,0,1-.1-.13h0a.16.16,0,0,1,0-.09v0a.15.15,0,0,1,0-.07l.07.06.06,0,.08,0h.16a.44.44,0,0,0,.19-.07.58.58,0,0,0,.11.13h0l0,0a.55.55,0,0,1,.08.1A.17.17,0,0,1,37,90l.08.08a.47.47,0,0,0-.51-.18h0l-.06,0,0,0,0,0-.11-.13Zm.24.9a.53.53,0,0,1-.11-.13h0a.12.12,0,0,1,0-.09s0,0,0,0l0-.06.07,0,.07,0s0,0,.07,0h.17a.36.36,0,0,0,.18-.07,1.2,1.2,0,0,0,.12.12v0h0l.11.12a.18.18,0,0,1,0,.2s0,0,.12.12l-.09-.09a.44.44,0,0,0-.58-.06h0l-.11-.12Zm.25.89-.1-.11,0,0a.14.14,0,0,1,0-.1v0s0,0,0-.06l.07,0,.06,0,.08,0h.17a.58.58,0,0,0,.18-.08h0c.07.08.09.11.11.12h0c.11.13.21.2.14.32l.16.17a.8.8,0,0,0-.13-.13.44.44,0,0,0-.46-.12h0a.41.41,0,0,0-.12.07l-.11-.12Zm.28.89A.55.55,0,0,0,37,92.4v0a.18.18,0,0,1,0-.09.1.1,0,0,0,0,0l0-.07.07,0,.07,0,.08,0a.14.14,0,0,0,.09,0h.07a.37.37,0,0,0,.18-.08l.12.13h0c.12.13.22.19.15.32l.14.13c-.19-.18-.36-.29-.57-.2h0l0,0-.05,0,0,0a1.25,1.25,0,0,1-.12-.12Zm.3.87a.46.46,0,0,1-.1-.1l0,0a.36.36,0,0,1,0-.09v0a.14.14,0,0,1,0-.06l.08,0,.06,0,.08,0h.17a.56.56,0,0,0,.17-.09l0,0h0l.08.07a.93.93,0,0,0,.1.1c.12.12.21.19.15.31l.14.13c-.19-.18-.36-.28-.57-.19h0l0,0,0,0,0,0a1.2,1.2,0,0,1-.12-.12Zm.31.87-.1-.09,0,0a.16.16,0,0,1,0-.09,0,0,0,0,1,0,0,.14.14,0,0,1,0-.07l.08,0,.06,0,.08,0h.09L38,94a.32.32,0,0,0,.17-.09l.13.12h0c.12.11.22.18.16.31l.14.13c-.2-.18-.37-.28-.57-.18h0s0,0,0,0l-.05,0,0,0a1.25,1.25,0,0,0-.12-.12Zm.33.87L38,95s0,0,0-.05a.2.2,0,0,1,0-.08s0,0,0,0a.15.15,0,0,1,0-.07l.07,0,.07,0,.08,0h.09l.07,0a.46.46,0,0,0,.17-.09l.13.11h0l.12.11a.16.16,0,0,1,0,.19l.11.09c-.19-.15-.35-.23-.54-.13h0s0,0,0,0l0,0,0,0-.13-.11Zm.35.86-.08-.08h0l0,0a.36.36,0,0,1,0-.09s0,0,0,0a.14.14,0,0,1,0-.07l.08,0,.06,0,.08,0h.17a.42.42,0,0,0,.17-.1l.13.11h0l.13.1a.17.17,0,0,1,0,.19l.14.12c-.19-.16-.36-.25-.57-.16h0s0,0-.11.08L38.42,96Zm.37.85-.12-.11h0s0,0,0-.07a.14.14,0,0,1,0-.06s0,0,0-.06a.19.19,0,0,0,.08,0l.06,0h.17l.08,0a.42.42,0,0,0,.17-.1l.13.11h0l.12.1a.24.24,0,0,1,.06.09.17.17,0,0,1,0,.1l.11.08a.49.49,0,0,0-.55-.11h0s0,0,0,0l0,0,0,0-.13-.11Zm.38.84L39,97.56h0a.2.2,0,0,1,0-.08s0,0,0,0a.14.14,0,0,1,0-.07l.08,0,.06,0h.17l.08,0a.34.34,0,0,0,.16-.1l.14.1h0c.13.11.23.17.19.3l.1.08a.47.47,0,0,0-.54-.1h0s0,0,0,0l0,0,0,0-.13-.1Zm.4.83-.13-.1h0a.2.2,0,0,1,0-.08l0,0a.14.14,0,0,1,0-.07l.08,0,.07,0h.17l.07,0a.45.45,0,0,0,.17-.11l.13.11h0c.14.11.24.16.2.29l.1.07a.46.46,0,0,0-.54-.08h0l0,0,0,0,0,0-.13-.1Zm.42.83-.13-.1h0a.14.14,0,0,1,0-.08s0,0,0,0,0,0,0-.07l.08,0,.07,0h.17l.08,0a.42.42,0,0,0,.16-.11l.13.1h0l.12.1a.15.15,0,0,1,.06.18l.12.08c-.2-.13-.38-.19-.55-.08h0s0,0,0,0a.1.1,0,0,0-.05,0s0,0,0,0l-.13-.1Zm.43.82-.13-.1h0a.22.22,0,0,1,0-.08v0s0,0,0-.07l.08,0,.07,0h.17l.07,0a.48.48,0,0,0,.16-.12l.14.1h0l.14.09a.18.18,0,0,1,.06.18l.1.07c-.2-.12-.37-.17-.54,0h0l0,0,0,0,0,0-.14-.1Zm.46.81-.14-.1h0a.14.14,0,0,1-.05-.08,0,0,0,0,1,0,0,.08.08,0,0,1,0-.07l.08,0,.07,0H41l.08,0a.45.45,0,0,0,.16-.12l.14.1h0l.13.09a.18.18,0,0,1,.07.19l.1,0c-.2-.11-.37-.15-.53,0h0l-.06,0s0,0,0,0a.08.08,0,0,0,0,0l-.14-.1Zm.47.8-.14-.1h0a.14.14,0,0,1,0-.08s0,0,0,0,0,0,0-.07l.09,0h.15l.08,0,.08,0a.42.42,0,0,0,.15-.12l.15.1h0l.14.09a.16.16,0,0,1,.07.18l.09,0a.45.45,0,0,0-.52,0h0l0,0,0,0s0,0,0,0l-.13-.08Zm.49.78-.14-.08h0a.24.24,0,0,1-.06-.08s0,0,0,0a.09.09,0,0,1,0-.07l.08,0h.07a.11.11,0,0,0,.08,0h.09l.07,0a.37.37,0,0,0,.15-.13l.15.09h0l.14.09a.16.16,0,0,1,.07.18l.13.07c-.22-.12-.4-.16-.56,0h0s0,0,0,0l-.05,0s0,0,0,0l-.11-.06ZM38.33,77h0a.07.07,0,0,1,0,.05A.16.16,0,0,1,38.3,77Zm-.5.13h0v0h0v0a.16.16,0,0,1,0-.07l0,0H38A.34.34,0,0,0,38,77a.19.19,0,0,0,0,.07.14.14,0,0,0,0,.07l.05.08.06,0a.37.37,0,0,0,.17.1c0,.09,0,.15,0,.17h0s0,.06,0,.16a.19.19,0,0,1-.13.14.43.43,0,0,0,0,0h0a.42.42,0,0,0-.2-.43h0l-.1,0,0,0c0-.06,0-.11,0-.19Zm-1.9,6.73s0,0,0,0h0l.06,0s0,0,0,0Zm.06-.93a.1.1,0,0,1,.07,0,0,0,0,0,1,0,0A.2.2,0,0,1,36,82.91Zm.14-.9s0,0,0,0a.09.09,0,0,1,.06,0s0,0,0,0-.05,0-.07,0Zm.19-.9v0a.11.11,0,0,1,.07,0s0,0,0,0A.11.11,0,0,1,36.32,81.11Zm1-2.58a0,0,0,0,0,0,0s.05,0,.06,0a0,0,0,0,1,0,0S37.31,78.55,37.3,78.53Zm-.44.2h0v0a.43.43,0,0,1,0,0,.16.16,0,0,1,0-.09l0,0,.06,0a.92.92,0,0,0,0,.09.14.14,0,0,0,0,.06.35.35,0,0,0,0,.08l.06.06.06,0a.6.6,0,0,0,.19.06v.19h0v.16a.15.15,0,0,1-.11.16v0h0a.43.43,0,0,0-.26-.39h0c-.06,0,0,0-.14,0a.58.58,0,0,0,0-.17v-.12Zm0,.63s0,0,0,0a.09.09,0,0,1,.06,0l0,0h0A.18.18,0,0,1,36.9,79.36Zm-.41.33V79.6h0v-.09a.16.16,0,0,1,0-.09s0,0,0,0,0,0,.06,0a.47.47,0,0,0,.06.15.36.36,0,0,0,.37.21,1.3,1.3,0,0,0,0,.18h0a.82.82,0,0,0,0,.16.18.18,0,0,1-.1.16s0,0,0,.07v0a.46.46,0,0,0-.29-.37h0s0,0-.14,0,0-.16,0-.18Zm.08.52h0l.08,0a0,0,0,0,0,0,0Zm.87-2h0c-.06,0,0,0-.14,0a1.36,1.36,0,0,0,0-.16V77.9h0v-.06h0v0a.41.41,0,0,1,0-.09s0,0,0,0l.06,0a.45.45,0,0,0,0,.08.29.29,0,0,0,0,.09l0,0a.27.27,0,0,0,.07.08s0,0,0,0a.37.37,0,0,0,.18.08,1.6,1.6,0,0,0,0,.17h0c0,.16,0,.28-.13.32s0,0,0,.05h0A.41.41,0,0,0,37.44,78.24Zm.33-.51s0,0,0,0a.12.12,0,0,1,.05.05s0,0,0,0a.1.1,0,0,1,0,0ZM36.2,80.59s0-.06,0-.09h0v-.09a.16.16,0,0,1,0-.1s0,0,0,0l.07,0a.41.41,0,0,0,.15.24l0,0a.45.45,0,0,0,.25.07v-.06h0l0,.07a1.28,1.28,0,0,0,0,.17c0,.15.08.27,0,.34a.13.13,0,0,1,0,.06v0a.43.43,0,0,0-.32-.34h0s0,0-.14,0a.89.89,0,0,0,0-.17ZM36,81.5l0-.09h0v0a.11.11,0,0,1,0-.05s0,0,0,0a.15.15,0,0,1,.08-.12.39.39,0,0,0,.08.14.38.38,0,0,0,.4.15v-.06h0l0,.08c0,.05,0,.09,0,.16h0a1.1,1.1,0,0,0,0,.15.16.16,0,0,1-.07.18s0,0,0,.06h0a.43.43,0,0,0-.35-.32h0s0,0-.15,0a1.12,1.12,0,0,0,0-.16Zm-.17.93,0-.09h0l0,0a.43.43,0,0,0,0,0,.14.14,0,0,1,0-.09s0,0,0,0a.12.12,0,0,1,0-.05.45.45,0,0,0,.1.14.27.27,0,0,0,.08.07h0a.37.37,0,0,0,.32,0l0-.06h0a.76.76,0,0,1,0,.11l0,.13h0a.88.88,0,0,0,.06.16.18.18,0,0,1-.06.18.11.11,0,0,0,0,.05h0A.43.43,0,0,0,36,82.6h0c-.06,0,0,0-.14,0l-.06-.16Zm-.1.93,0-.09h0l0,0a.08.08,0,0,1,0,0,.17.17,0,0,1,0-.1v0a.12.12,0,0,1,0,0l.05.07.06,0,.06.05.08,0,.07,0a.44.44,0,0,0,.2,0l.07.16h0s0,0,.06.15a.16.16,0,0,1-.05.19s0,0,.07.15c-.1-.22-.21-.38-.44-.38h-.15a.89.89,0,0,0-.07-.16Zm3.24-7.07s0,0,0,0a.18.18,0,0,1,0-.09l0,0A0,0,0,0,0,38.94,76.29Zm.78-1.18.07-.14v0a.24.24,0,0,1,.09-.08h0a.21.21,0,0,1,.08,0A.51.51,0,0,1,40,75V75s0,0,0,.08l0,.08a.16.16,0,0,0,0,.07.38.38,0,0,0,.15.13l-.08.17h0s0,.06-.06.15a.15.15,0,0,1-.16.1l-.1.27c.11-.29.19-.48,0-.69h0c-.05,0,0,0-.12-.09a.53.53,0,0,0,.06-.15Zm-.13.54v0a.1.1,0,0,1,0-.07v0l0,0S39.59,75.64,39.59,75.65Zm.7-.6a.06.06,0,0,1,0,0,.15.15,0,0,1,0-.07v0s0,0,0,0Zm.73-.5a.19.19,0,0,1,0-.08v0a.05.05,0,0,1,0,0s0,0,0,0Zm1-1,0,0,.06-.09,0-.06h0a.12.12,0,0,1,.08,0l0,0,.07,0a.56.56,0,0,0,0,.08s0,0,0,.07a.19.19,0,0,0,0,.08.29.29,0,0,0,0,.09.25.25,0,0,0,0,.07.42.42,0,0,0,.11.16l0,0-.07.1h0c-.09.13-.14.25-.28.21l-.11.17c.14-.22.23-.41.09-.61h0l0,0,0,0,0,0Zm.58,0s0,0,0,.05a.15.15,0,0,1,0-.09v0s0,0,0,0Zm-.84.41v0a.16.16,0,0,1,0,.1A.13.13,0,0,1,41.77,74Zm1.67-.81s0,0,0,0a.11.11,0,0,1,0-.08s0,0,0,0,0,0,0,0S43.44,73.16,43.44,73.17Zm.82-.38s0,0,0,0h0a.11.11,0,0,1,0,.08s0,0,0,0A.22.22,0,0,1,44.26,72.79Zm.87-.31v0a.12.12,0,0,1,0,.08v0A.22.22,0,0,1,45.13,72.48ZM46,72.2h0a.05.05,0,0,1,0,0v0s0,0,0,0A.14.14,0,0,1,46,72.2Zm-.52-.11.06-.06h0l0,0,0,0a.14.14,0,0,1,.1,0h0l.06,0,0,.07,0,.07s0,.05,0,.08a.19.19,0,0,0,0,.08s0,0,0,.08a.49.49,0,0,0,.08.18l-.09.09,0,0h0l-.12.11a.15.15,0,0,1-.19,0,1.74,1.74,0,0,1-.15.15c.19-.19.32-.36.23-.58h0a.05.05,0,0,0,0,0l0-.06s0,0,0,0l.12-.12Zm-.89.29.06-.06h0l0,0,0,0s0,0,.09,0h0a.15.15,0,0,1,.07,0l0,.07a.14.14,0,0,0,0,.07.19.19,0,0,0,0,.08.11.11,0,0,0,0,.08.22.22,0,0,0,0,.08.31.31,0,0,0,.09.18l0,0h0l-.18.17h0l-.11.12a.17.17,0,0,1-.19,0l-.15.17c.18-.2.31-.38.2-.6h0s0,0,0,0l0-.05s0,0,0,0l.11-.13Zm-.87.34.07-.09h0s0,0,0,0l.09,0h0l.07,0,0,.07a.64.64,0,0,1,0,.07.19.19,0,0,0,0,.08.27.27,0,0,0,0,.09.19.19,0,0,0,0,.07.38.38,0,0,0,.09.18l0,0-.14.15c-.1.12-.17.23-.3.18l-.12.15c.16-.2.26-.38.15-.59h0s0,0,0,0l0,0,0,0,.11-.13Zm-.86.37L43,73l0,0h0l.07,0h0l.07,0a.22.22,0,0,0,0,.08.14.14,0,0,0,0,.07.19.19,0,0,0,0,.08s0,0,0,.08,0,0,0,.08a.36.36,0,0,0,.11.16s-.08.09-.12.15-.15.24-.29.19l-.08.12c.13-.19.21-.37.09-.56h0s0,0,0,0l0,0s0,0,0,0l.1-.13Zm7.17-1.94.14-.09h0a.1.1,0,0,1,.09,0h0l.06,0a.45.45,0,0,0-.07.07l0,0a.3.3,0,0,0,0,.08s0,.06,0,.09a.16.16,0,0,0,0,.07.41.41,0,0,0,0,.19l.06,0h0l-.1.06-.11.07c-.13.08-.22.18-.34.09l-.11.08c.19-.14.31-.29.26-.49h0s0,0,0,0,0,0,0-.06,0,0,0,0l.13-.09ZM46.9,72h0a.2.2,0,0,1,0,.07l0,0A.27.27,0,0,1,46.9,72Zm.91-.21h0v.07l0,0A.16.16,0,0,1,47.81,71.76Zm.9-.15h0s0,.05,0,.07l0,0A.22.22,0,0,1,48.71,71.61Zm.92-.15h0a.08.08,0,0,1,0,.07l0,0v-.07S49.63,71.47,49.63,71.46Zm.91-.11a.11.11,0,0,1,0,.08h0a.22.22,0,0,1,0-.08Zm.91-.08h0a.15.15,0,0,1,0,.07s0,0,0,0A.28.28,0,0,1,51.45,71.27Zm.93-.08a0,0,0,0,1,0,0h0s0,0,0,0,0,0,0,0a.08.08,0,0,1,0-.08S52.38,71.2,52.38,71.19Zm.92,0a.15.15,0,0,1,0,.07l0,0a.19.19,0,0,1,0-.08Zm.91,0h0a.15.15,0,0,1,0,.09h0A.29.29,0,0,1,54.21,71.15Zm.92,0a0,0,0,0,0,0,0,.11.11,0,0,1,0,.08h0A.13.13,0,0,1,55.13,71.15Zm.92,0h0a.06.06,0,0,1,0,.07v0A.19.19,0,0,1,56.05,71.17Zm.93,0h0a.19.19,0,0,1,0,.07l0,0a.19.19,0,0,1,0-.08Zm-.45-.27.08,0h0l0,0,0,0a.14.14,0,0,1,.09,0h0s0,0,0,0L56.8,71l0,0a.22.22,0,0,0,0,.08.25.25,0,0,0,0,.07s0,0,0,.08a.45.45,0,0,0,0,.2l.06,0h0l-.08,0-.15.06c-.16.07-.25.13-.35,0l-.11,0c.2-.1.34-.22.33-.43h0s0,0,0,0a.13.13,0,0,1,0-.06.09.09,0,0,1,0,0l.15-.07Zm-.93,0,.15-.07h0a.17.17,0,0,1,.1,0h0a.07.07,0,0,1,0,0l-.06.06a.12.12,0,0,0-.05,0,.16.16,0,0,0,0,.07.2.2,0,0,0,0,.08.19.19,0,0,0,0,.08.31.31,0,0,0,0,.19l.05,0h0l-.15.07-.07,0c-.15.07-.25.14-.35,0l-.13.06c.21-.11.35-.23.34-.45h0s0,0,0-.06a.09.09,0,0,0,0,0,.09.09,0,0,0,0,0l.15-.07Zm-.93,0,.15-.07h0a.17.17,0,0,1,.1,0h0s0,0,.06,0l-.07,0,0,.06,0,.06,0,.09a.17.17,0,0,0,0,.07.44.44,0,0,0,0,.2l.06,0h0l-.11.06-.12,0h0l-.14.08a.18.18,0,0,1-.19,0l-.13.06c.21-.12.35-.24.33-.45h0s0,0,0,0,0,0,0-.06,0,0,0,0l.15-.07Zm-.92,0,.15-.07H54l.05,0-.07.06,0,0a.25.25,0,0,0,0,.07.32.32,0,0,0,0,.09.15.15,0,0,0,0,.07.35.35,0,0,0,0,.2l0,0h0l-.1,0-.12.06h0l-.14.08a.18.18,0,0,1-.2,0l-.09,0c.19-.11.31-.24.28-.44h0a.19.19,0,0,0,0-.07v0a.09.09,0,0,1,0-.05l.15-.08Zm-.93,0,.15-.08h0a.1.1,0,0,1,.09,0h0l0,0-.06.06,0,0-.05.08a.24.24,0,0,0,0,.08.22.22,0,0,0,0,.08.31.31,0,0,0,0,.19l.05,0h0l-.08,0-.13.07c-.15.08-.25.15-.35.06l-.12.07.08,0a.43.43,0,0,0,.23-.41h0a.35.35,0,0,0,0-.14l.15-.08Zm-.93,0L52,70.9h.14l.06,0-.07.06,0,.06a.16.16,0,0,0,0,.07.29.29,0,0,0,0,.09.2.2,0,0,0,0,.07.45.45,0,0,0,0,.2l-.1.06-.07,0c-.14.09-.23.16-.34.07l-.16.1c.22-.13.37-.27.33-.5h0a.43.43,0,0,0,0,0s0,0,0-.06a.09.09,0,0,0,0,0l.14-.08Zm-.92.08.08-.06,0,0,0,0h.13l.06,0-.06.06a.21.21,0,0,0,0,.06.16.16,0,0,0,0,.07.29.29,0,0,0,0,.09.17.17,0,0,0,0,.07.45.45,0,0,0,0,.2l.06,0h0l-.21.12c-.14.09-.23.17-.34.08s0,0-.11.08c.2-.14.32-.28.28-.48h0s0,0,0,0,0,0,0-.06a.06.06,0,0,1,0,0l.14-.09Zm-1.84.22.14-.09h0l.09,0h0s0,0,.06,0l-.05.06,0,.06a.26.26,0,0,0,0,.08.24.24,0,0,0,0,.08.25.25,0,0,0,0,.08.42.42,0,0,0,.06.19l.05,0h0l-.11.07-.1.07h0l-.13.08a.17.17,0,0,1-.19,0l-.09.07a.49.49,0,0,0,.23-.48h0a.14.14,0,0,0,0-.06s0,0,0,0l0,0,.14-.1Zm-.92.16.14-.1h0l.09,0h0s0,0,.06,0l0,.07,0,.06,0,.08a.22.22,0,0,0,0,.08.22.22,0,0,0,0,.08.33.33,0,0,0,.06.19l.05,0h0l-.09.07-.11.08h0l-.13.1a.18.18,0,0,1-.2,0l-.09.08c.18-.16.28-.3.22-.49h0s0,0,0,0l0-.08s0,0,0,0l.12-.09Zm-.91.18.13-.1h0a.15.15,0,0,1,.09,0h0l.06,0-.05.08a.1.1,0,0,0,0,0,.24.24,0,0,0,0,.08.29.29,0,0,0,0,.09.22.22,0,0,0,0,.08.3.3,0,0,0,.06.18l-.13.11h0s-.05,0-.13.1a.18.18,0,0,1-.19,0l-.06,0,0,0a.46.46,0,0,0,.09-.6l.13-.1Zm18.29,1.16h.18a.13.13,0,0,1,.09,0h0a.25.25,0,0,1,0,.07.33.33,0,0,0-.15,0,.38.38,0,0,0-.23.36h-.19c-.16,0-.27,0-.33-.1H64.9c.25,0,.41-.09.47-.28h0s0,0,0,0,0-.06,0-.09,0,0,0,0,.18,0,.19,0Zm.85.4h.18a.15.15,0,0,1,.09,0l0,0s0,0,0,.07h0a.23.23,0,0,0-.11,0,.39.39,0,0,0-.26.35h-.18c-.17,0-.28,0-.33-.11h-.11c.23,0,.39-.08.46-.26h0a.17.17,0,0,0,0-.07l0,0s0,0,0,0h.19Zm.68.44c.1,0,.13,0,.14,0h.18a.19.19,0,0,1,.09,0l0,0a.19.19,0,0,1,0,.07h0a.18.18,0,0,0-.1,0,.38.38,0,0,0-.29.33.55.55,0,0,0-.17,0h0c-.18,0-.28,0-.32-.13h-.1a.48.48,0,0,0,.47-.24h0s0,0,0-.06l0,0s0,0,0,0h.05Zm2.4,1.7.09,0h0l.06,0a.12.12,0,0,1,0,.05s0,0,0,0a.15.15,0,0,1,0,.07.29.29,0,0,0-.16,0,.39.39,0,0,0-.34.26l-.16,0h0l-.15,0a.16.16,0,0,1-.11-.16l-.2,0,.15,0a.44.44,0,0,0,.45-.13h0a.35.35,0,0,0,.08-.13h0l.16,0Zm-11.64-4,0,0h0a.11.11,0,0,1,0,.08h0A.17.17,0,0,1,57.88,71.28Zm.93.08h0a.13.13,0,0,1,0,.06l0,0A.13.13,0,0,1,58.81,71.36Zm.91.12,0,0a.1.1,0,0,1,0,.08h0S59.7,71.5,59.72,71.48Zm.92.13h0s0,0,0,.07h0S60.62,71.64,60.64,71.61Zm.9.18h0a.09.09,0,0,1,0,.07s0,0,0,0A.25.25,0,0,1,61.54,71.79Zm.9.2h0a.14.14,0,0,1,0,.06l0,0A.12.12,0,0,1,62.44,72Zm.88.25h0a.09.09,0,0,1,0,.06l0,0A.16.16,0,0,1,63.32,72.24Zm.9.27h0a.16.16,0,0,1,0,.07h0A.12.12,0,0,1,64.22,72.51Zm.86.32,0,.07h0A.16.16,0,0,1,65.08,72.83Zm.83.38h0a.1.1,0,0,1-.05.06l0,0A.12.12,0,0,1,65.91,73.21Zm.83.41h0s0,0-.06.06h0s0,0,0-.06Zm.81.47h0l0,0h0a.15.15,0,0,1,0-.06Zm1.35.63h0l0,0s0,0,.06,0,0,0,0,0a.14.14,0,0,1,0,.06H69a.4.4,0,0,0-.34.3l-.17,0h0l-.16,0a.16.16,0,0,1-.12-.15H68c.24,0,.4,0,.51-.16h0s0,0,0,0a.43.43,0,0,0,0-.07s0,0,0,0l.19,0Zm0,.52a.19.19,0,0,1,.09,0h0l0,0,0,0h0Zm-.63-.63h0l0,0h0l.06,0Zm1.29,1.27s0,0,.07,0h0l0,0H69.6Zm.71.64,0,0h0s0,0,0,0A.16.16,0,0,1,70.31,76.52Zm.45.77a.12.12,0,0,1,.1,0h-.1Zm0-.56.1.06,0,0h0s0,0,0,.06a.09.09,0,0,1,0,.06.07.07,0,0,1,0,0l-.08,0h-.07a.22.22,0,0,0-.08,0l-.09,0-.07,0a.35.35,0,0,0-.14.13l0,0-.13-.06h0L70.16,77a.19.19,0,0,1-.09-.17l0,0h0a.47.47,0,0,0,.47-.06h0s0,0,.09-.11l.15.08Zm-.6-.73.17.07a.2.2,0,0,1,.09.09h0s0,0,0,.07l-.09,0h-.07l-.08,0a.32.32,0,0,0-.09,0l-.06,0a.38.38,0,0,0-.13.15l-.16-.07h0c-.15-.06-.27-.08-.26-.23h0a.44.44,0,0,0,.55-.21h0l.15.06Zm-2-1.85h.09l.08,0,0,0a.26.26,0,0,1,0,.08h-.15a.39.39,0,0,0-.31.32l-.17,0h0l-.16,0a.19.19,0,0,1-.14-.13h-.1c.23,0,.39,0,.48-.19h0a0,0,0,0,1,0,0l0-.09,0,0,.19,0Zm-3.33-1.72h.09a.16.16,0,0,1,.09,0l0,0s0,0,0,.06h0a.56.56,0,0,0-.2.12l0,.06a.41.41,0,0,0-.08.24l-.17,0h0c-.17,0-.27,0-.33-.08h-.1a.47.47,0,0,0,.42-.31h0a.15.15,0,0,0,0-.07s0,0,0,0,0,0,0,0l.2,0Zm-1-.3h.24a.15.15,0,0,1,.1.09h0a.41.41,0,0,0-.2.14l0,0a.37.37,0,0,0-.07.25h.06l-.12,0h-.13l-.16,0a.17.17,0,0,1-.17-.09l-.1,0c.21,0,.36-.14.4-.33h0s0,0,0-.07a.43.43,0,0,0,0,0v0h.05ZM63,71.87l.09,0h.09s0,0,0,0a.15.15,0,0,1,.11.08l-.08,0-.05,0-.07.06-.05.06,0,.08a.42.42,0,0,0,0,.19H63l-.12,0-.12,0c-.16,0-.27.07-.35-.05l-.2,0,.16,0a.46.46,0,0,0,.34-.33h0v0a.27.27,0,0,0,0-.14l.17,0Zm-.9-.23.08,0h.14a.15.15,0,0,1,.12.08.41.41,0,0,0-.22.17l0,0a.44.44,0,0,0,0,.25h.06l-.06,0-.18,0h0l-.16,0a.18.18,0,0,1-.18-.08l-.09,0,0,0a.43.43,0,0,0,.33-.34h0a.34.34,0,0,0,0-.1v-.06l.16,0Zm-.92-.19.09,0h0l.05,0h.12l0,0a.1.1,0,0,1,0,0l-.08,0,0,0-.06.05,0,.08,0,.07a.34.34,0,0,0,0,.2L61,72h0l-.16,0a.16.16,0,0,1-.18-.07l-.19,0c.26-.07.44-.17.46-.39h0s0,0,0,0V71.5l.16,0Zm-.91-.16.08,0h.09a.12.12,0,0,1,.1,0h0l0,.06-.08,0s0,0-.05.05l-.06.06,0,.07,0,.08a.45.45,0,0,0,0,.2l0,0h0l-.15,0-.08,0c-.16,0-.27.11-.35,0l-.12,0c.22-.08.36-.19.38-.4h0s0,0,0-.06v-.06s0,0,0,0l.16,0Zm-.92-.13.11,0,.06,0a.14.14,0,0,1,.09,0h0s0,0,0,0a.25.25,0,0,0-.08,0l0,0-.05.07a.2.2,0,0,0,0,.08l0,.07a.67.67,0,0,0,0,.2l-.17,0h0l-.16.05a.16.16,0,0,1-.18-.05l-.14.05c.24-.09.38-.2.39-.41h0v0a.38.38,0,0,0,0-.1v0l.15,0Zm-.92-.1.08,0h0l0,0h0a.17.17,0,0,1,.1,0h0a.12.12,0,0,1,0,0l-.07,0,0,0-.05.06,0,.08a.24.24,0,0,0,0,.08.41.41,0,0,0,0,.19l0,0h0l0,0-.18.07c-.16,0-.26.11-.35,0l-.12,0c.22-.1.36-.21.36-.42h0s0,0,0,0,0,0,0-.06,0,0,0,0l.16-.06Zm12.94,7h0s0,0,0,0h-.06A.19.19,0,0,1,71.32,78Zm-.15,0h0Zm.58.83h0l-.07,0h0l.08,0Zm.34.86,0,0h0a.05.05,0,0,0,0,0,.11.11,0,0,1,.08,0Zm.07-.54.09.09s0,0,0,0a.19.19,0,0,1,0,.09v0a.19.19,0,0,1,0,.07l-.08,0-.06,0-.08,0H72l-.07,0a.38.38,0,0,0-.18.09l0,0a.7.7,0,0,0-.09-.09h0c-.13-.11-.23-.17-.18-.3L71.28,79c.2.16.38.28.6.16h0l0,0,0,0,.05,0,.13.11Zm-.39-.86.11.09,0,0a.36.36,0,0,1,0,.09v0a.14.14,0,0,1,0,.07l-.08,0-.07,0h-.16l-.08,0a.57.57,0,0,0-.16.11l0,0-.18-.13h0l-.13-.09a.16.16,0,0,1-.06-.18l-.18-.12c.22.15.41.25.62.12h0l0,0s0,0,0,0,0,0,0,0a.53.53,0,0,0,.14.1ZM72.71,81l0,0,.08.1a0,0,0,0,0,0,0,.2.2,0,0,1,0,.07s0,0,0,0a.16.16,0,0,1,0,.07.14.14,0,0,0-.07-.06l-.06,0-.07,0h-.16a.6.6,0,0,0-.19.06l-.12-.14C72,81,72,80.92,72,80.81l-.17-.19c.19.22.33.36.59.3h0a.41.41,0,0,0,.12-.07l.11.13Zm-.35-.38h0s0,0,0,0a.22.22,0,0,1,.08,0Zm.2.9h0l-.05,0h.08Zm.14.91h-.06l0,0h.1Zm.18-.5a.42.42,0,0,1,.06.08.34.34,0,0,1,0,.11v0s0,.06,0,.07v0l0,0-.07-.06-.06,0-.07,0-.09,0h-.07a.42.42,0,0,0-.19.06L72.31,82c-.1-.13-.18-.21-.1-.32l-.15-.19c.17.22.3.37.56.32h0a.25.25,0,0,0,.13,0l.1.13Zm-.1,1.42a0,0,0,0,1,0,0l-.06,0a0,0,0,0,1,0,0h.07Zm0,.91a0,0,0,0,1,0,0h0a.13.13,0,0,1-.06,0Zm-.37-.45h0Zm.63,0a.85.85,0,0,1,.07.16h0a.16.16,0,0,1,0,.12h0s0,0,0,.06a.33.33,0,0,0-.06-.06l0,0-.07,0-.08,0h-.08a.35.35,0,0,0-.2,0l0-.11,0-.06h0l-.08-.14a.17.17,0,0,1,0-.19,2.38,2.38,0,0,1-.14-.24c.14.25.27.46.53.42h0l.06,0h0l.08.15Zm-3,12.57v.09h0v.09a.16.16,0,0,1,0,.09s0,0,0,0,0,0-.06,0a.45.45,0,0,0,0-.08.33.33,0,0,0,0-.06l-.05-.07a.2.2,0,0,0-.07-.06l-.06,0a.41.41,0,0,0-.19-.05v.06h0v-.1a.71.71,0,0,1,0-.15c0-.17,0-.28.1-.33a.83.83,0,0,0,0-.12c0,.23.09.39.29.45h.15a.67.67,0,0,0,0,.17Zm-.38.85v.09h0v0a.07.07,0,0,1,0,0,.11.11,0,0,1,0,.08.08.08,0,0,1,0,0l-.06,0a.51.51,0,0,0,0-.09l0-.06,0-.07-.06-.06-.07-.05a.35.35,0,0,0-.18,0,.67.67,0,0,0,0-.18h0c0-.17,0-.29.11-.33a.58.58,0,0,0,0-.1.45.45,0,0,0,.28.44h0l0,0h0v.19ZM68.91,99v.09a.15.15,0,0,1,0,.07.1.1,0,0,1,0,.05l0,0s0,0,0-.08l0-.07,0-.07-.06-.06-.06,0a.42.42,0,0,0-.19-.06.5.5,0,0,0,0-.18h0v-.16a.17.17,0,0,1,.11-.16v-.11c0,.22.07.39.26.46h0l.05,0h0c0,.12,0,.17,0,.19h0V99Zm-.43.23h0l0,0s0,0,0,0a.08.08,0,0,1,0,0h0s0,0,.06,0A.06.06,0,0,1,68.48,99.2Zm.81-1.68v0s-.05,0-.06-.06v0s0,0,.06.05Zm-.12.29h.1l0,0v.28h0v.09a.19.19,0,0,1,0,.08l0,0a.09.09,0,0,1-.07,0s0,0,0-.08l0-.06,0-.08-.06-.06-.07,0A.28.28,0,0,0,68.8,98v-.18h0v-.16a.15.15,0,0,1,.11-.16.83.83,0,0,0,0-.12C68.92,97.58,69,97.74,69.17,97.81Zm-.27.56s-.06,0-.07-.06v0a.2.2,0,0,1,.07.06A0,0,0,0,0,68.9,98.37ZM70,95.85l-.07,0s0,0,0,0a.16.16,0,0,1,.08.06Zm-.37.82v0a.15.15,0,0,1-.06,0s0,0,0,0Zm1.92-5.16h0s0,0,0,0A.09.09,0,0,1,71.59,91.51Zm-.28.88h0l-.07,0a0,0,0,0,0,0,0S71.3,92.36,71.31,92.39Zm-.29.87v0h0a.1.1,0,0,1,0,0A.1.1,0,0,1,71,93.27Zm-.24,1.36v0s0,.06,0,.09h0v0a.08.08,0,0,1,0,0s0,.05,0,.08,0,0,0,0,0,0,0,0a.2.2,0,0,0,0-.08l0-.07,0-.06-.07-.06-.06,0a.31.31,0,0,0-.19,0,1.11,1.11,0,0,0,0-.18h0c0-.17,0-.28.08-.34s0-.07,0-.24a1.23,1.23,0,0,0,0,.19.43.43,0,0,0,.29.38h0a.38.38,0,0,0,.14,0C70.77,94.54,70.78,94.59,70.78,94.62Zm-.4.36s0,0,0,0h0s0,0,0,0Zm.33-.85h0l0,0s0,0,0,0A.12.12,0,0,1,70.71,94.13Zm.4-.35v.09h0V94a.43.43,0,0,0,0,.05.18.18,0,0,1-.09.1A.2.2,0,0,0,71,94a458102152662.28,458102152662.28,0,0,0-.08-.12l-.07-.06-.07,0a.41.41,0,0,0-.19,0,1.3,1.3,0,0,0,0-.18h0s0-.06,0-.16a.17.17,0,0,1,.09-.17,1.53,1.53,0,0,0,0-.21c0,.06,0,.11,0,.16a.44.44,0,0,0,.44.39h0c0,.08,0,.14,0,.16Zm.3-.88V93h0v.09a.14.14,0,0,1,0,.07s0,0,0,.06,0,0,0,0a.27.27,0,0,0,0-.08l0-.06,0-.06L71.14,93l-.06,0a.65.65,0,0,0-.19,0c0-.09,0-.15,0-.17h0s0-.06,0-.16a.19.19,0,0,1,.09-.18,1.12,1.12,0,0,1,0-.2.88.88,0,0,1,0,.16.44.44,0,0,0,.31.36h0c.06,0,0,0,.14,0s0,.14,0,.17ZM71.7,92v.1h0v.09s0,0,0,0a.23.23,0,0,1-.08.11l0-.08,0-.06,0-.06-.08,0-.06,0a.48.48,0,0,0-.2,0,.76.76,0,0,0,0-.16v0h0s0-.06,0-.16a.17.17,0,0,1,.09-.18.81.81,0,0,1,0-.16.5.5,0,0,0,0,.12.43.43,0,0,0,.45.37h0c0,.09,0,.14,0,.17Zm.14-1.4h0a.09.09,0,0,1-.07,0s0,0,0,0Zm.23-.9s0,0,0,0a.11.11,0,0,1-.07,0v0S72.05,89.7,72.07,89.72Zm.22-.89v0h0a.08.08,0,0,1,0,0Zm.17-.9h0l-.06,0s0,0,0,0Zm.15-.9h0l-.07,0s0,0,0,0a.08.08,0,0,1,.07,0Zm.11-.91h0a.09.09,0,0,1-.07,0,0,0,0,0,1,0,0A.13.13,0,0,1,72.72,86.12Zm.06-.94a0,0,0,0,1,0,0l-.08,0s0,0,0,0A.15.15,0,0,1,72.78,85.18ZM67.6,100.81a.17.17,0,0,1-.06-.06v0a.15.15,0,0,1,.06,0A0,0,0,0,1,67.6,100.81Zm.45-.29v.09h0v.05s0,0,0,0,0,0,0,.08l0,0-.06,0s0,0,0-.08a.64.64,0,0,0,0-.07.43.43,0,0,1,0-.07l-.06-.07-.06-.05a.48.48,0,0,0-.18-.07c0-.1,0-.15,0-.17v0c0-.17,0-.28.13-.32v-.14c0,.24,0,.42.24.5h0l.05,0h0a1.6,1.6,0,0,0,0,.17Zm0-.52a.18.18,0,0,1-.07,0v0s0,0,.06,0Zm-.92,1.61h0l0,0,0,0a.1.1,0,0,1,.06,0A.06.06,0,0,1,67.13,101.61Zm-.49.75v0a.17.17,0,0,1-.06-.06v0A.34.34,0,0,1,66.64,102.36Zm-.51.77a0,0,0,0,1,0,0s0,0-.06-.06v0A.17.17,0,0,1,66.13,103.13Zm-.52.76v0l0-.06a0,0,0,0,1,0,0A.17.17,0,0,1,65.61,103.89Zm-.55.76a.14.14,0,0,1,0-.08.18.18,0,0,1,0,.07Zm-.57.73,0,0s0,0,0,0a.06.06,0,0,1,0,0s0,0,0,.06Zm-.59.69h0a.18.18,0,0,1,0-.07v0l0,.06Zm-.62.66v0l0,0s0,0,0,0,0,0,0,0Zm-.69.6,0,.06s0,0,0,0l0,0a0,0,0,0,1,0,0h0A.09.09,0,0,1,62.59,107.33Zm-2.09,1.79a.16.16,0,0,1,0,.09.09.09,0,0,1,0-.07Zm.73-.52s0,0,0,0a.16.16,0,0,1,0,.07h0v0s0,0,0,0A0,0,0,0,1,61.23,108.6Zm.69-.64a.18.18,0,0,1,0,.07s0,0,0,0,0,0,0,0v0h0S61.93,108,61.92,108Zm-3.22,2.65,0,0a.32.32,0,0,0-.06.08h0l0,.05-.07,0h0s-.05,0-.07,0a.59.59,0,0,1,0-.08.64.64,0,0,1,0-.07.22.22,0,0,1,0-.08s0-.06,0-.09a.64.64,0,0,0,0-.07.62.62,0,0,0-.11-.17l0-.06.06-.07h0c.1-.14.15-.24.29-.2a.7.7,0,0,1,.08-.12.48.48,0,0,0-.08.56h0s0,0,0,0l0,.05,0,0A.53.53,0,0,0,58.7,110.61Zm.24-.47s0,0,0,0a.13.13,0,0,1,0,.08s0,0,0,0l0,0Zm-.82.42s0,0,0,0a.14.14,0,0,1,0,.07s0,0,0,0,0,0,0,0Zm1.62-.86s0,0,0-.06a.25.25,0,0,1,0,.07v0l0,0Zm.56,0-.09.16a.23.23,0,0,1-.1.07H60a.34.34,0,0,0,0-.08v-.08a.08.08,0,0,0,0-.07.3.3,0,0,0,0-.1l0-.07a.35.35,0,0,0-.13-.14l.09-.15v0h0l.08-.14a.16.16,0,0,1,.17-.08s0,0,.05-.1c-.09.21-.12.38,0,.53h0l0,0,0,0,0,0-.09.15Zm.76-.55-.08.15h0a.1.1,0,0,1-.07.07s0,0,0,0H60.8a.4.4,0,0,0,0-.15.39.39,0,0,0-.21-.38l.08-.15v0h0s0,0,.07-.15a.17.17,0,0,1,.17-.09l0-.12c-.09.22-.11.4,0,.55h0l0,0s0,0,0,0l0,0-.08.16Zm3.92-4,0,.09h0v.05s0,0,0,0,0,0,0,.06,0,0-.05,0h-.06v-.09s0,0,0-.07l0-.07a.22.22,0,0,0,0-.08l0-.06a.44.44,0,0,0-.16-.1,1.19,1.19,0,0,0,0-.17h0c0-.16,0-.28.17-.3s0,0,0-.14c0,.24,0,.42.15.54h0l.05,0,0,0a.05.05,0,0,1,0,0,.94.94,0,0,0,0,.16Zm.57-.74,0,.09h0v0s0,0,0,0a.16.16,0,0,1-.05.08l0,0h-.07s0,0,0-.08a.14.14,0,0,0,0-.07.24.24,0,0,0,0-.08l0-.07-.06-.06a.31.31,0,0,0-.17-.09,1,1,0,0,1,0-.17v0c0-.16,0-.28.17-.3a.83.83,0,0,1,0-.12c0,.22,0,.4.18.51h0l.06,0,0,0,0,0a1.16,1.16,0,0,0,0,.16Zm.54-.75a.64.64,0,0,0,0,.09h0v.09a.22.22,0,0,1,0,.08l0,0-.07,0s0,0,0-.09,0,0,0-.07l0-.07,0-.08-.06,0a.35.35,0,0,0-.17-.09,1.5,1.5,0,0,0,0-.17v0c0-.17,0-.28.16-.31a1,1,0,0,1,0-.13c0,.24,0,.42.19.52h0l0,0,0,0h0c0,.09,0,.14,0,.17Zm.52-.77,0,.09h0v0a.08.08,0,0,0,0,0,.16.16,0,0,1,0,.08l0,0a.08.08,0,0,1-.07,0,.39.39,0,0,0,0-.09.14.14,0,0,0,0-.06s0,0,0-.08l0-.07-.06-.05a.51.51,0,0,0-.18-.09,1.54,1.54,0,0,0,0-.16v0h0a.76.76,0,0,0,0-.16.17.17,0,0,1,.13-.15.83.83,0,0,1,0-.12c0,.23,0,.41.21.5h0l0,0,.06,0h0c0,.09,0,.14,0,.17Zm.5-.79a1.15,1.15,0,0,0,0,.14v0a.12.12,0,0,1,0,.08s0,0,0,0a.1.1,0,0,1-.07,0,.32.32,0,0,0,0-.08.64.64,0,0,0,0-.07.25.25,0,0,0,0-.07.18.18,0,0,0,0-.07l-.06,0a.51.51,0,0,0-.18-.09c0-.09,0-.15,0-.17h0c0-.17,0-.29.15-.32s0,0,0-.16c0,.26,0,.44.21.54h0l.07,0h0a1.39,1.39,0,0,0,0,.17Zm.48-.79v.09h0v.09a.25.25,0,0,1,0,.07l0,.05h0l0-.08a.19.19,0,0,0,0-.07l0-.07,0-.07-.06,0a.37.37,0,0,0-.18-.08,1.49,1.49,0,0,0,0-.17h0c0-.18,0-.29.14-.33a.83.83,0,0,1,0-.12.46.46,0,0,0,.23.5h0l0,0h.06l0,0a1.39,1.39,0,0,0,0,.17Zm.9-1.62v.09h0v.09a.18.18,0,0,1,0,.09l0,0-.06,0,0-.08,0-.07,0-.07-.06-.06s0,0-.06,0a.36.36,0,0,0-.18-.07,1,1,0,0,0,0-.18h0v-.16a.19.19,0,0,1,.12-.16v-.16c0,.26.05.44.25.52h0l.07,0h0c0,.11,0,.16,0,.18ZM72,91.14a1.37,1.37,0,0,1,0,.16h0a.24.24,0,0,1,0,.08s0,0,0,.06l0,0a.16.16,0,0,0,0-.08l0-.06,0-.06-.07,0-.08,0a.4.4,0,0,0-.19,0l0-.19c0-.16-.07-.27,0-.34a.81.81,0,0,1,0-.14c0,.24.14.4.35.44h.15a.91.91,0,0,0,0,.16Zm.24-.9c0,.07,0,.11,0,.14v0s0,0,0,0a.18.18,0,0,1-.08.11.2.2,0,0,0,0-.08l0,0L72,90.39a.18.18,0,0,0-.07,0l-.07,0a.41.41,0,0,0-.19,0,1,1,0,0,0,0-.17v0s0-.06,0-.13a.18.18,0,0,1,.08-.18.48.48,0,0,1,0-.13c.07.23.16.39.36.42h.16a.63.63,0,0,0,0,.17Zm.22-.9,0,.09h0v0s0,0,0,0,0,0,0,.06a.18.18,0,0,1-.08.11.2.2,0,0,0,0-.08l0,0-.06-.06-.08,0-.07,0a.41.41,0,0,0-.19,0c0-.09,0-.15,0-.17h0a1,1,0,0,0,0-.16.18.18,0,0,1,.08-.18.91.91,0,0,1,0-.12.24.24,0,0,0,0,.08.43.43,0,0,0,.5.33,1.12,1.12,0,0,0,0,.16Zm.2-.91,0,.09h0v0h0v0a.08.08,0,0,1,0,.07.13.13,0,0,1,0,.08l0,0,0-.08,0-.06-.06,0-.08,0-.07,0a.61.61,0,0,0-.19,0c0-.09,0-.15,0-.17h0a.8.8,0,0,0,0-.16.17.17,0,0,1,.06-.18.63.63,0,0,0,0-.13c.08.23.18.38.39.4h0s0,0,.06,0,0,0,0,0,0,.14.05.16Zm.16-.92,0,.14v0a.43.43,0,0,0,0,0,.14.14,0,0,1-.07.11l0-.07,0,0-.06,0-.08-.05-.07,0a.45.45,0,0,0-.2,0c0-.1,0-.14,0-.16v0c0-.15-.11-.26,0-.34l0-.13c.09.22.2.37.41.38h.15c0,.08,0,.13,0,.16Zm.15-.83h0l0,0s0,0,0,0a.17.17,0,0,1,0,.1,0,0,0,0,1,0,0l0,0s0,0,0-.08l0,0-.06,0-.08,0-.08,0a.34.34,0,0,0-.2,0l0,.06h0s0-.08,0-.11,0-.07,0-.12v0l0-.14a.17.17,0,0,1,0-.18.36.36,0,0,0,0-.11c.09.21.21.34.41.35h0s0,0,.07,0h.09a1.89,1.89,0,0,1,.06.18Zm.06-1,0,.09h0l0,.05v0s0,.06,0,.1v0A.15.15,0,0,1,73,86h0v0l-.07-.09a.4.4,0,0,0-.42-.1l0,.06h0a.76.76,0,0,1,0-.11l0-.12h0a.49.49,0,0,1-.06-.15.17.17,0,0,1,0-.19l0,0h0a.44.44,0,0,0,.38.27h0a.4.4,0,0,0,.14,0l.06.16ZM72.75,81Zm-.24-.91Zm-25.43,29Zm.76.58ZM64,106.77h0Zm6.4-31Zm-.67-.69ZM42.09,103.48h0Zm.54.76Zm.56.76h0Zm.58.73h0ZM45,107.15Zm.66.67Zm.69.65Zm3.1,2.21h0Zm11-.77ZM62,108.75Zm1.38-1.29Zm1.86-2.13h0Zm4-6.32Zm1.88-4.26Zm1.19-3.53Z"></path></g><path class="cls-4" d="M86.24,65C82.13,84.13,71,98.14,55,98.14S25.52,84.06,21.44,64.88l-.05,0A3.93,3.93,0,0,1,19,66.26c-1.25.14-3.19-.29-4.77-2.6a17.71,17.71,0,0,1-2.67-9.49c.17-3,1.73-4.76,3.39-4.8s3.45,1.65,4.52,3c.15.18.29.36.41.53.66,1.7,1.12,2.7,1.48,3.71.51,1.4.83,2.8,1.18,1.59s.72-5,1.69-9S26.76,41,30,39.83s8,.51,13.5,2.26S55,45.61,61.26,45.5,74,43.41,74.82,42.63s-4-.35-7.91-1.24-7.07-3.09-5.59-3.47S68.87,39,73.45,40.26s7.63,2.34,10.11,4.82c5.54,5.53,3.57,12.6,2.69,19.86Z"></path><path class="cls-7" d="M68.59,108h0A17,17,0,0,1,40,108H36.86l-.69,80.51H67.89l5-52.42Z"></path><path class="cls-8" d="M70.26,78.2s-1.12,2.75-9.85,3S46.2,78.63,46.2,78.63s3.84,10,14.91,9.47C69.55,87.7,70.26,78.2,70.26,78.2Z"></path><path class="cls-9" d="M61.84,64.39s2.9,3.55,2.71,5.24-4,2.62-4,2.62,4.68-.19,5.71-1.78C67.06,69.2,61.84,64.39,61.84,64.39Z"></path><path class="cls-9" d="M69.73,53.66c-.73,1.15-.8,6.69,0,5.89s3.49-2.68,5.09-2.81a7.56,7.56,0,0,1,3.64,1.07l1.9-2s2.17-2.59,1.91-3C81.17,50.87,71.34,51.11,69.73,53.66Z"></path><path class="cls-10" d="M71,59.28a3.65,3.65,0,1,0,4.08-2.74A3.48,3.48,0,0,0,71,59.28Z"></path><path class="cls-11" d="M82.39,52.91s-4-1.48-7.3-.9a31.49,31.49,0,0,0-5.36,1.9,1.06,1.06,0,0,1-.09-1.68C70.51,51.21,79.69,48.24,82.39,52.91Z"></path><path class="cls-10" d="M69.38,60s2-3.24,5.3-3.69S79.4,59,79.4,59A7.07,7.07,0,0,0,74,58,11.36,11.36,0,0,0,69.38,60Z"></path><path class="cls-8" d="M75.31,58.49a.76.76,0,0,0,.68.84.78.78,0,0,0,.9-.6.8.8,0,0,0-1.58-.24Z"></path><path class="cls-9" d="M48.86,51.8c6.49-.12,6,.17,6.21,1.13s-1.19,6.73-1.19,6.73-2.42-2.6-4.89-2.78a10.12,10.12,0,0,0-6.31,2s-3.51-5.19-3.55-6.83C39.12,51.57,48.86,51.8,48.86,51.8Z"></path><path class="cls-11" d="M38.88,52.23s5.67-2.63,10.71-2c4.37.55,5.18.8,5.37,1.55s.61,2.13-.75,1.48S43.29,51.17,38.88,52.23Z"></path><path class="cls-10" d="M54.2,60a7.8,7.8,0,0,0-6-3.16,8.23,8.23,0,0,0-6.54,2.91,10.38,10.38,0,0,1,6.62-1.4A15.89,15.89,0,0,1,54.2,60Z"></path><path class="cls-10" d="M52.29,60.61a3.68,3.68,0,1,1-3.82-3.15A3.51,3.51,0,0,1,52.29,60.61Z"></path><path class="cls-8" d="M49.41,59.28a.76.76,0,0,0,.84.69.73.73,0,1,0-.84-.69Z"></path><path class="cls-9" d="M42.67,78.93a4.33,4.33,0,0,1-.27-2.14,2.68,2.68,0,0,1,1.42-2,3.48,3.48,0,0,1,2.33-.22,4.43,4.43,0,0,1,1.91,1c-.73.1-1.39.11-2,.16a4.57,4.57,0,0,0-1.58.39,2.26,2.26,0,0,0-1,1,6.61,6.61,0,0,0-.37.84A3.84,3.84,0,0,1,42.67,78.93Z"></path><path class="cls-12" d="M63.71,53.65a11.14,11.14,0,0,0-.3,1.63A7.7,7.7,0,0,0,61,54.9a7.78,7.78,0,0,0-2,.26,10.86,10.86,0,0,0-.28-1.51H13.28v2.56h21v.67h1.24a11.76,11.76,0,0,0,23.49.4,5.71,5.71,0,0,1,4.32.18,11.76,11.76,0,0,0,23.48-.58h1.29V53.65H63.71Zm1.91,1.67h19a8.35,8.35,0,0,1,.3,2.24c0,5-4.38,9.09-9.78,9.09s-9.79-4.07-9.79-9.09a8.35,8.35,0,0,1,.3-2.24Zm-27.94,0h19a8.77,8.77,0,0,1,.3,2.24c0,5-4.38,9.09-9.79,9.09s-9.78-4.07-9.78-9.09A8.77,8.77,0,0,1,37.68,55.32Z"></path><path class="cls-4" d="M14.23,63.66a17.71,17.71,0,0,1-2.67-9.49c.17-3,1.73-4.76,3.39-4.8s3.45,1.65,4.52,3c.15.18.29.36.41.53.66,1.7,1.12,2.7,1.48,3.71.51,1.4.83,2.8,1.18,1.59"></path><path class="cls-3" d="M21.61,34.85l.53,13.46c.14,2.23.19,4.46.37,6.68s.28,4.44.47,6.66L23.26,65c.1,1.11.26,2.21.36,3.32s.23,2.21.39,3.31.27,2.21.43,3.31c.64,4.41,1.49,8.77,2.4,13.21a60.69,60.69,0,0,1-4.5-12.81,94,94,0,0,1-2.09-13.43c-.1-1.13-.14-2.27-.21-3.4s-.12-2.26-.12-3.39c0-2.26,0-4.52.09-6.78A81.22,81.22,0,0,1,21.61,34.85Z"></path><path class="cls-9" d="M18.31,61a4.16,4.16,0,0,1-2,.06,2.55,2.55,0,0,1-1.76-1.54,3.25,3.25,0,0,1,0-2.22,4.09,4.09,0,0,1,1.09-1.73c0,.69,0,1.32,0,1.91A4.4,4.4,0,0,0,15.78,59a2.2,2.2,0,0,0,.89,1,6.2,6.2,0,0,0,.77.43A3.53,3.53,0,0,1,18.31,61Z"></path><path class="cls-13" d="M137.9,148l1.62,13.72c-90.34,8.5-72.29-52.87-59.8-50.39C95.71,114.47,73.29,151.35,137.9,148Z"></path><path class="cls-13" d="M41.9,203.27H58.16c9.59,0,16.81-23.6,18.42-32.71l8.71-49.24c1.62-9.11-7.84-16.7-17.43-16.8l-4,0c6.6,33.27,4.13,35.68,0,70.91l-21.89.5c4-35.09,3.3-42,2.93-71.61l-6-.06c-9.59-.11-20.06,10.5-19.54,19.72l4.1,72.63C24,205.79,32.32,203.27,41.9,203.27Z"></path><path class="cls-14" d="M44.9,104.26l-12.36,9.81,1.79,18.44,7.47,1-7,3.49c1.18,12.18-1.21,15.44,13.24,21Z"></path><path class="cls-14" d="M63.72,104.43,77,110.78l1,19-7.22,2.46,7.43,2c.57,12.24,2.59,15.14-10.86,23.48Z"></path><path class="cls-13" d="M86.76,146.6l2,13.67C-1.3,171.43,15,109.55,27.59,111.66,43.66,114.36,22.28,151.88,86.76,146.6Z"></path></svg> 