<?xml version="1.0" encoding="UTF-8"?> <svg xmlns="http://www.w3.org/2000/svg" xmlns:xlink="http://www.w3.org/1999/xlink" viewBox="0 0 583 493.9"><defs><style>.cls-1{mask:url(#mask);filter:url(#luminosity-noclip-2);}.cls-18,.cls-2{mix-blend-mode:multiply;}.cls-2{fill:url(#linear-gradient);}.cls-3{fill:none;clip-rule:evenodd;}.cls-4{isolation:isolate;}.cls-5{mask:url(#mask-2);}.cls-6{fill:#f6f9fc;}.cls-7{fill:#dde1e5;}.cls-8{fill:#d2dbe1;}.cls-9{fill:#f6fbff;}.cls-10{fill:#c2cfde;}.cls-11{fill:#848ea2;}.cls-12{fill:#4b4b4b;}.cls-13{fill:#6c6c6c;}.cls-14{fill:#3a3a3a;}.cls-15{fill:#d0658c;}.cls-16{fill:#c43f6f;}.cls-17{fill:#a9dff6;}.cls-18{fill:#e6e6e5;}.cls-19,.cls-38,.cls-51{fill:#fff;}.cls-19,.cls-31{opacity:0.2;}.cls-20{fill:#9acce7;}.cls-21{fill:#503c25;}.cls-22{fill:#e4be00;}.cls-23{fill:#a775ad;}.cls-24{fill:#7c5791;}.cls-25{fill:#966a9c;}.cls-26{fill:#c3cbd7;}.cls-27{fill:#9ea8b3;}.cls-28{fill:#ebf1f8;}.cls-29{fill:#abd8f7;}.cls-30{fill:#4a6c78;}.cls-31{fill:#05181b;}.cls-32{fill:#375861;}.cls-33{fill:#6a8a94;}.cls-34{fill:#81a5ac;}.cls-35{fill:#c0cdd3;}.cls-36{fill:#6b9ba5;}.cls-37{fill:#79a6a9;}.cls-39{fill:#dea86a;}.cls-40{fill:#d5364f;}.cls-41{fill:#b31440;}.cls-42{fill:#fac047;}.cls-43{fill:#fbd384;}.cls-44{fill:#73ef31;}.cls-45{fill:#d0ab00;}.cls-46{fill:#f2c3b4;}.cls-46,.cls-47,.cls-51,.cls-53,.cls-55{fill-rule:evenodd;}.cls-47{fill:#19191f;}.cls-48{fill:#48262b;}.cls-49{clip-path:url(#clip-path);}.cls-50{fill:#c8a050;}.cls-52{fill:#fdfdfd;}.cls-53,.cls-54{fill:#502d32;}.cls-55{fill:#58373e;}.cls-56{fill:#eabaad;}.cls-57{fill:#373737;}.cls-58{fill:#af8900;}.cls-59{fill:#84c944;}.cls-60{fill:#d9e7f1;}.cls-61{fill:#66917a;}.cls-62{fill:#8bc7a5;}.cls-63{fill:#b2d7c0;}.cls-64{fill:#e78366;}.cls-65{fill:#ba6b52;}.cls-66{filter:url(#luminosity-noclip);}</style><filter id="luminosity-noclip" x="39.85" y="-8439.28" width="406.72" height="32766" color-interpolation-filters="sRGB"><feFlood flood-color="#fff" result="bg"></feFlood><feBlend in="SourceGraphic" in2="bg"></feBlend></filter><mask id="mask" x="39.85" y="-8439.28" width="406.72" height="32766" maskUnits="userSpaceOnUse"><g class="cls-66"></g></mask><linearGradient id="linear-gradient" x1="243.21" y1="424.1" x2="243.21" y2="1.47" gradientUnits="userSpaceOnUse"><stop offset="0" stop-color="#fff"></stop><stop offset="1" stop-color="gray"></stop></linearGradient><filter id="luminosity-noclip-2" x="39.85" y="43.76" width="406.72" height="371.99" color-interpolation-filters="sRGB"><feFlood flood-color="#fff" result="bg"></feFlood><feBlend in="SourceGraphic" in2="bg"></feBlend></filter><mask id="mask-2" x="39.85" y="43.76" width="406.72" height="371.99" maskUnits="userSpaceOnUse"><g class="cls-1"><path class="cls-2" d="M425.4,359.17a133,133,0,0,1-23.34,37.65,130.33,130.33,0,0,1-10.25,10.37,131.72,131.72,0,0,1-10.48,8.56H170c-40.47-23.52-68.42-60.9-86-102.15q-1.12-2.62-2.31-5.3C67,274.86,48.47,241.85,41.37,205.92c-12.69-64.2,57.46-84,95.71-120.31,14-13.33,21.71-33.11,41.89-39.37,22.69-7.05,46.89,1.48,61.87,18.49,34.14,38.77,90,80.26,124.28,91.69C433.16,179.05,473.78,241.76,425.4,359.17Z"></path></g></mask><clipPath id="clip-path"><path class="cls-3" d="M314.4,216.22c1.1-.13,2.82-.39,3.48-1.71s.28-3.69.08-5.49-.19-3,.3-3.49,1.48-.21,3.52-.08,5.16.13,7,0,2.3-.32,2.47.3a23.83,23.83,0,0,1,0,3.83,14.28,14.28,0,0,0,.54,5.16c.53,1.25,1.52,1.64,3,1.77s3.52,0,4,.81-.62,2.59-2.55,4.58a23.29,23.29,0,0,1-7.92,5.47c-3.24,1.28-6.94,1.61-9.59.2s-4.26-4.56-5.15-6.73-1.05-3.34-.88-3.93S313.29,216.35,314.4,216.22Z"></path></clipPath></defs><g class="cls-4"><g id="Stacie"><g class="cls-5"><path class="cls-6" d="M425.4,359.17a133,133,0,0,1-23.34,37.65,130.33,130.33,0,0,1-10.25,10.37c-3.34,3-2.19,2.86-10.48,2.86H170c-40.47-23.51-68.42-55.2-86-96.45q-1.12-2.62-2.31-5.3C67,274.86,48.47,241.85,41.37,205.92c-12.69-64.2,57.46-84,95.71-120.31,14-13.33,21.71-33.11,41.89-39.37,22.69-7.05,46.89,1.48,61.87,18.49,34.14,38.77,90,80.26,124.28,91.69C433.16,179.05,473.78,241.76,425.4,359.17Z"></path></g><ellipse class="cls-7" cx="252.2" cy="404.71" rx="226.9" ry="16.04"></ellipse><polyline class="cls-8" points="393.74 195.93 393.74 201.46 318.56 201.46 318.56 68.34 393.74 68.34 393.74 73.87"></polyline><polyline class="cls-9" points="393.74 195.93 323.51 195.93 323.51 73.87 393.74 73.87"></polyline><path class="cls-8" d="M323.51,132.82V137h69.41c0-.69,0-1.38,0-2.08h0c0-.7,0-1.39,0-2.08Z"></path><path class="cls-8" d="M323.51,164.38v1.35h66.76c.27-.45.54-.9.8-1.35Z"></path><path class="cls-8" d="M323.51,104.14v1.35H391.1c-.26-.46-.52-.91-.79-1.35Z"></path><rect class="cls-8" x="389.58" y="68.35" width="4.17" height="133.11"></rect><rect class="cls-8" x="356.43" y="73.87" width="1.35" height="122.06"></rect><polyline class="cls-8" points="389.58 73.87 389.58 68.34 464.76 68.34 464.76 201.46 389.58 201.46 389.58 195.93"></polyline><polyline class="cls-9" points="389.58 73.87 459.81 73.87 459.81 195.93 389.58 195.93"></polyline><path class="cls-8" d="M459.81,137v-4.16h-69.4c0,.69,0,1.38,0,2.08h0c0,.7,0,1.39,0,2.08Z"></path><path class="cls-8" d="M459.81,105.42v-1.35H393.05c-.27.45-.53.9-.79,1.35Z"></path><path class="cls-8" d="M459.81,165.66v-1.35H392.22c.26.46.52.91.79,1.35Z"></path><rect class="cls-8" x="389.58" y="68.35" width="4.17" height="133.11"></rect><rect class="cls-8" x="425.54" y="73.87" width="1.35" height="122.06"></rect><rect class="cls-10" x="241.31" y="328.03" width="3.8" height="54.32" transform="translate(486.43 710.38) rotate(-180)"></rect><rect class="cls-11" x="237.51" y="328.03" width="3.8" height="54.32" transform="translate(478.82 710.38) rotate(-180)"></rect><path class="cls-12" d="M218,402.46c0,2.38.8,4.3,1.8,4.3s1.8-1.92,1.8-4.3-.81-4.29-1.8-4.29S218,400.09,218,402.46Z"></path><rect class="cls-12" x="219.76" y="398.17" width="5.13" height="8.59" transform="translate(444.64 804.93) rotate(-180)"></rect><path class="cls-13" d="M223.08,402.46c0,2.38.81,4.3,1.81,4.3s1.8-1.92,1.8-4.3-.81-4.29-1.8-4.29S223.08,400.09,223.08,402.46Z"></path><path class="cls-12" d="M241.31,386.5v6.65l-46.73,6.54a.66.66,0,0,1-.75-.64v-5.9Z"></path><polygon class="cls-14" points="193.83 393.15 193.83 394.6 241.31 387.33 241.31 386.5 193.83 393.15"></polygon><polygon class="cls-14" points="241.31 386.5 217.57 399.8 217.57 393.15 229 389.95 226.13 389.39 241.31 386.5"></polygon><rect class="cls-12" x="217.57" y="393.15" width="5.63" height="6.65"></rect><polygon class="cls-13" points="241.31 393.15 223.21 399.8 223.21 393.15 241.31 386.5 241.31 393.15"></polygon><polygon class="cls-14" points="241.31 386.5 232.91 386.5 232.91 388.38 241.31 386.5"></polygon><path class="cls-13" d="M264.67,402.46c0,2.38-.81,4.3-1.8,4.3s-1.81-1.92-1.81-4.3.81-4.29,1.81-4.29S264.67,400.09,264.67,402.46Z"></path><rect class="cls-13" x="257.74" y="398.17" width="5.13" height="8.59"></rect><path class="cls-12" d="M259.54,402.46c0,2.38-.81,4.3-1.8,4.3s-1.8-1.92-1.8-4.3.8-4.29,1.8-4.29S259.54,400.09,259.54,402.46Z"></path><path class="cls-12" d="M241.31,386.5v6.65l46.74,6.54a.65.65,0,0,0,.74-.64v-5.9Z"></path><polygon class="cls-14" points="288.79 393.15 288.79 394.6 241.31 387.33 241.31 386.5 288.79 393.15"></polygon><polygon class="cls-14" points="241.31 386.5 265.05 399.8 265.05 393.15 253.62 389.95 256.49 389.39 241.31 386.5"></polygon><rect class="cls-13" x="259.42" y="393.15" width="5.63" height="6.65"></rect><polygon class="cls-12" points="241.31 393.15 259.42 399.8 259.42 393.15 241.31 386.5 241.31 393.15"></polygon><path class="cls-12" d="M288.79,402.46a4.3,4.3,0,1,0-4.29,4.3A4.29,4.29,0,0,0,288.79,402.46Z"></path><polygon class="cls-14" points="241.31 386.5 249.72 386.5 249.72 388.38 241.31 386.5"></polygon><path class="cls-14" d="M232.91,378.2h16.81a0,0,0,0,1,0,0v7.15a1.15,1.15,0,0,1-1.15,1.15H234.06a1.15,1.15,0,0,1-1.15-1.15V378.2a0,0,0,0,1,0,0Z" transform="translate(482.62 764.69) rotate(-180)"></path><path class="cls-12" d="M193.83,402.46a4.3,4.3,0,1,1,4.3,4.3A4.3,4.3,0,0,1,193.83,402.46Z"></path><path class="cls-15" d="M230.87,202.8a9.73,9.73,0,0,0-9.52-8H158.08l18.08,111.94h73.78Z"></path><path class="cls-15" d="M302.05,306.77H212.91v19.45h89.14a9.73,9.73,0,0,0,0-19.45Z"></path><path class="cls-16" d="M238.6,326.22H178.38a9.72,9.72,0,0,1-9.56-8L148.29,206.31a9.72,9.72,0,0,1,19.13-3.51l19.07,104H238.6a9.73,9.73,0,0,1,0,19.45Z"></path><path class="cls-12" d="M241.31,326.22v8.89H192.9a5,5,0,0,1-5-5v-3.89Z"></path><path class="cls-13" d="M243.64,326.22h51.08a0,0,0,0,1,0,0v8.89a0,0,0,0,1,0,0H241.31a0,0,0,0,1,0,0v-6.56A2.33,2.33,0,0,1,243.64,326.22Z" transform="translate(536.03 661.32) rotate(-180)"></path><path class="cls-12" d="M241.26,378.2h6a2.47,2.47,0,0,1,2.47,2.47v5.83H238.79v-5.83A2.46,2.46,0,0,1,241.26,378.2Z"></path><g id="Stacie-2" data-name="Stacie"><path class="cls-17" d="M164.45,258.9H145.91l3,13.63a.19.19,0,0,0,0,.08c0,.72,2.84,1.3,6.33,1.3s6.33-.58,6.33-1.3c0,0,0-.06,0-.08Z"></path><path class="cls-18" d="M164.42,259.16c-3.88,12.58-7.22,14.06-13.17,14.46a24.59,24.59,0,0,0,3.93.29c3.5,0,6.33-.58,6.33-1.3,0,0,0-.06,0-.08Z"></path><polygon class="cls-19" points="146.33 259.15 148.85 267.68 150.18 260.58 146.33 259.15"></polygon><path class="cls-20" d="M164.47,258.9c0,1.05-4.16,1.9-9.29,1.9s-9.29-.85-9.29-1.9,4.16-1.9,9.29-1.9S164.47,257.85,164.47,258.9Z"></path><path class="cls-17" d="M163.59,259.13c0,.82-3.76,1.48-8.41,1.48s-8.41-.66-8.41-1.48,3.76-1.48,8.41-1.48S163.59,258.31,163.59,259.13Z"></path><path class="cls-20" d="M159.2,259.59c0,.36-1.67.65-3.72.65s-3.73-.29-3.73-.65,1.67-.66,3.73-.66S159.2,259.23,159.2,259.59Z"></path><polygon class="cls-21" points="155.76 259.82 155.2 259.82 154.61 255.22 155.76 255.22 155.76 259.82"></polygon><path class="cls-22" d="M157.68,254.17c0,2.53-1.12,3.32-2.5,3.32s-2.5-.79-2.5-3.32,2.32-2.34,2.5-6.51A10.46,10.46,0,0,1,157.68,254.17Z"></path><path class="cls-23" d="M152,251.7H133.5l2.95,20.8c0,.07,0,.13,0,.15,0,.72,2.8,1.26,6.3,1.26s6.33-.58,6.33-1.3c0,0,0-.07,0-.09Z"></path><path class="cls-18" d="M151.6,254.81c-2.31,12.38-6.81,18.41-12.77,18.81a24.72,24.72,0,0,0,3.94.29c3.49,0,6.33-.58,6.33-1.3a.27.27,0,0,1,0-.09Z"></path><path class="cls-24" d="M152.06,251.7c0,1.05-4.16,1.9-9.29,1.9s-9.29-.85-9.29-1.9,4.16-1.9,9.29-1.9S152.06,250.65,152.06,251.7Z"></path><path class="cls-25" d="M151.18,251.93c0,.82-3.77,1.48-8.41,1.48s-8.41-.66-8.41-1.48,3.76-1.48,8.41-1.48S151.18,251.11,151.18,251.93Z"></path><path class="cls-24" d="M146.79,252.39c0,.36-1.67.65-3.73.65s-3.72-.29-3.72-.65,1.67-.66,3.72-.66S146.79,252,146.79,252.39Z"></path><polygon class="cls-21" points="143.34 252.62 142.78 252.62 142.19 248.01 143.34 248.01 143.34 252.62"></polygon><path class="cls-22" d="M145.27,247c0,2.54-1.12,3.32-2.5,3.32s-2.5-.78-2.5-3.32,2.31-2.33,2.5-6.51A10.51,10.51,0,0,1,145.27,247Z"></path><rect class="cls-26" x="374.12" y="285.59" width="6.46" height="114.89" transform="translate(754.69 686.08) rotate(-180)"></rect><rect class="cls-27" x="370.89" y="285.59" width="45.87" height="24.42" transform="translate(787.64 595.61) rotate(-180)"></rect><rect class="cls-28" x="137.97" y="272.23" width="302.8" height="13.36" rx="4.54"></rect><path class="cls-8" d="M83.51,272.23h59a4.55,4.55,0,0,0-4.54,4.54v4.28a4.54,4.54,0,0,0,4.54,4.54h-59A4.54,4.54,0,0,1,79,281.05v-4.28A4.55,4.55,0,0,1,83.51,272.23Z"></path><rect class="cls-27" x="90.18" y="285.59" width="6.46" height="114.89" transform="translate(186.83 686.08) rotate(-180)"></rect><rect class="cls-26" x="96.65" y="285.59" width="6.46" height="114.89" transform="translate(199.75 686.08) rotate(-180)"></rect><rect class="cls-27" x="136.05" y="285.59" width="6.46" height="122.68" transform="translate(278.57 693.86) rotate(-180)"></rect><rect class="cls-26" x="142.51" y="285.59" width="6.46" height="122.68" transform="translate(291.49 693.86) rotate(-180)"></rect><rect class="cls-27" x="91.5" y="285.59" width="49.71" height="34.86" transform="translate(232.7 606.04) rotate(-180)"></rect><rect class="cls-27" x="367.66" y="285.59" width="6.46" height="114.89" transform="translate(741.77 686.08) rotate(-180)"></rect><rect class="cls-27" x="413.53" y="285.59" width="6.46" height="122.68" transform="translate(833.51 693.86) rotate(-180)"></rect><rect class="cls-26" x="419.99" y="285.59" width="6.46" height="122.68" transform="translate(846.43 693.86) rotate(-180)"></rect><rect class="cls-8" x="148.97" y="285.59" width="264.55" height="34.59"></rect><rect class="cls-29" x="223.19" y="184.55" width="100.23" height="68.06" rx="2.06"></rect><rect class="cls-30" x="223.19" y="184.55" width="100.23" height="68.06" rx="2.06"></rect><path class="cls-31" d="M321.36,184.55H225.25a2.06,2.06,0,0,0-2.06,2.06v63.93a2.07,2.07,0,0,0,2.06,2.07h3.54a2,2,0,0,1-2-2V190.21a2,2,0,0,1,2-2h92.65a2,2,0,0,1,2,2v-3.6A2.06,2.06,0,0,0,321.36,184.55Z"></path><rect class="cls-32" x="261.25" y="210.33" width="24.11" height="60.12" rx="1.79"></rect><path class="cls-31" d="M261.25,256.56v13.12a1.79,1.79,0,0,0,1.79,1.79h20.54a1.79,1.79,0,0,0,1.78-1.79V256.56Z"></path><rect class="cls-32" x="249.18" y="266.11" width="48.26" height="6.19" rx="2.06"></rect><path class="cls-33" d="M269.31,233.13l9.11,12.14a9.2,9.2,0,0,1-6.14,2.47,7,7,0,0,1-7.08-8.1A9.41,9.41,0,0,1,269.31,233.13Z"></path><path class="cls-34" d="M274.34,231.53a7,7,0,0,1,7.08,8.11,9.33,9.33,0,0,1-3,5.63l-9.11-12.14A9,9,0,0,1,274.34,231.53Z"></path><polygon class="cls-35" points="466.3 142.08 467.75 148.76 467.36 149.22 465.76 141.82 466.3 142.08"></polygon><rect class="cls-35" x="466.36" y="144.65" width="6.19" height="0.48" transform="matrix(-0.21, -0.98, 0.98, -0.21, 427.23, 634.38)"></rect><polygon class="cls-35" points="467.66 149.11 471.65 147.34 471.58 147.05 467.58 148.73 467.66 149.11"></polygon><polygon class="cls-35" points="467.29 147.37 471.36 146.01 471.3 145.72 467.2 146.99 467.29 147.37"></polygon><polygon class="cls-35" points="466.91 145.62 471.07 144.67 471.01 144.39 466.83 145.24 466.91 145.62"></polygon><polygon class="cls-35" points="466.53 143.88 470.78 143.34 470.72 143.05 466.45 143.5 466.53 143.88"></polygon><polygon class="cls-35" points="466.15 142.13 470.49 142.01 470.43 141.72 466.07 141.75 466.15 142.13"></polygon><polygon class="cls-35" points="467.64 148.58 456.29 153.2 453.16 156.46 457.04 156.66 467.74 149.07 467.64 148.58"></polygon><polygon class="cls-35" points="467.27 146.88 455.54 149.72 452.33 152.61 456.29 153.18 467.37 147.36 467.27 146.88"></polygon><polygon class="cls-35" points="466.9 145.17 454.78 146.24 451.5 148.76 455.53 149.7 467 145.66 466.9 145.17"></polygon><polygon class="cls-35" points="466.53 143.47 454.03 142.76 450.66 144.92 454.78 146.22 466.63 143.95 466.53 143.47"></polygon><polygon class="cls-35" points="466.16 141.76 453.28 139.28 449.83 141.07 454.02 142.74 466.26 142.25 466.16 141.76"></polygon><path class="cls-16" d="M476.68,143.33A3.1,3.1,0,0,0,473,141l-1.33.29h0l-1.6.35,1.31,6,1.56-.34h0l1.36-.29A3.09,3.09,0,0,0,476.68,143.33Z"></path><polygon class="cls-8" points="83.72 379.02 73.29 382.17 54.67 320.49 58.66 314.88 65.09 317.34 83.72 379.02"></polygon><polygon class="cls-26" points="69.47 331.88 59.06 335.04 58.2 332.17 68.6 329.01 69.47 331.88"></polygon><polygon class="cls-32" points="103.43 407.66 69.36 407.66 60.31 348.74 114.31 348.74 103.43 407.66"></polygon><rect class="cls-36" x="78.01" y="326.98" width="40.59" height="29.15" rx="1.26" transform="translate(-94.54 43) rotate(-16.8)"></rect><path class="cls-37" d="M90.41,357.91a.85.85,0,0,0,1.16.9l7.5-2.27a1.87,1.87,0,0,0,1.24-1.62l.87-28.22a.85.85,0,0,0-1.17-.89l-7.49,2.26a1.87,1.87,0,0,0-1.25,1.62Z"></path><path class="cls-38" d="M84.65,338.51a2,2,0,0,1-.07-.36.53.53,0,0,1,.23-.49,1.48,1.48,0,0,1,.37-.15l1.23-.38c.52-.15.83-.06.93.28s-.11.58-.62.74l-.9.27.26.87.77-.24c.52-.15.83-.06.94.28s-.11.58-.63.74l-.77.23.36,1.2c.16.52,0,.83-.31.94s-.63-.09-.79-.61Z"></path><path class="cls-38" d="M88.62,339.1a3.08,3.08,0,0,1-.14-1.1,2.51,2.51,0,0,1,.24-.95,2.2,2.2,0,0,1,.59-.74,2.41,2.41,0,0,1,.9-.47,2.6,2.6,0,0,1,1-.11,2.12,2.12,0,0,1,.9.29,2.29,2.29,0,0,1,.73.66,2.87,2.87,0,0,1,.49,1,3.26,3.26,0,0,1,.15,1.09,2.47,2.47,0,0,1-.24.95,2.22,2.22,0,0,1-.59.74,2.68,2.68,0,0,1-.92.48,2.65,2.65,0,0,1-1,.11,2.22,2.22,0,0,1-.9-.29,2.64,2.64,0,0,1-.72-.66A3,3,0,0,1,88.62,339.1Zm1.19-.35a1.9,1.9,0,0,0,.28.59,1.46,1.46,0,0,0,.38.4,1,1,0,0,0,.46.18,1.08,1.08,0,0,0,.5,0,1.05,1.05,0,0,0,.73-.65,1.33,1.33,0,0,0,.1-.54,2.24,2.24,0,0,0-.1-.65,2.3,2.3,0,0,0-.28-.61,1.4,1.4,0,0,0-.39-.41,1,1,0,0,0-.45-.18,1.11,1.11,0,0,0-.51,0,1.1,1.1,0,0,0-.73.66,1.55,1.55,0,0,0-.09.55A2.35,2.35,0,0,0,89.81,338.75Z"></path><path class="cls-38" d="M95.62,337.53l.36,1.18c.16.52,0,.84-.31,1s-.63-.1-.79-.62l-1-3.32a1.27,1.27,0,0,1-.07-.36.59.59,0,0,1,0-.27.54.54,0,0,1,.19-.21,1.54,1.54,0,0,1,.36-.16l.86-.26a2.51,2.51,0,0,1,.82-.12,1.78,1.78,0,0,1,.67.13,1.28,1.28,0,0,1,.49.37,1.57,1.57,0,0,1,.31.57,1.29,1.29,0,0,1,0,.95,1.51,1.51,0,0,1-.71.7l1.16.7a1,1,0,0,1,.51.53.58.58,0,0,1,0,.41.56.56,0,0,1-.66.25,1.76,1.76,0,0,1-.38-.2Zm.29-.89a.78.78,0,0,0,.47-.31.63.63,0,0,0-.26-.86.8.8,0,0,0-.55,0l-.52.15.35,1.17Z"></path><path class="cls-38" d="M94,349.22a2.81,2.81,0,0,1,.11,1.14,2.44,2.44,0,0,1-.36,1,3.13,3.13,0,0,1-.81.86,4.33,4.33,0,0,1-1.24.6,4.88,4.88,0,0,1-1.07.2,3.36,3.36,0,0,1-.91,0,1.77,1.77,0,0,1-.67-.25.75.75,0,0,1-.33-.42.79.79,0,0,1,.06-.66,1,1,0,0,1,.59-.43,1.33,1.33,0,0,1,.42-.06h.5l.56,0a2.73,2.73,0,0,0,.6-.11,1,1,0,0,0,.57-.43.79.79,0,0,0,.08-.67.83.83,0,0,0-.22-.38,1.07,1.07,0,0,0-.36-.21,2,2,0,0,0-.51-.08l-.64,0a6.4,6.4,0,0,1-1.12-.07,2.84,2.84,0,0,1-.85-.25,1.72,1.72,0,0,1-.61-.49,2.33,2.33,0,0,1-.38-.79,2.57,2.57,0,0,1-.1-1.06,2.39,2.39,0,0,1,.34-1,2.78,2.78,0,0,1,.76-.81,3.79,3.79,0,0,1,1.14-.56,3.67,3.67,0,0,1,.93-.17,2.79,2.79,0,0,1,.78,0,1.33,1.33,0,0,1,.55.25.82.82,0,0,1,.29.41.78.78,0,0,1,0,.64.84.84,0,0,1-.55.39,1,1,0,0,1-.35.06h-.39l-.39,0A1.51,1.51,0,0,0,90,346a1,1,0,0,0-.6.39.63.63,0,0,0-.09.56.62.62,0,0,0,.21.32.74.74,0,0,0,.35.14l.51,0H91a4.21,4.21,0,0,1,2,.44A2.15,2.15,0,0,1,94,349.22Z"></path><path class="cls-38" d="M100.14,348.41l-3,.9,0,.89c0,.6-.23,1-.64,1.08a.89.89,0,0,1-.7,0,.92.92,0,0,1-.43-.56,2.61,2.61,0,0,1-.06-.27.89.89,0,0,1,0-.28l.38-6.3a2.23,2.23,0,0,1,.29-1.07,1.34,1.34,0,0,1,.75-.54,1.44,1.44,0,0,1,1.66.66l3.78,5.15a2.16,2.16,0,0,1,.3.54.84.84,0,0,1-.08.7,1,1,0,0,1-.57.42c-.46.14-.87-.06-1.23-.59Zm-1-1.53-1.82-2.7-.1,3.28Z"></path><path class="cls-38" d="M105.29,348.51a2.79,2.79,0,0,1-.62.12.87.87,0,0,1-.44-.07.78.78,0,0,1-.3-.3,2.21,2.21,0,0,1-.23-.53L102,342.05c-.26-.86-.09-1.39.52-1.57s1,.16,1.31,1l1.55,5.14,1.55-.47c.86-.26,1.38-.11,1.55.45s-.18,1-1,1.24Z"></path><path class="cls-38" d="M111.17,346.73a3.64,3.64,0,0,1-.62.13.87.87,0,0,1-.44-.08.72.72,0,0,1-.3-.3,2,2,0,0,1-.23-.53l-1.68-5.58a2.64,2.64,0,0,1-.12-.6,1,1,0,0,1,.07-.46,1,1,0,0,1,.32-.35,2.44,2.44,0,0,1,.6-.26l2.06-.62c.86-.26,1.38-.11,1.55.46s-.18,1-1,1.23l-1.49.45.43,1.45,1.29-.39c.87-.26,1.38-.11,1.55.45s-.17,1-1,1.24l-1.28.39.45,1.5,1.54-.47c.87-.26,1.39-.11,1.56.46s-.18,1-1,1.24Z"></path><path class="cls-38" d="M78.56,335.39a1.35,1.35,0,1,1,1.68.9A1.34,1.34,0,0,1,78.56,335.39Z"></path><path class="cls-38" d="M79.85,336.77a1.73,1.73,0,0,1-.83-.21,1.71,1.71,0,0,1-.85-1.05h0a1.75,1.75,0,0,1,1.17-2.19,1.77,1.77,0,0,1,2.2,1.18,1.79,1.79,0,0,1-.14,1.34,1.76,1.76,0,0,1-1,.85A1.81,1.81,0,0,1,79.85,336.77Zm0-2.69a.84.84,0,0,0-.27,0,.93.93,0,0,0-.62,1.15h0a1,1,0,0,0,.45.55.92.92,0,0,0,.71.07.92.92,0,0,0,.62-1.15A.93.93,0,0,0,79.85,334.08Z"></path><path class="cls-38" d="M108.23,326.44a1.34,1.34,0,0,1,.89-1.68,1.36,1.36,0,0,1,1.68.9,1.34,1.34,0,0,1-.9,1.67A1.33,1.33,0,0,1,108.23,326.44Z"></path><path class="cls-38" d="M109.51,327.81a1.76,1.76,0,0,1-1.68-1.25h0a1.77,1.77,0,0,1,1.17-2.2,1.77,1.77,0,0,1,2.2,1.18,1.77,1.77,0,0,1-1.18,2.19A1.81,1.81,0,0,1,109.51,327.81Zm0-2.69a.84.84,0,0,0-.27,0,.94.94,0,0,0-.55.45,1,1,0,0,0-.07.71h0a1,1,0,0,0,.45.54.88.88,0,0,0,.71.07.92.92,0,0,0-.27-1.81Z"></path><path class="cls-39" d="M80.12,335.91a1,1,0,0,1-1.17-.63l-3-9.85a.94.94,0,0,1,1.8-.54l3,9.84A1,1,0,0,1,80.12,335.91Z"></path><path class="cls-39" d="M109.78,327a.94.94,0,0,1-1.17-.63l-3-9.85a.94.94,0,0,1,1.8-.54l3,9.85A.94.94,0,0,1,109.78,327Z"></path><polygon class="cls-28" points="117.61 316.08 55.54 334.82 53.09 326.71 115.17 307.96 119.99 310.93 117.61 316.08"></polygon><polygon class="cls-40" points="85.32 330.7 111.69 333.59 112.1 335.05 114.79 337.25 113.18 351.9 83.35 348.63 85.32 330.7"></polygon><path class="cls-38" d="M90.34,338.2a.86.86,0,0,1,.72-.15,2.48,2.48,0,0,1,1.12.4l.19.13.54-1.25-.14-.09a3.56,3.56,0,0,0-1.54-.51,2.61,2.61,0,0,0-1.79.37,1.82,1.82,0,0,0-.82,1.35c-.11.9.41,1.61,1.58,2.19.78.38.92.64.88,1a.57.57,0,0,1-.27.44,1.28,1.28,0,0,1-.74.11,3,3,0,0,1-1.37-.53l-.2-.15-.5,1.3.13.08a3.79,3.79,0,0,0,1.72.61,3.55,3.55,0,0,0,.46,0,2.56,2.56,0,0,0,1.51-.42,1.9,1.9,0,0,0,.81-1.38c.11-.95-.35-1.64-1.5-2.22-.8-.42-1-.63-1-1A.46.46,0,0,1,90.34,338.2Z"></path><path class="cls-38" d="M96.62,337.34a3,3,0,0,0-2.38.72,3.95,3.95,0,0,0-.6,4.86,2.91,2.91,0,0,0,2.13,1.21,3.11,3.11,0,0,0,.43,0c1.7,0,2.91-1.19,3.13-3.14a3.51,3.51,0,0,0-.66-2.61A2.94,2.94,0,0,0,96.62,337.34Zm1.12,3.55c-.11,1-.62,2.07-1.76,1.95s-1.42-1.22-1.3-2.25.65-2.08,1.77-2S97.85,339.88,97.74,340.89Z"></path><polygon class="cls-38" points="101.81 338.02 100.28 337.85 99.55 344.45 103.62 344.91 103.77 343.57 101.22 343.28 101.81 338.02"></polygon><path class="cls-38" d="M109.4,339.59a4,4,0,0,0-2.56-1.06,11.45,11.45,0,0,0-1.85-.07h-.17l-.72,6.45.17,0a11.93,11.93,0,0,0,1.53.26,5.14,5.14,0,0,0,.78.07,4.36,4.36,0,0,0,2.28-.65,3.4,3.4,0,0,0,1.32-2.48A3,3,0,0,0,109.4,339.59Zm-.81,2.42a2.22,2.22,0,0,1-.75,1.58,2.18,2.18,0,0,1-1.66.36l-.43-.06.46-4.1a2.92,2.92,0,0,1,.59,0,2.05,2.05,0,0,1,1.46.69A2,2,0,0,1,108.59,342Z"></path><path class="cls-41" d="M111.69,333.59a4.54,4.54,0,0,1,3.1,3.66s-2.54-1.2-4-.41C110.83,336.84,110.83,334.49,111.69,333.59Z"></path><path class="cls-42" d="M412.41,271.23h-2.94v-7.91h2.94c.2,0,.35-.22.35-.5s-.15-.51-.35-.51H382.67v9.92h29.74c.2,0,.35-.22.35-.5S412.61,271.23,412.41,271.23Z"></path><rect class="cls-43" x="361.69" y="262.31" width="20.98" height="9.92"></rect><path class="cls-43" d="M363.88,267.27c0,2.74-1,5-2.19,5s-2.19-2.22-2.19-5,1-5,2.19-5S363.88,264.53,363.88,267.27Z"></path><path class="cls-42" d="M384.79,267.27c0,2.74-1,5-2.2,5s-2.19-2.22-2.19-5,1-5,2.19-5S384.79,264.53,384.79,267.27Z"></path><path class="cls-38" d="M410.74,267.27c0-2.18.38-3.95.84-3.95h-27.9c-1,0-1.75,1.77-1.75,3.95s.78,4,1.75,4h27.9C411.12,271.23,410.74,269.46,410.74,267.27Z"></path><polygon class="cls-35" points="417.13 271.15 415.74 265.66 416.05 265.27 417.59 271.35 417.13 271.15"></polygon><rect class="cls-35" x="411.88" y="268.71" width="5.13" height="0.4" transform="translate(573.71 -198.75) rotate(75.83)"></rect><polygon class="cls-35" points="415.81 265.37 412.56 266.95 412.62 267.18 415.88 265.68 415.81 265.37"></polygon><polygon class="cls-35" points="416.17 266.8 412.83 268.04 412.89 268.28 416.25 267.11 416.17 266.8"></polygon><polygon class="cls-35" points="416.53 268.24 413.11 269.14 413.17 269.38 416.61 268.55 416.53 268.24"></polygon><polygon class="cls-35" points="416.89 269.67 413.39 270.23 413.45 270.47 416.97 269.98 416.89 269.67"></polygon><polygon class="cls-35" points="417.25 271.1 413.66 271.33 413.72 271.57 417.33 271.42 417.25 271.1"></polygon><polygon class="cls-35" points="415.84 265.8 425.11 261.66 427.61 258.87 424.39 258.81 415.74 265.4 415.84 265.8"></polygon><polygon class="cls-35" points="416.2 267.2 425.83 264.52 428.41 262.04 425.12 261.68 416.1 266.81 416.2 267.2"></polygon><polygon class="cls-35" points="416.55 268.61 426.56 267.38 429.21 265.2 425.84 264.54 416.45 268.21 416.55 268.61"></polygon><polygon class="cls-35" points="416.9 270.01 427.28 270.24 430.01 268.36 426.56 267.4 416.8 269.61 416.9 270.01"></polygon><polygon class="cls-35" points="417.26 271.41 428 273.11 430.81 271.53 427.28 270.26 417.16 271.01 417.26 271.41"></polygon><path class="cls-16" d="M414,271.66l-1.25-5-1.31.33h0l-1.09.27a2.56,2.56,0,1,0,1.25,5l1.09-.27h0Z"></path><path class="cls-44" d="M331,157a0,0,0,1,0,0-.07,0,0,0,1,0,0,.07Z"></path><path class="cls-45" d="M306.92,137.78c-3.19-1-6.28-2.61-9.63-2.8-5.44-.31-10.36,3.07-14.12,6.9-4.43,4.5-13.43,15.12-8.89,21.93a9.22,9.22,0,0,1,1.64,2.56,5.26,5.26,0,0,1-.05,2.09c-.69,4.74.25,10.2,4.14,13.13a10.5,10.5,0,0,0,8.72,1.64,12.4,12.4,0,0,0,7.19-5.16"></path><path class="cls-45" d="M299.82,142.8a37.11,37.11,0,0,0-9.54,18.83,63.23,63.23,0,0,0-.61,9.23q-.14,7.14-.26,14.29c-.07,3.57-.21,7.37-2.3,10.27-1.41,1.94-3.61,3.33-4.56,5.52,3.91-2.31,7.95-4.75,10.47-8.49,2.92-4.34,3.36-9.86,3.13-15.08s-1-10.48-.32-15.65"></path><path class="cls-45" d="M288.21,170.72c-.16,3.75-.35,10.11-1.39,13.7a15.9,15.9,0,0,1-6.25,9.09,15.1,15.1,0,0,0,8.79-7.95,32.48,32.48,0,0,0,2.8-11.69"></path><path class="cls-45" d="M344.94,145.05c.72-.4,1.46.07,2,.6,6.2,5.85,10.85,20.38.78,21.85-3.72.54-12.19,2.3-16,2-3.56-.26-6.89-4.29-10.32-3.38,1.5-1.48-7.06,2.65-5.11,1.79-3.49-.42,3.22-4.61.67-2.27-2.24,2.05-3.82,5.05-6.74,6a27.83,27.83,0,0,1-.69-9.66,14.9,14.9,0,0,1,2.55-7.42,16.87,16.87,0,0,1,4.57-4c3.9-2.53,8.22-4.13,12-6.79s9.94-4.58,13.49-.82"></path><path class="cls-45" d="M346.45,146.48a13.8,13.8,0,0,1,7.16,5c6.41,8.06,6.46,19.9-2.68,25.88-1.14.75-3.78,2-4.41,3.16,3.31-6.27,3-8.39,3.43-13s-1.67-9.44-3.58-13.67"></path><path class="cls-45" d="M350.6,148.74a5.83,5.83,0,0,0-.52-3.8c-1.29-2.55-3.88-4.16-6.05-5.92-7.65-6.22-19.21-8.47-28.58-5.35a43.75,43.75,0,0,0-8.83,4c-6.28,3.81-12.69,8.08-16.45,14.53-5.14,8.84-2.73,19.18,1.42,28,2.06,4.36,6.18,8.64,11.23,9.32,5.64.75,7.65-5,8.19-9.48.47-4-1.52-11.38,1.75-14.24,3.77-3.29,8.37-5.37,12.91-7.81a24.65,24.65,0,0,1,6.2-2.1c3.22-.74,6.48-1.14,9.72-1.73a18.37,18.37,0,0,0,7.17-2.57A4.44,4.44,0,0,0,350.6,148.74Z"></path><path class="cls-46" d="M323,340.85c1.59,10.23,2.58,46.84,3.21,63.3l-.45,10.91L337.79,417c-8-3.18-1-49.65.39-76.15Z"></path><path class="cls-47" d="M325.7,410.81c-.06,3.16.15,10.14.15,14.74h3c0-1.09-.09-4,.4-4.93.29-.58.82-.41,1.3-.22a34.69,34.69,0,0,0,4.49,3.67c1.74,1,5.22,1.28,7.82,1.4a29.19,29.19,0,0,0,6.77-.22c1-.34,0-1-1.74-2.66s-7.43-4.19-9.06-6.15-2.36-3.35-2.79-3.45c-.63-.15-1.37,5.78-7,1.35a7.42,7.42,0,0,1-2.26-3c-.49-1.11-.75-2.32-.89-2.62S325.75,407.65,325.7,410.81Z"></path><path class="cls-46" d="M303.24,340.85c1.59,10.23,2.58,46.84,3.21,63.3L306,415.06,318.08,417c-8-3.18-1-49.65.39-76.15Z"></path><path class="cls-47" d="M306,410.81c-.06,3.16.15,10.14.15,14.74h3c0-1.09-.09-4,.4-4.93.29-.58.82-.41,1.3-.22a34.69,34.69,0,0,0,4.49,3.67c1.74,1,5.22,1.28,7.82,1.4a29.19,29.19,0,0,0,6.77-.22c1.05-.34,0-1-1.74-2.66s-7.43-4.19-9.06-6.15-2.36-3.35-2.79-3.45c-.63-.15-1.37,5.78-7,1.35a7.42,7.42,0,0,1-2.26-3c-.49-1.11-.75-2.32-.89-2.62S306,407.65,306,410.81Z"></path><polygon class="cls-48" points="322.42 348.85 355.5 347.92 338.52 279.65 320.11 279.65 304.48 279.65 287.5 347.92 320.57 348.85 322.42 348.85"></polygon><path class="cls-46" d="M314.4,216.22c1.1-.13,2.82-.39,3.48-1.71s.28-3.69.08-5.49-.19-3,.3-3.49,1.48-.21,3.52-.08,5.16.13,7,0,2.3-.32,2.47.3a23.83,23.83,0,0,1,0,3.83,14.28,14.28,0,0,0,.54,5.16c.53,1.25,1.52,1.64,3,1.77s3.52,0,4,.81-.62,2.59-2.55,4.58a23.29,23.29,0,0,1-7.92,5.47c-3.24,1.28-6.94,1.61-9.59.2s-4.26-4.56-5.15-6.73-1.05-3.34-.88-3.93S313.29,216.35,314.4,216.22Z"></path><g class="cls-49"><path class="cls-50" d="M341.13,199.57v0a.11.11,0,0,0,0,0l0-.06a0,0,0,0,0,0,0h0v0l-.11-.24h0a.31.31,0,0,0,.15-.2.16.16,0,0,0,0-.1v0a0,0,0,0,0,0,0h0a0,0,0,0,1,0,0,.26.26,0,0,0,0-.11v0s0,0,0,0h0l0,0-.09-.19,0-.05a.69.69,0,0,0,.11-.13s0,0,0-.05a.37.37,0,0,0,0-.15h0v0h0s0,0,0-.05v0a.67.67,0,0,0,0-.07s0,0,0,0h0v0l-.14-.23,0-.05,0,0,0-.1s0,0,0,0a.34.34,0,0,0,0-.1h0v-.05a0,0,0,0,0,0,0,.38.38,0,0,0,0-.1s0,0,0,0a0,0,0,0,0,0,0h0l0,0-.15-.22.06-.08v0a.28.28,0,0,0,0-.11v-.12h0s0,0,0-.11a0,0,0,0,0,0,0l0-.05,0,0,0,0a1.4,1.4,0,0,0-.17-.21l.05-.09v0a.62.62,0,0,0,0-.1v-.06s0,0,0,0,0,0,0-.06h0s0,0,0-.08v0a.19.19,0,0,0-.05-.09l0,0,0,0-.19-.2a.34.34,0,0,0,.06-.15.09.09,0,0,0,0-.05.3.3,0,0,0,0-.16h0a.35.35,0,0,0-.06-.13l0,0,0,0h0l0,0a2,2,0,0,0-.2-.19.38.38,0,0,0,.05-.15v-.06a.4.4,0,0,0,0-.15h0v0h0l0,0,0,0-.05,0s0,0,0,0h0l0,0-.11-.08-.11-.08a.29.29,0,0,0,0-.16v-.06a.42.42,0,0,0,0-.15h0l0,0h0s0,0,0,0l-.09-.09h0l0,0-.17-.1-.06,0a.38.38,0,0,0,0-.37h0s0,0,0,0h0a.65.65,0,0,0-.12-.11h0a1.47,1.47,0,0,0-.26-.14.13.13,0,0,1,0-.05s0,0,0-.07,0,0,0-.07a.64.64,0,0,0,0-.07.21.21,0,0,0,0-.06s0,0,0,0h0l0,0h0l-.07-.05v0l-.05,0h0l-.27-.12a.49.49,0,0,0,0-.12h0a.57.57,0,0,0,0-.14l-.06-.08h0a.07.07,0,0,1,0,0h0a.4.4,0,0,0-.13-.07h0l-.29-.09a.06.06,0,0,0,0-.06s0,0,0-.06a.18.18,0,0,0-.05-.12v0l-.07-.08h0l0,0h0l-.14-.07h0l-.29-.07a.49.49,0,0,0,0-.11h0a.34.34,0,0,0-.06-.12.76.76,0,0,0-.09-.09h0a.24.24,0,0,0-.13-.07l-.05,0h0l-.29,0a.28.28,0,0,0,0-.11h0a.37.37,0,0,0-.07-.12.39.39,0,0,0-.1-.08h0a.37.37,0,0,0-.14-.06l-.05,0h0l-.3,0a.3.3,0,0,0-.05-.16l0,0a.4.4,0,0,0-.12-.1h0l-.14,0H335a.33.33,0,0,0-.07-.16l0,0a.4.4,0,0,0-.12-.1h0s-.06,0-.13,0-.06,0-.06,0h-.34a.26.26,0,0,0,0-.1h0a.41.41,0,0,0-.09-.1.24.24,0,0,0-.11-.06h0s-.06,0-.14,0h-.09l-.3,0a.37.37,0,0,0-.07-.14s0,0,0,0a.57.57,0,0,0-.13-.08h0l-.14,0h-.09l-.3,0a.28.28,0,0,0-.08-.15l0,0a.35.35,0,0,0-.13-.08h0a.41.41,0,0,0-.14,0h-.1l-.29.05a.33.33,0,0,0-.15-.2l-.11,0h0s-.06,0-.14,0h-.11a1.44,1.44,0,0,0-.27.06l0,0s0-.05,0-.06a.32.32,0,0,0-.09-.08l0,0-.09,0h0a.4.4,0,0,0-.2,0h-.07l-.24.06h0a.28.28,0,0,0-.1-.14l0,0a.42.42,0,0,0-.14-.06h0s-.07,0-.15,0h-.11l-.26.08a.41.41,0,0,0-.1-.13l-.05,0a.3.3,0,0,0-.14-.06h-.24l-.25.09a.41.41,0,0,0-.19-.18l-.11,0h-.23a1.28,1.28,0,0,0-.25.09h0a.29.29,0,0,0-.1-.12l-.05,0a.34.34,0,0,0-.14,0h0s-.07,0-.14,0l-.06,0s0,0,0,0h0l-.27.11s0,0-.07-.09h0a.36.36,0,0,0-.12-.08l-.12,0h-.12l-.06,0h-.06l-.25.1a.34.34,0,0,0-.12-.12l0,0a.25.25,0,0,0-.14,0h0a.8.8,0,0,0-.15,0s0,0,0,0h0l-.25.11a.32.32,0,0,0-.12-.11l0,0a.4.4,0,0,0-.15,0h0a.31.31,0,0,0-.15,0l0,0h0l-.24.12a.32.32,0,0,0-.12-.11l-.05,0a.32.32,0,0,0-.14,0h-.12l-.07,0,0,0h0l-.26.13a.32.32,0,0,0-.12-.11l0,0a.37.37,0,0,0-.15,0h0a.39.39,0,0,0-.15,0h0l-.25.13a.34.34,0,0,0-.2-.14H323l0,0-.06,0,0,0h0l-.23.14a.45.45,0,0,0-.13-.11l-.05,0a.34.34,0,0,0-.15,0h0s0,0,0,0h0l-.05,0-.06,0s0,0,0,0h0l-.23.15a.31.31,0,0,0-.13-.1l-.05,0a.39.39,0,0,0-.15,0h0a.29.29,0,0,0-.14.05h-.05l-.23.15-.13-.1-.05,0h-.14s-.07,0-.14,0l0,0h0l-.24.16a.42.42,0,0,0-.14-.09H320a.26.26,0,0,0-.15,0h0s-.07,0-.13,0l-.06,0,0,0h0l-.23.17-.09-.07h0l-.14,0h-.11s-.07,0-.13.05l-.05,0h0l-.22.18h0l0,0a.3.3,0,0,0-.19-.07h0l-.11,0h0s-.07,0-.13.05l-.05,0,0,0h0l0,0-.19.16h0a.37.37,0,0,0-.23-.1l-.11,0h0s-.11,0-.18.09l0,0h0l0,0-.19.18a.34.34,0,0,0-.15-.07h-.05a.43.43,0,0,0-.16,0h0l-.12.06-.05,0,0,0h0l0,0-.19.19a.47.47,0,0,0-.15-.06h-.05a.41.41,0,0,0-.16,0h0a.3.3,0,0,0-.12.07l-.05,0,0,0h0l0,0a1.41,1.41,0,0,0-.18.2.44.44,0,0,0-.16-.06h-.05a.4.4,0,0,0-.15,0h0s0,0-.05,0h0l0,0-.08.07,0,0h0v0a2.18,2.18,0,0,0-.17.22.33.33,0,0,0-.16-.05h0a.24.24,0,0,0-.15,0h0s-.07,0-.13.08l0,0a0,0,0,0,0,0,0h0v0a2,2,0,0,0-.16.23.32.32,0,0,0-.16,0h-.06a.34.34,0,0,0-.14,0h0l0,0h0l0,0c-.05.05-.06.08-.07.08l0,0h0v0l-.15.24a.3.3,0,0,0-.16,0h-.06a.35.35,0,0,0-.14.06h0s0,0-.08.06-.06.08-.07.08v0h0v0a2.3,2.3,0,0,0-.13.24h-.11a.41.41,0,0,0-.18,0l-.07,0h0s-.09.06-.13.15v0h0v0l-.06.13-.05.11a.4.4,0,0,0-.26,0,.47.47,0,0,0-.09.06h0a.4.4,0,0,0-.12.17v0h0l0,.07v0c0,.05,0,.12-.06.18a.41.41,0,0,0-.24,0h0a.39.39,0,0,0-.1.08h0s-.08.09-.11.18v.05a1.55,1.55,0,0,0-.08.28.26.26,0,0,0-.15,0l-.06,0a.27.27,0,0,0-.08.07l0,0h0a.36.36,0,0,0-.07.12s0,.06,0,.07v0h0a2.09,2.09,0,0,0-.05.29h-.11a.4.4,0,0,0-.21.16h0s-.07.1-.08.2v0h0l0,.3-.11,0h0a.35.35,0,0,0-.1.08.36.36,0,0,0-.07.1v0a.29.29,0,0,0-.05.14.28.28,0,0,0,0,.06v0h0v.3l-.11,0h0a.28.28,0,0,0-.1.09.21.21,0,0,0-.06.1h0s0,.06,0,.14,0,.06,0,.06v0h0c0,.1,0,.2,0,.3a.31.31,0,0,0-.21.14.22.22,0,0,0-.05.11h0s0,.06,0,.14v.09h0a2.54,2.54,0,0,0,0,.29.41.41,0,0,0-.2.16.56.56,0,0,0,0,.12v0s0,.07,0,.15a.18.18,0,0,1,0,.06h0v0h0l.06.28a.33.33,0,0,0-.18.18.36.36,0,0,0,0,.11h0s0,.07,0,.15,0,0,0,.06h0a2,2,0,0,0,.08.28l-.05,0,0,0a.27.27,0,0,0-.09.15.19.19,0,0,0,0,.08h0s0,.07,0,.15,0,0,0,.06v0h0v.05l.05.11.05.12a.29.29,0,0,0-.13.14l0,0a.32.32,0,0,0,0,.14h0v.05h0a.58.58,0,0,0,0,.1.13.13,0,0,1,0,0v0h0v0a2,2,0,0,0,.12.25l-.05,0,0,0a.38.38,0,0,0-.08.17h0s0,0,0,.06h0s0,0,0,.08v0s0,.07,0,.09v.05s.05.1.14.25a.32.32,0,0,0-.11.12l0,0a.26.26,0,0,0,0,.15h0v0a.06.06,0,0,1,0,0,.07.07,0,0,1,0,0s0,.05,0,.06a0,0,0,0,0,0,0h0a1,1,0,0,0,.12.22l0,0a.36.36,0,0,0-.12.22.41.41,0,0,0,0,.11h0v0s0,.07,0,.14a.39.39,0,0,1,0,.06l0,0h0l.16.25a.33.33,0,0,0-.12.22.4.4,0,0,0,0,.11h0s0,.07,0,.14l0,.05,0,0h0l0,0,.13.18,0,0a.42.42,0,0,0-.09.14.43.43,0,0,1,0,.05.29.29,0,0,0,0,.16v0s0,0,0,0v0h0a.05.05,0,0,0,0,0,.43.43,0,0,1,0,.05s0,0,0,0a0,0,0,0,0,0,0h0v0l.17.22a.32.32,0,0,0-.08.14s0,0,0,.05a.38.38,0,0,0,0,.15h0s0,.07,0,.13l0,0s0,0,0,0h0l0,0,.17.21a.39.39,0,0,0-.08.14.43.43,0,0,1,0,.05.38.38,0,0,0,0,.15h0s0,.07.05.13l0,.06s0,0,0,0h0l0,0,.15.18h0a.42.42,0,0,0-.09.24.14.14,0,0,0,0,.09v0h0a.54.54,0,0,0,.09.18l0,0h0l0,0,.18.19a.35.35,0,0,0-.06.09h0a.26.26,0,0,0,0,.14s0,.06,0,.09v0h0s0,.07.05.13l0,.05,0,0h0l0,0,.18.19a.37.37,0,0,0-.07.14s0,0,0,.06a.39.39,0,0,0,0,.15h0s0,.06.06.12l0,.05v0h0l0,0,.19.18a.51.51,0,0,0-.07.15v.05a.38.38,0,0,0,0,.15h0l0,.05h0l0,0,.06.09h0l0,0a1.83,1.83,0,0,0,.19.18.44.44,0,0,0-.06.16.43.43,0,0,0,0,.05.77.77,0,0,0,0,.15h0s0,.06.06.12l0,.05h0l0,0a1.83,1.83,0,0,0,.19.18.47.47,0,0,0-.06.15v.05a.26.26,0,0,0,0,.15h0s0,.07.07.13l0,0v0h0l0,0,.2.17a.39.39,0,0,0-.06.24v0a.19.19,0,0,0,0,.07h0a.1.1,0,0,1,0,0h0a.47.47,0,0,0,.09.12,0,0,0,0,0,0,0h0l0,0a1.66,1.66,0,0,0,.2.17.3.3,0,0,0,0,.16.43.43,0,0,0,0,.05.4.4,0,0,0,0,.15h0l0,0h0s0,0,0,0a.31.31,0,0,0,.07.08l0,0h0l0,0,.21.17a.43.43,0,0,0-.05.16v.05a.32.32,0,0,0,0,.14h0l0,0h0l0,0,.07.08h0l.22.17a.43.43,0,0,0-.05.16v.05a.33.33,0,0,0,0,.14h0l0,0h0l0,0a.31.31,0,0,0,.07.08h0a1.51,1.51,0,0,0,.22.16.32.32,0,0,0,0,.16s0,0,0,.05a.4.4,0,0,0,0,.15h0s0,0,0,0h0l0,0a.54.54,0,0,0,.08.08h.05a1.51,1.51,0,0,0,.22.16.29.29,0,0,0,0,.16s0,0,0,0a.33.33,0,0,0,0,.14h0l0,0h0l0,0a.54.54,0,0,0,.08.08l0,0h0l.24.17a.29.29,0,0,0,0,.16v0a.34.34,0,0,0,.05.14h0l0,0h0l0,0c0,.05.08.07.08.08h0l.25.17a.29.29,0,0,0,0,.16.11.11,0,0,0,0,0,.27.27,0,0,0,.05.14h0s0,0,0,0h0l0,0,.08.07h0l.25.15a.43.43,0,0,0,0,.25h0l0,.07s0,0,0,0h0l0,0h0a.29.29,0,0,0,.11.11h0a2.34,2.34,0,0,0,.25.15.29.29,0,0,0,0,.09v0a.42.42,0,0,0,.07.24h0l0,0h0l.11.1h0l.26.14a.39.39,0,0,0,0,.24h0s0,0,0,.06l0,0h0l0,0h0a.4.4,0,0,0,.12.1l0,0,.26.13s0,.06,0,.09v0a.43.43,0,0,0,.08.24h0l0,0h0a.58.58,0,0,0,.12.1h0l.27.13a.23.23,0,0,0,0,.11h0a.39.39,0,0,0,0,.14l.06.1h0l0,0h0l0,0,.09.06h0l.27.11a.43.43,0,0,0,0,.25h0l0,.06,0,0h0s0,0,0,0h0a.48.48,0,0,0,.13.09h0l.27.11a.45.45,0,0,0,0,.23h0l0,.05,0,0h0l0,0h0a.41.41,0,0,0,.13.08h0l.28.1a.41.41,0,0,0,0,.24h0s0,.05.05.07l0,0h0l0,0h0l.14.07h.05l.27.08a.37.37,0,0,0,0,.23h0l0,.05,0,0h0l0,0h0l.14.07h0l.27.06h0a.37.37,0,0,0,0,.11h0a.35.35,0,0,0,.06.14l0,0s0,0,.05,0h0l0,0h0a.59.59,0,0,0,.14.06h.06l.27,0h0a.42.42,0,0,0,0,.16l0,.05a.35.35,0,0,0,.1.11h.06l.05,0,.07,0h.05l.28,0a.39.39,0,0,0,.1.24l.05,0,0,0h0a.35.35,0,0,0,.19.06h.34a.35.35,0,0,0,.11.23.41.41,0,0,0,.11.07h0s.06,0,.14.05h.4a.26.26,0,0,0,0,.1h0a.44.44,0,0,0,.09.11l.11,0h0s.06,0,.14,0h.11a.79.79,0,0,0,.25,0h0a.38.38,0,0,0,.09.15l0,0a.35.35,0,0,0,.13.08h0s.07,0,.15,0h.11l.29-.06a.38.38,0,0,0,.09.13l.05,0,.09.05,0,0h0s.07,0,.14,0l.07,0h0l.29-.09a.32.32,0,0,0,.11.12l.05,0a.4.4,0,0,0,.15,0h0s.07,0,.15,0l.06,0h0l.28-.12a.41.41,0,0,0,.21.14l.12,0h.13l.07,0s0,0,0,0h0l0,0,.22-.13h0a.56.56,0,0,0,.15.1h0a.44.44,0,0,0,.16,0h0a.42.42,0,0,0,.15-.07s0,0,0,0h0l.24-.18a.32.32,0,0,0,.24.1.25.25,0,0,0,.12,0h0l.14-.06.05,0,0,0h0l.22-.19.1.05h0a.32.32,0,0,0,.14,0,.24.24,0,0,0,.12,0h0s.07,0,.14-.06l.05,0v0h0s.06-.05.18-.19v0l.1.05h0a.32.32,0,0,0,.14,0l.12,0h0a.13.13,0,0,0,.06,0l0,0,0,0,0,0v0h0v0l.12-.16.05-.06a.32.32,0,0,0,.16,0h.05a.47.47,0,0,0,.16,0h0l0,0h0l.09-.09,0,0h0a1,1,0,0,0,.16-.24l.08,0h.05a.38.38,0,0,0,.18,0l.05,0h0l0,0h0a.63.63,0,0,0,.1-.12h0l.16-.26a.29.29,0,0,0,.16,0h.05a.61.61,0,0,0,.14-.07h0l0,0h0l0,0a.21.21,0,0,0,.06-.09s0,0,0,0h0c0-.09.1-.17.14-.26a.39.39,0,0,0,.24,0h0l.05,0,0,0h0l0,0h0a.38.38,0,0,0,.09-.12l0,0,.12-.27a.36.36,0,0,0,.25,0h0a.18.18,0,0,0,.07,0h0l0,0h0a.73.73,0,0,0,.09-.13v0h0a1.65,1.65,0,0,0,.11-.27h0a.33.33,0,0,0,.24,0h0l.06-.05,0,0h0l0,0h0a.57.57,0,0,0,.08-.13v0h0s0-.09.08-.26v0a.4.4,0,0,0,.24,0h0l.06,0,0,0h0l0,0h0a.4.4,0,0,0,.07-.13l0,0v0l.08-.27a.43.43,0,0,0,.16,0l.05,0a.27.27,0,0,0,.12-.09h0s0,0,0,0h0l0,0a.26.26,0,0,0,.05-.1,0,0,0,0,0,0,0h0v0s0-.1.06-.26a.37.37,0,0,0,.25-.06l0,0a.17.17,0,0,0,.06-.06h0l0,0h0a.4.4,0,0,0,.07-.13,0,0,0,0,0,0,0h0v0a2.57,2.57,0,0,0,.06-.27.3.3,0,0,0,.16,0l.05,0a.52.52,0,0,0,.11-.1h0l0,0h0l0,0a.36.36,0,0,0,0-.11v0h0v0a1.87,1.87,0,0,0,0-.27.41.41,0,0,0,.16,0l.05,0a.31.31,0,0,0,.11-.09h0l0,0h0l0,0c0-.06,0-.09,0-.1v0h0v0a2.37,2.37,0,0,0,0-.27.32.32,0,0,0,.16,0l.05,0,.11-.1h0a.36.36,0,0,0,.07-.12.28.28,0,0,0,0-.06v0h0v0a2.37,2.37,0,0,0,0-.27.47.47,0,0,0,.16,0l0,0a.35.35,0,0,0,.11-.1h0a.27.27,0,0,0,.06-.12.28.28,0,0,0,0-.06,0,0,0,0,0,0,0h0v0s0-.1,0-.27a.41.41,0,0,0,.29-.16s0,0,0,0h0s.06-.1.08-.18v0h0v0a1.83,1.83,0,0,0,0-.27.43.43,0,0,0,.16-.05l0,0a.38.38,0,0,0,.11-.11v0s0-.06.06-.13a.21.21,0,0,0,0-.06v0h0v0s0-.1,0-.27a.43.43,0,0,0,.16-.05l0,0a.52.52,0,0,0,.1-.11h0a.52.52,0,0,0,.05-.13.18.18,0,0,0,0-.06v0h0v0a2,2,0,0,0,0-.27.37.37,0,0,0,.22-.1h0l.05-.07,0,0h0a.67.67,0,0,0,.06-.19v0h0v-.29a.44.44,0,0,0,.16-.06l0,0a.27.27,0,0,0,.09-.12v0a.51.51,0,0,0,.05-.14s0,0,0-.06h0v-.29a.34.34,0,0,0,.15-.07s0,0,0,0a.31.31,0,0,0,.09-.11h0a.36.36,0,0,0,0-.13.28.28,0,0,0,0-.06v0h0c0-.06,0-.18,0-.29a.26.26,0,0,0,.15-.07l.05,0a.62.62,0,0,0,.09-.12h0s0-.05,0-.13v-.08h0v0s0-.1,0-.28l.15-.06s0,0,0,0a.38.38,0,0,0,.09-.12h0a.42.42,0,0,0,0-.13.18.18,0,0,0,0-.06v0h0s0-.1,0-.28a.38.38,0,0,0,.1,0h0a.58.58,0,0,0,.12-.1s0,0,0,0l0-.05h0a.46.46,0,0,0,0-.2v0h0v0s0-.1,0-.27a.4.4,0,0,0,.22-.14.31.31,0,0,0,.05-.1v0s0-.07,0-.14,0-.05,0-.06a0,0,0,0,0,0,0h0v0s0-.1,0-.27a.36.36,0,0,0,.21-.13s0,0,0-.06l0,0h0a.35.35,0,0,0,0-.2v0h0v0s0-.11,0-.26l.09,0h0a.33.33,0,0,0,.11-.1.31.31,0,0,0,.05-.1h0a.42.42,0,0,0,0-.13s0-.06,0-.06v0h0v0s0-.11,0-.23v0a.35.35,0,0,0,.2-.14.59.59,0,0,0,0-.08,0,0,0,0,0,0,0v0s0-.13,0-.2v0h0v0s0-.11-.05-.27a.42.42,0,0,0,.14-.09l0,0a.39.39,0,0,0,.08-.14v0a.49.49,0,0,0,0-.14v-.06a0,0,0,0,0,0,0h0v0s0-.1-.05-.27a.38.38,0,0,0,.13-.09s0,0,0,0a.31.31,0,0,0,.06-.13h0s0-.06,0-.14v-.08h0v0s0-.1-.06-.27l.09-.05h0l.08-.1s0,0,0,0,0,0,0-.07h0s0-.06,0-.13,0-.06,0-.07h0v0s0-.1-.07-.26a.32.32,0,0,0,.13-.1l0,0a.58.58,0,0,0,.05-.14h0a.66.66,0,0,0,0-.14.18.18,0,0,1,0-.06h0v0a2.2,2.2,0,0,0-.08-.26.41.41,0,0,0,.13-.1l0,0a.66.66,0,0,0,.05-.15v0h0c0-.11,0-.14,0-.15s0,0,0,0h0a1,1,0,0,0-.06-.2l0-.07a.32.32,0,0,0,.12-.11l0,0a.38.38,0,0,0,.05-.15v0s0-.07,0-.15a.39.39,0,0,1,0-.06h0c0-.09-.07-.19-.1-.27a.35.35,0,0,0,.16-.2.36.36,0,0,0,0-.11h0v-.06Zm-7.67,17.8a.81.81,0,0,1,0,.11v0l-.05.06,0,0h-.06v-.07a.13.13,0,0,0,0-.06.25.25,0,0,0,0-.07l0-.06-.05,0a.3.3,0,0,0-.14-.1.51.51,0,0,0,0-.14h0c0-.13,0-.24.16-.25s0,0,0-.14c0,.2,0,.36.11.48h0s0,0,.11.05a.7.7,0,0,0,0,.14Zm-.52.6a.62.62,0,0,1,0,.1v0a.19.19,0,0,1-.07.08h-.07s0,0,0-.07,0,0,0-.06a.19.19,0,0,0,0-.07l0-.07,0-.05a.34.34,0,0,0-.14-.09l0-.14v0c0-.12,0-.23.16-.24s0,0,0-.1c0,.19,0,.34.11.45h0l0,0,0,0,0,0a1.28,1.28,0,0,0,0,.13Zm-.54.57,0,.08h0v0s0,0,0,.05a.16.16,0,0,1-.07.07h-.07a.56.56,0,0,0,0-.07.13.13,0,0,0,0-.06.15.15,0,0,0,0-.07l0-.07,0-.05a.41.41,0,0,0-.13-.1c0-.08,0-.12,0-.14h0c0-.12.05-.24.17-.24s0,0,0-.14c-.06.22-.06.38.08.49h0l0,0,0,0,0,0a.79.79,0,0,0,0,.13Zm-.57.56-.05.13h0a115461076671.65,115461076671.65,0,0,1-.1.08h0a.28.28,0,0,1,0-.08.09.09,0,0,0,0-.05.15.15,0,0,0,0-.07l0-.07,0-.06a.69.69,0,0,0-.13-.11.58.58,0,0,0,.05-.13h0c.05-.14.07-.23.18-.23s0,0,0-.11c-.06.2-.07.35.06.47h0l.07.05h0a.7.7,0,0,1-.05.13Zm-.59.53c0,.06,0,.1-.06.13h0a.1.1,0,0,1-.05,0l-.05,0H331v0h0s0-.06,0-.09a.31.31,0,0,0-.19-.32,1.33,1.33,0,0,1,.06-.14h0v0l.05-.11a.14.14,0,0,1,.14-.09.67.67,0,0,1,0-.12c-.07.2-.08.36,0,.48h0s0,0,0,0l0,0,0,0-.06.13Zm-2,1.5v0a.14.14,0,0,1-.08,0h-.08l0-.07a.13.13,0,0,0,0-.06.17.17,0,0,0,0-.07.64.64,0,0,0,0-.07.19.19,0,0,0,0-.07.31.31,0,0,0-.1-.13c0-.07.08-.11.08-.13h0a.58.58,0,0,0,.07-.12.17.17,0,0,1,.16-.06l0,0h0a.36.36,0,0,0,0,.4h0a.24.24,0,0,0,.09.08c0,.07-.07.1-.08.12v0Zm-4.51,1.19h0l-.11.05h-.15s0,0,0,0l.06,0,0,0a.43.43,0,0,0,0-.07l0-.06s0,0,0-.07a.29.29,0,0,0,0-.16l0,0h0l.11,0,.08,0,.13-.06a.16.16,0,0,1,.16,0l.2-.12-.17.1a.38.38,0,0,0-.18.47h0l-.05,0A.22.22,0,0,0,324.72,222.32Zm2.7-.64a.07.07,0,0,1,0-.06v0s0,0,0,.07Zm-.74.2,0,0s0,0,0-.06v0A.13.13,0,0,1,326.68,221.88Zm-.78.15a0,0,0,0,0,0,0h0a.06.06,0,0,1,0-.06l0,0A.17.17,0,0,1,325.9,222Zm-.77.06h0a.17.17,0,0,1,0-.07h0Zm-.81,0h0a.14.14,0,0,1,0-.06l0,0A.2.2,0,0,1,324.32,222.09Zm-.78-.1v0l0-.05s0,0,0,.05h0Zm.37.26-.07,0h-.08a.07.07,0,0,1-.06,0h-.06l0,0,.07,0,0,0,0,0,0-.07,0-.06a.43.43,0,0,0,0-.16l.14,0h0c.13,0,.21-.09.29,0l.08,0c-.17.08-.28.17-.29.34h0v.05s0,0,0,.06v0l0,0Zm1.62.05-.1,0,0,0h-.11l-.06,0,0,0,.06-.06a.34.34,0,0,0,0-.37l0,0h0l.08,0,.1-.05c.12-.09.19-.15.28-.08l.15-.1c-.18.13-.33.25-.29.45h0v0a.06.06,0,0,1,0,0l0,.05-.12.08Zm.8-.12-.12.09h0a.16.16,0,0,1-.1,0l-.05,0h0l0,0,0-.05,0-.07s0,0,0-.07V222a.38.38,0,0,0-.05-.15c.07-.06.1-.08.11-.1h0l.11-.08a.13.13,0,0,1,.16,0l0,0h0a.37.37,0,0,0-.13.38h0s0,0,0,.11-.1.07-.11.09Zm.66-.09a.11.11,0,0,1-.07,0h0s0,0-.05,0l0,0,0-.07,0,0s0-.06,0-.09,0,0,0-.06a.33.33,0,0,0-.07-.16.37.37,0,0,0,.11-.1h0l.09-.09a.16.16,0,0,1,.16,0l.07-.07c-.13.15-.19.28-.13.43h0s0,0,0,0l0,.07s0,0,0,0a.65.65,0,0,1-.12.11Zm.88-.36-.05.06h0l0,0,0,0a.11.11,0,0,1-.07,0h0l-.06,0h0l0,0s0-.05,0-.08a.32.32,0,0,0-.08-.36l.1-.11h0c.08-.09.14-.19.25-.14a1.54,1.54,0,0,1,.15-.2l-.13-.05h0a.37.37,0,0,0-.36.12s0,0,0,0h0l-.19.2a.34.34,0,0,0-.12-.06h0a.38.38,0,0,0-.37.08s0,0,0,0h0l-.2.18a.35.35,0,0,0-.12-.07h0a.34.34,0,0,0-.37,0s0,0,0,0v0l-.21.16-.11-.08h0a.35.35,0,0,0-.38,0s0,0,0,0v0l-.23.14a.24.24,0,0,0-.09-.09h0a.38.38,0,0,0-.37,0s0,0,0,0v0l-.25.11a.39.39,0,0,0-.08-.1h0a.38.38,0,0,0-.37-.08s0,0,0,0v0a2.87,2.87,0,0,1-.45.15.39.39,0,0,0-.28.43l-.14,0h0l-.08,0h-.12a.16.16,0,0,1-.09-.07l.06,0a.1.1,0,0,0,.05,0l.05,0a.21.21,0,0,0,0-.06l0-.06a.33.33,0,0,0,0-.17h0l.12,0h0l.13,0a.14.14,0,0,1,.15.06l.24-.07a.83.83,0,0,0-.08-.12h0a.36.36,0,0,0-.36-.1s0,0,0,0v0c-.34.1-.7.08-.77.37h0a.07.07,0,0,0,0,.05,0,0,0,0,1,0,0v.05l-.16,0h-.16a.13.13,0,0,1-.08,0h0l0-.06h0a.35.35,0,0,0,.18-.1l0,0a.43.43,0,0,0,.06-.22h.16c.12,0,.23-.06.28.05l.24-.05a.31.31,0,0,0-.06-.13h0a.4.4,0,0,0-.35-.14s0,0,0,0h0l-.27,0a.39.39,0,0,0-.05-.13h0a.41.41,0,0,0-.34-.18s0,0,0,0h-.27a.28.28,0,0,0,0-.13h0a.37.37,0,0,0-.33-.21s0,0,0,0v0H321a.35.35,0,0,0,0-.14h0a.35.35,0,0,0-.31-.22s0,0,0,0h0l-.28,0a.59.59,0,0,0,0-.13h0a.39.39,0,0,0-.3-.24s0,0,0,0h0l-.28-.06a.29.29,0,0,0,0-.13h0a.42.42,0,0,0-.29-.27s0,0,0,0h0l-.27-.07a.66.66,0,0,0,0-.14h0a.41.41,0,0,0-.28-.28s0,0,0,0h0l-.27-.08a.33.33,0,0,0,0-.14h0a.38.38,0,0,0-.26-.29s0,0,0,0h0l-.27-.09a.71.71,0,0,0,0-.14h0a.39.39,0,0,0-.24-.31s0,0,0,0h0l-.27-.11a.32.32,0,0,0,0-.14h0a.4.4,0,0,0-.24-.31h0l-.26-.11a.34.34,0,0,0,0-.14h0a.39.39,0,0,0-.23-.32s0,0,0,0h0l-.45-.21a.38.38,0,0,0-.48.14h0l-.1-.06,0,0-.13-.06h0a.1.1,0,0,1,0-.05l0,0a.06.06,0,0,1,0,0h.2l.07,0,.06,0a.46.46,0,0,0,.12-.12l.13.07h0l.12.07a.15.15,0,0,1,.08.14l.22.11a.36.36,0,0,0,0-.14h0a.4.4,0,0,0-.21-.33s0,0,0,0h0l-.26-.13a.23.23,0,0,0,0-.14h0a.38.38,0,0,0-.2-.34s0,0,0,0h0l-.44-.23a.37.37,0,0,0-.48.1h0l-.09-.05-.06,0-.11-.07h0s0,0,0-.05a.08.08,0,0,1,0-.05.09.09,0,0,1,0,0l.07,0h.13l.07,0,.06,0a.25.25,0,0,0,.12-.11l.13.08h0l.12.07a.15.15,0,0,1,.07.15l.22.11a.31.31,0,0,0,0-.13h0a.44.44,0,0,0-.2-.34s0,0,0,0h0l-.25-.14a.39.39,0,0,0,0-.14h0a.38.38,0,0,0-.18-.35s0,0,0,0h0l-.24-.15a.7.7,0,0,0,0-.14h0a.4.4,0,0,0-.18-.35s0,0,0,0h0l-.24-.15a.74.74,0,0,0,0-.14h0a.44.44,0,0,0-.17-.36h0c-.09-.05-.16-.11-.24-.16a.23.23,0,0,0,0-.14h0a.39.39,0,0,0-.16-.36h0l-.23-.17a.33.33,0,0,0,0-.13h0a.41.41,0,0,0-.15-.37s0,0,0,0h0l-.23-.17a.39.39,0,0,0,.05-.14h0a.43.43,0,0,0-.15-.37s0,0,0,0h0l-.22-.18a.5.5,0,0,0,.05-.13h0a.39.39,0,0,0-.15-.37s0,0,0,0h0l-.22-.19a.5.5,0,0,0,0-.13h0a.39.39,0,0,0-.14-.37s0,0,0,0h0l-.22-.19a.31.31,0,0,0,.06-.13h0a.4.4,0,0,0-.13-.37s0,0,0,0h0l-.21-.19a.31.31,0,0,0,.06-.13h0a.4.4,0,0,0-.12-.38h0l-.21-.19a.38.38,0,0,0,.06-.13h0a.37.37,0,0,0-.11-.38h0l-.2-.2a.31.31,0,0,0,.06-.13h0a.39.39,0,0,0-.1-.38s0,0,0,0h0l-.2-.2a.54.54,0,0,0,.07-.13h0a.41.41,0,0,0-.1-.38s0,0,0,0h0l-.19-.2a.38.38,0,0,0,.06-.13h0a.38.38,0,0,0-.08-.39s0,0,0,0h0l-.19-.2a.54.54,0,0,0,.07-.13h0a.4.4,0,0,0-.07-.39h0l-.18-.22a.47.47,0,0,0,.07-.12h0a.42.42,0,0,0-.07-.39s0,0,0,0h0l-.18-.23a.44.44,0,0,0,.08-.11h0a.39.39,0,0,0-.06-.39s0,0,0,0h0l-.18-.22a.47.47,0,0,0,.09-.12h0a.39.39,0,0,0,0-.39s0,0,0,0h0l-.17-.23a.28.28,0,0,0,.08-.11h0a.44.44,0,0,0,0-.4h0a2.52,2.52,0,0,0-.15-.24.31.31,0,0,0,.09-.11h0a.39.39,0,0,0,0-.39s0,0,0,0h0c-.05-.08-.09-.17-.14-.24a.94.94,0,0,0,.1-.1h0a.38.38,0,0,0,0-.4s0,0,0,0h0c-.2-.37-.29-.67-.57-.65h-.13L309,199v0l0-.07h0l0,0v0a.12.12,0,0,1,0-.1l0-.05h0l0,.06.05,0a.09.09,0,0,0,.06,0l.06,0h.07a.33.33,0,0,0,.17,0,.39.39,0,0,0,.06.13v0c.05.12.12.2,0,.29a1,1,0,0,1,.12.22.47.47,0,0,0,.1-.1h0a.41.41,0,0,0,0-.39s0,0,0,0h0c-.05-.08-.08-.17-.12-.25l.11-.09h0a.37.37,0,0,0,0-.38s0,0,0,0h0a2.77,2.77,0,0,0-.1-.26.31.31,0,0,0,.11-.09h0a.35.35,0,0,0,.09-.38s0,0,0,0h0l-.09-.27.11-.08h0a.38.38,0,0,0,.11-.37l0,0h0l-.06-.27a.26.26,0,0,0,.11-.07h0a.37.37,0,0,0,.14-.36s0,0,0,0h0c0-.09,0-.18,0-.27a.67.67,0,0,0,.12-.06h0a.38.38,0,0,0,.16-.35s0,0,0,0h0l0-.28a.29.29,0,0,0,.13,0h0a.37.37,0,0,0,.19-.33s0,0,0,0h0v-.28a.38.38,0,0,0,.13,0h0a.34.34,0,0,0,.21-.31s0,0,0,0h0l0-.28a.31.31,0,0,0,.13,0h0a.35.35,0,0,0,.24-.29s0,0,0,0h0c.06-.38,0-.23.08-.48a.37.37,0,0,0-.25-.44.7.7,0,0,0,0-.14v0l0-.09v-.06a.07.07,0,0,1,0,0,.08.08,0,0,1,0,0h0v.08a.13.13,0,0,0,0,.06.25.25,0,0,0,0,.07l0,.06,0,0a.31.31,0,0,0,.14.09.9.9,0,0,0,0,.15h0a.48.48,0,0,0,0,.14.14.14,0,0,1-.12.11s0,0-.05.23a.32.32,0,0,0,.14,0h0a.36.36,0,0,0,.26-.27s0,0,0,0h0a3.4,3.4,0,0,1,.13-.46A.4.4,0,0,0,312,192h0s0,0-.1-.06,0-.12,0-.14v0l0-.13v0a.27.27,0,0,1,.07-.08h.07a.23.23,0,0,1,0,.07s0,0,0,.06a.17.17,0,0,0,0,.07l0,.06a.13.13,0,0,0,0,.06.45.45,0,0,0,.13.11l-.05.15h0a.48.48,0,0,0,0,.14.14.14,0,0,1-.13.09s0,0-.07.24h.14a.35.35,0,0,0,.29-.25s0,0,0,0h0c0-.1.06-.18.09-.26h.14a.38.38,0,0,0,.31-.23s0,0,0,0v0c.13-.38.35-.59.15-.85h0s0,0-.09-.08a.31.31,0,0,0,.06-.12l0,0a.69.69,0,0,1,0-.08.19.19,0,0,1,.07-.08l0,0h.1l0,.07v.06s0,0,0,.07a.19.19,0,0,0,0,.07s0,0,0,.06a.25.25,0,0,0,.11.12.91.91,0,0,0-.07.14h0l-.06.12a.12.12,0,0,1-.14.08l-.1.22a.32.32,0,0,0,.14,0h0a.36.36,0,0,0,.32-.21s0,0,0,0h0c.15-.33.4-.59.21-.83h0l0,0,0,0,0,0,.07-.13v0a.35.35,0,0,0,.06-.09l0,0,.07,0h0a.07.07,0,0,1,.06,0l0,.07a.09.09,0,0,0,0,.05v.07s0,.05,0,.08l0,.06a.31.31,0,0,0,.1.13l0,0s-.05.06-.05.08h0c-.07.13-.11.22-.22.19a1.32,1.32,0,0,1-.12.22.32.32,0,0,0,.14,0h0a.37.37,0,0,0,.33-.19s0,0,0,0h0a1.76,1.76,0,0,1,.14-.23l.14,0h0a.39.39,0,0,0,.35-.17s0,0,0,0h0c.05-.08.11-.15.16-.22a.37.37,0,0,0,.14,0h0a.37.37,0,0,0,.36-.14s0,0,0,0v0l.18-.22a.31.31,0,0,0,.13.06h0a.37.37,0,0,0,.37-.13s0,0,0,0v0a2,2,0,0,1,.19-.21.31.31,0,0,0,.13.06h0a.37.37,0,0,0,.37-.11s0,0,0,0v0a1.84,1.84,0,0,1,.19-.2.38.38,0,0,0,.13.06h0a.36.36,0,0,0,.38-.09s0,0,0,0v0a3.81,3.81,0,0,1,.36-.33.37.37,0,0,0,.06-.49v0l.11-.09,0,0,.11-.09h0a.08.08,0,0,1,.07,0h0a.09.09,0,0,1,.05,0l0,0,0,.07,0,.05v.15a.39.39,0,0,0,.06.15.84.84,0,0,0-.1.1h0l-.11.1a.13.13,0,0,1-.16,0l-.19.17.13.07h0a.4.4,0,0,0,.39-.07s0,0,0,0h0l.22-.18a.24.24,0,0,0,.12.07h0a.4.4,0,0,0,.39-.05s0,0,0,0v0l.23-.18.11.08h0a.41.41,0,0,0,.39,0s0,0,0,0h0l.23-.16.11.08h0a.39.39,0,0,0,.39,0s0,0,0,0h0l.23-.15.11.08h0a.41.41,0,0,0,.4,0s0,0,0,0v0c.08-.06.16-.1.24-.15a.28.28,0,0,0,.1.09h0a.38.38,0,0,0,.4,0s0,0,0,0v0c.08-.06.16-.1.24-.15a.52.52,0,0,0,.11.1h0a.41.41,0,0,0,.4,0s0,0,0,0v0l.24-.14a.48.48,0,0,0,.11.09h0a.38.38,0,0,0,.4,0s0,0,0,0h0l.26-.13a.32.32,0,0,0,.1.1h0a.43.43,0,0,0,.4,0s0,0,0,0v0l.26-.13a.47.47,0,0,0,.1.1h0a.38.38,0,0,0,.4,0s0,0,0,0v0l.25-.12a.47.47,0,0,0,.1.1h0a.4.4,0,0,0,.4,0s0,0,0,0v0l.26-.12a.22.22,0,0,0,.09.1h0a.38.38,0,0,0,.4.05l0,0h0l.45-.19a.39.39,0,0,0,.22-.46h0l.08,0,.07,0,.13,0h0a.11.11,0,0,1,.08,0h0l0,0-.06.05,0,0s0,0,0,.06l0,.07,0,.06a.33.33,0,0,0,0,.17l.05,0h0l-.1,0-.1,0h0l-.13.05a.16.16,0,0,1-.16,0l-.23.1a.31.31,0,0,0,.09.11h0a.42.42,0,0,0,.39.06s0,0,0,0v0l.27-.1a.28.28,0,0,0,.09.1h0a.39.39,0,0,0,.39.07s0,0,0,0v0l.27-.1a.5.5,0,0,0,.08.12h0a.39.39,0,0,0,.39.07s0,0,0,0v0l.27-.08a.31.31,0,0,0,.09.11h0a.4.4,0,0,0,.38.09s0,0,0,0v0l.27-.08a.44.44,0,0,0,.08.11h0a.4.4,0,0,0,.38.1s0,0,0,0v0l.27-.07a.42.42,0,0,0,.08.12h0a.36.36,0,0,0,.37.11s0,0,0,0v0l.28-.07a.24.24,0,0,0,.07.12h0a.39.39,0,0,0,.37.14s0,0,0,0h0l.28-.05a.23.23,0,0,0,.06.12h0a.41.41,0,0,0,.37.15s0,0,0,0v0l.28,0a.23.23,0,0,0,.06.12h0a.41.41,0,0,0,.35.17s0,0,0,0h0l.28,0a.31.31,0,0,0,.06.13h0a.41.41,0,0,0,.34.18s0,0,0,0v0h.28a.5.5,0,0,0,.05.13h0a.4.4,0,0,0,.33.2s0,0,0,0v0h.28a.65.65,0,0,0,0,.13h0a.38.38,0,0,0,.32.21s0,0,0,0v0l.28,0a.28.28,0,0,0,0,.13h0a.38.38,0,0,0,.3.23s0,0,0,0v0l.27,0a.51.51,0,0,0,0,.13h0a.42.42,0,0,0,.28.27s0,0,0,0h0l.27.06a.33.33,0,0,0,0,.14h0a.41.41,0,0,0,.26.28h0l.27.08a.61.61,0,0,0,0,.14h0a.35.35,0,0,0,.23.3h0l.25.1a.34.34,0,0,0,0,.14h0a.36.36,0,0,0,.2.32s0,0,0,0h0a2.92,2.92,0,0,1,.43.22.39.39,0,0,0,.5-.1l.12.07h0l.09.06,0,0a.14.14,0,0,1,0,.08h0s0,0,0,.07l-.07,0h-.06a.08.08,0,0,0-.07,0h-.07l-.07,0a.45.45,0,0,0-.13.11l.05,0h0l-.18-.12h0l-.12-.07a.14.14,0,0,1-.06-.15l-.21-.12a.32.32,0,0,0,0,.14h0a.36.36,0,0,0,.18.34h0l.23.14a.37.37,0,0,0,0,.14h0a.36.36,0,0,0,.15.35s0,0,0,0h0a1.84,1.84,0,0,1,.22.17.5.5,0,0,0-.05.13h0a.36.36,0,0,0,.12.36h0c.28.23.47.53.74.42h0l0,0s0,0,.05,0l0,0,.1.11h0l0,0,.08.09a0,0,0,0,0,0,0,.09.09,0,0,1,0,0s0,0,0,0a.09.09,0,0,1,0,.05l-.06,0-.05,0-.07,0h-.14l-.15.06,0,0-.06-.06h0l-.1-.09a.14.14,0,0,1,0-.16l-.18-.17a.75.75,0,0,0-.07.12h0a.35.35,0,0,0,.1.37s0,0,0,0h0l.19.2a.42.42,0,0,0-.08.12h0a.38.38,0,0,0,.07.38s0,0,0,0h0a1.63,1.63,0,0,1,.17.22.44.44,0,0,0-.08.11h0a.35.35,0,0,0,0,.38s0,0,0,0h0c.25.33.32.61.64.57h0s0,0,.11,0l.08.12v0a.38.38,0,0,1,.07.11v0a.12.12,0,0,1,0,.08v0l0,.05s0,0-.05-.05l0,0-.07,0-.07,0h-.06a.35.35,0,0,0-.17,0l0,0s0,0,0,0l-.1-.18h0l-.08-.11a.15.15,0,0,1,0-.09.11.11,0,0,1,0-.07l-.13-.21a.31.31,0,0,0-.09.11h0a.37.37,0,0,0,0,.39s0,0,0,0h0c.05.08.1.16.14.24a.52.52,0,0,0-.1.11h0a.39.39,0,0,0,0,.39s0,0,.06,0h-.05a3.45,3.45,0,0,1,.22.43.38.38,0,0,0,.46.19h0l.06.13v0l0,.07h0v0l0,0a.11.11,0,0,1,0,.08v0l0,.05a.52.52,0,0,0-.1-.11l-.08-.05h0a.31.31,0,0,0-.27,0l0,0h0l0-.08a.54.54,0,0,0-.05-.11h0l-.06-.13a.14.14,0,0,1,0-.16l-.11-.22a.47.47,0,0,0-.1.1h0a.39.39,0,0,0,0,.39s0,0,0,0h0l.12.25a.52.52,0,0,0-.11.1h0a.41.41,0,0,0-.06.39l0,0h0c0,.09.07.18.1.26a.31.31,0,0,0-.11.09s.06,0,.08,0h0a.39.39,0,0,0-.15.43s0,0,0,0h0l.09.27-.11.08h0a.39.39,0,0,0-.08.39s0,0,0,0h0c0,.09.05.18.08.27a.35.35,0,0,0-.12.07h0a.37.37,0,0,0-.1.38l0,0h0a2.68,2.68,0,0,0,.07.27.36.36,0,0,0-.12.08h0a.37.37,0,0,0-.12.37s0,0,0,0h0c0,.09,0,.19.06.27a.35.35,0,0,0-.12.07h0a.4.4,0,0,0-.13.38s0,0,0,0h0a2.33,2.33,0,0,0,.05.28.33.33,0,0,0-.13.07h0a.38.38,0,0,0-.13.37s0,0,0,0h0c0,.09,0,.19,0,.28a.33.33,0,0,0-.13.07h0a.36.36,0,0,0-.14.37s0,0,0,0h0c0,.09,0,.19,0,.28a.31.31,0,0,0-.13.06h0a.4.4,0,0,0-.15.37s0,0,0,0h0l0,.28a.47.47,0,0,0-.12.07h0a.4.4,0,0,0-.16.36s0,0,0,0h0a2.66,2.66,0,0,1,0,.28l-.13.06h0a.41.41,0,0,0-.17.36s0,0,0,0h0c0,.17,0,.33,0,.5a.35.35,0,0,0,.36.34h0a1,1,0,0,1,0,.14v.1h0v.07a.24.24,0,0,1,0,.08l0,0-.05,0s0,0,0-.07l0,0,0-.06-.06-.05-.05,0a.33.33,0,0,0-.16,0,1,1,0,0,1,0-.14h0c0-.15,0-.25.07-.29s0-.13,0-.25l-.13,0h0a.42.42,0,0,0-.18.36s0,0,0,0h0c0,.1,0,.2,0,.29a.29.29,0,0,0-.13,0h0a.42.42,0,0,0-.19.35s0,0,0,0h0c0,.11,0,.2,0,.29l-.13.05h0a.43.43,0,0,0-.19.35s0,0,0,0h0c0,.1,0,.2,0,.29a.28.28,0,0,0-.13,0h0a.42.42,0,0,0-.2.35s0,0,0,0h0v.29a.33.33,0,0,0-.14,0h0a.4.4,0,0,0-.2.34s0,0,0,0h0c0,.11,0,.2,0,.29a.28.28,0,0,0-.13,0h0a.38.38,0,0,0-.21.34s0,0,0,0h0a2.53,2.53,0,0,1,0,.28l-.13,0h0a.39.39,0,0,0-.22.33s0,0,0,0h0c0,.1,0,.19,0,.28a.32.32,0,0,0-.14,0h0a.43.43,0,0,0-.23.33s0,0,0,0h0c0,.11,0,.2,0,.29a.32.32,0,0,0-.14,0h0a.36.36,0,0,0-.23.32s0,0,0,0h0c0,.1,0,.2,0,.28l-.14,0h0a.41.41,0,0,0-.24.32s0,0,0,0h0c0,.1,0,.19,0,.28a.35.35,0,0,0-.14,0h0a.4.4,0,0,0-.25.31s0,0,0,0h0c0,.1,0,.19,0,.28a.23.23,0,0,0-.14,0h0a.36.36,0,0,0-.25.3s0,0,0,0h0c0,.1,0,.19-.05.28a.22.22,0,0,0-.14,0h0a.38.38,0,0,0-.27.29s0,0,0,0h0c0,.1-.05.19-.07.28a.29.29,0,0,0-.13,0h0a.4.4,0,0,0-.27.28s0,0,0,0h0a2.76,2.76,0,0,0-.08.27.33.33,0,0,0-.14,0h0a.41.41,0,0,0-.28.28s0,0,0,0h0c0,.1-.05.19-.08.27h-.14a.38.38,0,0,0-.29.27s0,0,0,0h0l-.09.26a.33.33,0,0,0-.14,0h0a.38.38,0,0,0-.3.25s0,0,0,0h0c0,.09-.07.18-.1.26a.34.34,0,0,0-.14,0h0a.41.41,0,0,0-.32.23s0,0,0,0l0,0-.11.26-.14,0h0a.4.4,0,0,0-.32.22s0,0,0,0h0l-.13.25a.23.23,0,0,0-.14,0l.09,0h0a.38.38,0,0,0-.42.17s0,0,0,0h0l-.14.24a.35.35,0,0,0-.14,0h0a.35.35,0,0,0-.34.17s0,0,0,0v0l-.16.23-.13,0h0a.35.35,0,0,0-.35.15s0,0,0,0h0c-.25.34-.48.53-.35.78h0a.47.47,0,0,0,.06.09,0,0,0,0,1,0,0l-.07.07Zm-5.07.05,0,0a.12.12,0,0,1,.05-.07S322.82,221.77,322.8,221.78Zm-1.2-.19h-.16l-.07,0h0l0-.06.13,0a.33.33,0,0,0,.2-.31h.16c.13,0,.23,0,.28.08l.1,0c-.2,0-.34.09-.39.25h0v0a.19.19,0,0,0,0,.08s0,0,0,0h-.16Zm-2.7-1.68-.08,0h-.07l-.05,0,0,0a.11.11,0,0,1,0,0h.13l.07,0,.06,0,0,0a.38.38,0,0,0,.09-.15l.14,0h0c.12,0,.23,0,.25.15l.17,0c-.22,0-.39,0-.51.12h0s0,0-.05.11l-.14,0Zm-.61-.52-.13,0h0s0,0,0,0a.08.08,0,0,1,0,0,.11.11,0,0,1,0,0h.13a.33.33,0,0,0,.29-.23l.14,0h0c.13,0,.24,0,.24.17l.14,0c-.21-.05-.38,0-.48.1h0s0,0,0,0l0,.06v0l-.14-.05Zm-.58-.54-.07,0h-.07a.12.12,0,0,1-.05-.05l0,0a.13.13,0,0,1,0-.06h.13a.33.33,0,0,0,.3-.22l.14.05h0l.12,0a.14.14,0,0,1,.09.13l.13,0c-.21-.06-.37-.06-.48.08h0l0,.05a.05.05,0,0,0,0,0s0,0,0,0l-.14-.05Zm4.32,2.7h0a.05.05,0,0,1,0,0l0,0A.13.13,0,0,1,322,221.55Zm-.7-.32h0a.05.05,0,0,1,0,0h0Zm-.69-.38s0,0,0,0l0,0h0l0,0A.12.12,0,0,1,320.64,220.85Zm-.68-.41s0,0,0,0h0a.1.1,0,0,1,0,0Zm-.63-.46a0,0,0,0,1,0,0h.06l0,0Zm-.61-.5v0h.06a.1.1,0,0,1-.05,0S318.72,219.48,318.72,219.48Zm-.59-.52s0,0,0,0h.06a.1.1,0,0,1-.07,0Zm-.56-.55s0,0,0,0h.06l0,0Zm-.53-.56h0s0,0,0,0h.06a.1.1,0,0,1-.05,0Zm-.52-.59h0l.05,0h0Zm-.42-.64a.11.11,0,0,1-.08,0h0s0,0,0,0h.05Zm0,.47L316,217l0,0a.08.08,0,0,1,0,0s0,0,0,0,0,0,0-.05l.07,0h.13l.07,0,.06,0a.32.32,0,0,0,.11-.12l.14.06h0l.12.06a.13.13,0,0,1,.08.14l.1,0c-.19-.07-.34-.08-.46,0h0l0,0-.05.07s0,0,0,0l-.06,0Zm.51.61-.13-.06h0a.1.1,0,0,1-.06,0l0,0v-.06h.2l.07,0,.06,0a.32.32,0,0,0,.11-.12l.14.06h0l.13.06a.14.14,0,0,1,.09.14l.11,0c-.2-.07-.35-.08-.47,0h0l0,0,0,0,0,0-.09,0Zm.53.58-.13-.05h0a.14.14,0,0,1-.08-.07h0a.06.06,0,0,1,0-.06h.2l.07,0,.05,0a.32.32,0,0,0,.11-.12l.05,0,.09,0h0c.14.06.23.08.22.19l.12,0c-.2-.06-.35-.07-.47.06h0l0,0,0,0,0,0-.14-.05Zm2.37,2.11h-.14s0,0-.07,0l0,0h0a.64.64,0,0,1,0-.07.11.11,0,0,0,.08,0h.06l.06,0,.06,0,.05,0a.28.28,0,0,0,.08-.15l.14,0h0c.13,0,.24,0,.26.13l.19,0c-.23,0-.42,0-.52.15h0l0,0a.08.08,0,0,0,0,0l0,0-.14,0Zm.66.44H320l-.07,0h0s0,0,0-.06H320l.05,0a.09.09,0,0,0,.07,0l.06,0,0,0a.26.26,0,0,0,.07-.15h0l.2,0h.15a.13.13,0,0,1,.12.11h0a.37.37,0,0,0-.4.3h-.17Zm.69.41h-.15s0,0-.06,0l-.05,0,0,0h.08l.06,0,.05,0s0,0,.06-.05a.1.1,0,0,0,0-.05.41.41,0,0,0,.07-.15h.3a.17.17,0,0,1,.13.1h0a.41.41,0,0,0-.35.21h0s0,0,0,.12a.68.68,0,0,0-.15,0ZM315.55,216h0l0,0h.06A.11.11,0,0,1,315.55,216Zm-.46-.64h0l0,0h.06Zm.07.45-.12-.07h0a.1.1,0,0,1,0,0,.08.08,0,0,1,0-.05v0h.2l.08,0,.06,0a.46.46,0,0,0,.12-.12.57.57,0,0,0,.13.07h0l.13.07a.15.15,0,0,1,.07.15l.1,0c-.19-.09-.34-.11-.47,0h0l0,0,0,0s0,0,0,0l-.12-.07Zm-.5-1.1h0l0,0h.06Zm-.42-.66h0l.07,0h0l-.06,0Zm-.41-.67h0l.07,0h0l-.06,0Zm-.38-.67h0l.06,0h0Zm-.39-.7.06,0h0l-.07,0Zm-.36-.69.06,0h0a.09.09,0,0,1-.07,0Zm-.34-.7a.08.08,0,0,1,.07,0h0a.07.07,0,0,1-.06,0Zm-.34-.71.07,0h0a.09.09,0,0,1-.07,0Zm-.32-.72,0,0h.06a.09.09,0,0,1-.07,0Zm-.3-.72h0l.07,0s0,0,0,0a.09.09,0,0,1-.07,0Zm-.29-.73h0a.07.07,0,0,1,.06,0h-.07Zm-.27-.73s.05,0,.07,0h0s-.05,0-.07,0Zm-.26-.74a.09.09,0,0,1,.07,0h-.07Zm-.24-.75h0Zm-.23-.75h.05a.05.05,0,0,1,0,0h-.09Zm-.21-.75Zm-.18-.77h.09a.08.08,0,0,1-.07,0Zm-.16-.76a.08.08,0,0,1,.07,0h-.07Zm-.23-1.55h.07s0,0,0,0h-.08Zm-.24.3h0a.17.17,0,0,1,0-.07v0s0,0,0-.05l.05.06,0,0,.07,0,.07,0h.07a.32.32,0,0,0,.16,0l0,0h0l0,.07.07.11h0l.07.11a.14.14,0,0,1,0,.17l.07.09c-.13-.17-.24-.26-.41-.22h0l-.06,0h0l-.06-.1,0,0Zm.34.48h.08a.11.11,0,0,1-.08,0Zm-.16-1.56h0Zm0-.78h0l.06,0h0Zm-.21.4h0a0,0,0,0,0,0,0l0-.07v0h0a.28.28,0,0,1,0-.09v0l0,0,.05.06.05,0a.09.09,0,0,0,.06,0l.07,0h.06a.5.5,0,0,0,.17,0l0,0,.09.17h0l.07.12a.15.15,0,0,1,0,.17s0,0,.06.09c-.11-.17-.22-.27-.39-.25h0l0,0h-.09l-.07-.13Zm0,.8a.72.72,0,0,0-.07-.11v0a.19.19,0,0,1,0-.08v0l0-.05,0,.06.05,0,.06,0,.07,0h.07a.45.45,0,0,0,.16,0l0-.05h0a.21.21,0,0,0,0,.07.6.6,0,0,0,.06.11c.08.14.13.21.06.29l.07.11c-.12-.18-.24-.28-.41-.25h0l-.08,0h0l-.06-.1Zm.2,1.57-.08-.12h0s0-.05,0-.08v0l0-.05.06.05.05,0,.07,0h.07a.16.16,0,0,0,.07,0,.25.25,0,0,0,.16,0l0,0h0l0,.06.08.11h0l.09.11a.17.17,0,0,1,0,.17l.1.14c-.14-.18-.26-.31-.46-.25h0l-.05,0,0,0c-.05-.06-.07-.1-.09-.11Zm.15.78-.08-.1,0,0a.1.1,0,0,1,0-.07v0s0,0,0-.06l.06.05,0,0,.06,0h.14a.3.3,0,0,0,.16-.05l0,0h0l.13.16c.08.11.17.18.1.28l.07.09c-.13-.15-.26-.24-.43-.18h0l0,0,0,0h0l-.09-.11Zm.17.77a.65.65,0,0,0-.09-.11h0a.26.26,0,0,1,0-.08v0a.09.09,0,0,1,0-.05l.06,0,.05,0,.06,0h.14a.44.44,0,0,0,.16-.06l.09.11h0l0,0a.3.3,0,0,1,.07.08.15.15,0,0,1,0,.17l.06.07a.4.4,0,0,0-.43-.16h0l0,0,0,0h0l-.09-.11Zm.2.76-.09-.11h0a.1.1,0,0,1,0-.07,0,0,0,0,1,0,0s0,0,0-.06l.06,0,.05,0,.07,0H310a.39.39,0,0,0,.15-.06l.1.11h0l.1.11a.13.13,0,0,1,0,.16l.1.11-.07-.08a.37.37,0,0,0-.5,0h0l-.09-.1Zm.22.76-.09-.1h0a.16.16,0,0,1,0-.09v0l0-.05.06,0,0,0,.07,0h.14a.69.69,0,0,0,.15-.07h0c.05.07.07.09.09.1h0c.1.11.18.17.12.28s0,0,.14.14l-.11-.12a.38.38,0,0,0-.39-.1h0s0,0-.1.06l-.1-.11Zm.24.75-.09-.09,0,0a.11.11,0,0,1,0-.08v0l0-.06.06,0,.05,0,.07,0h.14a.26.26,0,0,0,.15-.07,1,1,0,0,0,.11.11h0c.11.1.19.16.13.26l.12.12c-.16-.16-.31-.25-.48-.18h0l0,0,0,0,0,0a.43.43,0,0,0-.1-.1Zm.25.75a.73.73,0,0,0-.09-.09l0,0a.11.11,0,0,1,0-.08v0s0,0,0-.05l.07,0,.05,0h.21a.26.26,0,0,0,.15-.07l0,0h0l.06.07a.6.6,0,0,1,.08.08c.11.1.19.16.14.27l.11.11c-.16-.16-.3-.24-.48-.16h0s0,0,0,0l0,0,0,0-.11-.1Zm.27.74-.09-.08,0,0a.25.25,0,0,1,0-.07v0a.14.14,0,0,1,0-.06l.06,0,.06,0h.07s0,0,.07,0H311a.28.28,0,0,0,.15-.08l.11.1h0c.1.1.19.16.14.27l.12.11c-.17-.16-.32-.24-.49-.16h0l0,0,0,0,0,0-.11-.1Zm.28.73-.08-.07,0,0a.2.2,0,0,1,0-.08v0s0,0,0-.06l.07,0,.05,0,.07,0h.14a.28.28,0,0,0,.15-.08l.11.1h0l.11.1a.15.15,0,0,1,0,.16l.09.08c-.16-.13-.3-.2-.46-.12h0l0,0,0,0,0,0-.11-.09Zm.29.73-.07-.06h0l0,0a.11.11,0,0,1,0-.08s0,0,0,0a.14.14,0,0,1,0-.06l.06,0,.06,0h.21a.42.42,0,0,0,.14-.09l.11.1h0l.11.09a.15.15,0,0,1,0,.17l.11.09c-.16-.13-.3-.21-.48-.13h0s0,0-.09.08l-.11-.1Zm.31.72-.1-.09h0s0,0,0,0,0,0,0-.06,0,0,0,0l.07,0,0,0h.21l.15-.09.11.09h0l.11.09a.18.18,0,0,1,.05.07.28.28,0,0,1,0,.09l.09.07c-.16-.12-.3-.18-.46-.1h0l0,0,0,0,0,0-.11-.09Zm.33.72-.11-.09h0a.09.09,0,0,1,0-.07,0,0,0,0,1,0,0,.43.43,0,0,1,0-.05l.07,0h.26a.38.38,0,0,0,.15-.09l.11.09h0c.11.09.2.14.16.25l.09.07c-.17-.12-.31-.17-.46-.08h0s0,0,0,0l0,0,0,0-.11-.09Zm.34.71-.11-.09h0s0,0,0-.07,0,0,0,0a.14.14,0,0,1,0-.06l.06,0h.21l.06,0a.31.31,0,0,0,.14-.09l.12.09h0c.12.09.21.14.17.25l.09.06c-.17-.11-.31-.16-.46-.07h0s0,0,0,0l0,0,0,0-.11-.09Zm.36.7-.11-.08h0a.08.08,0,0,1,0-.07l0,0a.14.14,0,0,1,0-.06l.06,0,.06,0h.15l.06,0a.42.42,0,0,0,.14-.09l.12.09h0l.11.08a.14.14,0,0,1,.05.16l.1.07c-.17-.12-.32-.17-.47-.07h0l0,0a.08.08,0,0,0,0,0l0,0-.12-.08Zm.37.7-.11-.08h0a.16.16,0,0,1,0-.07v0s0,0,0-.06l.07,0h.2l.07,0,.13-.1.12.08h0l.11.09a.13.13,0,0,1,.05.15l.09.06a.42.42,0,0,0-.46-.05h0l0,0,0,0,0,0-.12-.08Zm.38.68a.38.38,0,0,1-.11-.08h0a.15.15,0,0,1-.05-.07v0s0,0,0-.07l.07,0h.2l.07,0a.41.41,0,0,0,.13-.1l.12.08h0l.11.08a.16.16,0,0,1,.06.16l.08,0c-.17-.09-.31-.13-.45,0h0l-.05,0,0,0,0,0-.12-.08Zm.4.68-.11-.07h0a.12.12,0,0,1-.05-.07,0,0,0,0,0,0,0,.07.07,0,0,1,0-.06l.07,0h.2l.06,0a.26.26,0,0,0,.13-.1l.13.08h0l.12.08a.14.14,0,0,1,.06.15l.08,0c-.17-.09-.31-.13-.45,0h0l0,0,0,0,0,0-.11-.07Zm.42.67-.12-.07h0l-.05-.06v0a.13.13,0,0,1,0-.06l.07,0h.13l.07,0,.06,0a.35.35,0,0,0,.13-.11l.13.08h0l.12.07a.16.16,0,0,1,.07.15l.1.06c-.18-.1-.33-.13-.47,0h0s0,0,0,0l-.05,0,0,0-.09-.05Zm-3-21.73h0s0,0,0,0a.1.1,0,0,1,0-.07S311.3,192.79,311.3,192.8Zm-.42.11h0v0h0v0l0-.05a.08.08,0,0,1,0,0l0,0v.08a95096370784.05,95096370784.05,0,0,1,0,.12.43.43,0,0,1,0,.07l0,0a.29.29,0,0,0,.14.08c0,.08,0,.13,0,.15h0s0,.05,0,.13a.15.15,0,0,1-.11.12v0h0a.38.38,0,0,0-.16-.37h0l-.08,0h0c0-.05,0-.1,0-.17Zm-1.62,5.72h.05l0,0Zm.05-.79a.07.07,0,0,1,.06,0h0A.11.11,0,0,1,309.31,197.84Zm.12-.76s0,0,0,0l.06,0v0l-.06,0Zm.16-.77v0s.05,0,.06,0l0,0A.09.09,0,0,1,309.59,196.31Zm.84-2.19a0,0,0,0,1,0,0,.1.1,0,0,1,.05,0v0Zm-.37.17h0v-.08a.09.09,0,0,1,0-.07v0l.06,0,0,.07a.08.08,0,0,0,0,.05.25.25,0,0,0,0,.07s0,0,.05.05l0,0a.3.3,0,0,0,.16,0v.15h0a1.25,1.25,0,0,0,0,.14.15.15,0,0,1-.1.13v0h0a.35.35,0,0,0-.22-.33h0c-.05,0,0,0-.12,0v-.24Zm0,.53s0,0,0,0a.1.1,0,0,1,.05,0s0,0,0,0h0A.07.07,0,0,1,310.09,194.82Zm-.35.29V195h0V195a.13.13,0,0,1,0-.08s0,0,0,0a.1.1,0,0,1,.05,0,.5.5,0,0,0,.05.13.32.32,0,0,0,.32.18,1.42,1.42,0,0,0,0,.15h0s0,.05,0,.13a.13.13,0,0,1-.08.14v0a.4.4,0,0,0-.25-.31h0c-.05,0,0,0-.12,0a.73.73,0,0,0,0-.15Zm.06.43h0s.05,0,.06,0v0A.12.12,0,0,1,309.8,195.54Zm.75-1.67h0c-.05,0,0,0-.12,0a1,1,0,0,0,0-.14v-.1h0v-.05h0v0a.21.21,0,0,1,0-.07s0,0,0,0a.07.07,0,0,1,.06,0,.26.26,0,0,0,0,.07.25.25,0,0,0,0,.07l0,.05.05.06s0,0,0,0a.33.33,0,0,0,.16.07,1.14,1.14,0,0,0,0,.15h0c0,.13,0,.24-.11.27a.06.06,0,0,1,0,0h0A.38.38,0,0,0,310.55,193.87Zm.27-.43v0a.08.08,0,0,1,0,0v0a.1.1,0,0,1-.05,0Zm-1.33,2.43v-.08h0v0s0,0,0,0a.24.24,0,0,1,0-.08,0,0,0,0,0,0,0l.06,0a.34.34,0,0,0,.13.2l0,0a.42.42,0,0,0,.22,0v0h0v.06s0,.08,0,.14.06.23,0,.29a.13.13,0,0,0,0,.06v0a.36.36,0,0,0-.27-.29h0c-.05,0,0,0-.12,0s0-.12,0-.14Zm-.2.77v-.07h0v0a.08.08,0,0,1,0,0,.06.06,0,0,1,0,0,.12.12,0,0,1,.06-.1.41.41,0,0,0,.07.11.32.32,0,0,0,.34.13v-.05h0v.06a1.13,1.13,0,0,0,0,.15h0l0,.13a.15.15,0,0,1-.06.16l0,0h0a.37.37,0,0,0-.29-.27h0a.2.2,0,0,0-.12,0,.49.49,0,0,0,0-.13Zm-.13.79,0-.08h0v0s0,0,0,0a.11.11,0,0,1,0-.08v0a.1.1,0,0,1,.05,0,.83.83,0,0,0,.08.12l.07.06h0a.41.41,0,0,0,.28,0l0,0h0l0,.09s0,.06,0,.11h0a.63.63,0,0,0,0,.14.13.13,0,0,1-.05.15s0,0,0,.05h0a.39.39,0,0,0-.32-.25h0a.39.39,0,0,0-.12,0l0-.14Zm-.09.79,0-.07h0l0,0v0a.27.27,0,0,1,0-.09s0,0,0,0l0-.05,0,.07,0,0a.1.1,0,0,0,.05,0l.07,0,.06,0a.32.32,0,0,0,.17,0,1.33,1.33,0,0,0,.06.14h0a.45.45,0,0,0,.05.12.16.16,0,0,1,0,.16l.06.13c-.09-.19-.18-.32-.38-.32h0s0,0,0,0h-.1a.93.93,0,0,0-.05-.14Zm2.75-6s0,0,0,0l0-.08,0,0S311.82,192.21,311.82,192.22Zm.67-1,.05-.12v0a.18.18,0,0,1,.08-.07h.07a.64.64,0,0,0,0,.07v.06s0,.05,0,.07l0,.07s0,0,0,.06a.43.43,0,0,0,.12.11,1.56,1.56,0,0,1-.06.15h0a.55.55,0,0,0-.05.12.15.15,0,0,1-.14.09l-.09.22c.1-.24.16-.4,0-.58h0a.18.18,0,0,0-.09-.07,1.3,1.3,0,0,0,.05-.14Zm-.12.46s0,0,0,0a.09.09,0,0,1,0,0v0s0,0,0,0S312.37,191.66,312.37,191.67Zm.6-.51s0,0,0,0l0-.06v0l0,0Zm.62-.43a.14.14,0,0,1,0-.06v0s0,0,0,0v0S313.59,190.72,313.59,190.73Zm.86-.85v0s0-.06.06-.08l0,0h0l.06,0h0l.06,0a.15.15,0,0,0,0,.07.07.07,0,0,0,0,0,.17.17,0,0,0,0,.07s0,.05,0,.08l0,.06a.64.64,0,0,0,.1.13l0,0-.05.08h0c-.07.11-.12.21-.23.18l-.1.15c.12-.19.2-.36.08-.52h0l0,0,0,0,0,0Zm.49,0s0,0,0,0a.09.09,0,0,1,0-.07v0l0,0Zm-.71.35v0a.13.13,0,0,1,0,.09A.25.25,0,0,1,314.23,190.25Zm1.42-.69s0,0,0,0a.14.14,0,0,1,0-.06v0S315.65,189.55,315.65,189.56Zm.7-.32v0h0s0,.05,0,.07v0S316.34,189.26,316.35,189.24Zm.74-.27h0a.17.17,0,0,1,0,.07h0A.08.08,0,0,1,317.09,189Zm.75-.23h0a0,0,0,0,1,0,0s0,0,0,0,0,0,0,0A.11.11,0,0,1,317.84,188.74Zm-.44-.09.05-.06h0l0,0,0,0a.14.14,0,0,1,.09,0h0l.05,0,0,.06,0,.06a.64.64,0,0,0,0,.07v.07a.2.2,0,0,0,0,.07.34.34,0,0,0,.07.15l-.08.07,0,0h0a.78.78,0,0,1-.1.1.14.14,0,0,1-.16,0s0,0-.13.13c.17-.16.27-.31.2-.49h0l0,0s0,0,0,0,0,0,0,0l.1-.1Zm-.76.24a.12.12,0,0,0,.05,0h0l0,0,0,0s.05,0,.08,0h0l.06,0,0,.06s0,0,0,.06a.64.64,0,0,0,0,.07V189s0,0,0,.07a.39.39,0,0,0,.08.14l0,0h0l-.14.15h0l-.09.11a.16.16,0,0,1-.16,0s0,0-.13.14c.15-.17.26-.32.17-.51h0s0,0,0,0l0,0,0,0,.1-.1Zm-.74.29.06-.07h0l0,0a.13.13,0,0,1,.08,0h0l.06,0a.15.15,0,0,0,0,.07.08.08,0,0,0,0,0,.15.15,0,0,0,0,.07.09.09,0,0,0,0,.07.15.15,0,0,0,0,.07.39.39,0,0,0,.08.14h0l-.12.13c-.09.1-.14.2-.26.15a.56.56,0,0,1-.1.13c.14-.17.23-.32.13-.5h0l0,0,0,0,0,0a.53.53,0,0,0,.09-.11Zm-.73.32.06-.08,0,0h0l.06,0h0l.06,0a.15.15,0,0,0,0,.07.08.08,0,0,0,0,.05.74.74,0,0,0,0,.21.42.42,0,0,0,.09.14l-.1.12c-.08.11-.13.21-.24.17l-.07.1a.43.43,0,0,0,.08-.48h0s0,0,0,0l0,0,0,0,.09-.12Zm6.09-1.65.13-.08h0a.12.12,0,0,1,.08,0h0a.1.1,0,0,1,.05,0l-.05.05,0,0,0,.06a.24.24,0,0,0,0,.08s0,0,0,.06a.29.29,0,0,0,0,.16l0,0h0l-.08.05-.1.06c-.1.06-.18.15-.28.07l-.1.07c.17-.12.26-.24.23-.42h0s0,0,0,0,0,0,0-.05a0,0,0,0,1,0,0l.11-.08Zm-2.67.69h0s0,.05,0,.07v0A.22.22,0,0,1,318.59,188.54Zm.77-.18h0v.06s0,0,0,0A.28.28,0,0,1,319.36,188.36Zm.77-.13h0a.08.08,0,0,1,0,.07v0A.22.22,0,0,1,320.13,188.23Zm.78-.13h0a.06.06,0,0,1,0,.06l0,0v-.06S320.91,188.11,320.91,188.1Zm.78-.09a.15.15,0,0,1,0,.07h0a.2.2,0,0,1,0-.07Zm.77-.06v0h0a.13.13,0,0,1,0,.06s0,0,0,0A.08.08,0,0,1,322.46,188Zm.79-.07v0h0v0s0,0,0,0a.07.07,0,0,1,0-.06S323.25,187.89,323.25,187.88Zm.78,0s0,.05,0,.06v0a.15.15,0,0,1,0-.07Zm.77,0h0a.19.19,0,0,1,0,.08h0A.22.22,0,0,1,324.8,187.84Zm.78,0h0a.14.14,0,0,1,0,.06h0A.13.13,0,0,1,325.58,187.85Zm.79,0h0a.1.1,0,0,1,0,.07h0A.14.14,0,0,1,326.37,187.86Zm.79,0h0a.15.15,0,0,1,0,.07h0a.13.13,0,0,1,0-.06Zm-.39-.22.07,0h0l0,0H327l0,0a.23.23,0,0,0-.05.05l0,0a.13.13,0,0,0,0,.06s0,0,0,.06a.25.25,0,0,0,0,.07.33.33,0,0,0,0,.17l0,0h0l-.06,0-.13.05c-.13.06-.22.11-.3,0l-.09,0c.17-.09.29-.19.28-.37h0s0,0,0-.05a.07.07,0,0,1,0-.05s0,0,0,0l.13-.05Zm-.79,0,.13-.06h.12l0,0-.06,0,0,0a.13.13,0,0,0,0,.06l0,.06s0,.05,0,.07a.33.33,0,0,0,0,.17l0,0h0l-.12.06-.07,0c-.12.05-.21.11-.29,0l-.11.05c.18-.09.3-.2.28-.38h0s0,0,0-.06a.08.08,0,0,0,0,0,.06.06,0,0,0,0,0l.13-.06Zm-.78,0,.12-.06h.12s0,0,.05,0l-.06,0,0,.05,0,.05,0,.08a.13.13,0,0,0,0,.06.33.33,0,0,0,0,.17l.05,0h0l-.09,0-.1,0h0l-.13.06a.12.12,0,0,1-.16,0s0,0-.1.06c.18-.1.29-.21.27-.39h0s0,0,0-.05a.07.07,0,0,1,0-.05s0,0,0,0l.13-.06Zm-.79,0,.13-.06h.11a.1.1,0,0,1,.05,0l-.06.05,0,0a.21.21,0,0,0,0,.06.25.25,0,0,0,0,.07.15.15,0,0,0,0,.07.3.3,0,0,0,0,.16l.05,0h0l-.09.05a.24.24,0,0,0-.1,0h0l-.12.06a.13.13,0,0,1-.16,0l-.08,0c.16-.1.26-.21.24-.38h0s0,0,0-.06v0a.11.11,0,0,0,0-.05l.13-.06Zm-.79,0,.13-.07h0s.05,0,.08,0h0l0,0s0,0-.05,0,0,0,0,0l0,.07,0,.07a.13.13,0,0,1,0,.06.51.51,0,0,0,0,.17l.05,0h0l-.08,0-.11.06c-.12.07-.2.13-.29,0l-.1.06.07,0a.37.37,0,0,0,.19-.35h0a.27.27,0,0,0,0-.11l.12-.07Zm-.79,0,.13-.07h0a.08.08,0,0,1,.08,0h0s0,0,0,0l-.05,0,0,.05,0,.06s0,.05,0,.08,0,0,0,.06a.29.29,0,0,0,0,.16l-.09,0-.05,0c-.12.07-.2.14-.29.06l-.14.09c.19-.12.32-.23.28-.43h0s0,0,0,0,0,0,0,0a.09.09,0,0,0,0-.05.44.44,0,0,0,.12-.07Zm-.78.06.07,0,0,0,0,0h.11l0,0a.23.23,0,0,0,0,0l0,.05,0,.06a.19.19,0,0,0,0,.07s0,0,0,.07a.32.32,0,0,0,0,.16l0,0h0l-.18.11c-.11.07-.19.14-.28.06l-.1.07c.17-.12.27-.24.23-.41h0l0,0a.09.09,0,0,0,0-.05.06.06,0,0,1,0,0l.12-.08Zm-1.57.2a.8.8,0,0,1,.12-.08h.12l0,0,0,.05,0,.05,0,.06s0,0,0,.08v.07a.33.33,0,0,0,.05.16l0,0h0l-.09.06-.08.05,0,0-.1.07a.17.17,0,0,1-.17,0l-.08.05c.15-.12.24-.24.2-.41h0a.14.14,0,0,0,0-.06,0,0,0,0,0,0,0,.08.08,0,0,1,0,0l.12-.08Zm-.78.13.12-.08h0a.1.1,0,0,1,.07,0h0l.06,0-.05.06,0,0,0,.07s0,0,0,.07v.07a.43.43,0,0,0,.05.16l0,0h0l-.07.06-.1.06h0s0,0-.11.08a.14.14,0,0,1-.17,0l-.08.07c.15-.14.24-.26.19-.42h0v0l0-.07s0,0,0,0l.1-.08Zm-.77.16.11-.09h0l.08,0h0l0,0,0,.06,0,0,0,.07a.2.2,0,0,0,0,.07v.07a.44.44,0,0,0,.06.16l-.12.09h0l-.11.09a.14.14,0,0,1-.16,0s0,0-.05,0l0,0a.38.38,0,0,0,.07-.5l.11-.09Zm15.55,1h.15a.19.19,0,0,1,.08,0l0,0,0,.05-.13,0a.33.33,0,0,0-.2.31h-.16c-.13,0-.23,0-.28-.09l-.11,0c.21,0,.35-.09.4-.25h0a0,0,0,0,1,0,0s0,0,0-.07,0,0,0,0Zm.72.34h.16l.07,0,0,0s0,0,0,.06h0l-.09,0a.32.32,0,0,0-.22.3H335c-.14,0-.24,0-.28-.1h-.09c.19,0,.33-.07.39-.23h0s0,0,0-.06a0,0,0,0,1,0,0s0,0,0,0h.06C335.16,189.57,335.19,189.58,335.2,189.57Zm.58.37.12,0h.15l.08,0,0,0a.14.14,0,0,1,0,.06h0l-.08,0a.31.31,0,0,0-.24.28h-.16c-.15,0-.23,0-.27-.11h-.09c.19,0,.33-.05.4-.21h0s0,0,0,0l0,0s0,0,0,0h0Zm2,1.45.08,0h0l0,0H338l0,0s0,0,0,.05a.09.09,0,0,1,0,.05h-.14a.33.33,0,0,0-.29.23l-.14-.05h0l-.13,0a.14.14,0,0,1-.09-.13l-.17,0,.13,0a.38.38,0,0,0,.38-.11h0a.35.35,0,0,0,.07-.12h0l.14,0Zm-9.9-3.43,0,0h0a.14.14,0,0,1,0,.06l0,0S327.91,188,327.92,188Zm.79.06h0s0,0,0,0,0,0,0,0A.19.19,0,0,1,328.71,188Zm.78.1h0a.14.14,0,0,1,0,.07h0S329.47,188.14,329.49,188.12Zm.78.12h0s0,0,0,0,0,0,0,0A.16.16,0,0,1,330.27,188.24Zm.76.15h0a.14.14,0,0,1,0,.06h0Zm.77.17h0l0,.05h0S331.78,188.57,331.8,188.56Zm.75.21h0l0,.06s0,0,0,0A.07.07,0,0,1,332.55,188.77Zm.76.23h0a.09.09,0,0,1,0,.06h0A.13.13,0,0,1,333.31,189Zm.74.27a.16.16,0,0,1,0,.06h0A.13.13,0,0,1,334.05,189.27Zm.7.33h0l0,0h0A.1.1,0,0,1,334.75,189.6Zm.71.35h0a.1.1,0,0,1,0,.05h0a.1.1,0,0,1,0-.05Zm.68.39h0l0,0s0,0,0,0a.1.1,0,0,1,0-.05Zm1.15.54h.08l.05,0,0,0a.13.13,0,0,1,0,.06h-.12a.35.35,0,0,0-.29.25l-.14,0h0l-.13,0a.16.16,0,0,1-.11-.13h-.1c.2,0,.34,0,.43-.14h0v0l0-.06,0,0,.16,0Zm0,.44.08,0h0l0,0h-.06Zm-.53-.53h0l0,0h0a.12.12,0,0,1,0-.05Zm1.1,1.07a.1.1,0,0,1,.05,0h0l0,0Zm.6.55,0,0h-.05A.09.09,0,0,1,338.49,192.41Zm.38.66.09,0,0,0h-.07Zm0-.48.09,0h0s0,0,.05.05,0,0,0,0,0,0,0,.05l-.07,0h-.13l-.07,0-.07,0a.63.63,0,0,0-.12.11h0l-.11-.06h0l-.13-.06a.13.13,0,0,1-.07-.14l-.05,0h0a.38.38,0,0,0,.4,0h0s0,0,.08-.1l.13.07Zm-.51-.62.14.06a.14.14,0,0,1,.08.07h0s0,0,0,.06h-.2s0,0-.08,0l-.05,0a.25.25,0,0,0-.11.12l-.14,0h0c-.12-.05-.23-.07-.22-.19l0,0h0a.37.37,0,0,0,.47-.17v0l.14.06Zm-1.73-1.57h.08a.18.18,0,0,1,.07.05h0s0,.05,0,.07h-.12a.33.33,0,0,0-.27.27l-.14,0h0l-.14,0a.14.14,0,0,1-.11-.11H336c.19,0,.33,0,.41-.17h0a0,0,0,0,0,0,0l0-.07v0l.17,0Zm-2.83-1.47h.08s.05,0,.07,0h0s0,0,0,.06h0a.4.4,0,0,0-.18.1l0,.05a.36.36,0,0,0-.06.2l-.15,0h0c-.15,0-.23,0-.29-.07h-.08a.4.4,0,0,0,.36-.26h0s0,0,0-.06v0a.06.06,0,0,0,0,0h.24Zm-.83-.25h.2a.11.11,0,0,1,.09.08h0a.34.34,0,0,0-.17.11s0,0,0,0a.35.35,0,0,0-.06.22H333l-.11,0h0l-.14,0a.16.16,0,0,1-.15-.08l-.08,0c.18-.05.31-.12.34-.28h0v-.14H333Zm-.76-.23h.15s0,0,.05,0a.15.15,0,0,1,.09.06l-.07,0,0,0a.34.34,0,0,0-.06.06l0,0,0,.07a.29.29,0,0,0,0,.16h.05l-.11,0-.1,0c-.13,0-.23.06-.29,0l-.17,0,.13,0a.38.38,0,0,0,.29-.28h0a.19.19,0,0,0,0-.12l.14,0Zm-.77-.19.08,0h.12a.15.15,0,0,1,.1.07.36.36,0,0,0-.19.15.08.08,0,0,0,0,0,.34.34,0,0,0,0,.22l.05,0h-.05l-.16,0h0l-.14,0a.15.15,0,0,1-.15-.07l-.08,0h0a.38.38,0,0,0,.28-.29h0a.27.27,0,0,0,0-.09s0,0,0,0l.14,0Zm-.77-.16.07,0h.08a.07.07,0,0,1,.06,0H331s0,0,0,0l-.06,0-.05,0a.1.1,0,0,0,0,.05l-.05.06a.14.14,0,0,1,0,.06.49.49,0,0,0,0,.17l-.14,0h0l-.13,0a.15.15,0,0,1-.16-.05l-.16,0c.22-.06.37-.14.39-.34h0s0,0,0,0v-.1l.14,0Zm-.78-.14.07,0h.08a.11.11,0,0,1,.08,0h0l0,0s0,0-.07,0l0,0-.05.06,0,.06,0,.06a.33.33,0,0,0,0,.17h0l-.13,0-.07,0c-.13,0-.22.09-.29,0l-.11,0c.19-.07.32-.16.33-.34h0s0,0,0-.05v0s0,0,0,0l.14,0Zm-.78-.11.09,0,0,0h.11l0,0-.06,0s0,0,0,0l-.05.05,0,.07a.14.14,0,0,0,0,.06.33.33,0,0,0,0,.17l-.15.05h0l-.13,0a.14.14,0,0,1-.16,0l-.12,0c.21-.08.33-.17.33-.35h0v-.1s0,0,0,0l.14,0Zm-.79-.08.08,0h.18a.1.1,0,0,1,0,.05s0,0-.06,0l0,0-.05.06,0,.06a.14.14,0,0,0,0,.07.29.29,0,0,0,0,.16h0l-.15.06c-.14.05-.22.1-.3,0l-.1,0c.18-.08.3-.18.3-.36h0s0,0,0-.05v0s0,0,0,0l.13,0Zm11,5.94h0s0,0,0,0h-.05A.08.08,0,0,1,339.35,193.71Zm-.12,0h0Zm.49.71h-.09a.08.08,0,0,1,.07,0Zm.29.73H340a.05.05,0,0,1,0,0H340Zm.05-.46.08.07,0,0a.09.09,0,0,1,0,.07,0,0,0,0,1,0,0,.14.14,0,0,1,0,.06.14.14,0,0,0-.07,0l-.05,0-.07,0h-.13a.28.28,0,0,0-.15.08l0,0-.08-.07h0c-.11-.09-.19-.14-.15-.25l-.13-.11c.16.14.32.24.5.14h0l0,0s0,0,0,0l0,0,.11.09Zm-.33-.73.1.07,0,0a.09.09,0,0,1,0,.08s0,0,0,0,0,0,0,.06l-.07,0-.06,0h-.14l-.06,0a.34.34,0,0,0-.14.09l0,0-.15-.11h0l-.11-.08a.13.13,0,0,1-.05-.15l-.15-.1c.18.12.35.21.52.1h0l0,0s0,0,0,0l0,0,.11.08Zm.8,2.26,0,0,.06.09a0,0,0,0,1,0,0,.07.07,0,0,1,0,0s0,0,0,0l0,.05-.06,0-.05,0-.07,0h-.13a.3.3,0,0,0-.16,0l-.1-.12c-.1-.12-.17-.18-.11-.27l-.14-.17c.16.19.28.31.5.26h0s0,0,.1-.06l.1.11Zm-.29-.32h-.05l0,0h.09Zm.17.76h-.05a.05.05,0,0,1,0,0,.09.09,0,0,1,.07,0Zm.12.78h-.06l0,0a.09.09,0,0,1,.07,0Zm.15-.44.05.08a.36.36,0,0,1,0,.09v0s0,.05,0,.06v0s0,0,0,0l-.06-.06-.05,0-.06,0h-.14a.49.49,0,0,0-.16.05.61.61,0,0,0-.09-.13c-.09-.12-.15-.19-.09-.28l-.12-.16c.14.19.25.32.48.28h0s0,0,.11,0l.09.12Zm-.09,1.22h-.06s0,0,0,0h.07Zm0,.77h0l-.05,0Zm-.32-.38h0Zm.54,0,.06.13h0a.2.2,0,0,1,0,.11h0s0,0,0,0l0-.06-.05,0-.06,0-.07,0h-.07a.3.3,0,0,0-.16,0l0-.09,0,0h0a.58.58,0,0,1-.07-.12.14.14,0,0,1,0-.16l-.11-.21c.12.22.23.39.45.36h.13a.54.54,0,0,0,.07.12Zm-2.52,10.69v.08h0v0a.08.08,0,0,1,0,0,.15.15,0,0,1,0,.07l0,0s0,0-.05,0a.45.45,0,0,0,0-.08l0,0a.13.13,0,0,0,0-.06l-.05,0-.06,0a.3.3,0,0,0-.16,0v0h0v-.21c0-.14,0-.24.08-.28a.58.58,0,0,0,0-.1c0,.19.08.33.24.38h.13c0,.08,0,.12,0,.15ZM338,210v.07h0v0s0,0,0,0a.14.14,0,0,1,0,.07l0,0-.05,0a.45.45,0,0,0,0-.08l0,0,0-.06s0,0-.05-.05l-.05,0-.16-.05a.38.38,0,0,0,0-.14v0c0-.14,0-.24.09-.28v-.08c0,.18.07.32.23.37h0l.05,0H338V210Zm-.68,1.49v.08s0,0,0,.06l0,0,0,0,0-.07s0,0,0-.05l0-.06-.05-.06-.05,0a.3.3,0,0,0-.16,0v-.15h0s0-.05,0-.14a.17.17,0,0,1,.1-.13v-.1a.4.4,0,0,0,.22.4h.09l0,0c0,.1,0,.14,0,.15h0v.08Zm-.36.2h0l0,0,0,0h0l.06,0A0,0,0,0,0,336.94,211.69Zm.68-1.43v0a.1.1,0,0,1-.06-.05h0l.06,0Zm-.1.25h.13v.24h0v.07s0,0,0,.08,0,0,0,0,0,0-.05,0a.45.45,0,0,0,0-.08s0,0,0,0l0-.06-.05-.05-.06,0a.27.27,0,0,0-.15-.05.46.46,0,0,0,0-.15h0s0-.05,0-.14a.14.14,0,0,1,.1-.13.51.51,0,0,0,0-.1C337.31,210.31,337.36,210.45,337.52,210.51Zm-.23.47a.09.09,0,0,1-.06,0v0a.1.1,0,0,1,.06.05Zm1-2.14-.06,0v0l.06.05Zm-.32.7v0a.1.1,0,0,1-.05,0h0Zm1.64-4.39h0l0,0Zm-.24.75h0l-.06,0s0,0,0,0A.09.09,0,0,1,339.34,205.9Zm-.24.74h0l0,0Zm-.21,1.16v.1h0V208a.14.14,0,0,1,0,.06.08.08,0,0,1,0,.05l0,0a.15.15,0,0,1,0-.07l0-.05a.1.1,0,0,0,0,0l-.06-.06-.05,0a.47.47,0,0,0-.16,0,.88.88,0,0,0,0-.15h0c0-.14,0-.24.07-.29s0,0,0-.2c0,0,0,.11,0,.16a.37.37,0,0,0,.24.32h0s0,0,.12,0S338.89,207.78,338.89,207.8Zm-.34.3v0h0s0,0,0-.05Zm.28-.72h0s0,0-.05,0v0Zm.34-.3v.08h0v.07s0,0,0,.05,0,.07-.08.08a.39.39,0,0,0,0-.06l0-.06,0-.05-.06-.05-.06,0a.42.42,0,0,0-.16,0,.58.58,0,0,0,0-.14v0h0s0,0,0-.14a.16.16,0,0,1,.09-.15.83.83,0,0,1,0-.17.59.59,0,0,1,0,.13.38.38,0,0,0,.37.34h0c0,.07,0,.12,0,.14Zm.26-.74v.07h0v.08a.07.07,0,0,1,0,.06l0,0,0,0a.15.15,0,0,0,0-.06l0-.06,0-.05-.06,0-.06,0a.29.29,0,0,0-.16,0c0-.08,0-.13,0-.15h0s0,0,0-.14a.12.12,0,0,1,.08-.14,1.07,1.07,0,0,1,0-.17s0,.08,0,.13a.4.4,0,0,0,.26.31h0c.05,0,0,0,.12,0s0,.11,0,.14Zm.24-.75v.08h0v.08s0,0,0,0a.13.13,0,0,1-.07.09s0,0,0-.06l0-.05,0,0-.06-.05-.06,0a.32.32,0,0,0-.17,0,.49.49,0,0,0,0-.14v0h0s0-.05,0-.13a.15.15,0,0,1,.07-.15s0,0,0-.14a.44.44,0,0,0,0,.1.36.36,0,0,0,.38.31h0c0,.07,0,.12,0,.14Zm.12-1.2v0l-.06,0v0Zm.2-.76v0s-.05,0-.06,0h0Zm.18-.75h0s0,0,0,0Zm.14-.77h0l-.06,0v0A.07.07,0,0,1,340.31,202.11Zm.14-.76h0s0,0-.06,0h0a.07.07,0,0,1,.06,0Zm.09-.78h0l-.06,0,0,0A.12.12,0,0,1,340.54,200.57Zm0-.8h-.06l0,0Zm-4.4,13.29s-.05,0-.06-.05v0a.09.09,0,0,1,.06,0A0,0,0,0,0,336.19,213.06Zm.38-.25v.08h0v0s0,0,0,0a.09.09,0,0,1,0,.07l0,0-.05,0a.41.41,0,0,0,0-.07.14.14,0,0,0,0-.06l0-.06-.05-.06-.05,0a.47.47,0,0,0-.15-.06.68.68,0,0,0,0-.15h0c0-.15,0-.24.12-.28s0,0,0-.12c0,.21,0,.36.2.43h0l.05,0h0a1,1,0,0,0,0,.14Zm0-.44s-.05,0-.06-.05h0a.1.1,0,0,1,.05,0S336.56,212.37,336.57,212.37Zm-.78,1.37h0l0,0s0,0,0,0,0,0,0,.05A0,0,0,0,1,335.79,213.74Zm-.42.63v0s0,0-.05-.06h0A.1.1,0,0,1,335.37,214.37Zm-.43.66v0a.12.12,0,0,1-.05-.05v0A.12.12,0,0,1,334.94,215Zm-.45.65h0a.08.08,0,0,1-.05-.05h0A.1.1,0,0,1,334.49,215.68Zm-.46.65a.11.11,0,0,1,0-.08l0,.06Zm-.49.61,0,0h0a.08.08,0,0,1,0,0l0,0S333.54,216.93,333.54,216.94Zm-.5.59h0a.13.13,0,0,1,0-.06h0l0,0Zm-.53.56v0l0,0v0s0,0,0,0Zm-.58.51,0,.05s0,0,0,0l0,0a0,0,0,0,1,0,0h0Zm-1.78,1.52a.13.13,0,0,1,0,.08.09.09,0,0,1,0-.06Zm.62-.43v0s0,0,0,0v0h0l0,0Zm.59-.55a.13.13,0,0,1,0,.06v0l0,0v0h0Zm-2.74,2.25,0,0-.05.06h0l0,0-.06,0h-.1s0,0,0-.07,0,0,0-.06v-.14s0,0,0-.06a.42.42,0,0,0-.09-.14l0-.06.05-.06h0c.08-.11.12-.2.23-.17l.07-.09a.42.42,0,0,0-.07.47h0s0,0,0,0l0,0,0,0Zm.21-.4a0,0,0,0,1,0,0,.14.14,0,0,1,0,.07h0s0,0,0,0Zm-.71.36s0,0,0,0a.07.07,0,0,1,0,.06,0,0,0,0,1,0,0s0,0,0,0Zm1.39-.74s0,0,0,0a.14.14,0,0,1,0,.06v0l0,0Zm.47,0-.08.14a.16.16,0,0,1-.08.06h0s0,0-.06,0a.64.64,0,0,0,0-.07.2.2,0,0,0,0-.07v-.06a.24.24,0,0,0,0-.08s0,0,0-.06a.33.33,0,0,0-.11-.13l.08-.12h0a1.07,1.07,0,0,1,.06-.12.15.15,0,0,1,.15-.07l.05-.09c-.08.18-.11.33,0,.46h0l0,0,0,0,0,0-.07.13Zm.65-.46-.07.12h0a.12.12,0,0,1-.06.06h-.09a.31.31,0,0,0,0-.13.32.32,0,0,0-.18-.32l.07-.13h0l.06-.12a.13.13,0,0,1,.14-.08l.05-.1c-.08.19-.1.34,0,.46h0l0,0,0,0,0,0-.07.13Zm3.33-3.37,0,.07h0v0a0,0,0,0,0,0,0s0,0,0,.06l0,0h-.05v-.07s0,0,0-.06l0-.06a.16.16,0,0,0,0-.07l0-.05a.29.29,0,0,0-.14-.08.9.9,0,0,0,0-.15h0c0-.14,0-.24.15-.26s0,0,0-.11c0,.2,0,.36.14.45h0l0,0,0,0h0c0,.08,0,.12,0,.14Zm.48-.63v.07h0v.08a.15.15,0,0,1-.05.06l0,0h0a.23.23,0,0,0,0-.07s0,0,0-.06a.36.36,0,0,0,0-.07.21.21,0,0,0,0-.06l0-.05A.53.53,0,0,0,334,216a1.2,1.2,0,0,0,0-.14v0c0-.13,0-.24.14-.26s0,0,0-.1c0,.19,0,.35.15.44h0l.05,0,0,0,0,0c0,.07,0,.11,0,.14Zm.46-.64v.07h0v.08s0,0,0,.06l0,0h-.06v-.07s0,0,0-.06a.14.14,0,0,0,0-.06s0-.05,0-.06a.1.1,0,0,0,0-.05.31.31,0,0,0-.15-.08c0-.08,0-.13,0-.14v0c0-.14,0-.24.14-.26a.66.66,0,0,1,0-.11c0,.2,0,.35.16.44h0l0,0,.05,0h0a.71.71,0,0,1,0,.14Zm.44-.66v.08h0V215a.16.16,0,0,1,0,.07l0,0h-.06a.23.23,0,0,0,0-.07s0,0,0-.06l0-.06,0-.06,0-.05a.51.51,0,0,0-.15-.07c0-.09,0-.12,0-.14v0h0s0-.05,0-.13a.14.14,0,0,1,.11-.13.67.67,0,0,1,0-.1.4.4,0,0,0,.17.43h0l0,0h0l0,0a1,1,0,0,0,0,.14Zm.43-.66c0,.05,0,.08,0,.11v0a.16.16,0,0,1,0,.07s0,0,0,0l-.06,0a.23.23,0,0,0,0-.07s0,0,0-.06l0-.06-.05-.06,0,0a.26.26,0,0,0-.15-.07c0-.09,0-.13,0-.15h0c0-.15,0-.25.12-.27a1.25,1.25,0,0,1,0-.14c0,.22,0,.38.18.46h0l.06,0h0a1.14,1.14,0,0,0,0,.15Zm.4-.68v.08h0v.08s0,0,0,0a.08.08,0,0,1,0,0l0,0a.56.56,0,0,1,0-.07.14.14,0,0,1,0-.06l0-.06-.05-.06-.05,0a.51.51,0,0,0-.15-.07,1.13,1.13,0,0,1,0-.14v0c0-.15,0-.24.11-.27a.66.66,0,0,1,0-.11c0,.2,0,.35.19.42h.05l0,0h0a1,1,0,0,0,0,.14Zm.77-1.37v.07h0v.08a.09.09,0,0,1,0,.07l0,0-.05,0,0-.07a.14.14,0,0,0,0-.06l0-.06s0,0-.05,0l0,0a.31.31,0,0,0-.16-.06,1.42,1.42,0,0,1,0-.15h0v-.14a.15.15,0,0,1,.1-.13v-.14c0,.22,0,.37.21.45h0l.06,0h0a1.47,1.47,0,0,0,0,.16Zm3-7.29c0,.07,0,.11,0,.14v0a.07.07,0,0,1,0,.06.13.13,0,0,1,0,0l0,0a.16.16,0,0,1,0-.06.1.1,0,0,0,0-.05l0,0-.06-.05-.06,0a.51.51,0,0,0-.17,0l0-.15c0-.14-.06-.24.05-.3s0,0,0-.11c.05.2.12.34.3.37h.13c0,.08,0,.12,0,.14Zm.21-.76a1,1,0,0,0,0,.12v0s0,0,0,.05a.15.15,0,0,1-.06.09l0-.06a.1.1,0,0,0,0-.05l0-.05-.07,0a.05.05,0,0,0-.05,0,.33.33,0,0,0-.17,0,.51.51,0,0,0,0-.15h0v0s0,0,0-.11a.15.15,0,0,1,.07-.15.91.91,0,0,1,0-.12c.05.2.13.33.31.36h.13c0,.08,0,.13,0,.14Zm.18-.76,0,.07h0v0s0,0,0,0v0a.13.13,0,0,1-.07.09l0-.06,0,0s0,0-.05-.05l-.07-.05-.06,0a.29.29,0,0,0-.16,0,.93.93,0,0,0,0-.14h0l0-.14a.13.13,0,0,1,.06-.15.65.65,0,0,0,0-.1.14.14,0,0,1,0,.06.38.38,0,0,0,.43.29.49.49,0,0,0,0,.13Zm.17-.78,0,.08h0v0h0v0s0,0,0,.06a.07.07,0,0,1,0,.06l0,0a.17.17,0,0,0,0-.07l0,0-.05,0-.07,0-.06,0a.43.43,0,0,0-.16,0,1.19,1.19,0,0,1,0-.14h0a.63.63,0,0,0,0-.13.17.17,0,0,1,.06-.16s0,0,0-.11c.06.2.14.33.32.34h.13c0,.08,0,.12,0,.14Zm.14-.77a.3.3,0,0,1,0,.11v0a.09.09,0,0,1,0,0,.11.11,0,0,1-.06.09.09.09,0,0,0,0,0l0-.05s0,0-.05-.05l-.07,0a.11.11,0,0,0-.06,0,.29.29,0,0,0-.16,0,1.11,1.11,0,0,0,0-.13v0c0-.13-.09-.23,0-.3l0-.11c.07.19.16.32.34.33h.13a1.11,1.11,0,0,0,0,.13Zm.13-.72h0v.08a.12.12,0,0,1,0,.08v0s0,0-.05.05,0,0,0-.07,0,0,0,0a.1.1,0,0,0-.05,0l-.07,0-.06,0h-.17l0,.05h0a1,1,0,0,0,0-.1.54.54,0,0,0,0-.1v0a.53.53,0,0,1,0-.11.15.15,0,0,1,0-.16l0-.09c.08.17.18.29.35.29h.13a1.31,1.31,0,0,1,.05.15Zm0-.86,0,.07h0l0,0v0a.14.14,0,0,1,0,.09v0a.12.12,0,0,1-.05,0h0v0a.2.2,0,0,0-.06-.07.33.33,0,0,0-.36-.09l0,.05h0l0-.09a.76.76,0,0,0,0-.11h0l0-.13a.16.16,0,0,1,0-.16l0,0h0a.34.34,0,0,0,.32.23h0a.48.48,0,0,0,.12,0,.7.7,0,0,0,0,.13Zm-.21-4Zm-.21-.78Zm-21.62,24.66Zm.64.5Zm13.74-2.46Zm5.44-26.32Zm-.57-.59h0ZM314.5,215.33h0Zm.46.65Zm.47.64h0Zm.5.62Zm1.05,1.21Zm.56.57h0Zm.59.55Zm2.63,1.88h0Zm9.36-.65h0Zm1.28-1Zm1.17-1.1Zm1.58-1.8Zm3.37-5.38Zm1.6-3.62Zm1-3Z"></path></g><path class="cls-46" d="M352,182.63c-3.5,16.25-13,28.16-26.55,28.16s-25.08-12-28.55-28.28l0,0a3.39,3.39,0,0,1-2,1.14,4.39,4.39,0,0,1-4.06-2.21,15.06,15.06,0,0,1-2.26-8.07c.13-2.54,1.46-4,2.88-4.08s2.92,1.4,3.84,2.52c.13.16.24.31.35.46.56,1.44.95,2.29,1.25,3.14.43,1.2.71,2.39,1,1.36s.61-4.28,1.44-7.66,2.15-6.9,4.87-7.93,6.83.43,11.47,1.92,9.81,3,15.14,2.9,10.81-1.78,11.52-2.45-3.36-.29-6.72-1.05-6-2.63-4.76-2.95,6.43.92,10.32,2,6.49,2,8.6,4.1c4.71,4.71,3,10.71,2.28,16.89Z"></path><path class="cls-51" d="M337,219.13h0a14.49,14.49,0,0,1-24.33,0h-2.64l-.59,68.45h27l4.2-44.57Z"></path><path class="cls-46" d="M369.89,167.8c-.69-1.53-1.4-4.23-2.75-7.29a33.21,33.21,0,0,0-5.54-8.78c-2.17-2.31-4.52-3.52-6.71-3.35s-4.23,1.72-4.63,2.86.86,1.9,2.09,3a18.11,18.11,0,0,1,3.23,4c.81,1.39,1.22,2.65,1,3.14s-1.21.23-2-.75-1.51-2.65-2.14-3.15-1.18.16-1.18,1.45a8.24,8.24,0,0,0,1.66,4.61,12.35,12.35,0,0,0,4.13,3,12.7,12.7,0,0,1,3.64,2.42c1,1,1.66,2.51,3.5,2.75a12.36,12.36,0,0,0,6-1.43C371.27,169.69,370.59,169.33,369.89,167.8Z"></path><rect class="cls-52" x="363.18" y="169.49" width="9.8" height="5.85" transform="translate(-37.93 191.61) rotate(-27.81)"></rect><path class="cls-53" d="M354,218.09c-5.12-.42-11.09-1.26-14.63-1.68s-2.85.77-1.85,1.25,2.12,7.71,2.47,11.74-2.4,7.83,2.27,8.69,11.07-.33,18.65-1.59,13.94-2.56,17.76-4.53a11.24,11.24,0,0,0,4.33-3.69,6.87,6.87,0,0,0,1.53-2.1c4.88-10.07,4.06-28-10.46-57.57l-11.2,6C371.07,193,382.17,220.39,354,218.09Z"></path><path class="cls-54" d="M317.82,214.49s-2.42,9.25-3,25.32.71,51.41.71,51.41l-20-5.93,7.77-13.73-6-27,1-16.49s-4.54-6.92.06-9.21C302.14,216.94,308.21,215.07,317.82,214.49Z"></path><path class="cls-54" d="M331.72,214.82s1.73,9.41,1.14,25.47-4.47,51.22-4.47,51.22l20.4-4.44-6.74-14.26,14.19-47.23S352.9,217.67,331.72,214.82Z"></path><path class="cls-55" d="M317.82,214.49l-11.4,6.8-.28,15.3,6.21,1.55-6.28,2.15c-.19,10.12-2.53,12.55,9.13,18.52Z"></path><path class="cls-55" d="M331.72,214.71l10.59,6.54-1,15.7L335,238.24l6.07,2.41c-.71,10.1.71,12.68-11.46,18.16Z"></path><path class="cls-38" d="M338.45,193.84s-.95,2.34-8.38,2.52A27.52,27.52,0,0,1,318,194.2s3.27,8.5,12.68,8.05C337.84,201.91,338.45,193.84,338.45,193.84Z"></path><path class="cls-56" d="M331.29,182.09s2.46,3,2.31,4.46-3.43,2.23-3.43,2.23,4-.16,4.86-1.52C335.72,186.19,331.29,182.09,331.29,182.09Z"></path><path class="cls-56" d="M338,173c-.62,1-.68,5.69,0,5s3-2.27,4.33-2.39a6.52,6.52,0,0,1,3.09.92L347,174.8s1.85-2.2,1.63-2.58C347.73,170.6,339.37,170.81,338,173Z"></path><path class="cls-57" d="M339.08,177.75a3.11,3.11,0,1,0,3.48-2.33A3,3,0,0,0,339.08,177.75Z"></path><path class="cls-58" d="M348.76,172.34a14.21,14.21,0,0,0-6.2-.77,26.88,26.88,0,0,0-4.56,1.62.91.91,0,0,1-.08-1.43C338.66,170.89,346.46,168.37,348.76,172.34Z"></path><path class="cls-57" d="M337.7,178.32s1.72-2.75,4.51-3.13,4,2.35,4,2.35a6,6,0,0,0-4.57-.88A9.63,9.63,0,0,0,337.7,178.32Z"></path><path class="cls-38" d="M342.74,177.08a.68.68,0,1,0,.76-.51A.65.65,0,0,0,342.74,177.08Z"></path><path class="cls-56" d="M320.25,171.39c5.52-.1,5.12.15,5.29,1s-1,5.72-1,5.72-2-2.21-4.15-2.36a8.6,8.6,0,0,0-5.37,1.7s-3-4.41-3-5.8C312,171.2,320.25,171.39,320.25,171.39Z"></path><path class="cls-58" d="M311.77,171.76s4.82-2.23,9.1-1.69c3.72.48,4.41.68,4.57,1.32s.52,1.81-.64,1.26S315.52,170.86,311.77,171.76Z"></path><path class="cls-57" d="M324.79,178.34a6.62,6.62,0,0,0-5.08-2.68,7,7,0,0,0-5.56,2.47,8.85,8.85,0,0,1,5.63-1.19A13.71,13.71,0,0,1,324.79,178.34Z"></path><path class="cls-57" d="M323.17,178.88a3.13,3.13,0,1,1-3.25-2.68A3,3,0,0,1,323.17,178.88Z"></path><path class="cls-38" d="M320.72,177.75a.69.69,0,1,0,.65-.65A.65.65,0,0,0,320.72,177.75Z"></path><path class="cls-56" d="M315,194.46a3.77,3.77,0,0,1-.23-1.82A2.29,2.29,0,0,1,316,191a2.88,2.88,0,0,1,2-.19,3.72,3.72,0,0,1,1.62.82c-.61.08-1.17.09-1.7.14a3.82,3.82,0,0,0-1.34.32,2,2,0,0,0-.86.88,6,6,0,0,0-.31.72A3.47,3.47,0,0,1,315,194.46Z"></path><path class="cls-47" d="M332.88,173a9.06,9.06,0,0,0-.25,1.38,6.66,6.66,0,0,0-2.05-.32,6.77,6.77,0,0,0-1.7.22c-.06-.44-.14-.86-.24-1.28H290v2.17H307.9v.57H309a10,10,0,0,0,20,.35,4.85,4.85,0,0,1,3.67.15,10,10,0,0,0,20-.5h1.1V173H332.88Zm1.62,1.42h16.13a7.08,7.08,0,0,1,.26,1.9c0,4.27-3.73,7.73-8.32,7.73s-8.32-3.46-8.32-7.73a7.5,7.5,0,0,1,.25-1.9Zm-23.75,0h16.12a7.08,7.08,0,0,1,.26,1.9c0,4.27-3.72,7.73-8.32,7.73s-8.31-3.46-8.31-7.73A7.08,7.08,0,0,1,310.75,174.39Z"></path><path class="cls-46" d="M290.81,181.48a15.06,15.06,0,0,1-2.26-8.07c.13-2.54,1.46-4,2.88-4.08s2.92,1.4,3.84,2.52c.13.16.24.31.35.46.56,1.44.95,2.29,1.25,3.14.43,1.2.71,2.39,1,1.36"></path><path class="cls-59" d="M399,198.68l-28,54.43a1.87,1.87,0,0,0,1.24,2.53h0a3,3,0,0,0,3.71-1.07L402,200.33Z"></path><path class="cls-60" d="M416.6,199.2l-.65-.26.52-.51c.5-.64,1-1.3,1.49-2,1.1.06,2.2.11,3.33.09-.67-.25-1.34-.48-2-.69l-.66-.25c.8-1.07,1.59-2.15,2.36-3.24.63.1,1.26.19,1.91.26-.51-.27-1-.53-1.55-.78.39-.55.78-1.1,1.16-1.66l1.36-2c.54.23,1.09.46,1.63.71a15,15,0,0,0-1.28-1.24c.66-1,1.31-2,1.94-3.06.24-.39.46-.78.7-1.17l0,0c.69.28,1.38.55,2.09.81-.54-.53-1.12-1-1.71-1.51l.6-1c.38-1,.79-2,1.11-2.94-.73.92-1.39,1.84-2.1,2.74l-.36.6-.85-.66c-.42-.22-.86-.41-1.29-.62l1.88-3.47c.27-.51.56-1,.83-1.51l1.5.35c-.39-.32-.79-.61-1.2-.89.39-.72.78-1.44,1.18-2.16l.95-2.14L430,170a1.46,1.46,0,0,0,.19-.59c0-.1-.12-.2-.25-.05s-.15.28,0,.2c-.11,0,0-.13.06-.15s0,0,0,.08a2.71,2.71,0,0,1-.29.45l-.74,1L427.54,173l-.16.3a14.2,14.2,0,0,0-1.45-1.81c.45-1.17.9-2.35,1.31-3.52.16.09.34.16.5.25,1.06.33,2.06.75,3.1,1.13a19.86,19.86,0,0,0-2.18-2.31c-.93-.53-1.88-1-2.87-1.47-.13-.07-.27-.12-.4-.18.39-.86.78-1.73,1.15-2.6-.57.8-1.12,1.59-1.65,2.39-1.06-.45-2.13-.88-3.22-1.27.61-1.63,1.24-3.24,1.77-4.85-.9,1.51-1.76,3-2.65,4.53l-1.12-.4-.89-.29,1.85-3.84c-.9,1.19-1.74,2.4-2.58,3.61-.85-.28-1.7-.55-2.56-.81.74-1.6,1.51-3.19,2.21-4.8-1.07,1.5-2.07,3-3.09,4.52l-1.28-.39-1.06-.33c.57-1.35,1.16-2.69,1.69-4-.86,1.26-1.66,2.53-2.48,3.8l-.32-.1,1.36-2.33-.95-.26c-.5.75-1,1.51-1.49,2.27L407.9,160c.21-.44.41-.88.61-1.32l-1,1.29c-.32,0-.64-.07-1-.08.23.15.48.28.72.43l-1.73,2.38-.45.78c-.34,0-.69-.08-1-.1.05-.13.11-.26.16-.4l-.34.39a11.09,11.09,0,0,0-1.62,0c.41.14.79.31,1.18.48-.44.51-.87,1-1.31,1.55l-.85,1.35c-.63-.06-1.26-.12-1.91-.15.5.27,1,.52,1.53.76l-.4.64L399,170.43l-.07,0c-.7-.27-1.4-.53-2.12-.77.55.53,1.15,1,1.76,1.5l-1.3,2.08-1.46,2.32c-.86-.45-1.71-.92-2.58-1.38a22,22,0,0,0,2,2.29l-1.23,2-.39.61c-.48-.31-1-.61-1.49-.89.35.51.73,1,1.13,1.48l-.88,1.4c-.4.89-.79,1.78-1.12,2.68l-.39-.2a27.19,27.19,0,0,0,2.06,2.36l-.93,1.83c-.51,1.41-1.06,2.82-1.52,4.22.89-1.38,1.71-2.76,2.58-4.14l.59-1.17c.37.26.76.5,1.13.75-.52,1.21-1,2.43-1.49,3.64-.44-.14-.88-.28-1.33-.4.34.38.69.73,1.06,1.07-.1.26-.22.52-.32.78.12-.23.26-.46.4-.7l1.14,1,.22.11c-.3.69-.59,1.38-.86,2.07.43-.62.83-1.25,1.24-1.88.75.39,1.49.77,2.26,1.13l.06,0c-.43,1-.85,2.06-1.23,3.08.6-.94,1.19-1.89,1.77-2.84,1,.43,1.91.85,2.89,1.23-.39.72-.78,1.44-1.2,2.17.57-.65,1.11-1.32,1.63-2l1.58.59c-.34.65-.69,1.3-1,1.95.48-.6.94-1.2,1.39-1.8l.14,0c1.11.39,2.25.74,3.4,1.08-.46,1-.91,2-1.33,3,.66-.94,1.3-1.88,1.93-2.82.6.17,1.21.34,1.82.49-.69,1.22-1.4,2.43-2.07,3.66,1-1.13,1.95-2.29,2.9-3.45l1.6.35c-.7.91-1.42,1.82-2.17,2.73a37.13,37.13,0,0,0,3-2.56l.68.15h2c-.32.53-.64,1.05-.95,1.59.6-.52,1.17-1.06,1.73-1.61Zm7.26-25.78L422,172.7l-.43-.16.1-.19.7-1.23a20.51,20.51,0,0,1,2.07,1.12C424.27,172.63,424.06,173,423.86,173.42Zm-18.46-8.56q.69.25,1.35.54l-1.3,2.12-1.37-.38.08-.14Zm-2,3.56,1.32.36c-.63,1.05-1.26,2.1-1.87,3.16l-1.12-.52Zm-6.74,12.4,1.24-2.36c.32.2.65.38,1,.56-.44.82-.87,1.64-1.3,2.46l-.07,0Zm7.57,10.06c.46-.88.9-1.75,1.34-2.63.11-.22.21-.44.32-.67l0,0c.5.21,1,.4,1.52.6l-.21.36c-.59,1-1.18,1.92-1.78,2.88l-.26-.11C404.83,191.19,404.52,191,404.2,190.88Zm8,2.46-.28.42c-.65-.19-1.31-.4-1.95-.61l1-1.84.82-1.44,2.12.74C413.38,191.52,412.81,192.44,412.22,193.34Zm2.53-4-2.2-.77,2.13-3.79c.8.25,1.62.48,2.4.74Q415.94,187.47,414.75,189.37Zm-8-20-1.89,3.55c-.24-.1-.47-.22-.7-.33.65-1.13,1.31-2.26,2-3.39l.41.11Zm-8,12.88c.45-.84.91-1.68,1.38-2.51l.89.44-1.39,2.61-.34-.19Zm7.81,4c.54-1.12,1.09-2.25,1.64-3.37l.22.07,1.83.52c-.67,1.16-1.35,2.31-2,3.46-.46-.19-.94-.36-1.4-.56Zm6.89-8.45-.53,1c-.64,1.15-1.3,2.3-2,3.44-.58-.16-1.17-.33-1.75-.51l-.37-.11c.51-1,1-2.07,1.55-3.1.26-.52.54-1,.81-1.55l1.38.53Zm-2.49-2.5-2.35-.91q1.06-2,2.15-3.9l2.4.7Q412,173.26,410.9,175.31Zm-.68,1.29-.94,1.8c-.49,1-1,1.93-1.44,2.9-.86-.28-1.71-.57-2.54-.88.57-1.07,1.13-2.14,1.71-3.21l.84-1.53Zm-6.82-2.77c.25.11.49.24.75.35l-.88,1.63-1.61,3c-.27-.13-.55-.25-.82-.39l0,0c.58-1,1.17-2.08,1.76-3.11Zm1.65.71c.63.27,1.26.52,1.9.78l-1,1.74c-.54,1-1.06,2-1.6,3-.63-.25-1.25-.52-1.86-.8l1.77-3.32Zm.56,11.31c-.86-.39-1.73-.77-2.57-1.19.52-1,1-2,1.58-3,.84.32,1.71.61,2.58.89C406.66,183.68,406.13,184.76,405.61,185.85Zm-3.42-1.65c-.6-.31-1.19-.65-1.78-1l1.42-2.66c.62.28,1.24.54,1.88.8C403.2,182.3,402.69,183.25,402.19,184.2Zm5.49-14.59,2.07.61c-.7,1.27-1.4,2.54-2.09,3.82l-1.93-.79Zm.68-1.27,1-1.84c.67.27,1.35.53,2,.77l-.92,1.68C409.75,168.75,409.06,168.53,408.36,168.34Zm3.94-.76,2.37.76-.17.3-.71,1.29-2.39-.7Zm3.31,1,2.27.72c-.27.54-.56,1.08-.84,1.61l-2.28-.74h0c.26-.47.51-.94.77-1.4A1.62,1.62,0,0,1,415.61,168.63Zm.76,3.61q-1.12,2.14-2.29,4.29l-.72-.28-1.55-.59c.73-1.39,1.48-2.79,2.23-4.18Zm.94.31c.89.3,1.77.62,2.65.94l-2.45,4.35c-.84-.33-1.68-.64-2.52-1C415.78,175.44,416.55,174,417.31,172.55Zm-.52,6.57-1.43,2.54-.9,1.59-2.61-.75c.68-1.19,1.36-2.37,2-3.56l.42-.78C415.13,178.48,416,178.79,416.79,179.12Zm-3.05,5.41-2.11,3.74c-.87-.31-1.72-.64-2.58-1,.7-1.18,1.4-2.35,2.09-3.53C412,184,412.88,184.27,413.74,184.53Zm-4.69,8.32c-.92-.32-1.82-.7-2.73-1.06.62-1,1.24-2,1.85-3l.13-.24c.87.34,1.74.68,2.62,1l-.89,1.58Zm-5.73-2.38c-.89-.42-1.78-.86-2.64-1.32l1-1.89.7-1.3c.86.42,1.74.82,2.62,1.21-.16.34-.33.68-.49,1C404.1,189,403.72,189.71,403.32,190.47Zm-3.49-1.8c-.6-.33-1.21-.65-1.79-1l1.17-2.19.5-.95c.59.33,1.18.67,1.78,1l-.87,1.64Zm-2.61-1.53-1-.66,1.55-2.61.19-.34.33.21c.18.11.39.21.58.32l-.68,1.27Zm1.36-10c.33-.61.64-1.23,1-1.85.46-.85,1-1.71,1.43-2.56l1.1.5c-.34.61-.7,1.21-1,1.81-.5.89-1,1.79-1.47,2.69C399.23,177.53,398.9,177.33,398.58,177.13Zm9.4-11.19.46.2-.08.15-.95,1.77-.1,0-.47-.13Zm3.67-3.78.88.27,1.33.41L412.09,166c-.7-.24-1.38-.5-2.06-.78Zm3.15,1,2.4.76c-.61,1.06-1.21,2.12-1.81,3.18l-2.38-.76Zm3.34,1.06.72.24,1.26.45c-.53,1.06-1.05,2.12-1.59,3.18l-2.2-.7C416.93,166.31,417.52,165.25,418.14,164.19Zm.67,5.48c.93.32,1.84.66,2.71,1l-.83,1.48v0c-.9-.32-1.79-.64-2.7-.94Zm4.37,5-.66,1.27q-.87,1.61-1.77,3.21l-2.35-1,2.48-4.4.31.12C421.86,174.18,422.52,174.45,423.18,174.71ZM420,180.47q-1.08,1.92-2.21,3.82c-.8-.27-1.61-.52-2.42-.76l.95-1.7,1.32-2.34Zm.89.38c.63.28,1.24.59,1.86.88-.67,1.23-1.35,2.45-2.05,3.67-.66-.28-1.32-.54-2-.78C419.49,183.37,420.22,182.11,420.93,180.85Zm-.93,5.82c-.73,1.23-1.48,2.45-2.26,3.65l-2.06-.65q1.17-1.89,2.31-3.79C418.67,186.13,419.34,186.39,420,186.67Zm-3.07,4.89c-.52.77-1,1.53-1.59,2.28l-.53.7c-.57-.14-1.16-.26-1.72-.42l-.22-.06.28-.42c.59-.9,1.16-1.82,1.74-2.73Zm-3,4.2c-.52.66-1.05,1.31-1.6,1.94h0l-1.6-.35,1.37-2.07.26.08C412.83,195.51,413.36,195.63,413.89,195.76Zm-5.94.89.4-.59.93-1.64c.6.2,1.22.39,1.84.58l-1.42,2.12Zm-4.06-1.26,1.27-1.71.39-.64c.92.37,1.84.75,2.79,1.08l-1,1.74c-.08.19-.17.37-.25.56-1.07-.31-2.13-.65-3.17-1Zm-2-.75c.35-.48.69-1,1-1.46l.55-1,.79.37.36.14-.44.72-.92,1.75Zm-3.44-1.45.55-.89.95-1.83c.86.45,1.74.88,2.63,1.29-.22.41-.44.82-.67,1.23s-.46.93-.69,1.4C400.32,194,399.4,193.61,398.49,193.19Zm-2.82-1.39c.33-.52.66-1,1-1.56l.67-1.26c.59.35,1.2.68,1.8,1L398,192.2l-.27.64C397,192.51,396.34,192.16,395.67,191.8Zm-2.15-.76c.14-.24.29-.47.44-.73l1.27-2.17.22-.37,1.06.7-.87,1.62-.6,1.42Zm.81-5.78.84-1.66c.24-.48.5-.95.75-1.43l.6.43.33.21-.46.89c-.34.75-.66,1.49-1,2.24-.28-.2-.58-.37-.86-.57Zm-.42-4.89c.3.34.59.68.9,1l.31.23c-.33.63-.67,1.26-1,1.89l-.67,1.32-.75-.38c-.46-.26-.95-.5-1.43-.74.73-.81,1.41-1.63,2.08-2.45Zm2-3.24c.08.08.15.17.23.24l.89.57c-.41.77-.81,1.54-1.21,2.31l0,0-1.34-.74.52-.83Zm3.39-5.43.79.6c-.52.95-1.07,1.89-1.58,2.84-.26.49-.51,1-.77,1.46-.21-.13-.42-.26-.62-.4s-.32-.16-.48-.24l1.56-2.49Zm2.45-3.92.68.32c-.56,1-1.09,2-1.64,2.94l-.89-.3,1.54-2.45Zm2.79-3.38-1.4,2.42-.07.13-.75-.08.74-1.18c.23-.56.48-1.13.72-1.69C404.06,164.12,404.31,164.27,404.56,164.4Zm4.72-3q-.88,1.37-1.74,2.73l-1.34-.55h-.06l.41-.71c.36-.79.74-1.58,1.11-2.37Zm1.14.37.29.09-1.58,3-.4-.17C409.29,163.71,409.85,162.75,410.42,161.79Zm13.64,4.63c-.24.34-.47.69-.7,1l-1.12,2c-.9-.38-1.83-.73-2.77-1.06.53-1.05,1-2.11,1.57-3.16C422.07,165.58,423.07,166,424.06,166.42Zm3,1.47c-.63,1-1.25,2-1.88,3.05-.67-.4-1.37-.77-2.09-1.11l1.26-2.22c.13-.3.27-.59.4-.89l.14.06C425.67,167.12,426.38,167.51,427.09,167.89Zm-.52,6.88-1-.68-.81-.32.59-1.11a19.05,19.05,0,0,1,1.87.92Zm-3.08,5.67c-.61-.29-1.21-.6-1.83-.87h0c.64-1.15,1.27-2.29,1.89-3.44.19-.35.36-.7.55-1.05l.62.24c.47.1.93.22,1.39.33l-.88,1.6Zm0,6.59c-.43-.34-.85-.68-1.3-1-.18-.09-.37-.16-.56-.24.7-1.22,1.37-2.43,2-3.64l1.09.52,1.18.42-.75,1.24C424.63,185.23,424.06,186.13,423.48,187Zm-3,4.42-1.44-.71-.38-.12c.77-1.18,1.5-2.37,2.21-3.56.13.06.28.11.41.18.57.17,1.12.38,1.66.58-.45.69-.9,1.37-1.36,2.05C421.23,190.4,420.86,190.92,420.49,191.45Zm-2.79,3.85-.41-.15c-.51-.11-1-.25-1.51-.37l.42-.54c.57-.79,1.12-1.58,1.66-2.38l.39.13,1.68.25c-.73,1-1.46,2-2.22,3.06Zm-2.46,3.36c-.56-.22-1.13-.44-1.68-.67l-.26-.06c.54-.64,1.06-1.28,1.57-1.93.56.13,1.11.29,1.68.41l.29,0L415.66,198Z"></path><path class="cls-59" d="M426.16,190.92a25.91,25.91,0,0,1-10.17,10,18.09,18.09,0,0,1-17.46-.49c-12.12-6.75-11.13-18-6.16-26.28h0c4-6.71,9.11-12.07,14.31-15.09,4.85-2.83,9.6-3.62,14.1-2.38,9.81,2.72,11.84,13.41,9.62,23.46A37,37,0,0,1,426.16,190.92Zm-24.87,5.93c4.94,2.74,10.11,3,14.58.73a18.76,18.76,0,0,0,7.37-7.34c6-10,7.08-26.53-4.81-29.83a14.37,14.37,0,0,0-11.33,1.81c-4.21,2.45-8.4,6.92-11.81,12.6h0a19.57,19.57,0,0,0-2.42,5.83C391.23,188.09,395.7,193.74,401.29,196.85Z"></path><path class="cls-16" d="M377.43,236.05l7.07,2.65-4.23,9.16-6.9,15c-.65,1.58-2.93,2.39-4.95,1.75h0c-1.82-.57-2.77-2.11-2.2-3.53l6-13.37Z"></path><path class="cls-46" d="M361.25,255.1c1.67.17,4.36.91,7.69,1.27a33.19,33.19,0,0,0,10.37-.41c3.09-.73,5.31-2.15,6.26-4.13s.63-4.53-.17-5.44-2.07-.21-3.66.29a18.31,18.31,0,0,1-5.09.8c-1.6,0-2.9-.27-3.2-.75s.41-1.16,1.66-1.38,3.05,0,3.8-.26.45-1.11-.67-1.76a8.31,8.31,0,0,0-4.82-.86,12.17,12.17,0,0,0-4.7,2.05,12.78,12.78,0,0,1-3.92,1.94c-1.39.32-7.43-.05-8.56,1.42s2.67,4.81,2.67,6.14S359.58,254.94,361.25,255.1Z"></path><path class="cls-16" d="M372.22,247.67l5.21-11.62,7.07,2.65-4.23,9.16a13.72,13.72,0,0,1-5.12.6C371.66,248.38,372.22,247.67,372.22,247.67Z"></path><path class="cls-45" d="M297.09,157l.45,11.44c.12,1.9.16,3.79.31,5.68s.24,3.78.41,5.67l.23,2.82c.09.95.22,1.88.31,2.82s.19,1.88.33,2.82.23,1.88.36,2.81c.54,3.75,1.27,7.46,2,11.23a52,52,0,0,1-3.83-10.89A80.2,80.2,0,0,1,295.93,180c-.09-1-.11-1.92-.17-2.88s-.11-1.93-.11-2.89c0-1.92,0-3.85.07-5.77A70.06,70.06,0,0,1,297.09,157Z"></path><polygon class="cls-51" points="357.11 246.72 360.87 245.96 363.06 256.56 358.63 256.56 357.11 246.72"></polygon><path class="cls-53" d="M359,245.74q1.44,6.18,2.87,12.37c-84.06,16.8-73.07-41-61.09-40C316.09,219.39,298.62,255.29,359,245.74Z"></path><path class="cls-56" d="M294.28,179.19a3.51,3.51,0,0,1-1.74.05,2.18,2.18,0,0,1-1.5-1.31,2.72,2.72,0,0,1,0-1.89,3.49,3.49,0,0,1,.92-1.47c0,.59,0,1.13,0,1.63a3.94,3.94,0,0,0,.19,1.31,1.82,1.82,0,0,0,.76.89,5.58,5.58,0,0,0,.65.36A3,3,0,0,1,294.28,179.19Z"></path><path class="cls-61" d="M92.25,226.27A31.91,31.91,0,0,0,100.09,241a28.95,28.95,0,0,0-6.29-31.27A31.93,31.93,0,0,0,92.25,226.27Z"></path><path class="cls-62" d="M112.36,229.47c-1.85,8.64-9,14.67-9,14.67s-4.14-8-2.29-16.61,9-14.67,9-14.67S114.2,220.83,112.36,229.47Z"></path><path class="cls-63" d="M82.85,243a51.88,51.88,0,0,0,14.61,18.86A57.91,57.91,0,0,0,93,237.54a51.83,51.83,0,0,0-14.62-18.87A57.87,57.87,0,0,0,82.85,243Z"></path><path class="cls-63" d="M120.43,242.59A52.84,52.84,0,0,1,107,262.44a58.13,58.13,0,0,1,3-24.54A52.78,52.78,0,0,1,123.47,218,58.28,58.28,0,0,1,120.43,242.59Z"></path><path class="cls-62" d="M90.16,240.08a46.69,46.69,0,0,0,9.38,18.54,50,50,0,0,0,0-21.21,46.69,46.69,0,0,0-9.38-18.54A50,50,0,0,0,90.16,240.08Z"></path><path class="cls-62" d="M90,243.49a35.12,35.12,0,0,0,8.69,15.6,38,38,0,0,0,.65-18.28,35.05,35.05,0,0,0-8.69-15.59A38,38,0,0,0,90,243.49Z"></path><path class="cls-61" d="M100.91,242.33c-1.21,11.39,4,21.43,4,21.43a40.63,40.63,0,0,0,8.37-19.85c1.22-11.4-4-21.43-4-21.43A40.7,40.7,0,0,0,100.91,242.33Z"></path><path class="cls-63" d="M96.63,245.45a31.85,31.85,0,0,0,4.79,15.95,29,29,0,0,0,0-31.9A31.85,31.85,0,0,0,96.63,245.45Z"></path><polygon class="cls-64" points="94.28 272.23 109.81 272.23 114.76 254.11 89.33 254.11 94.28 272.23"></polygon><rect class="cls-65" x="87.57" y="251.99" width="28.96" height="5.41"></rect><path class="cls-8" d="M258.14,221s-8.66-2.14-12.81-9.3-4.07-12.84-1.86-16.36,6.59-5.47,8.5-10.58.81-9.5-3-12.16c1.85-2.43,1.26-3.9.24-4.85s-1.52-1.19-1.47-2.55.52-7.64-3.61-11.47-6.16-2.82-7.42-3.54a10.63,10.63,0,0,0-9.35-1.1c-4.82,1.62-7.24,7.61-5.91,14.26a32.31,32.31,0,0,0,4.94,11.56,8.7,8.7,0,0,0-4.44,4.52c-1.12,3.14,1.35,5.64,1.35,5.64s-1.81,3,0,5.12,3.62,1.49,3.57,2.27-4.68,2.69-4.66,8.36,3.2,8.72,6.35,8.76a10.25,10.25,0,0,0,5.19-1.24s-.25,4.4,3.17,5.75,4.81-.18,6.86,1,3,3.3,5.68,4.18,3.33.45,4.19.75S257.65,221.48,258.14,221Z"></path><path class="cls-8" d="M245.83,220.31s-.84.33-3.16-.63-3.3-2.61-4.56-2.82-.59.49-2.59.35a4.08,4.08,0,0,1-3.33-2.45,2.08,2.08,0,0,0-2.7-.52c-1,.53-5.75.21-8.74-4.12s-2.89-10.48-1.9-12.53,2.06-2.6,1.65-4.07-2.68-2.23-4.35-.63-1.24,3.87-1.58,4.61-1.85,1.62-1.24,4,1.56,2.94,1.68,4.43-1.77,1.06-1,4.89,3.12,6.44,6.5,7,7.57-1.23,8.64-1.11,1,1.05,2.71,1.67,4.7-.17,5.44.29,2.07,2.07,3.89,2.07,5,.21,5.39-.08S247.51,220.11,245.83,220.31Z"></path><path class="cls-35" d="M227.36,175a7.82,7.82,0,0,0,6.7,2.3,5.55,5.55,0,0,0,4.84-3.86s-.14,3.38-5,4.19S227.36,175,227.36,175Z"></path><path class="cls-35" d="M227.56,176.42a4.65,4.65,0,0,0,3.09,3,7.85,7.85,0,0,0,3.93.53,7.31,7.31,0,0,1-4.41-.29A3.83,3.83,0,0,1,227.56,176.42Z"></path><path class="cls-35" d="M248.47,187.41a7.53,7.53,0,0,1-5.86,3.35c-4.15.33-5.9-2.1-5.9-2.1s-.15,1.55-2.54,1.64a2.92,2.92,0,0,1-3-1.53,2.27,2.27,0,0,0,2.78,1.82c2.49-.31,2.85-1.5,2.85-1.5a5.65,5.65,0,0,0,5.94,2.23C246.62,190.4,247.83,188.61,248.47,187.41Z"></path><path class="cls-35" d="M234.14,207.92a6,6,0,0,0,2.51-3.26,13.58,13.58,0,0,0,.23-5,8,8,0,0,1,.09,5.14A4.43,4.43,0,0,1,234.14,207.92Z"></path></g></g></g></svg> 