<?xml version="1.0" encoding="UTF-8"?> <!-- Generator: Adobe Illustrator 24.1.0, SVG Export Plug-In . SVG Version: 6.00 Build 0) --> <svg xmlns="http://www.w3.org/2000/svg" xmlns:xlink="http://www.w3.org/1999/xlink" version="1.1" id="Layer_1" x="0px" y="0px" viewBox="0 0 112.5 138.7" style="enable-background:new 0 0 112.5 138.7;" xml:space="preserve"> <style type="text/css"> .st0{fill:#393942;} .st1{fill:#EDE8F4;} .st2{fill:#F6BCAE;} .st3{fill:#342C2C;} .st4{fill:#6CC24A;} .st5{fill:#FEFEFE;} .st6{fill:#4D4D56;} .st7{fill:#EDB2A6;} .st8{fill:#2D1E1E;} .st9{fill:#FFFFFF;} </style> <g> <path class="st0" d="M88.2,117.3c0.2,0.2,0.4,0.3,0.7,0.5c3.8,3.1,8.1,9.4,10.9,17c0.5,1.2,0.9,2.5,1.2,3.8h11.5 c-5.4-10.2-12.5-23.3-17.7-30.4c-4-5.5-6.9-7.4-8.6-7.6c0.7,0.3,1.4,0.5,2,0.9V117.3z"></path> <path class="st1" d="M57.5,106.8l-4.8,4.8l3.3,10.3l0.2,16.7h2.2v-30.8C58.1,107.5,57.8,107.1,57.5,106.8z"></path> <path class="st1" d="M48.1,111.6l-4.7-4.7c-0.4,0.4-0.8,0.9-1.2,1.3l-0.3,28.1c0.3,0.8,0.6,1.6,0.9,2.4h1.6l0.2-16.7L48.1,111.6z"></path> <path class="st2" d="M42.4,91.9c2.7,2.4,5.4,4.8,8.1,7.2c2.7-2.2,5.3-4.4,8-6.6l0,0c-0.4-1.3-0.5-2.9-0.5-4.1c0-0.1,0-0.2,0-0.3 c-1.5,0.3-3.1,0.4-4.7,0.4c-3.6,0-7-0.7-10.2-2.1c0,0.7,0,1.5-0.1,2.4c-0.1,0.8-0.3,1.7-0.6,2.6l0,0C42.3,91.6,42.4,91.8,42.4,91.9 z"></path> <path class="st3" d="M20.9,59.3c-1.1,0.1-2.8-0.3-4.3-2.3c-1.4-2.1-2.5-5.8-2.4-8.5s1.5-4.2,3-4.3c2.8-0.1,4.5,2.9,5.1,5.2 c0.1,0.3,1.5,5.7,3.3,1.9c0.8-1.7,1-5.5,2.1-8.8s3.1-4.9,5.5-5.9s5.2-1.3,7.2-2.9c2-1.6,3.2-4.3,7.2-4.7c3.9-0.4,10.6,1.5,16.5,3.4 s11.2,3.7,15.8,3c1.4-0.2,2.7-0.6,3.9-1.3c0.3,2.6,0.5,5.4,0.5,8.3c3.5-0.8,1.9-6.2,5.9-10.9c4.7-5.7-3.9-13.7-6.2-19.5 C80.9,4.2,69.5,0.8,60.2,2.2c-7.7,1.1-10.4-3-17.3-2c-7,1-12.7,4-16,6.9s-4.2,5.7-5.9,6.8c-1.7,1.1-9.3,2.6-10.1,8.1 c-0.4,2.9,2,4.5-1.8,14.6c-4.4,11.5,4.7,19.6,8.7,28.8c4,9.1,8,14.2,11.8,14.7c1.6,0.2,2.7,0,3.4-0.4c-5.2-5.3-8.9-12.7-10.4-21 C22.2,58.9,21.7,59.2,20.9,59.3z"></path> <path class="st0" d="M58.5,92.5L58.5,92.5L58.5,92.5L58.5,92.5z"></path> <path class="st0" d="M8.1,110.5c0.3-1.8,1-3.3,1.9-4.6c-6.7,7.7-9.3,19.7-10,32.7h12.2C9.3,128,7.3,116.4,8.1,110.5z"></path> <path class="st0" d="M70.9,132.9l-7.6,2.7l5.8,3H101c-0.4-1.3-0.8-2.6-1.2-3.8c-2.8-7.6-7.1-13.8-10.9-17c-0.2-0.2-0.4-0.4-0.7-0.5 v-15.8c-0.7-0.3-1.4-0.6-2-0.9c-0.5-0.2-1-0.4-1.4-0.5c-3.1-1-7.8-1.5-13.8-3l0,0v35.8H70.9z"></path> <path class="st0" d="M23,101.2c2.4,0.6,4.7,3.2,6.8,6.6V96.5l0,0c-1.9,0.3-3.8,0.6-6.1,1.1c-5,1.2-8.9,3.4-12.1,6.4 C15,101.3,20,100.5,23,101.2z"></path> <path class="st0" d="M42.3,91.4v0.5l0.1,0.1C42.4,91.8,42.3,91.6,42.3,91.4z"></path> <path class="st4" d="M52.7,111.6l4.8-4.8c-2.4-2.6-4.7-5.1-7.1-7.7c-2.4,2.6-4.7,5.1-7.1,7.7l4.7,4.7l-3.5,10.4l-0.2,16.7h11.9 L56,121.9L52.7,111.6z"></path> <path class="st5" d="M57.5,106.8c0.3,0.3,0.6,0.7,0.9,1V92.5c-2.7,2.2-5.3,4.4-8,6.6C52.8,101.7,55.2,104.2,57.5,106.8z"></path> <path class="st5" d="M50.4,99.1c-2.7-2.4-5.4-4.8-8.1-7.2l-0.1-0.1L42,108.1c0.4-0.4,0.8-0.9,1.2-1.3 C45.7,104.2,48.1,101.7,50.4,99.1z"></path> <path class="st2" d="M57.9,88.1c15-2.7,26.6-18.4,26.6-37.3c0-2.8,0-5.6,0-8.3c-0.1-2.9-0.2-5.7-0.5-8.3c-1.2,0.6-2.6,1.1-3.9,1.3 c-4.6,0.7-9.9-1.1-15.8-3s-12.6-3.8-16.5-3.4c-3.9,0.4-5.2,3.1-7.2,4.7c-2,1.6-4.8,1.9-7.2,2.9c-2.4,1-4.4,2.5-5.5,5.9 c-1.1,3.3-1.3,7.1-2.1,8.8c-1.8,3.8-3.2-1.6-3.3-1.9c-0.6-2.3-2.2-5.2-5.1-5.2c-1.5,0-2.9,1.6-3,4.3s1,6.4,2.4,8.5s3.1,2.4,4.3,2.3 c0.8-0.1,1.3-0.4,1.7-0.8c1.4,8.4,5.2,15.7,10.4,21c2.9,3,6.3,5.3,10,6.9c3.2,1.3,6.6,2.1,10.2,2.1C54.8,88.5,56.4,88.3,57.9,88.1z M18.9,55.6c-0.8-0.2-1.6-0.8-1.9-1.7s-0.2-1.7,0-2.4s0.6-1.4,1.2-1.9c0,0.8,0,1.4,0,2.1c0,0.6,0.1,1.2,0.2,1.7 c0.2,0.5,0.5,0.8,1,1.2c0.2,0.2,0.5,0.3,0.8,0.5s0.7,0.3,1,0.5C20.4,55.6,19.7,55.8,18.9,55.6z M60.8,79.4 c-11.5,0.5-15.5-9.9-15.5-9.9s5.7,2.9,14.8,2.6c9.1-0.2,10.3-3.1,10.3-3.1S69.6,79,60.8,79.4z M61.5,54.2c0,0,7.8,7.2,6.6,9.1 c-1.5,2.4-8.5,2.7-8.5,2.7s5.7-1.4,6-3.9C65.8,59.5,61.5,54.2,61.5,54.2z M75.1,47.4l-2,2.1c0,0-0.7-0.3-1.7-0.5 c0.5,0.5,0.7,1.2,0.7,1.9c0,1.7-1.5,3.1-3.4,3.1s-3.4-1.4-3.4-3.1c0-0.1,0-0.2,0-0.3c-1,0.6-1.5,1.2-1.5,1.2s0.1-0.3,0.3-0.7 c-0.1,0.1-0.2,0.2-0.2,0.2c-0.8,0.8-0.8-4.6-0.1-6c-0.2-0.6-0.8-2.6,0-3.5c0.9-1.1,10.4-2.3,13.2,2.6c0,0,0,0-0.1,0 C77,45,75.1,47.4,75.1,47.4z M34.9,43.4c0,0,0.1-0.1,0.3-0.2l0,0c0,0,0.1-0.1,0.2-0.1c1.4-0.9,6.3-3.6,10.7-3.1 c4.5,0.6,5.3,1.3,5.4,2.1c0.1,0.4,0.4,1.3,0.3,1.9c0,0,0,0,0,0.1c0.2,1-1.2,7-1.2,7s-0.8-0.5-2.3-1c0.3,0.5,0.5,1,0.5,1.5 c0,1.7-1.5,3.1-3.4,3.1S42,53.3,42,51.6c0-1,0.5-1.9,1.3-2.4c-2.6,0.1-4.3,1.1-4.3,1.1s-3.5-5.2-3.7-7C35.1,43.4,35,43.4,34.9,43.4 z M42.4,68c-0.1,0.3-0.3,0.6-0.4,0.9c-0.1,0.3-0.2,0.7-0.4,1c-0.2-0.7-0.4-1.4-0.3-2.2s0.7-1.7,1.5-2.1c0.8-0.4,1.7-0.4,2.4-0.2 c0.7,0.2,1.4,0.5,2,1c-0.8,0.1-1.4,0.1-2.1,0.2c-0.6,0.1-1.2,0.2-1.6,0.4C43.1,67.1,42.7,67.5,42.4,68z"></path> <path class="st6" d="M29.8,107.9c2,3.2,3.8,7.2,5.4,11c2.4,6.1,4.5,11.9,6.6,17.3l0.3-28.1l0.2-16.3v-0.5l0,0l-12.5,5.2l0,0V107.9z "></path> <polygon class="st6" points="58.4,107.8 58.4,138.6 69.1,138.6 63.3,135.6 70.9,132.9 70.9,97.1 70.9,97.1 58.5,92.5 58.5,92.5 58.5,92.5 58.4,92.5 "></polygon> <path class="st0" d="M12.2,138.6h30.6c-0.3-0.8-0.6-1.6-0.9-2.4c-2.1-5.4-4.2-11.3-6.6-17.3c-1.5-3.8-3.4-7.8-5.4-11 c-2.2-3.5-4.5-6.1-6.8-6.6c-3-0.7-8,0.1-11.4,3c-0.6,0.5-1.1,1-1.6,1.7c-1,1.3-1.7,2.8-1.9,4.6C7.3,116.4,9.3,128,12.2,138.6z"></path> <path class="st7" d="M45.1,47.9c3.8,0.4,5.4,3.2,5.4,3.2s1.4-6,1.2-7c0,0,0,0,0-0.1c0,0.4-0.3,0.7-0.9,0.4 c-1.4-0.7-11-2.1-15.7-1.1c0.2,1.8,3.7,7,3.7,7S41.3,47.5,45.1,47.9z"></path> <path class="st7" d="M35.2,43.2L35.2,43.2c0,0,0.1-0.1,0.2-0.1C35.2,43.1,35.2,43.2,35.2,43.2z"></path> <path class="st3" d="M50.9,44.5c0.6,0.3,0.8,0,0.9-0.4c0.1-0.6-0.2-1.5-0.3-1.9c-0.2-0.8-0.9-1.5-5.4-2.1 c-4.4-0.6-9.3,2.2-10.7,3.1c-0.1,0-0.1,0.1-0.2,0.1c-0.2,0.1-0.3,0.2-0.3,0.2c0.1,0,0.2,0,0.3-0.1C39.9,42.4,49.5,43.8,50.9,44.5z"></path> <path class="st8" d="M45.1,47.9c-3.8-0.4-6.2,2.4-6.2,2.4s1.7-1.1,4.3-1.1c0.6-0.4,1.3-0.7,2.1-0.7c1.3,0,2.4,0.6,3,1.6 c1.5,0.5,2.3,1,2.3,1S48.9,48.3,45.1,47.9z"></path> <path class="st8" d="M45.3,48.5c-0.8,0-1.5,0.3-2.1,0.7c-0.8,0.6-1.3,1.4-1.3,2.4c0,1.7,1.5,3.1,3.4,3.1s3.4-1.4,3.4-3.1 c0-0.6-0.2-1.1-0.5-1.5C47.7,49.2,46.6,48.5,45.3,48.5z M46.8,51.4c-0.4,0-0.8-0.3-0.8-0.7s0.3-0.7,0.8-0.7c0.4,0,0.8,0.3,0.8,0.7 C47.5,51.1,47.2,51.4,46.8,51.4z"></path> <path class="st9" d="M60.1,72.2c-9.1,0.2-14.8-2.6-14.8-2.6s4,10.4,15.5,9.9c8.8-0.4,9.5-10.3,9.5-10.3S69.2,72,60.1,72.2z"></path> <path class="st7" d="M59.5,66c0,0,7-0.3,8.5-2.7c1.2-1.9-6.6-9.1-6.6-9.1s4.3,5.3,4,7.8C65.2,64.6,59.5,66,59.5,66z"></path> <path class="st7" d="M69.6,43.5c-2,0.4-5.6,2-5.6,2s0-0.1-0.1-0.2c-0.7,1.4-0.8,6.8,0.1,6c0.1-0.1,0.2-0.1,0.2-0.2 c0.6-1,1.9-2.9,4.1-3.5c3-0.9,4.8,1.9,4.8,1.9l2-2.1c0,0,2-2.4,2-3C76.5,44.1,72.7,42.9,69.6,43.5z"></path> <path class="st8" d="M67.9,49.3c-1.1,0.4-2,0.9-2.6,1.3c0,0.1,0,0.2,0,0.3c0,1.7,1.5,3.1,3.4,3.1s3.4-1.4,3.4-3.1 c0-0.7-0.3-1.4-0.7-1.9C70.5,48.8,69.3,48.8,67.9,49.3z M70.8,49.1c0.4,0,0.8,0.3,0.8,0.7s-0.3,0.7-0.8,0.7c-0.4,0-0.8-0.3-0.8-0.7 S70.4,49.1,70.8,49.1z"></path> <path class="st3" d="M63.9,41.8c-0.8,0.9-0.2,2.9,0,3.5c0,0.1,0.1,0.2,0.1,0.2s3.6-1.6,5.6-2c3.1-0.6,6.9,0.7,7.5,0.9 c0.1,0,0.1,0,0.1,0C74.4,39.5,64.9,40.7,63.9,41.8z"></path> <path class="st8" d="M68.3,47.6c-2.2,0.6-3.5,2.5-4.1,3.5c-0.2,0.4-0.3,0.7-0.3,0.7s0.5-0.5,1.5-1.2c0.6-0.4,1.5-0.9,2.6-1.3 c1.3-0.5,2.5-0.5,3.5-0.3s1.7,0.5,1.7,0.5S71.3,46.7,68.3,47.6z"></path> <path class="st9" d="M70.8,50.4c0.4,0,0.8-0.3,0.8-0.7S71.3,49,70.8,49c-0.4,0-0.8,0.3-0.8,0.7S70.4,50.4,70.8,50.4z"></path> <path class="st9" d="M46.8,50c-0.4,0-0.8,0.3-0.8,0.7s0.3,0.7,0.8,0.7c0.4,0,0.8-0.3,0.8-0.7C47.5,50.3,47.2,50,46.8,50z"></path> <path class="st7" d="M45.1,66.5c0.6-0.1,1.3-0.1,2.1-0.2c-0.6-0.5-1.2-0.8-2-1c-0.7-0.2-1.6-0.2-2.4,0.2s-1.4,1.3-1.5,2.1 c-0.2,0.8,0.1,1.6,0.3,2.2c0.3-0.3,0.3-0.7,0.4-1s0.2-0.6,0.4-0.9c0.3-0.5,0.6-0.9,1.1-1.1C43.9,66.7,44.5,66.6,45.1,66.5z"></path> <path class="st7" d="M19.3,54.5c-0.5-0.3-0.8-0.7-1-1.2s-0.2-1-0.2-1.7c0-0.6,0.1-1.3,0-2.1c-0.5,0.5-0.9,1.2-1.2,1.9 c-0.2,0.7-0.3,1.6,0,2.4c0.3,0.9,1.1,1.5,1.9,1.7s1.6,0.1,2.2-0.1c-0.3-0.3-0.7-0.4-1-0.5C19.9,54.8,19.6,54.7,19.3,54.5z"></path> </g> </svg> 