<?xml version="1.0" encoding="UTF-8"?> <!-- Generator: Adobe Illustrator 24.1.0, SVG Export Plug-In . SVG Version: 6.00 Build 0) --> <svg xmlns="http://www.w3.org/2000/svg" xmlns:xlink="http://www.w3.org/1999/xlink" version="1.1" id="Capa_1" x="0px" y="0px" viewBox="58.6 141 392.1 573.3" style="enable-background:new 58.6 141 392.1 573.3;" xml:space="preserve"> <style type="text/css"> .st0{fill:#CDD5D8;} .st1{fill:#EAEFF2;} .st2{fill:#78B942;} .st3{fill:#669F30;} .st4{fill:#D8316E;} .st5{fill:#E62E2C;} .st6{fill:#F9B95A;} </style> <g> <path class="st0" d="M58.6,639.3V154.7c0-7.6,6.8-13.7,15.2-13.7h361.6c8.4,0,15.2,6.1,15.2,13.7v484.5c0,7.6-6.8,13.7-15.2,13.7 H73.8C65.4,653,58.6,646.9,58.6,639.3z"></path> <path class="st1" d="M142.1,614.1C142.1,614.1,142.1,614.1,142.1,614.1c0,1,0.9,1.8,2,1.8H365c1.1,0,2-0.8,2-1.8c0,0,0,0,0,0 c0-19.8,17.3-36,39-36.9c1.1,0,1.9-0.8,1.9-1.8V216.8c0-1-0.8-1.8-1.9-1.8c-21.1-0.9-38-16.2-39-35.2c0-0.9-0.9-1.7-2-1.7h-221 c-1.1,0-1.9,0.7-2,1.7c-0.9,19.1-17.9,34.4-39,35.2c-1.1,0-1.9,0.8-1.9,1.8v358.6c0,1,0.8,1.8,1.9,1.8 C124.8,578,142.1,594.2,142.1,614.1z"></path> <path class="st2" d="M347.2,713.6l-14.1-23.2c-0.3-0.5-0.9-0.8-1.5-0.7l-25.6,4.1c-1.2,0.2-2-1-1.5-2.1l38.2-80l45.3,21.6l-38.2,80 C349.2,714.5,347.8,714.6,347.2,713.6z"></path> <path class="st3" d="M407.7,713.6l14.1-23.2c0.3-0.5,0.9-0.8,1.5-0.7l25.6,4.1c1.2,0.2,2-1,1.5-2.1l-38.2-80L367,633.4l38.2,80 C405.7,714.5,407.1,714.6,407.7,713.6z"></path> <path class="st4" d="M388.9,519L388.9,519c3.9,2.8,8.6,4,13.3,3.6l0,0c8.4-0.8,16.4,3.8,19.9,11.5l0,0c2,4.3,5.4,7.8,9.8,9.8l0,0 c7.7,3.5,12.3,11.5,11.5,19.9l0,0c-0.4,4.7,0.8,9.5,3.6,13.3l0,0c4.9,6.9,4.9,16.1,0,23l0,0c-2.8,3.9-4,8.6-3.6,13.3l0,0 c0.8,8.4-3.8,16.4-11.5,19.9l0,0c-4.3,2-7.8,5.4-9.8,9.8l0,0c-3.5,7.7-11.5,12.3-19.9,11.5l0,0c-4.7-0.4-9.5,0.8-13.3,3.6l0,0 c-6.9,4.9-16.1,4.9-23,0l0,0c-3.9-2.8-8.6-4-13.3-3.6l0,0c-8.4,0.8-16.4-3.8-19.9-11.5l0,0c-2-4.3-5.4-7.8-9.8-9.8l0,0 c-7.7-3.5-12.3-11.5-11.5-19.9l0,0c0.4-4.7-0.8-9.5-3.6-13.3l0,0c-4.9-6.9-4.9-16.1,0-23l0,0c2.8-3.9,4-8.6,3.6-13.3l0,0 c-0.8-8.4,3.8-16.4,11.5-19.9l0,0c4.3-2,7.8-5.4,9.8-9.8l0,0c3.5-7.7,11.5-12.3,19.9-11.5l0,0c4.7,0.4,9.5-0.8,13.3-3.6l0,0 C372.8,514.1,382.1,514.1,388.9,519z"></path> <g> <path class="st5" d="M351.9,654.5c0.2,0,0.5,0,0.7,0l0,0c0.5-0.1,1.1-0.1,1.6-0.1C353.5,654.3,352.7,654.4,351.9,654.5z"></path> <path class="st5" d="M354.3,522.6c-0.5,0-1.1,0-1.6-0.1l0,0c-0.2,0-0.5,0-0.7,0C352.7,522.6,353.5,522.6,354.3,522.6z"></path> </g> <circle class="st6" cx="376.9" cy="588.5" r="40.3"></circle> <g> <path class="st0" d="M377.8,433.3H131.3c-3.5,0-6.3,3.5-6.3,7.7s2.8,7.7,6.3,7.7h246.6c3.5,0,6.3-3.5,6.3-7.7 S381.4,433.3,377.8,433.3z"></path> <path class="st0" d="M377.8,391.4H131.3c-3.5,0-6.3,3.5-6.3,7.7c0,4.3,2.8,7.7,6.3,7.7h246.6c3.5,0,6.3-3.5,6.3-7.7 C384.2,394.9,381.4,391.4,377.8,391.4z"></path> <path class="st0" d="M377.8,343.3H131.3c-3.5,0-6.3,3.5-6.3,7.7s2.8,7.7,6.3,7.7h246.6c3.5,0,6.3-3.5,6.3-7.7 S381.4,343.3,377.8,343.3z"></path> <path class="st0" d="M377.8,301.4H131.3c-3.5,0-6.3,3.5-6.3,7.7c0,4.3,2.8,7.7,6.3,7.7h246.6c3.5,0,6.3-3.5,6.3-7.7 C384.2,304.9,381.4,301.4,377.8,301.4z"></path> <path class="st0" d="M377.8,256H131.3c-3.5,0-6.3,3.5-6.3,7.7s2.8,7.7,6.3,7.7h246.6c3.5,0,6.3-3.5,6.3-7.7 C384.2,259.5,381.4,256,377.8,256z"></path> <path class="st0" d="M377.8,475.6H131.3c-3.5,0-6.3,3.5-6.3,7.7s2.8,7.7,6.3,7.7h246.6c3.5,0,6.3-3.5,6.3-7.7 C384.2,479.1,381.4,475.6,377.8,475.6z"></path> <path class="st0" d="M297,522.5h-84.9c-3.5,0-6.3,3.5-6.3,7.7c0,4.3,2.8,7.7,6.3,7.7H297c3.5,0,6.3-3.5,6.3-7.7 C303.4,526,300.5,522.5,297,522.5z"></path> </g> </g> </svg> 