<!-- Generated by IcoMoon.io -->
<svg version="1.1" xmlns="http://www.w3.org/2000/svg" width="32" height="32" viewBox="0 0 32 32">
<title>checklist</title>
<path fill="#e897ac" d="M0 3.723h31.974v24.563h-31.974v-24.563z"></path>
<path fill="#e4f0f3" d="M1.552 5.443h28.871v21.124h-28.871v-21.124z"></path>
<path fill="#efb7c5" d="M10.48 15.239h-5.385v-5.385h5.385zM6.037 14.297h3.5v-3.5h-3.5z"></path>
<path fill="#efb7c5" d="M8.316 13.447l-1.329-0.66c-0.156-0.079-0.262-0.238-0.262-0.422 0-0.076 0.018-0.148 0.050-0.212l-0.001 0.003v-0c0.079-0.156 0.238-0.262 0.422-0.262 0.076 0 0.148 0.018 0.212 0.050l-0.003-0.001 0.777 0.385c0.061 0.031 0.133 0.049 0.21 0.049 0.116 0 0.222-0.042 0.304-0.111l-0.001 0.001 3.119-2.622c0.081-0.069 0.187-0.111 0.303-0.111 0.144 0 0.274 0.065 0.36 0.167l0.001 0.001 0 0c0.069 0.081 0.111 0.188 0.111 0.303 0 0.144-0.065 0.274-0.167 0.36l-0.001 0.001-3.592 3.020c-0.081 0.069-0.187 0.111-0.303 0.111-0.076 0-0.149-0.018-0.212-0.050l0.003 0.001z"></path>
<path fill="#efb7c5" d="M10.48 23.214h-5.385v-5.384h5.385zM6.037 22.272h3.5v-3.499h-3.5z"></path>
<path fill="#cddce0" d="M14.318 10.013h12.566v1.257h-12.566v-1.257z"></path>
<path fill="#cddce0" d="M14.318 13.354h6.283v1.257h-6.283v-1.257z"></path>
<path fill="#cddce0" d="M14.318 18.226h12.566v1.257h-12.566v-1.257z"></path>
<path fill="#cddce0" d="M14.318 21.564h6.283v1.257h-6.283v-1.257z"></path>
</svg>
