<!-- Generated by IcoMoon.io -->
<svg version="1.1" xmlns="http://www.w3.org/2000/svg" width="32" height="32" viewBox="0 0 32 32">
<title>gift</title>
<path fill="#efb7c5" d="M19.629 11.324l-0.274 0.182 8.372 7.572v-13.154l-8.098 5.399z"></path>
<path fill="#efb7c5" d="M7.996 5.925v13.154l8.372-7.572-8.372-5.582z"></path>
<path fill="#e897ac" d="M19.064 11.243c-0.316-0.289-0.738-0.467-1.202-0.467s-0.886 0.177-1.203 0.468l-8.662 7.835h19.731l-8.372-7.573z"></path>
<path fill="#ff4a4a" d="M4.688 26.118c-0 0-0 0-0 0-0.384 0-0.715-0.231-0.86-0.562l-0.002-0.006-3.75-8.75c-0.048-0.109-0.076-0.236-0.076-0.369 0-0.384 0.231-0.715 0.562-0.86l0.006-0.002 3.447-1.477c0.109-0.048 0.236-0.076 0.37-0.076 0.384 0 0.714 0.231 0.859 0.562l0.002 0.006 3.75 8.75c0.048 0.109 0.076 0.236 0.076 0.369 0 0.384-0.231 0.715-0.562 0.859l-0.006 0.002-3.447 1.477c-0.109 0.048-0.236 0.076-0.369 0.076v0z"></path>
<path fill="#e20000" d="M8.327 24.641h12.303c0.001 0 0.002 0 0.003 0 1.205 0 2.304-0.455 3.134-1.204l-0.004 0.004 7.467-6.705c0.475-0.427 0.772-1.044 0.772-1.73 0-1.284-1.041-2.324-2.324-2.324-0.586 0-1.121 0.217-1.53 0.575l0.003-0.002-6.324 5.512c-0.164 0.143-0.38 0.231-0.616 0.231h-6.698l1.178-4.242-0.377-0.43c-1.419-1.613-3.487-2.625-5.792-2.625-1.897 0-3.635 0.686-4.977 1.824l0.011-0.009-0.831 0.701z"></path>
<path fill="#e897ac" d="M22.541 16.655c0 0 0 0 0 0 0 1.294-1.049 2.343-2.343 2.343-0 0-0 0-0 0h-6.9c-0.006 0-0.014 0-0.021 0-0.234 0-0.45-0.074-0.627-0.199l0.003 0.002c-0.3-0.224-0.391-0.571-0.249-0.87l1.473-3.118c0.141-0.298 0.486-0.494 0.871-0.495l5.448-0.005c0.001 0 0.002 0 0.002 0 1.294 0 2.342 1.049 2.342 2.342 0 0 0 0 0 0v0z"></path>
<path fill="#ffc2aa" d="M13.299 19.935c0 0.518 0.42 0.938 0.938 0.938v0h5.962c2.328-0.003 4.215-1.889 4.218-4.218v-0c0-0.048-0.002-0.096-0.004-0.143l-2.588 2.255c-0.164 0.143-0.38 0.231-0.616 0.231h-6.973c-0.518 0-0.938 0.42-0.938 0.938v0z"></path>
<path fill="#ffc2aa" d="M17.333 12.141c0.149 0.1 0.332 0.16 0.529 0.16s0.38-0.060 0.532-0.162l-0.003 0.002 9.337-6.224-19.731 0z"></path>
</svg>
