<!-- Generated by IcoMoon.io -->
<svg version="1.1" xmlns="http://www.w3.org/2000/svg" width="32" height="32" viewBox="0 0 32 32">
<title>important</title>
<path fill="#e897ac" d="M4.062 30.823h23.876c2.257-0.064 4.061-1.909 4.061-4.175 0-0.769-0.208-1.489-0.57-2.107l0.011 0.020-11.938-21.343c-0.687-1.253-1.997-2.088-3.502-2.088s-2.815 0.835-3.492 2.067l-0.010 0.021-11.938 21.343c-0.352 0.599-0.559 1.319-0.559 2.087 0 2.266 1.805 4.111 4.056 4.174l0.006 0z"></path>
<path fill="#fff" d="M18.283 24.732c0 1.261-1.023 2.284-2.284 2.284s-2.284-1.023-2.284-2.284c0-1.261 1.023-2.284 2.284-2.284v0c1.261 0 2.284 1.023 2.284 2.284v0z"></path>
<path fill="#fff" d="M15.999 7.221c0.001 0 0.003 0 0.005 0 1.259 0 2.279 1.020 2.279 2.279 0 0.002 0 0.004 0 0.005v-0 7.613c0 1.261-1.023 2.284-2.284 2.284s-2.284-1.023-2.284-2.284v0-7.613c0-0.002 0-0.003 0-0.005 0-1.259 1.020-2.279 2.279-2.279 0.002 0 0.004 0 0.005 0h-0z"></path>
</svg>
