<!-- Generated by IcoMoon.io -->
<svg version="1.1" xmlns="http://www.w3.org/2000/svg" width="32" height="32" viewBox="0 0 32 32">
<title>imporant-dates</title>
<path fill="#838996" d="M28.245 32h-24.468c-0 0-0 0-0 0-1.051 0-1.903-0.852-1.903-1.903 0-0 0-0 0-0v0-2.647l28.273-5.138v7.785c0 0 0 0 0 0 0 1.051-0.852 1.903-1.903 1.903-0 0-0 0-0 0v0z"></path>
<path fill="#d3e1e5" d="M23.069 30.097h-19.288c-0 0-0 0-0 0-1.053 0-1.906-0.853-1.906-1.906v0-23.635c0-1.053 0.853-1.906 1.906-1.906 0 0 0 0 0 0h24.461c0 0 0 0 0 0 1.053 0 1.906 0.853 1.906 1.906v0 18.462c0 0.506-1.152 0.99-1.51 1.348l-4.222 4.222c-0.357 0.357-0.842 1.509-1.348 1.509z"></path>
<path fill="#a3bac2" d="M23.060 30.097c0.526-0 1.003-0.213 1.348-0.558l5.182-5.182c0.345-0.345 0.558-0.821 0.558-1.348v0-0.772c-0 0.862-0.699 1.561-1.562 1.561-0 0-0 0-0 0h-3.175c-0.862 0-1.561 0.699-1.561 1.562 0 0 0 0 0 0v0 3.175c-0 0.862-0.699 1.561-1.562 1.561-0 0-0 0-0 0v0z"></path>
<path fill="#e4859f" d="M30.148 4.552v4.895h-28.273v-4.895c0-1.051 0.852-1.903 1.903-1.903h24.468c1.051 0 1.903 0.852 1.903 1.903v0z"></path>
<path fill="#22b27f" d="M7.975 2.65v-1.203c-0-0.273-0.222-0.495-0.495-0.495h-0.218c-0.273 0-0.495 0.222-0.495 0.495v3.078c0 0.273 0.222 0.495 0.495 0.495h0c0.263 0 0.476 0.213 0.476 0.476s-0.213 0.476-0.476 0.476v0c-0.799-0.001-1.446-0.648-1.447-1.446v-3.078c0.001-0.799 0.648-1.446 1.447-1.447h0.218c0.798 0.001 1.446 0.648 1.447 1.446v1.203z"></path>
<path fill="#5e6572" d="M25.257 2.65v-1.203c-0-0.273-0.222-0.495-0.495-0.495h-0.218c-0.273 0-0.495 0.222-0.495 0.495v3.078c0 0.273 0.222 0.495 0.495 0.495h0c0.263 0 0.476 0.213 0.476 0.476s-0.213 0.476-0.476 0.476v0c-0.799-0.001-1.446-0.648-1.447-1.447v-3.078c0.001-0.798 0.648-1.446 1.446-1.447h0.219c0.799 0.001 1.446 0.648 1.447 1.446v1.203z"></path>
<path fill="#5e6572" d="M11.138 24.676h9.723c0.919-0.026 1.654-0.777 1.654-1.7 0-0.313-0.085-0.606-0.232-0.858l0.004 0.008-4.862-8.692c-0.28-0.51-0.813-0.85-1.426-0.85s-1.146 0.34-1.422 0.842l-0.004 0.008-4.862 8.692c-0.143 0.244-0.228 0.537-0.228 0.85 0 0.923 0.735 1.674 1.652 1.7l0.002 0z"></path>
<path fill="#7acaa6" d="M16.93 22.195c0 0 0 0 0 0 0 0.514-0.416 0.93-0.93 0.93s-0.93-0.416-0.93-0.93c0-0.514 0.416-0.93 0.93-0.93v0c0.514 0 0.93 0.416 0.93 0.93v0z"></path>
<path fill="#554e56" d="M16 15.064c0.001 0 0.001 0 0.002 0 0.513 0 0.928 0.415 0.928 0.928 0 0.001 0 0.001 0 0.002v-0 3.101c0 0 0 0.001 0 0.001 0 0.514-0.416 0.93-0.93 0.93s-0.93-0.416-0.93-0.93c0-0 0-0.001 0-0.001v0-3.101c0-0.001 0-0.001 0-0.002 0-0.513 0.415-0.928 0.928-0.928 0.001 0 0.001 0 0.002 0h-0z"></path>
</svg>
