<!-- Generated by IcoMoon.io -->
<svg version="1.1" xmlns="http://www.w3.org/2000/svg" width="32" height="32" viewBox="0 0 32 32">
<title>login</title>
<path d="M29.096 0.020c-0.033-0.003-0.061-0.020-0.096-0.020h-14.333c-2.208 0.003-3.997 1.792-4 4v1.333c0 0.736 0.597 1.333 1.333 1.333s1.333-0.597 1.333-1.333v-1.333c0.001-0.736 0.598-1.332 1.333-1.333h6.212l-0.407 0.136c-1.059 0.374-1.804 1.365-1.805 2.53v20h-4c-0.736-0.001-1.332-0.597-1.334-1.333v-2.667c0-0.736-0.597-1.333-1.333-1.333s-1.333 0.597-1.333 1.333v2.667c0.003 2.208 1.792 3.997 4 4h4v1.333c0.001 1.472 1.194 2.665 2.666 2.667h0c0.303 0 0.596-0.048 0.869-0.138l-0.020 0.006 8.011-2.671c1.059-0.373 1.805-1.364 1.807-2.53v-24c0-1.555-1.34-2.773-2.904-2.647z"></path>
<path d="M14.276 12.391l-5.333-5.333c-0.241-0.242-0.575-0.391-0.943-0.391-0.736 0-1.333 0.597-1.333 1.333 0 0 0 0 0 0.001v-0 4h-5.333c-0.736 0-1.333 0.597-1.333 1.333s0.597 1.333 1.333 1.333v0h5.333v4c0 0 0 0 0 0.001 0 0.736 0.597 1.333 1.333 1.333 0.368 0 0.702-0.149 0.943-0.391v0l5.333-5.334c0.242-0.241 0.391-0.574 0.391-0.943s-0.149-0.702-0.391-0.943l-0-0z"></path>
</svg>
