<!-- Generated by IcoMoon.io -->
<svg version="1.1" xmlns="http://www.w3.org/2000/svg" width="30" height="32" viewBox="0 0 30 32">
<title>login-illustration</title>
<path fill="#f7f7f7" d="M29.844 17.078c0 0.002 0 0.005 0 0.008 0 5.3-2.765 9.954-6.931 12.598l-0.061 0.036c-1.149 0.723-4.54 1.084-7.93 1.084s-6.781-0.361-7.93-1.083c-4.227-2.68-6.992-7.334-6.992-12.634 0-0.003 0-0.006 0-0.009v0c0-8.242 6.68-14.922 14.922-14.922s14.922 6.68 14.922 14.922z"></path>
<path fill="#e2e2e2" d="M29.844 17.078c0 0.002 0 0.005 0 0.008 0 5.3-2.765 9.954-6.931 12.598l-0.061 0.036c-1.149 0.723-4.54 1.084-7.93 1.084v-28.648c8.241 0 14.922 6.68 14.922 14.922z"></path>
<path fill="#ffc299" d="M17.967 12.047c1.682 1.682 1.682 4.41 0 6.092s-4.41 1.682-6.092 0c-1.682-1.682-1.682-4.41 0-6.092s4.41-1.682 6.092 0z"></path>
<path fill="#ffb07b" d="M19.231 15.083c0 0 0 0 0 0 0 2.379-1.929 4.308-4.308 4.308-0 0-0 0-0 0v0-8.617c2.379 0 4.308 1.929 4.309 4.309v0z"></path>
<path fill="#586168" d="M22.853 25.608v4.112c-2.25 1.431-4.991 2.28-7.931 2.28s-5.68-0.849-7.991-2.316l0.061 0.036v-4.113c0-0 0-0 0-0 0-3.433 2.783-6.215 6.215-6.215h3.431c3.433 0 6.215 2.783 6.215 6.215 0 0 0 0 0 0v-0z"></path>
<path fill="#4c5863" d="M22.853 25.608v4.112c-2.242 1.431-4.974 2.28-7.906 2.28-0.009 0-0.017 0-0.026-0h0.001v-12.608h1.715c3.433 0 6.215 2.783 6.215 6.215 0 0 0 0 0 0v-0z"></path>
<path fill="#e28da9" d="M23.059 4.819v-1.811c0-0.993 0.805-1.797 1.797-1.797s1.797 0.805 1.797 1.797v0 1.811h1.211v-1.811c0-1.661-1.347-3.008-3.008-3.008s-3.008 1.347-3.008 3.008v0 1.811z"></path>
<path fill="#df6387" d="M20.632 5.007v5.853c0 0.296 0.24 0.536 0.536 0.536h7.377c0.296 0 0.536-0.24 0.536-0.536v0-5.853c0-0.296-0.24-0.536-0.536-0.536h-7.377c-0.296 0-0.536 0.24-0.536 0.536v0z"></path>
<path fill="#e5acc1" d="M24.469 8.157l-0.161 0.932h1.098l-0.161-0.932c0.287-0.146 0.48-0.438 0.48-0.776 0-0.479-0.388-0.868-0.868-0.868s-0.868 0.388-0.868 0.868c0 0.338 0.193 0.631 0.475 0.774l0.005 0.002z"></path>
</svg>
