<!-- Generated by IcoMoon.io -->
<svg version="1.1" xmlns="http://www.w3.org/2000/svg" width="32" height="32" viewBox="0 0 32 32">
<title>logout</title>
<path d="M2.904 31.98c0.033 0.003 0.061 0.020 0.096 0.020h14.333c2.208-0.003 3.997-1.792 4-4v-1.334c0-0.736-0.597-1.333-1.333-1.333s-1.333 0.597-1.333 1.333v1.333c-0.001 0.736-0.598 1.332-1.333 1.333h-6.212l0.407-0.136c1.059-0.374 1.804-1.365 1.805-2.53v-20h4c0.736 0.001 1.332 0.597 1.334 1.333v2.667c0 0.736 0.597 1.333 1.333 1.333s1.333-0.597 1.333-1.333v-2.667c-0.003-2.208-1.792-3.997-4-4h-4v-1.333c-0.001-1.472-1.194-2.665-2.666-2.667h-0c-0.303 0-0.596 0.048-0.869 0.138l0.020-0.006-8.011 2.671c-1.059 0.373-1.805 1.364-1.807 2.53v24c0 1.555 1.34 2.773 2.904 2.647z"></path>
<path d="M17.724 19.609l5.333 5.333c0.241 0.241 0.575 0.391 0.943 0.391 0.736 0 1.333-0.597 1.333-1.333 0-0 0-0 0-0.001v0-4h5.334c0.736 0 1.333-0.597 1.333-1.333s-0.597-1.333-1.333-1.333v0h-5.334v-4c0-0 0-0 0-0.001 0-0.736-0.597-1.333-1.333-1.333-0.368 0-0.702 0.149-0.943 0.391v0l-5.333 5.333c-0.242 0.241-0.391 0.574-0.391 0.943s0.149 0.702 0.391 0.943l0 0z"></path>
</svg>
