<!-- Generated by IcoMoon.io -->
<svg version="1.1" xmlns="http://www.w3.org/2000/svg" width="32" height="32" viewBox="0 0 32 32">
<title>tick</title>
<path fill="#d72f6d" d="M32 16c0 8.837-7.163 16-16 16s-16-7.163-16-16 7.163-16 16-16 16 7.163 16 16z"></path>
<path fill="#a42553" d="M29.4 7.275l-14.15 14.65 0.025 1.575h0.65l15.325-12.35c-0.485-1.477-1.112-2.76-1.888-3.936l0.038 0.061z"></path>
<path fill="#f2f1ef" d="M31.7 6.575l-2.825-2.8c-0.181-0.174-0.428-0.281-0.7-0.281s-0.519 0.107-0.7 0.282l0-0-12.075 12.475-5.225-5.15c-0.181-0.174-0.428-0.281-0.7-0.281s-0.519 0.107-0.7 0.282l0-0-2.5 2.475c-0.174 0.177-0.281 0.42-0.281 0.688s0.107 0.511 0.281 0.688l-0-0 8.35 8.275c0.182 0.175 0.43 0.282 0.703 0.282 0.043 0 0.086-0.003 0.127-0.008l-0.005 0c0.037 0.005 0.079 0.007 0.122 0.007 0.273 0 0.521-0.108 0.703-0.283l-0 0 15.425-15.25c0.174-0.181 0.281-0.428 0.281-0.7s-0.107-0.519-0.282-0.7l0 0z"></path>
</svg>
