<?xml version="1.0" encoding="UTF-8"?> <svg xmlns="http://www.w3.org/2000/svg" id="Layer_1" data-name="Layer 1" viewBox="0 0 264.35541 215.46973"><defs><style>.cls-1{fill:#fff;}.cls-2{fill:#dab46c;}.cls-3{fill:#f9efda;}.cls-4{fill:#cbcbcb;}.cls-5{fill:#788f9b;}.cls-6{fill:#eee;}.cls-7{fill:#455a64;}.cls-8{fill:#f9b215;}.cls-9{fill:#c63763;}.cls-10{fill:#554f58;}.cls-11{fill:#fec92a;}.cls-12{fill:#556f7b;}</style></defs><path class="cls-1" d="M264.11279,48.3c0-.1-.1-.3-.1-.4a.36734.36734,0,0,0-.1-.3,21.08782,21.08782,0,0,0-11.4-16.6,9.74238,9.74238,0,0,0-1.1-.5c-.1,0-.1,0-.2-.1a19.31782,19.31782,0,0,0-5.5-1.4,8.60213,8.60213,0,0,0-1.6-.1,15.25121,15.25121,0,0,0,1.1-8.5c0-.2-.1-.3-.1-.5s-.1-.4-.1-.6a20.0447,20.0447,0,0,0-6.2-11.7l-.2-.2-.4-.4a18.43687,18.43687,0,0,0-23.4-1.8,19.03365,19.03365,0,0,0-7.5,10.3,25.15916,25.15916,0,0,0-11.9-12.8,24.64647,24.64647,0,0,0-13.1-2.5,26.20413,26.20413,0,0,0-12.1,4.2,4.0538,4.0538,0,0,1-.9.5,23.49089,23.49089,0,0,0-9.8,13.8,30.94222,30.94222,0,0,0-7.8,1.6,29.51345,29.51345,0,0,0-19.6,30,29.60934,29.60934,0,0,0,9.9,19.8,25.41276,25.41276,0,0,0,6.7,4.5c5.5,2.3,9.4,3.5,15.5,3a32.07819,32.07819,0,0,0,10.3-2.7l.9.9a16.27021,16.27021,0,0,0,5.1,3.4c4.9,2,6.9,2.5,12.3,2.4a20.47638,20.47638,0,0,0,4.2-.7,20.89659,20.89659,0,0,0,8.6-3.5,23.21388,23.21388,0,0,0,4.9-4.5c.1.1.2.1.3.2a18.99168,18.99168,0,0,0,18.7,3.6,18.62236,18.62236,0,0,0,8.5-6.1,21.3541,21.3541,0,0,0,12-.5c8.3-3,15.8-12.6,14.1-21.8Z" transform="translate(0 -0.10695)"></path><path class="cls-1" d="M161.7128,145.8a.36735.36735,0,0,0-.1-.3v-.2a14.39258,14.39258,0,0,0-7.7-11.2c-.3-.1-.5-.3-.8-.4h-.1a14.38353,14.38353,0,0,0-3.7-1c-.4,0-.7-.1-1.1-.1a9.27216,9.27216,0,0,0,.7-5.7.36734.36734,0,0,0-.1-.3c0-.1-.1-.3-.1-.4a13.50024,13.50024,0,0,0-4.1-7.9l-.1-.1-.3-.3a12.44382,12.44382,0,0,0-15.8-1.2,12.21731,12.21731,0,0,0-5,6.9,17.18819,17.18819,0,0,0-8-8.6,16.75424,16.75424,0,0,0-8.8-1.7,16.39942,16.39942,0,0,0-8.1,2.8,2.09213,2.09213,0,0,0-.6.4,15.964,15.964,0,0,0-5.5,6.3,17.178,17.178,0,0,0-1.1,2.9,18.56432,18.56432,0,0,0-5.2,1.1,20.17255,20.17255,0,0,0-11.2,9.9,19.66347,19.66347,0,0,0,4.7,23.6,15.40312,15.40312,0,0,0,4.5,3,19.622,19.622,0,0,0,10.4,2,23.34028,23.34028,0,0,0,7-1.8l.6.6a9.7556,9.7556,0,0,0,3.4,2.3,15.8567,15.8567,0,0,0,8.3,1.6,9.18482,9.18482,0,0,0,2.8-.5,15.35076,15.35076,0,0,0,5.8-2.3,18.66239,18.66239,0,0,0,3.3-3l.2.2a12.81089,12.81089,0,0,0,12.6,2.4,12.61989,12.61989,0,0,0,5.8-4.1,14.05631,14.05631,0,0,0,8.1-.4c5.4-1.9,10.5-8.3,9.3-14.5Z" transform="translate(0 -0.10695)"></path><path class="cls-2" d="M182.61281,153.8l20.3-3.3a2.90709,2.90709,0,0,1,3.4,2.5v.1l12.4-2a2.94563,2.94563,0,0,1,2.4-3.6l20.3-3.3a3.10336,3.10336,0,0,1,3.4,2l8.9,54.2a5.31144,5.31144,0,0,1-4.4,6.1l-54.4,9a5.31145,5.31145,0,0,1-6.1-4.4l-2.4-14.4-3.2-19.6-3.2-19.5a3.24379,3.24379,0,0,1,2.6-3.8Z" transform="translate(0 -0.10695)"></path><path class="cls-3" d="M223.41281,159.8l-17.6,9.2-3.1-18.6,18.6-3.1Z" transform="translate(0 -0.10695)"></path><path class="cls-4" d="M9.9128,135.6a23.1225,23.1225,0,1,1,32.7-.1,23.17663,23.17663,0,0,1-32.7.1Zm26.2-26.3a14.0009,14.0009,0,1,0,.1,19.8,14.03269,14.03269,0,0,0-.1-19.8Z" transform="translate(0 -0.10695)"></path><path class="cls-5" d="M26.71281,115l-.1-47,35.1-.1.1,47Z" transform="translate(0 -0.10695)"></path><polygon class="cls-6" points="0 131.593 32.313 114.893 32.213 67.893 23.013 58.693 0 58.742 0 131.593"></polygon><path class="cls-7" d="M41.81281,101.1a4.43906,4.43906,0,0,1,4.4-4.4h11.3v8.8h-11.3A4.31347,4.31347,0,0,1,41.81281,101.1Z" transform="translate(0 -0.10695)"></path><path class="cls-7" d="M41.71281,81.8a4.43906,4.43906,0,0,1,4.4-4.4h11.3v8.8h-11.3A4.43906,4.43906,0,0,1,41.71281,81.8Z" transform="translate(0 -0.10695)"></path><path class="cls-8" d="M64.61281,61.7l4.5.7,6.3.9a8.8418,8.8418,0,0,1,7.6,8.8l.1,38.4a9.01986,9.01986,0,0,1-7.6,8.9l-6.3,1-4.5.7-7.2,1.1-.2-61.6Z" transform="translate(0 -0.10695)"></path><path class="cls-9" d="M177.41281,143.5l.1-.1a27.24726,27.24726,0,0,1,4.2-4.1,2.09167,2.09167,0,0,1,.6-.4,13.03133,13.03133,0,0,1,1.5-1c.3-.2.7-.4,1-.6a21.15785,21.15785,0,0,1,2.1-1.1c.3-.1.6-.3.9-.4.6-.3,1.3-.5,2-.8.2-.1.4-.1.6-.2a26.80479,26.80479,0,0,1,2.7-.7c.2,0,.4-.1.6-.1s.5-.1.7-.1a27.20987,27.20987,0,0,1,11.7.7,4.842,4.842,0,0,1-2.7,9.3,18.07466,18.07466,0,0,0-7.3-.5c-.6.1-1.1.2-1.7.3-.2.1-.5.1-.7.2-.7.2-1.4.5-2.1.7a.098.098,0,0,0-.1.1,15.45164,15.45164,0,0,0-2.2,1.2c-.1,0-.1.1-.2.1-.6.4-1.1.8-1.7,1.2-.3.3-.6.5-.9.8a9.42907,9.42907,0,0,0-1,1c-.3.3-.5.7-.8,1a7.63176,7.63176,0,0,0-.8,1.1c-.2.4-.5.8-.7,1.2s-.4.7-.6,1.1a5.78222,5.78222,0,0,0-.5,1.4c-.1.4-.3.8-.4,1.2a14.15917,14.15917,0,0,0-.4,2v.2a21.05012,21.05012,0,0,0-.2,2.5v.1a16.35375,16.35375,0,0,0,.2,2.2c0,.2.1.5.1.7a9.36283,9.36283,0,0,0,.4,1.6,17.42052,17.42052,0,0,0,3.5,6.4,4.89183,4.89183,0,1,1-7.4,6.4,26.42657,26.42657,0,0,1-5.5-10.3c-.1-.2-.1-.5-.2-.7,0-.2-.1-.4-.1-.6a25.5831,25.5831,0,0,1-.5-2.7,1.26838,1.26838,0,0,0-.1-.6,14.76732,14.76732,0,0,1-.1-2.1v-1c0-.8.1-1.6.1-2.3,0-.4.1-.8.1-1.2l.3-1.8a1.70178,1.70178,0,0,0,.1-.7,32.415,32.415,0,0,1,1.9-5.5c0-.1,0-.1.1-.2a8.26578,8.26578,0,0,1,.7-1.3l.3-.6.6-.9.6-.9c.1-.2.3-.3.4-.5.2,0,.5-.3.8-.7Z" transform="translate(0 -0.10695)"></path><circle class="cls-5" cx="178.11281" cy="151.59305" r="5.39999"></circle><path class="cls-9" d="M231.41281,125h-.2a27.82261,27.82261,0,0,0-5.8-.5,1.70183,1.70183,0,0,0-.7.1,11.01854,11.01854,0,0,0-1.8.2,5.01967,5.01967,0,0,0-1.2.2,18.91718,18.91718,0,0,0-2.3.5c-.3.1-.6.2-1,.3a15.87236,15.87236,0,0,0-2,.7c-.2.1-.4.1-.6.2a14.2424,14.2424,0,0,0-2.5,1.2c-.2.1-.3.2-.5.3a5.7348,5.7348,0,0,0-.7.4,27.35263,27.35263,0,0,0-8.6,8,4.89539,4.89539,0,1,0,8.1,5.5,17.99361,17.99361,0,0,1,5.3-5,10.92863,10.92863,0,0,1,1.5-.8,4.87605,4.87605,0,0,1,.7-.3,18.02676,18.02676,0,0,1,2.1-.8h.1a22.11384,22.11384,0,0,1,2.5-.5h.2a14.76725,14.76725,0,0,1,2.1-.1,4.86845,4.86845,0,0,1,1.2.1c.5,0,1,.1,1.4.1l1.2.3c.4.1.9.2,1.3.3a6.94358,6.94358,0,0,1,1.3.5c.4.2.8.3,1.2.5s.8.5,1.3.7a6.07019,6.07019,0,0,1,1,.7,10.097,10.097,0,0,1,1.6,1.3l.2.2a15.37147,15.37147,0,0,1,1.7,1.9l.1.1a20.27627,20.27627,0,0,1,1.3,1.8,5.73959,5.73959,0,0,0,.4.7,10.09531,10.09531,0,0,1,.7,1.5,15.98388,15.98388,0,0,1,1.4,7.2,4.901,4.901,0,1,0,9.8.2,28.13815,28.13815,0,0,0-2.3-11.5,4.87306,4.87306,0,0,1-.3-.7,2.18721,2.18721,0,0,0-.3-.5c-.4-.8-.8-1.6-1.3-2.4a1.75583,1.75583,0,0,0-.4-.5c-.4-.6-.8-1.1-1.2-1.7-.2-.3-.4-.5-.6-.8a12.87694,12.87694,0,0,0-1.6-1.7c-.3-.3-.6-.5-.9-.8a17.40829,17.40829,0,0,0-1.4-1.2c-.2-.2-.4-.3-.6-.5a28.79937,28.79937,0,0,0-5-3c-.1,0-.1-.1-.2-.1-.4-.2-.9-.4-1.3-.6a1.4214,1.4214,0,0,0-.6-.2c-.3-.1-.7-.2-1-.3s-.7-.2-1-.3c-.2-.1-.4-.1-.6-.2-.2-.5-.7-.6-1.2-.7Z" transform="translate(0 -0.10695)"></path><circle class="cls-5" cx="236.11279" cy="131.69305" r="5.39999"></circle><path class="cls-8" d="M139.31281,70.1l47,37.1a8.68332,8.68332,0,0,0,10.8-13.6l-47-37.1a8.704,8.704,0,0,0-12.2,1.4A8.615,8.615,0,0,0,139.31281,70.1Z" transform="translate(0 -0.10695)"></path><path class="cls-10" d="M162.61281,80l15,11.9a.91037.91037,0,0,0,1.2-.1l1.5-1.9a.91037.91037,0,0,0-.1-1.2l-15-11.9a.91038.91038,0,0,0-1.2.1l-1.5,1.9A.81676.81676,0,0,0,162.61281,80Z" transform="translate(0 -0.10695)"></path><path class="cls-8" d="M198.20707,138.76l-13.979-36.94434,2.24472-.84936,13.97905,36.94435Z" transform="translate(0 -0.10695)"></path><path class="cls-11" d="M183.61281,102.7l14.3,37.9a8.702,8.702,0,0,0,16.3-6.1l-14.3-37.9a8.702,8.702,0,0,0-16.3,6.1Z" transform="translate(0 -0.10695)"></path><path class="cls-10" d="M195.31281,114.4l6.8,17.9a.85157.85157,0,0,0,1.1.5l2.2-.8a.85155.85155,0,0,0,.5-1.1l-6.8-17.9a.85157.85157,0,0,0-1.1-.5l-2.2.8A.8089.8089,0,0,0,195.31281,114.4Z" transform="translate(0 -0.10695)"></path><circle class="cls-5" cx="191.7128" cy="99.6" r="9.7" transform="translate(62.68992 272.77621) rotate(-80.78253)"></circle><circle class="cls-12" cx="191.7128" cy="99.49305" r="7.1"></circle><circle class="cls-7" cx="191.7128" cy="99.49305" r="2.5"></circle><circle class="cls-5" cx="206.41282" cy="138.39999" r="8.7" transform="translate(36.73626 319.87134) rotate(-80.78253)"></circle><circle class="cls-12" cx="206.41281" cy="138.29305" r="6.39999"></circle><circle class="cls-7" cx="206.41281" cy="138.29305" r="2.3"></circle><path class="cls-11" d="M89.7128,100l53.5-27.2a8.73212,8.73212,0,1,0-7-16l-56.3,20.7c-4.4,1.9-5,10.3-3.1,14.7,1.9,4.5,8.5,9.7,12.9,7.8Z" transform="translate(0 -0.10695)"></path><path class="cls-10" d="M86.61281,90.3l41.6-18.2a.96681.96681,0,0,0,.5-1.2l-1-2.3a.96679.96679,0,0,0-1.2-.5l-41.6,18.2a.96681.96681,0,0,0-.5,1.2l1,2.3A.945.945,0,0,0,86.61281,90.3Z" transform="translate(0 -0.10695)"></path><circle class="cls-5" cx="81.91281" cy="89.99305" r="12.3"></circle><circle class="cls-12" cx="81.91281" cy="89.99305" r="9"></circle><circle class="cls-7" cx="81.91281" cy="89.99305" r="3.2"></circle><circle class="cls-5" cx="144.41281" cy="62.99305" r="10.6"></circle><circle class="cls-12" cx="144.41281" cy="62.99305" r="7.7"></circle><path class="cls-7" d="M141.91281,64.2a2.601,2.601,0,0,0,3.6,1.1,2.7313,2.7313,0,0,0-2.2-5A3.02574,3.02574,0,0,0,141.91281,64.2Z" transform="translate(0 -0.10695)"></path></svg> 