<?xml version="1.0" encoding="UTF-8"?> <svg xmlns="http://www.w3.org/2000/svg" xmlns:xlink="http://www.w3.org/1999/xlink" id="Amanda" viewBox="0 0 583 493.9"><defs><style>.cls-1{mask:url(#mask);filter:url(#luminosity-noclip-2);}.cls-2{mix-blend-mode:multiply;fill:url(#linear-gradient);}.cls-3{fill:none;}.cls-4{mask:url(#mask-2);}.cls-5{fill:#f6f9fc;}.cls-6{fill:#dde1e5;}.cls-7{fill:#d2dbe1;}.cls-8{fill:#f6fbff;}.cls-9{fill:#c2cfde;}.cls-10{fill:#848ea2;}.cls-11{fill:#4b4b4b;}.cls-12{fill:#6c6c6c;}.cls-13{fill:#3a3a3a;}.cls-14{fill:#d0658c;}.cls-15{fill:#c43f6f;}.cls-16{fill:#375861;}.cls-17{fill:#c89922;}.cls-18{fill:#e0b630;}.cls-19{fill:#755649;}.cls-20{fill:#563c33;}.cls-21{fill:#f2d26a;}.cls-22{fill:#abd8f7;}.cls-23{fill:#4a6c78;}.cls-24{fill:#05181b;opacity:0.2;}.cls-25{fill:#6a8a94;}.cls-26{fill:#81a5ac;}.cls-27{fill:#c3cbd7;}.cls-28{fill:#9ea8b3;}.cls-29{fill:#ebf1f8;}.cls-30{fill:#e1963e;}.cls-31{fill:#bfbf1c;}.cls-32{fill:#acae25;}.cls-33{fill:#f8b74c;}.cls-34{fill:#f0ec94;}.cls-35{fill:#d3af52;}.cls-36{fill:#e0d87d;}.cls-37{fill:#40270f;}.cls-38{fill:#241d1d;}.cls-39{fill:#c38f5e;}.cls-40{fill:#a06b39;}.cls-41{fill:#98673a;}.cls-42{fill:#595555;}.cls-43{fill:#373737;}.cls-44{fill:#fff;}.cls-45{fill:#fac800;}.cls-46{fill:#fcdd00;}.cls-47{fill:#623039;}.cls-48{fill:#d4a634;}.cls-49,.cls-53{fill:#f2c3b4;}.cls-49,.cls-50,.cls-52,.cls-67{fill-rule:evenodd;}.cls-50{fill:#19191f;}.cls-51{fill:#261207;}.cls-52,.cls-56{fill:#8c0c5b;}.cls-54{fill:#eabaad;}.cls-55{fill:#39210d;}.cls-57{fill:#84c944;}.cls-58{fill:#9dd46a;}.cls-59{fill:#b68607;}.cls-60{fill:#246e86;}.cls-61{fill:#fbf2dd;}.cls-62{font-size:7.61px;fill:#d4be8c;font-family:SignPainter-HouseScriptSemibold, SignPainter;font-weight:600;letter-spacing:-0.02em;}.cls-63{letter-spacing:0em;}.cls-64{letter-spacing:0em;}.cls-65{letter-spacing:0em;}.cls-66{letter-spacing:0em;}.cls-67{fill:#fdfdfd;}.cls-68{fill:#503024;}.cls-69{fill:#634134;}.cls-70{clip-path:url(#clip-path);}.cls-71{fill:#0021ad;}.cls-72{fill:#e53143;}.cls-73{filter:url(#luminosity-noclip);}</style><filter id="luminosity-noclip" x="39.44" y="-8439.28" width="406.72" height="32766" color-interpolation-filters="sRGB"><feFlood flood-color="#fff" result="bg"></feFlood><feBlend in="SourceGraphic" in2="bg"></feBlend></filter><mask id="mask" x="39.44" y="-8439.28" width="406.72" height="32766" maskUnits="userSpaceOnUse"><g class="cls-73"></g></mask><linearGradient id="linear-gradient" x1="242.8" y1="423.95" x2="242.8" y2="1.33" gradientUnits="userSpaceOnUse"><stop offset="0" stop-color="#fff"></stop><stop offset="1" stop-color="gray"></stop></linearGradient><filter id="luminosity-noclip-2" x="39.44" y="43.61" width="406.72" height="371.99" color-interpolation-filters="sRGB"><feFlood flood-color="#fff" result="bg"></feFlood><feBlend in="SourceGraphic" in2="bg"></feBlend></filter><mask id="mask-2" x="39.44" y="43.61" width="406.72" height="371.99" maskUnits="userSpaceOnUse"><g class="cls-1"><path class="cls-2" d="M425,359a131.51,131.51,0,0,1-33.58,48,129.7,129.7,0,0,1-10.49,8.56H169.62c-40.47-23.51-68.41-60.89-86-102.14q-1.12-2.64-2.31-5.3C66.59,274.71,48.05,241.7,41,205.77c-12.69-64.19,57.47-84,95.72-120.31,14-13.32,21.71-33.11,41.89-39.37,22.69-7,46.89,1.48,61.87,18.5,34.13,38.76,90,80.25,124.27,91.68C432.75,178.9,473.36,241.62,425,359Z"></path></g></mask><clipPath id="clip-path"><path class="cls-3" d="M100.18,241.28a.57.57,0,0,1-.23.22c-.13.06-.49-.11-.7-.1a4.26,4.26,0,0,1-.66-.1h-.16l-.18.12a1.6,1.6,0,0,0-.37-.57c-.2-.14-.08-.24-.08-.24v-.16s-.49-.11-.5,0-.16,0-.25-.05l-.34-.12s-.11,0,.05.14.19.21.18.33a.55.55,0,0,0,.09.39,1.27,1.27,0,0,0,.33.29,1.43,1.43,0,0,0,.16.42,1.68,1.68,0,0,1,.32.48,1,1,0,0,1,.06.42,1.42,1.42,0,0,0,.26.38c.1.06.27.3.09.3h-.53s-.21-.18-.13-.22-.2-.08-.2-.08-.07.16-.12.16h-.12l-.1.14s.12-.27-.16-.22-.29-.06-.29,0a.23.23,0,0,1-.11.19s-.06.16-.06.16-.14-.1-.25-.2a1.32,1.32,0,0,1-.21-.28,1.57,1.57,0,0,1-.23-.27c-.07-.12-.15-.32-.36-.3a1.35,1.35,0,0,0-.38.09s-.25,0-.28,0,.08.26.08.26l0,.18a.37.37,0,0,0-.35-.17c-.23,0-.1.12-.14.14s-.23-.12-.23-.12-.33,0-.36.05-.17.06-.17.06-.14-.06-.16,0,.17.24.13.4a.38.38,0,0,0,.21.42.11.11,0,0,1,.09.14h-.17s-.11.16,0,.16.38.11.34.25-.33.09-.28.17a3.25,3.25,0,0,1,.28.52c0,.1,0,.24,0,.24s.13-.09.22,0,.21.17.18,0,.09-.18.23-.05.09.24.21.24a.9.9,0,0,1,.65.11c.29.18.66.42.7.58s.17.29.19.22l0-.07s-.14-.26-.07-.25a3.8,3.8,0,0,1,.47.26s.44-.06.48,0,0,.2.07.37.06.31.13.29.21-.06.25,0,.21.16.25.13.18.09.14.16-.19.07-.13.18.1-.09.2,0,.32.12.25.33-.23.41.09.63.43.53.61.72a2.43,2.43,0,0,0,.63.4,5.65,5.65,0,0,0,.59.35s.27.15.1.2-.27,0-.39-.11-.27-.11-.23,0a.55.55,0,0,0,.32.2.67.67,0,0,1,.29.08c.08,0,.49.26.41.31l-.13.1s.2.23.11.41c0,0-.06.22-.11.07l-.08-.27s0-.17-.09-.21-.21-.06-.25-.13-.14-.15,0,.13.18.16.27.29a5.34,5.34,0,0,0,.24.48c.12.19.28.21.32.27s.61.36.75.74a5.73,5.73,0,0,1,.33.81,6.58,6.58,0,0,0-.39-.67c-.19-.23-.45-.38-.5-.47s-.06-.28-.1-.25a.15.15,0,0,0-.1.2c0,.13.2.77.22.84s.13,1.19.22,1.49.08-.15.12-.18.35.13.27.21a.18.18,0,0,1-.16.06s-.06,0-.06,0a.81.81,0,0,1,0,.16s.56,2.43.25,2.93c0,0-.09.35-.22.4s-.06.18,0,.2a.35.35,0,0,0,.15,0s0,.14,0,.14.19.05.29,0,.15.05.16.15a1.66,1.66,0,0,1,0,.31s0,.06.1.18.2.13.18.05-.06-.25,0-.18l.15.15h.15l.06.14a.33.33,0,0,1,.25.06c.13.09.28,0,.42.09s.23.29.23.29.07-.08.19.06.18.13.28.1.14-.25.29-.11.32.37.5.4a.74.74,0,0,0,.37-.09s.09.15.2.14h.49c.19,0,.31,0,.3,0s-.15-.32-.11-.36-.07-.19.12-.05a.53.53,0,0,0,.41.14c.19,0,.32.19.37.2a2.39,2.39,0,0,0,.35.07c.07,0,.17.19.24.19a2.67,2.67,0,0,1,.4,0c.08,0,0,.06.16.24s.33.1.41.2,0,.2.14.26.28.11.38-.14.34.09.55.17.31.17.44,0,.2-.33.35-.33.11,0,0-.38l-.34-1.11a1.19,1.19,0,0,1-.23-.23c-.05-.1,0,0,.14,0s.14-.07.16-.14-.06-.24,0-.25.23,0,.31-.13.12,0,.22-.15.56-.91.72-.63.2.21.33.2.67,0,.63.07-.14.12-.08.19a1.48,1.48,0,0,0,.47.07s.35,0,.14-.12-.12-.3.09-.1a.39.39,0,0,0,.31.2H114s.18,0,.16,0,.06.08,0,.14-.06.18,0,.18.42-.1.57,0a1,1,0,0,0,.32.18.16.16,0,0,0,.2.16c.2,0,.13-.2.38-.09s-.06.07,0,.11a.41.41,0,0,0,.22,0,1.66,1.66,0,0,1,0-.16c0-.05.13-.15.19-.06s.11.12.11,0,0-.23.13-.23a.73.73,0,0,0,.32-.11s-.13-.23-.16-.23-.09-.16,0-.19-.16-.09,0-.16.22,0,.28-.12-.11-.34,0-.34.19,0,.22-.08-.06-.19,0-.22a.75.75,0,0,0,.15-.09,1.1,1.1,0,0,0,.09-.15l.11-.05s.25-.12.13-.21-.12,0-.13-.09a1.48,1.48,0,0,1,0-.16l0-.15.09-.08s.12-.07,0-.26a.51.51,0,0,0-.19-.26s0-.13-.15-.06-.4.27-.45.19a.64.64,0,0,0-.55-.25s-.09-.2-.16-.23-.07-.07-.11-.09h0s-.06-.15,0-.16,0-.15,0-.15l-.15-.06s-.1-.08,0-.12a.17.17,0,0,0,.09-.15,2,2,0,0,0-.07-.22l.1-.2-.18-.18s0-.15-.06-.16-.33,0-.34,0a.71.71,0,0,1-.11-.17.48.48,0,0,0-.13-.27l-.09,0s-.35-.4,0-.39c0,0,.15.12.19-.14s.23,0,.23-.18a1,1,0,0,0-.09-.36c0-.05,0,0-.09-.17a1.81,1.81,0,0,0-.32-.26,2.12,2.12,0,0,1-.15-.35h-.12s-.16.13-.29-.5c0,0,.33,0,.25-.23a1,1,0,0,0-.35-.43l-.15-.2h-.13s-.11-.11,0-.16a.43.43,0,0,0-.29-.41s0-.13,0-.12l-.55.21-.09-.07s-.17,0-.15.06a2.16,2.16,0,0,1,.16.34c0,.07,0,.13-.09.16l-.32.05s-.13-.07,0-.14a.82.82,0,0,0,.17-.14l0-.11v-.16s0,0-.08-.12-.22-.14-.15-.28a.15.15,0,0,0,0-.2.66.66,0,0,1,.09-.27,1,1,0,0,0,.2-.39s-.26-.29,0-.45.2-.25.18-.3a1.46,1.46,0,0,1,.15-.35,2,2,0,0,0,0-.33c0-.13.15-.29-.06-.32h0s0-.21,0-.24.17-.08.21,0a.22.22,0,0,0,.19.11h.19s.1-.14.07-.22-.06-.17,0-.19,0-.06,0-.12a.92.92,0,0,0-.12-.16l-.11-.11v-.17l-.1-.46,0-.1-.12-.26-.11-.31.1-.38-.17-.54a1.52,1.52,0,0,0-.07-.47l.11-.22,0-.16.09-.1,0-.4.08-.07s.12-.1-.15-.15a1.88,1.88,0,0,1-.36-.09l-.09,0-.08,0,0-.11-.18,0-.1,0a1.23,1.23,0,0,0-.43-.26c-.19,0-.06.07-.24.07h-.33l-.12-.16a1,1,0,0,0-.23-.08s0,.11,0,.11l0,.09h-.19l0-.18-.11-.1,0-.08-.1,0-.11-.26a2.57,2.57,0,0,0-.29-.15h-.19l-.1,0-.25,0-.08.09-.11,0-.21,0-.13-.16s-.25,0-.24,0,0,.07,0,.07l-.14.08-.25-.29-.07,0-.12-.16-.26-.07-.17-.15-.29-.07a2.5,2.5,0,0,0-.17-.4l-.1-.07-.06-.22v-.12s0-.23,0-.24a1.39,1.39,0,0,0-.22,0,1.15,1.15,0,0,0,0,.29,2.43,2.43,0,0,1,0,.28l-.26.11-.22-.11h-.26s0-.11,0-.16a.13.13,0,0,0-.05-.24.26.26,0,0,1-.19-.17l0-.11h0s-.3-.4-.37-.4H105l0,.22v.19l-.21-.34s0-.39-.12-.4-.52.06-.58-.1-.27-.61-.44-.64a1.8,1.8,0,0,0-.38,0s.09.29,0,.16l-.17-.17s-.15.07-.23-.13a2.79,2.79,0,0,1-.13-.34l-.07-.12s.05-.18-.08-.22-.11,0-.24.1a2.14,2.14,0,0,1-.56.11c-.14,0-.43,0-.47.12a2.8,2.8,0,0,0-.13.28l.55,1.68.19.15-.19-.05-.23.43a2.06,2.06,0,0,1-.47.43c-.16.07-1.38.17-1,1.12,0,0,.06.13.35.2Z"></path></clipPath></defs><g class="cls-4"><path class="cls-5" d="M425,359a131.51,131.51,0,0,1-33.58,48c-3.35,3-2.2,2.87-10.49,2.87H169.62c-40.47-23.52-68.41-55.2-86-96.45q-1.12-2.64-2.31-5.3C66.59,274.71,48.05,241.7,41,205.77c-12.69-64.19,57.47-84,95.72-120.31,14-13.32,21.71-33.11,41.89-39.37,22.69-7,46.89,1.48,61.87,18.5,34.13,38.76,90,80.25,124.27,91.68C432.75,178.9,473.36,241.62,425,359Z"></path></g><ellipse class="cls-6" cx="251.78" cy="404.56" rx="226.9" ry="16.04"></ellipse><polyline class="cls-7" points="393.33 195.79 393.33 201.31 318.15 201.31 318.15 68.2 393.33 68.2 393.33 73.72"></polyline><polyline class="cls-8" points="393.33 195.79 323.1 195.79 323.1 73.72 393.33 73.72"></polyline><path class="cls-7" d="M323.1,132.67v4.17h69.4c0-.69,0-1.39,0-2.08h0c0-.69,0-1.39,0-2.08Z"></path><path class="cls-7" d="M323.1,164.23v1.35h66.75c.28-.44.54-.89.8-1.35Z"></path><path class="cls-7" d="M323.1,104v1.35h67.59c-.26-.45-.52-.9-.8-1.35Z"></path><rect class="cls-7" x="389.16" y="68.2" width="4.17" height="133.11"></rect><rect class="cls-7" x="356.02" y="73.72" width="1.35" height="122.06"></rect><polyline class="cls-7" points="389.17 73.72 389.17 68.2 464.35 68.2 464.35 201.31 389.17 201.31 389.17 195.79"></polyline><polyline class="cls-8" points="389.17 73.72 459.4 73.72 459.4 195.79 389.17 195.79"></polyline><path class="cls-7" d="M459.4,136.84v-4.17H390c0,.69,0,1.39,0,2.08h0c0,.69,0,1.39,0,2.08Z"></path><path class="cls-7" d="M459.4,105.28v-1.35H392.64c-.27.44-.54.89-.8,1.35Z"></path><path class="cls-7" d="M459.4,165.52v-1.35H391.8c.26.45.53.9.8,1.35Z"></path><rect class="cls-7" x="389.16" y="68.2" width="4.17" height="133.11"></rect><rect class="cls-7" x="425.12" y="73.72" width="1.35" height="122.06"></rect><rect class="cls-9" x="240.9" y="327.89" width="3.8" height="54.32" transform="translate(485.6 710.09) rotate(-180)"></rect><rect class="cls-10" x="237.09" y="327.89" width="3.8" height="54.32" transform="translate(477.99 710.09) rotate(-180)"></rect><path class="cls-11" d="M217.54,402.32c0,2.37.81,4.29,1.81,4.29s1.8-1.92,1.8-4.29-.81-4.3-1.8-4.3S217.54,400,217.54,402.32Z"></path><rect class="cls-11" x="219.35" y="398.02" width="5.13" height="8.59" transform="translate(443.82 804.64) rotate(-180)"></rect><path class="cls-12" d="M222.67,402.32c0,2.37.81,4.29,1.8,4.29s1.8-1.92,1.8-4.29-.8-4.3-1.8-4.3S222.67,400,222.67,402.32Z"></path><path class="cls-11" d="M240.9,386.35V393l-46.73,6.55a.66.66,0,0,1-.75-.65V393Z"></path><polygon class="cls-13" points="193.42 393 193.42 394.45 240.9 387.19 240.9 386.35 193.42 393"></polygon><polygon class="cls-13" points="240.9 386.35 217.16 399.65 217.16 393 228.59 389.8 225.72 389.25 240.9 386.35"></polygon><rect class="cls-11" x="217.16" y="393" width="5.63" height="6.65"></rect><polygon class="cls-12" points="240.9 393 222.79 399.65 222.79 393 240.9 386.35 240.9 393"></polygon><polygon class="cls-13" points="240.9 386.35 232.49 386.35 232.49 388.23 240.9 386.35"></polygon><path class="cls-12" d="M264.25,402.32c0,2.37-.8,4.29-1.8,4.29s-1.8-1.92-1.8-4.29.81-4.3,1.8-4.3S264.25,400,264.25,402.32Z"></path><rect class="cls-12" x="257.33" y="398.02" width="5.13" height="8.59"></rect><path class="cls-11" d="M259.13,402.32c0,2.37-.81,4.29-1.8,4.29s-1.81-1.92-1.81-4.29.81-4.3,1.81-4.3S259.13,400,259.13,402.32Z"></path><path class="cls-11" d="M240.9,386.35V393l46.73,6.55a.66.66,0,0,0,.75-.65V393Z"></path><polygon class="cls-13" points="288.38 393 288.38 394.45 240.9 387.19 240.9 386.35 288.38 393"></polygon><polygon class="cls-13" points="240.9 386.35 264.64 399.65 264.64 393 253.21 389.8 256.08 389.25 240.9 386.35"></polygon><rect class="cls-12" x="259" y="393" width="5.63" height="6.65"></rect><polygon class="cls-11" points="240.9 393 259 399.65 259 393 240.9 386.35 240.9 393"></polygon><path class="cls-11" d="M288.38,402.32a4.3,4.3,0,1,0-4.3,4.29A4.31,4.31,0,0,0,288.38,402.32Z"></path><polygon class="cls-13" points="240.9 386.35 249.31 386.35 249.31 388.23 240.9 386.35"></polygon><path class="cls-13" d="M232.49,378.05H249.3a0,0,0,0,1,0,0v7.15a1.15,1.15,0,0,1-1.15,1.15H233.65a1.15,1.15,0,0,1-1.15-1.15v-7.15A0,0,0,0,1,232.49,378.05Z" transform="translate(481.8 764.4) rotate(-180)"></path><path class="cls-11" d="M193.42,402.32a4.3,4.3,0,1,1,4.3,4.29A4.3,4.3,0,0,1,193.42,402.32Z"></path><path class="cls-14" d="M230.46,202.66a9.73,9.73,0,0,0-9.52-8H157.67l18.08,111.94h73.77Z"></path><path class="cls-14" d="M301.63,306.62H212.49v19.45h89.14a9.73,9.73,0,1,0,0-19.45Z"></path><path class="cls-15" d="M238.18,326.07H178a9.72,9.72,0,0,1-9.57-8L147.88,206.16a9.72,9.72,0,1,1,19.13-3.5l19.06,104h52.11a9.73,9.73,0,1,1,0,19.45Z"></path><path class="cls-11" d="M240.9,326.07V335H192.49a5,5,0,0,1-5-5v-3.9Z"></path><path class="cls-12" d="M243.23,326.07h51.08a0,0,0,0,1,0,0V335a0,0,0,0,1,0,0H240.9a0,0,0,0,1,0,0V328.4A2.33,2.33,0,0,1,243.23,326.07Z" transform="translate(535.21 661.03) rotate(-180)"></path><path class="cls-11" d="M240.84,378.05h6a2.47,2.47,0,0,1,2.47,2.47v5.83H238.37v-5.83A2.48,2.48,0,0,1,240.84,378.05Z"></path><ellipse class="cls-16" cx="293.64" cy="269.59" rx="11.49" ry="5.76"></ellipse><polygon class="cls-17" points="149.08 244.96 170.34 244.96 170.34 237.38 149.08 237.38 149.08 244.96 149.08 244.96"></polygon><path class="cls-17" d="M142.18,232.07l-.74,2.88a1.38,1.38,0,0,0,1.39,1.38h4.88a.57.57,0,0,0,.58-.57.59.59,0,0,0-.56-.58l-3.52-.15-.73-3a.68.68,0,0,0-.65-.5.68.68,0,0,0-.65.5Z"></path><polygon class="cls-18" points="176.49 244.85 149.29 244.85 149.29 247.23 157.64 247.23 157.64 248.1 160.75 248.1 161.63 246.38 163.44 246.38 163.95 247.19 166.65 247.19 167.16 246.38 176.49 246.38 176.49 244.85 176.49 244.85"></polygon><path class="cls-18" d="M164.82,241.37v-.43a.44.44,0,0,0-.44-.44h-3.19a.44.44,0,0,0-.44.44v1.65a.44.44,0,0,0,.44.44h3.19a.44.44,0,0,0,.44-.44v-.44h.48v-.78Z"></path><path class="cls-18" d="M159.68,242.63a1.4,1.4,0,1,1-1.4-1.4,1.4,1.4,0,0,1,1.4,1.4Z"></path><path class="cls-17" d="M159.05,242.63a.77.77,0,0,1-.77.76.76.76,0,1,1,0-1.52.77.77,0,0,1,.77.76Z"></path><path class="cls-18" d="M177.45,235.39l-1,9.46h-6.15v-7.47H148.9v-.1a3.88,3.88,0,0,1,3.87-4.14h22.65a2,2,0,0,1,2,2.25Z"></path><path class="cls-17" d="M176.9,240.8l-.05.52h-2.58a.26.26,0,0,1-.26-.26.26.26,0,0,1,.26-.26Z"></path><path class="cls-17" d="M177.07,239.13l0,.53h-2.75a.27.27,0,0,1,0-.53Z"></path><path class="cls-17" d="M177.41,235.81l0,.52h-3.09a.26.26,0,0,1-.26-.26.26.26,0,0,1,.26-.26Z"></path><path class="cls-17" d="M177.24,237.47l-.05.52h-2.92a.26.26,0,0,1-.26-.25.27.27,0,0,1,.26-.27Z"></path><polygon class="cls-18" points="150.45 237.38 149.08 237.38 149.08 227.88 150.45 227.88 150.45 237.38 150.45 237.38"></polygon><polygon class="cls-18" points="165.3 240.07 165.3 244.85 166.64 244.85 166.64 243.41 167.54 243.41 167.54 240.07 165.3 240.07 165.3 240.07"></polygon><path class="cls-18" d="M152.35,249.84l-.77-.18a9.11,9.11,0,0,1-1.09,1.37l.35.74a10.42,10.42,0,0,1-5.39,2.63l-.37-.76a8.63,8.63,0,0,1-1.76,0l-.36.76a10.38,10.38,0,0,1-5.4-2.63l.36-.74a8.58,8.58,0,0,1-1.1-1.37l-.77.18a9.38,9.38,0,0,1-.76-1.6l-.12-.33a10.26,10.26,0,0,1-.4-3.93l.72-.17a9.18,9.18,0,0,1,.38-1.71l-.54-.43a9.51,9.51,0,0,1,3.78-4.67l.51.41a8.5,8.5,0,0,1,1.58-.76V236a9.4,9.4,0,0,1,6,0v.64a8.91,8.91,0,0,1,1.59.76l.5-.41a9.53,9.53,0,0,1,3.78,4.66l-.55.44a8.47,8.47,0,0,1,.39,1.71l.72.17a9.75,9.75,0,0,1-1.28,5.86Z"></path><path class="cls-17" d="M149.47,245a5.27,5.27,0,1,1-5.27-5.27,5.28,5.28,0,0,1,5.27,5.27ZM138,245a6.25,6.25,0,1,0,6.25-6.25A6.25,6.25,0,0,0,138,245Z"></path><path class="cls-17" d="M147.34,245a3.14,3.14,0,1,1-3.14-3.14,3.15,3.15,0,0,1,3.14,3.14Z"></path><path class="cls-18" d="M145.25,245a1.05,1.05,0,1,1-1.05-1.05,1,1,0,0,1,1.05,1.05Z"></path><polygon class="cls-17" points="173.37 247.91 172.48 247.91 172.48 246.38 173.37 246.38 173.37 247.91 173.37 247.91"></polygon><polygon class="cls-17" points="159.05 233.14 160.75 231.61 171.7 233.14 159.05 233.14 159.05 233.14"></polygon><polygon class="cls-17" points="163.89 232.37 162.83 232.37 162.83 229.84 163.89 229.84 163.89 232.37 163.89 232.37"></polygon><polygon class="cls-17" points="164.52 230.81 162.2 230.81 162.2 229.3 164.52 229.3 164.52 230.81 164.52 230.81"></polygon><path class="cls-18" d="M168.43,231.76a.16.16,0,0,1-.16.16H166.8a.16.16,0,0,1-.15-.16v-4.89a.15.15,0,0,1,.15-.15h1.47a.16.16,0,0,1,.16.15v4.89Z"></path><polygon class="cls-18" points="167.83 233.14 167.25 233.14 167.25 223.28 167.83 223.28 167.83 233.14 167.83 233.14"></polygon><polygon class="cls-18" points="149.29 228.34 145.71 228.34 145.71 229.02 149.29 229.02 149.29 228.34 149.29 228.34"></polygon><path class="cls-18" d="M146.17,230.44a.47.47,0,0,1-.46.46h0a.47.47,0,0,1-.46-.46v-3.52a.47.47,0,0,1,.46-.46h0a.47.47,0,0,1,.46.46v3.52Z"></path><rect class="cls-19" x="135.57" y="254.4" width="43.66" height="14.48"></rect><path class="cls-20" d="M135.16,268.88h44.47a1.21,1.21,0,0,1,1.21,1.21v2a0,0,0,0,1,0,0h-46.9a0,0,0,0,1,0,0v-2A1.21,1.21,0,0,1,135.16,268.88Z"></path><path class="cls-17" d="M165.31,266.69H147.87a2.15,2.15,0,0,0-2.15-2.15v-5.79a2.16,2.16,0,0,0,2.15-2.16h17.44a2.16,2.16,0,0,0,2.15,2.16v5.79A2.15,2.15,0,0,0,165.31,266.69Z"></path><path class="cls-21" d="M148.9,266.69s7-10.1,7.42-10.1h3.39l-7.45,10.1Z"></path><polygon class="cls-21" points="153.68 266.69 160.75 256.6 162.2 256.6 154.94 266.69 153.68 266.69"></polygon><path class="cls-18" d="M176.11,252.62l-.3-.07a3.64,3.64,0,0,1-.43.54l.14.28a4,4,0,0,1-2.11,1l-.14-.29a4,4,0,0,1-.69,0l-.14.29a4,4,0,0,1-2.11-1l.14-.28a4.43,4.43,0,0,1-.43-.54l-.3.07a3.64,3.64,0,0,1-.3-.63s0-.08,0-.12a4,4,0,0,1-.16-1.54l.28-.07a4,4,0,0,1,.15-.67l-.21-.17a3.68,3.68,0,0,1,1.48-1.82l.19.16a3.93,3.93,0,0,1,.62-.3v-.25a3.64,3.64,0,0,1,2.35,0v.25a3.54,3.54,0,0,1,.62.3l.2-.16a3.79,3.79,0,0,1,1.48,1.82l-.22.17a4,4,0,0,1,.15.67l.28.07a3.76,3.76,0,0,1-.5,2.29Z"></path><path class="cls-17" d="M175,250.71a2.06,2.06,0,1,1-2.06-2.06,2.06,2.06,0,0,1,2.06,2.06Zm-4.51,0a2.45,2.45,0,1,0,2.45-2.45,2.45,2.45,0,0,0-2.45,2.45Z"></path><path class="cls-17" d="M174.15,250.71a1.23,1.23,0,1,1-1.22-1.23,1.23,1.23,0,0,1,1.22,1.23Z"></path><rect class="cls-22" x="309.52" y="184.4" width="100.23" height="68.06" rx="2.06"></rect><rect class="cls-23" x="309.52" y="184.4" width="100.23" height="68.06" rx="2.06"></rect><path class="cls-24" d="M407.69,184.4H311.58a2.07,2.07,0,0,0-2.06,2.07V250.4a2.06,2.06,0,0,0,2.06,2.06h3.54a2,2,0,0,1-2-2V190.07a2,2,0,0,1,2-1.95h92.64a2,2,0,0,1,2,1.95v-3.6A2.07,2.07,0,0,0,407.69,184.4Z"></path><rect class="cls-16" x="347.58" y="210.18" width="24.11" height="60.12" rx="1.79"></rect><path class="cls-24" d="M347.58,256.42v13.12a1.79,1.79,0,0,0,1.79,1.78h20.54a1.78,1.78,0,0,0,1.78-1.78V256.42Z"></path><rect class="cls-16" x="335.51" y="265.97" width="48.26" height="6.19" rx="2.06"></rect><path class="cls-25" d="M355.64,233l9.1,12.15a9.18,9.18,0,0,1-6.13,2.47,7,7,0,0,1-7.08-8.11A9.43,9.43,0,0,1,355.64,233Z"></path><path class="cls-26" d="M360.67,231.38a7,7,0,0,1,7.08,8.11,9.32,9.32,0,0,1-3,5.64L355.64,233A9,9,0,0,1,360.67,231.38Z"></path><rect class="cls-27" x="373.7" y="285.45" width="6.46" height="114.89" transform="translate(753.87 685.79) rotate(-180)"></rect><rect class="cls-28" x="370.47" y="285.45" width="45.87" height="24.42" transform="translate(786.82 595.32) rotate(-180)"></rect><rect class="cls-29" x="137.56" y="272.09" width="302.8" height="13.36" rx="4.54"></rect><path class="cls-7" d="M83.1,272.09h59a4.54,4.54,0,0,0-4.54,4.54v4.28a4.54,4.54,0,0,0,4.54,4.54h-59a4.54,4.54,0,0,1-4.54-4.54v-4.28A4.54,4.54,0,0,1,83.1,272.09Z"></path><rect class="cls-28" x="89.77" y="285.45" width="6.46" height="114.89" transform="translate(186 685.79) rotate(-180)"></rect><rect class="cls-27" x="96.23" y="285.45" width="6.46" height="114.89" transform="translate(198.92 685.79) rotate(-180)"></rect><rect class="cls-28" x="135.64" y="285.45" width="6.46" height="122.68" transform="translate(277.74 693.57) rotate(-180)"></rect><rect class="cls-27" x="142.1" y="285.45" width="6.46" height="122.68" transform="translate(290.66 693.57) rotate(-180)"></rect><rect class="cls-28" x="91.08" y="285.45" width="49.71" height="34.86" transform="translate(231.87 605.75) rotate(-180)"></rect><rect class="cls-28" x="367.24" y="285.45" width="6.46" height="114.89" transform="translate(740.95 685.79) rotate(-180)"></rect><rect class="cls-28" x="413.11" y="285.45" width="6.46" height="122.68" transform="translate(832.68 693.57) rotate(-180)"></rect><rect class="cls-27" x="419.57" y="285.45" width="6.46" height="122.68" transform="translate(845.61 693.57) rotate(-180)"></rect><rect class="cls-7" x="148.56" y="285.45" width="264.55" height="34.59"></rect><path class="cls-30" d="M103.35,358.51,53.47,360c-1.35,11.64-1.43,20.15,0,29,.87,5.29,4.07,10.7,13.66,14.44h26.4c8.34-5.22,11-11.13,11.59-16.5C106.08,378.39,104.9,368.69,103.35,358.51Z"></path><path class="cls-31" d="M33.1,357.8c-2.88,7.5-12.12,14.72-7.5-1.15,0,0-4.33-2.31,2.6-8.09,0,0-4-2.88,2.3-6.92,0,0-6.06-2.31,8.08-9.24,0,0-1.15-6.63,14.15-9.52,0,0-16.45-2.31-5.78-8.37,0,0-12.12-6.06,18.47.29,0,0-5.77-2.89.87-3.75s29.15-2.31,23.38,1.15c0,0,20.77,2.89,13.56,6.06,0,0,9.52,0,13,5.77s1.73,6.35-3.47,3.47c0,0,8.66,6.64,5.49,9.52s-4.33.87-4.33.87,7.5,11,1.15,8.37c0,0,7.22,18.18,1.44,23.08,0,0,0,12.12-4.32,8.37s-5.49-13.56-5.49-13.56-1.15,11.83-6.35,11-4.9-8.37-4.9-8.37-.58,6.06-5.77,6.06-7.8-12.41-7.8-12.41-2.88,6.35-6.06-.29-2.59,7.5-8.65,9.23S60.81,367,60.81,367s-.87,8.09-4.91,9-5.19-5.19-5.19-5.19-6.64,2-6.35-6.93c0,0-2,6.35-4,3.17C36.31,366.4,31.11,374.91,33.1,357.8Z"></path><path class="cls-32" d="M71,359.93c-10.77-14.8-13.75-32.33-9.17-45.86C35.86,309,47,314.51,47,314.51c-10.67,6.06,5.78,8.37,5.78,8.37-15.3,2.89-14.15,9.52-14.15,9.52-14.14,6.93-8.08,9.24-8.08,9.24-6.34,4-2.3,6.92-2.3,6.92-6.93,5.78-2.6,8.09-2.6,8.09-4.62,15.87,4.62,8.65,7.5,1.15-5.16,10.91-.08,29.13,7.22,9.23,2,3.18,4-3.17,4-3.17-.29,8.95,6.35,6.93,6.35,6.93s1.15,6.06,5.19,5.19,4.91-9,4.91-9,.28,4,6.35,2.31c2.92-.83,4.3-4.57,5.3-7.45C72,361.25,71.46,360.59,71,359.93Z"></path><path class="cls-32" d="M49.2,347c6.35,2.61,16.55-.92,17.09-7.08S50.7,336.21,49.2,347Z"></path><path class="cls-31" d="M61.42,349.26c6.34,2.61,16.54-.92,17.09-7.08S62.92,338.52,61.42,349.26Z"></path><ellipse class="cls-33" cx="101.82" cy="382.85" rx="1.88" ry="5.05"></ellipse><path class="cls-33" d="M100.84,394.45c.76-1.4.79-2.87,0-3.27s-1.94.4-2.7,1.81-.79,2.87-.06,3.27S100.07,395.86,100.84,394.45Z"></path><polygon class="cls-33" points="97.01 402.54 60.45 403.12 59.49 406.58 97.01 406.58 97.01 402.54"></polygon><path class="cls-31" d="M59.83,360.07c5.63.91,13.21-3.88,12.47-9S59,351.1,59.83,360.07Z"></path><path class="cls-31" d="M55.7,321.45c4.07,5.52,14.62,7.81,18.28,2.83S62.57,313.06,55.7,321.45Z"></path><path class="cls-31" d="M52.47,336.27c6.35,2.62,16.55-.91,17.09-7.07S54,325.53,52.47,336.27Z"></path><path class="cls-31" d="M43.87,312.11c2.93,3.45,15,6.55,21.29,4.83S55.34,309.34,43.87,312.11Z"></path><path class="cls-31" d="M65.49,369.94c5.81-.78,12.09-8.07,10-13.13S62.34,360.87,65.49,369.94Z"></path><path class="cls-34" d="M68.63,330.61c-2.13-1.88,2-3.46,3.32-3.6,0,0-4.91-1.3-3.46-3.18s4.33-3.32,6.2-1.44c0,0,.58-3.9,3-3s1.88,4,1.88,4,2.59-2.74,4.62-.58-.87,4.33-.87,4.33c2.89.72,3.17,2.31,1.15,4.19s-4.76-1.45-4.76-1c0,0-.43,4.47-3.61,4s-2.45-4-2.45-4S71.08,332.78,68.63,330.61Z"></path><path class="cls-34" d="M91.29,342.38c-1.16-2.1,2.59-2.17,3.66-1.92,0,0-3.52-2.42-1.84-3.5s4.38-1.4,5.33.62c0,0,1.57-2.93,3.27-1.54s.34,3.74.34,3.74,2.84-1.44,3.83.85-1.92,3.19-1.92,3.19c2.08,1.4,1.86,2.74-.28,3.65s-3.37-2.5-3.49-2.15c0,0-1.62,3.42-4,2.17s-.8-3.9-.8-3.9S92.62,344.8,91.29,342.38Z"></path><path class="cls-35" d="M101.57,342.64c.3-.67-.42-1.63-1.6-2.15s-2.37-.4-2.67.27.43,1.63,1.61,2.15S101.28,343.31,101.57,342.64Z"></path><path class="cls-35" d="M79.16,326.75a2.41,2.41,0,1,0-2.3,1.84A2.1,2.1,0,0,0,79.16,326.75Z"></path><path class="cls-36" d="M41.45,354.94c-2.76-.71.22-4,1.31-4.72,0,0-5,1.07-4.53-1.26s2.35-4.92,4.87-4.1c0,0-1.26-3.74,1.32-4.08s3.51,2.74,3.51,2.74,1.06-3.62,3.85-2.61,1.2,4.25,1.2,4.25c2.89-.67,3.87.61,2.93,3.2s-4.9.88-4.7,1.27c0,0,1.65,4.18-1.38,5.24s-4-2.49-4-2.49S44.61,355.75,41.45,354.94Z"></path><path class="cls-35" d="M49.07,346.7A2.41,2.41,0,0,0,45,348.89a2.1,2.1,0,0,0,2.9.5A2.13,2.13,0,0,0,49.07,346.7Z"></path><path class="cls-37" d="M395.1,241.6a14.82,14.82,0,0,1,.21-1.63,2.74,2.74,0,0,1,.32-.82,17.38,17.38,0,0,1,.93,3c.45,2.23,1.25,4.19,1.61,6.34a22.66,22.66,0,0,0,.45,2.41c1.24,4.59,2.15,9.51,1,14.13-1.83-3.44-2.63-7.3-3.37-11.2A47.3,47.3,0,0,1,395.1,241.6Z"></path><path class="cls-38" d="M398.62,250.87a22.66,22.66,0,0,1-.45-2.41c-.36-2.15-1.16-4.11-1.61-6.34a17.38,17.38,0,0,0-.93-3,1,1,0,0,1,1.37-.47,10.91,10.91,0,0,1,2.39,2.5c.57.67,1.11,1.35,1.68,2,4.78,5.59,10.26,11.75,9.73,19.64a10,10,0,0,1-.11,1.07,8.38,8.38,0,0,1-.13.83,9.07,9.07,0,0,1-1.82,4.59c-2.08,2.38-5.1,1.09-6.84-1a18,18,0,0,1-2.27-3.37C400.77,260.38,399.86,255.46,398.62,250.87Z"></path><path class="cls-39" d="M501.84,399.62c1.23-.36,2.53,0,3.68-.54a1.75,1.75,0,0,0,.77-.86,8,8,0,0,0,.4-1.16c.09-.36.18-.72.26-1.08.25-1.06.48-2.06.66-3,0,0,0-.06,0-.08a17,17,0,0,0,1.36,2.93c.79,1.17,1.65,2.15,2.38,3.4a11.32,11.32,0,0,0,4.54,4.47c1.87.89,3.6,2.14,5.47,2.85a37.71,37.71,0,0,0,9.15,2.68c5,.54,10-.26,14.92,0a28.6,28.6,0,0,1,10.95,2.28,28.31,28.31,0,0,1,4.21,2.7,10.83,10.83,0,0,1,1.08.87,5.5,5.5,0,0,1,.47.49c.07.07.36.54.44.53q-10.05.19-20.11.16c-7.28,0-14.56-.38-21.84-.38-2.82-.14-5.66-.1-8.46-.44a8.68,8.68,0,0,1-5.78-2.91c-.29-.32-.58-.66-.86-1s-.47-.8-.73-1.19a24.13,24.13,0,0,1-3.54-7.17C501,402,500.47,400.06,501.84,399.62Z"></path><path class="cls-40" d="M403.35,354.74a11.79,11.79,0,0,0,.38,1.84,29,29,0,0,1,2.46,6.59,23.26,23.26,0,0,1,.43,2.33c.86,6.38-1.17,12.73-3.83,18.46-2.47,5.3-5.31,11.58-9.16,16a21.62,21.62,0,0,1-5.1,4.27c-4.35,2.67-12,1.05-13.7,7.09-.09.2-.18.41-.26.63a2.78,2.78,0,0,0-.14,2,.71.71,0,0,0,.51.33,40.8,40.8,0,0,0,8.27.23c1.91,0,3.84-.11,5.75-.16a18.41,18.41,0,0,0,2.88-.11,12,12,0,0,0,2.52-.83c2.67-1,4.34-3.15,6.14-5.21,5.87-6.69,10.83-14.08,15.86-21.39l1.08-1.57c3.42-5.09,7.35-10.09,8.62-16.19.11-.52.19-1.05.25-1.59.53-4.19-5.18-2.23-8-2.76a3.2,3.2,0,0,1-2-1.07c-.5-.46-1-.91-1.51-1.35l-1.5-1.31a25.68,25.68,0,0,0-4.71-3.47c-.81-.52-1.64-1-2.48-1.46S404.28,355.13,403.35,354.74Z"></path><path class="cls-39" d="M452.8,375.05c2.81-4.47,7.72-7,12.45-8.72.87-.32,1.75-.61,2.63-.87s1.77-.48,2.65-.69a19.47,19.47,0,0,1,3.22-.35c2.23-.18,4.55.09,6.79-.18a49.5,49.5,0,0,1,8.93-.18,13.73,13.73,0,0,1,3.22.89c3.81,1,7.41,1.76,11.08,2.74a64.82,64.82,0,0,1,3.65,8.23,44.26,44.26,0,0,1,2.42,21,35.8,35.8,0,0,1-.8,5.14,25.3,25.3,0,0,1-1.16,4,18.67,18.67,0,0,1-7.78,9.55c-5.63,3.39-12.15,1.78-18.23,1.33-1.19-.27-2.37-.59-3.52-1s-2.28-.78-3.38-1.24-2.2-1-3.26-1.5c-4-2.38-8.27-4.2-12.19-6.64q-1-.61-1.92-1.29a35.4,35.4,0,0,1-2.93-2.44,17.8,17.8,0,0,1-4.76-6.21,20.38,20.38,0,0,1-.93-2.39c-2.21-6.44.56-13.14,3.54-18.81A1.19,1.19,0,0,0,452.8,375.05Z"></path><path class="cls-39" d="M393,327.62a29.91,29.91,0,0,1,.51-3.17c3.6-9.26,3-19.26,2.55-29q0-1.23.09-2.43c.31-4,1.55-7.76,4.74-10.69a20,20,0,0,1,2.19-1.91,24.93,24.93,0,0,1,5-2.89c1-.52,2.05-1,3.07-1.44.61-.25,1.23-.49,1.84-.76.45-.28,1-.46,1.44-.73,3.21-2.05,5.54-7,9.56-5.18a10.77,10.77,0,0,1,2,1.14,11.46,11.46,0,0,1,1.68,1.5,19.22,19.22,0,0,1,2.17,2.92c2.11,3.4,4.13,6.85,6.14,10.31,6.48,11.16,13.62,22.76,23.4,31.36,10,8.75,19.82,17.74,28.25,28,5.83,7.11,11.77,14.71,16.11,23-3.67-1-7.27-1.7-11.08-2.74a13.73,13.73,0,0,0-3.22-.89,49.5,49.5,0,0,0-8.93.18c-2.24.27-4.56,0-6.79.18a19.47,19.47,0,0,0-3.22.35c-1.79.5-3.55.92-5.27,1.46a23.36,23.36,0,0,0-2.54.92,14.62,14.62,0,0,0-7.11,5.67,55.59,55.59,0,0,1-4.64,6.25,3,3,0,0,0-.45,1.25c-.45,3-.27,6.07-1.25,9-3.31-5.89-10.19-8.13-15.71-11.31-.83-.44-1.65-.89-2.43-1.37-1.23-.54-2.44-1.08-3.64-1.65a39.44,39.44,0,0,1-10-6.34c-.64-.67-1.29-1.33-1.95-2-9.92-10.06-21.6-20.72-22.64-35.36A21.61,21.61,0,0,1,393,327.62Z"></path><path class="cls-40" d="M461.48,407a14.83,14.83,0,0,1-1.88-3.83,32.11,32.11,0,0,1-1-3.17,28,28,0,0,1-.58-3.27c-.57-7.37,1.12-15.32,7.47-20.14a18.18,18.18,0,0,1,4.86-2.65c9.88-3.25,21-.57,29.43,5.11.95.56,1.88,1.15,2.79,1.76s1.81,1.26,2.69,1.92c1,.5,2,.94,3,1.35h0a6.55,6.55,0,0,1,1.4.87,41.59,41.59,0,0,1,.12,12,35.8,35.8,0,0,1-.8,5.14,25.3,25.3,0,0,1-1.16,4,18.67,18.67,0,0,1-7.78,9.55c-5.63,3.39-12.15,1.78-18.23,1.33-1.19-.27-2.37-.59-3.52-1s-2.28-.78-3.38-1.24-2.2-1-3.26-1.5c-1.88-1.12-3.84-2.12-5.78-3.12-1.67-.87-3.23-1.49-4.4-3.06Z"></path><path class="cls-39" d="M415.77,277.58c1.07,4.65-.27,9-2.33,13.13a2.18,2.18,0,0,1-2.85,1.17c-1-.36-2.42-.45-3,.09-2.24,2-2.15,5.36-3.75,8-.27.44-.54,1.07-1,1.25-1.87.89-4.29,1-5.36,2.94-.33.58-.7,1.12-1.07,1.66,0-3.46-.18-6.94-.33-10.38q0-1.23.09-2.43c.31-4,1.55-7.76,4.74-10.69a20,20,0,0,1,2.19-1.91,24.93,24.93,0,0,1,5-2.89c1-.52,2.05-1,3.07-1.44.61-.25,1.23-.49,1.84-.76.45-.28,1-.46,1.44-.73l.45-.3C415.16,275.39,415.51,276.45,415.77,277.58Z"></path><path class="cls-38" d="M457.51,336.46c.51-1.35,1.23-2.69.87-4.11-.09-.09-.54.17-.71.44a34.93,34.93,0,0,0,1.87-6.06,6.38,6.38,0,0,0,.07-1.22,3.66,3.66,0,0,0-1.59-3.08c-1.43-1-3.48-.28-5,.22a20.47,20.47,0,0,0-4.32,2c-1.27.79-2.45,1.89-4,2.12a2,2,0,0,1-1.43-.25c-2.32-1.51,0-5.53.94-7.16s2.22-3,2.62-4.8a3.68,3.68,0,0,0-.1-2.13c-.8-2-3.16-2.21-4.95-1.72-1.61.43-3.93,1.43-5.15-.27-1-1.35-.8-3.1-.54-4.65.22-1.35.69-3.19-.19-4.39s-2.77-1.4-4-2.16-2.29-1.88-1.83-3.52a7.58,7.58,0,0,1,.47-1.1,18.29,18.29,0,0,0,1.56-8.76c-.07-1.59,1.58-.48,1.33-2-.11-.77.73.61.6-.15-.1-.6.05-1.64-.26-2.15,2.68,4.46,2.26,3.9,4.95,8.34l1.11,1.85,2.23,3.68,1.34,2.08a98.87,98.87,0,0,0,13.89,17.25l1,1a7.18,7.18,0,0,1,1.28,1.17c.27.45.09,1,.45,1.43a9.6,9.6,0,0,1,.54.92,8.73,8.73,0,0,1,.44.93c.14.42.27.85.37,1.27s.19.86.25,1.3a19.69,19.69,0,0,1-.06,3.6c0,.4-.09.8-.16,1.19-.67,3.65-2.36,7.05-3.79,10.53a4,4,0,0,0,1.07-1.6c.09-.45-.27-.9-.63-.81-.09,0-.27.27-.19.47A1.93,1.93,0,0,1,457.51,336.46Z"></path><path class="cls-38" d="M507.42,398.51a12.31,12.31,0,0,0,.31-2.33c0-.39,0-.77,0-1.16a34.51,34.51,0,0,0-.45-3.48c-.07-.38-.15-.77-.24-1.15s-.26-.91-.42-1.35a14.34,14.34,0,0,0-1.89-3.72c-.27-.44-.55-.87-.83-1.29a37.25,37.25,0,0,0-7-7.92A33,33,0,0,0,474.5,367a29.39,29.39,0,0,0-3.51.21c-5.73.81-11.81,2.51-15.2,8a1.32,1.32,0,0,1-1.88.27c-2.59-2.42-2.32-6.26-1.27-9.37.24-.82.53-1.64.83-2.42s.62-1.55.92-2.27a13.9,13.9,0,0,0,.82-2.88,10.22,10.22,0,0,0,0-3.08c-.71-5.53-3.66-11-1.51-16.43.38-.85.81-1.68,1.27-2.5,2.27-4.09,5.12-7.9,5.81-12.52a10,10,0,0,0,0-2.32,6.33,6.33,0,0,0-.55-2c-.09-.18-.09-.54-.18-.8l-.27-.27c-.09-.36.09-.72,0-1.07a2.35,2.35,0,0,1-.19-.66c9.89,8.69,19.66,17.63,28,27.84a178.09,178.09,0,0,1,12.27,16.4c.53.83,1,1.66,1.55,2.5a56.45,56.45,0,0,1,7.62,17.87q.19.86.36,1.74a33.19,33.19,0,0,1,.48,7.12c0,.54-.07,1.06-.13,1.6a30.83,30.83,0,0,1-.55,3.68c-.09.41-.18.81-.29,1.22a21.59,21.59,0,0,1-1.86,4.81,11.61,11.61,0,0,1,.13-2.13C507.29,399.2,507.35,398.87,507.42,398.51Z"></path><path class="cls-39" d="M419,338.65a64.84,64.84,0,0,1-11.73-3.9c-.75-.34-1.48-.71-2.21-1.1-5.3-3.72-9.32-8.72-14.15-13.1-.56-.53-1.13-1.05-1.72-1.54a42.72,42.72,0,0,0-4.85-3.36c-.56-.34-1.14-.66-1.71-1a26.44,26.44,0,0,0-10-3.05c-.5-.06-1-.1-1.49-.14-5.14-.26-10.77-2-15.21,1.33a7.09,7.09,0,0,0-1.1.94,6.67,6.67,0,0,0-1.56,2.49,5.48,5.48,0,0,0-.19,1.49,3.6,3.6,0,0,0,.3.91,3.68,3.68,0,0,0,2.05,1.94,8.07,8.07,0,0,0,.9.37c1.56.56,3.4.84,4.79,1.19.93.24,1.85.48,2.78.68s1.88.39,2.84.52l1.33.13,1.32.14,2.08.22c2.62.2,5.21.82,7.08,2.7,3.58,3.48,7.06,6.88,10.53,10.28.41.47.82.95,1.22,1.44,1.21,1.46,2.38,3,3.57,4.5a24.23,24.23,0,0,1,1.65,2.43c1.9,2.77,3.89,5.8,6.06,8.72.73,1,1.47,1.94,2.24,2.88,4.84,5.57,10.65,12.09,18.33,12,4.47-.08,6.07-5.44,7.75-9,.38-.86.73-1.71,1.05-2.52a7.65,7.65,0,0,0,.31-3.28c-.62-6.08-5.89-9.74-10.09-13.43Z"></path><path class="cls-40" d="M486.12,408.79c-2.13-.58-4.72-.13-6.91-.13-5,0-10.07-.29-15.11-.29-4,0-8.13.81-11.35,3.22-1.65,1.24-1.49,5,.65,5.75a4.74,4.74,0,0,0,1.41.17c9.62.12,19.23,0,28.85,0,1.95,0,4.67-.84,5.74-2.62s-.1-4.08-1.61-5.25A4.49,4.49,0,0,0,486.12,408.79Z"></path><path class="cls-39" d="M402.84,256.06a67.91,67.91,0,0,0-7.47,3.65c-.39.2-.78.41-1.16.64a14.74,14.74,0,0,0-2.17,1.54c-.42.39-.82.79-1.2,1.22s-.71,1-1,1.48c-1.63,2.52-2.87,5.27-5.46,6.83-.35.25-.7.48-1,.7-3,1.89-6.44,3-9.52,4.8-.54.31-1.07.64-1.6,1-1.52,1.19-4.56,1.91-4.11,4.23a6.23,6.23,0,0,0,.46,1.5,7.77,7.77,0,0,0,.79,1.33,20.89,20.89,0,0,0,3.63,3.78c.46.38.94.73,1.42,1.06a9.52,9.52,0,0,0,5.05,1.89l2.08.24c.68.08,1.37.15,2.05.21,5.87.44,13.38,3.57,17.5-2.62a17.72,17.72,0,0,1,1.72-1.75l1.51-1.29c2-1.72,4-3.46,6-5.07a48.52,48.52,0,0,1,6.22-4.24l1.29-.74A4.62,4.62,0,0,1,419,276a4.91,4.91,0,0,1,1.33-.08c3.12.25,5.44,2.4,8.39,3.38.89.27,2.59.27,2.5,0-.8-4.82-4.29-8.31-6.07-12.78a14.89,14.89,0,0,0-2.22-3.55c-.41-.54-.84-1.08-1.27-1.6-.36-.33-.74-.65-1.12-1-1.13-.92-2.3-1.79-3.43-2.61q-.86-.5-1.74-.9a18.47,18.47,0,0,0-2-.78l-1-.3a22.06,22.06,0,0,0-2.57-.52c-.43-.06-.87-.11-1.3-.13A13.78,13.78,0,0,0,402.84,256.06Z"></path><path class="cls-39" d="M402.84,256.06a67.91,67.91,0,0,0-7.47,3.65c-.39.2-.78.41-1.16.64a14.74,14.74,0,0,0-2.17,1.54c-.42.39-.82.79-1.2,1.22s-.71,1-1,1.48c-1.63,2.52-2.87,5.27-5.46,6.83-.35.25-.7.48-1,.7-3,1.89-6.44,3-9.52,4.8-.54.31-1.07.64-1.6,1-1.52,1.19-4.56,1.91-4.11,4.23a6.23,6.23,0,0,0,.46,1.5,7.77,7.77,0,0,0,.79,1.33,20.89,20.89,0,0,0,3.63,3.78c.46.38.94.73,1.42,1.06a9.52,9.52,0,0,0,5.05,1.89l2.08.24c.68.08,1.37.15,2.05.21,5.87.44,13.38,3.57,17.5-2.62a17.72,17.72,0,0,1,1.72-1.75l1.51-1.29c2-1.72,4-3.46,6-5.07a48.52,48.52,0,0,1,6.22-4.24l1.29-.74A4.62,4.62,0,0,1,419,276a4.91,4.91,0,0,1,1.33-.08c3.12.25,5.44,2.4,8.39,3.38.89.27,2.59.27,2.5,0-.8-4.82-4.29-8.31-6.07-12.78a14.89,14.89,0,0,0-2.22-3.55c-.41-.54-.84-1.08-1.27-1.6-.36-.33-.74-.65-1.12-1-1.13-.92-2.3-1.79-3.43-2.61q-.86-.5-1.74-.9a18.47,18.47,0,0,0-2-.78l-1-.3a22.06,22.06,0,0,0-2.57-.52c-.43-.06-.87-.11-1.3-.13A13.78,13.78,0,0,0,402.84,256.06Z"></path><path class="cls-37" d="M408,266.58a4.89,4.89,0,0,0-.17-1.42,11.88,11.88,0,0,0-3.22-4.64c-1.26-1.26-2.6-2.41-3.93-3.55.71-.33,1.44-.64,2.17-.91a13.78,13.78,0,0,1,5.59-.91c.43,0,.87.07,1.3.13a22.06,22.06,0,0,1,2.57.52l1,.3a18.47,18.47,0,0,1,2,.78q.88.4,1.74.9c6.07,2.38,8,9.26,5.46,15-.09.2-.27.56-.52,1-1.71,3.25-6.43,12-8.37,7.77a6,6,0,0,1-.38-2.42c-.05-1.77-.44-3.93-2-5-1.81-1.21-3.33-2.61-5-3.84a6.69,6.69,0,0,0,1.41-2.27A5.31,5.31,0,0,0,408,266.58Z"></path><path class="cls-41" d="M372.17,277.91c.53-.35,1.06-.68,1.6-1,3.08-1.76,6.49-2.91,9.52-4.8.35-.22.7-.45,1-.7,2.59-1.56,3.83-4.31,5.46-6.83.33-.51.67-1,1-1.48s.78-.83,1.2-1.22a14.74,14.74,0,0,1,2.17-1.54c.38-.23.77-.44,1.16-.64l.87-.45.68-.35a29,29,0,0,1,7-3.22,5.22,5.22,0,0,0-.74,1.63,2.07,2.07,0,0,0,.12,1.45,14.75,14.75,0,0,0,2,2.33,14.76,14.76,0,0,1,1.83,2.47,5.05,5.05,0,0,1,.28.51,7.19,7.19,0,0,1,.44,1.08,5.5,5.5,0,0,1-4.38,6.62c-1.52.35-1.79,2.14-1.88,3.48-.36,5.45,1.7,12.24-2.86,16.26a9.88,9.88,0,0,1-1.72,1.25c-4.06,1.43-9.18-.3-13.44-.62-.68-.06-1.37-.13-2.05-.21l-2.08-.24a9.52,9.52,0,0,1-5.05-1.89c-.48-.33-1-.68-1.42-1.06a20.89,20.89,0,0,1-3.63-3.78,7.77,7.77,0,0,1-.79-1.33,6.23,6.23,0,0,1-.46-1.5C367.61,279.82,370.65,279.1,372.17,277.91Z"></path><path class="cls-38" d="M372.17,277.91q.79-.53,1.59-1c4-1.57,9.22-4.25,13.24-1.48a17,17,0,0,1,3.81,4.4l1,1.69a18.31,18.31,0,0,0,1.14,1.63,32.85,32.85,0,0,1,2.59,3.07,4.56,4.56,0,0,1,.62,3.95c-.27,1.25-1.16,2.77-2.59,3l0,.1c-3.31.08-6.94-.93-10.09-1.17-.68-.06-1.37-.13-2.05-.21l-2.08-.24a9.52,9.52,0,0,1-5.05-1.89c-.48-.33-1-.68-1.42-1.06a20.89,20.89,0,0,1-3.63-3.78,7.77,7.77,0,0,1-.79-1.33,6.23,6.23,0,0,1-.46-1.5C367.61,279.82,370.65,279.1,372.17,277.91Z"></path><path class="cls-40" d="M507.75,387.86c1.91,2.52,4.07,4.57,5.72,7.31l.74,1.08a22.12,22.12,0,0,0,5.21,5.43c7,4.86,14.38,3.09,22,3.16,4,0,8-.3,12-.35,3.55,0,7.11,0,10.66.25a28.38,28.38,0,0,1,11.24,2.55c1.53.78,7.49,4.26,6.37,7.23-.46,1.22-2.34,1.15-3.24,1.18q-18,.65-35.92.59c-7.28,0-14.56-.38-21.84-.38-2.11-.11-4.24-.11-6.35-.25-.7,0-1.41-.11-2.1-.19a6.4,6.4,0,0,1-.88-.1,17.24,17.24,0,0,1-4.52-1.53c-.3-.13-.6-.26-.9-.37-2.21-1.29-4.16,1.12-6.46.76a1.38,1.38,0,0,1-.72-1.52,13,13,0,0,1,4.33-6.47l.86-.8c.29-.27.56-.55.83-.84s.47-.82.7-1.24.43-.86.63-1.3c1.73-3.91,1.87-8.64,1.79-13C507.83,388.69,507.79,388.29,507.75,387.86Z"></path><path class="cls-38" d="M558.46,412.74a20.64,20.64,0,0,0-6.39-2.6,38.25,38.25,0,0,0-6.63-.88c-5-.26-9.94.54-14.92,0a37.71,37.71,0,0,1-9.15-2.68,18.37,18.37,0,0,1-2.74-1.36l-.45-.26a53.58,53.58,0,0,0-4.93-2.28l-.53-.18c-.22-.06-.43-.12-.64-.16a5.4,5.4,0,0,0-.58-.08,5.62,5.62,0,0,0-.58,0,5,5,0,0,0-1.89.14,7.76,7.76,0,0,0-.89.3c-1,.39-1.79,1.1-2.8,1.46-.72.27-.87-.72-.72-1.34a51.82,51.82,0,0,0,2.2-9.64c.05-.35.09-.7.14-1.05l.12-1.05c.07-.31.13-.61.17-.92a12.32,12.32,0,0,0,.09-2.71q0-.6-.12-1.2c-.3-2.1-.73-4.25-1-6.39a46.29,46.29,0,0,1,1.69,5.53c.14.42.29.82.44,1.22A20.2,20.2,0,0,0,510,390c.24.38.48.79.74,1.2a12.82,12.82,0,0,0,.8,1.18c1.1,1.59,2.18,3.29,3.37,4.81.22.29.45.58.68.86a19.2,19.2,0,0,0,3.85,3.65c7,4.86,14.38,3.09,22,3.16,4,0,8-.3,12-.35,3.55,0,7.11,0,10.66.25a28.38,28.38,0,0,1,11.24,2.55c1.53.78,7.49,4.26,6.37,7.23-.46,1.22-2.34,1.15-3.24,1.18q-7.9.29-15.81.43a13.78,13.78,0,0,0-3.51-3Z"></path><path class="cls-42" d="M369.23,280a14.46,14.46,0,0,1,1.6,0,1.77,1.77,0,0,1,.4.08,1.52,1.52,0,0,1,.94.74,2.58,2.58,0,0,1,0,1.43,2.68,2.68,0,0,1-2.86,2,.79.79,0,0,1-.27-.1.87.87,0,0,1-.21-.17,2.83,2.83,0,0,1-.2-.28,3.07,3.07,0,0,1-.17-.31c0-.09-.1-.2-.15-.31a3.42,3.42,0,0,1-.13-.34,2.15,2.15,0,0,1,.78-2.68Z"></path><path class="cls-38" d="M422,262.84c.53-7.89-5-14-9.74-19.64-.57-.67-1.11-1.35-1.67-2a10.74,10.74,0,0,0-2.4-2.5c-.85-.49-1.52.45-1.68,1.29a14.84,14.84,0,0,0-.22,1.63,47.3,47.3,0,0,0,1.16,12.2c1,5.23,2.1,10.4,5.64,14.57,1.74,2.05,4.77,3.34,6.85,1a9.25,9.25,0,0,0,1.82-4.59c0-.28.09-.56.13-.83S421.94,263.19,422,262.84Z"></path><path class="cls-37" d="M406.26,241.6a14.84,14.84,0,0,1,.22-1.63,2.3,2.3,0,0,1,.32-.82,17.38,17.38,0,0,1,.93,3c.44,2.23,1.25,4.19,1.6,6.34a22.66,22.66,0,0,0,.45,2.41c1.25,4.59,2.15,9.51,1,14.13-1.82-3.44-2.62-7.3-3.37-11.2A47.3,47.3,0,0,1,406.26,241.6Z"></path><path class="cls-38" d="M409.78,250.87a22.66,22.66,0,0,1-.45-2.41c-.35-2.15-1.16-4.11-1.6-6.34a17.38,17.38,0,0,0-.93-3,1,1,0,0,1,1.36-.47,10.74,10.74,0,0,1,2.4,2.5c.56.67,1.1,1.35,1.67,2C417,248.79,422.5,255,422,262.84c0,.35-.06.71-.11,1.07s-.08.55-.13.83a9.25,9.25,0,0,1-1.82,4.59c-2.08,2.38-5.11,1.09-6.85-1a18.44,18.44,0,0,1-2.27-3.37C411.93,260.38,411,255.46,409.78,250.87Z"></path><path class="cls-40" d="M433.4,359.76c-3.13,2.22-5.53,5.33-8.72,7.46a7.56,7.56,0,0,1-5.09,1.44,15.82,15.82,0,0,1-5.47-1.81c-1.85-1-3.51-2.32-5.36-3.34-.56-.3-.06-1.16.5-.85,1.55.85,3,1.91,4.48,2.83a15.68,15.68,0,0,0,5.17,2.07,6.56,6.56,0,0,0,2.72,0A8,8,0,0,0,424,366.5a29.22,29.22,0,0,0,4.23-3.56,43.15,43.15,0,0,1,4.71-4c.52-.37,1,.49.49.85Z"></path><path class="cls-40" d="M393.71,323.73c4.94,4.1,9.8,8.29,14.68,12.47a12.46,12.46,0,0,0,2.09,1.67,23.66,23.66,0,0,0,2.22.85c.58.23.32,1.18-.27.95s-1.3-.44-1.93-.71a6.93,6.93,0,0,1-1.84-1.24q-1.94-1.64-3.85-3.29-3.74-3.21-7.49-6.39-2.15-1.82-4.31-3.61c-.49-.41.21-1.1.7-.7Z"></path><path class="cls-40" d="M461.47,408.27c-2.42-1.78-5.05-3.23-7.28-5.27a20,20,0,0,1-5-6.56,19.53,19.53,0,0,1,0-14.83,11.62,11.62,0,0,1,4.94-6.07.49.49,0,0,1,.5.85c-4,2.3-5.49,7.21-5.86,11.55a16.69,16.69,0,0,0,1.08,7.47,18,18,0,0,0,4.37,6.22,26.47,26.47,0,0,0,3.72,3.05c.63.43,1.3.8,1.94,1.21s1.43,1,2.13,1.53c.5.37,0,1.23-.5.85Z"></path><path class="cls-15" d="M436.77,284.77a1.2,1.2,0,0,1-.14.49c-.27.51-.57,1-.85,1.52q-.22.36-.45.69a47.61,47.61,0,0,1-11.21,11.84,56.11,56.11,0,0,1-16.29,8.39c-2.22.74-4.55,1.29-6.85,1.82q-1.58.36-3.15.78a3.08,3.08,0,0,1-2.25.08,1.09,1.09,0,0,1-.43-.42c0-.12-.06-.24-.08-.36a5.41,5.41,0,0,1,.12-2.85,6.62,6.62,0,0,1,.3-.66,2.13,2.13,0,0,1,.33-.34,1.82,1.82,0,0,1,.88-.4,64.68,64.68,0,0,0,8.58-2c1.41-.43,2.8-.92,4.17-1.46l1-.41.19-.08c.29-.11-.49.21-.2.09l.57-.25c.67-.29,1.34-.6,2-.92a51.38,51.38,0,0,0,7.56-4.49l.84-.61.43-.33-.17.13.27-.21c.58-.45,1.14-.92,1.69-1.4q1.67-1.46,3.18-3.06c.57-.6,1.13-1.22,1.66-1.86.27-.31.53-.64.79-1l.13-.17c.24-.3,0,0-.08.11l.42-.55c.56-.76,1.09-1.53,1.6-2.33l.37-.6a8.57,8.57,0,0,0,.72-1.25,6.74,6.74,0,0,1,.38-.64,1.32,1.32,0,0,1,2-.66C435.61,282.05,436.88,283.6,436.77,284.77Z"></path><path class="cls-43" d="M393.41,263.36a6.6,6.6,0,0,1,5.16,2.61,6.93,6.93,0,0,1,1.07,6,8.72,8.72,0,0,0-2.19-5.33A13.37,13.37,0,0,0,393.41,263.36Z"></path><path class="cls-43" d="M393.33,268a3.12,3.12,0,1,0,3.48-2.47A3,3,0,0,0,393.33,268Z"></path><path class="cls-44" d="M396.31,267.77a.68.68,0,0,1-1.35-.19.68.68,0,0,1,1.35.19Z"></path><path class="cls-45" d="M392.85,312.94a4.23,4.23,0,1,0,4.23-4.23A4.23,4.23,0,0,0,392.85,312.94Z"></path><path class="cls-46" d="M400.62,315.25a4.46,4.46,0,0,1-.56.69,4.57,4.57,0,0,1-.69.56l-5.84-5.86a4.3,4.3,0,0,1,1.25-1.25Z"></path><path class="cls-46" d="M396.08,308.84a4.46,4.46,0,0,0-.73.24l5.58,5.6a3.49,3.49,0,0,0,.25-.73Z"></path><polygon class="cls-14" points="88.61 389.53 65.7 380.39 65.99 378 89.88 381.48 88.61 389.53"></polygon><polygon class="cls-14" points="67.75 378.43 67.19 380.96 59.55 386.71 63.41 369.39 67.75 378.43"></polygon><path class="cls-14" d="M126.1,372.34c6.42.53,11.53,6.2,11,12.4-1.17,12.73-13.8,27.47-13.8,27.47H95.56l-8.38-23.45L86,381.48S114.35,371.37,126.1,372.34Zm-.88,24.57a1.11,1.11,0,0,0,2,.75,52.1,52.1,0,0,0,4.61-7.81c2.14-4.74.24-10.46-3.79-12.6a2,2,0,0,0-2.83,2Z"></path><path class="cls-15" d="M109.29,409.89c15.78,0,31.65-19.8,24.71-33.68a11,11,0,0,1,3.06,8.53c-1.17,12.73-13.8,27.47-13.8,27.47H95.56l-3-8.28C97,407.21,101.42,409.89,109.29,409.89Z"></path><path class="cls-47" d="M92.75,381.24c7.74-2.45,19.2-5.76,28.37-7.09-1.74,1.72-5,3.41-10.17,4.88C104.51,380.87,96.86,381.85,92.75,381.24Z"></path><polygon class="cls-14" points="62.92 367.05 64.58 368.64 59.72 388.28 58.06 388.53 62.92 367.05"></polygon><path class="cls-48" d="M233.46,135.52a47.56,47.56,0,0,0,3.58-4.31c4.72-6.38,9.52-9.26,17.5-11.84,5.93-1.91,17.22-3.28,20.23,5.84-.16-.46,5.65-.72,7.68-.78,5.56-.17,11.2,2.92,12.93,5.65a22.1,22.1,0,0,1,2.8,9,35.66,35.66,0,0,0,2.08,8.66,20,20,0,0,1,1.58,7c0,4.13-3.32,9.25-2.49,13.29a43.06,43.06,0,0,0,3.12,10.57,16.53,16.53,0,0,1,1.93,9.76c-.83,7.12-5.95,10.29-2.21,16.38s1.73,11.21,1.73,11.21a16.47,16.47,0,0,0,.07,12.94,12.86,12.86,0,0,0,1.05,1.95s-5.73-1.34-9.55-4.83c-6-5.46-8-10.42-8.59-15.58l-61.47,1.12c-4.24-4.16-3.29-9.57-.71-14.29,1.31-3,5.88-12.83,3.6-16.8,0,0-6.41-5.85-1.33-17.35,4.58-10.37,5.31-8.51,3.63-16.41A12,12,0,0,1,233.46,135.52Z"></path><path class="cls-49" d="M263.34,319.91c1.65,10.61,2.67,64.7,3.33,81.77l-.46,11.3,12.51,2c-8.28-3.29-1.06-67.61.41-95.08Z"></path><path class="cls-50" d="M266.19,408.58c-.06,3.27.16,10.51.16,15.28h3.14c0-1.13-.09-4.12.41-5.12.3-.6.85-.42,1.35-.22a36.48,36.48,0,0,0,4.65,3.8c1.81,1,5.42,1.33,8.12,1.46s5.92.12,7-.23,0-1.07-1.8-2.76-7.7-4.34-9.4-6.38-2.45-3.47-2.88-3.57c-.66-.16-1.43,6-7.3,1.39a7.76,7.76,0,0,1-2.34-3.06c-.5-1.16-.77-2.41-.92-2.72S266.25,405.31,266.19,408.58Z"></path><path class="cls-49" d="M242.91,319.91c1.64,10.61,2.67,64.7,3.33,81.77l-.47,11.3,12.52,2c-8.28-3.29-1.06-67.61.41-95.08Z"></path><path class="cls-50" d="M245.76,408.58c-.06,3.27.16,10.51.16,15.28h3.14c0-1.13-.09-4.12.41-5.12.3-.6.85-.42,1.35-.22a36.48,36.48,0,0,0,4.65,3.8c1.81,1,5.41,1.33,8.11,1.46s5.93.12,7-.23,0-1.07-1.8-2.76-7.7-4.34-9.4-6.38-2.45-3.47-2.89-3.57c-.66-.16-1.42,6-7.29,1.39a7.67,7.67,0,0,1-2.34-3.06c-.5-1.16-.78-2.41-.92-2.72S245.82,405.31,245.76,408.58Z"></path><polygon class="cls-51" points="262.79 344.35 297.09 344.19 279.49 256.47 260.39 256.47 244.19 256.47 226.59 344.19 260.87 344.35 262.79 344.35"></polygon><path class="cls-52" d="M349.32,229.14q1.95,5.78,3.88,11.55c-76.41,23.61-73.9-37.67-62.67-37.78C304.89,202.76,294.2,243.7,349.32,229.14Z"></path><path class="cls-53" d="M250.86,133.87s-10.91,18.6-13.24,32.24c-1.42,8.37,11,27.18,25.85,27.71,9.88.36,20-4.24,23.74-18.42,3.63-13.89.94-33.75.94-33.75s-6.52-12.44-17.07-12.78S250.86,133.87,250.86,133.87Z"></path><path class="cls-54" d="M270.11,161s3,3.8,2.82,5.6-4.18,2.8-4.18,2.8,4.86-.2,5.92-1.9C275.53,166.09,270.11,161,270.11,161Z"></path><path class="cls-43" d="M277.52,155.68a3.14,3.14,0,0,0,1.65,4.09,3.08,3.08,0,0,0,4.15-1.38,3.14,3.14,0,0,0-1.65-4.09A3.07,3.07,0,0,0,277.52,155.68Z"></path><path class="cls-43" d="M261.49,158.16a3.23,3.23,0,1,1-3.36-2.86A3.13,3.13,0,0,1,261.49,158.16Z"></path><path class="cls-54" d="M249.74,170.75a4.38,4.38,0,0,1,2,.54,2.54,2.54,0,0,1,1.29,1.89,2.84,2.84,0,0,1-.57,2A3.8,3.8,0,0,1,251,176.4c.16-.63.36-1.18.52-1.7a4.11,4.11,0,0,0,.19-1.45,2.18,2.18,0,0,0-.59-1.2,6.1,6.1,0,0,0-.63-.6A4.26,4.26,0,0,1,249.74,170.75Z"></path><path class="cls-54" d="M282.41,170.21a4.47,4.47,0,0,0-2,.54,2.54,2.54,0,0,0-1.29,1.89,2.81,2.81,0,0,0,.57,2,3.91,3.91,0,0,0,1.49,1.24c-.16-.63-.37-1.18-.52-1.71a4.06,4.06,0,0,1-.19-1.44,2.21,2.21,0,0,1,.59-1.21,7.38,7.38,0,0,1,.63-.6A3.6,3.6,0,0,0,282.41,170.21Z"></path><path class="cls-55" d="M209.05,258.39q-5.3-.19-8.06-2.49a9.65,9.65,0,0,1-3.11-9.83c.53-2.37,6.75-19.9,36-47.06l10.78,13.36c-10.43,10.61-26.61,23.25-31.77,32.43,6.46-1,17.18-5.39,28.13-10l6.32,13.12C230.11,255.19,217.29,258.69,209.05,258.39Z"></path><path class="cls-44" d="M279.53,256.82c10.31-17.83,14.87-48.38,15-52.1.19-5.34-13.13-10.16-29.76-10.77s-30.27,3.22-30.46,8.55c-.14,3.73,3,34.55,12.45,53.12Z"></path><path class="cls-53" d="M279.56,198.16c-.08,2.33-6.45,4-14.22,3.7s-14-2.41-13.92-4.74,6.46-4,14.23-3.7S279.65,195.82,279.56,198.16Z"></path><rect class="cls-53" x="257.65" y="171.73" width="15.28" height="24.33" transform="translate(6.94 -9.62) rotate(2.11)"></rect><path class="cls-56" d="M257.39,193.88s-2.63,10.05-3.27,27.5.77,55.82.77,55.82l-21.75-6.44,8.44-14.9L230,203.58S234.23,195.29,257.39,193.88Z"></path><path class="cls-56" d="M272.56,194.22s2.28,9.68,1.64,27.13S269.34,277,269.34,277l22.16-4.82-7.33-15.49,15.42-51.28S295.56,197.32,272.56,194.22Z"></path><path class="cls-44" d="M277.33,174.12s-1,2.49-8.68,2.69a28,28,0,0,1-12.53-2.3s3.39,9.06,13.15,8.58C276.7,182.73,277.33,174.12,277.33,174.12Z"></path><path class="cls-57" d="M323.81,254v-.09c0-3.49,5.58-4.46,5.81-4.5l.15.87,1,.23a8.41,8.41,0,0,1-3.17,4.69,2.63,2.63,0,0,1-2.45.45,2.32,2.32,0,0,1-1.27-1.57Zm5.26-3c-1.29.35-3.73,1.22-3.84,2.85a.85.85,0,0,0,.41.51,1.45,1.45,0,0,0,1.15-.33A6.38,6.38,0,0,0,329.07,251Z"></path><path class="cls-58" d="M328.31,227.81a60.45,60.45,0,0,0,21.54-.43c6.57-2.22,9-5.58,11.49-7s5.81-2.3,6.71.24-1.76,4.05-2.27,4.35c6.16-.63,17.06-.14,16.81,10.55s-17.28,9.93-21.35,9.65-21.09.44-30.28,5.79C327.21,244.64,326.23,230.77,328.31,227.81Z"></path><path class="cls-57" d="M355.42,226.06l1.45.8a.16.16,0,0,0,.2-.05.16.16,0,0,0-.06-.2l-1.45-.8a.14.14,0,0,0-.19.06.14.14,0,0,0,0,.11A.18.18,0,0,0,355.42,226.06Z"></path><path class="cls-57" d="M371.33,234.51l-.52-.29a.15.15,0,0,0-.19.06.14.14,0,0,0,0,.11.16.16,0,0,0,.06.08l.5.28s0,0,0,0Z"></path><path class="cls-57" d="M357.53,227.18a.18.18,0,0,0,.07.08l.37.2.16-.23-.39-.22a.16.16,0,0,0-.2.06A.2.2,0,0,0,357.53,227.18Z"></path><path class="cls-57" d="M359.05,228.06a.16.16,0,0,0,.2-.05.16.16,0,0,0-.06-.2l-.81-.44-.16.23Z"></path><path class="cls-57" d="M371.42,234.88l.71.39a.14.14,0,0,0,.19-.05.15.15,0,0,0-.06-.2l-.68-.37Z"></path><path class="cls-57" d="M354.89,225.6a.14.14,0,0,0-.06-.19l-.27-.15-.28.17.42.23A.14.14,0,0,0,354.89,225.6Z"></path><path class="cls-57" d="M367.91,232.62l-1.46-.8a.14.14,0,0,0-.19.06.12.12,0,0,0,0,.1.13.13,0,0,0,.07.09l1.45.8a.14.14,0,0,0,.19-.06A.15.15,0,0,0,367.91,232.62Z"></path><path class="cls-57" d="M361.9,229.47a.14.14,0,0,0,0,.11.11.11,0,0,0,.07.08l1.45.81a.14.14,0,0,0,.19-.06.13.13,0,0,0-.05-.19l-1.46-.8A.14.14,0,0,0,361.9,229.47Z"></path><path class="cls-57" d="M379.32,239.19a.13.13,0,0,0,.07.09l1.45.8a.14.14,0,0,0,.14-.25l-1.45-.8a.15.15,0,0,0-.2.06A.12.12,0,0,0,379.32,239.19Z"></path><path class="cls-57" d="M372.78,235.59a.18.18,0,0,0,.07.08l1.45.8a.15.15,0,0,0,.2-.05.14.14,0,0,0-.06-.19l-1.45-.8a.13.13,0,0,0-.19,0A.15.15,0,0,0,372.78,235.59Z"></path><path class="cls-57" d="M370.08,233.82l-1.45-.8a.14.14,0,0,0-.2.17.16.16,0,0,0,.06.08l1.46.8a.14.14,0,0,0,.19,0A.15.15,0,0,0,370.08,233.82Z"></path><path class="cls-57" d="M365.73,231.42l-1.46-.8a.14.14,0,0,0-.19,0,.14.14,0,0,0,0,.11.13.13,0,0,0,.07.09l1.45.8a.14.14,0,0,0,.19-.06A.14.14,0,0,0,365.73,231.42Z"></path><path class="cls-57" d="M361.37,229l-1.45-.8a.15.15,0,0,0-.2.05.14.14,0,0,0,0,.11.18.18,0,0,0,.07.08l1.45.8a.14.14,0,1,0,.14-.24Z"></path><path class="cls-57" d="M376.62,237.43l-1.45-.8a.13.13,0,0,0-.19.05.15.15,0,0,0,0,.11.11.11,0,0,0,.07.08l1.45.81a.16.16,0,0,0,.2-.06A.15.15,0,0,0,376.62,237.43Z"></path><path class="cls-57" d="M378,238.5l.68.38a.14.14,0,0,0,.14-.25l-.67-.37s0,0,0,0Z"></path><path class="cls-57" d="M377.35,237.83a.16.16,0,0,0-.2,0,.22.22,0,0,0,0,.11.16.16,0,0,0,.07.09l.52.28.16-.23Z"></path><path class="cls-57" d="M361.75,221.93l-1-.55a.15.15,0,0,0-.19.06.14.14,0,0,0,0,.11.16.16,0,0,0,.06.08l1,.53h0Z"></path><path class="cls-57" d="M362.08,222.43a.14.14,0,1,0,.13-.24l-.21-.12-.16.23Z"></path><path class="cls-57" d="M375,229.22l-1.14-.63a.15.15,0,0,0-.19.06.14.14,0,0,0,0,.11.13.13,0,0,0,.07.08l1.09.6.13-.19S375,229.23,375,229.22Z"></path><path class="cls-57" d="M380.37,232.2a.14.14,0,0,0-.19.05.16.16,0,0,0,.05.2l1.12.61.16-.23Z"></path><path class="cls-57" d="M368.81,226a.11.11,0,0,0,0-.11l-.12.18A.15.15,0,0,0,368.81,226Z"></path><path class="cls-57" d="M381.69,233.25a.14.14,0,1,0,.13-.25l-.06,0-.17.24Z"></path><path class="cls-57" d="M382.36,233.46a.12.12,0,0,0,0,.1.15.15,0,0,0,.06.09l.11.06c0-.11,0-.21,0-.32A.12.12,0,0,0,382.36,233.46Z"></path><path class="cls-57" d="M369.27,226.35a.16.16,0,0,0,.07.09l1.45.8a.14.14,0,0,0,.14-.25l-1.45-.8a.15.15,0,0,0-.2.06A.17.17,0,0,0,369.27,226.35Z"></path><path class="cls-57" d="M371.45,227.56a.13.13,0,0,0,.07.08l1.45.8a.14.14,0,0,0,.19-.05.15.15,0,0,0-.05-.2l-1.45-.8a.15.15,0,0,0-.2.06A.14.14,0,0,0,371.45,227.56Z"></path><path class="cls-57" d="M375,229.58l.12.06a.13.13,0,0,0,.19,0,.13.13,0,0,0,0-.19l-.12-.07a.11.11,0,0,1,0,.08Z"></path><path class="cls-57" d="M375.81,230a.13.13,0,0,0,.07.08l1.45.8a.13.13,0,0,0,.19-.05.14.14,0,0,0,0-.19l-1.46-.8a.13.13,0,0,0-.19,0A.14.14,0,0,0,375.81,230Z"></path><path class="cls-57" d="M364.93,223.84a.11.11,0,0,0,0,.11.1.1,0,0,0,.06.08l1.18.66.26-.18-1.3-.72A.13.13,0,0,0,364.93,223.84Z"></path><path class="cls-57" d="M367.09,225.15a.16.16,0,0,0,.07.09l1.26.69.16-.23L367.3,225a.14.14,0,0,0-.19,0A.15.15,0,0,0,367.09,225.15Z"></path><path class="cls-57" d="M378,231.16a.13.13,0,0,0,.07.09l1.45.8a.15.15,0,0,0,.19-.06.14.14,0,0,0-.06-.19l-1.45-.8a.14.14,0,0,0-.19.05A.14.14,0,0,0,378,231.16Z"></path><path class="cls-57" d="M362.74,222.75a.16.16,0,0,0,.06.08l1.46.8a.14.14,0,1,0,.13-.24l-1.45-.8a.13.13,0,0,0-.19,0A.14.14,0,0,0,362.74,222.75Z"></path><path class="cls-57" d="M375.7,243.72l-.1,0A.15.15,0,0,0,375.7,243.72Z"></path><path class="cls-57" d="M373.5,242.29l-1.45-.8a.14.14,0,0,0-.2.17.16.16,0,0,0,.06.08l1.46.8a.14.14,0,0,0,.19,0A.15.15,0,0,0,373.5,242.29Z"></path><path class="cls-57" d="M374.23,242.69a.15.15,0,0,0-.19.06.14.14,0,0,0,0,.11.16.16,0,0,0,.06.08l.37.2.16-.23Z"></path><path class="cls-57" d="M369.2,240.08a.13.13,0,0,0-.05-.19l-1.46-.8a.14.14,0,0,0-.2.16.13.13,0,0,0,.07.09l.34.19h0a.15.15,0,0,1,.2,0,.14.14,0,0,1,0,.17l.87.48A.14.14,0,0,0,369.2,240.08Z"></path><path class="cls-57" d="M365.32,237.94a.14.14,0,0,0,0,.11.1.1,0,0,0,.07.08l1.45.81a.14.14,0,0,0,.19-.06.13.13,0,0,0,0-.19l-1.46-.8A.14.14,0,0,0,365.32,237.94Z"></path><path class="cls-57" d="M371.38,241.28a.15.15,0,0,0-.05-.19l-1.46-.8a.14.14,0,0,0-.19.06.12.12,0,0,0,0,.1.13.13,0,0,0,.07.09l1.45.8A.14.14,0,0,0,371.38,241.28Z"></path><path class="cls-57" d="M362.67,236.48a.16.16,0,0,0-.06-.2l-.66-.36-.16.23.68.38A.15.15,0,0,0,362.67,236.48Z"></path><path class="cls-57" d="M347.41,228.07a.15.15,0,0,0-.05-.2l0,0-.45.08.35.19A.14.14,0,0,0,347.41,228.07Z"></path><path class="cls-57" d="M348.93,228.74l-.85-.47a.15.15,0,0,0-.19.06.14.14,0,0,0,0,.11.13.13,0,0,0,.07.08l.83.46a0,0,0,0,1,0,0Z"></path><path class="cls-57" d="M363.14,236.74a.14.14,0,0,0,0,.11.18.18,0,0,0,.07.08l1.45.8a.14.14,0,0,0,.14-.24l-1.45-.8A.15.15,0,0,0,363.14,236.74Z"></path><path class="cls-57" d="M349.54,229.07l-.36-.19-.16.23h0l.39.21a.14.14,0,0,0,.19,0A.15.15,0,0,0,349.54,229.07Z"></path><path class="cls-57" d="M361.16,235.48a.16.16,0,0,0-.2.06.2.2,0,0,0,0,.11.18.18,0,0,0,.07.08l.52.29.16-.24Z"></path><path class="cls-57" d="M375.68,243.5l-.81-.45-.16.23.84.46h.05l.1,0,0,0A.14.14,0,0,0,375.68,243.5Z"></path><path class="cls-57" d="M355.94,232.93a.14.14,0,1,0,.13-.25l-1-.53-.16.23Z"></path><path class="cls-57" d="M360.49,235.28a.16.16,0,0,0-.06-.2l-1.45-.8a.14.14,0,0,0-.19.06.14.14,0,0,0,0,.11.18.18,0,0,0,.07.08l1.45.8A.16.16,0,0,0,360.49,235.28Z"></path><path class="cls-57" d="M354.43,231.93a.16.16,0,0,0,.05.2l.22.12.16-.24-.24-.13A.14.14,0,0,0,354.43,231.93Z"></path><path class="cls-57" d="M354,231.67a.14.14,0,0,0-.06-.19l-1.45-.8a.13.13,0,0,0-.19,0,.14.14,0,0,0,0,.11.11.11,0,0,0,.07.08l1.45.8A.13.13,0,0,0,354,231.67Z"></path><path class="cls-57" d="M356.66,233.33l1.46.8a.14.14,0,0,0,.19-.06.15.15,0,0,0-.06-.19l-1.45-.8a.14.14,0,0,0-.19.06.12.12,0,0,0,0,.1A.15.15,0,0,0,356.66,233.33Z"></path><path class="cls-57" d="M351.72,230.28l-1.46-.8a.13.13,0,0,0-.19.05.14.14,0,0,0,0,.11.13.13,0,0,0,.07.08l1.45.8a.13.13,0,0,0,.19-.05A.14.14,0,0,0,351.72,230.28Z"></path><path class="cls-57" d="M358.21,240.9l-.48-.26a.13.13,0,0,0-.19.05.14.14,0,0,0,0,.11.13.13,0,0,0,.07.08l.45.25h0Z"></path><path class="cls-57" d="M359.24,241.63a.14.14,0,0,0-.06-.19l-.72-.4-.16.23.75.41A.13.13,0,0,0,359.24,241.63Z"></path><path class="cls-57" d="M355.36,239.49a.14.14,0,0,0,0,.11.13.13,0,0,0,.07.08l1.45.8a.13.13,0,0,0,.19,0,.14.14,0,0,0-.05-.19l-1.46-.81A.15.15,0,0,0,355.36,239.49Z"></path><path class="cls-57" d="M340.11,231.08a.14.14,0,0,0,0,.11.16.16,0,0,0,.06.08l1.46.8a.14.14,0,0,0,.19-.06.14.14,0,0,0-.06-.19l-1.45-.8A.14.14,0,0,0,340.11,231.08Z"></path><path class="cls-57" d="M346,234.47a.15.15,0,0,0,.2-.05.14.14,0,0,0-.06-.19l-.43-.24-.16.24Z"></path><path class="cls-57" d="M335.74,228.78a.13.13,0,0,0,.07.09l1.45.8a.14.14,0,0,0,.19-.06.13.13,0,0,0-.05-.19l-1.46-.8a.14.14,0,0,0-.2.16Z"></path><path class="cls-57" d="M343.93,233l-1.45-.8a.15.15,0,0,0-.19.06.14.14,0,0,0,0,.11.16.16,0,0,0,.06.08l1.46.8a.14.14,0,0,0,.19-.05A.15.15,0,0,0,343.93,233Z"></path><path class="cls-57" d="M346.63,234.79a.11.11,0,0,0,.07.08l1.45.81a.16.16,0,0,0,.2-.06.15.15,0,0,0-.06-.19l-1.45-.8a.13.13,0,0,0-.19.05A.15.15,0,0,0,346.63,234.79Z"></path><path class="cls-57" d="M338,230.07l1.45.8a.14.14,0,0,0,.19-.06.15.15,0,0,0-.05-.19l-.95-.52-.05.08a.13.13,0,0,1-.19,0,.13.13,0,0,1-.06-.07.13.13,0,0,1,0-.12l0-.06-.26-.14a.14.14,0,0,0-.19.06.12.12,0,0,0,0,.1A.13.13,0,0,0,338,230.07Z"></path><path class="cls-57" d="M348.81,236a.16.16,0,0,0,.07.09l1.45.8a.15.15,0,0,0,.2-.06.15.15,0,0,0-.06-.19l-1.45-.8a.16.16,0,0,0-.2,0A.22.22,0,0,0,348.81,236Z"></path><path class="cls-57" d="M364.27,244.24a.14.14,0,0,0-.19.06.12.12,0,0,0,0,.1.16.16,0,0,0,.07.09l.28.15.16-.23Z"></path><path class="cls-57" d="M365.72,245l-.9-.49-.16.23.84.46h.28A.15.15,0,0,0,365.72,245Z"></path><path class="cls-57" d="M344.52,233.67l.76.42.16-.24-.78-.42a.13.13,0,0,0-.19,0,.14.14,0,0,0,0,.11S344.49,233.65,344.52,233.67Z"></path><path class="cls-57" d="M351.46,237.18l-.26-.15a.15.15,0,0,0-.2.06.12.12,0,0,0,0,.1.13.13,0,0,0,.07.09l.15.08.1-.14A.12.12,0,0,1,351.46,237.18Z"></path><path class="cls-57" d="M354.83,239l-1.46-.8a.14.14,0,0,0-.19.06.14.14,0,0,0,0,.11.13.13,0,0,0,.07.08l1.45.8a.14.14,0,0,0,.19-.05A.15.15,0,0,0,354.83,239Z"></path><path class="cls-57" d="M361.36,242.64l-1.45-.8a.13.13,0,0,0-.19,0,.16.16,0,0,0,0,.2l1.46.8a.15.15,0,0,0,.19-.06A.14.14,0,0,0,361.36,242.64Z"></path><path class="cls-57" d="M351.54,237.38l-.08.12,1.05.58a.14.14,0,0,0,.14-.25l-1.13-.62A.14.14,0,0,1,351.54,237.38Z"></path><path class="cls-57" d="M363.54,243.84l-1.45-.8a.14.14,0,0,0-.19.05.16.16,0,0,0,.05.2l1.46.8a.14.14,0,0,0,.19-.06A.15.15,0,0,0,363.54,243.84Z"></path><path class="cls-57" d="M329.11,232.13s0,0,0,0l-.07.1S329.1,232.15,329.11,232.13Z"></path><path class="cls-57" d="M348.72,243a.15.15,0,0,0-.06-.2l-.57-.31-.16.23.6.33A.14.14,0,0,0,348.72,243Z"></path><path class="cls-57" d="M341.9,239l-1.22-.68a.16.16,0,0,0-.2.05.14.14,0,0,0,0,.11.13.13,0,0,0,.07.09l1.22.67s0,0,0-.05Z"></path><path class="cls-57" d="M347.21,242a.15.15,0,0,0-.19.06.14.14,0,0,0,0,.11.13.13,0,0,0,.07.08l.6.33.16-.23Z"></path><path class="cls-57" d="M327.6,231.14a.14.14,0,0,0-.19.05.14.14,0,0,0,0,.11.13.13,0,0,0,.07.09l1.29.71.16-.23Z"></path><path class="cls-57" d="M344.31,240.35l-1.46-.8a.14.14,0,0,0-.19.06.12.12,0,0,0,0,.1.13.13,0,0,0,.07.09l1.45.8a.14.14,0,0,0,.14-.25Z"></path><path class="cls-57" d="M350.84,244l-1.45-.8a.13.13,0,0,0-.19.05.14.14,0,0,0,0,.11.16.16,0,0,0,.06.08l1.46.8a.14.14,0,1,0,.13-.24Z"></path><path class="cls-57" d="M337.63,237a.15.15,0,0,0,.2-.05.14.14,0,0,0-.06-.19l-1.45-.81a.14.14,0,0,0-.19.06.14.14,0,0,0,0,.11.18.18,0,0,0,.07.08Z"></path><path class="cls-57" d="M344.83,240.92a.13.13,0,0,0,.07.08l1.45.8a.14.14,0,0,0,.19-.05.16.16,0,0,0-.05-.2l-1.46-.8a.14.14,0,0,0-.2.17Z"></path><path class="cls-57" d="M333.41,234.34l-1.45-.8a.14.14,0,0,0-.2.17.16.16,0,0,0,.06.08l1.46.8a.14.14,0,1,0,.13-.25Z"></path><path class="cls-57" d="M342.18,239.34a.13.13,0,0,0,0-.17l-.15.21h0A.14.14,0,0,0,342.18,239.34Z"></path><path class="cls-57" d="M334.14,234.74a.14.14,0,0,0-.19.06.14.14,0,0,0,0,.11.27.27,0,0,0,.07.08l.69.38.16-.23Z"></path><path class="cls-57" d="M335.45,235.79a.16.16,0,0,0,.2,0,.16.16,0,0,0-.06-.2l-.49-.27-.16.24Z"></path><path class="cls-57" d="M331.23,233.14l-1.45-.8a.14.14,0,0,0-.19,0,.16.16,0,0,0,.05.2l1.46.8a.14.14,0,0,0,.19-.06A.14.14,0,0,0,331.23,233.14Z"></path><path class="cls-57" d="M338.3,237.2a.22.22,0,0,0,0,.11.14.14,0,0,0,.07.08l1.45.81a.14.14,0,0,0,.19-.06A.13.13,0,0,0,340,238l-1.45-.8A.15.15,0,0,0,338.3,237.2Z"></path><path class="cls-57" d="M353,245.16l-1.45-.8a.13.13,0,0,0-.19,0,.11.11,0,0,0,0,.11.1.1,0,0,0,.06.08l1.39.77.26,0A.15.15,0,0,0,353,245.16Z"></path><path class="cls-57" d="M327.39,237.73a.14.14,0,0,0-.2.17.13.13,0,0,0,.07.08l.18.1,0-.34Z"></path><path class="cls-57" d="M328.9,238.72a.14.14,0,0,0-.06-.19l-1.43-.79,0,.34,1.27.7A.14.14,0,0,0,328.9,238.72Z"></path><path class="cls-57" d="M340.27,245a.14.14,0,0,0,0,.11.13.13,0,0,0,.07.08l1.45.8a.14.14,0,0,0,.19-.05.15.15,0,0,0-.05-.2l-1.45-.8A.15.15,0,0,0,340.27,245Z"></path><path class="cls-57" d="M335.38,242.14l-1.45-.8a.13.13,0,0,0-.19,0,.15.15,0,0,0,0,.11.18.18,0,0,0,.07.08l1.45.81a.16.16,0,0,0,.2-.06A.15.15,0,0,0,335.38,242.14Z"></path><path class="cls-57" d="M331,239.73l-1.45-.8a.15.15,0,0,0-.19.06.14.14,0,0,0,0,.11.16.16,0,0,0,.06.08l1.46.8a.14.14,0,0,0,.19,0A.15.15,0,0,0,331,239.73Z"></path><path class="cls-57" d="M337.56,243.34l-1.45-.8a.14.14,0,0,0-.19.05.15.15,0,0,0,0,.11.16.16,0,0,0,.07.09l1.45.8a.15.15,0,0,0,.2-.06A.15.15,0,0,0,337.56,243.34Z"></path><path class="cls-57" d="M338.69,244a.14.14,0,0,1,0,.2l-.06.09.93.52a.14.14,0,0,0,.14-.25l-1.45-.8a.15.15,0,0,0-.2.06.12.12,0,0,0,0,.1.16.16,0,0,0,.07.09l.27.15.08-.12A.13.13,0,0,1,338.69,244Z"></path><path class="cls-57" d="M342.45,246.2a.14.14,0,0,0,0,.11.13.13,0,0,0,.07.08l.61.34.43-.09-.91-.5A.15.15,0,0,0,342.45,246.2Z"></path><path class="cls-57" d="M333.07,241.18a.14.14,0,1,0,.13-.24l-1.43-.79-.16.23Z"></path><path class="cls-57" d="M333.81,248l-1.45-.8a.13.13,0,0,0-.19,0,.15.15,0,0,0,0,.11.18.18,0,0,0,.07.08l1.45.8a.14.14,0,1,0,.14-.24Z"></path><path class="cls-57" d="M329.51,245.77a.15.15,0,0,0-.06-.2l-.76-.42c0,.13.07.26.11.39l.52.28A.14.14,0,0,0,329.51,245.77Z"></path><path class="cls-57" d="M331.63,246.78l-1.45-.81a.15.15,0,0,0-.19.06.14.14,0,0,0,0,.11.16.16,0,0,0,.06.08l1.46.8a.14.14,0,0,0,.19-.05A.14.14,0,0,0,331.63,246.78Z"></path><path class="cls-57" d="M335.25,248.77l-.71-.39a.15.15,0,0,0-.2.05.22.22,0,0,0,0,.11.16.16,0,0,0,.07.09l.66.36.06,0Z"></path><path class="cls-57" d="M366.24,229.64a.16.16,0,0,0,0-.2.16.16,0,0,0-.2,0l-.93,1.37a.13.13,0,0,0,0,.12.22.22,0,0,0,.05.08.14.14,0,0,0,.2,0Z"></path><path class="cls-57" d="M368.42,225.93l-.55.81a.17.17,0,0,0,0,.12.16.16,0,0,0,.06.08.15.15,0,0,0,.2,0l.58-.85h-.08Z"></path><path class="cls-57" d="M360.86,237a.13.13,0,0,0,0,.12.18.18,0,0,0,.05.07.14.14,0,0,0,.2,0l.7-1-.25-.13Z"></path><path class="cls-57" d="M368.81,225.87l.23-.34a.13.13,0,0,0,0-.19.13.13,0,0,0-.19,0l-.23.33.17.09A.16.16,0,0,1,368.81,225.87Z"></path><path class="cls-57" d="M369.31,224.88a.14.14,0,0,0,.2,0l.07-.11h-.31a.08.08,0,0,0,0,.07A.12.12,0,0,0,369.31,224.88Z"></path><path class="cls-57" d="M358,241.25a.13.13,0,0,0,.06.07.14.14,0,0,0,.2,0v0l-.25-.14A.17.17,0,0,0,358,241.25Z"></path><path class="cls-57" d="M359.44,239.19a.14.14,0,0,0,.05.08.15.15,0,0,0,.2,0l.93-1.37a.13.13,0,0,0,0-.19.14.14,0,0,0-.2,0l-.93,1.37A.11.11,0,0,0,359.44,239.19Z"></path><path class="cls-57" d="M362,235.81a.15.15,0,0,0,0-.2.15.15,0,0,0-.2,0l-.09.13.25.14Z"></path><path class="cls-57" d="M364.8,231.5a.14.14,0,0,0-.2,0l-.94,1.37a.16.16,0,0,0,0,.12.13.13,0,0,0,.06.07.14.14,0,0,0,.2,0l.93-1.37A.14.14,0,0,0,364.8,231.5Z"></path><path class="cls-57" d="M367.64,227.59a.14.14,0,0,0,0-.2.15.15,0,0,0-.2,0l-.93,1.37a.13.13,0,0,0,0,.12.13.13,0,0,0,.06.07.13.13,0,0,0,.19,0Z"></path><path class="cls-57" d="M357.82,242a.13.13,0,0,0,0-.19.14.14,0,0,0-.2,0l-.93,1.37a.13.13,0,0,0,0,.12.16.16,0,0,0,.06.08.13.13,0,0,0,.19,0Z"></path><path class="cls-57" d="M359.22,239.92a.14.14,0,0,0,0-.2.13.13,0,0,0-.19,0l-.78,1.14.25.14Z"></path><path class="cls-57" d="M356.38,243.83a.15.15,0,0,0-.2,0l-.9,1.32.35,0,.79-1.14A.15.15,0,0,0,356.38,243.83Z"></path><path class="cls-57" d="M363.39,233.56a.13.13,0,0,0-.19,0l-.94,1.37a.17.17,0,0,0,0,.12.16.16,0,0,0,.06.08.13.13,0,0,0,.19,0l.94-1.37A.13.13,0,0,0,363.39,233.56Z"></path><path class="cls-57" d="M368.61,226h.08l.12-.18a.16.16,0,0,0-.06-.08l-.17-.09-.16.23Z"></path><polygon class="cls-57" points="361.7 235.78 361.54 236.02 361.79 236.16 361.95 235.92 361.7 235.78"></polygon><polygon class="cls-57" points="358.21 240.9 358.05 241.13 358.05 241.13 358.3 241.27 358.46 241.04 358.21 240.9"></polygon><path class="cls-57" d="M375.17,229.33a.14.14,0,0,0-.06-.12.12.12,0,0,0-.14,0Z"></path><path class="cls-57" d="M365.54,243.07a.16.16,0,0,0,.06.08.15.15,0,0,0,.2,0l.93-1.37a.14.14,0,0,0,0-.2.15.15,0,0,0-.2,0l-.94,1.37A.17.17,0,0,0,365.54,243.07Z"></path><path class="cls-57" d="M367,240.9a.13.13,0,0,0,0,.12.18.18,0,0,0,.05.07.14.14,0,0,0,.2,0l.94-1.37v0l-.24-.13Z"></path><path class="cls-57" d="M375.38,228.57a.13.13,0,0,0,0,.12s0,.05.05.07a.14.14,0,0,0,.2,0l.93-1.37a.14.14,0,0,0,0-.2.14.14,0,0,0-.2,0Z"></path><path class="cls-57" d="M377.3,226.26l-.26-.12-.25.37a.13.13,0,0,0,0,.12.22.22,0,0,0,.05.08"></path><path class="cls-57" d="M371.16,234.85a.14.14,0,0,0,0,.08.14.14,0,0,0,.2,0h0l-.25-.13A.17.17,0,0,0,371.16,234.85Z"></path><path class="cls-57" d="M372.34,233.52a.14.14,0,0,0,0-.2.15.15,0,0,0-.2,0l-.78,1.15.25.14Z"></path><path class="cls-57" d="M373.75,231.47a.15.15,0,0,0,0-.2.15.15,0,0,0-.2,0l-.93,1.37a.13.13,0,0,0,0,.12.13.13,0,0,0,.06.07.13.13,0,0,0,.19,0Z"></path><path class="cls-57" d="M374,230.62a.17.17,0,0,0,0,.12.16.16,0,0,0,.06.08.13.13,0,0,0,.19,0l.82-1.2-.24-.14Z"></path><path class="cls-57" d="M365.33,243.8a.14.14,0,0,0,0-.2.13.13,0,0,0-.19,0l-.53.77.25.14Z"></path><path class="cls-57" d="M370.94,235.58a.14.14,0,0,0,0-.2.13.13,0,0,0-.19,0l-.94,1.37a.16.16,0,0,0,0,.12.13.13,0,0,0,.06.07.14.14,0,0,0,.2,0Z"></path><path class="cls-57" d="M364.16,245a.16.16,0,0,0,0,.12.13.13,0,0,0,.06.07.13.13,0,0,0,.19,0l.27-.39-.25-.14Z"></path><path class="cls-57" d="M369.5,237.43a.14.14,0,0,0-.19,0l-.94,1.37a.13.13,0,0,0,0,.12.16.16,0,0,0,.06.08.13.13,0,0,0,.19,0l.94-1.37A.15.15,0,0,0,369.5,237.43Z"></path><path class="cls-57" d="M371.33,234.51l-.15.22s0,0,0,0l.25.13.16-.23Z"></path><path class="cls-57" d="M374.92,229.25l-.13.19.24.14.12-.17a.11.11,0,0,0,0-.08l-.2-.11S374.93,229.23,374.92,229.25Z"></path><path class="cls-57" d="M368.1,239.49a.15.15,0,0,0-.2,0h0l.24.13A.14.14,0,0,0,368.1,239.49Z"></path><polygon class="cls-57" points="364.57 244.41 364.41 244.64 364.66 244.78 364.82 244.55 364.57 244.41"></polygon><path class="cls-57" d="M373.68,244.29l0,0,.23-.06v0A.15.15,0,0,0,373.68,244.29Z"></path><path class="cls-57" d="M381.51,232.83l.25.13.5-.74c0-.1-.05-.21-.08-.32a.16.16,0,0,0-.08.06Z"></path><path class="cls-57" d="M374.15,243.6a.14.14,0,0,0,0,.12.16.16,0,0,0,.06.08.13.13,0,0,0,.19,0l.33-.48-.25-.14Z"></path><path class="cls-57" d="M375.32,242.39a.14.14,0,0,0,0-.19.14.14,0,0,0-.2,0l-.46.68.25.14Z"></path><path class="cls-57" d="M381.16,233.33a.17.17,0,0,0,0,.12.16.16,0,0,0,.06.08.16.16,0,0,0,.2,0l.19-.29-.24-.14Z"></path><path class="cls-57" d="M377,239.5a.14.14,0,0,0,0,.11.16.16,0,0,0,.06.08.14.14,0,0,0,.2,0l.79-1.15-.25-.14Z"></path><path class="cls-57" d="M377.89,238.13l.24.13a.15.15,0,0,0,0-.17.14.14,0,0,0-.2,0Z"></path><path class="cls-57" d="M378.36,237.44a.13.13,0,0,0,0,.12.22.22,0,0,0,.05.08.15.15,0,0,0,.2,0l.94-1.37a.16.16,0,0,0,0-.2.15.15,0,0,0-.2,0Z"></path><path class="cls-57" d="M376.68,240.14a.14.14,0,0,0-.19,0l-.94,1.37a.17.17,0,0,0,0,.12.16.16,0,0,0,.06.08.14.14,0,0,0,.19,0l.94-1.37A.15.15,0,0,0,376.68,240.14Z"></path><path class="cls-57" d="M379.76,235.38a.14.14,0,0,0,0,.12.16.16,0,0,0,.06.08.13.13,0,0,0,.19,0l.94-1.37a.13.13,0,0,0,0-.19.14.14,0,0,0-.2,0Z"></path><path class="cls-57" d="M377.73,238.36l.25.14.14-.22s0,0,0,0l-.24-.13Z"></path><polygon class="cls-57" points="381.35 233.06 381.59 233.2 381.75 232.96 381.51 232.83 381.35 233.06"></polygon><polygon class="cls-57" points="374.62 242.91 374.46 243.15 374.71 243.28 374.87 243.05 374.62 242.91"></polygon><path class="cls-57" d="M360.19,224.21a.16.16,0,0,0,0,.12.13.13,0,0,0,.06.07.14.14,0,0,0,.2,0l.93-1.37a.14.14,0,0,0,0-.2.13.13,0,0,0-.19,0Z"></path><path class="cls-57" d="M349,240.77a.13.13,0,0,0,.06.07.13.13,0,0,0,.19,0l.94-1.37a.14.14,0,0,0,0-.2.15.15,0,0,0-.2,0l-.93,1.37A.13.13,0,0,0,349,240.77Z"></path><path class="cls-57" d="M359.72,224.89l-.93,1.37a.17.17,0,0,0,0,.12.16.16,0,0,0,.06.08.13.13,0,0,0,.19,0l.94-1.37a.13.13,0,0,0,0-.19A.14.14,0,0,0,359.72,224.89Z"></path><path class="cls-57" d="M354.58,232.43a.16.16,0,0,0,0,.12.13.13,0,0,0,.06.07.13.13,0,0,0,.19,0l.14-.21-.25-.13Z"></path><path class="cls-57" d="M357.39,228.32a.13.13,0,0,0,0,.12.18.18,0,0,0,.05.07.14.14,0,0,0,.2,0l.6-.88-.25-.14Z"></path><path class="cls-57" d="M348.74,241.49a.14.14,0,0,0-.24-.16l-.66,1,.25.14Z"></path><path class="cls-57" d="M361.75,221.93l.25.14.76-1.13a.14.14,0,0,0,0-.2.15.15,0,0,0-.2,0Z"></path><path class="cls-57" d="M351.5,237.19h0l.06,0Z"></path><path class="cls-57" d="M355.75,231.22a.14.14,0,0,0,0-.2.13.13,0,0,0-.19,0l-.66.95.25.14Z"></path><path class="cls-57" d="M363.53,219.32l-.53.78a.13.13,0,0,0,0,.12.13.13,0,0,0,.06.07.13.13,0,0,0,.19,0l.73-1.08Z"></path><path class="cls-57" d="M361.58,222.27a.14.14,0,0,0,.05.08.14.14,0,0,0,.2,0h0l-.25-.14A.14.14,0,0,0,361.58,222.27Z"></path><path class="cls-57" d="M353.22,234.68a.13.13,0,0,0,.19,0l.94-1.37a.14.14,0,1,0-.24-.16l-.93,1.37a.13.13,0,0,0,0,.12A.16.16,0,0,0,353.22,234.68Z"></path><path class="cls-57" d="M351.81,236.73a.14.14,0,0,0,.2,0l.93-1.37a.14.14,0,0,0,0-.2.14.14,0,0,0-.2,0l-.93,1.37a.11.11,0,0,0,0,.12A.12.12,0,0,0,351.81,236.73Z"></path><path class="cls-57" d="M356.92,229l-.94,1.37a.13.13,0,0,0,0,.12.1.1,0,0,0,0,.08.15.15,0,0,0,.2,0l.93-1.37a.13.13,0,0,0,0-.19A.14.14,0,0,0,356.92,229Z"></path><path class="cls-57" d="M350.61,238.75l.85-1.25-.25-.14-.84,1.23a.17.17,0,0,0,0,.12.16.16,0,0,0,.06.08A.15.15,0,0,0,350.61,238.75Z"></path><path class="cls-57" d="M347.57,242.7a.13.13,0,0,0,0,.12.22.22,0,0,0,.05.08.14.14,0,0,0,.2,0l.13-.19-.25-.14Z"></path><path class="cls-57" d="M345.89,245.41a.13.13,0,0,0-.19,0l-.63.92.39-.06.47-.7A.13.13,0,0,0,345.89,245.41Z"></path><path class="cls-57" d="M358.56,227.11a.15.15,0,0,0,0-.2.15.15,0,0,0-.2,0l-.19.28.25.14Z"></path><path class="cls-57" d="M347.33,243.55a.14.14,0,0,0,0-.2.14.14,0,0,0-.2,0l-.94,1.37a.13.13,0,0,0,0,.12s0,.05.05.07a.14.14,0,0,0,.2,0Z"></path><polygon class="cls-57" points="358.22 227.6 358.38 227.37 358.13 227.23 357.97 227.46 358.22 227.6"></polygon><path class="cls-57" d="M361.6,222.15h0l.25.14.16-.23-.25-.14Z"></path><polygon class="cls-57" points="354.95 232.38 355.11 232.15 354.86 232.01 354.7 232.25 354.95 232.38"></polygon><path class="cls-57" d="M351.54,237.38a.14.14,0,0,0,0-.17l-.06,0a.12.12,0,0,0-.15,0l-.1.14.25.14Z"></path><polygon class="cls-57" points="347.84 242.3 347.68 242.53 347.93 242.67 348.09 242.44 347.84 242.3"></polygon><path class="cls-57" d="M335.89,248.09a.15.15,0,0,0-.2,0l-.44.64.16.09.17-.07.35-.5A.15.15,0,0,0,335.89,248.09Z"></path><path class="cls-57" d="M344.58,235.11a.13.13,0,0,0,0,.12.22.22,0,0,0,.05.08.14.14,0,0,0,.2,0l.71-1-.24-.14Z"></path><path class="cls-57" d="M350,227.74a.14.14,0,0,0,0-.2.14.14,0,0,0-.2,0l-.79,1.16.25.14Z"></path><path class="cls-57" d="M346,233.18a.13.13,0,0,0,.06.07.13.13,0,0,0,.19,0l.94-1.37a.14.14,0,0,0,0-.2.13.13,0,0,0-.19,0l-.94,1.37A.16.16,0,0,0,346,233.18Z"></path><path class="cls-57" d="M348.51,229.59a.14.14,0,0,0-.19,0l-.94,1.37a.17.17,0,0,0,0,.12.16.16,0,0,0,.06.08.15.15,0,0,0,.2,0l.93-1.37A.14.14,0,0,0,348.51,229.59Z"></path><path class="cls-57" d="M337.8,245.55l.87-1.28-.25-.13-.86,1.25a.16.16,0,0,0,0,.12.13.13,0,0,0,.06.07A.14.14,0,0,0,337.8,245.55Z"></path><path class="cls-57" d="M337.33,246.23a.15.15,0,0,0,0-.2.14.14,0,0,0-.19,0l-.94,1.37a.13.13,0,0,0,0,.12.16.16,0,0,0,.06.08.13.13,0,0,0,.19,0Z"></path><path class="cls-57" d="M345.75,233.9a.16.16,0,0,0,0-.2.16.16,0,0,0-.2,0l-.07.11.24.14Z"></path><path class="cls-57" d="M348.77,229.07a.12.12,0,0,0,.05.07.13.13,0,0,0,.19,0l-.23-.13A.14.14,0,0,0,348.77,229.07Z"></path><path class="cls-57" d="M343.21,237.36a.14.14,0,0,0,.2,0l.93-1.37a.14.14,0,0,0,0-.2.14.14,0,0,0-.2,0l-.94,1.37a.13.13,0,0,0,0,.12S343.18,237.34,343.21,237.36Z"></path><path class="cls-57" d="M339,243.53a.14.14,0,0,0,.2,0l.93-1.37a.13.13,0,0,0,0-.19.14.14,0,0,0-.2,0l-.93,1.37a.13.13,0,0,0,0,.12A.14.14,0,0,0,339,243.53Z"></path><path class="cls-57" d="M340.35,241.4a.13.13,0,0,0,.06.07.13.13,0,0,0,.19,0l.94-1.37a.15.15,0,0,0,0-.2.15.15,0,0,0-.2,0l-.93,1.37A.13.13,0,0,0,340.35,241.4Z"></path><path class="cls-57" d="M342.15,239.17l.79-1.16a.15.15,0,0,0,0-.2.14.14,0,0,0-.19,0L341.9,239l.23.12Z"></path><path class="cls-57" d="M341.75,239.34a.16.16,0,0,0,.06.08.14.14,0,0,0,.18,0l-.23-.12S341.75,239.32,341.75,239.34Z"></path><path class="cls-57" d="M349.18,228.88l-.25-.14-.14.21a0,0,0,0,0,0,0l.23.13h0Z"></path><polygon class="cls-57" points="345.52 234.23 345.69 233.99 345.44 233.85 345.28 234.09 345.52 234.23"></polygon><path class="cls-57" d="M342.15,239.17l0,0-.23-.12-.13.19s0,0,0,.05l.23.12h0Z"></path><path class="cls-57" d="M338.73,244.18a.14.14,0,0,0,0-.2.13.13,0,0,0-.19,0l-.08.12.25.13Z"></path><path class="cls-57" d="M335.41,248.86l-.16-.09-.13.19Z"></path><path class="cls-57" d="M328.51,244.52l0,0a.3.3,0,0,0,0-.1S328.5,244.5,328.51,244.52Z"></path><path class="cls-57" d="M332.72,238.36a.18.18,0,0,0,0,.07.14.14,0,0,0,.2,0l.94-1.37a.15.15,0,0,0,0-.2.14.14,0,0,0-.2,0l-.93,1.37A.13.13,0,0,0,332.72,238.36Z"></path><path class="cls-57" d="M339.52,228.8a.14.14,0,0,0,0-.19.14.14,0,0,0-.2,0l-.9,1.31.25.14Z"></path><path class="cls-57" d="M331.61,240.38h0a.16.16,0,0,1-.06-.08.14.14,0,0,1,0-.11.13.13,0,0,1,.19-.05h0l.73-1.07a.14.14,0,0,0,0-.2.15.15,0,0,0-.2,0l-.94,1.37a.13.13,0,0,0,0,.12.1.1,0,0,0,.05.08.15.15,0,0,0,.2,0Z"></path><path class="cls-57" d="M331.1,241.14a.14.14,0,0,0,0-.2.13.13,0,0,0-.19,0l-.94,1.37a.16.16,0,0,0,0,.12.13.13,0,0,0,.06.07.14.14,0,0,0,.2,0Z"></path><path class="cls-57" d="M328.76,244.56l.94-1.37a.14.14,0,1,0-.24-.16l-.93,1.37a.17.17,0,0,0,0,.07.3.3,0,0,1,0,.1s0,0,0,0A.13.13,0,0,0,328.76,244.56Z"></path><path class="cls-57" d="M338.08,230.66a.16.16,0,0,0-.2,0l-.93,1.37a.13.13,0,0,0,0,.12.14.14,0,0,0,.05.08.14.14,0,0,0,.2,0l.93-1.37A.14.14,0,0,0,338.08,230.66Z"></path><path class="cls-57" d="M335.78,234.29l.93-1.37a.14.14,0,0,0,0-.2.13.13,0,0,0-.19,0l-.94,1.37a.16.16,0,0,0,0,.12.13.13,0,0,0,.06.07A.14.14,0,0,0,335.78,234.29Z"></path><path class="cls-57" d="M335.31,235a.15.15,0,0,0,0-.2.14.14,0,0,0-.19,0l-.23.33.25.13Z"></path><path class="cls-57" d="M334.94,235.51l-.25-.14-.55.81a.17.17,0,0,0,0,.12.16.16,0,0,0,.06.08.13.13,0,0,0,.19,0Z"></path><path class="cls-57" d="M338.33,230.14a.13.13,0,0,0,.06.07.13.13,0,0,0,.19,0l.05-.08-.25-.14,0,.06A.13.13,0,0,0,338.33,230.14Z"></path><polygon class="cls-57" points="335.1 235.27 334.85 235.14 334.69 235.37 334.94 235.51 335.1 235.27"></polygon><path class="cls-57" d="M331.56,240.19a.14.14,0,0,0,0,.11.16.16,0,0,0,.06.08h0l.16-.23h0A.13.13,0,0,0,331.56,240.19Z"></path><path class="cls-57" d="M328.46,233.05a.14.14,0,1,0-.24-.16l-.93,1.37a.13.13,0,0,0,0,.12.16.16,0,0,0,.06.08.13.13,0,0,0,.19,0Z"></path><path class="cls-57" d="M331.72,228.26l-.22,0,0,0A.14.14,0,0,0,331.72,228.26Z"></path><path class="cls-57" d="M329.05,232.18a.15.15,0,0,1-.13,0l-.16-.09-.07.11a.16.16,0,0,0,0,.12.13.13,0,0,0,.06.07.13.13,0,0,0,.19,0Z"></path><path class="cls-57" d="M330.33,230.31l.93-1.37a.14.14,0,0,0,0-.2.15.15,0,0,0-.2,0l-.94,1.37a.17.17,0,0,0,0,.12.16.16,0,0,0,.06.08A.15.15,0,0,0,330.33,230.31Z"></path><path class="cls-57" d="M329.12,232.08l.74-1.08a.14.14,0,0,0,0-.2.13.13,0,0,0-.19,0l-.71,1,.14.07A.13.13,0,0,1,329.12,232.08Z"></path><path class="cls-57" d="M329.05,232.18l.07-.1a.13.13,0,0,0-.06-.14l-.14-.07-.16.23.16.09A.15.15,0,0,0,329.05,232.18Z"></path><path class="cls-57" d="M327.86,246.58a48.12,48.12,0,0,1-1.45-7.2c-1.22-9.2.82-11.83,1.06-12.1a.71.71,0,0,1,1.07.93c-.05.06-1.85,2.51-.73,11,1.15,8.7,3.29,11.43,3.31,11.46a.71.71,0,0,1-.1,1,.72.72,0,0,1-1-.09A14.69,14.69,0,0,1,327.86,246.58Z"></path><path class="cls-39" d="M361.92,236.35l8.42-3.56a3.13,3.13,0,1,0,4.06-4.24,3.06,3.06,0,0,0,0-2.32,3.13,3.13,0,0,0-5.83,2.28l-8.42,3.56a3.13,3.13,0,0,0-5.7,2.58,3.08,3.08,0,0,0,1.64,1.65,3.18,3.18,0,0,0,0,2.33,3.13,3.13,0,0,0,5.83-2.28Z"></path><path class="cls-54" d="M277.87,150.47c-.91.83-2.39,5.63-1.5,5.13s3.62-1.47,5-1.19a6.57,6.57,0,0,1,2.8,1.84l2.12-1.28s2.49-1.72,2.39-2.17C288.25,150.87,279.87,148.65,277.87,150.47Z"></path><path class="cls-59" d="M288.76,153a14.32,14.32,0,0,0-5.94-2.59,28.09,28.09,0,0,0-5,.33,1,1,0,0,1,.35-1.49C279.14,148.53,287.67,148.22,288.76,153Z"></path><path class="cls-43" d="M276,155.86s2.54-2.32,5.43-1.89,3.28,3.57,3.28,3.57a6.12,6.12,0,0,0-4.27-2.23A10,10,0,0,0,276,155.86Z"></path><path class="cls-44" d="M281.18,157.36a.71.71,0,1,0,.91-.31A.67.67,0,0,0,281.18,157.36Z"></path><path class="cls-54" d="M259.35,148.82c5.72-.11,4.28.1,4.45,1s-.91,7.5-.91,7.5-2.13-2.36-4.3-2.52A8.74,8.74,0,0,0,253,156.6s-3.06-3.22-3.1-4.71C249.92,151.45,259.35,148.82,259.35,148.82Z"></path><path class="cls-59" d="M249.84,152.44s4.21-3.6,8.65-4.18c3.84-.51,4.6-.49,4.94.13s1,1.72-.3,1.47S253.34,150.51,249.84,152.44Z"></path><path class="cls-43" d="M263.18,157.58a6.86,6.86,0,0,0-5.27-2.86,7.16,7.16,0,0,0-5.76,2.64,8.91,8.91,0,0,1,5.82-1.27A13.93,13.93,0,0,1,263.18,157.58Z"></path><path class="cls-44" d="M259,158.36a.71.71,0,1,0,.68-.71A.71.71,0,0,0,259,158.36Z"></path><path class="cls-48" d="M268.74,127.81c-11.32-4.22-21.37,4.65-21.37,4.65l-15,32.29,6.43,19.14-13.15,20L243.5,224.5c-4.45-7.32,1.16-12.13,1.16-12.13,5.08-9.18,3.78-16.27,3.78-16.27-1.1-6.41-5-7-2.68-9.48,2.6-2.73.07-10.31.07-12.88a62.06,62.06,0,0,0-.84-9,30.76,30.76,0,0,1,5.86-23.53c5.39-7,12.35-9.13,16.54-10.47a5.8,5.8,0,0,1,4.66.48c6.51,3.74,17.25,10.63,17.88,22.15C289.93,153.41,291.94,128.49,268.74,127.81Z"></path><path class="cls-48" d="M299.35,168a43.06,43.06,0,0,0,3.12,10.57,16.53,16.53,0,0,1,1.93,9.76c-.83,7.12-5.95,10.29-2.21,16.38s1.73,11.21,1.73,11.21a16.47,16.47,0,0,0,.07,12.94,12.86,12.86,0,0,0,1.05,1.95s-5.73-1.34-9.55-4.83c-6-5.46-8-10.42-8.59-15.58,0,0-3.9-11.42-1.16-19S299.35,168,299.35,168Z"></path><rect class="cls-60" x="209.82" y="205.18" width="44.39" height="54.01" transform="translate(-68.47 100.09) rotate(-21.29)"></rect><rect class="cls-61" x="212.53" y="208.25" width="38.96" height="47.88" transform="translate(-68.47 100.09) rotate(-21.29)"></rect><path class="cls-15" d="M224.46,217.26l-.31,6.46,1.49-1.35,1.35,1.49.31-6.47Z"></path><polygon class="cls-14" points="227.05 219.19 226.84 223.45 225.65 222.14 224.34 223.33 224.54 219.07 224.71 219.08 224.53 222.93 225.66 221.9 226.69 223.03 226.88 219.19 227.05 219.19"></polygon><path class="cls-15" d="M225.47,218.1l4.6,4.55v-2h2l-4.6-4.55Z"></path><polygon class="cls-14" points="228.64 217.47 231.67 220.47 229.89 220.48 229.9 222.26 226.87 219.26 226.99 219.14 229.73 221.85 229.72 220.31 231.26 220.31 228.52 217.6 228.64 217.47"></polygon><path class="cls-14" d="M222,217.43a.82.82,0,0,1,.22.56,1.77,1.77,0,0,0,0,.23s0,.08,0,.13a.8.8,0,0,0,.49.71l.24.08a.73.73,0,0,1,.49.45l0,.09a.78.78,0,0,0,.88.45h0a.75.75,0,0,1,.69.18h0a.78.78,0,0,0,1,0l0,0a.79.79,0,0,1,.7-.12l0,0a.79.79,0,0,0,.9-.35l0,0a.75.75,0,0,1,.6-.38h0a.77.77,0,0,0,.7-.68h0a.8.8,0,0,1,.39-.6h0a.79.79,0,0,0,.34-.93.19.19,0,0,0,0-.07.78.78,0,0,1,.06-.68,2,2,0,0,0,.12-.21.78.78,0,0,0-.11-.85,4,4,0,0,0-.27-.31.75.75,0,0,1-.22-.57c0-.13,0-.27,0-.4a.78.78,0,0,0-.5-.71l-.23-.07a.77.77,0,0,1-.5-.45l0-.08a.78.78,0,0,0-.88-.44h0a.79.79,0,0,1-.69-.18h0a.74.74,0,0,0-1,0l0,0a.77.77,0,0,1-.7.13h0a.77.77,0,0,0-.9.35l0,0a.77.77,0,0,1-.59.38h0a.79.79,0,0,0-.69.7h0a.78.78,0,0,1-.39.6l0,0a.77.77,0,0,0-.34.92.36.36,0,0,0,0,.09.8.8,0,0,1-.05.66,1.59,1.59,0,0,0-.13.22.78.78,0,0,0,.12.86l.08.1Z"></path><path class="cls-15" d="M225.35,213.52a.37.37,0,0,0,.06-.32.37.37,0,0,0-.28.17.43.43,0,0,0-.06.33A.41.41,0,0,0,225.35,213.52Z"></path><path class="cls-15" d="M225.08,213.14a.43.43,0,0,0,.33.06.41.41,0,0,0-.18-.28.38.38,0,0,0-.32-.06A.38.38,0,0,0,225.08,213.14Z"></path><path class="cls-15" d="M226.38,219.61a.43.43,0,0,1-.18-.28.43.43,0,0,1,.33,0,.38.38,0,0,1,.17.28A.37.37,0,0,1,226.38,219.61Z"></path><path class="cls-15" d="M226.48,219.15a.43.43,0,0,1-.28.18.39.39,0,0,1,.06-.33.37.37,0,0,1,.28-.17A.42.42,0,0,1,226.48,219.15Z"></path><path class="cls-15" d="M225.83,213.49a.39.39,0,0,0,.11-.32.39.39,0,0,0-.3.13.41.41,0,0,0-.11.31A.42.42,0,0,0,225.83,213.49Z"></path><path class="cls-15" d="M225.63,213.06a.38.38,0,0,0,.31.11.35.35,0,0,0-.12-.3.38.38,0,0,0-.31-.11A.39.39,0,0,0,225.63,213.06Z"></path><path class="cls-15" d="M225.79,219.66a.43.43,0,0,1-.13-.31.42.42,0,0,1,.32.11.45.45,0,0,1,.12.31A.41.41,0,0,1,225.79,219.66Z"></path><path class="cls-15" d="M226,219.23a.43.43,0,0,1-.31.12.42.42,0,0,1,.12-.31.39.39,0,0,1,.3-.13A.42.42,0,0,1,226,219.23Z"></path><path class="cls-15" d="M226.31,213.53a.38.38,0,0,0,.17-.28.37.37,0,0,0-.33.07.4.4,0,0,0-.16.28A.37.37,0,0,0,226.31,213.53Z"></path><path class="cls-15" d="M226.19,213.08a.39.39,0,0,0,.29.16.4.4,0,0,0-.36-.48A.41.41,0,0,0,226.19,213.08Z"></path><path class="cls-15" d="M225.2,219.6a.41.41,0,0,1-.07-.32.43.43,0,0,1,.29.16.44.44,0,0,1,.07.33A.4.4,0,0,1,225.2,219.6Z"></path><path class="cls-15" d="M225.45,219.21a.41.41,0,0,1-.32.07.43.43,0,0,1,.16-.29.44.44,0,0,1,.33-.07A.4.4,0,0,1,225.45,219.21Z"></path><path class="cls-15" d="M226.78,213.66a.37.37,0,0,0,.21-.25.42.42,0,0,0-.33,0,.39.39,0,0,0-.21.26A.39.39,0,0,0,226.78,213.66Z"></path><path class="cls-15" d="M226.73,213.2a.41.41,0,0,0,.26.21.42.42,0,0,0,0-.33.41.41,0,0,0-.26-.21A.42.42,0,0,0,226.73,213.2Z"></path><path class="cls-15" d="M224.63,219.45a.42.42,0,0,1,0-.33.37.37,0,0,1,.25.21.38.38,0,0,1,0,.33A.42.42,0,0,1,224.63,219.45Z"></path><path class="cls-15" d="M225,219.1a.39.39,0,0,1-.33,0,.39.39,0,0,1,.21-.26.42.42,0,0,1,.33,0A.37.37,0,0,1,225,219.1Z"></path><path class="cls-15" d="M227.21,213.87a.4.4,0,0,0,.26-.21.43.43,0,0,0-.33,0,.42.42,0,0,0-.25.22A.36.36,0,0,0,227.21,213.87Z"></path><path class="cls-15" d="M227.25,213.41a.45.45,0,0,0,.22.25.38.38,0,0,0,0-.33.4.4,0,0,0-.21-.25A.41.41,0,0,0,227.25,213.41Z"></path><path class="cls-15" d="M224.1,219.19a.36.36,0,0,1,0-.32.4.4,0,0,1,.22.25.43.43,0,0,1-.05.33A.4.4,0,0,1,224.1,219.19Z"></path><path class="cls-15" d="M224.47,218.91a.47.47,0,0,1-.33,0,.45.45,0,0,1,.25-.22.41.41,0,0,1,.33,0A.4.4,0,0,1,224.47,218.91Z"></path><path class="cls-15" d="M227.61,214.16a.41.41,0,0,0,.28-.17.35.35,0,0,0-.31-.1.41.41,0,0,0-.29.16A.42.42,0,0,0,227.61,214.16Z"></path><path class="cls-15" d="M227.73,213.7a.41.41,0,0,0,.16.29.42.42,0,0,0,.11-.32.41.41,0,0,0-.17-.28A.35.35,0,0,0,227.73,213.7Z"></path><path class="cls-15" d="M223.61,218.85a.42.42,0,0,1,.1-.31.35.35,0,0,1,.17.28.38.38,0,0,1-.1.32A.46.46,0,0,1,223.61,218.85Z"></path><path class="cls-15" d="M224,218.64a.42.42,0,0,1-.31-.1.38.38,0,0,1,.28-.17.42.42,0,0,1,.31.1A.41.41,0,0,1,224,218.64Z"></path><path class="cls-15" d="M228,214.5a.39.39,0,0,0,.31-.11.43.43,0,0,0-.3-.16.41.41,0,0,0-.3.12A.38.38,0,0,0,228,214.5Z"></path><path class="cls-15" d="M228.14,214.08a.39.39,0,0,0,.12.31.42.42,0,0,0,.15-.3.42.42,0,0,0-.11-.31A.43.43,0,0,0,228.14,214.08Z"></path><path class="cls-15" d="M223.2,218.43a.36.36,0,0,1,.15-.29.43.43,0,0,1,.12.31.41.41,0,0,1-.16.29A.39.39,0,0,1,223.2,218.43Z"></path><path class="cls-15" d="M223.64,218.29a.18.18,0,1,1,0-.27.41.41,0,0,1,.29.16A.42.42,0,0,1,223.64,218.29Z"></path><ellipse class="cls-15" cx="228.25" cy="214.77" rx="0.14" ry="0.3" transform="translate(-34.49 385.62) rotate(-76.29)"></ellipse><path class="cls-15" d="M228.49,214.52a.37.37,0,0,0,.06.32.38.38,0,0,0,.2-.26.4.4,0,0,0-.06-.32A.38.38,0,0,0,228.49,214.52Z"></path><path class="cls-15" d="M222.86,217.94a.43.43,0,0,1,.2-.26.42.42,0,0,1,.06.33.41.41,0,0,1-.2.26A.42.42,0,0,1,222.86,217.94Z"></path><path class="cls-15" d="M223.32,217.88a.38.38,0,0,1-.26-.2.42.42,0,0,1,.33-.06.44.44,0,0,1,.26.2A.38.38,0,0,1,223.32,217.88Z"></path><path class="cls-15" d="M228.42,215.34a.38.38,0,0,0,.33,0,.4.4,0,0,0-.22-.24.38.38,0,0,0-.33,0A.38.38,0,0,0,228.42,215.34Z"></path><path class="cls-15" d="M228.75,215a.42.42,0,0,0,0,.33.39.39,0,0,0,.25-.22.42.42,0,0,0,0-.33A.39.39,0,0,0,228.75,215Z"></path><path class="cls-15" d="M222.61,217.41a.45.45,0,0,1,.24-.23.42.42,0,0,1,0,.33.43.43,0,0,1-.25.23A.42.42,0,0,1,222.61,217.41Z"></path><path class="cls-15" d="M223.08,217.43a.39.39,0,0,1-.22-.25.4.4,0,1,1,.22.25Z"></path><path class="cls-15" d="M228.54,215.81a.43.43,0,0,0,.33.06.41.41,0,0,0-.18-.28.37.37,0,0,0-.32-.06A.38.38,0,0,0,228.54,215.81Z"></path><path class="cls-15" d="M228.93,215.54a.39.39,0,0,0-.06.33.42.42,0,0,0,.34-.51A.41.41,0,0,0,228.93,215.54Z"></path><path class="cls-15" d="M222.46,216.84a.38.38,0,0,1,.28-.18.4.4,0,0,1-.34.5A.4.4,0,0,1,222.46,216.84Z"></path><path class="cls-15" d="M222.91,216.94a.42.42,0,0,1-.17-.28.4.4,0,0,1,.5.33A.39.39,0,0,1,222.91,216.94Z"></path><path class="cls-15" d="M228.58,216.29a.41.41,0,0,0,.31.11.39.39,0,0,0-.12-.3.38.38,0,0,0-.31-.11A.35.35,0,0,0,228.58,216.29Z"></path><path class="cls-15" d="M229,216.09a.41.41,0,0,0-.11.31.41.41,0,0,0,.31-.12.41.41,0,0,0,.11-.31A.38.38,0,0,0,229,216.09Z"></path><path class="cls-15" d="M222.41,216.25a.4.4,0,0,1,.31-.13.41.41,0,0,1-.12.31.18.18,0,1,1-.19-.18Z"></path><path class="cls-15" d="M222.84,216.43a.37.37,0,0,1-.12-.31.41.41,0,0,1,.31.11.42.42,0,0,1,.12.31A.41.41,0,0,1,222.84,216.43Z"></path><path class="cls-15" d="M228.53,216.77a.39.39,0,0,0,.29.16.4.4,0,0,0-.36-.48A.41.41,0,0,0,228.53,216.77Z"></path><path class="cls-15" d="M229,216.65a.18.18,0,1,0,.16.22.42.42,0,0,0,.17-.29A.44.44,0,0,0,229,216.65Z"></path><path class="cls-15" d="M222.46,215.66a.44.44,0,0,1,.33-.07.41.41,0,0,1-.49.36A.43.43,0,0,1,222.46,215.66Z"></path><path class="cls-15" d="M222.86,215.91a.37.37,0,0,1-.07-.32.45.45,0,0,1,.29.16.39.39,0,0,1,.06.33A.38.38,0,0,1,222.86,215.91Z"></path><path class="cls-15" d="M228.4,217.24a.45.45,0,0,0,.26.21.42.42,0,0,0,0-.33.41.41,0,0,0-.26-.21A.42.42,0,0,0,228.4,217.24Z"></path><path class="cls-15" d="M228.87,217.19a.41.41,0,0,0-.21.26.42.42,0,0,0,.33,0,.41.41,0,0,0,.21-.26A.42.42,0,0,0,228.87,217.19Z"></path><path class="cls-15" d="M222.62,215.09a.42.42,0,0,1,.33,0,.4.4,0,0,1-.21.25.38.38,0,0,1-.33,0A.4.4,0,0,1,222.62,215.09Z"></path><path class="cls-15" d="M223,215.41a.42.42,0,0,1,0-.33.41.41,0,0,1,.26.21.42.42,0,0,1,0,.33A.41.41,0,0,1,223,215.41Z"></path><path class="cls-15" d="M228.19,217.67a.4.4,0,0,0,.22.25.41.41,0,0,0-.17-.57A.4.4,0,0,0,228.19,217.67Z"></path><path class="cls-15" d="M228.66,217.71a.4.4,0,0,0-.25.21.41.41,0,0,0,.33.05.4.4,0,0,0,.25-.21A.42.42,0,0,0,228.66,217.71Z"></path><path class="cls-15" d="M222.87,214.55a.41.41,0,0,1,.33,0,.4.4,0,0,1-.25.21.38.38,0,0,1-.33,0A.45.45,0,0,1,222.87,214.55Z"></path><path class="cls-15" d="M223.16,214.93a.38.38,0,0,1,0-.33.45.45,0,0,1,.22.25.41.41,0,0,1,0,.33A.4.4,0,0,1,223.16,214.93Z"></path><path class="cls-15" d="M227.91,218.07a.38.38,0,0,0,.17.28.4.4,0,0,0-.07-.6A.44.44,0,0,0,227.91,218.07Z"></path><path class="cls-15" d="M228.36,218.18a.41.41,0,0,0-.28.17.35.35,0,0,0,.31.1.18.18,0,1,0,0-.27Z"></path><path class="cls-15" d="M223.22,214.07a.43.43,0,0,1,.31.1.42.42,0,0,1-.29.17.43.43,0,0,1-.31-.1A.4.4,0,0,1,223.22,214.07Z"></path><path class="cls-15" d="M223.43,214.49a.18.18,0,1,1,.27,0,.42.42,0,0,1-.1.31A.38.38,0,0,1,223.43,214.49Z"></path><path class="cls-15" d="M227.56,218.41a.43.43,0,0,0,.12.31.42.42,0,0,0,0-.61A.43.43,0,0,0,227.56,218.41Z"></path><path class="cls-15" d="M228,218.6a.39.39,0,0,0-.31.12.43.43,0,0,0,.29.15.42.42,0,0,0,.31-.11A.41.41,0,0,0,228,218.6Z"></path><path class="cls-15" d="M223.64,213.65a.41.41,0,0,1,.29.16.39.39,0,0,1-.31.11.36.36,0,0,1-.29-.15A.43.43,0,0,1,223.64,213.65Z"></path><path class="cls-15" d="M223.77,214.1a.41.41,0,0,1,.16-.29.39.39,0,0,1,.11.31.36.36,0,0,1-.15.29A.43.43,0,0,1,223.77,214.1Z"></path><path class="cls-15" d="M227.16,218.68a.44.44,0,0,0,.06.32.4.4,0,0,0,.21-.26.4.4,0,0,0-.06-.32A.4.4,0,0,0,227.16,218.68Z"></path><path class="cls-15" d="M227.55,219a.39.39,0,0,0-.33.06.46.46,0,0,0,.27.2.4.4,0,0,0,.32-.06A.36.36,0,0,0,227.55,219Z"></path><path class="cls-15" d="M224.12,213.32a.36.36,0,0,1,.26.2.39.39,0,0,1-.32.06.41.41,0,0,1-.26-.2A.37.37,0,0,1,224.12,213.32Z"></path><path class="cls-15" d="M224.18,213.78a.41.41,0,0,1,.2-.26.38.38,0,0,1,.06.33.4.4,0,0,1-.2.26A.42.42,0,0,1,224.18,213.78Z"></path><path class="cls-15" d="M226.72,218.88a.42.42,0,0,0,0,.33A.39.39,0,0,0,227,219a.42.42,0,0,0,0-.33A.39.39,0,0,0,226.72,218.88Z"></path><path class="cls-15" d="M227.06,219.21a.42.42,0,0,0-.33,0,.39.39,0,0,0,.22.25.18.18,0,1,0,.11-.25Z"></path><path class="cls-15" d="M224.66,213.07a.4.4,0,0,1,.22.24.38.38,0,0,1-.33,0,.38.38,0,0,1-.22-.24A.38.38,0,0,1,224.66,213.07Z"></path><path class="cls-15" d="M224.64,213.54a.45.45,0,0,1,.24-.23.42.42,0,0,1,0,.33.43.43,0,0,1-.25.23A.42.42,0,0,1,224.64,213.54Z"></path><text class="cls-62" transform="matrix(0.93, -0.36, 0.36, 0.93, 216.68, 235.5)">W<tspan class="cls-63" x="4.64" y="0">i</tspan><tspan class="cls-64" x="6.15" y="0">ll </tspan><tspan x="11.32" y="0">W</tspan><tspan class="cls-65" x="15.96" y="0">riti</tspan><tspan class="cls-66" x="23.15" y="0">n</tspan><tspan class="cls-65" x="26.06" y="0">g</tspan></text><path class="cls-53" d="M240.36,237.57l4-2.39s9.93-9.49,10.77-9.46,5.92,15.43,5.31,16.54-17.31,3.3-17.31,3.3Z"></path><polygon class="cls-67" points="239.91 236.6 244.87 234.22 249.18 245.48 244.22 247.86 239.91 236.6"></polygon><path class="cls-56" d="M212.89,244.8,207,229c-6.78,9.73-8.84,15.73-9.13,17A9.65,9.65,0,0,0,201,255.9q2.76,2.29,8.06,2.49c8.24.3,21.06-3.2,38.29-10.49L241,234.78C230.07,239.41,219.35,243.78,212.89,244.8Z"></path><path class="cls-68" d="M93.88,253.73c-.47.48-12.06,13.79-12.06,13.79l2.45,4.57h14.8Z"></path><polygon class="cls-69" points="84.18 227.81 83.58 229.18 96.14 272.09 127.39 271.75 127.39 270.44 84.18 227.81"></polygon><polygon class="cls-19" points="127.39 270.44 97.25 270.67 84.18 227.81 114.06 227.47 127.39 270.44"></polygon><polygon class="cls-61" points="124.2 267.42 99.63 267.82 87.95 230.69 112.52 230.3 124.2 267.42"></polygon><ellipse class="cls-18" cx="91.61" cy="234.02" rx="0.9" ry="1.37" transform="translate(-110.63 84.83) rotate(-32.21)"></ellipse><ellipse class="cls-18" cx="110.03" cy="233.67" rx="0.87" ry="1.32" transform="translate(-107.61 94.59) rotate(-32.21)"></ellipse><ellipse class="cls-18" cx="101.18" cy="265.87" rx="0.78" ry="1.19" transform="translate(-126.14 94.83) rotate(-32.21)"></ellipse><ellipse class="cls-18" cx="119.6" cy="265.53" rx="0.79" ry="1.2" transform="matrix(0.85, -0.53, 0.53, 0.85, -123.12, 104.6)"></ellipse><g class="cls-70"><polygon class="cls-71" points="107.56 262.35 97.66 262.51 89.58 236.81 99.48 236.66 107.56 262.35"></polygon><polygon class="cls-44" points="113.95 262.25 106.75 262.37 98.67 236.67 105.87 236.55 113.95 262.25"></polygon><polygon class="cls-72" points="123.39 262.1 113.41 262.26 105.33 236.56 115.31 236.4 123.39 262.1"></polygon><polygon class="cls-71" points="94.88 231.9 90.69 231.96 89.73 228.92 93.92 228.85 94.88 231.9"></polygon></g><path class="cls-57" d="M107.12,253.25c.16.29.38.79.63,1.39.43-1,.88-1.88,1.17-2.43.11-.24.27-.15.39.1a1.93,1.93,0,0,1-.1,1.66c-.31.64-.61,1.23-.93,1.92a17.18,17.18,0,0,0,1.71,3.36c.2.24.1.33-.08.31-.41,0-.9-.33-1.5-1.51-.22-.44-.35-.7-.56-1.18a16.86,16.86,0,0,0-.93,2.66c0,.2-.21.16-.33,0a1.87,1.87,0,0,1-.17-.35,2,2,0,0,1,0-.92,17.09,17.09,0,0,1,.92-2.56c-.48-1.11-1-2.22-1.46-3.22-.09-.18,0-.27.15-.24S106.71,252.48,107.12,253.25Z"></path><polygon class="cls-69" points="88.39 232.09 111.4 231.71 122.6 267.45 124.2 267.42 112.52 230.3 87.95 230.69 88.39 232.09"></polygon></svg> 