<?xml version="1.0" encoding="UTF-8"?> <svg xmlns="http://www.w3.org/2000/svg" id="Amanda" viewBox="0 0 112.5 138.7"><defs><style>.cls-1{fill:#d4a634;}.cls-2,.cls-7{fill:#8c0c5b;}.cls-2{fill-rule:evenodd;}.cls-3{fill:#f2c3b4;}.cls-4{fill:#eabaad;}.cls-5{fill:#373737;}.cls-6{fill:#fff;}.cls-8{fill:#b68607;}</style></defs><path class="cls-1" d="M19.16,33.79a56.58,56.58,0,0,0,4.21-5.07C28.92,21.21,34.56,17.83,44,14.79c7-2.25,20.26-3.86,23.8,6.87-.18-.54,6.65-.85,9-.92,6.54-.2,13.16,3.43,15.2,6.64A26,26,0,0,1,95.29,38a41.78,41.78,0,0,0,2.44,10.18,23.65,23.65,0,0,1,1.86,8.23c0,4.86-3.9,10.88-2.93,15.63.91,4.42,1.72,8.39,3.67,12.43,1.87,3.88,2.77,7.18,2.27,11.48-1,8.38-7,12.11-2.6,19.27s2,13.19,2,13.19a19.38,19.38,0,0,0,.09,15.22,15.64,15.64,0,0,0,1.24,2.3s-6.75-1.59-11.23-5.69c-7-6.42-9.45-12.26-10.11-18.32L9.71,123.19c-5-4.9-3.87-11.27-.83-16.82,1.54-3.57,6.91-15.08,4.24-19.76,0,0-7.54-6.88-1.57-20.4,5.38-12.2,6.24-10,4.27-19.31C14.4,40.22,17.15,35.92,19.16,33.79Z"></path><path class="cls-2" d="M155.44,143.91,160,157.49c-89.87,27.77-86.92-44.31-73.71-44.44C103.18,112.88,90.61,161,155.44,143.91Z"></path><path class="cls-3" d="M39.63,31.84S26.79,53.72,24.06,69.76c-1.68,9.85,12.9,32,30.4,32.61,11.62.42,23.56-5,27.92-21.68C86.65,64.36,83.48,41,83.48,41S75.82,26.36,63.41,26,39.63,31.84,39.63,31.84Z"></path><path class="cls-4" d="M62.27,63.7s3.54,4.47,3.31,6.58-4.91,3.29-4.91,3.29,5.71-.23,7-2.23C68.64,69.75,62.27,63.7,62.27,63.7Z"></path><path class="cls-5" d="M71,57.5a3.7,3.7,0,0,0,2,4.81,3.62,3.62,0,0,0,4.88-1.62,3.69,3.69,0,0,0-2-4.81A3.61,3.61,0,0,0,71,57.5Z"></path><path class="cls-5" d="M52.13,60.41a3.8,3.8,0,1,1-4-3.36A3.68,3.68,0,0,1,52.13,60.41Z"></path><path class="cls-4" d="M38.31,75.22a5.28,5.28,0,0,1,2.34.64,3,3,0,0,1,1.52,2.22,3.27,3.27,0,0,1-.68,2.34,4.49,4.49,0,0,1-1.74,1.46c.18-.75.42-1.39.61-2a4.62,4.62,0,0,0,.21-1.7,2.43,2.43,0,0,0-.69-1.41,7.28,7.28,0,0,0-.74-.72A4.58,4.58,0,0,1,38.31,75.22Z"></path><path class="cls-4" d="M76.73,74.59a5.24,5.24,0,0,0-2.33.64,3,3,0,0,0-1.53,2.22,3.36,3.36,0,0,0,.68,2.34,4.52,4.52,0,0,0,1.75,1.46c-.18-.75-.43-1.39-.61-2a4.65,4.65,0,0,1-.22-1.7,2.61,2.61,0,0,1,.69-1.42,10.21,10.21,0,0,1,.74-.71A4.28,4.28,0,0,0,76.73,74.59Z"></path><path class="cls-6" d="M73.36,176.47c12.11-21,17.48-56.91,17.64-61.29.23-6.28-15.44-12-35-12.67s-35.6,3.79-35.83,10.06C20,117,23.69,153.22,34.82,175.05Z"></path><path class="cls-3" d="M73.39,107.46c-.1,2.74-7.59,4.69-16.73,4.36S40.19,109,40.29,106.24s7.59-4.69,16.73-4.35S73.49,104.72,73.39,107.46Z"></path><rect class="cls-3" x="47.62" y="76.38" width="17.98" height="28.62" transform="translate(3.37 -2.02) rotate(2.11)"></rect><path class="cls-7" d="M47.3,102.44s-3.08,11.82-3.84,32.34.9,65.66.9,65.66l-25.57-7.57,9.92-17.53L15.06,113.85S20.06,104.09,47.3,102.44Z"></path><path class="cls-7" d="M65.16,102.83s2.68,11.39,1.92,31.91-5.72,65.42-5.72,65.42l26.06-5.68-8.61-18.21L96.94,116S92.2,106.48,65.16,102.83Z"></path><path class="cls-6" d="M70.76,79.19s-1.16,2.93-10.21,3.16-14.73-2.71-14.73-2.71,4,10.67,15.46,10.1C70,89.32,70.76,79.19,70.76,79.19Z"></path><path class="cls-4" d="M71.39,51.37c-1.07,1-2.8,6.63-1.76,6s4.27-1.73,5.9-1.4a7.81,7.81,0,0,1,3.31,2.16l2.48-1.51s2.94-2,2.82-2.55C83.61,51.85,73.75,49.24,71.39,51.37Z"></path><path class="cls-8" d="M84.21,54.29s-3.55-2.69-7-3a32.27,32.27,0,0,0-5.9.38,1.15,1.15,0,0,1,.4-1.75C72.9,49.09,82.92,48.72,84.21,54.29Z"></path><path class="cls-5" d="M69.15,57.71s3-2.72,6.39-2.23,3.86,4.21,3.86,4.21a7.18,7.18,0,0,0-5-2.62A11.72,11.72,0,0,0,69.15,57.71Z"></path><path class="cls-6" d="M75.29,59.47a.81.81,0,0,0,.43,1.06.8.8,0,0,0,1.07-.36.81.81,0,0,0-.43-1.06A.8.8,0,0,0,75.29,59.47Z"></path><path class="cls-4" d="M49.61,49.43c6.74-.12,5,.12,5.24,1.15s-1.07,8.82-1.07,8.82-2.5-2.77-5.06-3a10.33,10.33,0,0,0-6.55,2.14s-3.59-3.78-3.63-5.53C38.52,52.53,49.61,49.43,49.61,49.43Z"></path><path class="cls-8" d="M38.42,53.68s5-4.22,10.18-4.91c4.52-.6,5.41-.57,5.81.15s1.19,2-.35,1.73S42.54,51.42,38.42,53.68Z"></path><path class="cls-5" d="M54.11,59.74a8,8,0,0,0-6.19-3.37,8.46,8.46,0,0,0-6.78,3.11A10.5,10.5,0,0,1,48,58,16.12,16.12,0,0,1,54.11,59.74Z"></path><path class="cls-6" d="M49.15,60.65a.84.84,0,0,0,1.67-.09.84.84,0,0,0-1.67.09Z"></path><path class="cls-1" d="M96.66,72c.91,4.42,1.72,8.39,3.67,12.43,1.87,3.88,2.77,7.18,2.27,11.48-1,8.38-7,12.11-2.6,19.27s2,13.19,2,13.19a19.38,19.38,0,0,0,.09,15.22,15.64,15.64,0,0,0,1.24,2.3s-6.75-1.59-11.23-5.69c-7-6.42-9.45-12.26-10.11-18.32,0,0-4.59-13.44-1.36-22.36S96.66,72,96.66,72Z"></path><path class="cls-2" d="M86.75,147.11l2,13.67C-1.31,171.93,15,107.46,27.53,109.58,43.6,112.28,22.27,152.39,86.75,147.11Z"></path><path class="cls-1" d="M60.66,24.72c-13.32-5-25.14,5.46-25.14,5.46l-17.67,38,7.57,22.52L10,114.24l21,24.21c-5.24-8.61,1.37-14.27,1.37-14.27,6-10.8,4.44-19.14,4.44-19.14-1.29-7.53-5.87-8.29-3.15-11.14,3-3.21.08-12.13.07-15.16a72.45,72.45,0,0,0-1-10.54,36.14,36.14,0,0,1,6.89-27.67C46,32.33,54.14,29.79,59.07,28.21a6.81,6.81,0,0,1,5.49.57c7.65,4.4,20.28,12.49,21,26.05C85.58,54.83,87.94,25.52,60.66,24.72Z"></path><path class="cls-1" d="M16.56,85.61c.35.68.73,1.35,1.11,2A2.57,2.57,0,0,0,16.56,85.61Z"></path><path class="cls-1" d="M31,138.45l-9.82-14.61a6,6,0,0,1,1-3.47,19.74,19.74,0,0,1,2.57-2.43,10.44,10.44,0,0,0,2.84-7.29A22.68,22.68,0,0,0,26,102.83c-2-5.71-5.45-10.17-8.36-15.21.52,4.21-3.92,12.86-5.19,14.88a51.93,51.93,0,0,0-3.19,5.24c-2.35,4.94-2,10.83-.28,16a16.57,16.57,0,0,1,1.28,5.09c0,1.76-.91,3.67-2.6,4.16a4.72,4.72,0,0,0,5.19-3.19,23.35,23.35,0,0,0,.36-3.75,3.34,3.34,0,0,1,2-3c-1.14.73-1.12,2.45-.58,3.7s1.45,2.36,1.68,3.7a4,4,0,0,1-3,4.42,6.19,6.19,0,0,0,7.66-3.67,5.12,5.12,0,0,0,.15-.56A16.48,16.48,0,0,0,31,138.45Z"></path></svg> 