<?xml version="1.0" encoding="UTF-8"?> <svg xmlns="http://www.w3.org/2000/svg" viewBox="0 0 78.3 87.71"><defs><style>.cls-1{fill:#90a4ae;}.cls-2,.cls-8{fill:#757575;}.cls-2{fill-rule:evenodd;}.cls-3{fill:#78909c;}.cls-4{fill:#ff6464;}.cls-5{fill:#aaf589;}.cls-6{fill:#eee;}.cls-7{fill:#b0bec5;}.cls-9{fill:#b3e5fc;}.cls-10{fill:#e5646e;}.cls-11{fill:#616161;}.cls-12{fill:#546e7a;}.cls-13{fill:none;stroke:#757575;stroke-miterlimit:10;stroke-width:0.93px;}</style></defs><g id="building"><circle class="cls-1" cx="46.71" cy="83.48" r="4.23"></circle><circle class="cls-1" cx="36.38" cy="83.48" r="4.23"></circle><path class="cls-2" d="M33.49,75.13V83a2.9,2.9,0,1,0,5.79,0V69.75l-2.85-2-2.94,2Zm0,0"></path><path class="cls-2" d="M43.81,75.13V83a2.9,2.9,0,1,0,5.79,0V69.75l-2.84-2-2.95,2Zm0,0"></path><path class="cls-3" d="M32.8,11.33h-11V10a.69.69,0,0,1,.69-.69h9.62a.69.69,0,0,1,.68.69Z"></path><path class="cls-4" d="M32.12,9.27H22.5V4.81A4.81,4.81,0,0,1,27.31,0h0a4.81,4.81,0,0,1,4.81,4.81Z"></path><path class="cls-3" d="M33.15,12.36H21.47a.34.34,0,0,1-.34-.34v-.34a.35.35,0,0,1,.34-.35H33.15a.35.35,0,0,1,.34.35V12A.34.34,0,0,1,33.15,12.36Z"></path><path class="cls-3" d="M49.63,11.33h-11V10a.68.68,0,0,1,.68-.69h9.62a.69.69,0,0,1,.69.69Z"></path><path class="cls-5" d="M48.94,9.27H39.32V4.81A4.81,4.81,0,0,1,44.13,0h0a4.81,4.81,0,0,1,4.81,4.81Z"></path><path class="cls-3" d="M50,12.36H38.29A.34.34,0,0,1,38,12v-.34a.35.35,0,0,1,.34-.35H50a.35.35,0,0,1,.34.35V12A.34.34,0,0,1,50,12.36Z"></path><path class="cls-3" d="M75.61,57.12H50.86l-5-16.74,5-17.22H75.61a2.69,2.69,0,0,1,2.69,2.69V54.43a2.68,2.68,0,0,1-2.69,2.69Zm0,0"></path><path class="cls-6" d="M62.9,15.05V68a2.69,2.69,0,0,1-2.69,2.69H2.69A2.68,2.68,0,0,1,0,68v-53a2.69,2.69,0,0,1,2.69-2.69H60.21a2.7,2.7,0,0,1,2.69,2.69Zm0,0"></path><path class="cls-5" d="M65.67,51.07V29.21A1.35,1.35,0,0,1,67,27.87h5.85a1.34,1.34,0,0,1,1.35,1.34V51.07a1.35,1.35,0,0,1-1.35,1.35H67a1.36,1.36,0,0,1-1.35-1.35Zm0,0"></path><path class="cls-7" d="M62.9,60.91V68a2.69,2.69,0,0,1-2.69,2.69H2.69A2.68,2.68,0,0,1,0,68V60.91Zm0,0"></path><path class="cls-8" d="M53.1,67.79H31a2.22,2.22,0,0,1,0-4.44H53.1a2.22,2.22,0,1,1,0,4.44Zm0,0"></path><circle class="cls-8" cx="32" cy="24.94" r="6.85"></circle><circle class="cls-8" cx="49.22" cy="24.94" r="6.85"></circle><path class="cls-9" d="M36.54,28.08a6.44,6.44,0,0,1-.64.76,5,5,0,0,1-.8.66,5.5,5.5,0,1,1,1.44-1.42Zm0,0"></path><path class="cls-9" d="M53.11,28.84a5.51,5.51,0,1,1-.79-8.46,5.42,5.42,0,0,1,.79.66,5.73,5.73,0,0,1,.64.76,5.52,5.52,0,0,1-.64,7Zm0,0"></path><path class="cls-10" d="M36.54,28.08a6.44,6.44,0,0,1-.64.76,5,5,0,0,1-.8.66l-3.81-3.85a1,1,0,1,1,1.43-1.42Zm0,0"></path><path class="cls-10" d="M53.75,21.8l-3.82,3.85a1,1,0,0,1-1.43-1.42l3.82-3.85a5.42,5.42,0,0,1,.79.66,5.73,5.73,0,0,1,.64.76Zm0,0"></path><path class="cls-3" d="M53.47,36.17V54.8l-12.6,3.74L27.92,54.8V36.17a2,2,0,0,1,2-2h21.5a2,2,0,0,1,2,2Zm0,0"></path><path class="cls-9" d="M50.31,45.8H31.09a1,1,0,0,1-1-1V37.61a1,1,0,0,1,1-1H50.31a1,1,0,0,1,1,1v7.18a1,1,0,0,1-1,1Zm0,0"></path><path class="cls-11" d="M22.5,40.18a6.58,6.58,0,1,1-6.58-6.58,6.58,6.58,0,0,1,6.58,6.58Zm0,0"></path><path class="cls-9" d="M21,40.05A5.08,5.08,0,1,1,15.92,35,5.07,5.07,0,0,1,21,40.05Zm0,0"></path><path class="cls-12" d="M16.76,37.68a.3.3,0,0,1,.13,0,.47.47,0,0,1,.32.58c-.29,1-.75,2.48-.75,2.48l-.9-.27S16,39,16.31,38a.46.46,0,0,1,.45-.33Zm0,0"></path><path class="cls-10" d="M17.51,41.24a1.59,1.59,0,1,1-1.59-1.59,1.59,1.59,0,0,1,1.59,1.59Zm0,0"></path><path class="cls-1" d="M11,41.24a5.08,5.08,0,0,0,9.87,0Zm0,0"></path><path class="cls-12" d="M15.46,35a.09.09,0,0,0,0,0v1.12a.47.47,0,1,0,.94,0V35l-.47,0-.46,0Zm0,0"></path><path class="cls-12" d="M12,36.81l0,0,.79.79a.51.51,0,0,0,.34.14.47.47,0,0,0,.33-.8l-.8-.8,0,0a4.65,4.65,0,0,0-.66.67Zm0,0"></path><path class="cls-12" d="M19.83,36.81a4.65,4.65,0,0,0-.66-.67l0,0-.79.8a.45.45,0,0,0,0,.66.46.46,0,0,0,.66,0l.8-.79,0,0Zm0,0"></path><polyline class="cls-13" points="15.92 46.63 15.92 50.46 27.92 50.46"></polyline></g></svg> 