<?xml version="1.0" encoding="UTF-8"?> <!-- Generator: Adobe Illustrator 24.1.0, SVG Export Plug-In . SVG Version: 6.00 Build 0) --> <svg xmlns="http://www.w3.org/2000/svg" xmlns:xlink="http://www.w3.org/1999/xlink" version="1.1" id="Layer_1" x="0px" y="0px" viewBox="0 0 125.4 130.1" style="enable-background:new 0 0 125.4 130.1;" xml:space="preserve"> <style type="text/css"> .st0{fill:#FFFFFF;} .st1{fill:#C5CEDE;} .st2{fill:#DAB46B;} .st3{fill:#CBA763;} .st4{fill:#90A4AE;} .st5{fill:#FFCA28;} .st6{fill:#37474F;} .st7{fill:#F5F5F5;} .st8{opacity:0.2;enable-background:new ;} .st9{opacity:0.3;enable-background:new ;} .st10{fill:#B0BEC5;} .st11{fill:#EEEEEE;} .st12{fill:#BDBDBD;} .st13{opacity:0.6;fill:#E5E5E5;enable-background:new ;} .st14{fill:#FF6464;} .st15{opacity:0.2;fill:#FF6464;enable-background:new ;} .st16{fill:#AAF589;} .st17{opacity:0.2;fill:#AAF589;enable-background:new ;} .st18{fill:#546E7A;} .st19{fill:#999999;} .st20{fill:#D3D4D6;} </style> <rect x="63.8" y="81.4" transform="matrix(6.017743e-02 -0.9982 0.9982 6.017743e-02 -19.4589 151.5104)" class="st0" width="13.8" height="9.4"></rect> <path class="st1" d="M66.7,79.2l8.9,0.5L74.8,93l-8.9-0.5L66.7,79.2 M66.2,78.6v0.5l-0.8,13.3v0.5h0.5l8.9,0.5h0.5V93l0.8-13.3v-0.5 h-0.5l-8.9-0.5H66.2z"></path> <rect x="58.6" y="79.8" transform="matrix(0.9998 -2.216387e-02 2.216387e-02 0.9998 -1.9055 1.4246)" class="st0" width="9.4" height="13.8"></rect> <path class="st1" d="M67.6,79.9l0.3,13.3L59,93.4l-0.3-13.3L67.6,79.9 M68.1,79.4h-0.5l-8.9,0.2h-0.5v0.5l0.3,13.3v0.5H59l8.9-0.2 h0.5v-0.5l-0.3-13.3L68.1,79.4L68.1,79.4z"></path> <path class="st2" d="M75.5,80.8h-5.9c-0.5,0-0.9,0.4-0.9,0.9c0,0,0,0,0,0l0,0h-3.6c0-0.5-0.3-0.9-0.8-0.9c0,0,0,0,0,0h-5.9 c-0.4,0-0.8,0.3-0.9,0.7v17.4h19V81.7C76.5,81.2,76.1,80.8,75.5,80.8C75.5,80.8,75.5,80.8,75.5,80.8z"></path> <rect x="53.9" y="73.5" transform="matrix(0.7071 -0.7071 0.7071 0.7071 -39.4132 61.4312)" class="st2" width="1.1" height="9.5"></rect> <rect x="74.3" y="77.8" transform="matrix(0.7071 -0.7071 0.7071 0.7071 -32.2242 78.8)" class="st3" width="9.5" height="1.1"></rect> <polygon class="st4" points="107.2,35.8 107.2,130.1 90.1,130.1 90.1,44.5 43.6,44.5 43.6,130.1 26.5,130.1 26.5,35.8 37.5,26.5 96.2,26.5 "></polygon> <polygon class="st5" points="98.1,36.4 98.1,130.1 90.1,130.1 90.1,44.5 43.6,44.5 43.6,130.1 35.6,130.1 35.6,36.4 "></polygon> <rect x="46.5" y="125.6" class="st6" width="40.8" height="4.5"></rect> <rect x="79.9" y="105.1" class="st7" width="4.8" height="20.4"></rect> <rect x="48.7" y="105.1" class="st7" width="4.8" height="20.4"></rect> <rect x="79.9" y="105.1" class="st8" width="4.8" height="1.3"></rect> <rect x="48.7" y="105.1" class="st8" width="4.8" height="1.3"></rect> <rect x="78.5" y="96.8" class="st6" width="7.7" height="8.4"></rect> <rect x="47.3" y="96.8" class="st6" width="7.7" height="8.4"></rect> <rect x="46.8" y="54.9" class="st9" width="7.2" height="1.3"></rect> <rect x="55" y="54.9" class="st9" width="7.2" height="1.3"></rect> <rect x="63.3" y="54.9" class="st9" width="7.1" height="1.3"></rect> <rect x="71.5" y="54.9" class="st9" width="7.2" height="1.3"></rect> <rect x="79.7" y="54.9" class="st9" width="7.2" height="1.3"></rect> <rect x="43.6" y="44.5" class="st6" width="46.5" height="10.4"></rect> <rect x="43.6" y="44.5" class="st9" width="46.5" height="1.2"></rect> <polygon class="st9" points="98.1,35.2 35.3,35.2 34.3,35.2 34.3,130.1 35.3,130.1 35.3,36.4 98.1,36.4 98.1,130.1 99.2,130.1 99.2,35.2 "></polygon> <rect x="55" y="98.9" class="st10" width="23.5" height="4.3"></rect> <rect x="79.7" y="23.9" class="st11" width="14.5" height="2.5"></rect> <rect x="80.2" y="21.4" class="st12" width="13.4" height="2.5"></rect> <path class="st11" d="M80.2,17.1l14.1,3.6c0,0.2-0.1,0.3-0.1,0.5c0,0,0,0.1,0,0.1l0,0v0.1H79.7v-0.5v-0.6c0-0.4,0.1-0.8,0.1-1.1 C79.9,18.4,80.1,17.7,80.2,17.1z"></path> <path class="st12" d="M81.7,13.7l12.4,5.5c-0.2,0.4-0.3,0.9-0.4,1.4l-13-3.3C81,16,81.3,14.9,81.7,13.7z"></path> <path class="st11" d="M82.7,10.2l12.5,7.9c-0.2,0.4-0.4,0.8-0.6,1.3l-13.4-5.9C81.7,12.4,82.2,11.3,82.7,10.2z"></path> <path class="st12" d="M85.4,7.3l9.9,9.7c0,0-0.1,0.1-0.2,0.3s-0.2,0.4-0.3,0.5l-11.5-7.3c0.3-0.5,0.6-1.1,0.9-1.6 C84.5,8.4,84.9,7.8,85.4,7.3z"></path> <path class="st11" d="M88.5,3.8l7.3,13.5l-0.1,0.1l0,0L85,6.9c0.5-0.6,1.1-1.2,1.7-1.7C87.3,4.6,87.8,4.2,88.5,3.8z"></path> <path class="st12" d="M91.8,2.7l4.9,13.5c-0.4,0.2-0.8,0.4-1.2,0.6L88.7,4.3C89.7,3.7,90.7,3.2,91.8,2.7z"></path> <path class="st11" d="M94.6,1.1l3.8,15.2c-0.5,0.1-1,0.3-1.5,0.5L91.6,2.2C92.6,1.7,93.6,1.4,94.6,1.1z"></path> <path class="st12" d="M97.6,1l2.2,14.3c-0.6,0.1-1.1,0.2-1.6,0.4l-3.5-14C95.7,1.4,96.6,1.2,97.6,1z"></path> <path class="st11" d="M100.6,0l0.9,15.7c-0.5,0-1.1,0.1-1.6,0.2L97.5,0.4C98.5,0.2,99.6,0.1,100.6,0z"></path> <path class="st12" d="M103.8,0.6L103,15.1c-0.5,0-1,0-1.5,0l-0.8-14.5C101.7,0.5,102.7,0.5,103.8,0.6z"></path> <path class="st11" d="M106.8,0.4l-2.2,15.5c-0.5-0.1-1.1-0.2-1.6-0.2L103.8,0C104.8,0.1,105.8,0.2,106.8,0.4z"></path> <path class="st12" d="M109.6,1.6l-3.3,14.1c-0.6-0.2-1.1-0.3-1.7-0.4l2.1-14.3C107.7,1.1,108.7,1.3,109.6,1.6z"></path> <path class="st11" d="M112.7,2l-5,14.8c-0.5-0.2-1-0.4-1.5-0.5L109.8,1C110.8,1.3,111.7,1.6,112.7,2z"></path> <path class="st12" d="M115.5,4l-6.2,12.8c-0.4-0.2-0.9-0.4-1.3-0.6l4.6-13.6C113.5,3,114.5,3.5,115.5,4z"></path> <path class="st11" d="M119.4,6.2l-10.2,11.2l0,0c0,0,0,0-0.2-0.1l6.8-13.9c0.6,0.4,1.2,0.8,1.8,1.2C118.2,5.1,118.8,5.6,119.4,6.2z"></path> <path class="st12" d="M121.6,10.6l-11.9,6.5c0-0.1,0-0.1-0.1-0.1L119,6.6C120.1,7.8,120.9,9.1,121.6,10.6z"></path> <path class="st11" d="M123.3,13.7l-13.7,5c-0.1-0.4-0.3-0.9-0.5-1.3l12.9-7.1C122.6,11.4,123,12.6,123.3,13.7z"></path> <path class="st12" d="M123.6,16.9l-13,3.4c-0.1-0.7-0.3-1.3-0.5-1.9l12.7-4.6C123.1,15,123.4,16,123.6,16.9z"></path> <path class="st11" d="M124.7,19.8l-14.2,2.7c-0.1-0.7-0.2-1.4-0.4-2l14.1-3.7C124.4,17.8,124.6,18.8,124.7,19.8z"></path> <path class="st12" d="M124.6,22.8l-13.3,1.7c-0.1-0.7-0.2-1.4-0.3-2.1l13.2-2.5C124.3,20.9,124.5,21.8,124.6,22.8z"></path> <path class="st11" d="M125.4,25.7l-14.4,1c0-0.7-0.1-1.4-0.2-2.1l14.4-1.8C125.2,23.7,125.3,24.7,125.4,25.7z"></path> <path class="st12" d="M124.9,28.7h-13.4c0-0.7,0-1.4-0.1-2.1l13.3-0.9C124.9,26.7,124.9,27.7,124.9,28.7z"></path> <rect x="111" y="28.7" class="st11" width="14.5" height="2.5"></rect> <rect x="111.5" y="31.2" class="st12" width="13.4" height="2.5"></rect> <rect x="111" y="33.8" class="st11" width="14.5" height="2.5"></rect> <rect x="111.5" y="36.3" class="st12" width="13.4" height="2.5"></rect> <rect x="111" y="38.8" class="st11" width="14.5" height="2.5"></rect> <rect x="111.5" y="41.4" class="st12" width="13.4" height="2.5"></rect> <rect x="111" y="43.9" class="st11" width="14.5" height="2.5"></rect> <rect x="111.5" y="46.4" class="st12" width="13.4" height="2.5"></rect> <rect x="111" y="49" class="st11" width="14.5" height="2.5"></rect> <rect x="111.5" y="51.5" class="st12" width="13.4" height="2.5"></rect> <rect x="111" y="54" class="st11" width="14.5" height="2.5"></rect> <rect x="111.5" y="56.6" class="st12" width="13.4" height="2.5"></rect> <rect x="111" y="59.1" class="st11" width="14.5" height="2.5"></rect> <rect x="111.5" y="61.6" class="st12" width="13.4" height="2.5"></rect> <rect x="111" y="64.2" class="st11" width="14.5" height="2.5"></rect> <rect x="111.5" y="66.7" class="st12" width="13.4" height="2.5"></rect> <rect x="111" y="69.2" class="st11" width="14.5" height="2.5"></rect> <rect x="111.5" y="71.8" class="st12" width="13.4" height="2.5"></rect> <rect x="111" y="74.3" class="st11" width="14.5" height="2.5"></rect> <rect x="111.5" y="76.8" class="st12" width="13.4" height="2.5"></rect> <rect x="111" y="79.4" class="st11" width="14.5" height="2.5"></rect> <rect x="111.5" y="81.9" class="st12" width="13.4" height="2.5"></rect> <rect x="111" y="84.5" class="st11" width="14.5" height="2.5"></rect> <rect x="111.5" y="87" class="st12" width="13.4" height="2.5"></rect> <rect x="111" y="89.5" class="st11" width="14.5" height="2.5"></rect> <rect x="111.5" y="92.1" class="st12" width="13.4" height="2.5"></rect> <rect x="111" y="94.6" class="st11" width="14.5" height="2.5"></rect> <rect x="111.5" y="97.1" class="st12" width="13.4" height="2.5"></rect> <rect x="111" y="99.7" class="st11" width="14.5" height="2.5"></rect> <rect x="111.5" y="102.2" class="st12" width="13.4" height="2.5"></rect> <rect x="111" y="104.7" class="st11" width="14.5" height="2.5"></rect> <rect x="111.5" y="107.3" class="st12" width="13.4" height="2.5"></rect> <rect x="111" y="109.8" class="st11" width="14.5" height="2.5"></rect> <rect x="111.5" y="112.3" class="st12" width="13.4" height="2.5"></rect> <rect x="111" y="114.9" class="st11" width="14.5" height="2.5"></rect> <rect x="111.5" y="117.4" class="st12" width="13.4" height="2.5"></rect> <rect x="111" y="119.9" class="st11" width="14.5" height="2.5"></rect> <rect x="111.5" y="122.5" class="st12" width="13.4" height="2.5"></rect> <rect x="111" y="125" class="st11" width="14.5" height="2.5"></rect> <rect x="111.5" y="127.5" class="st12" width="13.4" height="2.5"></rect> <rect x="46.8" y="54.9" class="st13" width="7.2" height="31.5"></rect> <rect x="55" y="54.9" class="st13" width="7.2" height="31.5"></rect> <rect x="63.3" y="54.9" class="st13" width="7.1" height="31.5"></rect> <rect x="71.5" y="54.9" class="st13" width="7.2" height="31.5"></rect> <rect x="79.7" y="54.9" class="st13" width="7.2" height="31.5"></rect> <path class="st14" d="M73.5,49.7c-0.1,1-1,1.8-2,1.7s-1.8-1-1.7-2c0.1-1,0.9-1.7,1.8-1.7C72.8,47.7,73.6,48.6,73.5,49.7z"></path> <path class="st15" d="M72.7,48c0.3,0.4,0.5,0.8,0.5,1.3c0,1.1-0.8,2-1.8,2c-0.4,0-0.7-0.1-1-0.3c0.3,0.4,0.8,0.7,1.4,0.7 c1.1,0,1.9-0.9,1.8-2C73.6,49,73.2,48.4,72.7,48z"></path> <path class="st16" d="M68.7,49.7c-0.1,1-1,1.8-2,1.7s-1.8-1-1.7-2c0.1-1,0.9-1.7,1.8-1.7C67.9,47.7,68.7,48.6,68.7,49.7z"></path> <path class="st17" d="M67.8,48c0.3,0.4,0.5,0.8,0.5,1.3c0,1.1-0.8,2-1.8,2c-0.4,0-0.7-0.1-1-0.3c0.3,0.4,0.8,0.7,1.4,0.7 c1.1,0,1.9-0.9,1.8-2C68.7,49,68.4,48.4,67.8,48z"></path> <path class="st16" d="M63.8,49.7c-0.1,1-1,1.8-2,1.7c-1-0.1-1.8-1-1.7-2c0.1-1,0.9-1.7,1.8-1.7C63.1,47.7,63.9,48.6,63.8,49.7z"></path> <path class="st17" d="M63,48c0.3,0.4,0.5,0.8,0.5,1.3c0,1.1-0.8,2-1.8,2c-0.4,0-0.7-0.1-1-0.3c0.3,0.4,0.8,0.7,1.4,0.7 c1.1,0,1.9-0.9,1.8-2C63.9,49,63.5,48.4,63,48z"></path> <rect x="17.9" y="41" class="st18" width="8.6" height="89.1"></rect> <rect y="88.3" class="st4" width="17.9" height="41.8"></rect> <polygon class="st4" points="17.9,88.3 0,88.3 17.9,73.1 "></polygon> <polygon class="st6" points="14.5,76.9 4.3,85.6 3.8,85 14.1,76.3 "></polygon> <path class="st14" d="M19.5,41v-4c-0.1-1.3,1-2.5,2.3-2.5h0.7c1.3,0.1,2.4,1.2,2.3,2.5v4H19.5z"></path> <path class="st19" d="M14.6,83.2c0.1,1.3-1,2.5-2.3,2.5c0,0,0,0,0,0c-1.4-0.1-2.4-1.4-2.3-2.8c0.1-1.2,1.1-2.2,2.3-2.3 C13.6,80.7,14.7,81.8,14.6,83.2C14.6,83.2,14.6,83.2,14.6,83.2z"></path> <path class="st20" d="M12.8,82.1l-8.6-9.3l-1.3,1.4l8.6,9.3l0,0c0.3,0.4,0.9,0.4,1.2,0.1c0,0,0.1-0.1,0.1-0.1 C13.2,83.1,13.2,82.5,12.8,82.1L12.8,82.1z"></path> <path class="st14" d="M4.7,72.3c0.6,0.7,0.6,1.8,0,2.5c-0.6,0.6-1.5,0.7-2.2,0.1c0,0-0.1-0.1-0.1-0.1c-0.6-0.7-0.6-1.8,0-2.5 C3,71.6,4,71.6,4.6,72.2C4.6,72.2,4.7,72.2,4.7,72.3z"></path> <path class="st6" d="M13.4,125.3H4.6c-0.5,0-0.9-0.2-1.1-0.6c-0.2-0.4-0.2-0.9,0.1-1.3l4.4-8.2c0.2-0.6,0.8-0.9,1.4-0.7 c0.3,0.1,0.6,0.4,0.7,0.7l4.4,8.2c0.2,0.4,0.3,0.9,0.1,1.3C14.2,125.1,13.8,125.3,13.4,125.3z M9,115.2c-0.1,0-0.2,0.1-0.3,0.3 l-4.4,8.2c-0.1,0.1-0.1,0.3-0.1,0.5c0.1,0.1,0.3,0.2,0.4,0.2h8.8c0.2,0,0.3,0,0.4-0.2c0-0.2,0-0.3-0.1-0.5l-4.4-8.2 C9.2,115.4,9.1,115.2,9,115.2z"></path> <polygon class="st6" points="8.9,120.6 10.1,118.4 8.6,118.4 7.5,121.3 9,121.3 7.8,123.8 10.4,120.6 "></polygon> </svg> 