<?xml version="1.0" encoding="UTF-8"?> <!-- Generator: Adobe Illustrator 24.1.0, SVG Export Plug-In . SVG Version: 6.00 Build 0) --> <svg xmlns="http://www.w3.org/2000/svg" xmlns:xlink="http://www.w3.org/1999/xlink" version="1.1" id="Layer_1" x="0px" y="0px" viewBox="0 0 1378.9 1179.8" style="enable-background:new 0 0 1378.9 1179.8;" xml:space="preserve"> <style type="text/css"> .st0{fill:#DAB46C;} .st1{fill:#F9EFDA;} .st2{fill:#4C3623;} .st3{fill:#554F58;} .st4{fill:#464145;} .st5{fill:#919CA5;} .st6{fill:#AFBEC5;} .st7{fill:#90A4AE;} .st8{fill:#788F9B;} .st9{fill:#CCA864;} .st10{fill:#556F7B;} .st11{fill:#EC6567;} .st12{fill:#B0D181;} </style> <g> <g> <path class="st0" d="M50.7,432.2l63.3-9.7c5.2-0.8,10,2.8,10.6,8l0,0.2l38.6-5.9c-1.1-5.2,2.4-10.3,7.7-11.1l63.3-9.7 c4.7-0.7,8.9,2.1,10.5,6.3l28.4,185.4L79.6,625.5c-5,0.8-9.7-2.7-10.4-7.6L65.1,591l-13.3-86.7l-9.3-61 C41.7,438,45.3,433,50.7,432.2z"></path> <path class="st1" d="M177.3,452.3l-55,28.2l-8.9-58l58-8.9L177.3,452.3z"></path> </g> <g> <path class="st0" d="M275.2,373.3l55.7-31.6c4.6-2.6,10.3-0.9,12.8,3.7l0.1,0.2l34-19.3c-2.9-4.5-1.4-10.5,3.3-13.1l55.7-31.6 c4.1-2.3,9.1-1.2,12,2.2L541.3,447L363.1,548.1l-4.8-8.5L302,440.2l-30.4-53.7C268.9,381.9,270.5,375.9,275.2,373.3z"></path> <path class="st1" d="M400.8,347l-41.4,45.9l-28.9-51l51-28.9L400.8,347z"></path> </g> <g> <path class="st0" d="M153.1,626.8l43.4-4.5c3.5-0.4,6.7,2.3,7,5.8l0,0.2l26.5-2.8c-0.6-3.6,2-6.9,5.6-7.3l43.4-4.5 c3.2-0.3,6,1.7,6.9,4.7l13.3,127.2L160.3,760l-0.7-6.6l-8.1-77.4l-4.4-41.8C146.8,630.4,149.4,627.2,153.1,626.8z"></path> <path class="st1" d="M238.7,644.6L200.3,662l-4.2-39.7l39.7-4.2L238.7,644.6z"></path> <path class="st2" d="M180.2,726.1l19.9-2.1c2.7-0.3,5.2,1.7,5.5,4.4c0.3,2.7-1.7,5.2-4.4,5.5l-19.9,2.1c-2.7,0.3-5.2-1.7-5.5-4.4 C175.5,728.8,177.4,726.4,180.2,726.1z"></path> </g> <g> <polygon class="st3" points="435.6,686.8 384.3,693.8 375.6,1126.6 426.9,1119.5 "></polygon> <polygon class="st4" points="435.6,686.8 384.3,693.8 383.6,728.4 434.5,720.5 "></polygon> <path class="st5" d="M347.1,1179.7c-5.4,0.7-10.4-3.1-11.2-8.5l-1.3-9.5c-2.2-16,9-30.8,25-33l83.1-11.4c16-2.2,30.8,9,33,25 l1.3,9.5c0.7,5.4-3.1,10.4-8.5,11.2L347.1,1179.7L347.1,1179.7z M347.1,1179.7"></path> <g> <path class="st6" d="M90.5,780.6c-42.7,5.8-83-23.1-89.6-65.7c-6.7-43.5,23.6-83.9,67-89.8l190.7-27c10.7-1.5,21.1-4.9,30.5-10.2 l284-159.4c9.4-5.3,19.8-8.8,30.5-10.2L744.4,399c43.4-5.9,83.4,24.9,88.7,68.6c5.1,42.8-26,81.5-68.7,87.3l-109.8,15 c-10.7,1.5-21.1,4.9-30.5,10.2l-284,159.4c-9.4,5.3-19.8,8.8-30.5,10.2L90.5,780.6L90.5,780.6z M90.5,780.6"></path> <path class="st7" d="M68,625.1c-43.4,5.9-73.7,46.3-67,89.8c6.5,42.6,46.9,71.6,89.6,65.7l35.1-4.8c-42.7,5.8-83-23.1-89.6-65.7 c-6.7-43.5,23.6-83.9,67-89.8L68,625.1L68,625.1z M68,625.1"></path> </g> <path class="st8" d="M718.7,483.7c-1.1-8.2,1.1-16.4,6-23c5-6.5,12.3-10.9,20.5-12c17-2.3,32.6,9.6,34.9,26.5 c2.3,17-9.6,32.6-26.5,34.9C736.6,512.5,721,500.6,718.7,483.7L718.7,483.7z M718.7,483.7"></path> <path class="st5" d="M108,698c-2.3-17,9.6-32.6,26.5-34.9c17-2.3,32.6,9.6,34.9,26.5c2.3,17-9.6,32.6-26.5,34.9 C125.9,726.9,110.3,715,108,698L108,698z M108,698"></path> <path class="st8" d="M351.6,673.8c-10.9,1.5-22.1-3.7-27.8-13.8c-7.5-13.3-2.7-30.1,10.5-37.5l224.2-125.8 c13.3-7.5,30.1-2.7,37.5,10.5c7.4,13.3,2.7,30.1-10.5,37.5L361.3,670.5C358.2,672.3,354.9,673.3,351.6,673.8L351.6,673.8z M351.6,673.8"></path> <path class="st0" d="M603.7,418.2"></path> <path class="st9" d="M580,425.1"></path> <path class="st1" d="M649.8,306.7"></path> <path class="st9" d="M254.2,565.4"></path> <path class="st1" d="M168.5,503.5"></path> <path class="st9" d="M489.1,440.5"></path> <polygon class="st3" points="729.6,559.7 678.3,566.7 747.1,1027.8 798.4,1020.8 "></polygon> <rect x="680" y="563.1" transform="matrix(0.9908 -0.1353 0.1353 0.9908 -71.7286 100.8556)" class="st4" width="51.8" height="29.9"></rect> <path class="st5" d="M718.6,1080.9c-5.4,0.7-10.4-3-11.2-8.5l-1.3-9.5c-2.2-16,9-30.8,25.1-33l83.1-11.4c16-2.2,30.8,9,33,25 l1.3,9.5c0.7,5.4-3.1,10.4-8.5,11.2L718.6,1080.9L718.6,1080.9z M718.6,1080.9"></path> </g> <g> <rect x="677.6" y="160.6" class="st10" width="66" height="297.8"></rect> <path class="st7" d="M860,66.5v755.7h-127c-8.6,0-15.6-7-15.6-15.5V66.5H860z M717.4,66.5"></path> <rect x="812.8" y="66.5" class="st8" width="47.2" height="755.7"></rect> <path class="st10" d="M725.5,31.2c-9.2,0-16.6,7.4-16.6,16.6v13.7c0,9.2,7.4,16.6,16.6,16.6H860V31.2H725.5z M860,31.2"></path> <path class="st7" d="M992.8,40v782.3H847c-8.6,0-15.5-7-15.5-15.5V40H992.8z M831.4,40"></path> <rect x="944.3" y="40" class="st8" width="48.5" height="782.3"></rect> <path class="st10" d="M838.4,0c-9.2,0-16.6,7.4-16.6,16.6v19.9c0,9.2,7.4,16.6,16.6,16.6h154.4V0L838.4,0z M992.8,0"></path> <path class="st7" d="M975.3,822.2c-6.8,0-12.3-7-12.3-15.5V5.2h415.9v801.5c0,8.6-5.5,15.5-12.3,15.5H975.3L975.3,822.2z M975.3,822.2"></path> <g> <path class="st8" d="M714.6,169v30.1h-3.8c-1,0-1.9-0.8-1.9-1.9v-26.3c0-1,0.8-1.9,1.9-1.9H714.6z"></path> <path class="st11" d="M708.9,170.9v26.3h-12.2c-7.3,0-13.2-5.9-13.2-13.2l0,0c0-7.3,5.9-13.2,13.2-13.2H708.9z"></path> <g> <path class="st8" d="M717.4,168.1v32c0,0.5-0.4,0.9-0.9,0.9h-0.9c-0.5,0-0.9-0.4-0.9-0.9v-32c0-0.5,0.4-0.9,0.9-0.9h0.9 C717,167.2,717.4,167.6,717.4,168.1z"></path> </g> <path class="st8" d="M714.6,123v30.1h-3.8c-1,0-1.9-0.8-1.9-1.9v-26.3c0-1,0.8-1.9,1.9-1.9H714.6z"></path> <path class="st12" d="M708.9,124.9v26.3h-12.2c-7.3,0-13.2-5.9-13.2-13.2l0,0c0-7.3,5.9-13.2,13.2-13.2H708.9z"></path> <g> <path class="st8" d="M717.4,122v32c0,0.5-0.4,0.9-0.9,0.9h-0.9c-0.5,0-0.9-0.4-0.9-0.9v-32c0-0.5,0.4-0.9,0.9-0.9h0.9 C717,121.1,717.4,121.5,717.4,122z"></path> </g> </g> </g> </g> </svg> 