<?xml version="1.0" encoding="UTF-8"?> <!-- Generator: Adobe Illustrator 24.1.0, SVG Export Plug-In . SVG Version: 6.00 Build 0) --> <svg xmlns="http://www.w3.org/2000/svg" xmlns:xlink="http://www.w3.org/1999/xlink" version="1.1" id="Capa_1" x="0px" y="0px" viewBox="-940 -70.5 907.2 762.4" style="enable-background:new -940 -70.5 907.2 762.4;" xml:space="preserve"> <style type="text/css"> .st0{fill:#FFFFFF;} .st1{fill:#90A4AE;} .st2{fill:#AFBEC5;} .st3{fill:#FEC92A;} .st4{fill:#757575;} .st5{fill:#BDBCBC;} .st6{fill:#CFD8DC;} .st7{fill:#C63763;} .st8{fill:#788F9B;} .st9{fill:#CDD5D8;} .st10{fill:#EAEFF2;} .st11{fill:#78B942;} .st12{fill:#669F30;} .st13{fill:#D8316E;} .st14{fill:#E62E2C;} .st15{fill:#F9B95A;} .st16{fill:#554F58;} .st17{fill:#556F7B;} .st18{fill:#455A64;} </style> <g> <path class="st0" d="M-587.3,87.9c-0.1-0.4-0.1-0.8-0.2-1.2c0-0.3-0.1-0.6-0.2-0.8c-1.9-18.9-13.5-35.9-30.5-44.4 c-1-0.5-2-1-3.1-1.5c-0.1-0.1-0.3-0.1-0.4-0.2c-4.5-1.9-9.4-3.2-14.7-3.8c-1.5-0.2-2.9-0.3-4.3-0.4c3-7,4.2-14.8,3-22.7 c-0.1-0.5-0.1-0.9-0.2-1.4c-0.1-0.6-0.2-1.1-0.3-1.7c-1.8-11.9-7.7-23.1-16.4-31.2c-0.2-0.2-0.3-0.3-0.5-0.5 c-0.4-0.3-0.7-0.7-1.1-1c-16.4-15-40.7-19.6-62.6-4.8c-10.2,6.9-16.8,16.7-19.9,27.5c-6.2-14.6-17.4-27-31.9-34.1 c-11-5.4-22.7-7.7-34.9-6.8c-11.7,1-22.5,4.7-32.3,11.3c-0.8,0.5-1.6,0.9-2.5,1.4c-9.5,6.4-16.8,14.8-22,25.1 c-1.9,3.8-3.3,7.7-4.4,11.6c-7,0.5-13.9,1.9-20.7,4.2c-19.2,6.7-35.3,20.9-44.4,39.2c-6.3,12.9-9,26.6-8,41 c1.6,20.5,11.3,39.3,26.5,52.9c5.3,4.8,11.2,9.2,17.8,11.9c14.8,6.2,25.2,9.3,41.4,8.1c8.8-0.7,18.8-3.2,27.6-7.3 c0.8,0.8,1.6,1.6,2.5,2.3c3.7,3.9,8.6,7,13.6,9.1c13.2,5.4,18.5,6.7,32.8,6.5c3.7-0.1,7.4-0.9,11.1-1.9c8.2-1.4,15.9-4.5,23-9.2 c4.9-3.3,9.3-7.4,13-12c0.2,0.2,0.4,0.4,0.7,0.6c13.5,11.9,32.9,15.6,49.9,9.7c9-3.2,16.9-8.9,22.8-16.3 c10.4,2.6,21.6,2.2,32.1-1.5C-602.9,138.1-582.8,112.6-587.3,87.9z"></path> <g> <path class="st1" d="M-91.6,231.3c-6.1,0-11.1-5-11.1-11.1V-56.2c0-7.9,6.4-14.2,14.2-14.2h44.7v301.7H-91.6z"></path> <rect x="-76.4" y="-70.5" class="st2" width="14.7" height="281.8"></rect> </g> <g> <g> <g> <polygon class="st3" points="-103,136.9 -132.4,106.5 -132.4,49.6 -103,19.3 -73.7,19.3 -73.7,136.9 "></polygon> </g> </g> <g> <ellipse transform="matrix(0.9221 -0.387 0.387 0.9221 -35.9668 -22.4364)" class="st4" cx="-73.7" cy="78.1" rx="41" ry="41"></ellipse> <path class="st5" d="M-53.5,78.1c0,11.2-9.1,20.2-20.2,20.2c-11.2,0-20.2-9.1-20.2-20.2c0-11.2,9.1-20.2,20.2-20.2 C-62.5,57.9-53.5,66.9-53.5,78.1z"></path> <path class="st4" d="M-63.3,78.1c0,5.7-4.7,10.4-10.4,10.4c-5.7,0-10.4-4.7-10.4-10.4c0-5.7,4.7-10.4,10.4-10.4 C-68,67.7-63.3,72.4-63.3,78.1z"></path> </g> <rect x="-181.5" y="49.1" transform="matrix(8.975138e-11 -1 1 8.975138e-11 -239.4037 -83.2263)" class="st6" width="40.5" height="57.9"></rect> </g> <g> <path class="st7" d="M-395.9,64.7c0.2,0,0.4,0,0.6-0.1c6.3-0.7,12.7-0.7,19.2,0c0.8,0.1,1.6,0.3,2.4,0.4c2,0.3,3.9,0.6,5.9,1 c1.3,0.3,2.6,0.5,3.8,0.8c2.5,0.6,5,1.4,7.5,2.2c1,0.4,2.1,0.8,3.1,1.2c2.2,0.8,4.3,1.7,6.4,2.7c0.6,0.3,1.3,0.6,1.9,0.9 c2.7,1.4,5.3,2.9,7.9,4.5c0.6,0.4,1.1,0.7,1.6,1.1c0.7,0.5,1.4,0.9,2.1,1.4l-0.1,0.1c10.6,7.5,19.6,17.2,26.2,28.7 c4.4,7.7,1.7,17.6-6,22c-7.7,4.4-17.5,1.7-22-6c-4.1-7.2-9.7-13.3-16.3-18c-1.5-1.1-3.1-2.1-4.7-3.1c-0.7-0.4-1.4-0.8-2.2-1.2 c-2.2-1.2-4.4-2.2-6.7-3.1c-0.1-0.1-0.3-0.1-0.4-0.2c-2.6-1-5.4-1.8-8.1-2.3c-0.3-0.1-0.5-0.1-0.8-0.1c-2.2-0.4-4.5-0.7-6.8-0.9 c-1.4-0.1-2.7-0.1-4.1-0.1c-1.6,0-3.2,0-4.8,0.1c-1.4,0.1-2.8,0.3-4.2,0.5c-1.5,0.2-3,0.4-4.5,0.8c-1.5,0.3-2.9,0.8-4.4,1.3 c-1.3,0.4-2.7,0.8-4,1.3c-1.5,0.6-2.9,1.3-4.4,2c-1.2,0.6-2.4,1.2-3.6,1.9c-2,1.2-3.9,2.4-5.7,3.8c-0.2,0.2-0.4,0.3-0.6,0.5 c-2.2,1.7-4.3,3.6-6.3,5.7c-0.1,0.1-0.2,0.2-0.3,0.4c-1.7,1.8-3.2,3.7-4.6,5.7c-0.5,0.7-0.9,1.4-1.4,2.1c-1,1.5-2,3.2-2.8,4.8 c-3.8,7.2-6.1,15.1-6.7,23.3c-0.6,8.9-8.2,15.6-17.1,15c-8.9-0.6-15.6-8.2-15.1-17.1c0.8-13.2,4.7-25.9,10.9-37.3l-0.2,0 c0.4-0.7,0.9-1.4,1.3-2.1c0.3-0.6,0.7-1.1,1-1.7c1.6-2.6,3.2-5.1,5.1-7.5c0.4-0.6,0.9-1.1,1.3-1.6c1.4-1.8,2.9-3.6,4.5-5.3 c0.7-0.8,1.5-1.6,2.3-2.4c1.8-1.8,3.7-3.6,5.7-5.3c1-0.8,2-1.6,3.1-2.5c1.6-1.2,3.2-2.4,4.8-3.5c0.7-0.5,1.3-1,2-1.4 c5.6-3.5,11.4-6.3,17.3-8.5c0.2-0.1,0.4-0.2,0.6-0.2c1.5-0.5,3-1,4.5-1.5c0.7-0.2,1.4-0.4,2-0.6c1.1-0.3,2.2-0.5,3.4-0.8 c1.1-0.3,2.2-0.5,3.4-0.8c0.7-0.1,1.4-0.2,2.1-0.3C-399.1,65.2-397.5,64.9-395.9,64.7z"></path> <circle class="st8" cx="-413.2" cy="86" r="18"></circle> </g> <g> <path class="st9" d="M-797.4,609V73c0-8.4,7.5-15.2,16.8-15.2h400c9.3,0,16.8,6.8,16.8,15.2V609c0,8.4-7.5,15.2-16.8,15.2h-400 C-789.9,624.2-797.4,617.4-797.4,609z"></path> <path class="st10" d="M-705,581.1C-705,581.1-705,581.2-705,581.1c0,1.1,1,2,2.2,2h244.3c1.2,0,2.2-0.9,2.2-2c0,0,0,0,0,0 c0-22,19.1-39.9,43.1-40.8c1.2,0,2.1-0.9,2.1-2V141.7c0-1.1-0.9-1.9-2.1-2c-23.3-1-42-17.9-43.1-39c-0.1-1.1-1-1.9-2.2-1.9h-244.5 c-1.2,0-2.1,0.8-2.2,1.9c-1.1,21.1-19.8,38-43.1,39c-1.2,0-2.1,0.9-2.1,2v396.6c0,1.1,0.9,1.9,2.1,2 C-724.2,541.3-705,559.2-705,581.1z"></path> <path class="st11" d="M-478.2,691.2l-15.6-25.7c-0.3-0.6-1-0.9-1.6-0.8l-28.3,4.5c-1.3,0.2-2.3-1.1-1.7-2.3l42.2-88.5l50.1,23.9 l-42.3,88.5C-475.9,692.2-477.5,692.3-478.2,691.2z"></path> <path class="st12" d="M-411.2,691.2l15.6-25.7c0.3-0.6,1-0.9,1.6-0.8l28.3,4.5c1.3,0.2,2.3-1.1,1.7-2.3l-42.2-88.5l-50.1,23.9 l42.3,88.5C-413.5,692.2-411.9,692.3-411.2,691.2z"></path> <path class="st13" d="M-432,475.9L-432,475.9c4.3,3,9.5,4.5,14.8,4l0,0c9.3-0.9,18.1,4.2,22,12.7l0,0c2.2,4.8,6,8.6,10.8,10.8l0,0 c8.5,3.9,13.6,12.7,12.7,22l0,0c-0.5,5.2,0.9,10.5,4,14.8l0,0c5.4,7.6,5.4,17.8,0,25.4l0,0c-3,4.3-4.5,9.5-4,14.8l0,0 c0.9,9.3-4.2,18.1-12.7,22l0,0c-4.8,2.2-8.6,6-10.8,10.8l0,0c-3.9,8.5-12.7,13.6-22,12.7l0,0c-5.2-0.5-10.5,0.9-14.8,4l0,0 c-7.6,5.4-17.8,5.4-25.4,0l0,0c-4.3-3-9.5-4.5-14.8-4l0,0c-9.3,0.9-18.1-4.2-22-12.7l0,0c-2.2-4.8-6-8.6-10.8-10.8l0,0 c-8.5-3.9-13.6-12.7-12.7-22l0,0c0.5-5.2-0.9-10.5-4-14.8l0,0c-5.4-7.6-5.4-17.8,0-25.4l0,0c3-4.3,4.5-9.5,4-14.8l0,0 c-0.9-9.3,4.2-18.1,12.7-22l0,0c4.8-2.2,8.6-6,10.8-10.8l0,0c3.9-8.5,12.7-13.6,22-12.7l0,0c5.2,0.5,10.5-0.9,14.8-4l0,0 C-449.8,470.5-439.6,470.5-432,475.9z"></path> <g> <path class="st14" d="M-473,625.8c0.3,0,0.5,0,0.8,0l0,0c0.6-0.1,1.2-0.1,1.8-0.1C-471.3,625.7-472.1,625.7-473,625.8z"></path> <path class="st14" d="M-470.4,480c-0.6,0-1.2,0-1.8-0.1l0,0c-0.3,0-0.5,0-0.8,0C-472.1,479.9-471.3,480-470.4,480z"></path> </g> <circle class="st15" cx="-445.3" cy="552.8" r="44.6"></circle> <g> <path class="st9" d="M-444.3,381.2H-717c-3.9,0-7,3.8-7,8.6c0,4.7,3.1,8.6,7,8.6h272.7c3.9,0,7-3.8,7-8.6 C-437.3,385-440.4,381.2-444.3,381.2z"></path> <path class="st9" d="M-444.3,334.8H-717c-3.9,0-7,3.8-7,8.6s3.1,8.6,7,8.6h272.7c3.9,0,7-3.8,7-8.6 C-437.3,338.7-440.4,334.8-444.3,334.8z"></path> <path class="st9" d="M-444.3,281.7H-717c-3.9,0-7,3.8-7,8.6s3.1,8.6,7,8.6h272.7c3.9,0,7-3.8,7-8.6S-440.4,281.7-444.3,281.7z"></path> <path class="st9" d="M-444.3,235.3H-717c-3.9,0-7,3.8-7,8.6c0,4.7,3.1,8.6,7,8.6h272.7c3.9,0,7-3.8,7-8.6 C-437.3,239.1-440.4,235.3-444.3,235.3z"></path> <path class="st9" d="M-444.3,185.1H-717c-3.9,0-7,3.8-7,8.6s3.1,8.6,7,8.6h272.7c3.9,0,7-3.8,7-8.6 C-437.3,188.9-440.4,185.1-444.3,185.1z"></path> <path class="st9" d="M-444.3,428H-717c-3.9,0-7,3.8-7,8.6s3.1,8.6,7,8.6h272.7c3.9,0,7-3.8,7-8.6 C-437.3,431.8-440.4,428-444.3,428z"></path> <path class="st9" d="M-533.7,479.9h-93.9c-3.9,0-7,3.8-7,8.6c0,4.7,3.1,8.6,7,8.6h93.9c3.9,0,7-3.8,7-8.6 C-526.7,483.7-529.8,479.9-533.7,479.9z"></path> </g> </g> <g> <path class="st7" d="M-342.3,218.7c0.2-0.1,0.3-0.2,0.5-0.3c5.3-3.4,10.3-7.5,14.9-12.1c0.6-0.6,1.1-1.2,1.6-1.8 c1.4-1.5,2.7-2.9,3.9-4.5c0.8-1,1.7-2,2.4-3.1c1.6-2.1,3-4.2,4.4-6.4c0.6-0.9,1.1-1.9,1.7-2.9c1.1-2,2.2-4,3.2-6.1 c0.3-0.6,0.6-1.2,0.9-1.9c1.2-2.8,2.3-5.6,3.2-8.5c0.2-0.6,0.4-1.2,0.6-1.9c0.2-0.8,0.5-1.6,0.8-2.4l-0.2,0 c3.4-12.5,4.3-25.7,2.2-38.8c-1.5-8.8-9.8-14.7-18.5-13.2c-8.8,1.5-14.7,9.8-13.2,18.5c1.4,8.2,0.8,16.4-1.2,24.2 c-0.5,1.8-1,3.6-1.7,5.3c-0.3,0.8-0.6,1.6-0.9,2.3c-1,2.3-2,4.5-3.2,6.6c-0.1,0.1-0.1,0.3-0.2,0.4c-1.4,2.4-3,4.7-4.8,6.9 c-0.2,0.2-0.4,0.4-0.5,0.6c-1.5,1.8-3,3.4-4.7,5c-1,0.9-2,1.8-3.1,2.7c-1.2,1-2.5,2.1-3.8,3c-1.2,0.8-2.4,1.5-3.6,2.2 c-1.3,0.8-2.6,1.6-4,2.2c-1.4,0.7-2.8,1.2-4.2,1.8c-1.3,0.5-2.6,1-3.9,1.5c-1.5,0.5-3.1,0.8-4.7,1.2c-1.3,0.3-2.6,0.6-4,0.8 c-2.3,0.3-4.5,0.6-6.8,0.7c-0.3,0-0.5,0-0.8,0c-2.8,0.1-5.6-0.1-8.4-0.4c-0.2,0-0.3-0.1-0.5-0.1c-2.4-0.3-4.8-0.8-7.2-1.5 c-0.8-0.2-1.6-0.5-2.4-0.7c-1.8-0.6-3.5-1.2-5.2-1.9c-7.4-3.2-14.3-7.8-19.9-13.9c-6-6.5-16.2-6.9-22.7-0.9 c-6.5,6-6.9,16.2-0.9,22.7c9,9.7,20,17.1,32,22l-0.1,0.1c0.8,0.3,1.6,0.6,2.3,0.9c0.6,0.2,1.2,0.5,1.8,0.7c2.9,1,5.7,1.9,8.7,2.6 c0.7,0.2,1.4,0.3,2,0.4c2.3,0.5,4.5,0.9,6.8,1.2c1.1,0.2,2.2,0.3,3.3,0.4c2.6,0.3,5.2,0.4,7.8,0.5c1.3,0,2.6,0,3.9,0 c2-0.1,4-0.2,6-0.4c0.8-0.1,1.6,0,2.4-0.1c6.5-0.8,12.8-2.3,18.7-4.4c0.2-0.1,0.4-0.1,0.6-0.2c1.5-0.5,3-1.1,4.4-1.7 c0.7-0.3,1.3-0.5,2-0.8c1.1-0.5,2.1-1,3.1-1.5c1-0.5,2.1-1,3.1-1.5c0.6-0.3,1.2-0.7,1.9-1.1C-345,220.3-343.6,219.5-342.3,218.7z"></path> <circle class="st8" cx="-369" cy="213.1" r="18"></circle> </g> <g> <path class="st3" d="M-208.9,51.5l-120.6,48.9c-12.5,4.7-18.9,18.8-14.1,31.3l3.2,8.5c4.7,12.5,18.8,18.9,31.3,14.1l120.6-48.9 c12.5-4.7,18.9-18.8,14.1-31.3l-3.2-8.5C-182.3,53.1-196.4,46.8-208.9,51.5z"></path> <path class="st16" d="M-254.6,93l-40.4,18.5c-2.9,1.1-4.4,4.4-3.3,7.3l0.8,2c1.1,2.9,4.4,4.4,7.3,3.3l40.4-18.5 c2.9-1.1,4.4-4.4,3.3-7.3l-0.8-2C-248.4,93.4-251.7,91.9-254.6,93z"></path> <circle class="st8" cx="-318" cy="126.8" r="28.8"></circle> <circle class="st17" cx="-318" cy="126.8" r="21.1"></circle> <circle class="st18" cx="-318" cy="126.8" r="7.5"></circle> <circle class="st8" cx="-201.7" cy="80.2" r="31.2"></circle> <circle class="st17" cx="-201.7" cy="80.2" r="22.9"></circle> <circle class="st18" cx="-201.7" cy="80.2" r="8.1"></circle> </g> </g> </svg> 