<?xml version="1.0" encoding="UTF-8"?> <svg xmlns="http://www.w3.org/2000/svg" id="Layer_1" data-name="Layer 1" viewBox="0 0 279.13 117.09"><defs><style>.cls-1{fill:#546e7a;}.cls-2{fill:#b0bec5;}.cls-3{fill:#37474f;}.cls-4{fill:#78909c;}.cls-5{fill:#90a4ae;}.cls-6{fill:#eee;}.cls-7{fill:#bdbdbd;}.cls-8{fill:#ffb300;}.cls-9{fill:#f5f5f5;}.cls-10{fill:#ffca28;}.cls-11{fill:#ff6464;}.cls-12{fill:#aaf589;}</style></defs><g id="interior_bits" data-name="interior bits"><rect class="cls-1" x="88.46" y="22.82" width="9.38" height="62.31"></rect><path class="cls-2" d="M72.72,91.28V65.4H266.21a12.94,12.94,0,0,1,0,25.88H72.72"></path><path class="cls-3" d="M53.05,72.79H266.21a3.69,3.69,0,0,1,.47,0,5.56,5.56,0,1,1-.47,11.11H53.05Z"></path><path class="cls-4" d="M261.6,78.34h0a5.55,5.55,0,1,1,5.52,5.57,5.54,5.54,0,0,1-5.52-5.57Z"></path><path class="cls-4" d="M113.59,72.79h0A5.56,5.56,0,1,1,108,78.34,5.57,5.57,0,0,1,113.6,72.79Z"></path><path class="cls-4" d="M151.71,72.79h0a5.56,5.56,0,1,1-5.57,5.55A5.57,5.57,0,0,1,151.72,72.79Z"></path><path class="cls-4" d="M189.9,72.79h0a5.56,5.56,0,1,1-5.57,5.55A5.57,5.57,0,0,1,189.91,72.79Z"></path><path class="cls-4" d="M228.06,72.79h0a5.56,5.56,0,1,1-5.57,5.55A5.57,5.57,0,0,1,228.07,72.79Z"></path><path class="cls-5" d="M92.13,9.45V114.64a2.2,2.2,0,0,1-2.21,2.19h-18V9.45Z"></path><rect class="cls-4" x="71.92" y="9.45" width="6.71" height="107.38"></rect><path class="cls-1" d="M71.92,4.43v6.72H91a2.36,2.36,0,0,0,2.36-2.36v-2h0A2.36,2.36,0,0,0,91,4.43Z"></path><path class="cls-5" d="M76,5.68V114.62h0a2.21,2.21,0,0,1-2.21,2.21H53.05V5.68Z"></path><rect class="cls-4" x="53.05" y="5.68" width="6.9" height="111.15"></rect><path class="cls-1" d="M53.05,0V7.55H75a2.36,2.36,0,0,0,2.36-2.36V2.36h0A2.36,2.36,0,0,0,75,0Z"></path><path class="cls-5" d="M1.78,116.83h0A2,2,0,0,1,0,114.61V0H57.29V114.61a2,2,0,0,1-1.75,2.22Z"></path><path class="cls-6" d="M80.86,34.45v82.39H73.13V34.46a2.58,2.58,0,0,0-.11-.73,2.81,2.81,0,0,0-2.65-2H57.32V24h13A10.58,10.58,0,0,1,80.87,34.45Z"></path><rect class="cls-7" x="57.3" y="23.95" width="2.65" height="7.73"></rect><rect class="cls-7" x="61.02" y="23.95" width="3.31" height="7.73"></rect><rect class="cls-7" x="66.77" y="23.95" width="3.31" height="7.73"></rect><path class="cls-7" d="M78.67,28,73,33.69a2.81,2.81,0,0,0-2.65-2l5.89-5.9a10.65,10.65,0,0,1,2.41,2.28Z"></path><path class="cls-7" d="M80.88,34.45v3.31H73.15V34.45Z"></path><rect class="cls-7" x="73.14" y="40.18" width="7.73" height="3.31"></rect><rect class="cls-7" x="73.14" y="45.92" width="7.73" height="3.31"></rect><rect class="cls-7" x="73.14" y="51.65" width="7.73" height="3.31"></rect><rect class="cls-7" x="73.14" y="57.39" width="7.73" height="3.31"></rect><rect class="cls-7" x="73.14" y="63.12" width="7.73" height="3.31"></rect><rect class="cls-7" x="73.14" y="68.86" width="7.73" height="3.31"></rect><rect class="cls-7" x="73.14" y="74.59" width="7.73" height="3.31"></rect><rect class="cls-7" x="73.14" y="80.33" width="7.73" height="3.31"></rect><rect class="cls-7" x="73.14" y="86.06" width="7.73" height="3.31"></rect><rect class="cls-7" x="73.14" y="91.8" width="7.73" height="3.31"></rect><rect class="cls-7" x="73.14" y="109.01" width="7.73" height="3.31"></rect><rect class="cls-7" x="73.14" y="103.27" width="7.73" height="3.31"></rect><rect class="cls-7" x="73.14" y="97.53" width="7.73" height="3.31"></rect><path class="cls-8" d="M123.22,106.7a2.07,2.07,0,0,1-2.07,2.07H105.93a2.07,2.07,0,0,1-2.07-2.07v-4.14h0a2.07,2.07,0,0,1,2.07-2.07h15.22a2.07,2.07,0,0,1,2.07,2.07v4.14Z"></path><path class="cls-9" d="M116.29,78.47V93.41h-5.41V78.47a2.47,2.47,0,0,1,2.71-2.13h0A2.46,2.46,0,0,1,116.29,78.47Z"></path><path class="cls-10" d="M118.34,94.31v6.18h-9.51V94.31a.91.91,0,0,1,.9-.9h7.71A.9.9,0,0,1,118.34,94.31Z"></path><path class="cls-4" d="M127.37,117.09V106.74h0a2.07,2.07,0,0,0-2.07-2.07H101.87a2.07,2.07,0,0,0-2.07,2.07v10.35Z"></path><path class="cls-8" d="M159.3,108.77H144.08A2.07,2.07,0,0,1,142,106.7v-4.14h0a2.07,2.07,0,0,1,2.07-2.07H159.3a2.07,2.07,0,0,1,2.07,2.07v4.14A2.07,2.07,0,0,1,159.3,108.77Z"></path><path class="cls-9" d="M154.45,78.47V93.41H149V78.47a2.46,2.46,0,0,1,2.7-2.13h0A2.47,2.47,0,0,1,154.45,78.47Z"></path><path class="cls-10" d="M156.5,94.31v6.18H147V94.31a.9.9,0,0,1,.9-.9h7.71A.92.92,0,0,1,156.5,94.31Z"></path><path class="cls-4" d="M165.53,117.09V106.74a2.07,2.07,0,0,0-2.07-2.07H140a2.07,2.07,0,0,0-2.07,2.07v10.35Z"></path><path class="cls-8" d="M197.46,108.77H182.22a2.07,2.07,0,0,1-2.07-2.07v-4.16a2.07,2.07,0,0,1,2.09-2.05h15.22a2.07,2.07,0,0,1,2.07,2.07v4.14A2.07,2.07,0,0,1,197.46,108.77Z"></path><path class="cls-9" d="M192.55,78.47V93.41h-5.4V78.47a2.46,2.46,0,0,1,2.75-2.13h0A2.47,2.47,0,0,1,192.55,78.47Z"></path><path class="cls-10" d="M194.65,94.31v6.18h-9.5V94.31h0a.9.9,0,0,1,.9-.9h7.7A.9.9,0,0,1,194.65,94.31Z"></path><path class="cls-4" d="M203.68,117.09V106.74a2.07,2.07,0,0,0-2.07-2.07H178.22a2.07,2.07,0,0,0-2.07,2.07v10.35Z"></path><path class="cls-8" d="M235.62,108.77H220.39a2.07,2.07,0,0,1-2.07-2.07v-4.14a2.07,2.07,0,0,1,2.07-2.07h15.23a2.07,2.07,0,0,1,2.07,2.07v4.14A2.07,2.07,0,0,1,235.62,108.77Z"></path><path class="cls-9" d="M230.76,78.47V93.41h-5.41V78.47a2.47,2.47,0,0,1,2.71-2.13h0A2.46,2.46,0,0,1,230.76,78.47Z"></path><path class="cls-10" d="M232.81,94.31v6.18h-9.56V94.31a.91.91,0,0,1,.9-.9h7.76A.92.92,0,0,1,232.81,94.31Z"></path><path class="cls-4" d="M241.84,117.09V106.74a2.07,2.07,0,0,0-2.07-2.07H216.34a2.07,2.07,0,0,0-2.07,2.07v10.35Z"></path><path class="cls-4" d="M93.93,29.81h0a.49.49,0,0,1,.49.49v6.93h0a.49.49,0,0,1-.5.48h-1V29.81Z"></path><path class="cls-11" d="M97.62,30.3h0a3.46,3.46,0,0,1,3.46,3.46h0a3.46,3.46,0,0,1-3.46,3.46H94.41V30.3Z"></path><path class="cls-4" d="M92.4,29.32h.25a.26.26,0,0,1,.25.24V38a.26.26,0,0,1-.25.24H92.4a.25.25,0,0,1-.25-.24V29.56A.25.25,0,0,1,92.4,29.32Z"></path><path class="cls-4" d="M93.93,17.7a.5.5,0,0,1,.5.5v6.92h0a.49.49,0,0,1-.5.48h-1V17.7Z"></path><path class="cls-12" d="M97.62,18.2h0a3.46,3.46,0,0,1,3.46,3.46h0a3.46,3.46,0,0,1-3.46,3.46H94.41V18.2Z"></path><path class="cls-4" d="M92.4,17.21h.25a.26.26,0,0,1,.25.24v8.41a.25.25,0,0,1-.25.25H92.4a.25.25,0,0,1-.25-.25V17.45A.25.25,0,0,1,92.4,17.21Z"></path></g></svg> 