<?xml version="1.0" encoding="UTF-8"?> <svg xmlns="http://www.w3.org/2000/svg" viewBox="0 0 279.13 117.09"><defs><style>.cls-1{fill:#546e7a;}.cls-2{fill:#b0bec5;}.cls-3{fill:#37474f;}.cls-4{fill:#78909c;}.cls-5{fill:#90a4ae;}.cls-6{fill:#eee;}.cls-7{fill:#bdbdbd;}.cls-8{fill:#ffb300;}.cls-9{fill:#f5f5f5;}.cls-10{fill:#ffca28;}.cls-11{fill:#ff6464;}.cls-12{fill:#aaf589;}</style></defs><g id="interior_bits" data-name="interior bits"><rect class="cls-1" x="181.31" y="22.82" width="9.38" height="62.31"></rect><path class="cls-2" d="M206.43,91.28H12.94a12.94,12.94,0,0,1,0-25.88H206.43V91.28m0,0"></path><path class="cls-3" d="M226.1,83.9H12.94a5.56,5.56,0,1,1,0-11.11H226.1Zm-213.16,0"></path><path class="cls-4" d="M17.58,78.34A5.56,5.56,0,1,1,12,72.79a5.55,5.55,0,0,1,5.55,5.55Zm0,0"></path><path class="cls-4" d="M171.12,78.34a5.56,5.56,0,1,1-5.56-5.55,5.56,5.56,0,0,1,5.56,5.55Zm0,0"></path><path class="cls-4" d="M133,78.34a5.56,5.56,0,1,1-5.56-5.55A5.56,5.56,0,0,1,133,78.34Zm0,0"></path><path class="cls-4" d="M94.81,78.34a5.56,5.56,0,1,1-5.56-5.55,5.56,5.56,0,0,1,5.56,5.55Zm0,0"></path><path class="cls-4" d="M56.65,78.34a5.56,5.56,0,1,1-5.56-5.55,5.56,5.56,0,0,1,5.56,5.55Zm0,0"></path><path class="cls-5" d="M207.23,9.45V116.83h-18a2.2,2.2,0,0,1-2.21-2.21V9.45ZM187,9.45"></path><rect class="cls-4" x="200.52" y="9.45" width="6.71" height="107.38"></rect><path class="cls-1" d="M188.12,4.43a2.36,2.36,0,0,0-2.36,2.36v2a2.36,2.36,0,0,0,2.36,2.36h19.11V4.43Zm19.11,0"></path><path class="cls-5" d="M226.1,5.68V116.83H205.38a2.21,2.21,0,0,1-2.21-2.21V5.68Zm-22.93,0"></path><rect class="cls-4" x="219.2" y="5.68" width="6.9" height="111.15"></rect><path class="cls-1" d="M204.16,0a2.36,2.36,0,0,0-2.36,2.36V5.19a2.36,2.36,0,0,0,2.36,2.36H226.1V0ZM226.1,0"></path><path class="cls-5" d="M223.61,116.83a2,2,0,0,1-1.75-2.22V0h57.27V114.61a2,2,0,0,1-1.76,2.22Zm0,0"></path><path class="cls-6" d="M198.28,34.45A10.57,10.57,0,0,1,208.83,24h13v7.73H208.78a2.8,2.8,0,0,0-2.65,2,2.48,2.48,0,0,0-.11.73.13.13,0,0,0,0,.06v82.32h-7.73V34.45Zm0,0"></path><rect class="cls-7" x="219.2" y="23.95" width="2.65" height="7.73"></rect><rect class="cls-7" x="214.82" y="23.95" width="3.31" height="7.73"></rect><rect class="cls-7" x="209.07" y="23.95" width="3.31" height="7.73"></rect><path class="cls-7" d="M200.48,28.07a10.45,10.45,0,0,1,2.41-2.28l5.89,5.9a2.8,2.8,0,0,0-2.65,2l-5.65-5.65Zm0,0"></path><path class="cls-7" d="M206,34.45a.13.13,0,0,0,0,.06v3.25h-7.73V34.45Zm-7.74,0"></path><rect class="cls-7" x="198.28" y="40.18" width="7.73" height="3.31"></rect><rect class="cls-7" x="198.28" y="45.92" width="7.73" height="3.31"></rect><rect class="cls-7" x="198.28" y="51.65" width="7.73" height="3.31"></rect><rect class="cls-7" x="198.28" y="57.39" width="7.73" height="3.31"></rect><rect class="cls-7" x="198.28" y="63.12" width="7.73" height="3.31"></rect><rect class="cls-7" x="198.28" y="68.86" width="7.73" height="3.31"></rect><rect class="cls-7" x="198.28" y="74.59" width="7.73" height="3.31"></rect><rect class="cls-7" x="198.28" y="80.33" width="7.73" height="3.31"></rect><rect class="cls-7" x="198.28" y="86.06" width="7.73" height="3.31"></rect><rect class="cls-7" x="198.28" y="91.8" width="7.73" height="3.31"></rect><rect class="cls-7" x="198.28" y="109.01" width="7.73" height="3.31"></rect><rect class="cls-7" x="198.28" y="103.27" width="7.73" height="3.31"></rect><rect class="cls-7" x="198.28" y="97.53" width="7.73" height="3.31"></rect><path class="cls-8" d="M155.93,106.7v-4.14a2.07,2.07,0,0,1,2.07-2.07h15.22a2.07,2.07,0,0,1,2.07,2.07v4.14a2.07,2.07,0,0,1-2.07,2.07H158a2.07,2.07,0,0,1-2.07-2.07Zm0,0"></path><path class="cls-9" d="M165.56,76.34h0a2.47,2.47,0,0,1,2.71,2.13V93.41h-5.41V78.47A2.46,2.46,0,0,1,165.56,76.34Z"></path><path class="cls-10" d="M161.71,93.41h7.71a.91.91,0,0,1,.9.9v6.18h-9.51V94.31A.9.9,0,0,1,161.71,93.41Z"></path><path class="cls-4" d="M179.35,117.09V106.74a2.07,2.07,0,0,0-2.07-2.07H153.85a2.07,2.07,0,0,0-2.07,2.07v10.35Zm0,0"></path><path class="cls-8" d="M117.78,106.7v-4.14a2.07,2.07,0,0,1,2.07-2.07h15.22a2.07,2.07,0,0,1,2.07,2.07v4.14a2.07,2.07,0,0,1-2.07,2.07H119.85a2.07,2.07,0,0,1-2.07-2.07Zm0,0"></path><path class="cls-9" d="M127.41,76.34h0a2.46,2.46,0,0,1,2.7,2.13V93.41H124.7V78.47A2.47,2.47,0,0,1,127.41,76.34Z"></path><path class="cls-10" d="M123.55,93.41h7.71a.9.9,0,0,1,.9.9v6.18h-9.51V94.31A.91.91,0,0,1,123.55,93.41Z"></path><path class="cls-4" d="M141.19,117.09V106.74a2.07,2.07,0,0,0-2.07-2.07H115.69a2.07,2.07,0,0,0-2.07,2.07v10.35Zm0,0"></path><path class="cls-8" d="M79.62,106.7v-4.14a2.07,2.07,0,0,1,2.07-2.07H96.91A2.07,2.07,0,0,1,99,102.56v4.14a2.07,2.07,0,0,1-2.07,2.07H81.69a2.07,2.07,0,0,1-2.07-2.07Zm0,0"></path><path class="cls-9" d="M89.25,76.34h0A2.46,2.46,0,0,1,92,78.47V93.41h-5.4V78.47A2.46,2.46,0,0,1,89.25,76.34Z"></path><path class="cls-10" d="M85.4,93.41h7.7a.9.9,0,0,1,.9.9v6.18H84.5V94.31A.9.9,0,0,1,85.4,93.41Z"></path><path class="cls-4" d="M103,117.09V106.74a2.07,2.07,0,0,0-2.07-2.07H77.54a2.07,2.07,0,0,0-2.07,2.07v10.35Zm0,0"></path><path class="cls-8" d="M41.46,106.7v-4.14a2.07,2.07,0,0,1,2.07-2.07H58.76a2.07,2.07,0,0,1,2.07,2.07v4.14a2.07,2.07,0,0,1-2.07,2.07H43.53a2.07,2.07,0,0,1-2.07-2.07Zm0,0"></path><path class="cls-9" d="M51.09,76.34h0a2.47,2.47,0,0,1,2.71,2.13V93.41H48.39V78.47A2.46,2.46,0,0,1,51.09,76.34Z"></path><path class="cls-10" d="M47.24,93.41H55a.91.91,0,0,1,.9.9v6.18H46.34V94.31A.91.91,0,0,1,47.24,93.41Z"></path><path class="cls-4" d="M64.88,117.09V106.74a2.07,2.07,0,0,0-2.07-2.07H39.38a2.07,2.07,0,0,0-2.07,2.07v10.35Zm0,0"></path><path class="cls-4" d="M186.22,29.81v7.91h-1a.49.49,0,0,1-.5-.49V30.3a.49.49,0,0,1,.5-.49Z"></path><path class="cls-11" d="M184.74,30.3v6.93h-3.21a3.46,3.46,0,0,1-3.46-3.47h0a3.46,3.46,0,0,1,3.46-3.46Z"></path><path class="cls-4" d="M187,29.56V38a.25.25,0,0,1-.25.24h-.25a.25.25,0,0,1-.25-.24V29.56a.25.25,0,0,1,.25-.24h.25A.25.25,0,0,1,187,29.56Z"></path><path class="cls-4" d="M186.22,17.7v7.91h-1a.49.49,0,0,1-.5-.49V18.2a.5.5,0,0,1,.5-.5Z"></path><path class="cls-12" d="M184.74,18.2v6.92h-3.21a3.46,3.46,0,0,1-3.46-3.46h0a3.46,3.46,0,0,1,3.46-3.46Z"></path><path class="cls-4" d="M187,17.45v8.41a.25.25,0,0,1-.25.25h-.25a.25.25,0,0,1-.25-.25V17.45a.25.25,0,0,1,.25-.24h.25A.25.25,0,0,1,187,17.45Z"></path></g></svg> 