<?xml version="1.0" encoding="UTF-8"?> <svg xmlns="http://www.w3.org/2000/svg" viewBox="0 0 56.38 56.38"><defs><style>.cls-1{fill:#bc8e50;}.cls-2{fill:#dab46b;}.cls-3{fill:#cba763;}.cls-4{fill:#ffe473;}.cls-5{fill:#f9efda;}.cls-6{fill:#d9b166;}.cls-7{fill:#963;}</style></defs><g id="interior_bits" data-name="interior bits"><path class="cls-1" d="M53.93,49H50.25V23.29H52.7a1.23,1.23,0,0,1,1.23,1.22Z"></path><path class="cls-2" d="M53.93,24.51v27H2.45v-27a1.23,1.23,0,0,1,1.23-1.22H15.32V1.23A1.23,1.23,0,0,1,16.55,0h8a1.17,1.17,0,0,1,1.17,1.23h4.9v0A1.17,1.17,0,0,1,31.81,0h8a1.23,1.23,0,0,1,1.23,1.23V23.29H52.7A1.23,1.23,0,0,1,53.93,24.51Z"></path><path class="cls-3" d="M53.93,24.51V50.25H28.19v-27H52.7A1.23,1.23,0,0,1,53.93,24.51Z"></path><path class="cls-4" d="M56.38,49V52.7a2.45,2.45,0,0,1-2.45,2.45H2.45A2.45,2.45,0,0,1,0,52.7V49a2.45,2.45,0,0,1,2.45-2.45H53.93A2.45,2.45,0,0,1,56.38,49Z"></path><path class="cls-5" d="M24.51,0h7.36V7.35L24.51,4.9ZM11.64,28.19,19,30.64V23.29H11.64Zm25.74-4.9v4.9l7.35,2.45V23.29Z"></path><path class="cls-6" d="M56.38,51.48V52.7a2.45,2.45,0,0,1-2.45,2.45H2.45A2.45,2.45,0,0,1,0,52.7V51.48Z"></path><path class="cls-7" d="M15.93,52.7v2.45a1.23,1.23,0,0,1-1.22,1.23H7.35a1.23,1.23,0,0,1-1.22-1.23V52.7a1.22,1.22,0,0,1,1.22-1.22h7.36A1.22,1.22,0,0,1,15.93,52.7ZM49,51.48H41.67a1.21,1.21,0,0,0-1.22,1.22v2.45a1.22,1.22,0,0,0,1.22,1.23H49a1.23,1.23,0,0,0,1.23-1.23V52.7A1.22,1.22,0,0,0,49,51.48Z"></path><path class="cls-1" d="M50.25,52.7v.94h-9.8V52.7a1.21,1.21,0,0,1,1.22-1.22H49A1.22,1.22,0,0,1,50.25,52.7ZM14.71,51.48H7.35A1.22,1.22,0,0,0,6.13,52.7v.94h9.8V52.7A1.22,1.22,0,0,0,14.71,51.48Z"></path></g></svg> 