<?xml version="1.0" encoding="UTF-8"?> <svg xmlns="http://www.w3.org/2000/svg" viewBox="0 0 74.9 64.07"><defs><style>.cls-1{fill:#e5eaec;}.cls-2{fill:#c63663;}.cls-3{fill:#78909c;}.cls-4{fill:#b0bec5;}.cls-5{fill:#546e7a;}.cls-6{fill:#cfd8dc;}.cls-7{fill:#455a64;}</style></defs><g id="external_elements" data-name="external elements"><g id="satellite_1" data-name="satellite 1"><path class="cls-1" d="M11,12.76l6.75,6.73.85-.85.85-.86-6.75-6.73,13.49,0,2.41-2.42-18.32,0L7,5.38a3.66,3.66,0,0,1-1.7,1.71l3.27,3.26,0,18.31L11,26.24Zm0,0"></path><path class="cls-2" d="M7,5.38a3.46,3.46,0,0,0,.35-1.56A3.62,3.62,0,1,0,3.73,7.44,3.59,3.59,0,0,0,7,5.38Zm0,0"></path><path class="cls-3" d="M37.44,32.74h.12a6,6,0,0,1,0,12.07h-.13l26.68,4.61,0-21.34L44.46,31.51Zm0,0"></path><path class="cls-4" d="M64.14,57.07a3.34,3.34,0,0,0,3.34,3.33h5l-.06-43.34h-5a3.34,3.34,0,0,0-3.33,3.34Zm0,0"></path><path class="cls-5" d="M72.49,62.86a1.21,1.21,0,1,0,2.41,0l-.07-48.28a1.21,1.21,0,0,0-2.41,0Zm0,0"></path><path class="cls-6" d="M36.45.71l-7.87,7.9L26.17,11l-6.74,6.75-.85.86h0l-.85.85L11,26.24,8.59,28.66.71,36.56A2.43,2.43,0,0,0,0,38.34,2.34,2.34,0,0,0,.78,40c.43.39.88.76,1.33,1.12s.66.51,1,.75h0a27.85,27.85,0,0,0,30.53,1.44,6,6,0,0,0,3.82,1.45h.13a6,6,0,0,0,0-12.07h-.12l7-1.23A27.58,27.58,0,0,0,39.93.77,2.33,2.33,0,0,0,38.23,0,2.51,2.51,0,0,0,36.45.71ZM40,38.77a2.42,2.42,0,1,1-2.42-2.41A2.42,2.42,0,0,1,40,38.77ZM41.3,2.41c.17.23.35.45.52.67-.17-.22-.35-.44-.52-.67l-.09-.11Z"></path><circle class="cls-4" cx="37.57" cy="38.77" r="6.54"></circle><circle class="cls-7" cx="37.57" cy="38.77" r="3.16"></circle></g></g></svg> 