<?xml version="1.0" encoding="UTF-8"?> <svg xmlns="http://www.w3.org/2000/svg" viewBox="0 0 74.9 64.07"><defs><style>.cls-1{fill:#e5eaec;}.cls-2{fill:#c63663;}.cls-3{fill:#78909c;}.cls-4{fill:#b0bec5;}.cls-5{fill:#546e7a;}.cls-6{fill:#cfd8dc;}.cls-7{fill:#455a64;}</style></defs><g id="external_elements" data-name="external elements"><g id="satellite_1" data-name="satellite 1"><path class="cls-1" d="M63.9,26.24l2.42,2.42,0-18.31,3.27-3.26a3.66,3.66,0,0,1-1.7-1.71L64.64,8.64l-18.31,0L48.74,11l13.48,0-6.75,6.73.85.86.85.85,6.75-6.73Zm0-13.48"></path><path class="cls-2" d="M67.91,5.38a3.59,3.59,0,0,0,3.26,2.06,3.61,3.61,0,1,0-3.26-2.06Zm0,0"></path><path class="cls-3" d="M30.44,31.51,10.8,28.07l0,21.34L37.45,44.8h-.12a6,6,0,1,1,0-12.07h.12Zm7,1.23"></path><path class="cls-4" d="M10.81,20.4a3.34,3.34,0,0,0-3.33-3.34h-5L2.42,60.39h5a3.34,3.34,0,0,0,3.34-3.33Zm-.05,36.67"></path><path class="cls-5" d="M2.48,14.59a1.21,1.21,0,0,0-2.41,0L0,62.86a1.21,1.21,0,1,0,2.41,0ZM2.41,62.86"></path><path class="cls-6" d="M36.68,0A2.34,2.34,0,0,0,35,.77a27.58,27.58,0,0,0-4.53,30.74l7,1.23h-.12a6,6,0,1,0,0,12.07h.12a6,6,0,0,0,3.82-1.45A27.85,27.85,0,0,0,71.8,41.91h0q.51-.36,1-.75c.46-.36.9-.73,1.34-1.12a2.37,2.37,0,0,0,.77-1.7,2.43,2.43,0,0,0-.71-1.78l-7.87-7.9L63.9,26.24l-6.73-6.75-.85-.85h0l-.85-.86L48.74,11,46.33,8.61,38.45.71A2.49,2.49,0,0,0,36.68,0Zm.66,36.36a2.42,2.42,0,1,1-2.42,2.41A2.41,2.41,0,0,1,37.34,36.36ZM33.69,2.3l-.09.11c-.17.23-.35.45-.52.67.17-.22.35-.44.52-.67Z"></path><circle class="cls-4" cx="37.33" cy="38.77" r="6.54"></circle><circle class="cls-7" cx="37.33" cy="38.77" r="3.16"></circle></g></g></svg> 