<?xml version="1.0" encoding="UTF-8"?> <svg xmlns="http://www.w3.org/2000/svg" id="Layer_1" data-name="Layer 1" viewBox="0 0 45.39 42.66"><defs><style>.cls-1{fill:#c63663;}.cls-2{fill:#78909c;}.cls-3{fill:#546e7a;}.cls-4{fill:#cfd8dc;}.cls-5{fill:#b0bec5;}.cls-6{fill:#455a64;}</style></defs><g id="external_elements" data-name="external elements"><g id="satellite"><polygon class="cls-1" points="16.64 10.16 16.17 16.18 10.15 16.65 7.78 7.79 16.64 10.16"></polygon><path class="cls-2" d="M40.34,19.73a5.54,5.54,0,0,0-5.49,5.57V35a5.54,5.54,0,0,0,5.54,5.51H42.1V19.73H40.34Z"></path><path class="cls-3" d="M43.25,42.66h2.14V17.58H43.25a1.14,1.14,0,0,0-1.14,1.14v22.8A1.14,1.14,0,0,0,43.25,42.66Z"></path><path class="cls-4" d="M0,26.81a19.74,19.74,0,0,0,1.94,1.94A19,19,0,0,0,26.79,0L4.84,22Z"></path><circle class="cls-5" cx="30.4" cy="29.45" r="4.7"></circle><circle class="cls-6" cx="30.4" cy="29.45" r="2.27"></circle><circle class="cls-2" cx="6.03" cy="6.04" r="3.18"></circle></g></g></svg> 