<?xml version="1.0" encoding="UTF-8"?> <svg xmlns="http://www.w3.org/2000/svg" viewBox="0 0 64.07 74.9"><defs><style>.cls-1{fill:#e5eaec;}.cls-2{fill:#c63663;}.cls-3{fill:#78909c;}.cls-4{fill:#b0bec5;}.cls-5{fill:#546e7a;}.cls-6{fill:#cfd8dc;}.cls-7{fill:#455a64;}</style></defs><g id="external_elements" data-name="external elements"><g id="satellite_1" data-name="satellite 1"><path class="cls-1" d="M51.31,11l-6.73,6.75.85.85.86.85L53,12.68l0,13.49,2.41,2.41,0-18.32L58.69,7A3.62,3.62,0,0,1,57,5.29L53.72,8.56l-18.31,0L37.83,11Zm0,0"></path><path class="cls-2" d="M58.69,7a3.4,3.4,0,0,0,1.56.35,3.62,3.62,0,1,0-3.62-3.61A3.53,3.53,0,0,0,57,5.29,3.62,3.62,0,0,0,58.69,7Zm0,0"></path><path class="cls-3" d="M31.33,37.44v.12a6,6,0,0,1-12.07,0v-.13l-4.6,26.68L36,64.1,32.56,44.46Zm0,0"></path><path class="cls-4" d="M7,64.14a3.34,3.34,0,0,0-3.33,3.34v5L47,72.42v-5a3.34,3.34,0,0,0-3.34-3.33Zm0,0"></path><path class="cls-5" d="M1.2,72.49a1.21,1.21,0,0,0,0,2.41l48.27-.07a1.21,1.21,0,1,0,0-2.41Zm0,0"></path><path class="cls-6" d="M63.35,36.45l-7.9-7.87L53,26.17l-6.75-6.74-.86-.85h0l-.85-.85L37.83,11,35.41,8.59,27.51.71A2.43,2.43,0,0,0,25.73,0,2.34,2.34,0,0,0,24,.78c-.4.43-.76.88-1.12,1.33s-.51.66-.75,1h0a27.83,27.83,0,0,0-1.44,30.53,6,6,0,0,0-1.46,3.82v.13a6,6,0,0,0,12.07,0v-.12l1.23,7A27.58,27.58,0,0,0,63.3,39.93a2.37,2.37,0,0,0,.77-1.7A2.48,2.48,0,0,0,63.35,36.45ZM25.3,40a2.42,2.42,0,1,1,2.41-2.42A2.41,2.41,0,0,1,25.3,40ZM61.66,41.3l-.68.52.68-.52.11-.09Z"></path><circle class="cls-4" cx="25.29" cy="37.57" r="6.54"></circle><circle class="cls-7" cx="25.29" cy="37.57" r="3.16"></circle></g></g></svg> 