<?xml version="1.0" encoding="UTF-8"?> <svg xmlns="http://www.w3.org/2000/svg" viewBox="0 0 45.39 42.66"><defs><style>.cls-1{fill:#c63663;}.cls-2{fill:#78909c;}.cls-3{fill:#546e7a;}.cls-4{fill:#cfd8dc;}.cls-5{fill:#b0bec5;}.cls-6{fill:#455a64;}</style></defs><g id="external_elements" data-name="external elements"><g id="satellite"><polygon class="cls-1" points="37.61 7.79 35.24 16.65 29.22 16.18 28.75 10.16 37.61 7.79"></polygon><path class="cls-2" d="M5,19.73H3.29V40.51H5A5.54,5.54,0,0,0,10.54,35v-9.7A5.53,5.53,0,0,0,5,19.73Z"></path><path class="cls-3" d="M3.28,41.52V18.72a1.14,1.14,0,0,0-1.15-1.14H0V42.66H2.14A1.14,1.14,0,0,0,3.28,41.52Z"></path><path class="cls-4" d="M40.55,22,18.6,0A19,19,0,1,0,45.39,26.81Z"></path><circle class="cls-5" cx="14.99" cy="29.45" r="4.7"></circle><circle class="cls-6" cx="14.99" cy="29.45" r="2.27"></circle><circle class="cls-2" cx="39.36" cy="6.04" r="3.18"></circle></g></g></svg> 