<?xml version="1.0" encoding="UTF-8"?> <svg xmlns="http://www.w3.org/2000/svg" viewBox="0 0 42.8 32.59"><defs><style>.cls-1{fill:#fff;}.cls-2{fill:#c5cede;}.cls-3{fill:#dab46b;}.cls-4{fill:#cba763;}</style></defs><g id="interior_bits" data-name="interior bits"><rect class="cls-1" x="17.51" y="9.14" width="18.48" height="12.54" transform="translate(9.76 41.19) rotate(-86.55)"></rect><path class="cls-2" d="M21.34,6.14l11.89.72L32.16,24.68,20.27,24,21.34,6.14m-.59-.67,0,.64L19.64,23.92l0,.63.63,0,11.89.72.63,0,0-.63L33.86,6.9l0-.63-.63,0L21.38,5.51l-.63,0Z"></path><rect class="cls-1" x="10.58" y="6.94" width="12.54" height="18.48" transform="translate(-0.36 0.38) rotate(-1.27)"></rect><path class="cls-2" d="M22.6,7.13,23,25l-11.91.27-.4-17.85L22.6,7.13m.62-.65-.63,0-11.91.26h-.63v.64l.4,17.84v.63h.63L23,25.61l.64,0,0-.63L23.24,7.11l0-.63Z"></path><path class="cls-3" d="M33.17,8.38H25.24a1.14,1.14,0,0,0-1.15,1.18v0H19.25A1.15,1.15,0,0,0,18.1,8.38H10.17A1.2,1.2,0,0,0,9,9.35V32.59H34.38v-23A1.21,1.21,0,0,0,33.17,8.38Z"></path><rect class="cls-3" x="-1.36" y="4.28" width="12.69" height="1.4" transform="translate(4.98 12.03) rotate(-135)"></rect><rect class="cls-4" x="31.47" y="4.28" width="12.69" height="1.4" transform="translate(7.55 28.2) rotate(-45)"></rect></g></svg> 