<?xml version="1.0" encoding="UTF-8"?> <svg xmlns="http://www.w3.org/2000/svg" viewBox="0 0 66.21 74.15"><defs><style>.cls-1{fill:#766d78;}.cls-2{fill:#544f56;}.cls-3{fill:#fed22b;}.cls-4{fill:#fdc202;}.cls-5{fill:#f0a70a;}.cls-6{fill:#e38803;}.cls-7{fill:#444145;}</style></defs><g id="external_elements" data-name="external elements"><path class="cls-1" d="M46.84,6.51H26.34V4a4,4,0,0,0-4-4H7.24a4,4,0,0,0-4,4V62.85a1.09,1.09,0,1,0,2.17,0V4A1.81,1.81,0,0,1,7.24,2.17H22.36A1.81,1.81,0,0,1,24.17,4V6.51H14.85A1.82,1.82,0,0,0,13,8.32v6.15a1.09,1.09,0,1,0,2.18,0V8.68h3.35v6a1.09,1.09,0,1,0,2.18,0v-6h3.42v6a1.09,1.09,0,1,0,2.17,0v-6h3.42v6a1.09,1.09,0,1,0,2.17,0v-6h3.42v6a1.09,1.09,0,0,0,2.18,0v-6H41v6a1.09,1.09,0,1,0,2.17,0v-6h3.36v5.79a1.09,1.09,0,1,0,2.17,0V8.32a1.81,1.81,0,0,0-1.81-1.81Zm0,0"></path><path class="cls-1" d="M65.12,72H61.19V25.71A4.71,4.71,0,0,0,56.48,21h-4.2a1.09,1.09,0,1,0,0,2.17h4.2A2.54,2.54,0,0,1,59,25.71V72H55.08a1.09,1.09,0,1,0,0,2.17h10a1.09,1.09,0,1,0,0-2.17Zm0,0"></path><path class="cls-2" d="M12.74,69.22H2.9A2.89,2.89,0,0,1,0,66.33V57.2a2.89,2.89,0,0,1,2.9-2.89h9.84Zm0,0"></path><path class="cls-2" d="M62.34,52H57.85a1.45,1.45,0,0,1-1.45-1.45V40.41A1.45,1.45,0,0,1,57.85,39h4.49a1.45,1.45,0,0,1,1.45,1.45V50.54A1.45,1.45,0,0,1,62.34,52Zm0,0"></path><path class="cls-3" d="M52.15,18.46v51a3.62,3.62,0,0,1-3.62,3.62H13.16a3.62,3.62,0,0,1-3.62-3.62v-51a3.62,3.62,0,0,1,3.62-3.62H48.53a3.62,3.62,0,0,1,3.62,3.62Zm0,0"></path><path class="cls-4" d="M18.23,73.06H13.16a3.62,3.62,0,0,1-3.62-3.62v-51a3.62,3.62,0,0,1,3.62-3.62h5.07a3.62,3.62,0,0,0-3.62,3.62v51a3.62,3.62,0,0,0,3.62,3.62Zm0,0"></path><rect class="cls-5" x="9.54" y="28.1" width="42.61" height="2.17"></rect><rect class="cls-5" x="9.54" y="42.87" width="42.61" height="2.17"></rect><rect class="cls-5" x="9.54" y="57.64" width="42.61" height="2.17"></rect><rect class="cls-6" x="9.54" y="28.1" width="5.07" height="2.17"></rect><rect class="cls-6" x="9.54" y="42.87" width="5.07" height="2.17"></rect><rect class="cls-6" x="9.54" y="57.64" width="5.07" height="2.17"></rect><path class="cls-7" d="M8,69.22H2.9A2.89,2.89,0,0,1,0,66.33V57.2a2.89,2.89,0,0,1,2.9-2.89H8a2.89,2.89,0,0,0-2.9,2.89v9.13A2.89,2.89,0,0,0,8,69.22Zm0,0"></path><path class="cls-7" d="M61.76,52a1.36,1.36,0,0,1-.29,0H57.85a1.45,1.45,0,0,1-1.45-1.45V40.41A1.45,1.45,0,0,1,57.85,39h3.62a1.36,1.36,0,0,1,.29,0,1.45,1.45,0,0,0-1.16,1.42V50.54A1.45,1.45,0,0,0,61.76,52Zm0,0"></path></g></svg> 