<?xml version="1.0" encoding="UTF-8"?> <svg xmlns="http://www.w3.org/2000/svg" viewBox="0 0 196.97 246.94"><defs><style>.cls-1{fill:#a4856d;}.cls-2{fill:#719c40;}.cls-3{fill:#7fb241;}.cls-4{fill:#8bc540;}</style></defs><g id="building"><path class="cls-1" d="M67,235.47c4.34-4.36,8.73-14.94,13.12-36.22a1.85,1.85,0,0,0,0-.23c.2-1.64,2.94-27.84-6.57-52.19a2.41,2.41,0,0,1,3.94-2.59l3.08,8.17a2.41,2.41,0,0,0,4.12-1.79l-.59-15.06a2.41,2.41,0,0,1,2.55-2.5l13.72.8a2.41,2.41,0,0,1,2.27,2.31l.42,10.58a2.41,2.41,0,0,0,4.23,1.48l8.66-10a2.41,2.41,0,0,1,4.15,1l1.38,5.14a2.4,2.4,0,0,1-.83,2.51c-5.22,4.06-21.92,22.06-12.54,62.27a1.93,1.93,0,0,0,.11.34c.58,1.52,2.8,13.67,13.63,23.15a2.4,2.4,0,0,1-.88,4.13c-2.64.77-5.92,1.8-8.35,2.77-7.07,2.81-17-2.85-20.34-5a2.36,2.36,0,0,0-2.38-.1c-3.6,1.89-14.13,7.11-18.35,6.08-1.44-.35-2.65-.7-3.65-1A2.39,2.39,0,0,1,67,235.47Z"></path><path class="cls-2" d="M122.41,24.71A25.7,25.7,0,0,0,75.65,11a26.35,26.35,0,0,0-5.28-.33A25.73,25.73,0,0,0,45.68,37.38c0,.1,0,.19,0,.29a24.28,24.28,0,0,0-3.63-.14A25.72,25.72,0,0,0,17.38,64.25a26.08,26.08,0,0,0,.74,5.2,20.75,20.75,0,0,0-9.83,28,16.46,16.46,0,1,0,23.24,20.93,18.39,18.39,0,0,0,28.6-16c0-.46-.07-.91-.12-1.36A21.29,21.29,0,0,0,87,87.07c1,.06,2,.08,3.09,0A30.49,30.49,0,0,0,116,42.66,25.61,25.61,0,0,0,122.41,24.71Z"></path><path class="cls-3" d="M197,92.15a15.23,15.23,0,0,0-15.82-14.62l-.21,0A17.05,17.05,0,0,0,163.75,56.2a16.91,16.91,0,0,0-10,3.78,23.53,23.53,0,0,0-9-7.11A20.69,20.69,0,1,0,110.22,51a22.23,22.23,0,0,0-8.14,33.5,14.83,14.83,0,0,0,3.08,15.93,14.87,14.87,0,0,0,4.11,26,17.26,17.26,0,0,0-.25,3.69,17.55,17.55,0,0,0,34.72,2.83,17.53,17.53,0,0,0,28-10.39,15.23,15.23,0,0,0,20.38-14.93,15.46,15.46,0,0,0-.49-3.28A15.21,15.21,0,0,0,197,92.15Z"></path><path class="cls-4" d="M118.09,107.41a20.27,20.27,0,0,0,.35-4.5,20,20,0,0,0-17.39-19,13.38,13.38,0,0,0-24.5,7.23,18.39,18.39,0,0,0-19.77,15.38,11.12,11.12,0,0,0-3.07-.3,11.32,11.32,0,0,0-10.87,11.05,12,12,0,0,0-17.38,7,10.2,10.2,0,1,0-7.79,16.27,10.38,10.38,0,0,0,2.38-.39,8.81,8.81,0,0,0-.58,3.49,8.68,8.68,0,0,0,17,2.08,10.42,10.42,0,0,0,18.87-5.18A15.17,15.17,0,0,0,83,136.07a18,18,0,0,0,15.34.2,18.08,18.08,0,0,0,19.78-28.86Z"></path><path class="cls-2" d="M84.33,223.35a11.23,11.23,0,0,0,.93,16.18,12,12,0,0,0,10.11,2.67A11.65,11.65,0,0,0,97,243.94a12.07,12.07,0,0,0,16.67-1l.08-.1a11.52,11.52,0,0,0,1.15,1.17A11.93,11.93,0,0,0,133,241.19a9.76,9.76,0,0,0,10.21-2.62,9.24,9.24,0,0,0,2-3.33,7.72,7.72,0,0,0,7.5-2.25,7.19,7.19,0,0,0-.6-10.36,7.73,7.73,0,0,0-7.88-1.3,8.1,8.1,0,0,0-2.62-4.36,8.62,8.62,0,0,0-11.94.69c-.14.15-.26.31-.39.47a9.43,9.43,0,0,0-2.13-2.66,10,10,0,0,0-11.2-1.23c-.31-.33-.65-.65-1-1a14.32,14.32,0,0,0-19.79,1.14,13.51,13.51,0,0,0-3,5.13A11.9,11.9,0,0,0,84.33,223.35Z"></path><path class="cls-3" d="M156,210.82a5.22,5.22,0,0,0-5,5.43s0,0,0,.07a5.93,5.93,0,0,0-7.3,5.92,5.56,5.56,0,0,0,1.37,3.35,8,8,0,0,0-2.42,3.09,7.25,7.25,0,0,0-4.58-1.29,7,7,0,1,0,.81,13.91,7.33,7.33,0,0,0,3.3-1,7.73,7.73,0,0,0,7.34,4.11,7.83,7.83,0,0,0,4.32-1.59,5.45,5.45,0,0,0,2.15.32,5.23,5.23,0,0,0,3.35-1.47,5.22,5.22,0,0,0,9-1.55,6.74,6.74,0,0,0,1.28.06,6,6,0,0,0,5.73-6.25,6,6,0,0,0-5-5.46,5.72,5.72,0,0,0,1.23-3.9,6,6,0,0,0-5-5.47,4.86,4.86,0,0,0,.28-1.95,5.28,5.28,0,0,0-6.7-4.62A5.32,5.32,0,0,0,156,210.82Z"></path></g></svg> 