<?xml version="1.0" encoding="UTF-8"?> <svg xmlns="http://www.w3.org/2000/svg" viewBox="0 0 55.38 56.99"><defs><style>.cls-1{fill:#444145;}.cls-2{fill:#766d78;}.cls-3{fill:#544f56;}.cls-4{fill:#e5646e;}.cls-5{fill:#93dcfc;}.cls-6{fill:#8e8391;}.cls-7{fill:#f0a70a;}.cls-8{fill:#e04955;}.cls-9{fill:#72d1fb;}</style></defs><g id="external_elements" data-name="external elements"><path class="cls-1" d="M42.6,50.28H32.05a.86.86,0,1,1,0-1.72H42.6a.29.29,0,0,0,.29-.28V31a.86.86,0,1,1,1.72,0V48.28a2,2,0,0,1-2,2Zm0,0"></path><path class="cls-2" d="M53.08,33.49H32L27.73,19.21,32,4.53H53.08a2.3,2.3,0,0,1,2.3,2.29V31.2a2.3,2.3,0,0,1-2.3,2.29Zm0,0"></path><path class="cls-3" d="M32,2.29V54.7A2.28,2.28,0,0,1,29.68,57H2.29A2.29,2.29,0,0,1,0,54.7V2.29A2.3,2.3,0,0,1,2.29,0H29.68A2.29,2.29,0,0,1,32,2.29Zm0,0"></path><path class="cls-1" d="M6.31,57h-4A2.29,2.29,0,0,1,0,54.7V2.29A2.3,2.3,0,0,1,2.29,0h4A2.3,2.3,0,0,0,4,2.29V54.7A2.29,2.29,0,0,0,6.31,57Zm0,0"></path><path class="cls-4" d="M36,28.33V9.69a1.15,1.15,0,0,1,1.14-1.15H50.22a1.15,1.15,0,0,1,1.14,1.15V28.33a1.15,1.15,0,0,1-1.14,1.15H37.13A1.15,1.15,0,0,1,36,28.33Zm0,0"></path><path class="cls-5" d="M12.51,34.27a4,4,0,0,1-.54.65,4.5,4.5,0,0,1-.68.56,4.7,4.7,0,1,1,1.22-1.21Zm0,0"></path><path class="cls-5" d="M26.65,34.92A4.7,4.7,0,1,1,26,27.7a5.27,5.27,0,0,1,.68.57,4.78,4.78,0,0,1,.54.65,4.71,4.71,0,0,1-.54,6Zm0,0"></path><path class="cls-6" d="M32,41.4V54.7A2.28,2.28,0,0,1,29.68,57H2.29A2.29,2.29,0,0,1,0,54.7V41.4Zm0,0"></path><path class="cls-7" d="M25.39,51.32H6.58a1.9,1.9,0,0,1,0-3.79H25.39a1.9,1.9,0,0,1,0,3.79Zm0,0"></path><path class="cls-8" d="M41.15,29.48h-4A1.15,1.15,0,0,1,36,28.33V9.69a1.15,1.15,0,0,1,1.14-1.15h4A1.15,1.15,0,0,0,40,9.69V28.33a1.15,1.15,0,0,0,1.15,1.15Zm0,0"></path><path class="cls-3" d="M40,22.36H47.4a.86.86,0,1,0,0-1.72H40a.86.86,0,0,0,0,1.72Zm0,0"></path><path class="cls-3" d="M47.4,24.65H40a.86.86,0,1,0,0,1.72H47.4a.86.86,0,0,0,0-1.72Zm0,0"></path><path class="cls-7" d="M43.68,17.66a.85.85,0,0,0-.86.86v.06a.86.86,0,1,0,1.72,0v-.06a.86.86,0,0,0-.86-.86Zm0,0"></path><path class="cls-7" d="M43.68,10.89a.86.86,0,0,0-.86.86v3.33a.86.86,0,0,0,1.72,0V11.75a.87.87,0,0,0-.86-.86Zm0,0"></path><path class="cls-5" d="M26.88,15.19H5.09A1.14,1.14,0,0,1,4,14.05V5.91A1.14,1.14,0,0,1,5.09,4.76H26.88A1.15,1.15,0,0,1,28,5.91v8.14a1.15,1.15,0,0,1-1.15,1.14Zm0,0"></path><path class="cls-2" d="M6.31,57h-4A2.29,2.29,0,0,1,0,54.7V41.4H4V54.7A2.29,2.29,0,0,0,6.31,57Zm0,0"></path><path class="cls-9" d="M9.34,34.92a4.79,4.79,0,0,0,1.32.93,4.71,4.71,0,1,1,0-8.51,4.4,4.4,0,0,0-1.32.93,4.7,4.7,0,0,0,0,6.65Zm0,0"></path><path class="cls-9" d="M24,34.92a4.9,4.9,0,0,0,1.31.93,4.7,4.7,0,1,1,0-8.51,4.49,4.49,0,0,0-1.31.93,4.7,4.7,0,0,0,0,6.65Zm0,0"></path><path class="cls-9" d="M9.11,15.19h-4A1.14,1.14,0,0,1,4,14.05V5.91A1.14,1.14,0,0,1,5.09,4.76h4A1.14,1.14,0,0,0,8,5.91v8.14a1.14,1.14,0,0,0,1.15,1.14Zm0,0"></path><path class="cls-7" d="M12.51,34.27a4,4,0,0,1-.54.65,4.5,4.5,0,0,1-.68.56L8,32.2A.86.86,0,1,1,9.26,31Zm0,0"></path><path class="cls-7" d="M27.19,28.92,23.94,32.2a.87.87,0,0,1-1.22,0,.85.85,0,0,1,0-1.21L26,27.7a5.27,5.27,0,0,1,.68.57,4.78,4.78,0,0,1,.54.65Zm0,0"></path><path class="cls-2" d="M8.69,7.45a.86.86,0,0,0-.86.86v3.33a.86.86,0,0,0,1.72,0V8.31a.87.87,0,0,0-.86-.86Zm0,0"></path><path class="cls-2" d="M13.55,12.5a.86.86,0,0,0,.86-.86V8.31a.86.86,0,1,0-1.72,0v3.33a.87.87,0,0,0,.86.86Zm0,0"></path><path class="cls-2" d="M18.42,12.5a.86.86,0,0,0,.86-.86V8.31a.86.86,0,1,0-1.72,0v3.33a.87.87,0,0,0,.86.86Zm0,0"></path><path class="cls-2" d="M23.29,7.45a.86.86,0,0,0-.86.86v3.33a.86.86,0,0,0,1.72,0V8.31a.87.87,0,0,0-.86-.86Zm0,0"></path><path class="cls-2" d="M21.49,20.59h-11a.86.86,0,1,0,0,1.72h11a.86.86,0,0,0,0-1.72Zm0,0"></path></g></svg> 