<?xml version="1.0" encoding="UTF-8"?> <!-- Generator: Adobe Illustrator 24.1.0, SVG Export Plug-In . SVG Version: 6.00 Build 0) --> <svg xmlns="http://www.w3.org/2000/svg" xmlns:xlink="http://www.w3.org/1999/xlink" version="1.1" id="Layer_1" x="0px" y="0px" viewBox="0 0 223.9 224.2" style="enable-background:new 0 0 223.9 224.2;" xml:space="preserve"> <style type="text/css"> .st0{fill:#FFFFFF;} </style> <g> <path class="st0" d="M136.8,212.2c4.8-3.5,9.3-7.5,13.8-11.7c20.2-19.5,33-45.4,36.1-73.1c3.1-27.7-3.7-55.9-19.2-79.3 C153,26.2,131.6,9.2,107,0H17.6C7.9,0,0,7.9,0,17.6v50.2c3.8-7.1,7.9-13.9,12.7-20.7c0.7-0.9,1.7-1.4,2.8-1.4 c0.8,0,1.6,0.3,2.3,0.9c1,0.9,1.3,2.4,0.9,3.8c-11.3,34.3,4.2,72.9,36.8,91.8c4.2,2.4,8.8,4.6,13.5,6.3c5,1,10,1.5,14.8,1.6 c0.5,0,1,0,1.5,0c37.1,0,69.6-25,77.4-59.9c0.3-1.6,1.8-2.6,3.3-2.6c0.1,0,0.1,0,0.2,0c1.7,0.1,3,1.5,3.1,3.1 c3.2,44.1-7.2,78.5-31,102.4c-17.1,17.1-37.2,25.7-54.8,30c5.3,0.9,10.8,1.4,16.4,1.4C113.1,224.2,126.1,220.1,136.8,212.2z M62.3,69.7c-8.5,15.6-3.3,35.3,5.1,47.1c0.9,1.2,0.8,2.8,0,4c-0.7,0.9-1.7,1.4-2.7,1.4c-0.4,0-0.7-0.1-1.1-0.2 c-2.6-0.9-6-2.1-9.3-3.9c-13.7-7.5-23.7-19.9-28.1-34.8c-4.4-15-2.7-30.8,4.8-44.5C41.6,19.2,61.7,8.1,82.5,8.1 c9.5,0,19,2.3,27.9,7.1c17.7,9.6,29,27.5,30.3,47.8c0.1,1.5-0.8,2.8-2.1,3.4c-0.4,0.2-0.8,0.2-1.2,0.2c-1,0-2-0.4-2.6-1.3 c-3.3-4.1-9.2-9.7-14.3-12.5c-6.6-3.6-13.7-5.3-20.6-5.3C84.6,47.7,70,55.6,62.3,69.7z M112.1,133.4c-0.2,0-0.4,0-0.6,0 c-0.9,0-1.8-0.4-2.5-1.1c-0.8-0.8-1.1-2-0.8-3.1c0.5-2.2,0.8-4.3,0.9-6.4C109.5,107.3,97,94.3,81.5,94c-0.2,0-0.4,0-0.5,0 c-1.6,0-3.2,0.1-4.8,0.4c-0.2,0-0.4,0-0.6,0c-0.9,0-1.8-0.4-2.5-1.1c-0.8-0.8-1.1-2-0.8-3.1c4-15.6,17.8-26.4,33.8-26.4 c0.3,0,0.6,0,0.9,0c9.4,0.2,18.1,4,24.6,10.8c6.5,6.8,9.9,15.6,9.7,25C140.9,116.4,128.6,130.6,112.1,133.4z"></path> <g> <path class="st0" d="M63.8,217.8C26.5,203.7,0,167.6,0,125.4V93.6c0,0-0.2-2.9,1.2-11.7C4,111,21.1,138.6,48.4,154.3 c0,0,14.3,9.2,36.9,9.8c26.1,0.7,52-12.2,69.2-29.6C154.5,134.5,146.5,201.9,63.8,217.8z"></path> </g> <path class="st0" d="M168.2,224.2l42.1,0c7.5,0,13.6-6.1,13.6-13.6v-48.6C216.1,187.8,199.8,209.4,168.2,224.2z"></path> <path class="st0" d="M99.7,37.1c8.4,0,16.7,2,24.2,5.8c-4.4-7.7-10.7-14-18.6-18.2c-7-3.8-14.9-5.8-22.8-5.8 c-17.6,0-33.8,9.6-42.2,25c-6.1,11.2-7.5,24.2-3.9,36.5c2.3,7.9,6.6,15.1,12.5,20.8c-3.1-13-1.6-25.9,4.1-36.4 C62.3,47.6,80.2,37.1,99.7,37.1z"></path> <path class="st0" d="M106.1,73.9v0.5c-7.5,0-14.5,3.5-19.1,9.4c17.8,2.8,31.3,17.5,32.7,35.4c6.7-4.4,10.9-11.8,11-19.9 c0.1-6.5-2.3-12.7-6.8-17.4c-4.5-4.7-10.6-7.4-17.1-7.5c-0.3,0-0.5,0-0.7,0L106.1,73.9L106.1,73.9z"></path> <path class="st0" d="M135.6,0c0,0,54.4,30,62.6,97.1s-29.7,113-61.2,127.2c0,0,45.4-2.4,75-59.4S216,10.4,135.6,0z"></path> </g> </svg> 